<?xml version="1.0" encoding="utf-8"?>
<!-- Generator: Adobe Illustrator 23.0.0, SVG Export Plug-In . SVG Version: 6.00 Build 0)  -->
<svg version="1.1" id="Layer_1" xmlns="http://www.w3.org/2000/svg" xmlns:xlink="http://www.w3.org/1999/xlink" x="0px" y="0px"
	 viewBox="0 0 225 150" style="enable-background:new 0 0 225 150;" xml:space="preserve">
<style type="text/css">
	.st0{fill:#FFFFFF;}
	.st1{font-family:'MilkoDenilo-Regular';}
	.st2{font-size:67.2556px;}
	.st3{fill:#FFFFFF;stroke:#FF1400;stroke-miterlimit:10;}
	.st4{clip-path:url(#SVGID_2_);}
	.st5{clip-path:url(#SVGID_4_);}
	.st6{clip-path:url(#SVGID_6_);}
	.st7{clip-path:url(#SVGID_8_);}
	.st8{clip-path:url(#SVGID_10_);}
	.st9{clip-path:url(#SVGID_12_);}
	.st10{clip-path:url(#SVGID_14_);}
	.st11{clip-path:url(#SVGID_16_);}
	.st12{clip-path:url(#SVGID_18_);}
	.st13{clip-path:url(#SVGID_20_);}
	.st14{clip-path:url(#SVGID_22_);}
	.st15{clip-path:url(#SVGID_24_);}
	.st16{clip-path:url(#SVGID_26_);}
	.st17{clip-path:url(#SVGID_28_);}
	.st18{clip-path:url(#SVGID_30_);}
</style>
<g>
	<g>
		<rect class="st0" width="225" height="150"/>
	</g>
	<g>
		<g>
			<path d="M2.5,4.2c0.8,25,1.4,50.1,1.7,75.1c0.2,12.5,0.3,25,0.4,37.6c0,5.9,0.1,11.9,0.1,17.8c0,3.2-1,8.5,1.4,11.2
				c2.2,2.5,6.5,1.6,9.3,1.6c6.2-0.1,12.4-0.1,18.5-0.2c12.6-0.1,25.3-0.3,37.9-0.4c25.3-0.3,50.6-0.6,75.9-0.8
				c12.3-0.1,24.6-0.3,37-0.4c6-0.1,12-0.1,18-0.2c3.9,0,10.8,1.3,14.4-0.8c2.8-1.6,2.5-5.2,2.3-7.9c-0.5-6-0.8-12.1-0.9-18.1
				c-0.2-12.1,0.4-24.3,1.1-36.4c1.2-23.3,2.5-46.7-1.1-69.8c-0.5-2.9-0.4-8.9-3.6-10.6c-0.8-0.4-1.7-0.4-2.5-0.4
				c-3.5,0-7.6,1.3-11.1,1.7c-11.7,1.3-23.5,1.3-35.2,1.7c-27.6,0.8-55.3,2-82.9,2.4C55.4,7.6,27.9,4.9,0.3,2c-1.9-0.2-1.9,2.8,0,3
				C22.8,7.4,45.3,9.7,68,10.1c22.1,0.4,44.2-0.8,66.2-1.4c22.6-0.7,45.6,0,68-2.8c2-0.2,3.9-0.5,5.9-0.8c0.9-0.2,2.9-0.8,3.6-0.7
				c1.9,0.4,2.5,2.6,3,4c1.8,5.7,1.9,12.5,2.4,18.4c0.9,10.8,0.8,21.6,0.5,32.3c-0.7,22.3-2.9,44.6-1.9,67c0.2,3.9,2.9,14.2-2,16.1
				c-2,0.8-5.8,0.1-8,0.1c-3.3,0-6.7,0.1-10,0.1c-11.3,0.1-22.6,0.3-34,0.4c-45.8,0.5-91.7,1-137.6,1.5c-3.3,0-6.5,0.1-9.8,0.1
				c-0.6,0-3.2,0.3-3.9,0c-3.4-1.4-2.9-3.3-2.9-5.9c0-6.3,0-12.5-0.1-18.8C7.6,107,7.5,94.1,7.3,81.3C6.9,55.6,6.3,29.9,5.5,4.2
				C5.5,2.3,2.5,2.3,2.5,4.2L2.5,4.2z"/>
		</g>
	</g>
	<text transform="matrix(0.8963 0 0 1 22.4457 111.7139)" class="st1 st2">SEJONG</text>
</g>
<rect x="-0.5" y="1" class="st3" width="15" height="150"/>
<rect x="14.5" y="1" class="st3" width="15" height="150"/>
<rect x="29.5" y="1" class="st3" width="15" height="150"/>
<rect x="44.5" y="1" class="st3" width="15" height="150"/>
<rect x="59.5" y="1" class="st3" width="15" height="150"/>
<rect x="74.5" y="1" class="st3" width="15" height="150"/>
<rect x="89.5" y="1" class="st3" width="15" height="150"/>
<rect x="104.5" y="1" class="st3" width="15" height="150"/>
<rect x="119.5" y="1" class="st3" width="15" height="150"/>
<rect x="134.5" y="1" class="st3" width="15" height="150"/>
<rect x="149.5" y="1" class="st3" width="15" height="150"/>
<rect x="164.5" y="1" class="st3" width="15" height="150"/>
<rect x="179.5" y="1" class="st3" width="15" height="150"/>
<rect x="194.5" y="1" class="st3" width="15" height="150"/>
<rect x="209.5" y="1" class="st3" width="15" height="150"/>
<g>
	<defs>
		<rect id="SVGID_1_" x="-441.2" y="280.5" width="15" height="150"/>
	</defs>
	<clipPath id="SVGID_2_">
		<use xlink:href="#SVGID_1_"  style="overflow:visible;"/>
	</clipPath>
	<g class="st4">
		<g>
			<rect x="-440.7" y="279.5" class="st0" width="225" height="150"/>
		</g>
		<g>
			<g>
				<path d="M-438.2,283.7c0.8,25,1.3,50.1,1.7,75.1c0.2,12.5,0.3,25,0.4,37.5c0,5.9,0.1,11.9,0.1,17.8c0,3.2-1,8.5,1.4,11.2
					c2.2,2.5,6.5,1.6,9.3,1.6c6.2-0.1,12.3-0.1,18.5-0.2c12.6-0.1,25.3-0.3,37.9-0.4c25.3-0.3,50.6-0.6,75.9-0.8
					c12.3-0.1,24.6-0.3,37-0.4c6-0.1,12-0.1,18-0.2c3.9,0,10.8,1.3,14.4-0.8c2.8-1.6,2.5-5.2,2.3-7.9c-0.5-6-0.8-12-0.9-18.1
					c-0.2-12.1,0.4-24.3,1.1-36.4c1.2-23.3,2.5-46.7-1.1-69.8c-0.5-2.9-0.4-8.9-3.6-10.6c-0.8-0.4-1.7-0.4-2.5-0.4
					c-3.5,0-7.6,1.3-11.1,1.7c-11.7,1.3-23.5,1.4-35.2,1.7c-27.6,0.8-55.3,2-82.9,2.4c-27.8,0.4-55.4-2.2-83-5.1
					c-1.9-0.2-1.9,2.8,0,3c22.5,2.4,45.1,4.7,67.7,5.1c22.1,0.4,44.2-0.8,66.2-1.4c22.6-0.7,45.6,0,68-2.8c2-0.2,3.9-0.5,5.9-0.9
					c0.9-0.1,2.9-0.8,3.6-0.7c1.9,0.4,2.5,2.5,3,4c1.8,5.7,1.9,12.5,2.4,18.4c0.9,10.8,0.8,21.6,0.5,32.3c-0.7,22.3-2.9,44.6-1.9,67
					c0.2,3.9,2.9,14.2-2,16.1c-2,0.8-5.8,0.1-8,0.1c-3.3,0-6.7,0.1-10,0.1c-11.3,0.1-22.7,0.3-34,0.4c-45.9,0.5-91.7,1-137.6,1.5
					c-3.3,0-6.5,0.1-9.8,0.1c-0.6,0-3.2,0.3-3.9,0c-3.4-1.4-2.9-3.3-2.9-5.9c0-6.3,0-12.5-0.1-18.8c-0.1-12.9-0.2-25.7-0.4-38.5
					c-0.4-25.7-0.9-51.4-1.7-77.1C-435.3,281.8-438.3,281.8-438.2,283.7L-438.2,283.7z"/>
			</g>
		</g>
		<text transform="matrix(0.8963 0 0 1 -418.2776 391.2245)" class="st1 st2">SEJONG</text>
	</g>
</g>
<g>
	<defs>
		<rect id="SVGID_3_" x="-396.3" y="280.5" width="15" height="150"/>
	</defs>
	<clipPath id="SVGID_4_">
		<use xlink:href="#SVGID_3_"  style="overflow:visible;"/>
	</clipPath>
	<g class="st5">
		<g>
			<rect x="-410.8" y="279.5" class="st0" width="225" height="150"/>
		</g>
		<g>
			<g>
				<path d="M-408.3,283.7c0.8,25,1.4,50.1,1.7,75.1c0.2,12.5,0.3,25,0.4,37.5c0,5.9,0.1,11.9,0.1,17.8c0,3.2-0.9,8.5,1.4,11.2
					c2.2,2.5,6.5,1.6,9.3,1.6c6.2-0.1,12.4-0.1,18.5-0.2c12.6-0.1,25.3-0.3,37.9-0.4c25.3-0.3,50.6-0.6,76-0.8
					c12.3-0.1,24.6-0.3,37-0.4c6-0.1,12-0.1,18-0.2c3.9,0,10.8,1.3,14.4-0.8c2.8-1.6,2.5-5.2,2.3-7.9c-0.5-6-0.8-12-0.9-18.1
					c-0.2-12.1,0.4-24.3,1.1-36.4c1.2-23.3,2.5-46.7-1.1-69.8c-0.5-2.9-0.4-8.9-3.6-10.6c-0.8-0.4-1.7-0.4-2.5-0.4
					c-3.5,0-7.6,1.3-11.1,1.7c-11.7,1.3-23.5,1.4-35.2,1.7c-27.6,0.8-55.3,2-82.9,2.4c-27.8,0.4-55.4-2.2-83-5.1
					c-1.9-0.2-1.9,2.8,0,3c22.5,2.4,45.1,4.7,67.7,5.1c22.1,0.4,44.2-0.8,66.3-1.4c22.6-0.7,45.6,0,68-2.8c2-0.2,3.9-0.5,5.9-0.9
					c0.9-0.1,2.9-0.8,3.6-0.7c1.9,0.4,2.5,2.5,3,4c1.8,5.7,1.9,12.5,2.4,18.4c0.9,10.8,0.8,21.6,0.5,32.3c-0.7,22.3-2.9,44.6-1.9,67
					c0.2,3.9,2.9,14.2-2,16.1c-2,0.8-5.8,0.1-8,0.1c-3.3,0-6.7,0.1-10,0.1c-11.3,0.1-22.6,0.3-34,0.4c-45.8,0.5-91.7,1-137.6,1.5
					c-3.3,0-6.5,0.1-9.8,0.1c-0.6,0-3.2,0.3-3.9,0c-3.4-1.4-2.9-3.3-2.9-5.9c0-6.3,0-12.5-0.1-18.8c-0.1-12.9-0.2-25.7-0.4-38.5
					c-0.4-25.7-0.9-51.4-1.7-77.1C-405.3,281.8-408.3,281.8-408.3,283.7L-408.3,283.7z"/>
			</g>
		</g>
		<text transform="matrix(0.8963 0 0 1 -388.3414 391.2245)" class="st1 st2">SEJONG</text>
	</g>
</g>
<g>
	<defs>
		<rect id="SVGID_5_" x="-354.1" y="280.5" width="15" height="150"/>
	</defs>
	<clipPath id="SVGID_6_">
		<use xlink:href="#SVGID_5_"  style="overflow:visible;"/>
	</clipPath>
	<g class="st6">
		<g>
			<rect x="-383.6" y="279.5" class="st0" width="225" height="150"/>
		</g>
		<g>
			<g>
				<path d="M-381,283.7c0.8,25,1.4,50.1,1.7,75.1c0.2,12.5,0.3,25,0.4,37.5c0,5.9,0.1,11.9,0.1,17.8c0,3.2-1,8.5,1.4,11.2
					c2.2,2.5,6.5,1.6,9.3,1.6c6.2-0.1,12.4-0.1,18.5-0.2c12.6-0.1,25.3-0.3,37.9-0.4c25.3-0.3,50.6-0.6,75.9-0.8
					c12.3-0.1,24.6-0.3,37-0.4c6-0.1,12-0.1,18-0.2c3.9,0,10.8,1.3,14.4-0.8c2.8-1.6,2.5-5.2,2.3-7.9c-0.5-6-0.8-12-0.9-18.1
					c-0.2-12.1,0.4-24.3,1.1-36.4c1.2-23.3,2.5-46.7-1.1-69.8c-0.5-2.9-0.4-8.9-3.6-10.6c-0.8-0.4-1.7-0.4-2.5-0.4
					c-3.5,0-7.6,1.3-11.1,1.7c-11.7,1.3-23.5,1.4-35.2,1.7c-27.6,0.8-55.3,2-82.9,2.4c-27.8,0.4-55.4-2.2-83-5.1
					c-1.9-0.2-1.9,2.8,0,3c22.5,2.4,45.1,4.7,67.7,5.1c22.1,0.4,44.2-0.8,66.2-1.4c22.6-0.7,45.6,0,68-2.8c2-0.2,3.9-0.5,5.9-0.9
					c0.9-0.1,2.9-0.8,3.6-0.7c1.9,0.4,2.5,2.5,3,4c1.8,5.7,1.9,12.5,2.4,18.4c0.9,10.8,0.8,21.6,0.5,32.3c-0.7,22.3-2.9,44.6-1.9,67
					c0.2,3.9,2.9,14.2-2,16.1c-2,0.8-5.8,0.1-8,0.1c-3.3,0-6.7,0.1-10,0.1c-11.3,0.1-22.6,0.3-34,0.4c-45.9,0.5-91.7,1-137.6,1.5
					c-3.3,0-6.5,0.1-9.8,0.1c-0.6,0-3.2,0.3-3.9,0c-3.4-1.4-2.9-3.3-2.9-5.9c0-6.3,0-12.5-0.1-18.8c-0.1-12.9-0.2-25.7-0.4-38.5
					c-0.4-25.7-0.9-51.4-1.7-77.1C-378.1,281.8-381.1,281.8-381,283.7L-381,283.7z"/>
			</g>
		</g>
		<text transform="matrix(0.8963 0 0 1 -361.118 391.2245)" class="st1 st2">SEJONG</text>
	</g>
</g>
<g>
	<defs>
		<rect id="SVGID_7_" x="-315.3" y="280.5" width="15" height="150"/>
	</defs>
	<clipPath id="SVGID_8_">
		<use xlink:href="#SVGID_7_"  style="overflow:visible;"/>
	</clipPath>
	<g class="st7">
		<g>
			<rect x="-359.8" y="279.5" class="st0" width="225" height="150"/>
		</g>
		<g>
			<g>
				<path d="M-357.2,283.7c0.8,25,1.4,50.1,1.7,75.1c0.2,12.5,0.3,25,0.4,37.5c0,5.9,0.1,11.9,0.1,17.8c0,3.2-1,8.5,1.4,11.2
					c2.2,2.5,6.5,1.6,9.3,1.6c6.2-0.1,12.4-0.1,18.5-0.2c12.6-0.1,25.3-0.3,37.9-0.4c25.3-0.3,50.6-0.6,75.9-0.8
					c12.3-0.1,24.6-0.3,37-0.4c6-0.1,12-0.1,18-0.2c3.9,0,10.8,1.3,14.4-0.8c2.8-1.6,2.5-5.2,2.3-7.9c-0.5-6-0.8-12-0.9-18.1
					c-0.2-12.1,0.4-24.3,1.1-36.4c1.2-23.3,2.5-46.7-1.1-69.8c-0.5-2.9-0.4-8.9-3.6-10.6c-0.8-0.4-1.7-0.4-2.5-0.4
					c-3.5,0-7.6,1.3-11.1,1.7c-11.7,1.3-23.5,1.4-35.2,1.7c-27.6,0.8-55.3,2-82.9,2.4c-27.8,0.4-55.4-2.2-83-5.1
					c-1.9-0.2-1.9,2.8,0,3c22.5,2.4,45.1,4.7,67.7,5.1c22.1,0.4,44.2-0.8,66.2-1.4c22.6-0.7,45.6,0,68-2.8c2-0.2,3.9-0.5,5.9-0.9
					c0.9-0.1,2.9-0.8,3.6-0.7c1.9,0.4,2.5,2.5,3,4c1.8,5.7,1.9,12.5,2.4,18.4c0.9,10.8,0.8,21.6,0.5,32.3c-0.7,22.3-2.9,44.6-1.9,67
					c0.2,3.9,2.9,14.2-2,16.1c-2,0.8-5.8,0.1-8,0.1c-3.3,0-6.7,0.1-10,0.1c-11.3,0.1-22.6,0.3-34,0.4c-45.8,0.5-91.7,1-137.6,1.5
					c-3.3,0-6.5,0.1-9.8,0.1c-0.6,0-3.2,0.3-3.9,0c-3.4-1.4-2.9-3.3-2.9-5.9c0-6.3,0-12.5-0.1-18.8c-0.1-12.9-0.2-25.7-0.4-38.5
					c-0.4-25.7-0.9-51.4-1.7-77.1C-354.3,281.8-357.3,281.8-357.2,283.7L-357.2,283.7z"/>
			</g>
		</g>
		<text transform="matrix(0.8963 0 0 1 -337.3094 391.2245)" class="st1 st2">SEJONG</text>
	</g>
</g>
<g>
	<defs>
		<rect id="SVGID_9_" x="-278.5" y="280.5" width="15" height="150"/>
	</defs>
	<clipPath id="SVGID_10_">
		<use xlink:href="#SVGID_9_"  style="overflow:visible;"/>
	</clipPath>
	<g class="st8">
		<g>
			<rect x="-338" y="279.5" class="st0" width="225" height="150"/>
		</g>
		<g>
			<g>
				<path d="M-335.5,283.7c0.8,25,1.3,50.1,1.7,75.1c0.2,12.5,0.3,25,0.4,37.5c0,5.9,0.1,11.9,0.1,17.8c0,3.2-1,8.5,1.4,11.2
					c2.2,2.5,6.5,1.6,9.3,1.6c6.2-0.1,12.3-0.1,18.5-0.2c12.6-0.1,25.3-0.3,37.9-0.4c25.3-0.3,50.6-0.6,75.9-0.8
					c12.3-0.1,24.6-0.3,37-0.4c6-0.1,12-0.1,18-0.2c3.9,0,10.8,1.3,14.4-0.8c2.8-1.6,2.5-5.2,2.3-7.9c-0.5-6-0.8-12-0.9-18.1
					c-0.2-12.1,0.4-24.3,1.1-36.4c1.2-23.3,2.5-46.7-1.1-69.8c-0.5-2.9-0.4-8.9-3.6-10.6c-0.8-0.4-1.7-0.4-2.5-0.4
					c-3.5,0-7.6,1.3-11.1,1.7c-11.7,1.3-23.5,1.4-35.2,1.7c-27.6,0.8-55.3,2-82.9,2.4c-27.8,0.4-55.4-2.2-83-5.1
					c-1.9-0.2-1.9,2.8,0,3c22.5,2.4,45.1,4.7,67.7,5.1c22.1,0.4,44.2-0.8,66.2-1.4c22.6-0.7,45.6,0,68-2.8c2-0.2,3.9-0.5,5.9-0.9
					c0.9-0.1,2.9-0.8,3.6-0.7c1.9,0.4,2.5,2.5,3,4c1.8,5.7,1.9,12.5,2.4,18.4c0.9,10.8,0.8,21.6,0.5,32.3c-0.7,22.3-2.9,44.6-1.9,67
					c0.2,3.9,2.9,14.2-2,16.1c-2,0.8-5.8,0.1-8,0.1c-3.3,0-6.7,0.1-10,0.1c-11.3,0.1-22.6,0.3-34,0.4c-45.8,0.5-91.7,1-137.6,1.5
					c-3.3,0-6.5,0.1-9.8,0.1c-0.6,0-3.2,0.3-3.9,0c-3.4-1.4-2.9-3.3-2.9-5.9c0-6.3,0-12.5-0.1-18.8c-0.1-12.9-0.2-25.7-0.4-38.5
					c-0.4-25.7-0.9-51.4-1.7-77.1C-332.5,281.8-335.5,281.8-335.5,283.7L-335.5,283.7z"/>
			</g>
		</g>
		<text transform="matrix(0.8963 0 0 1 -315.5434 391.2245)" class="st1 st2">SEJONG</text>
	</g>
</g>
<g>
	<defs>
		<rect id="SVGID_11_" x="-241.7" y="280.5" width="15" height="150"/>
	</defs>
	<clipPath id="SVGID_12_">
		<use xlink:href="#SVGID_11_"  style="overflow:visible;"/>
	</clipPath>
	<g class="st9">
		<g>
			<rect x="-316.2" y="279.5" class="st0" width="225" height="150"/>
		</g>
		<g>
			<g>
				<path d="M-313.7,283.7c0.8,25,1.3,50.1,1.7,75.1c0.2,12.5,0.3,25,0.4,37.5c0,5.9,0.1,11.9,0.1,17.8c0,3.2-1,8.5,1.4,11.2
					c2.2,2.5,6.5,1.6,9.3,1.6c6.2-0.1,12.3-0.1,18.5-0.2c12.6-0.1,25.3-0.3,37.9-0.4c25.3-0.3,50.6-0.6,75.9-0.8
					c12.3-0.1,24.6-0.3,37-0.4c6-0.1,12-0.1,18-0.2c3.9,0,10.8,1.3,14.4-0.8c2.8-1.6,2.5-5.2,2.3-7.9c-0.5-6-0.8-12-0.9-18.1
					c-0.2-12.1,0.4-24.3,1.1-36.4c1.2-23.3,2.5-46.7-1.1-69.8c-0.5-2.9-0.4-8.9-3.6-10.6c-0.8-0.4-1.7-0.4-2.5-0.4
					c-3.5,0-7.6,1.3-11.1,1.7c-11.7,1.3-23.5,1.4-35.2,1.7c-27.6,0.8-55.3,2-82.9,2.4c-27.8,0.4-55.4-2.2-83-5.1
					c-1.9-0.2-1.9,2.8,0,3c22.5,2.4,45.1,4.7,67.7,5.1c22.1,0.4,44.2-0.8,66.3-1.4c22.6-0.7,45.6,0,68-2.8c2-0.2,3.9-0.5,5.9-0.9
					c0.9-0.1,2.9-0.8,3.6-0.7c1.9,0.4,2.5,2.5,3,4c1.8,5.7,1.9,12.5,2.4,18.4c0.9,10.8,0.8,21.6,0.5,32.3c-0.7,22.3-2.9,44.6-1.9,67
					c0.2,3.9,2.9,14.2-2,16.1c-2,0.8-5.8,0.1-8,0.1c-3.3,0-6.7,0.1-10,0.1c-11.3,0.1-22.6,0.3-34,0.4c-45.9,0.5-91.7,1-137.6,1.5
					c-3.3,0-6.5,0.1-9.8,0.1c-0.6,0-3.2,0.3-3.9,0c-3.4-1.4-2.9-3.3-2.9-5.9c0-6.3,0-12.5-0.1-18.8c-0.1-12.9-0.2-25.7-0.4-38.5
					c-0.4-25.7-0.9-51.4-1.7-77.1C-310.8,281.8-313.8,281.8-313.7,283.7L-313.7,283.7z"/>
			</g>
		</g>
		<text transform="matrix(0.8963 0 0 1 -293.7774 391.2245)" class="st1 st2">SEJONG</text>
	</g>
</g>
<g>
	<defs>
		<rect id="SVGID_13_" x="-202.9" y="280.5" width="15" height="150"/>
	</defs>
	<clipPath id="SVGID_14_">
		<use xlink:href="#SVGID_13_"  style="overflow:visible;"/>
	</clipPath>
	<g class="st10">
		<g>
			<rect x="-292.4" y="279.5" class="st0" width="225" height="150"/>
		</g>
		<g>
			<g>
				<path d="M-289.9,283.7c0.8,25,1.4,50.1,1.7,75.1c0.2,12.5,0.3,25,0.4,37.5c0,5.9,0.1,11.9,0.1,17.8c0,3.2-0.9,8.5,1.4,11.2
					c2.2,2.5,6.5,1.6,9.3,1.6c6.2-0.1,12.4-0.1,18.5-0.2c12.6-0.1,25.3-0.3,37.9-0.4c25.3-0.3,50.6-0.6,75.9-0.8
					c12.3-0.1,24.6-0.3,37-0.4c6-0.1,12-0.1,18-0.2c3.9,0,10.8,1.3,14.4-0.8c2.8-1.6,2.5-5.2,2.3-7.9c-0.5-6-0.8-12-0.9-18.1
					c-0.2-12.1,0.4-24.3,1.1-36.4c1.2-23.3,2.5-46.7-1.1-69.8c-0.5-2.9-0.4-8.9-3.6-10.6c-0.8-0.4-1.7-0.4-2.5-0.4
					c-3.5,0-7.6,1.3-11.1,1.7c-11.7,1.3-23.5,1.4-35.2,1.7c-27.6,0.8-55.3,2-82.9,2.4c-27.8,0.4-55.4-2.2-83-5.1
					c-1.9-0.2-1.9,2.8,0,3c22.5,2.4,45.1,4.7,67.7,5.1c22.1,0.4,44.2-0.8,66.3-1.4c22.6-0.7,45.6,0,68-2.8c2-0.2,3.9-0.5,5.9-0.9
					c0.9-0.1,2.9-0.8,3.6-0.7c1.9,0.4,2.5,2.5,3,4c1.8,5.7,1.9,12.5,2.4,18.4c0.9,10.8,0.8,21.6,0.5,32.3c-0.7,22.3-2.9,44.6-1.9,67
					c0.2,3.9,2.9,14.2-2,16.1c-2,0.8-5.8,0.1-8,0.1c-3.3,0-6.7,0.1-10,0.1c-11.3,0.1-22.6,0.3-34,0.4c-45.9,0.5-91.7,1-137.6,1.5
					c-3.3,0-6.5,0.1-9.8,0.1c-0.6,0-3.2,0.3-3.9,0c-3.4-1.4-2.9-3.3-2.9-5.9c0-6.3,0-12.5-0.1-18.8c-0.1-12.9-0.2-25.7-0.4-38.5
					c-0.4-25.7-0.9-51.4-1.7-77.1C-286.9,281.8-289.9,281.8-289.9,283.7L-289.9,283.7z"/>
			</g>
		</g>
		<text transform="matrix(0.8963 0 0 1 -269.9688 391.2245)" class="st1 st2">SEJONG</text>
	</g>
</g>
<g>
	<defs>
		<rect id="SVGID_15_" x="-162.1" y="280.5" width="15" height="150"/>
	</defs>
	<clipPath id="SVGID_16_">
		<use xlink:href="#SVGID_15_"  style="overflow:visible;"/>
	</clipPath>
	<g class="st11">
		<g>
			<rect x="-266.6" y="279.5" class="st0" width="225" height="150"/>
		</g>
		<g>
			<g>
				<path d="M-264,283.7c0.8,25,1.4,50.1,1.7,75.1c0.2,12.5,0.3,25,0.4,37.5c0,5.9,0.1,11.9,0.1,17.8c0,3.2-1,8.5,1.4,11.2
					c2.2,2.5,6.5,1.6,9.3,1.6c6.2-0.1,12.4-0.1,18.5-0.2c12.6-0.1,25.3-0.3,37.9-0.4c25.3-0.3,50.6-0.6,75.9-0.8
					c12.3-0.1,24.6-0.3,37-0.4c6-0.1,12-0.1,18-0.2c3.9,0,10.8,1.3,14.4-0.8c2.8-1.6,2.5-5.2,2.3-7.9c-0.5-6-0.8-12-0.9-18.1
					c-0.2-12.1,0.4-24.3,1.1-36.4c1.2-23.3,2.5-46.7-1.1-69.8c-0.5-2.9-0.4-8.9-3.6-10.6c-0.8-0.4-1.7-0.4-2.5-0.4
					c-3.5,0-7.6,1.3-11.1,1.7c-11.7,1.3-23.5,1.4-35.2,1.7c-27.6,0.8-55.3,2-82.9,2.4c-27.8,0.4-55.4-2.2-83-5.1
					c-1.9-0.2-1.9,2.8,0,3c22.5,2.4,45.1,4.7,67.7,5.1c22.1,0.4,44.2-0.8,66.3-1.4c22.6-0.7,45.6,0,68-2.8c2-0.2,3.9-0.5,5.9-0.9
					c0.9-0.1,2.9-0.8,3.6-0.7c1.9,0.4,2.5,2.5,3,4c1.8,5.7,1.9,12.5,2.4,18.4c0.9,10.8,0.8,21.6,0.5,32.3c-0.7,22.3-2.9,44.6-1.9,67
					c0.2,3.9,2.9,14.2-2,16.1c-2,0.8-5.8,0.1-8,0.1c-3.3,0-6.7,0.1-10,0.1c-11.3,0.1-22.6,0.3-34,0.4c-45.9,0.5-91.7,1-137.6,1.5
					c-3.3,0-6.5,0.1-9.8,0.1c-0.6,0-3.2,0.3-3.9,0c-3.4-1.4-2.9-3.3-2.9-5.9c0-6.3,0-12.5-0.1-18.8c-0.1-12.9-0.2-25.7-0.4-38.5
					c-0.4-25.7-0.9-51.4-1.7-77.1C-261.1,281.8-264.1,281.8-264,283.7L-264,283.7z"/>
			</g>
		</g>
		<text transform="matrix(0.8963 0 0 1 -244.1177 391.2245)" class="st1 st2">SEJONG</text>
	</g>
</g>
<g>
	<defs>
		<rect id="SVGID_17_" x="-115.1" y="280.5" width="15" height="150"/>
	</defs>
	<clipPath id="SVGID_18_">
		<use xlink:href="#SVGID_17_"  style="overflow:visible;"/>
	</clipPath>
	<g class="st12">
		<g>
			<rect x="-234.6" y="279.5" class="st0" width="225" height="150"/>
		</g>
		<g>
			<g>
				<path d="M-232.1,283.7c0.8,25,1.3,50.1,1.7,75.1c0.2,12.5,0.3,25,0.4,37.5c0,5.9,0.1,11.9,0.1,17.8c0,3.2-0.9,8.5,1.4,11.2
					c2.2,2.5,6.5,1.6,9.3,1.6c6.2-0.1,12.3-0.1,18.5-0.2c12.6-0.1,25.3-0.3,37.9-0.4c25.3-0.3,50.6-0.6,76-0.8
					c12.3-0.1,24.6-0.3,37-0.4c6-0.1,12-0.1,18-0.2c3.9,0,10.8,1.3,14.4-0.8c2.8-1.6,2.5-5.2,2.3-7.9c-0.5-6-0.8-12-0.9-18.1
					c-0.2-12.1,0.4-24.3,1.1-36.4c1.2-23.3,2.5-46.7-1.1-69.8c-0.5-2.9-0.4-8.9-3.6-10.6c-0.8-0.4-1.7-0.4-2.5-0.4
					c-3.5,0-7.6,1.3-11.1,1.7c-11.7,1.3-23.5,1.4-35.2,1.7c-27.6,0.8-55.3,2-82.9,2.4c-27.8,0.4-55.4-2.2-83-5.1
					c-1.9-0.2-1.9,2.8,0,3c22.5,2.4,45.1,4.7,67.7,5.1c22.1,0.4,44.2-0.8,66.2-1.4c22.6-0.7,45.6,0,68-2.8c2-0.2,3.9-0.5,5.9-0.9
					c0.9-0.1,2.9-0.8,3.6-0.7c1.9,0.4,2.5,2.5,3,4c1.8,5.7,1.9,12.5,2.4,18.4c0.9,10.8,0.8,21.6,0.5,32.3c-0.7,22.3-2.9,44.6-1.9,67
					c0.2,3.9,2.9,14.2-2,16.1c-2,0.8-5.8,0.1-8,0.1c-3.3,0-6.7,0.1-10,0.1c-11.3,0.1-22.6,0.3-34,0.4c-45.8,0.5-91.7,1-137.6,1.5
					c-3.3,0-6.5,0.1-9.8,0.1c-0.6,0-3.2,0.3-3.9,0c-3.4-1.4-2.9-3.3-2.9-5.9c0-6.3,0-12.5-0.1-18.8c-0.1-12.9-0.2-25.7-0.4-38.5
					c-0.4-25.7-0.9-51.4-1.7-77.1C-229.1,281.8-232.1,281.8-232.1,283.7L-232.1,283.7z"/>
			</g>
		</g>
		<text transform="matrix(0.8963 0 0 1 -212.1389 391.2245)" class="st1 st2">SEJONG</text>
	</g>
</g>
<g>
	<defs>
		<rect id="SVGID_19_" x="-64" y="280.5" width="15" height="150"/>
	</defs>
	<clipPath id="SVGID_20_">
		<use xlink:href="#SVGID_19_"  style="overflow:visible;"/>
	</clipPath>
	<g class="st13">
		<g>
			<rect x="-198.5" y="279.5" class="st0" width="225" height="150"/>
		</g>
		<g>
			<g>
				<path d="M-196,283.7c0.8,25,1.3,50.1,1.7,75.1c0.2,12.5,0.3,25,0.4,37.5c0,5.9,0.1,11.9,0.1,17.8c0,3.2-0.9,8.5,1.4,11.2
					c2.2,2.5,6.5,1.6,9.3,1.6c6.2-0.1,12.3-0.1,18.5-0.2c12.6-0.1,25.3-0.3,37.9-0.4c25.3-0.3,50.6-0.6,75.9-0.8
					c12.3-0.1,24.6-0.3,37-0.4c6-0.1,12-0.1,18-0.2c3.9,0,10.8,1.3,14.4-0.8c2.8-1.6,2.5-5.2,2.3-7.9c-0.5-6-0.8-12-0.9-18.1
					c-0.2-12.1,0.4-24.3,1.1-36.4c1.2-23.3,2.5-46.7-1.1-69.8c-0.5-2.9-0.4-8.9-3.6-10.6c-0.8-0.4-1.7-0.4-2.5-0.4
					c-3.5,0-7.6,1.3-11.1,1.7c-11.7,1.3-23.5,1.4-35.2,1.7c-27.6,0.8-55.3,2-82.9,2.4c-27.8,0.4-55.4-2.2-83-5.1
					c-1.9-0.2-1.9,2.8,0,3c22.5,2.4,45.1,4.7,67.7,5.1c22.1,0.4,44.2-0.8,66.2-1.4c22.6-0.7,45.6,0,68-2.8c2-0.2,3.9-0.5,5.9-0.9
					c0.9-0.1,2.9-0.8,3.6-0.7c1.9,0.4,2.5,2.5,3,4c1.8,5.7,1.9,12.5,2.4,18.4c0.9,10.8,0.8,21.6,0.5,32.3c-0.7,22.3-2.9,44.6-1.9,67
					c0.2,3.9,2.9,14.2-2,16.1c-2,0.8-5.8,0.1-8,0.1c-3.3,0-6.7,0.1-10,0.1c-11.3,0.1-22.6,0.3-34,0.4c-45.8,0.5-91.7,1-137.6,1.5
					c-3.3,0-6.5,0.1-9.8,0.1c-0.6,0-3.2,0.3-3.9,0c-3.4-1.4-2.9-3.3-2.9-5.9c0-6.3,0-12.5-0.1-18.8c-0.1-12.9-0.2-25.7-0.4-38.5
					c-0.4-25.7-0.9-51.4-1.7-77.1C-193.1,281.8-196.1,281.8-196,283.7L-196,283.7z"/>
			</g>
		</g>
		<text transform="matrix(0.8963 0 0 1 -176.075 391.2245)" class="st1 st2">SEJONG</text>
	</g>
</g>
<g>
	<defs>
		<rect id="SVGID_21_" x="-16.2" y="280.5" width="15" height="150"/>
	</defs>
	<clipPath id="SVGID_22_">
		<use xlink:href="#SVGID_21_"  style="overflow:visible;"/>
	</clipPath>
	<g class="st14">
		<g>
			<rect x="-165.7" y="279.5" class="st0" width="225" height="150"/>
		</g>
		<g>
			<g>
				<path d="M-163.2,283.7c0.8,25,1.4,50.1,1.7,75.1c0.2,12.5,0.3,25,0.4,37.5c0,5.9,0.1,11.9,0.1,17.8c0,3.2-0.9,8.5,1.4,11.2
					c2.2,2.5,6.5,1.6,9.3,1.6c6.2-0.1,12.4-0.1,18.5-0.2c12.6-0.1,25.3-0.3,37.9-0.4c25.3-0.3,50.6-0.6,75.9-0.8
					c12.3-0.1,24.6-0.3,37-0.4c6-0.1,12-0.1,18-0.2c3.9,0,10.8,1.3,14.4-0.8c2.8-1.6,2.5-5.2,2.3-7.9c-0.5-6-0.8-12-0.9-18.1
					c-0.2-12.1,0.4-24.3,1.1-36.4c1.2-23.3,2.5-46.7-1.1-69.8c-0.5-2.9-0.4-8.9-3.6-10.6c-0.8-0.4-1.7-0.4-2.5-0.4
					c-3.5,0-7.6,1.3-11.1,1.7c-11.7,1.3-23.5,1.4-35.2,1.7c-27.6,0.8-55.3,2-82.9,2.4c-27.8,0.4-55.4-2.2-83-5.1
					c-1.9-0.2-1.9,2.8,0,3c22.5,2.4,45.1,4.7,67.7,5.1c22.1,0.4,44.2-0.8,66.2-1.4c22.6-0.7,45.6,0,68-2.8c2-0.2,3.9-0.5,5.9-0.9
					c0.9-0.1,2.9-0.8,3.6-0.7c1.9,0.4,2.5,2.5,3,4c1.8,5.7,1.9,12.5,2.4,18.4c0.9,10.8,0.8,21.6,0.5,32.3c-0.7,22.3-2.9,44.6-1.9,67
					c0.2,3.9,2.9,14.2-2,16.1c-2,0.8-5.8,0.1-8,0.1c-3.3,0-6.7,0.1-10,0.1c-11.3,0.1-22.6,0.3-34,0.4c-45.8,0.5-91.7,1-137.6,1.5
					c-3.3,0-6.5,0.1-9.8,0.1c-0.6,0-3.2,0.3-3.9,0c-3.4-1.4-2.9-3.3-2.9-5.9c0-6.3,0-12.5-0.1-18.8c-0.1-12.9-0.2-25.7-0.4-38.5
					c-0.4-25.7-0.9-51.4-1.7-77.1C-160.2,281.8-163.2,281.8-163.2,283.7L-163.2,283.7z"/>
			</g>
		</g>
		<text transform="matrix(0.8963 0 0 1 -143.2362 391.2245)" class="st1 st2">SEJONG</text>
	</g>
</g>
<g>
	<defs>
		<rect id="SVGID_23_" x="29.5" y="280.5" width="15" height="150"/>
	</defs>
	<clipPath id="SVGID_24_">
		<use xlink:href="#SVGID_23_"  style="overflow:visible;"/>
	</clipPath>
	<g class="st15">
		<g>
			<rect x="-135" y="279.5" class="st0" width="225" height="150"/>
		</g>
		<g>
			<g>
				<path d="M-132.5,283.7c0.8,25,1.4,50.1,1.7,75.1c0.2,12.5,0.3,25,0.4,37.5c0,5.9,0.1,11.9,0.1,17.8c0,3.2-0.9,8.5,1.4,11.2
					c2.2,2.5,6.5,1.6,9.3,1.6c6.2-0.1,12.4-0.1,18.5-0.2c12.6-0.1,25.3-0.3,37.9-0.4c25.3-0.3,50.6-0.6,75.9-0.8
					c12.3-0.1,24.6-0.3,37-0.4c6-0.1,12-0.1,18-0.2c3.9,0,10.8,1.3,14.4-0.8c2.8-1.6,2.5-5.2,2.3-7.9c-0.5-6-0.8-12-0.9-18.1
					c-0.2-12.1,0.4-24.3,1.1-36.4c1.2-23.3,2.5-46.7-1.1-69.8c-0.5-2.9-0.4-8.9-3.6-10.6c-0.8-0.4-1.7-0.4-2.5-0.4
					c-3.5,0-7.6,1.3-11.1,1.7c-11.7,1.3-23.5,1.4-35.2,1.7c-27.6,0.8-55.3,2-82.9,2.4c-27.8,0.4-55.4-2.2-83-5.1
					c-1.9-0.2-1.9,2.8,0,3c22.5,2.4,45.1,4.7,67.7,5.1c22.1,0.4,44.2-0.8,66.2-1.4c22.6-0.7,45.6,0,68-2.8c2-0.2,3.9-0.5,5.9-0.9
					c0.9-0.1,2.9-0.8,3.6-0.7c1.9,0.4,2.5,2.5,3,4c1.8,5.7,1.9,12.5,2.4,18.4c0.9,10.8,0.8,21.6,0.5,32.3c-0.7,22.3-2.9,44.6-1.9,67
					c0.2,3.9,2.9,14.2-2,16.1c-2,0.8-5.8,0.1-8,0.1c-3.3,0-6.7,0.1-10,0.1c-11.3,0.1-22.6,0.3-34,0.4c-45.8,0.5-91.7,1-137.6,1.5
					c-3.3,0-6.5,0.1-9.8,0.1c-0.6,0-3.2,0.3-3.9,0c-3.4-1.4-2.9-3.3-2.9-5.9c0-6.3,0-12.5-0.1-18.8c-0.1-12.9-0.2-25.7-0.4-38.5
					c-0.4-25.7-0.9-51.4-1.7-77.1C-129.5,281.8-132.5,281.8-132.5,283.7L-132.5,283.7z"/>
			</g>
		</g>
		<text transform="matrix(0.8963 0 0 1 -112.5537 391.2245)" class="st1 st2">SEJONG</text>
	</g>
</g>
<g>
	<defs>
		<rect id="SVGID_25_" x="74.5" y="280.5" width="15" height="150"/>
	</defs>
	<clipPath id="SVGID_26_">
		<use xlink:href="#SVGID_25_"  style="overflow:visible;"/>
	</clipPath>
	<g class="st16">
		<g>
			<rect x="-105" y="279.5" class="st0" width="225" height="150"/>
		</g>
		<g>
			<g>
				<path d="M-102.5,283.7c0.8,25,1.3,50.1,1.7,75.1c0.2,12.5,0.3,25,0.4,37.5c0,5.9,0.1,11.9,0.1,17.8c0,3.2-1,8.5,1.4,11.2
					c2.2,2.5,6.5,1.6,9.3,1.6c6.2-0.1,12.4-0.1,18.5-0.2c12.6-0.1,25.3-0.3,37.9-0.4c25.3-0.3,50.6-0.6,75.9-0.8
					c12.3-0.1,24.6-0.3,37-0.4c6-0.1,12-0.1,18-0.2c3.9,0,10.8,1.3,14.4-0.8c2.8-1.6,2.5-5.2,2.3-7.9c-0.5-6-0.8-12-0.9-18.1
					c-0.2-12.1,0.4-24.3,1.1-36.4c1.2-23.3,2.5-46.7-1.1-69.8c-0.5-2.9-0.4-8.9-3.6-10.6c-0.8-0.4-1.7-0.4-2.5-0.4
					c-3.5,0-7.6,1.3-11.1,1.7c-11.7,1.3-23.5,1.4-35.2,1.7c-27.6,0.8-55.3,2-82.9,2.4c-27.8,0.4-55.4-2.2-83-5.1
					c-1.9-0.2-1.9,2.8,0,3c22.5,2.4,45.1,4.7,67.7,5.1c22.1,0.4,44.2-0.8,66.2-1.4c22.6-0.7,45.6,0,68-2.8c2-0.2,3.9-0.5,5.9-0.9
					c0.9-0.1,2.9-0.8,3.6-0.7c1.9,0.4,2.5,2.5,3,4c1.8,5.7,1.9,12.5,2.4,18.4c0.9,10.8,0.8,21.6,0.5,32.3c-0.7,22.3-2.9,44.6-1.9,67
					c0.2,3.9,2.9,14.2-2,16.1c-2,0.8-5.8,0.1-8,0.1c-3.3,0-6.7,0.1-10,0.1c-11.3,0.1-22.6,0.3-34,0.4c-45.8,0.5-91.7,1-137.6,1.5
					c-3.3,0-6.5,0.1-9.8,0.1c-0.6,0-3.2,0.3-3.9,0c-3.4-1.4-2.9-3.3-2.9-5.9c0-6.3,0-12.5-0.1-18.8c-0.1-12.9-0.2-25.7-0.4-38.5
					c-0.4-25.7-0.9-51.4-1.7-77.1C-99.5,281.8-102.5,281.8-102.5,283.7L-102.5,283.7z"/>
			</g>
		</g>
		<text transform="matrix(0.8963 0 0 1 -82.5536 391.2245)" class="st1 st2">SEJONG</text>
	</g>
</g>
<g>
	<defs>
		<rect id="SVGID_27_" x="127" y="280.5" width="15" height="150"/>
	</defs>
	<clipPath id="SVGID_28_">
		<use xlink:href="#SVGID_27_"  style="overflow:visible;"/>
	</clipPath>
	<g class="st17">
		<g>
			<rect x="-67.5" y="279.5" class="st0" width="225" height="150"/>
		</g>
		<g>
			<g>
				<path d="M-65,283.7c0.8,25,1.4,50.1,1.7,75.1c0.2,12.5,0.3,25,0.4,37.5c0,5.9,0.1,11.9,0.1,17.8c0,3.2-1,8.5,1.4,11.2
					c2.2,2.5,6.5,1.6,9.3,1.6c6.2-0.1,12.4-0.1,18.5-0.2c12.6-0.1,25.3-0.3,37.9-0.4c25.3-0.3,50.6-0.6,75.9-0.8
					c12.3-0.1,24.6-0.3,37-0.4c6-0.1,12-0.1,18-0.2c3.9,0,10.8,1.3,14.4-0.8c2.8-1.6,2.5-5.2,2.3-7.9c-0.5-6-0.8-12-0.9-18.1
					c-0.2-12.1,0.4-24.3,1.1-36.4c1.2-23.3,2.5-46.7-1.1-69.8c-0.5-2.9-0.4-8.9-3.6-10.6c-0.8-0.4-1.7-0.4-2.5-0.4
					c-3.5,0-7.6,1.3-11.1,1.7c-11.7,1.3-23.5,1.4-35.2,1.7c-27.6,0.8-55.3,2-82.9,2.4c-27.8,0.4-55.4-2.2-83-5.1
					c-1.9-0.2-1.9,2.8,0,3c22.5,2.4,45.1,4.7,67.7,5.1c22.1,0.4,44.2-0.8,66.2-1.4c22.6-0.7,45.6,0,68-2.8c2-0.2,3.9-0.5,5.9-0.9
					c0.9-0.1,2.9-0.8,3.6-0.7c1.9,0.4,2.5,2.5,3,4c1.8,5.7,1.9,12.5,2.4,18.4c0.9,10.8,0.8,21.6,0.5,32.3c-0.7,22.3-2.9,44.6-1.9,67
					c0.2,3.9,2.9,14.2-2,16.1c-2,0.8-5.8,0.1-8,0.1c-3.3,0-6.7,0.1-10,0.1c-11.3,0.1-22.6,0.3-34,0.4c-45.8,0.5-91.7,1-137.6,1.5
					c-3.3,0-6.5,0.1-9.8,0.1c-0.6,0-3.2,0.3-3.9,0c-3.4-1.4-2.9-3.3-2.9-5.9c0-6.3,0-12.5-0.1-18.8c-0.1-12.9-0.2-25.7-0.4-38.5
					c-0.4-25.7-0.9-51.4-1.7-77.1C-62,281.8-65,281.8-65,283.7L-65,283.7z"/>
			</g>
		</g>
		<text transform="matrix(0.8963 0 0 1 -45.0535 391.2245)" class="st1 st2">SEJONG</text>
	</g>
</g>
<g>
	<defs>
		<rect id="SVGID_29_" x="157" y="280.5" width="15" height="150"/>
	</defs>
	<clipPath id="SVGID_30_">
		<use xlink:href="#SVGID_29_"  style="overflow:visible;"/>
	</clipPath>
	<g class="st18">
		<g>
			<rect x="-52.5" y="279.5" class="st0" width="225" height="150"/>
		</g>
		<g>
			<g>
				<path d="M-50,283.7c0.8,25,1.4,50.1,1.7,75.1c0.2,12.5,0.3,25,0.4,37.5c0,5.9,0.1,11.9,0.1,17.8c0,3.2-1,8.5,1.4,11.2
					c2.2,2.5,6.5,1.6,9.3,1.6c6.2-0.1,12.4-0.1,18.5-0.2c12.6-0.1,25.3-0.3,37.9-0.4c25.3-0.3,50.6-0.6,75.9-0.8
					c12.3-0.1,24.6-0.3,37-0.4c6-0.1,12-0.1,18-0.2c3.9,0,10.8,1.3,14.4-0.8c2.8-1.6,2.5-5.2,2.3-7.9c-0.5-6-0.8-12-0.9-18.1
					c-0.2-12.1,0.4-24.3,1.1-36.4c1.2-23.3,2.5-46.7-1.1-69.8c-0.5-2.9-0.4-8.9-3.6-10.6c-0.8-0.4-1.7-0.4-2.5-0.4
					c-3.5,0-7.6,1.3-11.1,1.7c-11.7,1.3-23.5,1.4-35.2,1.7c-27.6,0.8-55.3,2-82.9,2.4c-27.8,0.4-55.4-2.2-83-5.1
					c-1.9-0.2-1.9,2.8,0,3c22.5,2.4,45.1,4.7,67.7,5.1c22.1,0.4,44.2-0.8,66.2-1.4c22.6-0.7,45.6,0,68-2.8c2-0.2,3.9-0.5,5.9-0.9
					c0.9-0.1,2.9-0.8,3.6-0.7c1.9,0.4,2.5,2.5,3,4c1.8,5.7,1.9,12.5,2.4,18.4c0.9,10.8,0.8,21.6,0.5,32.3c-0.7,22.3-2.9,44.6-1.9,67
					c0.2,3.9,2.9,14.2-2,16.1c-2,0.8-5.8,0.1-8,0.1c-3.3,0-6.7,0.1-10,0.1c-11.3,0.1-22.6,0.3-34,0.4c-45.8,0.5-91.7,1-137.6,1.5
					c-3.3,0-6.5,0.1-9.8,0.1c-0.6,0-3.2,0.3-3.9,0c-3.4-1.4-2.9-3.3-2.9-5.9c0-6.3,0-12.5-0.1-18.8c-0.1-12.9-0.2-25.7-0.4-38.5
					c-0.4-25.7-0.9-51.4-1.7-77.1C-47,281.8-50,281.8-50,283.7L-50,283.7z"/>
			</g>
		</g>
		<text transform="matrix(0.8963 0 0 1 -30.0535 391.2244)" class="st1 st2">SEJONG</text>
	</g>
</g>
</svg>
