<?xml version="1.0" encoding="utf-8"?>
<!-- Generator: Adobe Illustrator 23.0.0, SVG Export Plug-In . SVG Version: 6.00 Build 0)  -->
<svg version="1.1" id="Layer_1" xmlns="http://www.w3.org/2000/svg" xmlns:xlink="http://www.w3.org/1999/xlink" x="0px" y="0px"
	 viewBox="0 0 15 150" style="enable-background:new 0 0 15 150;" xml:space="preserve">
<style type="text/css">
	.st0{clip-path:url(#SVGID_2_);}
	.st1{fill:#FFFFFF;}
	.st2{clip-path:url(#SVGID_4_);}
	.st3{clip-path:url(#SVGID_6_);}
	.st4{clip-path:url(#SVGID_8_);}
	.st5{clip-path:url(#SVGID_10_);}
	.st6{clip-path:url(#SVGID_12_);}
	.st7{clip-path:url(#SVGID_14_);}
	.st8{clip-path:url(#SVGID_16_);}
	.st9{clip-path:url(#SVGID_18_);}
	.st10{clip-path:url(#SVGID_20_);}
	.st11{font-family:'ButterFood';}
	.st12{font-size:81.6819px;}
	.st13{clip-path:url(#SVGID_22_);}
	.st14{clip-path:url(#SVGID_24_);}
	.st15{clip-path:url(#SVGID_26_);}
	.st16{clip-path:url(#SVGID_28_);}
	.st17{clip-path:url(#SVGID_30_);}
</style>
<g>
	<defs>
		<rect id="SVGID_17_" x="-70" width="15" height="150"/>
	</defs>
	<clipPath id="SVGID_2_">
		<use xlink:href="#SVGID_17_"  style="overflow:visible;"/>
	</clipPath>
	<g class="st0">
		<g>
			<rect x="-190" y="0" class="st1" width="225" height="150"/>
		</g>
		<g>
			<g>
				<path d="M-186.84,4.36c0.95,25.03,1.33,50.09,1.1,75.14c-0.12,12.53-0.39,25.05-0.81,37.57c-0.2,5.93-0.43,11.86-0.7,17.79
					c-0.16,3.47-1.11,8.41,1.75,11.16c2.61,2.51,7.19,1.79,10.42,1.78c6.65-0.02,13.3-0.03,19.94-0.04
					c12.63-0.01,25.26,0,37.89,0.02c25.26,0.06,50.52,0.19,75.78,0.4c12.63,0.11,25.26,0.23,37.89,0.38
					c5.98,0.07,11.97,0.14,17.95,0.22c4.71,0.06,11.25,1.42,15.75-0.3c2.28-0.87,3.15-2.6,3.31-4.92
					c0.42-6.06-0.79-12.61-1.14-18.68c-0.7-12.28-1.14-24.58-0.73-36.88c0.79-23.36,4.13-46.85,1.06-70.18
					c-0.33-2.48-0.71-4.94-1.19-7.4c-0.31-1.59-0.4-4.88-1.6-6.17C27.55,1.8,20.84,1.41,17.67,1C6.78-0.4-4.17,1.36-14.95,2.89
					c-27.36,3.87-55.3,2.38-82.86,2.3c-28.34-0.07-56.71-0.18-85.07-0.3c-1.93-0.01-1.93,2.99,0,3
					c45.92,0.21,91.91,1.07,137.83,0.38c10.39-0.15,20.63-1.01,30.91-2.47C-2.96,4.22,8.64,2.31,19.89,4.37
					c1.87,0.34,5.37,0.52,6.82,1.78c1.77,1.54,1.81,4.78,2.19,6.93c1.06,6.02,1.62,12.11,1.86,18.21
					c0.45,11.34-0.21,22.68-0.93,33.99c-1.43,22.59-1.48,44.81-0.06,67.4c0.16,2.59,0.34,5.19,0.5,7.78
					c0.05,0.78,0.42,2.39,0.17,3.11c-0.49,1.35-2.96,2.15-4.09,2.38c-2.4,0.49-5.53-0.08-7.98-0.11c-3.32-0.04-6.65-0.09-9.97-0.13
					c-11.63-0.15-23.27-0.28-34.9-0.39c-46.2-0.45-92.4-0.63-138.61-0.55c-4.92,0.01-19.12,2.32-19.36-4.63
					c-0.22-6.32,0.55-12.8,0.78-19.12c0.47-12.85,0.77-25.7,0.92-38.56c0.3-26.04-0.07-52.09-1.06-78.11
					C-183.91,2.43-186.91,2.42-186.84,4.36L-186.84,4.36z"/>
			</g>
		</g>
	</g>
</g>
<g>
	<defs>
		<rect id="SVGID_19_" x="-35" width="15" height="150"/>
	</defs>
	<clipPath id="SVGID_4_">
		<use xlink:href="#SVGID_19_"  style="overflow:visible;"/>
	</clipPath>
	<g class="st2">
		<g>
			<rect x="-170" y="0" class="st1" width="225" height="150"/>
		</g>
		<g>
			<g>
				<path d="M-166.84,4.36c0.95,25.03,1.33,50.09,1.1,75.14c-0.12,12.53-0.39,25.05-0.81,37.57c-0.2,5.93-0.43,11.86-0.7,17.79
					c-0.16,3.47-1.11,8.41,1.75,11.16c2.61,2.51,7.19,1.79,10.42,1.78c6.65-0.02,13.3-0.03,19.94-0.04
					c12.63-0.01,25.26,0,37.89,0.02c25.26,0.06,50.52,0.19,75.78,0.4c12.63,0.11,25.26,0.23,37.89,0.38
					c5.98,0.07,11.97,0.14,17.95,0.22c4.71,0.06,11.25,1.42,15.75-0.3c2.28-0.87,3.15-2.6,3.31-4.92
					c0.42-6.06-0.79-12.61-1.14-18.68c-0.7-12.28-1.14-24.58-0.73-36.88c0.79-23.36,4.13-46.85,1.06-70.18
					c-0.33-2.48-0.71-4.94-1.19-7.4c-0.31-1.59-0.4-4.88-1.6-6.17C47.55,1.8,40.84,1.41,37.67,1C26.78-0.4,15.83,1.36,5.05,2.89
					c-27.36,3.87-55.3,2.38-82.86,2.3c-28.34-0.07-56.71-0.18-85.07-0.3c-1.93-0.01-1.93,2.99,0,3
					c45.92,0.21,91.91,1.07,137.83,0.38C-14.66,8.12-4.42,7.26,5.86,5.8c11.18-1.58,22.78-3.49,34.03-1.43
					c1.87,0.34,5.37,0.52,6.82,1.78c1.77,1.54,1.81,4.78,2.19,6.93c1.06,6.02,1.62,12.11,1.86,18.21
					c0.45,11.34-0.21,22.68-0.93,33.99c-1.43,22.59-1.48,44.81-0.06,67.4c0.16,2.59,0.34,5.19,0.5,7.78
					c0.05,0.78,0.42,2.39,0.17,3.11c-0.49,1.35-2.96,2.15-4.09,2.38c-2.4,0.49-5.53-0.08-7.98-0.11c-3.32-0.04-6.65-0.09-9.97-0.13
					c-11.63-0.15-23.27-0.28-34.9-0.39c-46.2-0.45-92.4-0.63-138.61-0.55c-4.92,0.01-19.12,2.32-19.36-4.63
					c-0.22-6.32,0.55-12.8,0.78-19.12c0.47-12.85,0.77-25.7,0.92-38.56c0.3-26.04-0.07-52.09-1.06-78.11
					C-163.91,2.43-166.91,2.42-166.84,4.36L-166.84,4.36z"/>
			</g>
		</g>
		<text transform="matrix(0.6343 0 0 1 -137.555 131.5371)" class="st11 st12">SEJONG</text>
	</g>
</g>
<g>
	<defs>
		<rect id="SVGID_21_" width="15" height="150"/>
	</defs>
	<clipPath id="SVGID_6_">
		<use xlink:href="#SVGID_21_"  style="overflow:visible;"/>
	</clipPath>
	<g class="st3">
		<g>
			<rect x="-150" y="0" class="st1" width="225" height="150"/>
		</g>
		<g>
			<g>
				<path d="M-146.84,4.36c0.95,25.03,1.33,50.09,1.1,75.14c-0.12,12.53-0.39,25.05-0.81,37.57c-0.2,5.93-0.43,11.86-0.7,17.79
					c-0.16,3.47-1.11,8.41,1.75,11.16c2.61,2.51,7.19,1.79,10.42,1.78c6.65-0.02,13.3-0.03,19.94-0.04
					c12.63-0.01,25.26,0,37.89,0.02c25.26,0.06,50.52,0.19,75.78,0.4c12.63,0.11,25.26,0.23,37.89,0.38
					c5.98,0.07,11.97,0.14,17.95,0.22c4.71,0.06,11.25,1.42,15.75-0.3c2.28-0.87,3.15-2.6,3.31-4.92
					c0.42-6.06-0.79-12.61-1.14-18.68c-0.7-12.28-1.14-24.58-0.73-36.88c0.79-23.36,4.13-46.85,1.06-70.18
					c-0.33-2.48-0.71-4.94-1.19-7.4c-0.31-1.59-0.4-4.88-1.6-6.17C67.55,1.8,60.84,1.41,57.67,1C46.78-0.4,35.83,1.36,25.05,2.89
					c-27.36,3.87-55.3,2.38-82.86,2.3c-28.34-0.07-56.71-0.18-85.07-0.3c-1.93-0.01-1.93,2.99,0,3C-96.96,8.1-50.97,8.96-5.05,8.27
					C5.34,8.12,15.58,7.26,25.86,5.8c11.18-1.58,22.78-3.49,34.03-1.43c1.87,0.34,5.37,0.52,6.82,1.78
					c1.77,1.54,1.81,4.78,2.19,6.93c1.06,6.02,1.62,12.11,1.86,18.21c0.45,11.34-0.21,22.68-0.93,33.99
					c-1.43,22.59-1.48,44.81-0.06,67.4c0.16,2.59,0.34,5.19,0.5,7.78c0.05,0.78,0.42,2.39,0.17,3.11c-0.49,1.35-2.96,2.15-4.09,2.38
					c-2.4,0.49-5.53-0.08-7.98-0.11c-3.32-0.04-6.65-0.09-9.97-0.13c-11.63-0.15-23.27-0.28-34.9-0.39
					c-46.2-0.45-92.4-0.63-138.61-0.55c-4.92,0.01-19.12,2.32-19.36-4.63c-0.22-6.32,0.55-12.8,0.78-19.12
					c0.47-12.85,0.77-25.7,0.92-38.56c0.3-26.04-0.07-52.09-1.06-78.11C-143.91,2.43-146.91,2.42-146.84,4.36L-146.84,4.36z"/>
			</g>
		</g>
		<text transform="matrix(0.6343 0 0 1 -117.555 131.5371)" class="st11 st12">SEJONG</text>
	</g>
</g>
<g>
	<defs>
		<rect id="SVGID_23_" x="35" width="15" height="150"/>
	</defs>
	<clipPath id="SVGID_8_">
		<use xlink:href="#SVGID_23_"  style="overflow:visible;"/>
	</clipPath>
	<g class="st4">
		<g>
			<rect x="-130" y="0" class="st1" width="225" height="150"/>
		</g>
		<g>
			<g>
				<path d="M-126.84,4.36c0.95,25.03,1.33,50.09,1.1,75.14c-0.12,12.53-0.39,25.05-0.81,37.57c-0.2,5.93-0.43,11.86-0.7,17.79
					c-0.16,3.47-1.11,8.41,1.75,11.16c2.61,2.51,7.19,1.79,10.42,1.78c6.65-0.02,13.3-0.03,19.94-0.04
					c12.63-0.01,25.26,0,37.89,0.02c25.26,0.06,50.52,0.19,75.78,0.4c12.63,0.11,25.26,0.23,37.89,0.38
					c5.98,0.07,11.97,0.14,17.95,0.22c4.71,0.06,11.25,1.42,15.75-0.3c2.28-0.87,3.15-2.6,3.31-4.92
					c0.42-6.06-0.79-12.61-1.14-18.68c-0.7-12.28-1.14-24.58-0.73-36.88c0.79-23.36,4.13-46.85,1.06-70.18
					c-0.33-2.48-0.71-4.94-1.19-7.4c-0.31-1.59-0.4-4.88-1.6-6.17C87.55,1.8,80.84,1.41,77.67,1C66.78-0.4,55.83,1.36,45.05,2.89
					c-27.36,3.87-55.3,2.38-82.86,2.3c-28.34-0.07-56.71-0.18-85.07-0.3c-1.93-0.01-1.93,2.99,0,3C-76.96,8.1-30.97,8.96,14.95,8.27
					C25.34,8.12,35.58,7.26,45.86,5.8c11.18-1.58,22.78-3.49,34.03-1.43c1.87,0.34,5.37,0.52,6.82,1.78
					c1.77,1.54,1.81,4.78,2.19,6.93c1.06,6.02,1.62,12.11,1.86,18.21c0.45,11.34-0.21,22.68-0.93,33.99
					c-1.43,22.59-1.48,44.81-0.06,67.4c0.16,2.59,0.34,5.19,0.5,7.78c0.05,0.78,0.42,2.39,0.17,3.11c-0.49,1.35-2.96,2.15-4.09,2.38
					c-2.4,0.49-5.53-0.08-7.98-0.11c-3.32-0.04-6.65-0.09-9.97-0.13c-11.63-0.15-23.27-0.28-34.9-0.39
					c-46.2-0.45-92.4-0.63-138.61-0.55c-4.92,0.01-19.12,2.32-19.36-4.63c-0.22-6.32,0.55-12.8,0.78-19.12
					c0.47-12.85,0.77-25.7,0.92-38.56c0.3-26.04-0.07-52.09-1.06-78.11C-123.91,2.43-126.91,2.42-126.84,4.36L-126.84,4.36z"/>
			</g>
		</g>
		<text transform="matrix(0.6343 0 0 1 -97.555 131.5371)" class="st11 st12">SEJONG</text>
	</g>
</g>
</svg>
