<?xml version="1.0" encoding="utf-8"?>
<!-- Generator: Adobe Illustrator 23.0.0, SVG Export Plug-In . SVG Version: 6.00 Build 0)  -->
<svg version="1.1" id="Layer_1" xmlns="http://www.w3.org/2000/svg" xmlns:xlink="http://www.w3.org/1999/xlink" x="0px" y="0px"
	 viewBox="0 0 225 150" style="enable-background:new 0 0 225 150;" xml:space="preserve">
<style type="text/css">
	.st0{fill:#FFFFFF;}
	.st1{font-family:'Fresh-Lychee';}
	.st2{font-size:86.3006px;}
	.st3{fill:#FFFFFF;stroke:#FF1400;stroke-miterlimit:10;}
	.st4{clip-path:url(#SVGID_2_);}
	.st5{clip-path:url(#SVGID_4_);}
	.st6{clip-path:url(#SVGID_6_);}
	.st7{clip-path:url(#SVGID_8_);}
	.st8{clip-path:url(#SVGID_10_);}
	.st9{clip-path:url(#SVGID_12_);}
	.st10{clip-path:url(#SVGID_14_);}
	.st11{clip-path:url(#SVGID_16_);}
	.st12{clip-path:url(#SVGID_18_);}
	.st13{clip-path:url(#SVGID_20_);}
	.st14{clip-path:url(#SVGID_22_);}
	.st15{clip-path:url(#SVGID_24_);}
	.st16{clip-path:url(#SVGID_26_);}
	.st17{clip-path:url(#SVGID_28_);}
	.st18{clip-path:url(#SVGID_30_);}
</style>
<g>
	<g>
		<rect class="st0" width="225" height="150"/>
	</g>
	<g>
		<g>
			<path d="M3.7,2.3C4,27.6,4.4,52.9,4.8,78.2c0.2,12.7,0.4,25.3,0.6,37.9c0.1,6,0.2,12,0.3,18c0.1,3.6-0.6,8.2,2.1,11.1
				c2.2,2.4,5.5,2.7,8.6,2.7c6.2,0.1,12.4-0.1,18.6-0.2c12.6-0.1,25.2-0.2,37.8-0.3c25.2-0.2,50.4-0.4,75.7-0.7
				c12.3-0.1,24.6-0.2,36.9-0.3c6-0.1,11.9-0.1,17.9-0.2c5-0.1,11.4,1,16.3-0.4c8-2.3,4.9-14.4,3.7-20.2
				c-2.5-12.1-2.7-23.9-2.7-36.2c0.1-24.8,0.2-49.6,0.3-74.4c0-3.6,1.1-9.2-1.4-12.3c-1.9-2.3-5.2-2.5-8-2.5
				c-12.1,0.2-24.4,1.2-36.5,1.6C118.4,4,61.9,4.2,5.5,2.6c-1.9-0.1-1.9,2.9,0,3C51,6.9,96.5,7,142,5.9c22.9-0.6,45.8-2.1,68.7-2.6
				c3.3-0.1,6.2,1.8,7.1,4.8c0.7,2.3,0,5.6,0,7.9c0,6,0,11.9-0.1,17.9c0,11.2-0.1,22.5-0.1,33.7c0,11-0.2,22.1-0.1,33.1
				c0.1,10,1.8,19.3,3.5,29.1c0.5,2.8,1.2,6.7,0.4,9.5c-1.3,4.3-4.6,3.8-8.2,3.8c-6,0.1-11.9,0.1-17.9,0.2
				c-11.3,0.1-22.6,0.2-33.9,0.3c-45.5,0.4-90.9,0.8-136.4,1.2c-3.1,0-6.3,0.3-9.3,0.1c-1.1-0.1-2.8,0-3.7-0.5
				c-2.2-1.3-3.2-5-3.3-7.3c-0.1-6.3-0.2-12.7-0.3-19C8.2,105.5,8,92.9,7.8,80.2C7.4,54.3,7,28.3,6.7,2.3C6.6,0.4,3.6,0.4,3.7,2.3
				L3.7,2.3z"/>
		</g>
	</g>
	<text transform="matrix(0.5727 0 0 1 72 98.3535)" class="st1 st2">SEJONG</text>
</g>
<rect class="st3" width="15" height="150"/>
<rect x="15" y="0" class="st3" width="15" height="150"/>
<rect x="30" y="0" class="st3" width="15" height="150"/>
<rect x="45" y="0" class="st3" width="15" height="150"/>
<rect x="60" y="0" class="st3" width="15" height="150"/>
<rect x="75" y="0" class="st3" width="15" height="150"/>
<rect x="90" y="0" class="st3" width="15" height="150"/>
<rect x="105" y="0" class="st3" width="15" height="150"/>
<rect x="120" y="0" class="st3" width="15" height="150"/>
<rect x="135" y="0" class="st3" width="15" height="150"/>
<rect x="150" y="0" class="st3" width="15" height="150"/>
<rect x="165" y="0" class="st3" width="15" height="150"/>
<rect x="180" y="0" class="st3" width="15" height="150"/>
<rect x="195" y="0" class="st3" width="15" height="150"/>
<rect x="210" y="0" class="st3" width="15" height="150"/>
<g>
	<defs>
		<rect id="SVGID_1_" x="-7.5" y="229.1" width="15" height="150"/>
	</defs>
	<clipPath id="SVGID_2_">
		<use xlink:href="#SVGID_1_"  style="overflow:visible;"/>
	</clipPath>
	<g class="st4">
		<g>
			<rect x="-7.5" y="229.1" class="st0" width="225" height="150"/>
		</g>
		<g>
			<g>
				<path d="M-3.8,231.5c0.4,25.3,0.7,50.6,1.1,75.9c0.2,12.6,0.4,25.3,0.6,37.9c0.1,6,0.2,12,0.3,18c0.1,3.6-0.6,8.2,2.1,11.1
					c2.2,2.4,5.5,2.7,8.6,2.7c6.2,0.1,12.4-0.1,18.6-0.2c12.6-0.1,25.2-0.2,37.8-0.3c25.2-0.2,50.4-0.5,75.7-0.7
					c12.3-0.1,24.6-0.2,36.9-0.3c6,0,11.9-0.1,17.9-0.2c5,0,11.4,1,16.3-0.4c8-2.3,4.9-14.4,3.7-20.2c-2.5-12.1-2.7-23.9-2.7-36.2
					c0.1-24.8,0.2-49.6,0.3-74.4c0-3.6,1.1-9.2-1.4-12.3c-1.9-2.3-5.2-2.5-8-2.5c-12.1,0.1-24.4,1.2-36.5,1.6
					c-56.4,2.1-112.9,2.3-169.4,0.6c-1.9-0.1-1.9,2.9,0,3c45.5,1.3,91,1.5,136.5,0.4c22.9-0.6,45.8-2.1,68.7-2.6
					c3.3-0.1,6.2,1.8,7.1,4.8c0.7,2.3,0,5.6,0,7.9c0,5.9,0,11.9-0.1,17.8c0,11.2-0.1,22.5-0.1,33.7c0,11-0.2,22.1-0.1,33.1
					c0.1,10,1.8,19.3,3.5,29.1c0.5,2.8,1.2,6.7,0.4,9.5c-1.3,4.3-4.6,3.8-8.2,3.8c-6,0-11.9,0.1-17.9,0.2
					c-11.3,0.1-22.6,0.2-33.9,0.3c-45.5,0.4-90.9,0.8-136.4,1.2c-3.1,0-6.3,0.3-9.3,0.1c-1.1-0.1-2.8,0-3.7-0.5
					c-2.2-1.3-3.2-5-3.3-7.3c-0.1-6.3-0.2-12.7-0.3-19c-0.2-12.7-0.4-25.3-0.6-37.9c-0.4-26-0.8-51.9-1.1-77.9
					C-0.9,229.5-3.9,229.5-3.8,231.5L-3.8,231.5z"/>
			</g>
		</g>
		<text transform="matrix(0.5727 0 0 1 64.5 327.4814)" class="st1 st2">SEJONG</text>
	</g>
</g>
<g>
	<defs>
		<rect id="SVGID_3_" x="30" y="229.1" width="15" height="150"/>
	</defs>
	<clipPath id="SVGID_4_">
		<use xlink:href="#SVGID_3_"  style="overflow:visible;"/>
	</clipPath>
	<g class="st5">
		<g>
			<rect x="15" y="229.1" class="st0" width="225" height="150"/>
		</g>
		<g>
			<g>
				<path d="M18.7,231.5c0.4,25.3,0.7,50.6,1.1,75.9c0.2,12.6,0.4,25.3,0.6,37.9c0.1,6,0.2,12,0.3,18c0.1,3.6-0.5,8.2,2.1,11.1
					c2.2,2.4,5.5,2.7,8.6,2.7c6.2,0.1,12.4-0.1,18.6-0.2c12.6-0.1,25.2-0.2,37.8-0.3c25.2-0.2,50.4-0.5,75.7-0.7
					c12.3-0.1,24.6-0.2,36.9-0.3c6,0,11.9-0.1,17.9-0.2c5,0,11.4,1,16.3-0.4c8-2.3,4.9-14.4,3.7-20.2c-2.5-12.1-2.7-23.9-2.7-36.2
					c0.1-24.8,0.2-49.6,0.3-74.4c0-3.6,1.1-9.2-1.4-12.3c-1.9-2.3-5.2-2.5-8-2.5c-12.1,0.1-24.4,1.2-36.5,1.6
					c-56.4,2.1-112.9,2.3-169.4,0.6c-1.9-0.1-1.9,2.9,0,3c45.5,1.3,91,1.5,136.5,0.4c22.9-0.6,45.8-2.1,68.7-2.6
					c3.3-0.1,6.2,1.8,7.1,4.8c0.7,2.3,0,5.6,0,7.9c0,5.9,0,11.9-0.1,17.8c0,11.2-0.1,22.5-0.1,33.7c0,11-0.2,22.1-0.1,33.1
					c0.1,10,1.8,19.3,3.5,29.1c0.5,2.8,1.2,6.7,0.4,9.5c-1.3,4.3-4.6,3.8-8.2,3.8c-6,0-11.9,0.1-17.9,0.2
					c-11.3,0.1-22.6,0.2-33.9,0.3c-45.5,0.4-90.9,0.8-136.4,1.2c-3.1,0-6.3,0.3-9.3,0.1c-1.1-0.1-2.8,0-3.7-0.5
					c-2.2-1.3-3.2-5-3.3-7.3c-0.1-6.3-0.2-12.7-0.3-19c-0.2-12.7-0.4-25.3-0.6-37.9c-0.4-26-0.8-51.9-1.1-77.9
					C21.6,229.5,18.6,229.5,18.7,231.5L18.7,231.5z"/>
			</g>
		</g>
		<text transform="matrix(0.5727 0 0 1 87 327.4814)" class="st1 st2">SEJONG</text>
	</g>
</g>
<g>
	<defs>
		<rect id="SVGID_5_" x="67.5" y="229.1" width="15" height="150"/>
	</defs>
	<clipPath id="SVGID_6_">
		<use xlink:href="#SVGID_5_"  style="overflow:visible;"/>
	</clipPath>
	<g class="st6">
		<g>
			<rect x="37.5" y="229.1" class="st0" width="225" height="150"/>
		</g>
		<g>
			<g>
				<path d="M41.2,231.5c0.4,25.3,0.7,50.6,1.1,75.9c0.2,12.6,0.4,25.3,0.5,37.9c0.1,6,0.2,12,0.3,18c0.1,3.6-0.5,8.2,2.1,11.1
					c2.2,2.4,5.5,2.7,8.6,2.7c6.2,0.1,12.4-0.1,18.6-0.2c12.6-0.1,25.2-0.2,37.8-0.3c25.2-0.2,50.4-0.5,75.7-0.7
					c12.3-0.1,24.6-0.2,36.9-0.3c6,0,11.9-0.1,17.9-0.2c5,0,11.4,1,16.3-0.4c8-2.3,4.9-14.4,3.7-20.2c-2.5-12.1-2.7-23.9-2.7-36.2
					c0.1-24.8,0.2-49.6,0.3-74.4c0-3.6,1.1-9.2-1.4-12.3c-1.9-2.3-5.2-2.5-8-2.5c-12.1,0.1-24.4,1.2-36.5,1.6
					c-56.4,2.1-112.9,2.3-169.4,0.6c-1.9-0.1-1.9,2.9,0,3c45.5,1.3,91,1.5,136.5,0.4c22.9-0.6,45.8-2.1,68.7-2.6
					c3.3-0.1,6.2,1.8,7.1,4.8c0.7,2.3,0,5.6,0,7.9c0,5.9,0,11.9-0.1,17.8c0,11.2-0.1,22.5-0.1,33.7c0,11-0.2,22.1-0.1,33.1
					c0.1,10,1.8,19.3,3.5,29.1c0.5,2.8,1.2,6.7,0.4,9.5c-1.3,4.3-4.6,3.8-8.2,3.8c-6,0-11.9,0.1-17.9,0.2
					c-11.3,0.1-22.6,0.2-33.9,0.3c-45.5,0.4-90.9,0.8-136.4,1.2c-3.1,0-6.3,0.3-9.3,0.1c-1.1-0.1-2.8,0-3.7-0.5
					c-2.2-1.3-3.2-5-3.3-7.3c-0.1-6.3-0.2-12.7-0.3-19c-0.2-12.7-0.4-25.3-0.5-37.9c-0.4-26-0.8-51.9-1.1-77.9
					C44.1,229.5,41.1,229.5,41.2,231.5L41.2,231.5z"/>
			</g>
		</g>
		<text transform="matrix(0.5727 0 0 1 109.5 327.4814)" class="st1 st2">SEJONG</text>
	</g>
</g>
<g>
	<defs>
		<rect id="SVGID_7_" x="97.5" y="229.1" width="15" height="150"/>
	</defs>
	<clipPath id="SVGID_8_">
		<use xlink:href="#SVGID_7_"  style="overflow:visible;"/>
	</clipPath>
	<g class="st7">
		<g>
			<rect x="52.5" y="229.1" class="st0" width="225" height="150"/>
		</g>
		<g>
			<g>
				<path d="M56.2,231.5c0.4,25.3,0.7,50.6,1.1,75.9c0.2,12.6,0.4,25.3,0.5,37.9c0.1,6,0.2,12,0.3,18c0.1,3.6-0.5,8.2,2.1,11.1
					c2.2,2.4,5.5,2.7,8.6,2.7c6.2,0.1,12.4-0.1,18.6-0.2c12.6-0.1,25.2-0.2,37.8-0.3c25.2-0.2,50.4-0.5,75.7-0.7
					c12.3-0.1,24.6-0.2,36.9-0.3c6,0,11.9-0.1,17.9-0.2c5,0,11.4,1,16.3-0.4c8-2.3,4.9-14.4,3.7-20.2c-2.5-12.1-2.7-23.9-2.7-36.2
					c0.1-24.8,0.2-49.6,0.3-74.4c0-3.6,1.1-9.2-1.4-12.3c-1.9-2.3-5.2-2.5-8-2.5c-12.1,0.1-24.4,1.2-36.5,1.6
					c-56.4,2.1-112.9,2.3-169.4,0.6c-1.9-0.1-1.9,2.9,0,3c45.5,1.3,91,1.5,136.5,0.4c22.9-0.6,45.8-2.1,68.7-2.6
					c3.3-0.1,6.2,1.8,7.1,4.8c0.7,2.3,0,5.6,0,7.9c0,5.9,0,11.9-0.1,17.8c0,11.2-0.1,22.5-0.1,33.7c0,11-0.2,22.1-0.1,33.1
					c0.1,10,1.8,19.3,3.5,29.1c0.5,2.8,1.2,6.7,0.4,9.5c-1.3,4.3-4.6,3.8-8.2,3.8c-6,0-11.9,0.1-17.9,0.2
					c-11.3,0.1-22.6,0.2-33.9,0.3c-45.5,0.4-90.9,0.8-136.4,1.2c-3.1,0-6.3,0.3-9.3,0.1c-1.1-0.1-2.8,0-3.7-0.5
					c-2.2-1.3-3.2-5-3.3-7.3c-0.1-6.3-0.2-12.7-0.3-19c-0.2-12.7-0.4-25.3-0.5-37.9c-0.4-26-0.8-51.9-1.1-77.9
					C59.1,229.5,56.1,229.5,56.2,231.5L56.2,231.5z"/>
			</g>
		</g>
		<text transform="matrix(0.5727 0 0 1 124.5 327.4814)" class="st1 st2">SEJONG</text>
	</g>
</g>
<g>
	<defs>
		<rect id="SVGID_9_" x="127.5" y="229.1" width="15" height="150"/>
	</defs>
	<clipPath id="SVGID_10_">
		<use xlink:href="#SVGID_9_"  style="overflow:visible;"/>
	</clipPath>
	<g class="st8">
		<g>
			<rect x="67.5" y="229.1" class="st0" width="225" height="150"/>
		</g>
		<g>
			<g>
				<path d="M71.2,231.5c0.4,25.3,0.7,50.6,1.1,75.9c0.2,12.6,0.4,25.3,0.5,37.9c0.1,6,0.2,12,0.3,18c0.1,3.6-0.6,8.2,2.1,11.1
					c2.2,2.4,5.5,2.7,8.6,2.7c6.2,0.1,12.4-0.1,18.6-0.2c12.6-0.1,25.2-0.2,37.8-0.3c25.2-0.2,50.4-0.5,75.7-0.7
					c12.3-0.1,24.6-0.2,36.9-0.3c6,0,12-0.1,17.9-0.2c5,0,11.4,1,16.3-0.4c8-2.3,4.9-14.4,3.7-20.2c-2.5-12.1-2.7-23.9-2.7-36.2
					c0.1-24.8,0.2-49.6,0.3-74.4c0-3.6,1.1-9.2-1.4-12.3c-1.9-2.3-5.2-2.5-8-2.5c-12.1,0.1-24.4,1.2-36.5,1.6
					c-56.4,2.1-112.9,2.3-169.4,0.6c-1.9-0.1-1.9,2.9,0,3c45.5,1.3,91,1.5,136.5,0.4c22.9-0.6,45.8-2.1,68.7-2.6
					c3.3-0.1,6.2,1.8,7.1,4.8c0.7,2.3,0,5.6,0,7.9c0,5.9,0,11.9-0.1,17.8c0,11.2-0.1,22.5-0.1,33.7c0,11-0.2,22.1-0.1,33.1
					c0.1,10,1.8,19.3,3.5,29.1c0.5,2.8,1.2,6.7,0.4,9.5c-1.3,4.3-4.6,3.8-8.2,3.8c-6,0-11.9,0.1-17.9,0.2
					c-11.3,0.1-22.6,0.2-33.9,0.3c-45.5,0.4-90.9,0.8-136.4,1.2c-3.1,0-6.3,0.3-9.3,0.1c-1.1-0.1-2.8,0-3.7-0.5
					c-2.2-1.3-3.2-5-3.3-7.3c-0.1-6.3-0.2-12.7-0.3-19c-0.2-12.7-0.4-25.3-0.5-37.9c-0.4-26-0.8-51.9-1.1-77.9
					C74.1,229.5,71.1,229.5,71.2,231.5L71.2,231.5z"/>
			</g>
		</g>
		<text transform="matrix(0.5727 0 0 1 139.5 327.4814)" class="st1 st2">SEJONG</text>
	</g>
</g>
<g>
	<defs>
		<rect id="SVGID_11_" x="157.5" y="229.1" width="15" height="150"/>
	</defs>
	<clipPath id="SVGID_12_">
		<use xlink:href="#SVGID_11_"  style="overflow:visible;"/>
	</clipPath>
	<g class="st9">
		<g>
			<rect x="82.5" y="229.1" class="st0" width="225" height="150"/>
		</g>
		<g>
			<g>
				<path d="M86.2,231.5c0.4,25.3,0.7,50.6,1.1,75.9c0.2,12.6,0.4,25.3,0.5,37.9c0.1,6,0.2,12,0.3,18c0.1,3.6-0.5,8.2,2.1,11.1
					c2.2,2.4,5.5,2.7,8.6,2.7c6.2,0.1,12.4-0.1,18.6-0.2c12.6-0.1,25.2-0.2,37.8-0.3c25.2-0.2,50.4-0.5,75.7-0.7
					c12.3-0.1,24.6-0.2,36.9-0.3c6,0,12-0.1,17.9-0.2c5,0,11.4,1,16.3-0.4c8-2.3,4.9-14.4,3.7-20.2c-2.5-12.1-2.7-23.9-2.7-36.2
					c0.1-24.8,0.2-49.6,0.3-74.4c0-3.6,1.1-9.2-1.4-12.3c-1.9-2.3-5.2-2.5-8-2.5c-12.1,0.1-24.4,1.2-36.5,1.6
					c-56.4,2.1-112.9,2.3-169.4,0.6c-1.9-0.1-1.9,2.9,0,3c45.5,1.3,91,1.5,136.5,0.4c22.9-0.6,45.8-2.1,68.7-2.6
					c3.3-0.1,6.2,1.8,7.1,4.8c0.7,2.3,0,5.6,0,7.9c0,5.9,0,11.9-0.1,17.8c0,11.2-0.1,22.5-0.1,33.7c0,11-0.2,22.1-0.1,33.1
					c0.1,10,1.8,19.3,3.5,29.1c0.5,2.8,1.2,6.7,0.4,9.5c-1.3,4.3-4.6,3.8-8.2,3.8c-6,0-11.9,0.1-17.9,0.2
					c-11.3,0.1-22.6,0.2-33.9,0.3c-45.5,0.4-90.9,0.8-136.4,1.2c-3.1,0-6.3,0.3-9.3,0.1c-1.1-0.1-2.8,0-3.7-0.5
					c-2.2-1.3-3.2-5-3.3-7.3c-0.1-6.3-0.2-12.7-0.3-19c-0.2-12.7-0.4-25.3-0.5-37.9c-0.4-26-0.8-51.9-1.1-77.9
					C89.1,229.5,86.1,229.5,86.2,231.5L86.2,231.5z"/>
			</g>
		</g>
		<text transform="matrix(0.5727 0 0 1 154.5 327.4814)" class="st1 st2">SEJONG</text>
	</g>
</g>
<g>
	<defs>
		<rect id="SVGID_13_" x="187.5" y="229.1" width="15" height="150"/>
	</defs>
	<clipPath id="SVGID_14_">
		<use xlink:href="#SVGID_13_"  style="overflow:visible;"/>
	</clipPath>
	<g class="st10">
		<g>
			<rect x="97.5" y="229.1" class="st0" width="225" height="150"/>
		</g>
		<g>
			<g>
				<path d="M101.2,231.5c0.4,25.3,0.7,50.6,1.1,75.9c0.2,12.6,0.4,25.3,0.5,37.9c0.1,6,0.2,12,0.3,18c0.1,3.6-0.5,8.2,2.1,11.1
					c2.2,2.4,5.5,2.7,8.6,2.7c6.2,0.1,12.4-0.1,18.6-0.2c12.6-0.1,25.2-0.2,37.8-0.3c25.2-0.2,50.4-0.5,75.7-0.7
					c12.3-0.1,24.6-0.2,36.9-0.3c6,0,12-0.1,17.9-0.2c5,0,11.4,1,16.3-0.4c8-2.3,4.9-14.4,3.7-20.2c-2.5-12.1-2.7-23.9-2.7-36.2
					c0.1-24.8,0.2-49.6,0.3-74.4c0-3.6,1.1-9.2-1.4-12.3c-1.9-2.3-5.2-2.5-8-2.5c-12.1,0.1-24.4,1.2-36.5,1.6
					c-56.4,2.1-112.9,2.3-169.4,0.6c-1.9-0.1-1.9,2.9,0,3c45.5,1.3,91,1.5,136.5,0.4c22.9-0.6,45.8-2.1,68.7-2.6
					c3.3-0.1,6.2,1.8,7.1,4.8c0.7,2.3,0,5.6,0,7.9c0,5.9,0,11.9-0.1,17.8c0,11.2-0.1,22.5-0.1,33.7c0,11-0.2,22.1-0.1,33.1
					c0.1,10,1.8,19.3,3.5,29.1c0.5,2.8,1.2,6.7,0.4,9.5c-1.3,4.3-4.6,3.8-8.2,3.8c-6,0-11.9,0.1-17.9,0.2
					c-11.3,0.1-22.6,0.2-33.9,0.3c-45.5,0.4-91,0.8-136.4,1.2c-3.1,0-6.3,0.3-9.3,0.1c-1.1-0.1-2.8,0-3.7-0.5
					c-2.2-1.3-3.2-5-3.3-7.3c-0.1-6.3-0.2-12.7-0.3-19c-0.2-12.7-0.4-25.3-0.5-37.9c-0.4-26-0.8-51.9-1.1-77.9
					C104.1,229.5,101.1,229.5,101.2,231.5L101.2,231.5z"/>
			</g>
		</g>
		<text transform="matrix(0.5727 0 0 1 169.5 327.4814)" class="st1 st2">SEJONG</text>
	</g>
</g>
<g>
	<defs>
		<rect id="SVGID_15_" x="217.3" y="229.1" width="15" height="150"/>
	</defs>
	<clipPath id="SVGID_16_">
		<use xlink:href="#SVGID_15_"  style="overflow:visible;"/>
	</clipPath>
	<g class="st11">
		<g>
			<rect x="112.3" y="229.1" class="st0" width="225" height="150"/>
		</g>
		<g>
			<g>
				<path d="M116,231.5c0.4,25.3,0.7,50.6,1.1,75.9c0.2,12.6,0.4,25.3,0.6,37.9c0.1,6,0.2,12,0.3,18c0,3.6-0.6,8.2,2.1,11.1
					c2.2,2.4,5.5,2.7,8.6,2.7c6.2,0.1,12.4-0.1,18.6-0.2c12.6-0.1,25.2-0.2,37.8-0.3c25.2-0.2,50.4-0.5,75.7-0.7
					c12.3-0.1,24.6-0.2,36.9-0.3c6,0,12-0.1,17.9-0.2c5,0,11.4,1,16.3-0.4c8-2.3,4.9-14.4,3.7-20.2c-2.5-12.1-2.7-23.9-2.7-36.2
					c0.1-24.8,0.2-49.6,0.3-74.4c0-3.6,1.1-9.2-1.4-12.3c-1.9-2.3-5.2-2.5-8-2.5c-12.1,0.1-24.4,1.2-36.5,1.6
					c-56.4,2.1-112.9,2.3-169.4,0.6c-1.9-0.1-1.9,2.9,0,3c45.5,1.3,91,1.5,136.5,0.4c22.9-0.6,45.8-2.1,68.7-2.6
					c3.3-0.1,6.2,1.8,7.1,4.8c0.7,2.3,0,5.6,0,7.9c0,5.9,0,11.9-0.1,17.8c0,11.2-0.1,22.5-0.1,33.7c0,11-0.2,22.1-0.1,33.1
					c0.1,10,1.8,19.3,3.5,29.1c0.5,2.8,1.2,6.7,0.4,9.5c-1.3,4.3-4.5,3.8-8.2,3.8c-6,0-12,0.1-17.9,0.2c-11.3,0.1-22.6,0.2-33.9,0.3
					c-45.5,0.4-90.9,0.8-136.4,1.2c-3.1,0-6.3,0.3-9.3,0.1c-1.1-0.1-2.8,0-3.7-0.5c-2.2-1.3-3.2-5-3.3-7.3c-0.1-6.3-0.2-12.7-0.3-19
					c-0.2-12.7-0.4-25.3-0.6-37.9c-0.4-26-0.8-51.9-1.1-77.9C118.9,229.5,115.9,229.5,116,231.5L116,231.5z"/>
			</g>
		</g>
		<text transform="matrix(0.5727 0 0 1 184.3046 327.4814)" class="st1 st2">SEJONG</text>
	</g>
</g>
<g>
	<defs>
		<rect id="SVGID_17_" x="251.6" y="229.1" width="15" height="150"/>
	</defs>
	<clipPath id="SVGID_18_">
		<use xlink:href="#SVGID_17_"  style="overflow:visible;"/>
	</clipPath>
	<g class="st12">
		<g>
			<rect x="131.6" y="229.1" class="st0" width="225" height="150"/>
		</g>
		<g>
			<g>
				<path d="M135.2,231.5c0.4,25.3,0.7,50.6,1.1,75.9c0.2,12.6,0.4,25.3,0.6,37.9c0.1,6,0.2,12,0.3,18c0,3.6-0.6,8.2,2.1,11.1
					c2.2,2.4,5.5,2.7,8.6,2.7c6.2,0.1,12.4-0.1,18.6-0.2c12.6-0.1,25.2-0.2,37.8-0.3c25.2-0.2,50.4-0.5,75.7-0.7
					c12.3-0.1,24.6-0.2,36.9-0.3c6,0,11.9-0.1,17.9-0.2c5,0,11.4,1,16.3-0.4c8-2.3,4.9-14.4,3.7-20.2c-2.5-12.1-2.7-23.9-2.7-36.2
					c0.1-24.8,0.2-49.6,0.3-74.4c0-3.6,1.1-9.2-1.4-12.3c-1.9-2.3-5.2-2.5-8-2.5c-12.1,0.1-24.4,1.2-36.5,1.6
					c-56.4,2.1-112.9,2.3-169.4,0.6c-1.9-0.1-1.9,2.9,0,3c45.5,1.3,91,1.5,136.5,0.4c22.9-0.6,45.8-2.1,68.7-2.6
					c3.3-0.1,6.2,1.8,7.1,4.8c0.7,2.3,0,5.6,0,7.9c0,5.9,0,11.9-0.1,17.8c0,11.2-0.1,22.5-0.1,33.7c0,11-0.2,22.1-0.1,33.1
					c0.1,10,1.8,19.3,3.5,29.1c0.5,2.8,1.2,6.7,0.4,9.5c-1.3,4.3-4.6,3.8-8.2,3.8c-6,0-11.9,0.1-17.9,0.2
					c-11.3,0.1-22.6,0.2-33.9,0.3c-45.5,0.4-90.9,0.8-136.4,1.2c-3.1,0-6.3,0.3-9.3,0.1c-1.1-0.1-2.8,0-3.7-0.5
					c-2.2-1.3-3.2-5-3.3-7.3c-0.1-6.3-0.2-12.7-0.3-19c-0.2-12.7-0.4-25.3-0.6-37.9c-0.4-26-0.8-51.9-1.1-77.9
					C138.2,229.5,135.2,229.5,135.2,231.5L135.2,231.5z"/>
			</g>
		</g>
		<text transform="matrix(0.5727 0 0 1 203.5532 327.4814)" class="st1 st2">SEJONG</text>
	</g>
</g>
<g>
	<defs>
		<rect id="SVGID_19_" x="279.1" y="229.1" width="15" height="150"/>
	</defs>
	<clipPath id="SVGID_20_">
		<use xlink:href="#SVGID_19_"  style="overflow:visible;"/>
	</clipPath>
	<g class="st13">
		<g>
			<rect x="144.1" y="229.1" class="st0" width="225" height="150"/>
		</g>
		<g>
			<g>
				<path d="M147.8,231.5c0.4,25.3,0.7,50.6,1.1,75.9c0.2,12.6,0.4,25.3,0.5,37.9c0.1,6,0.2,12,0.3,18c0.1,3.6-0.6,8.2,2.1,11.1
					c2.2,2.4,5.5,2.7,8.6,2.7c6.2,0.1,12.4-0.1,18.6-0.2c12.6-0.1,25.2-0.2,37.8-0.3c25.2-0.2,50.5-0.5,75.7-0.7
					c12.3-0.1,24.6-0.2,36.9-0.3c6,0,12-0.1,17.9-0.2c5,0,11.4,1,16.3-0.4c8-2.3,4.9-14.4,3.7-20.2c-2.5-12.1-2.7-23.9-2.7-36.2
					c0.1-24.8,0.2-49.6,0.3-74.4c0-3.6,1.1-9.2-1.4-12.3c-1.9-2.3-5.2-2.5-8-2.5c-12.1,0.1-24.4,1.2-36.5,1.6
					c-56.4,2.1-112.9,2.3-169.4,0.6c-1.9-0.1-1.9,2.9,0,3c45.5,1.3,91,1.5,136.5,0.4c22.9-0.6,45.8-2.1,68.7-2.6
					c3.3-0.1,6.2,1.8,7.1,4.8c0.7,2.3,0,5.6,0,7.9c0,5.9,0,11.9-0.1,17.8c0,11.2-0.1,22.5-0.1,33.7c0,11-0.2,22.1-0.1,33.1
					c0.1,10,1.8,19.3,3.5,29.1c0.5,2.8,1.2,6.7,0.4,9.5c-1.3,4.3-4.5,3.8-8.2,3.8c-6,0-12,0.1-17.9,0.2c-11.3,0.1-22.6,0.2-33.9,0.3
					c-45.5,0.4-91,0.8-136.4,1.2c-3.1,0-6.3,0.3-9.3,0.1c-1.1-0.1-2.8,0-3.7-0.5c-2.2-1.3-3.2-5-3.3-7.3c-0.1-6.3-0.2-12.7-0.3-19
					c-0.2-12.7-0.4-25.3-0.5-37.9c-0.4-26-0.8-51.9-1.1-77.9C150.8,229.5,147.8,229.5,147.8,231.5L147.8,231.5z"/>
			</g>
		</g>
		<text transform="matrix(0.5727 0 0 1 216.1277 327.4814)" class="st1 st2">SEJONG</text>
	</g>
</g>
<g>
	<defs>
		<rect id="SVGID_21_" x="312.8" y="229.1" width="15" height="150"/>
	</defs>
	<clipPath id="SVGID_22_">
		<use xlink:href="#SVGID_21_"  style="overflow:visible;"/>
	</clipPath>
	<g class="st14">
		<g>
			<rect x="162.8" y="229.1" class="st0" width="225" height="150"/>
		</g>
		<g>
			<g>
				<path d="M166.5,231.5c0.4,25.3,0.7,50.6,1.1,75.9c0.2,12.6,0.4,25.3,0.6,37.9c0.1,6,0.2,12,0.3,18c0.1,3.6-0.5,8.2,2.1,11.1
					c2.2,2.4,5.5,2.7,8.6,2.7c6.2,0.1,12.4-0.1,18.6-0.2c12.6-0.1,25.2-0.2,37.8-0.3c25.2-0.2,50.4-0.5,75.7-0.7
					c12.3-0.1,24.6-0.2,36.9-0.3c6,0,12-0.1,17.9-0.2c5,0,11.4,1,16.3-0.4c8-2.3,4.9-14.4,3.7-20.2c-2.5-12.1-2.7-23.9-2.7-36.2
					c0.1-24.8,0.2-49.6,0.3-74.4c0-3.6,1.1-9.2-1.4-12.3c-1.9-2.3-5.2-2.5-8-2.5c-12.1,0.1-24.4,1.2-36.5,1.6
					c-56.4,2.1-112.9,2.3-169.4,0.6c-1.9-0.1-1.9,2.9,0,3c45.5,1.3,91,1.5,136.5,0.4c22.9-0.6,45.8-2.1,68.7-2.6
					c3.3-0.1,6.2,1.8,7.1,4.8c0.7,2.3,0,5.6,0,7.9c0,5.9,0,11.9-0.1,17.8c0,11.2-0.1,22.5-0.1,33.7c0,11-0.2,22.1-0.1,33.1
					c0.1,10,1.8,19.3,3.5,29.1c0.5,2.8,1.2,6.7,0.4,9.5c-1.3,4.3-4.5,3.8-8.2,3.8c-6,0-12,0.1-17.9,0.2c-11.3,0.1-22.6,0.2-33.9,0.3
					c-45.5,0.4-90.9,0.8-136.4,1.2c-3.1,0-6.3,0.3-9.3,0.1c-1.1-0.1-2.8,0-3.7-0.5c-2.2-1.3-3.2-5-3.3-7.3c-0.1-6.3-0.2-12.7-0.3-19
					c-0.2-12.7-0.4-25.3-0.6-37.9c-0.4-26-0.8-51.9-1.1-77.9C169.5,229.5,166.5,229.5,166.5,231.5L166.5,231.5z"/>
			</g>
		</g>
		<text transform="matrix(0.5727 0 0 1 234.8298 327.4814)" class="st1 st2">SEJONG</text>
	</g>
</g>
<g>
	<defs>
		<rect id="SVGID_23_" x="346.5" y="229.1" width="15" height="150"/>
	</defs>
	<clipPath id="SVGID_24_">
		<use xlink:href="#SVGID_23_"  style="overflow:visible;"/>
	</clipPath>
	<g class="st15">
		<g>
			<rect x="181.5" y="229.1" class="st0" width="225" height="150"/>
		</g>
		<g>
			<g>
				<path d="M185.2,231.5c0.4,25.3,0.7,50.6,1.1,75.9c0.2,12.6,0.4,25.3,0.6,37.9c0.1,6,0.2,12,0.3,18c0.1,3.6-0.6,8.2,2.1,11.1
					c2.2,2.4,5.5,2.7,8.6,2.7c6.2,0.1,12.4-0.1,18.6-0.2c12.6-0.1,25.2-0.2,37.8-0.3c25.2-0.2,50.4-0.5,75.7-0.7
					c12.3-0.1,24.6-0.2,36.9-0.3c6,0,11.9-0.1,17.9-0.2c5,0,11.4,1,16.3-0.4c8-2.3,4.9-14.4,3.7-20.2c-2.5-12.1-2.7-23.9-2.7-36.2
					c0.1-24.8,0.2-49.6,0.3-74.4c0-3.6,1.1-9.2-1.4-12.3c-1.9-2.3-5.2-2.5-8-2.5c-12.1,0.1-24.4,1.2-36.5,1.6
					c-56.4,2.1-112.9,2.3-169.4,0.6c-1.9-0.1-1.9,2.9,0,3c45.5,1.3,91,1.5,136.5,0.4c22.9-0.6,45.8-2.1,68.7-2.6
					c3.3-0.1,6.2,1.8,7.1,4.8c0.7,2.3,0,5.6,0,7.9c0,5.9,0,11.9-0.1,17.8c0,11.2-0.1,22.5-0.1,33.7c0,11-0.2,22.1-0.1,33.1
					c0.1,10,1.8,19.3,3.5,29.1c0.5,2.8,1.2,6.7,0.4,9.5c-1.3,4.3-4.6,3.8-8.2,3.8c-6,0-11.9,0.1-17.9,0.2
					c-11.3,0.1-22.6,0.2-33.9,0.3c-45.5,0.4-90.9,0.8-136.4,1.2c-3.1,0-6.3,0.3-9.3,0.1c-1.1-0.1-2.8,0-3.7-0.5
					c-2.2-1.3-3.2-5-3.3-7.3c-0.1-6.3-0.2-12.7-0.3-19c-0.2-12.7-0.4-25.3-0.6-37.9c-0.4-26-0.8-51.9-1.1-77.9
					C188.2,229.5,185.2,229.5,185.2,231.5L185.2,231.5z"/>
			</g>
		</g>
		<text transform="matrix(0.5727 0 0 1 253.5319 327.4814)" class="st1 st2">SEJONG</text>
	</g>
</g>
<g>
	<defs>
		<rect id="SVGID_25_" x="383.3" y="229.1" width="15" height="150"/>
	</defs>
	<clipPath id="SVGID_26_">
		<use xlink:href="#SVGID_25_"  style="overflow:visible;"/>
	</clipPath>
	<g class="st16">
		<g>
			<rect x="203.3" y="229.1" class="st0" width="225" height="150"/>
		</g>
		<g>
			<g>
				<path d="M207,231.5c0.4,25.3,0.7,50.6,1.1,75.9c0.2,12.6,0.4,25.3,0.6,37.9c0.1,6,0.2,12,0.3,18c0.1,3.6-0.6,8.2,2.1,11.1
					c2.2,2.4,5.5,2.7,8.6,2.7c6.2,0.1,12.4-0.1,18.6-0.2c12.6-0.1,25.2-0.2,37.8-0.3c25.2-0.2,50.4-0.5,75.7-0.7
					c12.3-0.1,24.6-0.2,36.9-0.3c6,0,11.9-0.1,17.9-0.2c5,0,11.4,1,16.3-0.4c8-2.3,4.9-14.4,3.7-20.2c-2.5-12.1-2.7-23.9-2.7-36.2
					c0.1-24.8,0.2-49.6,0.3-74.4c0-3.6,1.1-9.2-1.4-12.3c-1.9-2.3-5.2-2.5-8-2.5c-12.1,0.1-24.4,1.2-36.5,1.6
					c-56.4,2.1-112.9,2.3-169.4,0.6c-1.9-0.1-1.9,2.9,0,3c45.5,1.3,91,1.5,136.5,0.4c22.9-0.6,45.8-2.1,68.7-2.6
					c3.3-0.1,6.2,1.8,7.1,4.8c0.7,2.3,0,5.6,0,7.9c0,5.9,0,11.9-0.1,17.8c0,11.2-0.1,22.5-0.1,33.7c0,11-0.2,22.1-0.1,33.1
					c0.1,10,1.8,19.3,3.5,29.1c0.5,2.8,1.2,6.7,0.4,9.5c-1.3,4.3-4.6,3.8-8.2,3.8c-6,0-11.9,0.1-17.9,0.2
					c-11.3,0.1-22.6,0.2-33.9,0.3c-45.5,0.4-90.9,0.8-136.4,1.2c-3.1,0-6.3,0.3-9.3,0.1c-1.1-0.1-2.8,0-3.7-0.5
					c-2.2-1.3-3.2-5-3.3-7.3c-0.1-6.3-0.2-12.7-0.3-19c-0.2-12.7-0.4-25.3-0.5-37.9c-0.4-26-0.8-51.9-1.1-77.9
					C209.9,229.5,206.9,229.5,207,231.5L207,231.5z"/>
			</g>
		</g>
		<text transform="matrix(0.5727 0 0 1 275.2979 327.4814)" class="st1 st2">SEJONG</text>
	</g>
</g>
<g>
	<defs>
		<rect id="SVGID_27_" x="441.5" y="229.1" width="15" height="150"/>
	</defs>
	<clipPath id="SVGID_28_">
		<use xlink:href="#SVGID_27_"  style="overflow:visible;"/>
	</clipPath>
	<g class="st17">
		<g>
			<rect x="246.5" y="229.1" class="st0" width="225" height="150"/>
		</g>
		<g>
			<g>
				<path d="M250.2,231.5c0.4,25.3,0.7,50.6,1.1,75.9c0.2,12.6,0.4,25.3,0.5,37.9c0.1,6,0.2,12,0.3,18c0.1,3.6-0.6,8.2,2.1,11.1
					c2.2,2.4,5.5,2.7,8.6,2.7c6.2,0.1,12.4-0.1,18.6-0.2c12.6-0.1,25.2-0.2,37.8-0.3c25.2-0.2,50.4-0.5,75.7-0.7
					c12.3-0.1,24.6-0.2,36.9-0.3c6,0,11.9-0.1,17.9-0.2c5,0,11.4,1,16.3-0.4c8-2.3,4.9-14.4,3.7-20.2c-2.5-12.1-2.7-23.9-2.7-36.2
					c0.1-24.8,0.2-49.6,0.3-74.4c0-3.6,1.1-9.2-1.4-12.3c-1.9-2.3-5.2-2.5-8-2.5c-12.1,0.1-24.4,1.2-36.5,1.6
					c-56.4,2.1-112.9,2.3-169.4,0.6c-1.9-0.1-1.9,2.9,0,3c45.5,1.3,91,1.5,136.5,0.4c22.9-0.6,45.8-2.1,68.7-2.6
					c3.3-0.1,6.2,1.8,7.1,4.8c0.7,2.3,0,5.6,0,7.9c0,5.9,0,11.9-0.1,17.8c0,11.2-0.1,22.5-0.1,33.7c0,11-0.2,22.1-0.1,33.1
					c0.1,10,1.8,19.3,3.5,29.1c0.5,2.8,1.2,6.7,0.4,9.5c-1.3,4.3-4.6,3.8-8.2,3.8c-6,0-11.9,0.1-17.9,0.2
					c-11.3,0.1-22.6,0.2-33.9,0.3c-45.5,0.4-90.9,0.8-136.4,1.2c-3.1,0-6.3,0.3-9.3,0.1c-1.1-0.1-2.8,0-3.7-0.5
					c-2.2-1.3-3.2-5-3.3-7.3c-0.1-6.3-0.2-12.7-0.3-19c-0.2-12.7-0.4-25.3-0.5-37.9c-0.4-26-0.8-51.9-1.1-77.9
					C253.2,229.5,250.2,229.5,250.2,231.5L250.2,231.5z"/>
			</g>
		</g>
		<text transform="matrix(0.5727 0 0 1 318.5107 327.4814)" class="st1 st2">SEJONG</text>
	</g>
</g>
<g>
	<defs>
		<rect id="SVGID_29_" x="506.2" y="214.5" width="15" height="150"/>
	</defs>
	<clipPath id="SVGID_30_">
		<use xlink:href="#SVGID_29_"  style="overflow:visible;"/>
	</clipPath>
	<g class="st18">
		<g>
			<rect x="296.2" y="214.5" class="st0" width="225" height="150"/>
		</g>
		<g>
			<g>
				<path d="M299.8,216.8c0.4,25.3,0.7,50.6,1.1,75.9c0.2,12.6,0.4,25.3,0.6,37.9c0.1,6,0.2,12,0.3,18c0.1,3.6-0.5,8.2,2.1,11.1
					c2.2,2.4,5.5,2.7,8.6,2.7c6.2,0.1,12.4-0.1,18.6-0.2c12.6-0.1,25.2-0.2,37.8-0.3c25.2-0.2,50.4-0.5,75.7-0.7
					c12.3-0.1,24.6-0.2,36.9-0.3c6,0,11.9-0.1,17.9-0.2c5,0,11.4,1,16.3-0.4c8-2.3,4.9-14.4,3.7-20.2c-2.5-12.1-2.7-23.9-2.7-36.2
					c0.1-24.8,0.2-49.6,0.3-74.4c0-3.6,1.1-9.2-1.4-12.3c-1.9-2.3-5.2-2.5-8-2.5c-12.1,0.1-24.4,1.2-36.5,1.6
					c-56.4,2.1-112.9,2.3-169.4,0.6c-1.9-0.1-1.9,2.9,0,3c45.5,1.3,91,1.5,136.5,0.4c22.9-0.6,45.8-2.1,68.7-2.6
					c3.3-0.1,6.2,1.8,7.1,4.8c0.7,2.3,0,5.6,0,7.9c0,5.9,0,11.9-0.1,17.8c0,11.2-0.1,22.5-0.1,33.7c0,11-0.2,22.1-0.1,33.1
					c0.1,10,1.8,19.3,3.5,29.1c0.5,2.8,1.2,6.7,0.4,9.5c-1.3,4.3-4.5,3.8-8.2,3.8c-6,0-11.9,0.1-17.9,0.2
					c-11.3,0.1-22.6,0.2-33.9,0.3c-45.5,0.4-90.9,0.8-136.4,1.2c-3.1,0-6.3,0.3-9.3,0.1c-1.1-0.1-2.8,0-3.7-0.5
					c-2.2-1.3-3.2-5-3.3-7.3c-0.1-6.3-0.2-12.7-0.3-19c-0.2-12.7-0.4-25.3-0.6-37.9c-0.4-26-0.8-51.9-1.1-77.9
					C302.8,214.9,299.8,214.9,299.8,216.8L299.8,216.8z"/>
			</g>
		</g>
		<text transform="matrix(0.5727 0 0 1 368.1702 312.8216)" class="st1 st2">SEJONG</text>
	</g>
</g>
</svg>
