<?xml version="1.0" encoding="utf-8"?>
<!-- Generator: Adobe Illustrator 23.0.0, SVG Export Plug-In . SVG Version: 6.00 Build 0)  -->
<svg version="1.1" id="Layer_1" xmlns="http://www.w3.org/2000/svg" xmlns:xlink="http://www.w3.org/1999/xlink" x="0px" y="0px"
	 viewBox="0 0 225 150" style="enable-background:new 0 0 225 150;" xml:space="preserve">
<style type="text/css">
	.st0{fill:#FFFFFF;}
	.st1{font-family:'ButterFood';}
	.st2{font-size:81.6819px;}
	.st3{fill:#FFFFFF;stroke:#FF1400;stroke-miterlimit:10;}
	.st4{clip-path:url(#SVGID_2_);}
	.st5{clip-path:url(#SVGID_4_);}
	.st6{clip-path:url(#SVGID_6_);}
	.st7{clip-path:url(#SVGID_8_);}
	.st8{clip-path:url(#SVGID_10_);}
	.st9{clip-path:url(#SVGID_12_);}
	.st10{clip-path:url(#SVGID_14_);}
	.st11{clip-path:url(#SVGID_16_);}
	.st12{clip-path:url(#SVGID_18_);}
	.st13{clip-path:url(#SVGID_20_);}
	.st14{clip-path:url(#SVGID_22_);}
	.st15{clip-path:url(#SVGID_24_);}
	.st16{clip-path:url(#SVGID_26_);}
	.st17{clip-path:url(#SVGID_28_);}
	.st18{clip-path:url(#SVGID_30_);}
</style>
<g>
	<g>
		<rect class="st0" width="225" height="150"/>
	</g>
	<g>
		<g>
			<path d="M3.2,4.4c1,25,1.3,50.1,1.1,75.1C4.1,92,3.9,104.6,3.5,117.1C3.3,123,3,128.9,2.8,134.9c-0.2,3.5-1.1,8.4,1.7,11.2
				c2.6,2.5,7.2,1.8,10.4,1.8c6.6,0,13.3,0,19.9,0c12.6,0,25.3,0,37.9,0c25.3,0.1,50.5,0.2,75.8,0.4c12.6,0.1,25.3,0.2,37.9,0.4
				c6,0.1,12,0.1,17.9,0.2c4.7,0.1,11.3,1.4,15.8-0.3c2.3-0.9,3.1-2.6,3.3-4.9c0.4-6.1-0.8-12.6-1.1-18.7
				c-0.7-12.3-1.1-24.6-0.7-36.9c0.8-23.4,4.1-46.8,1.1-70.2c-0.3-2.5-0.7-4.9-1.2-7.4c-0.3-1.6-0.4-4.9-1.6-6.2
				c-2.3-2.5-9-2.8-12.2-3.3c-10.9-1.4-21.8,0.4-32.6,1.9c-27.4,3.9-55.3,2.4-82.9,2.3C63.8,5.1,35.5,5,7.1,4.9c-1.9,0-1.9,3,0,3
				C53,8.1,99,9,144.9,8.3c10.4-0.1,20.6-1,30.9-2.5c11.2-1.6,22.8-3.5,34-1.4c1.9,0.3,5.4,0.5,6.8,1.8c1.8,1.5,1.8,4.8,2.2,6.9
				c1.1,6,1.6,12.1,1.9,18.2c0.4,11.3-0.2,22.7-0.9,34c-1.4,22.6-1.5,44.8-0.1,67.4c0.2,2.6,0.3,5.2,0.5,7.8
				c0.1,0.8,0.4,2.4,0.2,3.1c-0.5,1.4-3,2.1-4.1,2.4c-2.4,0.5-5.5-0.1-8-0.1c-3.3,0-6.6-0.1-10-0.1c-11.6-0.1-23.3-0.3-34.9-0.4
				c-46.2-0.4-92.4-0.6-138.6-0.6c-4.9,0-19.1,2.3-19.4-4.6c-0.2-6.3,0.6-12.8,0.8-19.1c0.5-12.8,0.8-25.7,0.9-38.6
				c0.3-26-0.1-52.1-1.1-78.1C6.1,2.4,3.1,2.4,3.2,4.4L3.2,4.4z"/>
		</g>
	</g>
	<text transform="matrix(0.6343 0 0 1 32.4448 131.5371)" class="st1 st2">SEJONG</text>
</g>
<rect class="st3" width="15" height="150"/>
<rect x="15" y="0" class="st3" width="15" height="150"/>
<rect x="30" y="0" class="st3" width="15" height="150"/>
<rect x="45" y="0" class="st3" width="15" height="150"/>
<rect x="60" y="0" class="st3" width="15" height="150"/>
<rect x="75" y="0" class="st3" width="15" height="150"/>
<rect x="90" y="0" class="st3" width="15" height="150"/>
<rect x="105" y="0" class="st3" width="15" height="150"/>
<rect x="120" y="0" class="st3" width="15" height="150"/>
<rect x="135" y="0" class="st3" width="15" height="150"/>
<rect x="150" y="0" class="st3" width="15" height="150"/>
<rect x="165" y="0" class="st3" width="15" height="150"/>
<rect x="180" y="0" class="st3" width="15" height="150"/>
<rect x="195" y="0" class="st3" width="15" height="150"/>
<rect x="210" y="0" class="st3" width="15" height="150"/>
<g>
	<defs>
		<rect id="SVGID_1_" x="-131.4" y="281.9" width="15" height="150"/>
	</defs>
	<clipPath id="SVGID_2_">
		<use xlink:href="#SVGID_1_"  style="overflow:visible;"/>
	</clipPath>
	<g class="st4">
		<g>
			<rect x="-131.4" y="281.9" class="st0" width="225" height="150"/>
		</g>
		<g>
			<g>
				<path d="M-128.3,286.2c1,25,1.3,50.1,1.1,75.1c-0.1,12.5-0.4,25-0.8,37.6c-0.2,5.9-0.4,11.9-0.7,17.8c-0.2,3.5-1.1,8.4,1.8,11.2
					c2.6,2.5,7.2,1.8,10.4,1.8c6.7,0,13.3,0,19.9,0c12.6,0,25.3,0,37.9,0c25.3,0.1,50.5,0.2,75.8,0.4c12.6,0.1,25.3,0.2,37.9,0.4
					c6,0.1,12,0.1,18,0.2c4.7,0.1,11.3,1.4,15.8-0.3c2.3-0.9,3.1-2.6,3.3-4.9c0.4-6.1-0.8-12.6-1.1-18.7
					c-0.7-12.3-1.1-24.6-0.7-36.9c0.8-23.4,4.1-46.8,1.1-70.2c-0.3-2.5-0.7-4.9-1.2-7.4c-0.3-1.6-0.4-4.9-1.6-6.2
					c-2.3-2.4-9-2.8-12.2-3.3c-10.9-1.4-21.8,0.4-32.6,1.9c-27.4,3.9-55.3,2.4-82.9,2.3c-28.3-0.1-56.7-0.2-85.1-0.3
					c-1.9,0-1.9,3,0,3c45.9,0.2,91.9,1.1,137.8,0.4c10.4-0.1,20.6-1,30.9-2.5c11.2-1.6,22.8-3.5,34-1.4c1.9,0.3,5.4,0.5,6.8,1.8
					c1.8,1.5,1.8,4.8,2.2,6.9c1.1,6,1.6,12.1,1.9,18.2c0.4,11.3-0.2,22.7-0.9,34c-1.4,22.6-1.5,44.8-0.1,67.4
					c0.2,2.6,0.3,5.2,0.5,7.8c0.1,0.8,0.4,2.4,0.2,3.1c-0.5,1.4-3,2.1-4.1,2.4c-2.4,0.5-5.5-0.1-8-0.1c-3.3,0-6.6-0.1-10-0.1
					c-11.6-0.1-23.3-0.3-34.9-0.4c-46.2-0.4-92.4-0.6-138.6-0.5c-4.9,0-19.1,2.3-19.4-4.6c-0.2-6.3,0.5-12.8,0.8-19.1
					c0.5-12.9,0.8-25.7,0.9-38.6c0.3-26-0.1-52.1-1.1-78.1C-125.3,284.3-128.3,284.3-128.3,286.2L-128.3,286.2z"/>
			</g>
		</g>
		<text transform="matrix(0.6343 0 0 1 -98.9807 413.4095)" class="st1 st2">SEJONG</text>
	</g>
</g>
<g>
	<defs>
		<rect id="SVGID_3_" x="-89.9" y="267.2" width="15" height="150"/>
	</defs>
	<clipPath id="SVGID_4_">
		<use xlink:href="#SVGID_3_"  style="overflow:visible;"/>
	</clipPath>
	<g class="st5">
		<g>
			<rect x="-104.9" y="267.2" class="st0" width="225" height="150"/>
		</g>
		<g>
			<g>
				<path d="M-101.7,271.6c0.9,25,1.3,50.1,1.1,75.1c-0.1,12.5-0.4,25.1-0.8,37.6c-0.2,5.9-0.4,11.9-0.7,17.8
					c-0.2,3.5-1.1,8.4,1.8,11.2c2.6,2.5,7.2,1.8,10.4,1.8c6.6,0,13.3,0,19.9,0c12.6,0,25.3,0,37.9,0c25.3,0.1,50.5,0.2,75.8,0.4
					c12.6,0.1,25.3,0.2,37.9,0.4c6,0.1,12,0.1,17.9,0.2c4.7,0.1,11.3,1.4,15.8-0.3c2.3-0.9,3.1-2.6,3.3-4.9
					c0.4-6.1-0.8-12.6-1.1-18.7c-0.7-12.3-1.1-24.6-0.7-36.9c0.8-23.4,4.1-46.9,1.1-70.2c-0.3-2.5-0.7-4.9-1.2-7.4
					c-0.3-1.6-0.4-4.9-1.6-6.2c-2.3-2.5-9-2.8-12.2-3.3c-10.9-1.4-21.8,0.4-32.6,1.9c-27.4,3.9-55.3,2.4-82.9,2.3
					c-28.3-0.1-56.7-0.2-85.1-0.3c-1.9,0-1.9,3,0,3c45.9,0.2,91.9,1.1,137.8,0.4c10.4-0.1,20.6-1,30.9-2.5c11.2-1.6,22.8-3.5,34-1.4
					c1.9,0.3,5.4,0.5,6.8,1.8c1.8,1.5,1.8,4.8,2.2,6.9c1.1,6,1.6,12.1,1.9,18.2c0.4,11.3-0.2,22.7-0.9,34
					c-1.4,22.6-1.5,44.8-0.1,67.4c0.2,2.6,0.3,5.2,0.5,7.8c0.1,0.8,0.4,2.4,0.2,3.1c-0.5,1.4-3,2.1-4.1,2.4c-2.4,0.5-5.5-0.1-8-0.1
					c-3.3,0-6.6-0.1-10-0.1c-11.6-0.1-23.3-0.3-34.9-0.4c-46.2-0.5-92.4-0.6-138.6-0.6c-4.9,0-19.1,2.3-19.4-4.6
					c-0.2-6.3,0.6-12.8,0.8-19.1c0.5-12.9,0.8-25.7,0.9-38.6c0.3-26-0.1-52.1-1.1-78.1C-98.8,269.7-101.8,269.7-101.7,271.6
					L-101.7,271.6z"/>
			</g>
		</g>
		<text transform="matrix(0.6343 0 0 1 -72.4594 398.7712)" class="st1 st2">SEJONG</text>
	</g>
</g>
<g>
	<defs>
		<rect id="SVGID_5_" x="-45.6" y="281.9" width="15" height="150"/>
	</defs>
	<clipPath id="SVGID_6_">
		<use xlink:href="#SVGID_5_"  style="overflow:visible;"/>
	</clipPath>
	<g class="st6">
		<g>
			<rect x="-75.6" y="281.9" class="st0" width="225" height="150"/>
		</g>
		<g>
			<g>
				<path d="M-72.5,286.2c0.9,25,1.3,50.1,1.1,75.1c-0.1,12.5-0.4,25-0.8,37.6c-0.2,5.9-0.4,11.9-0.7,17.8
					c-0.2,3.5-1.1,8.4,1.8,11.2c2.6,2.5,7.2,1.8,10.4,1.8c6.6,0,13.3,0,19.9,0c12.6,0,25.3,0,37.9,0c25.3,0.1,50.5,0.2,75.8,0.4
					c12.6,0.1,25.3,0.2,37.9,0.4c6,0.1,12,0.1,18,0.2c4.7,0.1,11.3,1.4,15.8-0.3c2.3-0.9,3.1-2.6,3.3-4.9c0.4-6.1-0.8-12.6-1.1-18.7
					c-0.7-12.3-1.1-24.6-0.7-36.9c0.8-23.4,4.1-46.8,1.1-70.2c-0.3-2.5-0.7-4.9-1.2-7.4c-0.3-1.6-0.4-4.9-1.6-6.2
					c-2.3-2.4-9-2.8-12.2-3.3c-10.9-1.4-21.8,0.4-32.6,1.9c-27.4,3.9-55.3,2.4-82.9,2.3c-28.3-0.1-56.7-0.2-85.1-0.3
					c-1.9,0-1.9,3,0,3c45.9,0.2,91.9,1.1,137.8,0.4c10.4-0.1,20.6-1,30.9-2.5c11.2-1.6,22.8-3.5,34-1.4c1.9,0.3,5.4,0.5,6.8,1.8
					c1.8,1.5,1.8,4.8,2.2,6.9c1.1,6,1.6,12.1,1.9,18.2c0.4,11.3-0.2,22.7-0.9,34c-1.4,22.6-1.5,44.8-0.1,67.4
					c0.2,2.6,0.3,5.2,0.5,7.8c0.1,0.8,0.4,2.4,0.2,3.1c-0.5,1.4-3,2.1-4.1,2.4c-2.4,0.5-5.5-0.1-8-0.1c-3.3,0-6.7-0.1-10-0.1
					c-11.6-0.1-23.3-0.3-34.9-0.4c-46.2-0.4-92.4-0.6-138.6-0.5c-4.9,0-19.1,2.3-19.4-4.6c-0.2-6.3,0.6-12.8,0.8-19.1
					c0.5-12.9,0.8-25.7,0.9-38.6c0.3-26-0.1-52.1-1.1-78.1C-69.5,284.3-72.5,284.3-72.5,286.2L-72.5,286.2z"/>
			</g>
		</g>
		<text transform="matrix(0.6343 0 0 1 -43.1935 413.4095)" class="st1 st2">SEJONG</text>
	</g>
</g>
<g>
	<defs>
		<rect id="SVGID_7_" y="281.9" width="15" height="150"/>
	</defs>
	<clipPath id="SVGID_8_">
		<use xlink:href="#SVGID_7_"  style="overflow:visible;"/>
	</clipPath>
	<g class="st7">
		<g>
			<rect x="-45" y="281.9" class="st0" width="225" height="150"/>
		</g>
		<g>
			<g>
				<path d="M-41.8,286.2c1,25,1.3,50.1,1.1,75.1c-0.1,12.5-0.4,25-0.8,37.6c-0.2,5.9-0.4,11.9-0.7,17.8c-0.2,3.5-1.1,8.4,1.8,11.2
					c2.6,2.5,7.2,1.8,10.4,1.8c6.6,0,13.3,0,19.9,0c12.6,0,25.3,0,37.9,0c25.3,0.1,50.5,0.2,75.8,0.4c12.6,0.1,25.3,0.2,37.9,0.4
					c6,0.1,12,0.1,17.9,0.2c4.7,0.1,11.3,1.4,15.8-0.3c2.3-0.9,3.1-2.6,3.3-4.9c0.4-6.1-0.8-12.6-1.1-18.7
					c-0.7-12.3-1.1-24.6-0.7-36.9c0.8-23.4,4.1-46.8,1.1-70.2c-0.3-2.5-0.7-4.9-1.2-7.4c-0.3-1.6-0.4-4.9-1.6-6.2
					c-2.3-2.4-9-2.8-12.2-3.3c-10.9-1.4-21.8,0.4-32.6,1.9c-27.4,3.9-55.3,2.4-82.9,2.3c-28.3-0.1-56.7-0.2-85.1-0.3
					c-1.9,0-1.9,3,0,3C8,290,54,290.8,99.9,290.1c10.4-0.1,20.6-1,30.9-2.5c11.2-1.6,22.8-3.5,34-1.4c1.9,0.3,5.4,0.5,6.8,1.8
					c1.8,1.5,1.8,4.8,2.2,6.9c1.1,6,1.6,12.1,1.9,18.2c0.4,11.3-0.2,22.7-0.9,34c-1.4,22.6-1.5,44.8-0.1,67.4
					c0.2,2.6,0.3,5.2,0.5,7.8c0.1,0.8,0.4,2.4,0.2,3.1c-0.5,1.4-3,2.1-4.1,2.4c-2.4,0.5-5.5-0.1-8-0.1c-3.3,0-6.6-0.1-10-0.1
					c-11.6-0.1-23.3-0.3-34.9-0.4c-46.2-0.4-92.4-0.6-138.6-0.5c-4.9,0-19.1,2.3-19.4-4.6c-0.2-6.3,0.5-12.8,0.8-19.1
					c0.5-12.9,0.8-25.7,0.9-38.6c0.3-26-0.1-52.1-1.1-78.1C-38.9,284.3-41.9,284.3-41.8,286.2L-41.8,286.2z"/>
			</g>
		</g>
		<text transform="matrix(0.6343 0 0 1 -12.5551 413.4095)" class="st1 st2">SEJONG</text>
	</g>
</g>
<g>
	<defs>
		<rect id="SVGID_9_" x="45" y="281.9" width="15" height="150"/>
	</defs>
	<clipPath id="SVGID_10_">
		<use xlink:href="#SVGID_9_"  style="overflow:visible;"/>
	</clipPath>
	<g class="st8">
		<g>
			<rect x="-15" y="281.9" class="st0" width="225" height="150"/>
		</g>
		<g>
			<g>
				<path d="M-11.8,286.2c1,25,1.3,50.1,1.1,75.1c-0.1,12.5-0.4,25-0.8,37.6c-0.2,5.9-0.4,11.9-0.7,17.8c-0.2,3.5-1.1,8.4,1.8,11.2
					c2.6,2.5,7.2,1.8,10.4,1.8c6.6,0,13.3,0,19.9,0c12.6,0,25.3,0,37.9,0c25.3,0.1,50.5,0.2,75.8,0.4c12.6,0.1,25.3,0.2,37.9,0.4
					c6,0.1,12,0.1,17.9,0.2c4.7,0.1,11.3,1.4,15.8-0.3c2.3-0.9,3.1-2.6,3.3-4.9c0.4-6.1-0.8-12.6-1.1-18.7
					c-0.7-12.3-1.1-24.6-0.7-36.9c0.8-23.4,4.1-46.8,1.1-70.2c-0.3-2.5-0.7-4.9-1.2-7.4c-0.3-1.6-0.4-4.9-1.6-6.2
					c-2.3-2.4-9-2.8-12.2-3.3c-10.9-1.4-21.8,0.4-32.6,1.9c-27.4,3.9-55.3,2.4-82.9,2.3c-28.3-0.1-56.7-0.2-85.1-0.3
					c-1.9,0-1.9,3,0,3c45.9,0.2,91.9,1.1,137.8,0.4c10.4-0.1,20.6-1,30.9-2.5c11.2-1.6,22.8-3.5,34-1.4c1.9,0.3,5.4,0.5,6.8,1.8
					c1.8,1.5,1.8,4.8,2.2,6.9c1.1,6,1.6,12.1,1.9,18.2c0.4,11.3-0.2,22.7-0.9,34c-1.4,22.6-1.5,44.8-0.1,67.4
					c0.2,2.6,0.3,5.2,0.5,7.8c0.1,0.8,0.4,2.4,0.2,3.1c-0.5,1.4-3,2.1-4.1,2.4c-2.4,0.5-5.5-0.1-8-0.1c-3.3,0-6.6-0.1-10-0.1
					c-11.6-0.1-23.3-0.3-34.9-0.4c-46.2-0.4-92.4-0.6-138.6-0.5C5,426.7-9.2,429-9.5,422c-0.2-6.3,0.6-12.8,0.8-19.1
					c0.5-12.9,0.8-25.7,0.9-38.6c0.3-26-0.1-52.1-1.1-78.1C-8.9,284.3-11.9,284.3-11.8,286.2L-11.8,286.2z"/>
			</g>
		</g>
		<text transform="matrix(0.6343 0 0 1 17.4449 413.4095)" class="st1 st2">SEJONG</text>
	</g>
</g>
<g>
	<defs>
		<rect id="SVGID_11_" x="97.5" y="281.9" width="15" height="150"/>
	</defs>
	<clipPath id="SVGID_12_">
		<use xlink:href="#SVGID_11_"  style="overflow:visible;"/>
	</clipPath>
	<g class="st9">
		<g>
			<rect x="22.5" y="281.9" class="st0" width="225" height="150"/>
		</g>
		<g>
			<g>
				<path d="M25.7,286.2c1,25,1.3,50.1,1.1,75.1c-0.1,12.5-0.4,25-0.8,37.6c-0.2,5.9-0.4,11.9-0.7,17.8c-0.2,3.5-1.1,8.4,1.8,11.2
					c2.6,2.5,7.2,1.8,10.4,1.8c6.7,0,13.3,0,19.9,0c12.6,0,25.3,0,37.9,0c25.3,0.1,50.5,0.2,75.8,0.4c12.6,0.1,25.3,0.2,37.9,0.4
					c6,0.1,12,0.1,17.9,0.2c4.7,0.1,11.3,1.4,15.8-0.3c2.3-0.9,3.1-2.6,3.3-4.9c0.4-6.1-0.8-12.6-1.1-18.7
					c-0.7-12.3-1.1-24.6-0.7-36.9c0.8-23.4,4.1-46.8,1.1-70.2c-0.3-2.5-0.7-4.9-1.2-7.4c-0.3-1.6-0.4-4.9-1.6-6.2
					c-2.3-2.4-9-2.8-12.2-3.3c-10.9-1.4-21.8,0.4-32.6,1.9c-27.4,3.9-55.3,2.4-82.9,2.3c-28.3-0.1-56.7-0.2-85.1-0.3
					c-1.9,0-1.9,3,0,3c45.9,0.2,91.9,1.1,137.8,0.4c10.4-0.1,20.6-1,30.9-2.5c11.2-1.6,22.8-3.5,34-1.4c1.9,0.3,5.4,0.5,6.8,1.8
					c1.8,1.5,1.8,4.8,2.2,6.9c1.1,6,1.6,12.1,1.9,18.2c0.4,11.3-0.2,22.7-0.9,34c-1.4,22.6-1.5,44.8-0.1,67.4
					c0.2,2.6,0.3,5.2,0.5,7.8c0.1,0.8,0.4,2.4,0.2,3.1c-0.5,1.4-3,2.1-4.1,2.4c-2.4,0.5-5.5-0.1-8-0.1c-3.3,0-6.6-0.1-10-0.1
					c-11.6-0.1-23.3-0.3-34.9-0.4c-46.2-0.4-92.4-0.6-138.6-0.5c-4.9,0-19.1,2.3-19.4-4.6c-0.2-6.3,0.5-12.8,0.8-19.1
					c0.5-12.9,0.8-25.7,0.9-38.6c0.3-26-0.1-52.1-1.1-78.1C28.6,284.3,25.6,284.3,25.7,286.2L25.7,286.2z"/>
			</g>
		</g>
		<text transform="matrix(0.6343 0 0 1 54.9449 413.4095)" class="st1 st2">SEJONG</text>
	</g>
</g>
<g>
	<defs>
		<rect id="SVGID_13_" x="142.5" y="298.7" width="15" height="150"/>
	</defs>
	<clipPath id="SVGID_14_">
		<use xlink:href="#SVGID_13_"  style="overflow:visible;"/>
	</clipPath>
	<g class="st10">
		<g>
			<rect x="52.5" y="298.7" class="st0" width="225" height="150"/>
		</g>
		<g>
			<g>
				<path d="M55.7,303c1,25,1.3,50.1,1.1,75.1c-0.1,12.5-0.4,25-0.8,37.6c-0.2,5.9-0.4,11.9-0.7,17.8c-0.2,3.5-1.1,8.4,1.8,11.2
					c2.6,2.5,7.2,1.8,10.4,1.8c6.7,0,13.3,0,19.9,0c12.6,0,25.3,0,37.9,0c25.3,0.1,50.5,0.2,75.8,0.4c12.6,0.1,25.3,0.2,37.9,0.4
					c6,0.1,12,0.1,17.9,0.2c4.7,0.1,11.3,1.4,15.8-0.3c2.3-0.9,3.1-2.6,3.3-4.9c0.4-6.1-0.8-12.6-1.1-18.7
					c-0.7-12.3-1.1-24.6-0.7-36.9c0.8-23.4,4.1-46.8,1.1-70.2c-0.3-2.5-0.7-4.9-1.2-7.4c-0.3-1.6-0.4-4.9-1.6-6.2
					c-2.3-2.4-9-2.8-12.2-3.3c-10.9-1.4-21.8,0.4-32.6,1.9c-27.4,3.9-55.3,2.4-82.9,2.3c-28.3-0.1-56.7-0.2-85.1-0.3
					c-1.9,0-1.9,3,0,3c45.9,0.2,91.9,1.1,137.8,0.4c10.4-0.1,20.6-1,30.9-2.5c11.2-1.6,22.8-3.5,34-1.4c1.9,0.3,5.4,0.5,6.8,1.8
					c1.8,1.5,1.8,4.8,2.2,6.9c1.1,6,1.6,12.1,1.9,18.2c0.5,11.3-0.2,22.7-0.9,34c-1.4,22.6-1.5,44.8-0.1,67.4
					c0.2,2.6,0.3,5.2,0.5,7.8c0,0.8,0.4,2.4,0.2,3.1c-0.5,1.4-3,2.1-4.1,2.4c-2.4,0.5-5.5-0.1-8-0.1c-3.3,0-6.6-0.1-10-0.1
					c-11.6-0.1-23.3-0.3-34.9-0.4c-46.2-0.4-92.4-0.6-138.6-0.5c-4.9,0-19.1,2.3-19.4-4.6c-0.2-6.3,0.5-12.8,0.8-19.1
					c0.5-12.9,0.8-25.7,0.9-38.6c0.3-26-0.1-52.1-1.1-78.1C58.6,301.1,55.6,301.1,55.7,303L55.7,303z"/>
			</g>
		</g>
		<text transform="matrix(0.6343 0 0 1 84.9449 430.1967)" class="st1 st2">SEJONG</text>
	</g>
</g>
<g>
	<defs>
		<rect id="SVGID_15_" x="187.5" y="298.7" width="15" height="150"/>
	</defs>
	<clipPath id="SVGID_16_">
		<use xlink:href="#SVGID_15_"  style="overflow:visible;"/>
	</clipPath>
	<g class="st11">
		<g>
			<rect x="82.5" y="298.7" class="st0" width="225" height="150"/>
		</g>
		<g>
			<g>
				<path d="M85.7,303c0.9,25,1.3,50.1,1.1,75.1c-0.1,12.5-0.4,25-0.8,37.6c-0.2,5.9-0.4,11.9-0.7,17.8c-0.2,3.5-1.1,8.4,1.8,11.2
					c2.6,2.5,7.2,1.8,10.4,1.8c6.7,0,13.3,0,19.9,0c12.6,0,25.3,0,37.9,0c25.3,0.1,50.5,0.2,75.8,0.4c12.6,0.1,25.3,0.2,37.9,0.4
					c6,0.1,12,0.1,18,0.2c4.7,0.1,11.3,1.4,15.8-0.3c2.3-0.9,3.1-2.6,3.3-4.9c0.4-6.1-0.8-12.6-1.1-18.7
					c-0.7-12.3-1.1-24.6-0.7-36.9c0.8-23.4,4.1-46.8,1.1-70.2c-0.3-2.5-0.7-4.9-1.2-7.4c-0.3-1.6-0.4-4.9-1.6-6.2
					c-2.3-2.4-9-2.8-12.2-3.3c-10.9-1.4-21.8,0.4-32.6,1.9c-27.4,3.9-55.3,2.4-82.9,2.3c-28.3-0.1-56.7-0.2-85.1-0.3
					c-1.9,0-1.9,3,0,3c45.9,0.2,91.9,1.1,137.8,0.4c10.4-0.1,20.6-1,30.9-2.5c11.2-1.6,22.8-3.5,34-1.4c1.9,0.3,5.4,0.5,6.8,1.8
					c1.8,1.5,1.8,4.8,2.2,6.9c1.1,6,1.6,12.1,1.9,18.2c0.5,11.3-0.2,22.7-0.9,34c-1.4,22.6-1.5,44.8-0.1,67.4
					c0.2,2.6,0.3,5.2,0.5,7.8c0,0.8,0.4,2.4,0.2,3.1c-0.5,1.4-3,2.1-4.1,2.4c-2.4,0.5-5.5-0.1-8-0.1c-3.3,0-6.6-0.1-10-0.1
					c-11.6-0.1-23.3-0.3-34.9-0.4c-46.2-0.4-92.4-0.6-138.6-0.5c-4.9,0-19.1,2.3-19.4-4.6c-0.2-6.3,0.6-12.8,0.8-19.1
					c0.5-12.9,0.8-25.7,0.9-38.6c0.3-26-0.1-52.1-1.1-78.1C88.6,301.1,85.6,301.1,85.7,303L85.7,303z"/>
			</g>
		</g>
		<text transform="matrix(0.6343 0 0 1 114.9449 430.1967)" class="st1 st2">SEJONG</text>
	</g>
</g>
<g>
	<defs>
		<rect id="SVGID_17_" x="237.9" y="298.7" width="15" height="150"/>
	</defs>
	<clipPath id="SVGID_18_">
		<use xlink:href="#SVGID_17_"  style="overflow:visible;"/>
	</clipPath>
	<g class="st12">
		<g>
			<rect x="117.9" y="298.7" class="st0" width="225" height="150"/>
		</g>
		<g>
			<g>
				<path d="M121.1,303c0.9,25,1.3,50.1,1.1,75.1c-0.1,12.5-0.4,25-0.8,37.6c-0.2,5.9-0.4,11.9-0.7,17.8c-0.2,3.5-1.1,8.4,1.8,11.2
					c2.6,2.5,7.2,1.8,10.4,1.8c6.6,0,13.3,0,19.9,0c12.6,0,25.3,0,37.9,0c25.3,0.1,50.5,0.2,75.8,0.4c12.6,0.1,25.3,0.2,37.9,0.4
					c6,0.1,12,0.1,18,0.2c4.7,0.1,11.3,1.4,15.8-0.3c2.3-0.9,3.1-2.6,3.3-4.9c0.4-6.1-0.8-12.6-1.1-18.7
					c-0.7-12.3-1.1-24.6-0.7-36.9c0.8-23.4,4.1-46.8,1.1-70.2c-0.3-2.5-0.7-4.9-1.2-7.4c-0.3-1.6-0.4-4.9-1.6-6.2
					c-2.3-2.4-9-2.8-12.2-3.3c-10.9-1.4-21.8,0.4-32.6,1.9c-27.4,3.9-55.3,2.4-82.9,2.3c-28.3-0.1-56.7-0.2-85.1-0.3
					c-1.9,0-1.9,3,0,3c45.9,0.2,91.9,1.1,137.8,0.4c10.4-0.1,20.6-1,30.9-2.5c11.2-1.6,22.8-3.5,34-1.4c1.9,0.3,5.4,0.5,6.8,1.8
					c1.8,1.5,1.8,4.8,2.2,6.9c1.1,6,1.6,12.1,1.9,18.2c0.4,11.3-0.2,22.7-0.9,34c-1.4,22.6-1.5,44.8-0.1,67.4
					c0.2,2.6,0.3,5.2,0.5,7.8c0,0.8,0.4,2.4,0.2,3.1c-0.5,1.4-3,2.1-4.1,2.4c-2.4,0.5-5.5-0.1-8-0.1c-3.3,0-6.6-0.1-10-0.1
					c-11.6-0.1-23.3-0.3-34.9-0.4c-46.2-0.4-92.4-0.6-138.6-0.5c-4.9,0-19.1,2.3-19.4-4.6c-0.2-6.3,0.6-12.8,0.8-19.1
					c0.5-12.9,0.8-25.7,0.9-38.6c0.3-26-0.1-52.1-1.1-78.1C124,301.1,121,301.1,121.1,303L121.1,303z"/>
			</g>
		</g>
		<text transform="matrix(0.6343 0 0 1 150.3705 430.1967)" class="st1 st2">SEJONG</text>
	</g>
</g>
<g>
	<defs>
		<rect id="SVGID_19_" x="286.9" y="298.7" width="15" height="150"/>
	</defs>
	<clipPath id="SVGID_20_">
		<use xlink:href="#SVGID_19_"  style="overflow:visible;"/>
	</clipPath>
	<g class="st13">
		<g>
			<rect x="151.9" y="298.7" class="st0" width="225" height="150"/>
		</g>
		<g>
			<g>
				<path d="M155.1,303c0.9,25,1.3,50.1,1.1,75.1c-0.1,12.5-0.4,25-0.8,37.6c-0.2,5.9-0.4,11.9-0.7,17.8c-0.2,3.5-1.1,8.4,1.8,11.2
					c2.6,2.5,7.2,1.8,10.4,1.8c6.7,0,13.3,0,19.9,0c12.6,0,25.3,0,37.9,0c25.3,0.1,50.5,0.2,75.8,0.4c12.6,0.1,25.3,0.2,37.9,0.4
					c6,0.1,12,0.1,17.9,0.2c4.7,0.1,11.3,1.4,15.8-0.3c2.3-0.9,3.1-2.6,3.3-4.9c0.4-6.1-0.8-12.6-1.1-18.7
					c-0.7-12.3-1.1-24.6-0.7-36.9c0.8-23.4,4.1-46.8,1.1-70.2c-0.3-2.5-0.7-4.9-1.2-7.4c-0.3-1.6-0.4-4.9-1.6-6.2
					c-2.3-2.4-9-2.8-12.2-3.3c-10.9-1.4-21.8,0.4-32.6,1.9c-27.4,3.9-55.3,2.4-82.9,2.3c-28.3-0.1-56.7-0.2-85.1-0.3
					c-1.9,0-1.9,3,0,3c45.9,0.2,91.9,1.1,137.8,0.4c10.4-0.1,20.6-1,30.9-2.5c11.2-1.6,22.8-3.5,34-1.4c1.9,0.3,5.4,0.5,6.8,1.8
					c1.8,1.5,1.8,4.8,2.2,6.9c1.1,6,1.6,12.1,1.9,18.2c0.5,11.3-0.2,22.7-0.9,34c-1.4,22.6-1.5,44.8-0.1,67.4
					c0.2,2.6,0.3,5.2,0.5,7.8c0.1,0.8,0.4,2.4,0.2,3.1c-0.5,1.4-3,2.1-4.1,2.4c-2.4,0.5-5.5-0.1-8-0.1c-3.3,0-6.6-0.1-10-0.1
					c-11.6-0.1-23.3-0.3-34.9-0.4c-46.2-0.4-92.4-0.6-138.6-0.5c-4.9,0-19.1,2.3-19.4-4.6c-0.2-6.3,0.6-12.8,0.8-19.1
					c0.5-12.9,0.8-25.7,0.9-38.6c0.3-26-0.1-52.1-1.1-78.1C158,301.1,155,301.1,155.1,303L155.1,303z"/>
			</g>
		</g>
		<text transform="matrix(0.6343 0 0 1 184.3918 430.1967)" class="st1 st2">SEJONG</text>
	</g>
</g>
<g>
	<defs>
		<rect id="SVGID_21_" x="340.8" y="298.7" width="15" height="150"/>
	</defs>
	<clipPath id="SVGID_22_">
		<use xlink:href="#SVGID_21_"  style="overflow:visible;"/>
	</clipPath>
	<g class="st14">
		<g>
			<rect x="190.8" y="298.7" class="st0" width="225" height="150"/>
		</g>
		<g>
			<g>
				<path d="M193.9,303c1,25,1.3,50.1,1.1,75.1c-0.1,12.5-0.4,25-0.8,37.6c-0.2,5.9-0.4,11.9-0.7,17.8c-0.2,3.5-1.1,8.4,1.8,11.2
					c2.6,2.5,7.2,1.8,10.4,1.8c6.6,0,13.3,0,19.9,0c12.6,0,25.3,0,37.9,0c25.3,0.1,50.5,0.2,75.8,0.4c12.6,0.1,25.3,0.2,37.9,0.4
					c6,0.1,12,0.1,17.9,0.2c4.7,0.1,11.3,1.4,15.8-0.3c2.3-0.9,3.1-2.6,3.3-4.9c0.4-6.1-0.8-12.6-1.1-18.7
					c-0.7-12.3-1.1-24.6-0.7-36.9c0.8-23.4,4.1-46.8,1.1-70.2c-0.3-2.5-0.7-4.9-1.2-7.4c-0.3-1.6-0.4-4.9-1.6-6.2
					c-2.3-2.4-9-2.8-12.2-3.3c-10.9-1.4-21.8,0.4-32.6,1.9c-27.4,3.9-55.3,2.4-82.9,2.3c-28.3-0.1-56.7-0.2-85.1-0.3
					c-1.9,0-1.9,3,0,3c45.9,0.2,91.9,1.1,137.8,0.4c10.4-0.1,20.6-1,30.9-2.5c11.2-1.6,22.8-3.5,34-1.4c1.9,0.3,5.4,0.5,6.8,1.8
					c1.8,1.5,1.8,4.8,2.2,6.9c1.1,6,1.6,12.1,1.9,18.2c0.5,11.3-0.2,22.7-0.9,34c-1.4,22.6-1.5,44.8-0.1,67.4
					c0.2,2.6,0.3,5.2,0.5,7.8c0.1,0.8,0.4,2.4,0.2,3.1c-0.5,1.4-3,2.1-4.1,2.4c-2.4,0.5-5.5-0.1-8-0.1c-3.3,0-6.6-0.1-10-0.1
					c-11.6-0.1-23.3-0.3-34.9-0.4c-46.2-0.4-92.4-0.6-138.6-0.5c-4.9,0-19.1,2.3-19.4-4.6c-0.2-6.3,0.5-12.8,0.8-19.1
					c0.5-12.9,0.8-25.7,0.9-38.6c0.3-26-0.1-52.1-1.1-78.1C196.8,301.1,193.8,301.1,193.9,303L193.9,303z"/>
			</g>
		</g>
		<text transform="matrix(0.6343 0 0 1 223.2003 430.1967)" class="st1 st2">SEJONG</text>
	</g>
</g>
<g>
	<defs>
		<rect id="SVGID_23_" x="391.1" y="298.7" width="15" height="150"/>
	</defs>
	<clipPath id="SVGID_24_">
		<use xlink:href="#SVGID_23_"  style="overflow:visible;"/>
	</clipPath>
	<g class="st15">
		<g>
			<rect x="226.1" y="298.7" class="st0" width="225" height="150"/>
		</g>
		<g>
			<g>
				<path d="M229.3,303c0.9,25,1.3,50.1,1.1,75.1c-0.1,12.5-0.4,25-0.8,37.6c-0.2,5.9-0.4,11.9-0.7,17.8c-0.2,3.5-1.1,8.4,1.8,11.2
					c2.6,2.5,7.2,1.8,10.4,1.8c6.7,0,13.3,0,19.9,0c12.6,0,25.3,0,37.9,0c25.3,0.1,50.5,0.2,75.8,0.4c12.6,0.1,25.3,0.2,37.9,0.4
					c6,0.1,12,0.1,18,0.2c4.7,0.1,11.3,1.4,15.8-0.3c2.3-0.9,3.1-2.6,3.3-4.9c0.4-6.1-0.8-12.6-1.1-18.7
					c-0.7-12.3-1.1-24.6-0.7-36.9c0.8-23.4,4.1-46.8,1.1-70.2c-0.3-2.5-0.7-4.9-1.2-7.4c-0.3-1.6-0.4-4.9-1.6-6.2
					c-2.3-2.4-9-2.8-12.2-3.3c-10.9-1.4-21.8,0.4-32.6,1.9c-27.4,3.9-55.3,2.4-82.9,2.3c-28.3-0.1-56.7-0.2-85.1-0.3
					c-1.9,0-1.9,3,0,3c45.9,0.2,91.9,1.1,137.8,0.4c10.4-0.1,20.6-1,30.9-2.5c11.2-1.6,22.8-3.5,34-1.4c1.9,0.3,5.4,0.5,6.8,1.8
					c1.8,1.5,1.8,4.8,2.2,6.9c1.1,6,1.6,12.1,1.9,18.2c0.4,11.3-0.2,22.7-0.9,34c-1.4,22.6-1.5,44.8-0.1,67.4
					c0.2,2.6,0.3,5.2,0.5,7.8c0,0.8,0.4,2.4,0.2,3.1c-0.5,1.4-3,2.1-4.1,2.4c-2.4,0.5-5.5-0.1-8-0.1c-3.3,0-6.6-0.1-10-0.1
					c-11.6-0.1-23.3-0.3-34.9-0.4c-46.2-0.4-92.4-0.6-138.6-0.5c-4.9,0-19.1,2.3-19.4-4.6c-0.2-6.3,0.6-12.8,0.8-19.1
					c0.5-12.9,0.8-25.7,0.9-38.6c0.3-26-0.1-52.1-1.1-78.1C232.2,301.1,229.2,301.1,229.3,303L229.3,303z"/>
			</g>
		</g>
		<text transform="matrix(0.6343 0 0 1 258.562 430.1967)" class="st1 st2">SEJONG</text>
	</g>
</g>
<g>
	<defs>
		<rect id="SVGID_25_" x="450.7" y="298.7" width="15" height="150"/>
	</defs>
	<clipPath id="SVGID_26_">
		<use xlink:href="#SVGID_25_"  style="overflow:visible;"/>
	</clipPath>
	<g class="st16">
		<g>
			<rect x="270.7" y="298.7" class="st0" width="225" height="150"/>
		</g>
		<g>
			<g>
				<path d="M273.9,303c1,25,1.3,50.1,1.1,75.1c-0.1,12.5-0.4,25-0.8,37.6c-0.2,5.9-0.4,11.9-0.7,17.8c-0.2,3.5-1.1,8.4,1.8,11.2
					c2.6,2.5,7.2,1.8,10.4,1.8c6.6,0,13.3,0,19.9,0c12.6,0,25.3,0,37.9,0c25.3,0.1,50.5,0.2,75.8,0.4c12.6,0.1,25.3,0.2,37.9,0.4
					c6,0.1,12,0.1,17.9,0.2c4.7,0.1,11.3,1.4,15.8-0.3c2.3-0.9,3.1-2.6,3.3-4.9c0.4-6.1-0.8-12.6-1.1-18.7
					c-0.7-12.3-1.1-24.6-0.7-36.9c0.8-23.4,4.1-46.8,1.1-70.2c-0.3-2.5-0.7-4.9-1.2-7.4c-0.3-1.6-0.4-4.9-1.6-6.2
					c-2.3-2.4-9-2.8-12.2-3.3c-10.9-1.4-21.8,0.4-32.6,1.9c-27.4,3.9-55.3,2.4-82.9,2.3c-28.3-0.1-56.7-0.2-85.1-0.3
					c-1.9,0-1.9,3,0,3c45.9,0.2,91.9,1.1,137.8,0.4c10.4-0.1,20.6-1,30.9-2.5c11.2-1.6,22.8-3.5,34-1.4c1.9,0.3,5.4,0.5,6.8,1.8
					c1.8,1.5,1.8,4.8,2.2,6.9c1.1,6,1.6,12.1,1.9,18.2c0.5,11.3-0.2,22.7-0.9,34c-1.4,22.6-1.5,44.8-0.1,67.4
					c0.2,2.6,0.3,5.2,0.5,7.8c0.1,0.8,0.4,2.4,0.2,3.1c-0.5,1.4-3,2.1-4.1,2.4c-2.4,0.5-5.5-0.1-8-0.1c-3.3,0-6.6-0.1-10-0.1
					c-11.6-0.1-23.3-0.3-34.9-0.4c-46.2-0.4-92.4-0.6-138.6-0.5c-4.9,0-19.1,2.3-19.4-4.6c-0.2-6.3,0.6-12.8,0.8-19.1
					c0.5-12.9,0.8-25.7,0.9-38.6c0.3-26-0.1-52.1-1.1-78.1C276.8,301.1,273.8,301.1,273.9,303L273.9,303z"/>
			</g>
		</g>
		<text transform="matrix(0.6343 0 0 1 303.1471 430.1967)" class="st1 st2">SEJONG</text>
	</g>
</g>
<g>
	<defs>
		<rect id="SVGID_27_" x="497.2" y="281.9" width="15" height="150"/>
	</defs>
	<clipPath id="SVGID_28_">
		<use xlink:href="#SVGID_27_"  style="overflow:visible;"/>
	</clipPath>
	<g class="st17">
		<g>
			<rect x="302.2" y="281.9" class="st0" width="225" height="150"/>
		</g>
		<g>
			<g>
				<path d="M305.4,286.2c1,25,1.3,50.1,1.1,75.1c-0.1,12.5-0.4,25-0.8,37.6c-0.2,5.9-0.4,11.9-0.7,17.8c-0.2,3.5-1.1,8.4,1.8,11.2
					c2.6,2.5,7.2,1.8,10.4,1.8c6.6,0,13.3,0,19.9,0c12.6,0,25.3,0,37.9,0c25.3,0.1,50.5,0.2,75.8,0.4c12.6,0.1,25.3,0.2,37.9,0.4
					c6,0.1,12,0.1,17.9,0.2c4.7,0.1,11.3,1.4,15.8-0.3c2.3-0.9,3.1-2.6,3.3-4.9c0.4-6.1-0.8-12.6-1.1-18.7
					c-0.7-12.3-1.1-24.6-0.7-36.9c0.8-23.4,4.1-46.8,1.1-70.2c-0.3-2.5-0.7-4.9-1.2-7.4c-0.3-1.6-0.4-4.9-1.6-6.2
					c-2.3-2.4-9-2.8-12.2-3.3c-10.9-1.4-21.8,0.4-32.6,1.9c-27.4,3.9-55.3,2.4-82.9,2.3c-28.3-0.1-56.7-0.2-85.1-0.3
					c-1.9,0-1.9,3,0,3c45.9,0.2,91.9,1.1,137.8,0.4c10.4-0.1,20.6-1,30.9-2.5c11.2-1.6,22.8-3.5,34-1.4c1.9,0.3,5.4,0.5,6.8,1.8
					c1.8,1.5,1.8,4.8,2.2,6.9c1.1,6,1.6,12.1,1.9,18.2c0.4,11.3-0.2,22.7-0.9,34c-1.4,22.6-1.5,44.8-0.1,67.4
					c0.2,2.6,0.3,5.2,0.5,7.8c0,0.8,0.4,2.4,0.2,3.1c-0.5,1.4-3,2.1-4.1,2.4c-2.4,0.5-5.5-0.1-8-0.1c-3.3,0-6.6-0.1-10-0.1
					c-11.6-0.1-23.3-0.3-34.9-0.4c-46.2-0.4-92.4-0.6-138.6-0.5c-4.9,0-19.1,2.3-19.4-4.6c-0.2-6.3,0.6-12.8,0.8-19.1
					c0.5-12.9,0.8-25.7,0.9-38.6c0.3-26-0.1-52.1-1.1-78.1C308.3,284.3,305.3,284.3,305.4,286.2L305.4,286.2z"/>
			</g>
		</g>
		<text transform="matrix(0.6343 0 0 1 334.6791 413.4094)" class="st1 st2">SEJONG</text>
	</g>
</g>
<g>
	<defs>
		<rect id="SVGID_29_" x="552" y="281.9" width="15" height="150"/>
	</defs>
	<clipPath id="SVGID_30_">
		<use xlink:href="#SVGID_29_"  style="overflow:visible;"/>
	</clipPath>
	<g class="st18">
		<g>
			<rect x="342" y="281.9" class="st0" width="225" height="150"/>
		</g>
		<g>
			<g>
				<path d="M345.1,286.2c1,25,1.3,50.1,1.1,75.1c-0.1,12.5-0.4,25-0.8,37.6c-0.2,5.9-0.4,11.9-0.7,17.8c-0.2,3.5-1.1,8.4,1.8,11.2
					c2.6,2.5,7.2,1.8,10.4,1.8c6.6,0,13.3,0,19.9,0c12.6,0,25.3,0,37.9,0c25.3,0.1,50.5,0.2,75.8,0.4c12.6,0.1,25.3,0.2,37.9,0.4
					c6,0.1,12,0.1,18,0.2c4.7,0.1,11.3,1.4,15.8-0.3c2.3-0.9,3.2-2.6,3.3-4.9c0.4-6.1-0.8-12.6-1.1-18.7
					c-0.7-12.3-1.1-24.6-0.7-36.9c0.8-23.4,4.1-46.8,1.1-70.2c-0.3-2.5-0.7-4.9-1.2-7.4c-0.3-1.6-0.4-4.9-1.6-6.2
					c-2.3-2.4-9-2.8-12.2-3.3c-10.9-1.4-21.8,0.4-32.6,1.9c-27.4,3.9-55.3,2.4-82.9,2.3c-28.3-0.1-56.7-0.2-85.1-0.3
					c-1.9,0-1.9,3,0,3c45.9,0.2,91.9,1.1,137.8,0.4c10.4-0.1,20.6-1,30.9-2.5c11.2-1.6,22.8-3.5,34-1.4c1.9,0.3,5.4,0.5,6.8,1.8
					c1.8,1.5,1.8,4.8,2.2,6.9c1.1,6,1.6,12.1,1.9,18.2c0.5,11.3-0.2,22.7-0.9,34c-1.4,22.6-1.5,44.8-0.1,67.4
					c0.2,2.6,0.3,5.2,0.5,7.8c0,0.8,0.4,2.4,0.2,3.1c-0.5,1.4-3,2.1-4.1,2.4c-2.4,0.5-5.5-0.1-8-0.1c-3.3,0-6.7-0.1-10-0.1
					c-11.6-0.1-23.3-0.3-34.9-0.4c-46.2-0.4-92.4-0.6-138.6-0.5c-4.9,0-19.1,2.3-19.4-4.6c-0.2-6.3,0.6-12.8,0.8-19.1
					c0.5-12.9,0.8-25.7,0.9-38.6c0.3-26-0.1-52.1-1.1-78.1C348.1,284.3,345.1,284.3,345.1,286.2L345.1,286.2z"/>
			</g>
		</g>
		<text transform="matrix(0.6343 0 0 1 374.4131 413.4093)" class="st1 st2">SEJONG</text>
	</g>
</g>
</svg>
