<?xml version="1.0" encoding="utf-8"?>
<!-- Generator: Adobe Illustrator 23.0.0, SVG Export Plug-In . SVG Version: 6.00 Build 0)  -->
<svg version="1.1" id="Layer_1" xmlns="http://www.w3.org/2000/svg" xmlns:xlink="http://www.w3.org/1999/xlink" x="0px" y="0px"
	 viewBox="0 0 15 150" style="enable-background:new 0 0 15 150;" xml:space="preserve">
<style type="text/css">
	.st0{clip-path:url(#SVGID_2_);}
	.st1{fill:#FFFFFF;}
	.st2{font-family:'Sketch3D';}
	.st3{font-size:57.0771px;}
	.st4{clip-path:url(#SVGID_4_);}
	.st5{clip-path:url(#SVGID_6_);}
	.st6{clip-path:url(#SVGID_8_);}
	.st7{clip-path:url(#SVGID_10_);}
	.st8{clip-path:url(#SVGID_12_);}
	.st9{clip-path:url(#SVGID_14_);}
	.st10{clip-path:url(#SVGID_16_);}
	.st11{clip-path:url(#SVGID_18_);}
	.st12{clip-path:url(#SVGID_20_);}
	.st13{clip-path:url(#SVGID_22_);}
	.st14{clip-path:url(#SVGID_24_);}
	.st15{clip-path:url(#SVGID_26_);}
	.st16{clip-path:url(#SVGID_28_);}
	.st17{clip-path:url(#SVGID_30_);}
</style>
<g>
	<defs>
		<rect id="SVGID_1_" x="-35" width="15" height="150"/>
	</defs>
	<clipPath id="SVGID_2_">
		<use xlink:href="#SVGID_1_"  style="overflow:visible;"/>
	</clipPath>
	<g class="st0">
		<g>
			<rect x="-95" y="0" class="st1" width="225" height="150"/>
		</g>
		<g>
			<g>
				<path d="M-92.81,5.5c0.4,46.5,2.37,92.97,5.92,139.34c0.07,0.88,0.64,1.41,1.5,1.5c19.15,2.04,38.45,4.09,57.72,2.57
					c9.38-0.74,18.67-2.79,28.11-2.61c9.7,0.18,19.32,1.93,29.02,2.28c18.92,0.68,37.93-0.65,56.83-1.42
					c9.9-0.4,19.8-0.81,29.7-1.21c5.37-0.22,11.83,0.62,11.32-6.49c-0.67-9.21-2.37-18.33-2.96-27.58
					c-0.61-9.67-0.83-19.37-0.85-29.06c-0.04-18.8,0.65-37.59,0.69-56.4c0.01-4.53-0.02-9.07-0.11-13.6
					c-0.06-2.87,0.44-6.85-1.67-9.18c-1.49-1.64-3.52-1.71-5.59-1.81c-4.92-0.24-9.93,0.02-14.86,0.03C82.48,1.9,63,1.94,43.52,1.98
					C-0.07,2.08-43.66,2.16-87.24,2.25c-1.93,0-1.93,3,0,3C-51.25,5.18-15.26,5.1,20.73,5.03c18.16-0.04,36.32-0.07,54.48-0.11
					c8.91-0.02,17.83-0.04,26.74-0.05c4.24-0.01,8.65-0.37,12.88-0.03c2.02,0.16,4.71-0.74,5.95,2.03c0.34,0.77,0.19,2.2,0.23,3.04
					c0.1,2.26,0.1,4.53,0.13,6.8c0.44,35.58-2.37,71.26,1.14,106.75c0.36,3.67,0.8,7.33,1.3,10.98c0.36,2.59,1.4,4.94-0.42,6.96
					c-1.96,2.17-5.32,1.48-8.15,1.6c-8.91,0.36-17.82,0.73-26.73,1.09c-17.96,0.73-35.97,1.91-53.95,1.62
					c-9.76-0.16-19.34-1.41-29.05-2.15c-10.16-0.77-19.95,1.12-30.01,2.1c-20.22,1.98-40.53-0.18-60.65-2.32c0.5,0.5,1,1,1.5,1.5
					C-87.44,98.47-89.41,52-89.81,5.5C-89.83,3.57-92.83,3.56-92.81,5.5L-92.81,5.5z"/>
			</g>
		</g>
		<text transform="matrix(0.8526 0 0 1 -79.0003 95.0733)" class="st2 st3">SEJONG</text>
	</g>
</g>
<g>
	<defs>
		<rect id="SVGID_3_" width="15" height="150"/>
	</defs>
	<clipPath id="SVGID_4_">
		<use xlink:href="#SVGID_3_"  style="overflow:visible;"/>
	</clipPath>
	<g class="st4">
		<g>
			<rect x="-75" y="0" class="st1" width="225" height="150"/>
		</g>
		<g>
			<g>
				<path d="M-72.81,5.5c0.4,46.5,2.37,92.97,5.92,139.34c0.07,0.88,0.64,1.41,1.5,1.5c19.15,2.04,38.45,4.09,57.72,2.57
					c9.38-0.74,18.67-2.79,28.11-2.61c9.7,0.18,19.32,1.93,29.02,2.28c18.92,0.68,37.93-0.65,56.83-1.42
					c9.9-0.4,19.8-0.81,29.7-1.21c5.37-0.22,11.83,0.62,11.32-6.49c-0.67-9.21-2.37-18.33-2.96-27.58
					c-0.61-9.67-0.83-19.37-0.85-29.06c-0.04-18.8,0.65-37.59,0.69-56.4c0.01-4.53-0.02-9.07-0.11-13.6
					c-0.06-2.87,0.44-6.85-1.67-9.18c-1.49-1.64-3.52-1.71-5.59-1.81c-4.92-0.24-9.93,0.02-14.86,0.03
					C102.48,1.9,83,1.94,63.52,1.98C19.93,2.08-23.66,2.16-67.24,2.25c-1.93,0-1.93,3,0,3C-31.25,5.18,4.74,5.1,40.73,5.03
					c18.16-0.04,36.32-0.07,54.48-0.11c8.91-0.02,17.83-0.04,26.74-0.05c4.24-0.01,8.65-0.37,12.88-0.03
					c2.02,0.16,4.71-0.74,5.95,2.03c0.34,0.77,0.19,2.2,0.23,3.04c0.1,2.26,0.1,4.53,0.13,6.8c0.44,35.58-2.37,71.26,1.14,106.75
					c0.36,3.67,0.8,7.33,1.3,10.98c0.36,2.59,1.4,4.94-0.42,6.96c-1.96,2.17-5.32,1.48-8.15,1.6c-8.91,0.36-17.82,0.73-26.73,1.09
					c-17.96,0.73-35.97,1.91-53.95,1.62c-9.76-0.16-19.34-1.41-29.05-2.15c-10.16-0.77-19.95,1.12-30.01,2.1
					c-20.22,1.98-40.53-0.18-60.65-2.32c0.5,0.5,1,1,1.5,1.5C-67.44,98.47-69.41,52-69.81,5.5C-69.83,3.57-72.83,3.56-72.81,5.5
					L-72.81,5.5z"/>
			</g>
		</g>
		<text transform="matrix(0.8526 0 0 1 -59.0006 95.0732)" class="st2 st3">SEJONG</text>
	</g>
</g>
<g>
	<defs>
		<rect id="SVGID_5_" x="35" width="15" height="150"/>
	</defs>
	<clipPath id="SVGID_6_">
		<use xlink:href="#SVGID_5_"  style="overflow:visible;"/>
	</clipPath>
	<g class="st5">
		<g>
			<rect x="-55" y="0" class="st1" width="225" height="150"/>
		</g>
		<g>
			<g>
				<path d="M-52.81,5.5c0.4,46.5,2.37,92.97,5.92,139.34c0.07,0.88,0.64,1.41,1.5,1.5c19.15,2.04,38.45,4.09,57.72,2.57
					c9.38-0.74,18.67-2.79,28.11-2.61c9.7,0.18,19.32,1.93,29.02,2.28c18.92,0.68,37.93-0.65,56.83-1.42
					c9.9-0.4,19.8-0.81,29.7-1.21c5.37-0.22,11.83,0.62,11.32-6.49c-0.67-9.21-2.37-18.33-2.96-27.58
					c-0.61-9.67-0.83-19.37-0.85-29.06c-0.04-18.8,0.65-37.59,0.69-56.4c0.01-4.53-0.02-9.07-0.11-13.6
					c-0.06-2.87,0.44-6.85-1.67-9.18c-1.49-1.64-3.52-1.71-5.59-1.81c-4.92-0.24-9.93,0.02-14.86,0.03
					C122.48,1.9,103,1.94,83.52,1.98C39.93,2.08-3.66,2.16-47.24,2.25c-1.93,0-1.93,3,0,3C-11.25,5.18,24.74,5.1,60.73,5.03
					c18.16-0.04,36.32-0.07,54.48-0.11c8.91-0.02,17.83-0.04,26.74-0.05c4.24-0.01,8.65-0.37,12.88-0.03
					c2.02,0.16,4.71-0.74,5.95,2.03c0.34,0.77,0.19,2.2,0.23,3.04c0.1,2.26,0.1,4.53,0.13,6.8c0.44,35.58-2.37,71.26,1.14,106.75
					c0.36,3.67,0.8,7.33,1.3,10.98c0.36,2.59,1.4,4.94-0.42,6.96c-1.96,2.17-5.32,1.48-8.15,1.6c-8.91,0.36-17.82,0.73-26.73,1.09
					c-17.96,0.73-35.97,1.91-53.95,1.62c-9.76-0.16-19.34-1.41-29.05-2.15c-10.16-0.77-19.95,1.12-30.01,2.1
					c-20.22,1.98-40.53-0.18-60.65-2.32c0.5,0.5,1,1,1.5,1.5C-47.44,98.47-49.41,52-49.81,5.5C-49.83,3.57-52.83,3.56-52.81,5.5
					L-52.81,5.5z"/>
			</g>
		</g>
		<text transform="matrix(0.8526 0 0 1 -39.0005 95.0732)" class="st2 st3">SEJONG</text>
	</g>
</g>
<g>
	<defs>
		<rect id="SVGID_7_" x="70" width="15" height="150"/>
	</defs>
	<clipPath id="SVGID_8_">
		<use xlink:href="#SVGID_7_"  style="overflow:visible;"/>
	</clipPath>
	<g class="st6">
		<g>
			<rect x="-35" y="0" class="st1" width="225" height="150"/>
		</g>
		<g>
			<g>
				<path d="M-32.81,5.5c0.4,46.5,2.37,92.97,5.92,139.34c0.07,0.88,0.64,1.41,1.5,1.5c19.15,2.04,38.45,4.09,57.72,2.57
					c9.38-0.74,18.67-2.79,28.11-2.61c9.7,0.18,19.32,1.93,29.02,2.28c18.92,0.68,37.93-0.65,56.83-1.42
					c9.9-0.4,19.8-0.81,29.7-1.21c5.37-0.22,11.83,0.62,11.32-6.49c-0.67-9.21-2.37-18.33-2.96-27.58
					c-0.61-9.67-0.83-19.37-0.85-29.06c-0.04-18.8,0.65-37.59,0.69-56.4c0.01-4.53-0.02-9.07-0.11-13.6
					c-0.06-2.87,0.44-6.85-1.67-9.18c-1.49-1.64-3.52-1.71-5.59-1.81c-4.92-0.24-9.93,0.02-14.86,0.03
					C142.48,1.9,123,1.94,103.52,1.98C59.93,2.08,16.34,2.16-27.24,2.25c-1.93,0-1.93,3,0,3C8.75,5.18,44.74,5.1,80.73,5.03
					c18.16-0.04,36.32-0.07,54.48-0.11c8.91-0.02,17.83-0.04,26.74-0.05c4.24-0.01,8.65-0.37,12.88-0.03
					c2.02,0.16,4.71-0.74,5.95,2.03c0.34,0.77,0.19,2.2,0.23,3.04c0.1,2.26,0.1,4.53,0.13,6.8c0.44,35.58-2.37,71.26,1.14,106.75
					c0.36,3.67,0.8,7.33,1.3,10.98c0.36,2.59,1.4,4.94-0.42,6.96c-1.96,2.17-5.32,1.48-8.15,1.6c-8.91,0.36-17.82,0.73-26.73,1.09
					c-17.96,0.73-35.97,1.91-53.95,1.62c-9.76-0.16-19.34-1.41-29.05-2.15c-10.16-0.77-19.95,1.12-30.01,2.1
					c-20.22,1.98-40.53-0.18-60.65-2.32c0.5,0.5,1,1,1.5,1.5C-27.44,98.47-29.41,52-29.81,5.5C-29.83,3.57-32.83,3.56-32.81,5.5
					L-32.81,5.5z"/>
			</g>
		</g>
		<text transform="matrix(0.8526 0 0 1 -19.0005 95.0732)" class="st2 st3">SEJONG</text>
	</g>
</g>
</svg>
