<?xml version="1.0" encoding="utf-8"?>
<!-- Generator: Adobe Illustrator 23.0.0, SVG Export Plug-In . SVG Version: 6.00 Build 0)  -->
<svg version="1.1" id="Layer_1" xmlns="http://www.w3.org/2000/svg" xmlns:xlink="http://www.w3.org/1999/xlink" x="0px" y="0px"
	 viewBox="0 0 15 150" style="enable-background:new 0 0 15 150;" xml:space="preserve">
<style type="text/css">
	.st0{clip-path:url(#SVGID_2_);}
	.st1{fill:#FFFFFF;}
	.st2{font-family:'Sketch3D';}
	.st3{font-size:57.0771px;}
	.st4{clip-path:url(#SVGID_4_);}
	.st5{clip-path:url(#SVGID_6_);}
	.st6{clip-path:url(#SVGID_8_);}
	.st7{clip-path:url(#SVGID_10_);}
	.st8{clip-path:url(#SVGID_12_);}
	.st9{clip-path:url(#SVGID_14_);}
	.st10{clip-path:url(#SVGID_16_);}
	.st11{clip-path:url(#SVGID_18_);}
	.st12{clip-path:url(#SVGID_20_);}
	.st13{clip-path:url(#SVGID_22_);}
	.st14{clip-path:url(#SVGID_24_);}
	.st15{clip-path:url(#SVGID_26_);}
	.st16{clip-path:url(#SVGID_28_);}
	.st17{clip-path:url(#SVGID_30_);}
</style>
<g>
	<defs>
		<rect id="SVGID_1_" x="-70" width="15" height="150"/>
	</defs>
	<clipPath id="SVGID_2_">
		<use xlink:href="#SVGID_1_"  style="overflow:visible;"/>
	</clipPath>
	<g class="st0">
		<g>
			<rect x="-130" y="0" class="st1" width="225" height="150"/>
		</g>
		<g>
			<g>
				<path d="M-127.81,5.5c0.4,46.5,2.37,92.97,5.92,139.34c0.07,0.88,0.64,1.41,1.5,1.5c19.15,2.04,38.45,4.09,57.72,2.57
					c9.38-0.74,18.67-2.79,28.11-2.61c9.7,0.18,19.32,1.93,29.02,2.28c18.92,0.68,37.93-0.65,56.83-1.42
					c9.9-0.4,19.8-0.81,29.7-1.21c5.37-0.22,11.83,0.62,11.32-6.49c-0.67-9.21-2.37-18.33-2.96-27.58
					c-0.61-9.67-0.83-19.37-0.85-29.06c-0.04-18.8,0.65-37.59,0.69-56.4c0.01-4.53-0.02-9.07-0.11-13.6
					c-0.06-2.87,0.44-6.85-1.67-9.18C85.92,2,83.89,1.93,81.82,1.83c-4.92-0.24-9.93,0.02-14.86,0.03C47.48,1.9,28,1.94,8.52,1.98
					c-43.59,0.1-87.18,0.18-130.76,0.27c-1.93,0-1.93,3,0,3C-86.25,5.18-50.26,5.1-14.27,5.03C3.89,4.99,22.05,4.96,40.21,4.92
					c8.91-0.02,17.83-0.04,26.74-0.05c4.24-0.01,8.65-0.37,12.88-0.03C81.85,5,84.54,4.1,85.78,6.87c0.34,0.77,0.19,2.2,0.23,3.04
					c0.1,2.26,0.1,4.53,0.13,6.8c0.44,35.58-2.37,71.26,1.14,106.75c0.36,3.67,0.8,7.33,1.3,10.98c0.36,2.59,1.4,4.94-0.42,6.96
					c-1.96,2.17-5.32,1.48-8.15,1.6c-8.91,0.36-17.82,0.73-26.73,1.09c-17.96,0.73-35.97,1.91-53.95,1.62
					c-9.76-0.16-19.34-1.41-29.05-2.15c-10.16-0.77-19.95,1.12-30.01,2.1c-20.22,1.98-40.53-0.18-60.65-2.32c0.5,0.5,1,1,1.5,1.5
					c-3.56-46.37-5.53-92.84-5.93-139.34C-124.83,3.57-127.83,3.56-127.81,5.5L-127.81,5.5z"/>
			</g>
		</g>
		<text transform="matrix(0.8526 0 0 1 -114.0003 95.0733)" class="st2 st3">SEJONG</text>
	</g>
</g>
<g>
	<defs>
		<rect id="SVGID_3_" x="-35" width="15" height="150"/>
	</defs>
	<clipPath id="SVGID_4_">
		<use xlink:href="#SVGID_3_"  style="overflow:visible;"/>
	</clipPath>
	<g class="st4">
		<g>
			<rect x="-110" y="0" class="st1" width="225" height="150"/>
		</g>
		<g>
			<g>
				<path d="M-107.81,5.5c0.4,46.5,2.37,92.97,5.92,139.34c0.07,0.88,0.64,1.41,1.5,1.5c19.15,2.04,38.45,4.09,57.72,2.57
					c9.38-0.74,18.67-2.79,28.11-2.61c9.7,0.18,19.32,1.93,29.02,2.28c18.92,0.68,37.93-0.65,56.83-1.42
					c9.9-0.4,19.8-0.81,29.7-1.21c5.37-0.22,11.83,0.62,11.32-6.49c-0.67-9.21-2.37-18.33-2.96-27.58
					c-0.61-9.67-0.83-19.37-0.85-29.06c-0.04-18.8,0.65-37.59,0.69-56.4c0.01-4.53-0.02-9.07-0.11-13.6
					c-0.06-2.87,0.44-6.85-1.67-9.18c-1.49-1.64-3.52-1.71-5.59-1.81c-4.92-0.24-9.93,0.02-14.86,0.03C67.48,1.9,48,1.94,28.52,1.98
					c-43.59,0.1-87.18,0.18-130.76,0.27c-1.93,0-1.93,3,0,3C-66.25,5.18-30.26,5.1,5.73,5.03c18.16-0.04,36.32-0.07,54.48-0.11
					c8.91-0.02,17.83-0.04,26.74-0.05c4.24-0.01,8.65-0.37,12.88-0.03c2.02,0.16,4.71-0.74,5.95,2.03c0.34,0.77,0.19,2.2,0.23,3.04
					c0.1,2.26,0.1,4.53,0.13,6.8c0.44,35.58-2.37,71.26,1.14,106.75c0.36,3.67,0.8,7.33,1.3,10.98c0.36,2.59,1.4,4.94-0.42,6.96
					c-1.96,2.17-5.32,1.48-8.15,1.6c-8.91,0.36-17.82,0.73-26.73,1.09c-17.96,0.73-35.97,1.91-53.95,1.62
					c-9.76-0.16-19.34-1.41-29.05-2.15c-10.16-0.77-19.95,1.12-30.01,2.1c-20.22,1.98-40.53-0.18-60.65-2.32c0.5,0.5,1,1,1.5,1.5
					c-3.56-46.37-5.53-92.84-5.93-139.34C-104.83,3.57-107.83,3.56-107.81,5.5L-107.81,5.5z"/>
			</g>
		</g>
		<text transform="matrix(0.8526 0 0 1 -94.0006 95.0732)" class="st2 st3">SEJONG</text>
	</g>
</g>
<g>
	<defs>
		<rect id="SVGID_5_" width="15" height="150"/>
	</defs>
	<clipPath id="SVGID_6_">
		<use xlink:href="#SVGID_5_"  style="overflow:visible;"/>
	</clipPath>
	<g class="st5">
		<g>
			<rect x="-90" y="0" class="st1" width="225" height="150"/>
		</g>
		<g>
			<g>
				<path d="M-87.81,5.5c0.4,46.5,2.37,92.97,5.92,139.34c0.07,0.88,0.64,1.41,1.5,1.5c19.15,2.04,38.45,4.09,57.72,2.57
					c9.38-0.74,18.67-2.79,28.11-2.61c9.7,0.18,19.32,1.93,29.02,2.28c18.92,0.68,37.93-0.65,56.83-1.42
					c9.9-0.4,19.8-0.81,29.7-1.21c5.37-0.22,11.83,0.62,11.32-6.49c-0.67-9.21-2.37-18.33-2.96-27.58
					c-0.61-9.67-0.83-19.37-0.85-29.06c-0.04-18.8,0.65-37.59,0.69-56.4c0.01-4.53-0.02-9.07-0.11-13.6
					c-0.06-2.87,0.44-6.85-1.67-9.18c-1.49-1.64-3.52-1.71-5.59-1.81c-4.92-0.24-9.93,0.02-14.86,0.03C87.48,1.9,68,1.94,48.52,1.98
					C4.93,2.08-38.66,2.16-82.24,2.25c-1.93,0-1.93,3,0,3C-46.25,5.18-10.26,5.1,25.73,5.03c18.16-0.04,36.32-0.07,54.48-0.11
					c8.91-0.02,17.83-0.04,26.74-0.05c4.24-0.01,8.65-0.37,12.88-0.03c2.02,0.16,4.71-0.74,5.95,2.03c0.34,0.77,0.19,2.2,0.23,3.04
					c0.1,2.26,0.1,4.53,0.13,6.8c0.44,35.58-2.37,71.26,1.14,106.75c0.36,3.67,0.8,7.33,1.3,10.98c0.36,2.59,1.4,4.94-0.42,6.96
					c-1.96,2.17-5.32,1.48-8.15,1.6c-8.91,0.36-17.82,0.73-26.73,1.09c-17.96,0.73-35.97,1.91-53.95,1.62
					c-9.76-0.16-19.34-1.41-29.05-2.15c-10.16-0.77-19.95,1.12-30.01,2.1c-20.22,1.98-40.53-0.18-60.65-2.32c0.5,0.5,1,1,1.5,1.5
					C-82.44,98.47-84.41,52-84.81,5.5C-84.83,3.57-87.83,3.56-87.81,5.5L-87.81,5.5z"/>
			</g>
		</g>
		<text transform="matrix(0.8526 0 0 1 -74.0005 95.0732)" class="st2 st3">SEJONG</text>
	</g>
</g>
<g>
	<defs>
		<rect id="SVGID_7_" x="35" width="15" height="150"/>
	</defs>
	<clipPath id="SVGID_8_">
		<use xlink:href="#SVGID_7_"  style="overflow:visible;"/>
	</clipPath>
	<g class="st6">
		<g>
			<rect x="-70" y="0" class="st1" width="225" height="150"/>
		</g>
		<g>
			<g>
				<path d="M-67.81,5.5c0.4,46.5,2.37,92.97,5.92,139.34c0.07,0.88,0.64,1.41,1.5,1.5c19.15,2.04,38.45,4.09,57.72,2.57
					c9.38-0.74,18.67-2.79,28.11-2.61c9.7,0.18,19.32,1.93,29.02,2.28c18.92,0.68,37.93-0.65,56.83-1.42
					c9.9-0.4,19.8-0.81,29.7-1.21c5.37-0.22,11.83,0.62,11.32-6.49c-0.67-9.21-2.37-18.33-2.96-27.58
					c-0.61-9.67-0.83-19.37-0.85-29.06c-0.04-18.8,0.65-37.59,0.69-56.4c0.01-4.53-0.02-9.07-0.11-13.6
					c-0.06-2.87,0.44-6.85-1.67-9.18c-1.49-1.64-3.52-1.71-5.59-1.81c-4.92-0.24-9.93,0.02-14.86,0.03
					C107.48,1.9,88,1.94,68.52,1.98C24.93,2.08-18.66,2.16-62.24,2.25c-1.93,0-1.93,3,0,3C-26.25,5.18,9.74,5.1,45.73,5.03
					c18.16-0.04,36.32-0.07,54.48-0.11c8.91-0.02,17.83-0.04,26.74-0.05c4.24-0.01,8.65-0.37,12.88-0.03
					c2.02,0.16,4.71-0.74,5.95,2.03c0.34,0.77,0.19,2.2,0.23,3.04c0.1,2.26,0.1,4.53,0.13,6.8c0.44,35.58-2.37,71.26,1.14,106.75
					c0.36,3.67,0.8,7.33,1.3,10.98c0.36,2.59,1.4,4.94-0.42,6.96c-1.96,2.17-5.32,1.48-8.15,1.6c-8.91,0.36-17.82,0.73-26.73,1.09
					c-17.96,0.73-35.97,1.91-53.95,1.62c-9.76-0.16-19.34-1.41-29.05-2.15c-10.16-0.77-19.95,1.12-30.01,2.1
					c-20.22,1.98-40.53-0.18-60.65-2.32c0.5,0.5,1,1,1.5,1.5C-62.44,98.47-64.41,52-64.81,5.5C-64.83,3.57-67.83,3.56-67.81,5.5
					L-67.81,5.5z"/>
			</g>
		</g>
		<text transform="matrix(0.8526 0 0 1 -54.0005 95.0732)" class="st2 st3">SEJONG</text>
	</g>
</g>
</svg>
