<?xml version="1.0" encoding="utf-8"?>
<!-- Generator: Adobe Illustrator 23.0.0, SVG Export Plug-In . SVG Version: 6.00 Build 0)  -->
<svg version="1.1" id="Layer_1" xmlns="http://www.w3.org/2000/svg" xmlns:xlink="http://www.w3.org/1999/xlink" x="0px" y="0px"
	 viewBox="0 0 15 150" style="enable-background:new 0 0 15 150;" xml:space="preserve">
<style type="text/css">
	.st0{clip-path:url(#SVGID_2_);}
	.st1{fill:#FFFFFF;}
	.st2{clip-path:url(#SVGID_4_);}
	.st3{clip-path:url(#SVGID_6_);}
	.st4{clip-path:url(#SVGID_8_);}
	.st5{clip-path:url(#SVGID_10_);}
	.st6{clip-path:url(#SVGID_12_);}
	.st7{clip-path:url(#SVGID_14_);}
	.st8{clip-path:url(#SVGID_16_);}
	.st9{clip-path:url(#SVGID_18_);}
	.st10{clip-path:url(#SVGID_20_);}
	.st11{clip-path:url(#SVGID_22_);}
	.st12{clip-path:url(#SVGID_24_);}
	.st13{clip-path:url(#SVGID_26_);}
	.st14{clip-path:url(#SVGID_28_);}
	.st15{font-family:'Sketch3D';}
	.st16{font-size:57.0771px;}
	.st17{clip-path:url(#SVGID_30_);}
</style>
<g>
	<defs>
		<rect id="SVGID_25_" x="35" width="15" height="150"/>
	</defs>
	<clipPath id="SVGID_2_">
		<use xlink:href="#SVGID_25_"  style="overflow:visible;"/>
	</clipPath>
	<g class="st0">
		<g>
			<rect x="5" y="0" class="st1" width="225" height="150"/>
		</g>
		<g>
			<g>
				<path d="M7.19,5.5c0.4,46.5,2.37,92.97,5.92,139.34c0.07,0.88,0.64,1.41,1.5,1.5c19.15,2.04,38.45,4.09,57.72,2.57
					c9.38-0.74,18.67-2.79,28.11-2.61c9.7,0.18,19.32,1.93,29.02,2.28c18.92,0.68,37.93-0.65,56.83-1.42
					c9.9-0.4,19.8-0.81,29.7-1.21c5.37-0.22,11.83,0.62,11.32-6.49c-0.67-9.21-2.37-18.33-2.96-27.58
					c-0.61-9.67-0.83-19.37-0.85-29.06c-0.04-18.8,0.65-37.59,0.69-56.4c0.01-4.53-0.02-9.07-0.11-13.6
					c-0.06-2.87,0.44-6.85-1.67-9.18c-1.49-1.64-3.52-1.71-5.59-1.81c-4.92-0.24-9.93,0.02-14.86,0.03
					C182.48,1.9,163,1.94,143.52,1.98C99.93,2.08,56.34,2.16,12.76,2.25c-1.93,0-1.93,3,0,3C48.75,5.18,84.74,5.1,120.73,5.03
					c18.16-0.04,36.32-0.07,54.48-0.11c8.91-0.02,17.83-0.04,26.74-0.05c4.24-0.01,8.65-0.37,12.88-0.03
					c2.02,0.16,4.71-0.74,5.95,2.03c0.34,0.77,0.19,2.2,0.23,3.04c0.1,2.26,0.1,4.53,0.13,6.8c0.44,35.58-2.37,71.26,1.14,106.75
					c0.36,3.67,0.8,7.33,1.3,10.98c0.36,2.59,1.4,4.94-0.42,6.96c-1.96,2.17-5.32,1.48-8.15,1.6c-8.91,0.36-17.82,0.73-26.73,1.09
					c-17.96,0.73-35.97,1.91-53.95,1.62c-9.76-0.16-19.34-1.41-29.05-2.15c-10.16-0.77-19.95,1.12-30.01,2.1
					c-20.22,1.98-40.53-0.18-60.65-2.32c0.5,0.5,1,1,1.5,1.5C12.56,98.47,10.59,52,10.19,5.5C10.17,3.57,7.17,3.56,7.19,5.5
					L7.19,5.5z"/>
			</g>
		</g>
	</g>
</g>
<g>
	<defs>
		<rect id="SVGID_27_" width="15" height="150"/>
	</defs>
	<clipPath id="SVGID_4_">
		<use xlink:href="#SVGID_27_"  style="overflow:visible;"/>
	</clipPath>
	<g class="st2">
		<g>
			<rect x="-15" y="0" class="st1" width="225" height="150"/>
		</g>
		<g>
			<g>
				<path d="M-12.81,5.5c0.4,46.5,2.37,92.97,5.92,139.34c0.07,0.88,0.64,1.41,1.5,1.5c19.15,2.04,38.45,4.09,57.72,2.57
					c9.38-0.74,18.67-2.79,28.11-2.61c9.7,0.18,19.32,1.93,29.02,2.28c18.92,0.68,37.93-0.65,56.83-1.42
					c9.9-0.4,19.8-0.81,29.7-1.21c5.37-0.22,11.83,0.62,11.32-6.49c-0.67-9.21-2.37-18.33-2.96-27.58
					c-0.61-9.67-0.83-19.37-0.85-29.06c-0.04-18.8,0.65-37.59,0.69-56.4c0.01-4.53-0.02-9.07-0.11-13.6
					c-0.06-2.87,0.44-6.85-1.67-9.18c-1.49-1.64-3.52-1.71-5.59-1.81c-4.92-0.24-9.93,0.02-14.86,0.03
					C162.48,1.9,143,1.94,123.52,1.98C79.93,2.08,36.34,2.16-7.24,2.25c-1.93,0-1.93,3,0,3C28.75,5.18,64.74,5.1,100.73,5.03
					c18.16-0.04,36.32-0.07,54.48-0.11c8.91-0.02,17.83-0.04,26.74-0.05c4.24-0.01,8.65-0.37,12.88-0.03
					c2.02,0.16,4.71-0.74,5.95,2.03c0.34,0.77,0.19,2.2,0.23,3.04c0.1,2.26,0.1,4.53,0.13,6.8c0.44,35.58-2.37,71.26,1.14,106.75
					c0.36,3.67,0.8,7.33,1.3,10.98c0.36,2.59,1.4,4.94-0.42,6.96c-1.96,2.17-5.32,1.48-8.15,1.6c-8.91,0.36-17.82,0.73-26.73,1.09
					c-17.96,0.73-35.97,1.91-53.95,1.62c-9.76-0.16-19.34-1.41-29.05-2.15c-10.16-0.77-19.95,1.12-30.01,2.1
					c-20.22,1.98-40.53-0.18-60.65-2.32c0.5,0.5,1,1,1.5,1.5C-7.44,98.47-9.41,52-9.81,5.5C-9.83,3.57-12.83,3.56-12.81,5.5
					L-12.81,5.5z"/>
			</g>
		</g>
		<text transform="matrix(0.8526 0 0 1 0.9996 95.0732)" class="st15 st16">SEJONG</text>
	</g>
</g>
<g>
	<defs>
		<rect id="SVGID_29_" x="-35" width="15" height="150"/>
	</defs>
	<clipPath id="SVGID_6_">
		<use xlink:href="#SVGID_29_"  style="overflow:visible;"/>
	</clipPath>
	<g class="st3">
		<g>
			<rect x="-35" class="st1" width="225" height="150"/>
		</g>
		<g>
			<g>
				<path d="M-32.81,5.5c0.4,46.5,2.37,92.97,5.92,139.34c0.07,0.88,0.64,1.41,1.5,1.5c19.15,2.04,38.45,4.09,57.72,2.57
					c9.38-0.74,18.67-2.79,28.11-2.61c9.7,0.18,19.32,1.93,29.02,2.28c18.92,0.68,37.93-0.65,56.83-1.42
					c9.9-0.4,19.8-0.81,29.7-1.21c5.37-0.22,11.83,0.62,11.32-6.49c-0.67-9.21-2.37-18.33-2.96-27.58
					c-0.61-9.67-0.83-19.37-0.85-29.06c-0.04-18.8,0.65-37.59,0.69-56.4c0.01-4.53-0.02-9.07-0.11-13.6
					c-0.06-2.87,0.44-6.85-1.67-9.18c-1.49-1.64-3.52-1.71-5.59-1.81c-4.92-0.24-9.93,0.02-14.86,0.03
					C142.48,1.9,123,1.94,103.52,1.98C59.93,2.08,16.34,2.16-27.24,2.25c-1.93,0-1.93,3,0,3C8.75,5.18,44.74,5.1,80.73,5.03
					c18.16-0.04,36.32-0.07,54.48-0.11c8.91-0.02,17.83-0.04,26.74-0.05c4.24-0.01,8.65-0.37,12.88-0.03
					c2.02,0.16,4.71-0.74,5.95,2.03c0.34,0.77,0.19,2.2,0.23,3.04c0.1,2.26,0.1,4.53,0.13,6.8c0.44,35.58-2.37,71.26,1.14,106.75
					c0.36,3.67,0.8,7.33,1.3,10.98c0.36,2.59,1.4,4.94-0.42,6.96c-1.96,2.17-5.32,1.48-8.15,1.6c-8.91,0.36-17.82,0.73-26.73,1.09
					c-17.96,0.73-35.97,1.91-53.95,1.62c-9.76-0.16-19.34-1.41-29.05-2.15c-10.16-0.77-19.95,1.12-30.01,2.1
					c-20.22,1.98-40.53-0.18-60.65-2.32c0.5,0.5,1,1,1.5,1.5C-27.44,98.47-29.41,52-29.81,5.5C-29.83,3.57-32.83,3.56-32.81,5.5
					L-32.81,5.5z"/>
			</g>
		</g>
		<text transform="matrix(0.8526 0 0 1 -19.0005 95.0733)" class="st15 st16">SEJONG</text>
	</g>
</g>
</svg>
