<?xml version="1.0" encoding="utf-8"?>
<!-- Generator: Adobe Illustrator 23.0.0, SVG Export Plug-In . SVG Version: 6.00 Build 0)  -->
<svg version="1.1" id="Layer_1" xmlns="http://www.w3.org/2000/svg" xmlns:xlink="http://www.w3.org/1999/xlink" x="0px" y="0px"
	 viewBox="0 0 15 150" style="enable-background:new 0 0 15 150;" xml:space="preserve">
<style type="text/css">
	.st0{clip-path:url(#SVGID_2_);}
	.st1{fill:#FFFFFF;}
	.st2{clip-path:url(#SVGID_4_);}
	.st3{clip-path:url(#SVGID_6_);}
	.st4{clip-path:url(#SVGID_8_);}
	.st5{clip-path:url(#SVGID_10_);}
	.st6{clip-path:url(#SVGID_12_);}
	.st7{clip-path:url(#SVGID_14_);}
	.st8{clip-path:url(#SVGID_16_);}
	.st9{clip-path:url(#SVGID_18_);}
	.st10{font-family:'Sketch3D';}
	.st11{font-size:57.0771px;}
	.st12{clip-path:url(#SVGID_20_);}
	.st13{clip-path:url(#SVGID_22_);}
	.st14{clip-path:url(#SVGID_24_);}
	.st15{clip-path:url(#SVGID_26_);}
	.st16{clip-path:url(#SVGID_28_);}
	.st17{clip-path:url(#SVGID_30_);}
</style>
<g>
	<defs>
		<rect id="SVGID_17_" x="-35" width="15" height="150"/>
	</defs>
	<clipPath id="SVGID_2_">
		<use xlink:href="#SVGID_17_"  style="overflow:visible;"/>
	</clipPath>
	<g class="st0">
		<g>
			<rect x="-215" y="0" class="st1" width="225" height="150"/>
		</g>
		<g>
			<g>
				<path d="M-212.81,5.5c0.4,46.5,2.37,92.97,5.92,139.34c0.07,0.88,0.64,1.41,1.5,1.5c19.15,2.04,38.45,4.09,57.72,2.57
					c9.38-0.74,18.67-2.79,28.11-2.61c9.7,0.18,19.32,1.93,29.02,2.28c18.92,0.68,37.93-0.65,56.83-1.42
					c9.9-0.4,19.8-0.81,29.7-1.21c5.37-0.22,11.83,0.62,11.32-6.49c-0.67-9.21-2.37-18.33-2.96-27.58
					c-0.61-9.67-0.83-19.37-0.85-29.06c-0.04-18.8,0.65-37.59,0.69-56.4c0.01-4.53-0.02-9.07-0.11-13.6
					C4.02,9.95,4.52,5.97,2.41,3.64C0.92,2-1.11,1.93-3.18,1.83c-4.92-0.24-9.93,0.02-14.86,0.03C-37.52,1.9-57,1.94-76.48,1.98
					c-43.59,0.1-87.18,0.18-130.76,0.27c-1.93,0-1.93,3,0,3c35.99-0.07,71.98-0.15,107.97-0.22c18.16-0.04,36.32-0.07,54.48-0.11
					c8.91-0.02,17.83-0.04,26.74-0.05C-13.81,4.86-9.4,4.5-5.17,4.84C-3.15,5-0.46,4.1,0.78,6.87c0.34,0.77,0.19,2.2,0.23,3.04
					c0.1,2.26,0.1,4.53,0.13,6.8c0.44,35.58-2.37,71.26,1.14,106.75c0.36,3.67,0.8,7.33,1.3,10.98c0.36,2.59,1.4,4.94-0.42,6.96
					c-1.96,2.17-5.32,1.48-8.15,1.6c-8.91,0.36-17.82,0.73-26.73,1.09c-17.96,0.73-35.97,1.91-53.95,1.62
					c-9.76-0.16-19.34-1.41-29.05-2.15c-10.16-0.77-19.95,1.12-30.01,2.1c-20.22,1.98-40.53-0.18-60.65-2.32c0.5,0.5,1,1,1.5,1.5
					c-3.56-46.37-5.53-92.84-5.93-139.34C-209.83,3.57-212.83,3.56-212.81,5.5L-212.81,5.5z"/>
			</g>
		</g>
		<text transform="matrix(0.8526 0 0 1 -199.0004 95.0733)" class="st10 st11">SEJONG</text>
	</g>
</g>
<g>
	<defs>
		<rect id="SVGID_19_" width="15" height="150"/>
	</defs>
	<clipPath id="SVGID_4_">
		<use xlink:href="#SVGID_19_"  style="overflow:visible;"/>
	</clipPath>
	<g class="st2">
		<g>
			<rect x="-195" y="0" class="st1" width="225" height="150"/>
		</g>
		<g>
			<g>
				<path d="M-192.81,5.5c0.4,46.5,2.37,92.97,5.92,139.34c0.07,0.88,0.64,1.41,1.5,1.5c19.15,2.04,38.45,4.09,57.72,2.57
					c9.38-0.74,18.67-2.79,28.11-2.61c9.7,0.18,19.32,1.93,29.02,2.28c18.92,0.68,37.93-0.65,56.83-1.42
					c9.9-0.4,19.8-0.81,29.7-1.21c5.37-0.22,11.83,0.62,11.32-6.49c-0.67-9.21-2.37-18.33-2.96-27.58
					c-0.61-9.67-0.83-19.37-0.85-29.06c-0.04-18.8,0.65-37.59,0.69-56.4c0.01-4.53-0.02-9.07-0.11-13.6
					c-0.06-2.87,0.44-6.85-1.67-9.18C20.92,2,18.89,1.93,16.82,1.83C11.9,1.59,6.89,1.85,1.96,1.86C-17.52,1.9-37,1.94-56.48,1.98
					c-43.59,0.1-87.18,0.18-130.76,0.27c-1.93,0-1.93,3,0,3c35.99-0.07,71.98-0.15,107.97-0.22c18.16-0.04,36.32-0.07,54.48-0.11
					C-15.88,4.9-6.96,4.88,1.95,4.87C6.19,4.86,10.6,4.5,14.83,4.84C16.85,5,19.54,4.1,20.78,6.87c0.34,0.77,0.19,2.2,0.23,3.04
					c0.1,2.26,0.1,4.53,0.13,6.8c0.44,35.58-2.37,71.26,1.14,106.75c0.36,3.67,0.8,7.33,1.3,10.98c0.36,2.59,1.4,4.94-0.42,6.96
					c-1.96,2.17-5.32,1.48-8.15,1.6c-8.91,0.36-17.82,0.73-26.73,1.09c-17.96,0.73-35.97,1.91-53.95,1.62
					c-9.76-0.16-19.34-1.41-29.05-2.15c-10.16-0.77-19.95,1.12-30.01,2.1c-20.22,1.98-40.53-0.18-60.65-2.32c0.5,0.5,1,1,1.5,1.5
					c-3.56-46.37-5.53-92.84-5.93-139.34C-189.83,3.57-192.83,3.56-192.81,5.5L-192.81,5.5z"/>
			</g>
		</g>
		<text transform="matrix(0.8526 0 0 1 -179.0005 95.0732)" class="st10 st11">SEJONG</text>
	</g>
</g>
<g>
	<defs>
		<rect id="SVGID_21_" x="35" width="15" height="150"/>
	</defs>
	<clipPath id="SVGID_6_">
		<use xlink:href="#SVGID_21_"  style="overflow:visible;"/>
	</clipPath>
	<g class="st3">
		<g>
			<rect x="-175" y="0" class="st1" width="225" height="150"/>
		</g>
		<g>
			<g>
				<path d="M-172.81,5.5c0.4,46.5,2.37,92.97,5.92,139.34c0.07,0.88,0.64,1.41,1.5,1.5c19.15,2.04,38.45,4.09,57.72,2.57
					c9.38-0.74,18.67-2.79,28.11-2.61c9.7,0.18,19.32,1.93,29.02,2.28c18.92,0.68,37.93-0.65,56.83-1.42
					c9.9-0.4,19.8-0.81,29.7-1.21c5.37-0.22,11.83,0.62,11.32-6.49c-0.67-9.21-2.37-18.33-2.96-27.58
					c-0.61-9.67-0.83-19.37-0.85-29.06c-0.04-18.8,0.65-37.59,0.69-56.4c0.01-4.53-0.02-9.07-0.11-13.6
					c-0.06-2.87,0.44-6.85-1.67-9.18C40.92,2,38.89,1.93,36.82,1.83c-4.92-0.24-9.93,0.02-14.86,0.03C2.48,1.9-17,1.94-36.48,1.98
					c-43.59,0.1-87.18,0.18-130.76,0.27c-1.93,0-1.93,3,0,3c35.99-0.07,71.98-0.15,107.97-0.22c18.16-0.04,36.32-0.07,54.48-0.11
					C4.12,4.9,13.04,4.88,21.95,4.87c4.24-0.01,8.65-0.37,12.88-0.03C36.85,5,39.54,4.1,40.78,6.87c0.34,0.77,0.19,2.2,0.23,3.04
					c0.1,2.26,0.1,4.53,0.13,6.8c0.44,35.58-2.37,71.26,1.14,106.75c0.36,3.67,0.8,7.33,1.3,10.98c0.36,2.59,1.4,4.94-0.42,6.96
					c-1.96,2.17-5.32,1.48-8.15,1.6c-8.91,0.36-17.82,0.73-26.73,1.09c-17.96,0.73-35.97,1.91-53.95,1.62
					c-9.76-0.16-19.34-1.41-29.05-2.15c-10.16-0.77-19.95,1.12-30.01,2.1c-20.22,1.98-40.53-0.18-60.65-2.32c0.5,0.5,1,1,1.5,1.5
					c-3.56-46.37-5.53-92.84-5.93-139.34C-169.83,3.57-172.83,3.56-172.81,5.5L-172.81,5.5z"/>
			</g>
		</g>
		<text transform="matrix(0.8526 0 0 1 -159.0004 95.0732)" class="st10 st11">SEJONG</text>
	</g>
</g>
</svg>
