<?xml version="1.0" encoding="utf-8"?>
<!-- Generator: Adobe Illustrator 23.0.0, SVG Export Plug-In . SVG Version: 6.00 Build 0)  -->
<svg version="1.1" id="Layer_1" xmlns="http://www.w3.org/2000/svg" xmlns:xlink="http://www.w3.org/1999/xlink" x="0px" y="0px"
	 viewBox="0 0 15 150" style="enable-background:new 0 0 15 150;" xml:space="preserve">
<style type="text/css">
	.st0{clip-path:url(#SVGID_2_);}
	.st1{fill:#FFFFFF;}
	.st2{clip-path:url(#SVGID_4_);}
	.st3{clip-path:url(#SVGID_6_);}
	.st4{clip-path:url(#SVGID_8_);}
	.st5{clip-path:url(#SVGID_10_);}
	.st6{clip-path:url(#SVGID_12_);}
	.st7{clip-path:url(#SVGID_14_);}
	.st8{clip-path:url(#SVGID_16_);}
	.st9{clip-path:url(#SVGID_18_);}
	.st10{clip-path:url(#SVGID_20_);}
	.st11{clip-path:url(#SVGID_22_);}
	.st12{clip-path:url(#SVGID_24_);}
	.st13{font-family:'Sketch3D';}
	.st14{font-size:57.0771px;}
	.st15{clip-path:url(#SVGID_26_);}
	.st16{clip-path:url(#SVGID_28_);}
	.st17{clip-path:url(#SVGID_30_);}
</style>
<g>
	<defs>
		<rect id="SVGID_23_" x="35" width="15" height="150"/>
	</defs>
	<clipPath id="SVGID_2_">
		<use xlink:href="#SVGID_23_"  style="overflow:visible;"/>
	</clipPath>
	<g class="st0">
		<g>
			<rect x="-10" y="0" class="st1" width="225" height="150"/>
		</g>
		<g>
			<g>
				<path d="M-7.81,5.5c0.4,46.5,2.37,92.97,5.92,139.34c0.07,0.88,0.64,1.41,1.5,1.5c19.15,2.04,38.45,4.09,57.72,2.57
					c9.38-0.74,18.67-2.79,28.11-2.61c9.7,0.18,19.32,1.93,29.02,2.28c18.92,0.68,37.93-0.65,56.83-1.42
					c9.9-0.4,19.8-0.81,29.7-1.21c5.37-0.22,11.83,0.62,11.32-6.49c-0.67-9.21-2.37-18.33-2.96-27.58
					c-0.61-9.67-0.83-19.37-0.85-29.06c-0.04-18.8,0.65-37.59,0.69-56.4c0.01-4.53-0.02-9.07-0.11-13.6
					c-0.06-2.87,0.44-6.85-1.67-9.18c-1.49-1.64-3.52-1.71-5.59-1.81c-4.92-0.24-9.93,0.02-14.86,0.03
					C167.48,1.9,148,1.94,128.52,1.98C84.93,2.08,41.34,2.16-2.24,2.25c-1.93,0-1.93,3,0,3C33.75,5.18,69.74,5.1,105.73,5.03
					c18.16-0.04,36.32-0.07,54.48-0.11c8.91-0.02,17.83-0.04,26.74-0.05c4.24-0.01,8.65-0.37,12.88-0.03
					c2.02,0.16,4.71-0.74,5.95,2.03c0.34,0.77,0.19,2.2,0.23,3.04c0.1,2.26,0.1,4.53,0.13,6.8c0.44,35.58-2.37,71.26,1.14,106.75
					c0.36,3.67,0.8,7.33,1.3,10.98c0.36,2.59,1.4,4.94-0.42,6.96c-1.96,2.17-5.32,1.48-8.15,1.6c-8.91,0.36-17.82,0.73-26.73,1.09
					c-17.96,0.73-35.97,1.91-53.95,1.62c-9.76-0.16-19.34-1.41-29.05-2.15c-10.16-0.77-19.95,1.12-30.01,2.1
					c-20.22,1.98-40.53-0.18-60.65-2.32c0.5,0.5,1,1,1.5,1.5C-2.44,98.47-4.41,52-4.81,5.5C-4.83,3.57-7.83,3.56-7.81,5.5L-7.81,5.5
					z"/>
			</g>
		</g>
		<text transform="matrix(0.8526 0 0 1 5.9995 95.0733)" class="st13 st14">SEJONG</text>
	</g>
</g>
<g>
	<defs>
		<rect id="SVGID_25_" width="15" height="150"/>
	</defs>
	<clipPath id="SVGID_4_">
		<use xlink:href="#SVGID_25_"  style="overflow:visible;"/>
	</clipPath>
	<g class="st2">
		<g>
			<rect x="-30" y="0" class="st1" width="225" height="150"/>
		</g>
		<g>
			<g>
				<path d="M-27.81,5.5c0.4,46.5,2.37,92.97,5.92,139.34c0.07,0.88,0.64,1.41,1.5,1.5c19.15,2.04,38.45,4.09,57.72,2.57
					c9.38-0.74,18.67-2.79,28.11-2.61c9.7,0.18,19.32,1.93,29.02,2.28c18.92,0.68,37.93-0.65,56.83-1.42
					c9.9-0.4,19.8-0.81,29.7-1.21c5.37-0.22,11.83,0.62,11.32-6.49c-0.67-9.21-2.37-18.33-2.96-27.58
					c-0.61-9.67-0.83-19.37-0.85-29.06c-0.04-18.8,0.65-37.59,0.69-56.4c0.01-4.53-0.02-9.07-0.11-13.6
					c-0.06-2.87,0.44-6.85-1.67-9.18c-1.49-1.64-3.52-1.71-5.59-1.81c-4.92-0.24-9.93,0.02-14.86,0.03
					C147.48,1.9,128,1.94,108.52,1.98C64.93,2.08,21.34,2.16-22.24,2.25c-1.93,0-1.93,3,0,3C13.75,5.18,49.74,5.1,85.73,5.03
					c18.16-0.04,36.32-0.07,54.48-0.11c8.91-0.02,17.83-0.04,26.74-0.05c4.24-0.01,8.65-0.37,12.88-0.03
					c2.02,0.16,4.71-0.74,5.95,2.03c0.34,0.77,0.19,2.2,0.23,3.04c0.1,2.26,0.1,4.53,0.13,6.8c0.44,35.58-2.37,71.26,1.14,106.75
					c0.36,3.67,0.8,7.33,1.3,10.98c0.36,2.59,1.4,4.94-0.42,6.96c-1.96,2.17-5.32,1.48-8.15,1.6c-8.91,0.36-17.82,0.73-26.73,1.09
					c-17.96,0.73-35.97,1.91-53.95,1.62c-9.76-0.16-19.34-1.41-29.05-2.15c-10.16-0.77-19.95,1.12-30.01,2.1
					c-20.22,1.98-40.53-0.18-60.65-2.32c0.5,0.5,1,1,1.5,1.5C-22.44,98.47-24.41,52-24.81,5.5C-24.83,3.57-27.83,3.56-27.81,5.5
					L-27.81,5.5z"/>
			</g>
		</g>
		<text transform="matrix(0.8526 0 0 1 -14.0005 95.0732)" class="st13 st14">SEJONG</text>
	</g>
</g>
<g>
	<defs>
		<rect id="SVGID_27_" x="-35" width="15" height="150"/>
	</defs>
	<clipPath id="SVGID_6_">
		<use xlink:href="#SVGID_27_"  style="overflow:visible;"/>
	</clipPath>
	<g class="st3">
		<g>
			<rect x="-50" y="0" class="st1" width="225" height="150"/>
		</g>
		<g>
			<g>
				<path d="M-47.81,5.5c0.4,46.5,2.37,92.97,5.92,139.34c0.07,0.88,0.64,1.41,1.5,1.5c19.15,2.04,38.45,4.09,57.72,2.57
					c9.38-0.74,18.67-2.79,28.11-2.61c9.7,0.18,19.32,1.93,29.02,2.28c18.92,0.68,37.93-0.65,56.83-1.42
					c9.9-0.4,19.8-0.81,29.7-1.21c5.37-0.22,11.83,0.62,11.32-6.49c-0.67-9.21-2.37-18.33-2.96-27.58
					c-0.61-9.67-0.83-19.37-0.85-29.06c-0.04-18.8,0.65-37.59,0.69-56.4c0.01-4.53-0.02-9.07-0.11-13.6
					c-0.06-2.87,0.44-6.85-1.67-9.18c-1.49-1.64-3.52-1.71-5.59-1.81c-4.92-0.24-9.93,0.02-14.86,0.03
					C127.48,1.9,108,1.94,88.52,1.98C44.93,2.08,1.34,2.16-42.24,2.25c-1.93,0-1.93,3,0,3C-6.25,5.18,29.74,5.1,65.73,5.03
					c18.16-0.04,36.32-0.07,54.48-0.11c8.91-0.02,17.83-0.04,26.74-0.05c4.24-0.01,8.65-0.37,12.88-0.03
					c2.02,0.16,4.71-0.74,5.95,2.03c0.34,0.77,0.19,2.2,0.23,3.04c0.1,2.26,0.1,4.53,0.13,6.8c0.44,35.58-2.37,71.26,1.14,106.75
					c0.36,3.67,0.8,7.33,1.3,10.98c0.36,2.59,1.4,4.94-0.42,6.96c-1.96,2.17-5.32,1.48-8.15,1.6c-8.91,0.36-17.82,0.73-26.73,1.09
					c-17.96,0.73-35.97,1.91-53.95,1.62c-9.76-0.16-19.34-1.41-29.05-2.15c-10.16-0.77-19.95,1.12-30.01,2.1
					c-20.22,1.98-40.53-0.18-60.65-2.32c0.5,0.5,1,1,1.5,1.5C-42.44,98.47-44.41,52-44.81,5.5C-44.83,3.57-47.83,3.56-47.81,5.5
					L-47.81,5.5z"/>
			</g>
		</g>
		<text transform="matrix(0.8526 0 0 1 -34.0004 95.0732)" class="st13 st14">SEJONG</text>
	</g>
</g>
<g>
	<defs>
		<rect id="SVGID_29_" x="-70" width="15" height="150"/>
	</defs>
	<clipPath id="SVGID_8_">
		<use xlink:href="#SVGID_29_"  style="overflow:visible;"/>
	</clipPath>
	<g class="st4">
		<g>
			<rect x="-70" class="st1" width="225" height="150"/>
		</g>
		<g>
			<g>
				<path d="M-67.81,5.5c0.4,46.5,2.37,92.97,5.92,139.34c0.07,0.88,0.64,1.41,1.5,1.5c19.15,2.04,38.45,4.09,57.72,2.57
					c9.38-0.74,18.67-2.79,28.11-2.61c9.7,0.18,19.32,1.93,29.02,2.28c18.92,0.68,37.93-0.65,56.83-1.42
					c9.9-0.4,19.8-0.81,29.7-1.21c5.37-0.22,11.83,0.62,11.32-6.49c-0.67-9.21-2.37-18.33-2.96-27.58
					c-0.61-9.67-0.83-19.37-0.85-29.06c-0.04-18.8,0.65-37.59,0.69-56.4c0.01-4.53-0.02-9.07-0.11-13.6
					c-0.06-2.87,0.44-6.85-1.67-9.18c-1.49-1.64-3.52-1.71-5.59-1.81c-4.92-0.24-9.93,0.02-14.86,0.03
					C107.48,1.9,88,1.94,68.52,1.98C24.93,2.08-18.66,2.16-62.24,2.25c-1.93,0-1.93,3,0,3C-26.25,5.18,9.74,5.1,45.73,5.03
					c18.16-0.04,36.32-0.07,54.48-0.11c8.91-0.02,17.83-0.04,26.74-0.05c4.24-0.01,8.65-0.37,12.88-0.03
					c2.02,0.16,4.71-0.74,5.95,2.03c0.34,0.77,0.19,2.2,0.23,3.04c0.1,2.26,0.1,4.53,0.13,6.8c0.44,35.58-2.37,71.26,1.14,106.75
					c0.36,3.67,0.8,7.33,1.3,10.98c0.36,2.59,1.4,4.94-0.42,6.96c-1.96,2.17-5.32,1.48-8.15,1.6c-8.91,0.36-17.82,0.73-26.73,1.09
					c-17.96,0.73-35.97,1.91-53.95,1.62c-9.76-0.16-19.34-1.41-29.05-2.15c-10.16-0.77-19.95,1.12-30.01,2.1
					c-20.22,1.98-40.53-0.18-60.65-2.32c0.5,0.5,1,1,1.5,1.5C-62.44,98.47-64.41,52-64.81,5.5C-64.83,3.57-67.83,3.56-67.81,5.5
					L-67.81,5.5z"/>
			</g>
		</g>
		<text transform="matrix(0.8526 0 0 1 -54.0005 95.0733)" class="st13 st14">SEJONG</text>
	</g>
</g>
</svg>
