<?xml version="1.0" encoding="utf-8"?>
<!-- Generator: Adobe Illustrator 23.0.0, SVG Export Plug-In . SVG Version: 6.00 Build 0)  -->
<svg version="1.1" id="Layer_1" xmlns="http://www.w3.org/2000/svg" xmlns:xlink="http://www.w3.org/1999/xlink" x="0px" y="0px"
	 viewBox="0 0 225 150" style="enable-background:new 0 0 225 150;" xml:space="preserve">
<style type="text/css">
	.st0{fill:#FFFFFF;}
	.st1{font-family:'Napolitana';}
	.st2{font-size:80.8035px;}
	.st3{fill:#FFFFFF;stroke:#FF1400;stroke-miterlimit:10;}
	.st4{clip-path:url(#SVGID_2_);}
	.st5{clip-path:url(#SVGID_4_);}
	.st6{clip-path:url(#SVGID_6_);}
	.st7{clip-path:url(#SVGID_8_);}
	.st8{clip-path:url(#SVGID_10_);}
	.st9{clip-path:url(#SVGID_12_);}
	.st10{clip-path:url(#SVGID_14_);}
	.st11{clip-path:url(#SVGID_16_);}
	.st12{clip-path:url(#SVGID_18_);}
	.st13{clip-path:url(#SVGID_20_);}
	.st14{clip-path:url(#SVGID_22_);}
	.st15{clip-path:url(#SVGID_24_);}
	.st16{clip-path:url(#SVGID_26_);}
	.st17{clip-path:url(#SVGID_28_);}
	.st18{clip-path:url(#SVGID_30_);}
</style>
<g>
	<g>
		<rect class="st0" width="225" height="150"/>
	</g>
	<g>
		<g>
			<path d="M3.4,4.1c0.2,25.3,0.3,50.6,0.5,75.8c0.1,12.6,0.2,25.3,0.3,37.9c0,6,0.1,12,0.1,18c0,3.6-0.1,7.4,2.9,10
				c2.4,2,5.7,2.5,8.7,2.6c6.1,0.2,12.2-0.4,18.3-0.6c12.5-0.4,25.1-0.6,37.6-0.7c24.8-0.2,49.5,0.2,74.3,1.1
				c22.7,0.9,47.1,4.4,69.4-1.1c3.1-0.8,6.1-1.9,7.2-5.1c1.4-4-1-9.6-1.8-13.6c-2.4-12.2-3.8-24.6-4.4-37.1c-1.2-24,0.4-48.1,3-72
				c0.4-3.5,2.1-8.7,0.4-12c-1.6-3.3-6.2-3-9.3-3.2c-12.3-1-24.6-1.4-37-1.5C118.3,2.4,63,9.4,7.8,4.2C5.8,4,5.8,7,7.8,7.2
				c44.8,4.2,89.7,0.4,134.6-1.1c22.7-0.8,45.5-0.9,68.2,0.9c3.5,0.3,6.1,1,6.8,4.7c0.4,2.2-0.6,5.3-0.9,7.5
				c-0.6,5.7-1.2,11.3-1.6,17c-0.9,10.7-1.5,21.5-1.7,32.2c-0.3,21.5,1.1,43.2,5.7,64.3c0.6,3,2.6,7.6-0.4,10
				c-1.7,1.4-5.2,1.6-7.3,2c-6,1.1-12.1,1.6-18.2,1.7c-10.7,0.3-21.3-0.3-32-0.8c-45.5-2.1-91.1-2.3-136.6-0.6
				c-6,0.2-15.2,2.3-16.9-5.6c-0.6-2.9-0.1-6.7-0.1-9.6c0-3,0-6-0.1-9c-0.1-13-0.2-25.9-0.3-38.9C6.7,56,6.5,30,6.4,4.1
				C6.3,2.2,3.3,2.1,3.4,4.1L3.4,4.1z"/>
		</g>
	</g>
	<text transform="matrix(0.6308 0 0 1 24.4463 75)" class="st1 st2">SEJONG</text>
</g>
<rect class="st3" width="15" height="150"/>
<rect x="15" y="0" class="st3" width="15" height="150"/>
<rect x="30" y="0" class="st3" width="15" height="150"/>
<rect x="45" y="0" class="st3" width="15" height="150"/>
<rect x="60" y="0" class="st3" width="15" height="150"/>
<rect x="75" y="0" class="st3" width="15" height="150"/>
<rect x="90" y="0" class="st3" width="15" height="150"/>
<rect x="105" y="0" class="st3" width="15" height="150"/>
<rect x="120" y="0" class="st3" width="15" height="150"/>
<rect x="135" y="0" class="st3" width="15" height="150"/>
<rect x="150" y="0" class="st3" width="15" height="150"/>
<rect x="165" y="0" class="st3" width="15" height="150"/>
<rect x="180" y="0" class="st3" width="15" height="150"/>
<rect x="195" y="0" class="st3" width="15" height="150"/>
<rect x="210" y="0" class="st3" width="15" height="150"/>
<g>
	<defs>
		<rect id="SVGID_1_" x="-347.3" y="325.4" width="15" height="150"/>
	</defs>
	<clipPath id="SVGID_2_">
		<use xlink:href="#SVGID_1_"  style="overflow:visible;"/>
	</clipPath>
	<g class="st4">
		<g>
			<rect x="-347.3" y="325.4" class="st0" width="225" height="150"/>
		</g>
		<g>
			<g>
				<path d="M-343.9,329.5c0.2,25.3,0.3,50.6,0.5,75.8c0.1,12.6,0.2,25.3,0.3,37.9c0,6,0.1,12,0.1,18c0,3.6-0.1,7.4,2.9,10
					c2.4,2,5.7,2.5,8.7,2.6c6.1,0.2,12.2-0.4,18.3-0.6c12.5-0.4,25.1-0.6,37.6-0.7c24.8-0.2,49.5,0.2,74.3,1.1
					c22.7,0.9,47.1,4.4,69.4-1.1c3.1-0.8,6.1-1.9,7.2-5.1c1.4-4-1-9.6-1.8-13.6c-2.4-12.2-3.8-24.6-4.4-37c-1.2-24,0.4-48.1,3-72
					c0.4-3.5,2.1-8.7,0.4-12c-1.6-3.3-6.2-3-9.3-3.2c-12.3-1-24.6-1.4-37-1.4c-55.3-0.2-110.6,6.9-165.8,1.6c-1.9-0.2-1.9,2.8,0,3
					c44.8,4.2,89.7,0.4,134.6-1.1c22.7-0.8,45.5-0.9,68.2,0.9c3.5,0.3,6.1,1,6.8,4.7c0.4,2.2-0.6,5.3-0.9,7.5
					c-0.6,5.7-1.2,11.3-1.6,17c-0.9,10.7-1.5,21.5-1.7,32.2c-0.3,21.5,1.1,43.2,5.7,64.3c0.6,3,2.6,7.6-0.4,10
					c-1.7,1.4-5.2,1.6-7.3,2c-6,1.1-12.1,1.6-18.2,1.7c-10.7,0.3-21.3-0.3-32-0.8c-45.5-2.1-91.1-2.3-136.6-0.6
					c-6,0.2-15.2,2.3-16.9-5.6c-0.6-2.9-0.1-6.7-0.1-9.6c0-3,0-6-0.1-9c-0.1-13-0.2-25.9-0.3-38.9c-0.2-25.9-0.4-51.9-0.5-77.8
					C-340.9,327.6-343.9,327.6-343.9,329.5L-343.9,329.5z"/>
			</g>
		</g>
		<text transform="matrix(0.6308 0 0 1 -322.8197 400.4468)" class="st1 st2">SEJONG</text>
	</g>
</g>
<g>
	<defs>
		<rect id="SVGID_3_" x="-285.7" y="310.1" width="15" height="150"/>
	</defs>
	<clipPath id="SVGID_4_">
		<use xlink:href="#SVGID_3_"  style="overflow:visible;"/>
	</clipPath>
	<g class="st5">
		<g>
			<rect x="-300.7" y="310.1" class="st0" width="225" height="150"/>
		</g>
		<g>
			<g>
				<path d="M-297.3,314.2c0.2,25.3,0.3,50.6,0.5,75.8c0.1,12.6,0.2,25.3,0.3,37.9c0,6,0.1,12,0.1,18c0,3.6-0.1,7.4,2.9,10
					c2.4,2,5.7,2.5,8.7,2.6c6.1,0.2,12.3-0.4,18.3-0.6c12.5-0.4,25.1-0.6,37.6-0.7c24.8-0.2,49.5,0.2,74.3,1.1
					c22.7,0.9,47.1,4.4,69.4-1.1c3.1-0.8,6.1-1.9,7.2-5.1c1.4-4-1-9.6-1.8-13.6c-2.4-12.2-3.8-24.6-4.4-37.1c-1.2-24,0.4-48.1,3-72
					c0.4-3.5,2.1-8.7,0.4-12c-1.6-3.3-6.2-3-9.3-3.2c-12.3-1-24.6-1.4-37-1.5c-55.3-0.2-110.5,6.9-165.8,1.6c-1.9-0.2-1.9,2.8,0,3
					c44.8,4.2,89.7,0.4,134.6-1.1c22.7-0.8,45.5-0.9,68.2,0.9c3.5,0.3,6.1,1,6.8,4.7c0.4,2.2-0.6,5.3-0.9,7.5
					c-0.6,5.7-1.2,11.3-1.6,17c-0.9,10.7-1.5,21.5-1.7,32.2c-0.3,21.5,1.1,43.2,5.7,64.3c0.6,3,2.6,7.5-0.4,10
					c-1.7,1.4-5.2,1.6-7.3,2c-6,1.1-12.1,1.5-18.2,1.7c-10.7,0.3-21.3-0.3-32-0.8c-45.5-2.1-91.1-2.3-136.6-0.6
					c-6,0.2-15.2,2.3-16.9-5.6c-0.6-2.9-0.1-6.7-0.1-9.6c0-3,0-6-0.1-9c-0.1-13-0.2-25.9-0.3-38.9c-0.2-25.9-0.4-51.9-0.5-77.8
					C-294.4,312.2-297.4,312.2-297.3,314.2L-297.3,314.2z"/>
			</g>
		</g>
		<text transform="matrix(0.6308 0 0 1 -276.2523 385.0851)" class="st1 st2">SEJONG</text>
	</g>
</g>
<g>
	<defs>
		<rect id="SVGID_5_" x="-232.5" y="325.4" width="15" height="150"/>
	</defs>
	<clipPath id="SVGID_6_">
		<use xlink:href="#SVGID_5_"  style="overflow:visible;"/>
	</clipPath>
	<g class="st6">
		<g>
			<rect x="-262.5" y="325.4" class="st0" width="225" height="150"/>
		</g>
		<g>
			<g>
				<path d="M-259.2,329.5c0.2,25.3,0.3,50.6,0.5,75.8c0.1,12.6,0.2,25.3,0.3,37.9c0,6,0.1,12,0.1,18c0,3.6-0.1,7.4,2.9,10
					c2.4,2,5.7,2.5,8.7,2.6c6.1,0.2,12.3-0.4,18.3-0.6c12.5-0.4,25.1-0.6,37.6-0.7c24.8-0.2,49.5,0.2,74.3,1.1
					c22.7,0.9,47.1,4.4,69.4-1.1c3.1-0.8,6.1-1.9,7.2-5.1c1.4-4-1-9.6-1.8-13.6c-2.4-12.2-3.8-24.6-4.4-37c-1.2-24,0.4-48.1,3-72
					c0.4-3.5,2.1-8.7,0.4-12c-1.6-3.3-6.2-3-9.3-3.2c-12.3-1-24.6-1.4-37-1.4c-55.3-0.2-110.6,6.9-165.8,1.6c-1.9-0.2-1.9,2.8,0,3
					c44.8,4.2,89.7,0.4,134.6-1.1c22.7-0.8,45.5-0.9,68.2,0.9c3.5,0.3,6.1,1,6.8,4.7c0.4,2.2-0.6,5.3-0.9,7.5
					c-0.6,5.7-1.2,11.3-1.6,17c-0.9,10.7-1.5,21.5-1.7,32.2c-0.3,21.5,1.1,43.2,5.7,64.3c0.6,3,2.6,7.6-0.4,10
					c-1.7,1.4-5.2,1.6-7.3,2c-6,1.1-12.1,1.6-18.2,1.7c-10.7,0.3-21.3-0.3-32-0.8c-45.5-2.1-91.1-2.3-136.6-0.6
					c-5.9,0.2-15.2,2.3-16.9-5.6c-0.6-2.9-0.1-6.7-0.1-9.6c0-3,0-6-0.1-9c-0.1-13-0.2-25.9-0.3-38.9c-0.2-25.9-0.4-51.9-0.5-77.8
					C-256.2,327.6-259.2,327.6-259.2,329.5L-259.2,329.5z"/>
			</g>
		</g>
		<text transform="matrix(0.6308 0 0 1 -238.0856 400.4468)" class="st1 st2">SEJONG</text>
	</g>
</g>
<g>
	<defs>
		<rect id="SVGID_7_" x="-175.7" y="310.1" width="15" height="150"/>
	</defs>
	<clipPath id="SVGID_8_">
		<use xlink:href="#SVGID_7_"  style="overflow:visible;"/>
	</clipPath>
	<g class="st7">
		<g>
			<rect x="-220.7" y="310.1" class="st0" width="225" height="150"/>
		</g>
		<g>
			<g>
				<path d="M-217.3,314.2c0.2,25.3,0.3,50.6,0.5,75.8c0.1,12.6,0.2,25.3,0.3,37.9c0,6,0.1,12,0.1,18c0,3.6-0.1,7.4,2.9,10
					c2.4,2,5.7,2.5,8.7,2.6c6.1,0.2,12.3-0.4,18.3-0.6c12.5-0.4,25.1-0.6,37.6-0.7c24.8-0.2,49.5,0.2,74.3,1.1
					c22.7,0.9,47.1,4.4,69.4-1.1c3.1-0.8,6.1-1.9,7.2-5.1c1.4-4-1-9.6-1.8-13.6c-2.4-12.2-3.8-24.6-4.4-37.1c-1.2-24,0.4-48.1,3-72
					c0.4-3.5,2.1-8.7,0.4-12c-1.6-3.3-6.2-3-9.3-3.2c-12.3-1-24.6-1.4-37-1.5c-55.3-0.2-110.5,6.9-165.8,1.6c-1.9-0.2-1.9,2.8,0,3
					c44.8,4.2,89.7,0.4,134.6-1.1c22.7-0.8,45.5-0.9,68.2,0.9c3.5,0.3,6.1,1,6.8,4.7c0.4,2.2-0.6,5.3-0.9,7.5
					c-0.6,5.7-1.2,11.3-1.6,17c-0.9,10.7-1.5,21.5-1.7,32.2c-0.3,21.5,1.1,43.2,5.7,64.3c0.6,3,2.6,7.5-0.4,10
					c-1.7,1.4-5.2,1.6-7.3,2c-6,1.1-12.1,1.5-18.2,1.7c-10.7,0.3-21.3-0.3-32-0.8c-45.5-2.1-91.1-2.3-136.6-0.6
					c-6,0.2-15.2,2.3-16.9-5.6c-0.6-2.9-0.1-6.7-0.1-9.6c0-3,0-6-0.1-9c-0.1-13-0.2-25.9-0.3-38.9c-0.2-25.9-0.4-51.9-0.5-77.8
					C-214.4,312.2-217.4,312.2-217.3,314.2L-217.3,314.2z"/>
			</g>
		</g>
		<text transform="matrix(0.6308 0 0 1 -196.2452 385.0851)" class="st1 st2">SEJONG</text>
	</g>
</g>
<g>
	<defs>
		<rect id="SVGID_9_" x="-120.5" y="325.4" width="15" height="150"/>
	</defs>
	<clipPath id="SVGID_10_">
		<use xlink:href="#SVGID_9_"  style="overflow:visible;"/>
	</clipPath>
	<g class="st8">
		<g>
			<rect x="-180.5" y="325.4" class="st0" width="225" height="150"/>
		</g>
		<g>
			<g>
				<path d="M-177.2,329.5c0.2,25.3,0.3,50.6,0.5,75.8c0.1,12.6,0.2,25.3,0.3,37.9c0,6,0.1,12,0.1,18c0,3.6-0.1,7.4,2.9,10
					c2.4,2,5.7,2.5,8.7,2.6c6.1,0.2,12.3-0.4,18.3-0.6c12.5-0.4,25.1-0.6,37.6-0.7c24.8-0.2,49.5,0.2,74.3,1.1
					c22.7,0.9,47.1,4.4,69.4-1.1c3.1-0.8,6.1-1.9,7.2-5.1c1.4-4-1-9.6-1.8-13.6c-2.4-12.2-3.8-24.6-4.4-37c-1.2-24,0.4-48.1,3-72
					c0.4-3.5,2.1-8.7,0.4-12c-1.6-3.3-6.2-3-9.3-3.2c-12.3-1-24.6-1.4-37-1.4c-55.3-0.2-110.6,6.9-165.8,1.6c-1.9-0.2-1.9,2.8,0,3
					c44.8,4.2,89.7,0.4,134.6-1.1c22.7-0.8,45.5-0.9,68.2,0.9c3.5,0.3,6.1,1,6.8,4.7c0.4,2.2-0.6,5.3-0.9,7.5
					c-0.6,5.7-1.2,11.3-1.6,17c-0.9,10.7-1.5,21.5-1.7,32.2c-0.3,21.5,1.1,43.2,5.7,64.3c0.6,3,2.6,7.6-0.4,10
					c-1.7,1.4-5.2,1.6-7.3,2c-6,1.1-12.1,1.6-18.2,1.7c-10.7,0.3-21.3-0.3-32-0.8c-45.5-2.1-91.1-2.3-136.6-0.6
					c-5.9,0.2-15.2,2.3-16.9-5.6c-0.6-2.9-0.1-6.7-0.1-9.6c0-3,0-6-0.1-9c-0.1-13-0.2-25.9-0.3-38.9c-0.2-25.9-0.4-51.9-0.5-77.8
					C-174.2,327.6-177.2,327.6-177.2,329.5L-177.2,329.5z"/>
			</g>
		</g>
		<text transform="matrix(0.6308 0 0 1 -156.0963 400.4468)" class="st1 st2">SEJONG</text>
	</g>
</g>
<g>
	<defs>
		<rect id="SVGID_11_" x="-70.1" y="325.4" width="15" height="150"/>
	</defs>
	<clipPath id="SVGID_12_">
		<use xlink:href="#SVGID_11_"  style="overflow:visible;"/>
	</clipPath>
	<g class="st9">
		<g>
			<rect x="-145.1" y="325.4" class="st0" width="225" height="150"/>
		</g>
		<g>
			<g>
				<path d="M-141.8,329.5c0.2,25.3,0.3,50.6,0.5,75.8c0.1,12.6,0.2,25.3,0.3,37.9c0,6,0.1,12,0.1,18c0,3.6-0.1,7.4,2.9,10
					c2.4,2,5.7,2.5,8.7,2.6c6.1,0.2,12.3-0.4,18.3-0.6c12.5-0.4,25.1-0.6,37.6-0.7c24.8-0.2,49.5,0.2,74.3,1.1
					c22.7,0.9,47.1,4.4,69.4-1.1c3.1-0.8,6.1-1.9,7.2-5.1c1.4-4-1-9.6-1.8-13.6c-2.4-12.2-3.8-24.6-4.4-37c-1.2-24,0.4-48.1,3-72
					c0.4-3.5,2.1-8.7,0.4-12c-1.6-3.3-6.2-3-9.3-3.2c-12.3-1-24.6-1.4-37-1.4c-55.3-0.2-110.6,6.9-165.8,1.6c-1.9-0.2-1.9,2.8,0,3
					c44.8,4.2,89.7,0.4,134.6-1.1c22.7-0.8,45.5-0.9,68.2,0.9c3.5,0.3,6.1,1,6.8,4.7c0.4,2.2-0.6,5.3-0.9,7.5
					c-0.6,5.7-1.2,11.3-1.6,17c-0.9,10.7-1.5,21.5-1.7,32.2c-0.3,21.5,1.1,43.2,5.7,64.3c0.6,3,2.6,7.6-0.4,10
					c-1.7,1.4-5.2,1.6-7.3,2c-6,1.1-12.1,1.6-18.2,1.7c-10.7,0.3-21.3-0.3-32-0.8c-45.5-2.1-91.1-2.3-136.6-0.6
					c-6,0.2-15.2,2.3-16.9-5.6c-0.6-2.9-0.1-6.7-0.1-9.6c0-3,0-6-0.1-9c-0.1-13-0.2-25.9-0.3-38.9c-0.2-25.9-0.4-51.9-0.5-77.8
					C-138.8,327.6-141.8,327.6-141.8,329.5L-141.8,329.5z"/>
			</g>
		</g>
		<text transform="matrix(0.6308 0 0 1 -120.7027 400.4468)" class="st1 st2">SEJONG</text>
	</g>
</g>
<g>
	<defs>
		<rect id="SVGID_13_" x="-27.3" y="325.4" width="15" height="150"/>
	</defs>
	<clipPath id="SVGID_14_">
		<use xlink:href="#SVGID_13_"  style="overflow:visible;"/>
	</clipPath>
	<g class="st10">
		<g>
			<rect x="-117.3" y="325.4" class="st0" width="225" height="150"/>
		</g>
		<g>
			<g>
				<path d="M-113.9,329.5c0.2,25.3,0.3,50.6,0.5,75.8c0.1,12.6,0.2,25.3,0.3,37.9c0,6,0.1,12,0.1,18c0,3.6-0.1,7.4,2.9,10
					c2.4,2,5.7,2.5,8.7,2.6c6.1,0.2,12.3-0.4,18.3-0.6c12.5-0.4,25.1-0.6,37.6-0.7c24.8-0.2,49.5,0.2,74.3,1.1
					c22.7,0.9,47.1,4.4,69.4-1.1c3.1-0.8,6.1-1.9,7.2-5.1c1.4-4-1-9.6-1.8-13.6c-2.4-12.2-3.8-24.6-4.4-37c-1.2-24,0.4-48.1,3-72
					c0.4-3.5,2.1-8.7,0.4-12c-1.6-3.3-6.2-3-9.3-3.2c-12.3-1-24.6-1.4-37-1.4c-55.3-0.2-110.6,6.9-165.8,1.6c-1.9-0.2-1.9,2.8,0,3
					c44.8,4.2,89.7,0.4,134.6-1.1c22.7-0.8,45.5-0.9,68.2,0.9c3.5,0.3,6.1,1,6.8,4.7c0.4,2.2-0.6,5.3-0.9,7.5
					c-0.6,5.7-1.2,11.3-1.6,17c-0.9,10.7-1.5,21.5-1.7,32.2c-0.3,21.5,1.1,43.2,5.7,64.3c0.6,3,2.6,7.6-0.4,10
					c-1.7,1.4-5.2,1.6-7.3,2c-6,1.1-12.1,1.6-18.2,1.7c-10.7,0.3-21.3-0.3-32-0.8c-45.5-2.1-91.1-2.3-136.6-0.6
					c-6,0.2-15.2,2.3-16.9-5.6c-0.6-2.9-0.1-6.7-0.1-9.6c0-3,0-6-0.1-9c-0.1-13-0.2-25.9-0.3-38.9c-0.2-25.9-0.4-51.9-0.5-77.8
					C-110.9,327.6-113.9,327.6-113.9,329.5L-113.9,329.5z"/>
			</g>
		</g>
		<text transform="matrix(0.6308 0 0 1 -92.809 400.4468)" class="st1 st2">SEJONG</text>
	</g>
</g>
<g>
	<defs>
		<rect id="SVGID_15_" x="15" y="325.4" width="15" height="150"/>
	</defs>
	<clipPath id="SVGID_16_">
		<use xlink:href="#SVGID_15_"  style="overflow:visible;"/>
	</clipPath>
	<g class="st11">
		<g>
			<rect x="-90" y="325.4" class="st0" width="225" height="150"/>
		</g>
		<g>
			<g>
				<path d="M-86.6,329.5c0.2,25.3,0.3,50.6,0.5,75.8c0.1,12.6,0.2,25.3,0.3,37.9c0,6,0.1,12,0.1,18c0,3.6-0.1,7.4,2.9,10
					c2.4,2,5.7,2.5,8.7,2.6c6.1,0.2,12.2-0.4,18.3-0.6c12.5-0.4,25.1-0.6,37.6-0.7c24.8-0.2,49.5,0.2,74.3,1.1
					c22.7,0.9,47.1,4.4,69.4-1.1c3.1-0.8,6.1-1.9,7.2-5.1c1.4-4-1-9.6-1.8-13.6c-2.4-12.2-3.8-24.6-4.4-37c-1.2-24,0.4-48.1,3-72
					c0.4-3.5,2.1-8.7,0.4-12c-1.6-3.3-6.2-3-9.3-3.2c-12.3-1-24.6-1.4-37-1.4c-55.3-0.2-110.6,6.9-165.8,1.6c-1.9-0.2-1.9,2.8,0,3
					c44.8,4.2,89.7,0.4,134.6-1.1c22.7-0.8,45.5-0.9,68.2,0.9c3.5,0.3,6.1,1,6.8,4.7c0.4,2.2-0.6,5.3-0.9,7.5
					c-0.6,5.7-1.2,11.3-1.6,17c-0.9,10.7-1.5,21.5-1.7,32.2c-0.3,21.5,1.1,43.2,5.7,64.3c0.6,3,2.6,7.6-0.4,10
					c-1.7,1.4-5.2,1.6-7.3,2c-6,1.1-12.1,1.6-18.2,1.7c-10.7,0.3-21.3-0.3-32-0.8c-45.5-2.1-91.1-2.3-136.6-0.6
					c-5.9,0.2-15.2,2.3-16.9-5.6c-0.6-2.9-0.1-6.7-0.1-9.6c0-3,0-6-0.1-9c-0.1-13-0.2-25.9-0.3-38.9c-0.2-25.9-0.4-51.9-0.5-77.8
					C-83.7,327.6-86.7,327.6-86.6,329.5L-86.6,329.5z"/>
			</g>
		</g>
		<text transform="matrix(0.6308 0 0 1 -65.5537 400.4468)" class="st1 st2">SEJONG</text>
	</g>
</g>
<g>
	<defs>
		<rect id="SVGID_17_" x="60" y="325.4" width="15" height="150"/>
	</defs>
	<clipPath id="SVGID_18_">
		<use xlink:href="#SVGID_17_"  style="overflow:visible;"/>
	</clipPath>
	<g class="st12">
		<g>
			<rect x="-60" y="325.4" class="st0" width="225" height="150"/>
		</g>
		<g>
			<g>
				<path d="M-56.6,329.5c0.2,25.3,0.3,50.6,0.5,75.8c0.1,12.6,0.2,25.3,0.3,37.9c0,6,0.1,12,0.1,18c0,3.6-0.1,7.4,2.9,10
					c2.4,2,5.7,2.5,8.7,2.6c6.1,0.2,12.3-0.4,18.3-0.6c12.5-0.4,25.1-0.6,37.6-0.7c24.8-0.2,49.5,0.2,74.3,1.1
					c22.7,0.9,47.1,4.4,69.4-1.1c3.1-0.8,6.1-1.9,7.2-5.1c1.4-4-1-9.6-1.8-13.6c-2.4-12.2-3.8-24.6-4.4-37c-1.2-24,0.4-48.1,3-72
					c0.4-3.5,2.1-8.7,0.4-12c-1.6-3.3-6.2-3-9.3-3.2c-12.3-1-24.6-1.4-37-1.4c-55.3-0.2-110.6,6.9-165.8,1.6c-1.9-0.2-1.9,2.8,0,3
					c44.8,4.2,89.7,0.4,134.6-1.1c22.7-0.8,45.5-0.9,68.2,0.9c3.5,0.3,6.1,1,6.8,4.7c0.4,2.2-0.6,5.3-0.9,7.5
					c-0.6,5.7-1.2,11.3-1.6,17c-0.9,10.7-1.5,21.5-1.7,32.2c-0.3,21.5,1.1,43.2,5.7,64.3c0.6,3,2.6,7.6-0.4,10
					c-1.7,1.4-5.2,1.6-7.3,2c-6,1.1-12.1,1.6-18.2,1.7c-10.7,0.3-21.3-0.3-32-0.8c-45.5-2.1-91.1-2.3-136.6-0.6
					c-6,0.2-15.2,2.3-16.9-5.6c-0.6-2.9-0.1-6.7-0.1-9.6c0-3,0-6-0.1-9c-0.1-13-0.2-25.9-0.3-38.9c-0.2-25.9-0.4-51.9-0.5-77.8
					C-53.7,327.6-56.7,327.6-56.6,329.5L-56.6,329.5z"/>
			</g>
		</g>
		<text transform="matrix(0.6308 0 0 1 -35.5537 400.4467)" class="st1 st2">SEJONG</text>
	</g>
</g>
<g>
	<defs>
		<rect id="SVGID_19_" x="120" y="325.4" width="15" height="150"/>
	</defs>
	<clipPath id="SVGID_20_">
		<use xlink:href="#SVGID_19_"  style="overflow:visible;"/>
	</clipPath>
	<g class="st13">
		<g>
			<rect x="-15" y="325.4" class="st0" width="225" height="150"/>
		</g>
		<g>
			<g>
				<path d="M-11.6,329.5c0.2,25.3,0.3,50.6,0.5,75.8c0.1,12.6,0.2,25.3,0.3,37.9c0,6,0.1,12,0.1,18c0,3.6-0.1,7.4,2.9,10
					c2.4,2,5.7,2.5,8.7,2.6c6.1,0.2,12.2-0.4,18.3-0.6c12.5-0.4,25.1-0.6,37.6-0.7c24.8-0.2,49.5,0.2,74.3,1.1
					c22.7,0.9,47.1,4.4,69.4-1.1c3.1-0.8,6.1-1.9,7.2-5.1c1.4-4-1-9.6-1.8-13.6c-2.4-12.2-3.8-24.6-4.4-37c-1.2-24,0.4-48.1,3-72
					c0.4-3.5,2.1-8.7,0.4-12c-1.6-3.3-6.2-3-9.3-3.2c-12.3-1-24.6-1.4-37-1.4c-55.3-0.2-110.6,6.9-165.8,1.6c-1.9-0.2-1.9,2.8,0,3
					c44.8,4.2,89.7,0.4,134.6-1.1c22.7-0.8,45.5-0.9,68.2,0.9c3.5,0.3,6.1,1,6.8,4.7c0.4,2.2-0.6,5.3-0.9,7.5
					c-0.6,5.7-1.2,11.3-1.6,17c-0.9,10.7-1.5,21.5-1.7,32.2c-0.3,21.5,1.1,43.2,5.7,64.3c0.6,3,2.6,7.6-0.4,10
					c-1.7,1.4-5.2,1.6-7.3,2c-6,1.1-12.1,1.6-18.2,1.7c-10.7,0.3-21.3-0.3-32-0.8c-45.5-2.1-91.1-2.3-136.6-0.6
					c-6,0.2-15.2,2.3-16.9-5.6c-0.6-2.9-0.1-6.7-0.1-9.6c0-3,0-6-0.1-9c-0.1-13-0.2-25.9-0.3-38.9c-0.2-25.9-0.4-51.9-0.5-77.8
					C-8.7,327.6-11.7,327.6-11.6,329.5L-11.6,329.5z"/>
			</g>
		</g>
		<text transform="matrix(0.6308 0 0 1 9.4463 400.4468)" class="st1 st2">SEJONG</text>
	</g>
</g>
<g>
	<defs>
		<rect id="SVGID_21_" x="172.5" y="325.4" width="15" height="150"/>
	</defs>
	<clipPath id="SVGID_22_">
		<use xlink:href="#SVGID_21_"  style="overflow:visible;"/>
	</clipPath>
	<g class="st14">
		<g>
			<rect x="22.5" y="325.4" class="st0" width="225" height="150"/>
		</g>
		<g>
			<g>
				<path d="M25.9,329.5c0.2,25.3,0.3,50.6,0.5,75.8c0.1,12.6,0.2,25.3,0.3,37.9c0,6,0.1,12,0.1,18c0,3.6-0.1,7.4,2.9,10
					c2.4,2,5.7,2.5,8.7,2.6c6.1,0.2,12.3-0.4,18.3-0.6c12.5-0.4,25.1-0.6,37.6-0.7c24.8-0.2,49.5,0.2,74.3,1.1
					c22.7,0.9,47.1,4.4,69.4-1.1c3.1-0.8,6.1-1.9,7.2-5.1c1.4-4-1-9.6-1.8-13.6c-2.4-12.2-3.8-24.6-4.4-37c-1.2-24,0.4-48.1,3-72
					c0.4-3.5,2.1-8.7,0.4-12c-1.6-3.3-6.2-3-9.3-3.2c-12.3-1-24.6-1.4-37-1.4c-55.3-0.2-110.6,6.9-165.8,1.6c-1.9-0.2-1.9,2.8,0,3
					c44.8,4.2,89.7,0.4,134.6-1.1c22.7-0.8,45.5-0.9,68.2,0.9c3.5,0.3,6.1,1,6.8,4.7c0.4,2.2-0.6,5.3-0.9,7.5
					c-0.6,5.7-1.2,11.3-1.6,17c-0.9,10.7-1.5,21.5-1.7,32.2c-0.3,21.5,1.1,43.2,5.7,64.3c0.6,3,2.6,7.6-0.4,10
					c-1.7,1.4-5.2,1.6-7.3,2c-6,1.1-12.1,1.6-18.2,1.7c-10.7,0.3-21.3-0.3-32-0.8c-45.5-2.1-91.1-2.3-136.6-0.6
					c-6,0.2-15.2,2.3-16.9-5.6c-0.6-2.9-0.1-6.7-0.1-9.6c0-3,0-6-0.1-9c-0.1-13-0.2-25.9-0.3-38.9c-0.2-25.9-0.4-51.9-0.5-77.8
					C28.8,327.6,25.8,327.6,25.9,329.5L25.9,329.5z"/>
			</g>
		</g>
		<text transform="matrix(0.6308 0 0 1 46.9463 400.4468)" class="st1 st2">SEJONG</text>
	</g>
</g>
<g>
	<defs>
		<rect id="SVGID_23_" x="239.3" y="310.1" width="15" height="150"/>
	</defs>
	<clipPath id="SVGID_24_">
		<use xlink:href="#SVGID_23_"  style="overflow:visible;"/>
	</clipPath>
	<g class="st15">
		<g>
			<rect x="74.3" y="310.1" class="st0" width="225" height="150"/>
		</g>
		<g>
			<g>
				<path d="M77.7,314.2c0.2,25.3,0.3,50.6,0.5,75.8c0.1,12.6,0.2,25.3,0.3,37.9c0,6,0.1,12,0.1,18c0,3.6-0.1,7.4,2.9,10
					c2.4,2,5.7,2.5,8.7,2.6c6.1,0.2,12.3-0.4,18.3-0.6c12.5-0.4,25.1-0.6,37.6-0.7c24.8-0.2,49.5,0.2,74.3,1.1
					c22.7,0.9,47.1,4.4,69.4-1.1c3.1-0.8,6.1-1.9,7.2-5.1c1.4-4-1-9.6-1.8-13.6c-2.4-12.2-3.8-24.6-4.4-37.1c-1.2-24,0.4-48.1,3-72
					c0.4-3.5,2.1-8.7,0.4-12c-1.6-3.3-6.2-3-9.3-3.2c-12.3-1-24.6-1.4-37-1.5c-55.3-0.2-110.6,6.9-165.8,1.6c-1.9-0.2-1.9,2.8,0,3
					c44.8,4.2,89.7,0.4,134.6-1.1c22.7-0.8,45.5-0.9,68.2,0.9c3.5,0.3,6.1,1,6.8,4.7c0.4,2.2-0.6,5.3-0.9,7.5
					c-0.6,5.7-1.2,11.3-1.6,17c-0.9,10.7-1.5,21.5-1.7,32.2c-0.3,21.5,1.1,43.2,5.7,64.3c0.6,3,2.6,7.5-0.4,10
					c-1.7,1.4-5.2,1.6-7.3,2c-6,1.1-12.1,1.5-18.2,1.7c-10.7,0.3-21.3-0.3-32-0.8c-45.5-2.1-91.1-2.3-136.6-0.6
					c-6,0.2-15.2,2.3-16.9-5.6c-0.6-2.9-0.1-6.7-0.1-9.6c0-3,0-6-0.1-9c-0.1-13-0.2-25.9-0.3-38.9c-0.2-25.9-0.4-51.9-0.5-77.8
					C80.6,312.2,77.6,312.2,77.7,314.2L77.7,314.2z"/>
			</g>
		</g>
		<text transform="matrix(0.6308 0 0 1 98.7442 385.0851)" class="st1 st2">SEJONG</text>
	</g>
</g>
<g>
	<defs>
		<rect id="SVGID_25_" x="307.5" y="310.1" width="15" height="150"/>
	</defs>
	<clipPath id="SVGID_26_">
		<use xlink:href="#SVGID_25_"  style="overflow:visible;"/>
	</clipPath>
	<g class="st16">
		<g>
			<rect x="127.5" y="310.1" class="st0" width="225" height="150"/>
		</g>
		<g>
			<g>
				<path d="M130.9,314.2c0.2,25.3,0.3,50.6,0.5,75.8c0.1,12.6,0.2,25.3,0.3,37.9c0,6,0.1,12,0.1,18c0,3.6-0.1,7.4,2.9,10
					c2.4,2,5.7,2.5,8.7,2.6c6.1,0.2,12.3-0.4,18.3-0.6c12.5-0.4,25.1-0.6,37.6-0.7c24.8-0.2,49.5,0.2,74.3,1.1
					c22.7,0.9,47.1,4.4,69.4-1.1c3.1-0.8,6.1-1.9,7.2-5.1c1.4-4-1-9.6-1.8-13.6c-2.4-12.2-3.8-24.6-4.4-37.1c-1.2-24,0.4-48.1,3-72
					c0.4-3.5,2.1-8.7,0.4-12c-1.6-3.3-6.2-3-9.3-3.2c-12.3-1-24.6-1.4-37-1.5c-55.3-0.2-110.5,6.9-165.8,1.6c-1.9-0.2-1.9,2.8,0,3
					c44.8,4.2,89.7,0.4,134.6-1.1c22.7-0.8,45.5-0.9,68.2,0.9c3.5,0.3,6.1,1,6.8,4.7c0.4,2.2-0.6,5.3-0.9,7.5
					c-0.6,5.7-1.2,11.3-1.6,17c-0.9,10.7-1.5,21.5-1.7,32.2c-0.3,21.5,1.1,43.2,5.7,64.3c0.6,3,2.6,7.5-0.4,10
					c-1.7,1.4-5.2,1.6-7.3,2c-6,1.1-12.1,1.5-18.2,1.7c-10.7,0.3-21.3-0.3-32-0.8c-45.5-2.1-91.1-2.3-136.6-0.6
					c-6,0.2-15.2,2.3-16.9-5.6c-0.6-2.9-0.1-6.7-0.1-9.6c0-3,0-6-0.1-9c-0.1-13-0.2-25.9-0.3-38.9c-0.2-25.9-0.4-51.9-0.5-77.8
					C133.9,312.2,130.9,312.2,130.9,314.2L130.9,314.2z"/>
			</g>
		</g>
		<text transform="matrix(0.6308 0 0 1 151.9782 385.0852)" class="st1 st2">SEJONG</text>
	</g>
</g>
<g>
	<defs>
		<rect id="SVGID_27_" x="372.3" y="310.1" width="15" height="150"/>
	</defs>
	<clipPath id="SVGID_28_">
		<use xlink:href="#SVGID_27_"  style="overflow:visible;"/>
	</clipPath>
	<g class="st17">
		<g>
			<rect x="177.3" y="310.1" class="st0" width="225" height="150"/>
		</g>
		<g>
			<g>
				<path d="M180.7,314.2c0.2,25.3,0.3,50.6,0.5,75.8c0.1,12.6,0.2,25.3,0.3,37.9c0,6,0.1,12,0.1,18c0,3.6-0.1,7.4,2.9,10
					c2.4,2,5.7,2.5,8.7,2.6c6.1,0.2,12.2-0.4,18.3-0.6c12.5-0.4,25.1-0.6,37.6-0.7c24.8-0.2,49.5,0.2,74.3,1.1
					c22.7,0.9,47.1,4.4,69.4-1.1c3.1-0.8,6.1-1.9,7.2-5.1c1.4-4-1-9.6-1.8-13.6c-2.4-12.2-3.8-24.6-4.4-37.1c-1.2-24,0.4-48.1,3-72
					c0.4-3.5,2.1-8.7,0.4-12c-1.6-3.3-6.2-3-9.3-3.2c-12.3-1-24.6-1.4-37-1.5c-55.3-0.2-110.5,6.9-165.8,1.6c-1.9-0.2-1.9,2.8,0,3
					c44.8,4.2,89.7,0.4,134.6-1.1c22.7-0.8,45.5-0.9,68.2,0.9c3.5,0.3,6.1,1,6.8,4.7c0.4,2.2-0.6,5.3-0.9,7.5
					c-0.6,5.7-1.2,11.3-1.6,17c-0.9,10.7-1.5,21.5-1.7,32.2c-0.3,21.5,1.1,43.2,5.7,64.3c0.6,3,2.6,7.5-0.4,10
					c-1.7,1.4-5.2,1.6-7.3,2c-6,1.1-12.1,1.5-18.2,1.7c-10.7,0.3-21.3-0.3-32-0.8c-45.5-2.1-91.1-2.3-136.6-0.6
					c-6,0.2-15.2,2.3-16.9-5.6c-0.6-2.9-0.1-6.7-0.1-9.6c0-3,0-6-0.1-9c-0.1-13-0.2-25.9-0.3-38.9c-0.2-25.9-0.4-51.9-0.5-77.8
					C183.7,312.2,180.7,312.2,180.7,314.2L180.7,314.2z"/>
			</g>
		</g>
		<text transform="matrix(0.6308 0 0 1 201.7654 385.0852)" class="st1 st2">SEJONG</text>
	</g>
</g>
<g>
	<defs>
		<rect id="SVGID_29_" x="444.6" y="340.5" width="15" height="150"/>
	</defs>
	<clipPath id="SVGID_30_">
		<use xlink:href="#SVGID_29_"  style="overflow:visible;"/>
	</clipPath>
	<g class="st18">
		<g>
			<rect x="234.6" y="340.5" class="st0" width="225" height="150"/>
		</g>
		<g>
			<g>
				<path d="M238,344.6c0.2,25.3,0.3,50.6,0.5,75.8c0.1,12.6,0.2,25.3,0.3,37.9c0,6,0.1,12,0.1,18c0,3.6-0.1,7.4,2.9,10
					c2.4,2,5.7,2.5,8.7,2.6c6.1,0.2,12.3-0.4,18.3-0.6c12.5-0.4,25.1-0.6,37.6-0.7c24.8-0.2,49.5,0.2,74.3,1.1
					c22.7,0.9,47.1,4.4,69.4-1.1c3.1-0.8,6.1-1.9,7.2-5.1c1.4-4-1-9.6-1.8-13.6c-2.4-12.2-3.8-24.6-4.4-37.1c-1.2-24,0.4-48.1,3-72
					c0.4-3.5,2.1-8.7,0.4-12c-1.6-3.3-6.2-3-9.3-3.2c-12.3-1-24.6-1.4-37-1.5c-55.3-0.2-110.5,6.9-165.8,1.6c-1.9-0.2-1.9,2.8,0,3
					c44.8,4.2,89.7,0.4,134.6-1.1c22.7-0.8,45.5-0.9,68.2,0.9c3.5,0.3,6.1,1,6.8,4.7c0.4,2.2-0.6,5.3-0.9,7.5
					c-0.6,5.7-1.2,11.3-1.6,17c-0.9,10.7-1.5,21.5-1.7,32.2c-0.3,21.5,1.1,43.2,5.7,64.3c0.6,3,2.6,7.5-0.4,10
					c-1.7,1.4-5.2,1.6-7.3,2c-6,1.1-12.1,1.5-18.2,1.7c-10.7,0.3-21.3-0.3-32-0.8c-45.5-2.1-91.1-2.3-136.6-0.6
					c-5.9,0.2-15.2,2.3-16.9-5.6c-0.6-2.9-0.1-6.7-0.1-9.6c0-3,0-6-0.1-9c-0.1-13-0.2-25.9-0.3-38.9c-0.2-25.9-0.4-51.9-0.5-77.8
					C241,342.7,238,342.7,238,344.6L238,344.6z"/>
			</g>
		</g>
		<text transform="matrix(0.6308 0 0 1 259.0846 415.532)" class="st1 st2">SEJONG</text>
	</g>
</g>
</svg>
