<?xml version="1.0" encoding="utf-8"?>
<!-- Generator: Adobe Illustrator 23.0.0, SVG Export Plug-In . SVG Version: 6.00 Build 0)  -->
<svg version="1.1" id="Layer_1" xmlns="http://www.w3.org/2000/svg" xmlns:xlink="http://www.w3.org/1999/xlink" x="0px" y="0px"
	 viewBox="0 0 225 150" style="enable-background:new 0 0 225 150;" xml:space="preserve">
<style type="text/css">
	.st0{fill:#FFFFFF;}
	.st1{font-family:'Mickey';}
	.st2{font-size:69.5178px;}
	.st3{fill:#FFFFFF;stroke:#FF1400;stroke-miterlimit:10;}
	.st4{clip-path:url(#SVGID_2_);}
	.st5{clip-path:url(#SVGID_4_);}
	.st6{clip-path:url(#SVGID_6_);}
	.st7{clip-path:url(#SVGID_8_);}
	.st8{clip-path:url(#SVGID_10_);}
	.st9{clip-path:url(#SVGID_12_);}
	.st10{clip-path:url(#SVGID_14_);}
	.st11{clip-path:url(#SVGID_16_);}
	.st12{clip-path:url(#SVGID_18_);}
	.st13{clip-path:url(#SVGID_20_);}
	.st14{clip-path:url(#SVGID_22_);}
	.st15{clip-path:url(#SVGID_24_);}
	.st16{clip-path:url(#SVGID_26_);}
	.st17{clip-path:url(#SVGID_28_);}
	.st18{clip-path:url(#SVGID_30_);}
</style>
<g>
	<g>
		<rect class="st0" width="225" height="150"/>
	</g>
	<g>
		<g>
			<path d="M4.3,4.7c0.3,24.5,0.6,49.1,0.9,73.6c0.2,12.3,0.3,24.5,0.4,36.8c0.1,5.6,0.1,11.3,0.2,16.9c0,3.4-1.2,9.6,1.3,12.5
				c2.3,2.7,6.8,1.9,9.9,1.9c6-0.1,12-0.1,17.9-0.1c12.6-0.1,25.3-0.2,37.9-0.3c24.2-0.2,48.3-0.4,72.5-0.6
				c12.2-0.1,24.5-0.2,36.7-0.3c12.2-0.1,24.5,0.4,36.7-0.3c9.2-0.5,2.6-10.1,1.6-15.4c-2.2-11-0.7-23-0.6-34.1
				c0.2-24.5-0.5-48.9-1.9-73.4c-0.3-4.3,0.4-10.2-1.2-14.2c-1.2-3.2-4-3.4-7.1-3.4c-12.3-0.1-24.5,0.1-36.8,0.1
				C117.7,4.5,62.7,4.7,7.7,4.8c-1.9,0-1.9,3,0,3c45.1-0.1,90.2-0.3,135.3-0.4c22.2-0.1,44.4-0.7,66.6-0.2c4.5,0.1,4.5,2.9,4.8,6.7
				c0.2,2.6,0.3,5.3,0.5,7.9c0.3,5.6,0.6,11.2,0.9,16.8c0.5,11.2,0.8,22.5,1,33.7c0.2,11.2,0.1,22.5,0,33.7
				c-0.1,9-0.9,18.5,1.6,27.3c0.3,1.1,0.7,2.1,1.1,3.2c1.1,2.8,1.7,1.9-0.2,4c-1.9,2-5.6,1.3-8.3,1.3c-5.6,0-11.3,0.1-16.9,0.1
				c-11.3,0.1-22.5,0.2-33.7,0.3c-45.1,0.4-90.2,0.7-135.2,1.1c-3,0-6,0.1-9,0.1c-1.3,0-2.9,0.3-4.1-0.1c-2.7-0.8-2.8-2.9-3-5.4
				c-0.6-6.5-0.2-13.3-0.3-19.9c-0.1-12.3-0.3-24.5-0.4-36.8c-0.3-25.5-0.6-51-0.9-76.6C7.3,2.8,4.3,2.7,4.3,4.7L4.3,4.7z"/>
		</g>
	</g>
	<text transform="matrix(0.5944 0 0 1 27 112.5303)" class="st1 st2">SEJONG</text>
</g>
<rect class="st3" width="15" height="150"/>
<rect x="15" y="0" class="st3" width="15" height="150"/>
<rect x="30" y="0" class="st3" width="15" height="150"/>
<rect x="45" y="0" class="st3" width="15" height="150"/>
<rect x="60" y="0" class="st3" width="15" height="150"/>
<rect x="75" y="0" class="st3" width="15" height="150"/>
<rect x="90" y="0" class="st3" width="15" height="150"/>
<rect x="105" y="0" class="st3" width="15" height="150"/>
<rect x="120" y="0" class="st3" width="15" height="150"/>
<rect x="135" y="0" class="st3" width="15" height="150"/>
<rect x="150" y="0" class="st3" width="15" height="150"/>
<rect x="165" y="0" class="st3" width="15" height="150"/>
<rect x="180" y="0" class="st3" width="15" height="150"/>
<rect x="195" y="0" class="st3" width="15" height="150"/>
<rect x="210" y="0" class="st3" width="15" height="150"/>
<g>
	<defs>
		<rect id="SVGID_1_" x="-193" y="183.3" width="15" height="150"/>
	</defs>
	<clipPath id="SVGID_2_">
		<use xlink:href="#SVGID_1_"  style="overflow:visible;"/>
	</clipPath>
	<g class="st4">
		<g>
			<rect x="-193" y="183.3" class="st0" width="225" height="150"/>
		</g>
		<g>
			<g>
				<path d="M-188.7,188c0.3,24.5,0.6,49.1,0.9,73.6c0.1,12.3,0.3,24.5,0.4,36.8c0.1,5.6,0.1,11.3,0.2,16.9c0,3.4-1.2,9.6,1.3,12.5
					c2.3,2.7,6.8,1.9,9.9,1.9c6-0.1,12-0.1,17.9-0.1c12.6-0.1,25.3-0.2,37.9-0.3c24.2-0.2,48.3-0.4,72.5-0.6
					c12.2-0.1,24.5-0.2,36.7-0.3c12.2-0.1,24.5,0.4,36.7-0.3c9.2-0.5,2.6-10.1,1.6-15.4c-2.2-11-0.7-23-0.6-34.1
					c0.2-24.5-0.5-48.9-1.9-73.4c-0.3-4.3,0.4-10.2-1.2-14.2c-1.2-3.2-4-3.4-7.1-3.4c-12.3-0.1-24.5,0.1-36.8,0.1
					c-55,0.2-110.1,0.3-165.1,0.5c-1.9,0-1.9,3,0,3c45.1-0.1,90.2-0.3,135.3-0.4c22.2-0.1,44.4-0.7,66.6-0.2
					c4.5,0.1,4.5,2.9,4.8,6.7c0.2,2.6,0.3,5.3,0.5,7.9c0.3,5.6,0.6,11.2,0.9,16.8c0.5,11.2,0.8,22.5,1,33.7
					c0.2,11.2,0.1,22.5,0,33.7c-0.1,9-0.9,18.5,1.6,27.3c0.3,1.1,0.7,2.1,1.1,3.2c1.1,2.8,1.7,1.9-0.2,4c-1.9,2-5.6,1.3-8.3,1.3
					c-5.6,0-11.3,0.1-16.9,0.1c-11.3,0.1-22.5,0.2-33.7,0.3c-45.1,0.4-90.1,0.7-135.2,1.1c-3,0-6,0.1-9,0.1c-1.3,0-2.9,0.3-4.1-0.1
					c-2.7-0.8-2.8-2.9-3-5.4c-0.6-6.5-0.2-13.4-0.3-19.9c-0.2-12.3-0.3-24.5-0.4-36.8c-0.3-25.5-0.6-51-0.9-76.6
					C-185.7,186.1-188.7,186.1-188.7,188L-188.7,188z"/>
			</g>
		</g>
		<text transform="matrix(0.5944 0 0 1 -166.0198 295.8619)" class="st1 st2">SEJONG</text>
	</g>
</g>
<g>
	<defs>
		<rect id="SVGID_3_" x="-147.1" y="183.3" width="15" height="150"/>
	</defs>
	<clipPath id="SVGID_4_">
		<use xlink:href="#SVGID_3_"  style="overflow:visible;"/>
	</clipPath>
	<g class="st5">
		<g>
			<rect x="-162.1" y="183.3" class="st0" width="225" height="150"/>
		</g>
		<g>
			<g>
				<path d="M-157.8,188c0.3,24.5,0.6,49.1,0.9,73.6c0.1,12.3,0.3,24.5,0.4,36.8c0.1,5.6,0.1,11.3,0.2,16.9c0,3.4-1.2,9.6,1.3,12.5
					c2.3,2.7,6.8,1.9,9.9,1.9c6-0.1,12-0.1,17.9-0.1c12.6-0.1,25.3-0.2,37.9-0.3c24.2-0.2,48.3-0.4,72.5-0.6
					c12.2-0.1,24.5-0.2,36.7-0.3c12.2-0.1,24.5,0.4,36.7-0.3c9.2-0.5,2.6-10.1,1.6-15.4c-2.2-11-0.7-23-0.6-34.1
					c0.2-24.5-0.5-48.9-1.9-73.4c-0.3-4.3,0.4-10.2-1.2-14.2c-1.2-3.2-4-3.4-7.1-3.4c-12.3-0.1-24.5,0.1-36.8,0.1
					c-55,0.2-110.1,0.3-165.1,0.5c-1.9,0-1.9,3,0,3c45.1-0.1,90.2-0.3,135.3-0.4c22.2-0.1,44.4-0.7,66.6-0.2
					c4.5,0.1,4.5,2.9,4.8,6.7c0.2,2.6,0.3,5.3,0.5,7.9c0.3,5.6,0.6,11.2,0.9,16.8c0.5,11.2,0.8,22.5,1,33.7
					c0.2,11.2,0.1,22.5,0,33.7c-0.1,9-0.9,18.5,1.6,27.3c0.3,1.1,0.7,2.1,1.1,3.2c1.1,2.8,1.7,1.9-0.2,4c-1.9,2-5.6,1.3-8.3,1.3
					c-5.6,0-11.3,0.1-16.9,0.1c-11.3,0.1-22.5,0.2-33.7,0.3c-45.1,0.4-90.2,0.7-135.2,1.1c-3,0-6,0.1-9,0.1c-1.3,0-2.9,0.3-4.1-0.1
					c-2.7-0.8-2.8-2.9-3-5.4c-0.6-6.5-0.2-13.4-0.3-19.9c-0.1-12.3-0.3-24.5-0.4-36.8c-0.3-25.5-0.6-51-0.9-76.6
					C-154.9,186.1-157.9,186.1-157.8,188L-157.8,188z"/>
			</g>
		</g>
		<text transform="matrix(0.5944 0 0 1 -135.1436 295.8619)" class="st1 st2">SEJONG</text>
	</g>
</g>
<g>
	<defs>
		<rect id="SVGID_5_" x="-100.8" y="175.1" width="15" height="150"/>
	</defs>
	<clipPath id="SVGID_6_">
		<use xlink:href="#SVGID_5_"  style="overflow:visible;"/>
	</clipPath>
	<g class="st6">
		<g>
			<rect x="-130.8" y="175.1" class="st0" width="225" height="150"/>
		</g>
		<g>
			<g>
				<path d="M-126.5,179.8c0.3,24.5,0.6,49.1,0.9,73.6c0.2,12.3,0.3,24.5,0.5,36.8c0.1,5.6,0.1,11.3,0.2,16.9
					c0,3.4-1.2,9.6,1.3,12.5c2.3,2.7,6.8,1.9,9.9,1.9c6,0,12-0.1,18-0.1c12.6-0.1,25.3-0.2,37.9-0.3c24.2-0.2,48.3-0.4,72.5-0.6
					c12.2-0.1,24.5-0.2,36.7-0.3c12.2-0.1,24.5,0.4,36.7-0.3c9.2-0.5,2.6-10.1,1.6-15.4c-2.2-11-0.7-23-0.6-34.1
					c0.2-24.5-0.5-48.9-1.9-73.4c-0.3-4.3,0.4-10.2-1.2-14.2c-1.2-3.2-4-3.4-7.1-3.4c-12.3-0.1-24.5,0.1-36.8,0.1
					c-55,0.2-110.1,0.3-165.1,0.5c-1.9,0-1.9,3,0,3c45.1-0.1,90.2-0.3,135.3-0.4c22.2-0.1,44.4-0.7,66.6-0.2
					c4.5,0.1,4.5,2.9,4.8,6.7c0.2,2.6,0.3,5.3,0.5,7.9c0.3,5.6,0.6,11.2,0.9,16.8c0.5,11.2,0.8,22.5,1,33.7
					c0.2,11.2,0.1,22.5,0,33.7c-0.1,9-0.9,18.5,1.6,27.3c0.3,1.1,0.7,2.1,1.1,3.2c1.1,2.8,1.7,1.9-0.2,4c-1.9,2-5.6,1.3-8.3,1.3
					c-5.6,0-11.3,0.1-16.9,0.1c-11.3,0.1-22.5,0.2-33.7,0.3c-45.1,0.4-90.2,0.7-135.2,1.1c-3,0-6,0-9,0.1c-1.3,0-2.9,0.3-4.1-0.1
					c-2.7-0.8-2.8-2.9-3-5.4c-0.6-6.5-0.2-13.4-0.3-19.9c-0.2-12.3-0.3-24.5-0.5-36.8c-0.3-25.5-0.6-51-0.9-76.6
					C-123.5,177.9-126.5,177.9-126.5,179.8L-126.5,179.8z"/>
			</g>
		</g>
		<text transform="matrix(0.5944 0 0 1 -103.7872 287.6792)" class="st1 st2">SEJONG</text>
	</g>
</g>
<g>
	<defs>
		<rect id="SVGID_7_" x="-51.8" y="183.3" width="15" height="150"/>
	</defs>
	<clipPath id="SVGID_8_">
		<use xlink:href="#SVGID_7_"  style="overflow:visible;"/>
	</clipPath>
	<g class="st7">
		<g>
			<rect x="-96.8" y="183.3" class="st0" width="225" height="150"/>
		</g>
		<g>
			<g>
				<path d="M-92.5,188c0.3,24.5,0.6,49.1,0.9,73.6c0.2,12.3,0.3,24.5,0.5,36.8c0.1,5.6,0.1,11.3,0.2,16.9c0,3.4-1.2,9.6,1.3,12.5
					c2.3,2.7,6.8,1.9,9.9,1.9c6-0.1,12-0.1,18-0.1c12.6-0.1,25.3-0.2,37.9-0.3c24.2-0.2,48.3-0.4,72.5-0.6
					c12.2-0.1,24.5-0.2,36.7-0.3c12.2-0.1,24.5,0.4,36.7-0.3c9.2-0.5,2.6-10.1,1.6-15.4c-2.2-11-0.7-23-0.6-34.1
					c0.2-24.5-0.5-48.9-1.9-73.4c-0.3-4.3,0.4-10.2-1.2-14.2c-1.2-3.2-4-3.4-7.1-3.4c-12.3-0.1-24.5,0.1-36.8,0.1
					c-55,0.2-110.1,0.3-165.1,0.5c-1.9,0-1.9,3,0,3c45.1-0.1,90.2-0.3,135.3-0.4c22.2-0.1,44.4-0.7,66.6-0.2
					c4.5,0.1,4.5,2.9,4.8,6.7c0.2,2.6,0.3,5.3,0.5,7.9c0.3,5.6,0.6,11.2,0.9,16.8c0.5,11.2,0.8,22.5,1,33.7
					c0.2,11.2,0.1,22.5,0,33.7c-0.1,9-0.9,18.5,1.6,27.3c0.3,1.1,0.7,2.1,1.1,3.2c1.1,2.8,1.7,1.9-0.2,4c-1.9,2-5.6,1.3-8.3,1.3
					c-5.6,0-11.3,0.1-16.9,0.1c-11.3,0.1-22.5,0.2-33.7,0.3c-45.1,0.4-90.2,0.7-135.2,1.1c-3,0-6,0.1-9,0.1c-1.3,0-2.9,0.3-4.1-0.1
					c-2.7-0.8-2.8-2.9-3-5.4c-0.6-6.5-0.2-13.4-0.3-19.9c-0.2-12.3-0.3-24.5-0.5-36.8c-0.3-25.5-0.6-51-0.9-76.6
					C-89.5,186.1-92.5,186.1-92.5,188L-92.5,188z"/>
			</g>
		</g>
		<text transform="matrix(0.5944 0 0 1 -69.766 295.8619)" class="st1 st2">SEJONG</text>
	</g>
</g>
<g>
	<defs>
		<rect id="SVGID_9_" x="-15" y="175.1" width="15" height="150"/>
	</defs>
	<clipPath id="SVGID_10_">
		<use xlink:href="#SVGID_9_"  style="overflow:visible;"/>
	</clipPath>
	<g class="st8">
		<g>
			<rect x="-75" y="175.1" class="st0" width="225" height="150"/>
		</g>
		<g>
			<g>
				<path d="M-70.7,179.8c0.3,24.5,0.6,49.1,0.9,73.6c0.2,12.3,0.3,24.5,0.4,36.8c0.1,5.6,0.1,11.3,0.2,16.9c0,3.4-1.2,9.6,1.3,12.5
					c2.3,2.7,6.8,1.9,9.9,1.9c6,0,12-0.1,17.9-0.1c12.6-0.1,25.3-0.2,37.9-0.3c24.2-0.2,48.3-0.4,72.5-0.6
					c12.2-0.1,24.5-0.2,36.7-0.3c12.2-0.1,24.5,0.4,36.7-0.3c9.2-0.5,2.6-10.1,1.6-15.4c-2.2-11-0.7-23-0.6-34.1
					c0.2-24.5-0.5-48.9-1.9-73.4c-0.3-4.3,0.4-10.2-1.2-14.2c-1.2-3.2-4-3.4-7.1-3.4c-12.3-0.1-24.5,0.1-36.8,0.1
					c-55,0.2-110.1,0.3-165.1,0.5c-1.9,0-1.9,3,0,3c45.1-0.1,90.2-0.3,135.3-0.4c22.2-0.1,44.4-0.7,66.6-0.2
					c4.5,0.1,4.5,2.9,4.8,6.7c0.2,2.6,0.3,5.3,0.5,7.9c0.3,5.6,0.6,11.2,0.9,16.8c0.5,11.2,0.8,22.5,1,33.7
					c0.2,11.2,0.1,22.5,0,33.7c-0.1,9-0.9,18.5,1.6,27.3c0.3,1.1,0.7,2.1,1.1,3.2c1.1,2.8,1.7,1.9-0.2,4c-1.9,2-5.6,1.3-8.3,1.3
					c-5.6,0-11.3,0.1-16.9,0.1c-11.3,0.1-22.5,0.2-33.7,0.3c-45.1,0.4-90.2,0.7-135.2,1.1c-3,0-6,0-9,0.1c-1.3,0-2.9,0.3-4.1-0.1
					c-2.7-0.8-2.8-2.9-3-5.4c-0.6-6.5-0.2-13.4-0.3-19.9c-0.2-12.3-0.3-24.5-0.4-36.8c-0.3-25.5-0.6-51-0.9-76.6
					C-67.7,177.9-70.7,177.9-70.7,179.8L-70.7,179.8z"/>
			</g>
		</g>
		<text transform="matrix(0.5944 0 0 1 -48 287.6792)" class="st1 st2">SEJONG</text>
	</g>
</g>
<g>
	<defs>
		<rect id="SVGID_11_" x="22.5" y="183.3" width="15" height="150"/>
	</defs>
	<clipPath id="SVGID_12_">
		<use xlink:href="#SVGID_11_"  style="overflow:visible;"/>
	</clipPath>
	<g class="st9">
		<g>
			<rect x="-52.5" y="183.3" class="st0" width="225" height="150"/>
		</g>
		<g>
			<g>
				<path d="M-48.2,188c0.3,24.5,0.6,49.1,0.9,73.6c0.1,12.3,0.3,24.5,0.4,36.8c0.1,5.6,0.1,11.3,0.2,16.9c0,3.4-1.2,9.6,1.3,12.5
					c2.3,2.7,6.8,1.9,9.9,1.9c6-0.1,12-0.1,17.9-0.1c12.6-0.1,25.3-0.2,37.9-0.3c24.2-0.2,48.3-0.4,72.5-0.6
					c12.2-0.1,24.5-0.2,36.7-0.3c12.2-0.1,24.5,0.4,36.7-0.3c9.2-0.5,2.6-10.1,1.6-15.4c-2.2-11-0.7-23-0.6-34.1
					c0.2-24.5-0.5-48.9-1.9-73.4c-0.3-4.3,0.4-10.2-1.2-14.2c-1.2-3.2-4-3.4-7.1-3.4c-12.3-0.1-24.5,0.1-36.8,0.1
					c-55,0.2-110.1,0.3-165.1,0.5c-1.9,0-1.9,3,0,3c45.1-0.1,90.2-0.3,135.3-0.4c22.2-0.1,44.4-0.7,66.6-0.2
					c4.5,0.1,4.5,2.9,4.8,6.7c0.2,2.6,0.3,5.3,0.5,7.9c0.3,5.6,0.6,11.2,0.9,16.8c0.5,11.2,0.8,22.5,1,33.7
					c0.2,11.2,0.1,22.5,0,33.7c-0.1,9-0.9,18.5,1.6,27.3c0.3,1.1,0.7,2.1,1.1,3.2c1.1,2.8,1.7,1.9-0.2,4c-1.9,2-5.6,1.3-8.3,1.3
					c-5.6,0-11.3,0.1-16.9,0.1c-11.3,0.1-22.5,0.2-33.7,0.3c-45.1,0.4-90.2,0.7-135.2,1.1c-3,0-6,0.1-9,0.1c-1.3,0-2.9,0.3-4.1-0.1
					c-2.7-0.8-2.8-2.9-3-5.4c-0.6-6.5-0.2-13.4-0.3-19.9c-0.1-12.3-0.3-24.5-0.4-36.8c-0.3-25.5-0.6-51-0.9-76.6
					C-45.2,186.1-48.2,186.1-48.2,188L-48.2,188z"/>
			</g>
		</g>
		<text transform="matrix(0.5944 0 0 1 -25.5 295.8619)" class="st1 st2">SEJONG</text>
	</g>
</g>
<g>
	<defs>
		<rect id="SVGID_13_" x="67.5" y="195.6" width="15" height="150"/>
	</defs>
	<clipPath id="SVGID_14_">
		<use xlink:href="#SVGID_13_"  style="overflow:visible;"/>
	</clipPath>
	<g class="st10">
		<g>
			<rect x="-22.5" y="195.6" class="st0" width="225" height="150"/>
		</g>
		<g>
			<g>
				<path d="M-18.2,200.3c0.3,24.5,0.6,49.1,0.9,73.6c0.1,12.3,0.3,24.5,0.5,36.8c0.1,5.6,0.1,11.3,0.2,16.9c0,3.4-1.2,9.6,1.3,12.5
					c2.3,2.7,6.8,1.9,9.9,1.9c6,0,12-0.1,17.9-0.1c12.6-0.1,25.3-0.2,37.9-0.3c24.2-0.2,48.3-0.4,72.5-0.6
					c12.2-0.1,24.5-0.2,36.7-0.3c12.2-0.1,24.5,0.4,36.7-0.3c9.2-0.5,2.6-10.1,1.6-15.4c-2.2-11-0.7-23-0.6-34.1
					c0.2-24.5-0.5-48.9-1.9-73.4c-0.3-4.3,0.4-10.2-1.2-14.2c-1.2-3.2-4-3.4-7.1-3.4c-12.3-0.1-24.5,0.1-36.8,0.1
					c-55,0.2-110.1,0.3-165.1,0.5c-1.9,0-1.9,3,0,3c45.1-0.1,90.2-0.3,135.3-0.4c22.2-0.1,44.4-0.7,66.6-0.2
					c4.5,0.1,4.5,2.9,4.8,6.7c0.2,2.6,0.3,5.3,0.5,7.9c0.3,5.6,0.6,11.2,0.9,16.8c0.5,11.2,0.8,22.5,1,33.7
					c0.2,11.2,0.1,22.5,0,33.7c-0.1,9-0.9,18.5,1.6,27.3c0.3,1.1,0.7,2.1,1.1,3.2c1.1,2.8,1.7,1.9-0.2,4c-1.9,2-5.6,1.3-8.3,1.3
					c-5.6,0-11.3,0.1-16.9,0.1c-11.3,0.1-22.5,0.2-33.7,0.3c-45.1,0.4-90.2,0.7-135.2,1.1c-3,0-6,0-9,0.1c-1.3,0-2.9,0.3-4.1-0.1
					c-2.7-0.8-2.8-2.9-3-5.4c-0.6-6.5-0.2-13.4-0.3-19.9c-0.1-12.3-0.3-24.5-0.4-36.8c-0.3-25.5-0.6-51-0.9-76.6
					C-15.2,198.3-18.2,198.3-18.2,200.3L-18.2,200.3z"/>
			</g>
		</g>
		<text transform="matrix(0.5944 0 0 1 4.5 308.1048)" class="st1 st2">SEJONG</text>
	</g>
</g>
<g>
	<defs>
		<rect id="SVGID_15_" x="112.5" y="208.3" width="15" height="150"/>
	</defs>
	<clipPath id="SVGID_16_">
		<use xlink:href="#SVGID_15_"  style="overflow:visible;"/>
	</clipPath>
	<g class="st11">
		<g>
			<rect x="7.5" y="208.3" class="st0" width="225" height="150"/>
		</g>
		<g>
			<g>
				<path d="M11.8,213c0.3,24.5,0.6,49.1,0.9,73.6c0.2,12.3,0.3,24.5,0.5,36.8c0.1,5.6,0.1,11.3,0.2,16.9c0,3.4-1.2,9.6,1.3,12.5
					c2.3,2.7,6.8,1.9,9.9,1.9c6,0,12-0.1,17.9-0.1c12.6-0.1,25.3-0.2,37.9-0.3c24.2-0.2,48.3-0.4,72.5-0.6
					c12.2-0.1,24.5-0.2,36.7-0.3c12.2-0.1,24.5,0.4,36.7-0.3c9.2-0.5,2.6-10.1,1.6-15.4c-2.2-11-0.7-23-0.6-34.1
					c0.2-24.5-0.5-48.9-1.9-73.4c-0.3-4.3,0.4-10.2-1.2-14.2c-1.2-3.2-4-3.4-7.1-3.4c-12.3-0.1-24.5,0.1-36.8,0.1
					c-55,0.2-110.1,0.3-165.1,0.5c-1.9,0-1.9,3,0,3c45.1-0.1,90.2-0.3,135.3-0.4c22.2-0.1,44.4-0.7,66.6-0.2
					c4.5,0.1,4.5,2.9,4.8,6.7c0.2,2.6,0.3,5.3,0.5,7.9c0.3,5.6,0.6,11.2,0.9,16.8c0.5,11.2,0.8,22.5,1,33.7
					c0.2,11.2,0.1,22.5,0,33.7c-0.1,9-0.9,18.5,1.6,27.3c0.3,1.1,0.7,2.1,1.1,3.2c1.1,2.8,1.7,1.9-0.2,4c-1.9,2-5.6,1.3-8.3,1.3
					c-5.6,0-11.3,0.1-16.9,0.1c-11.3,0.1-22.5,0.2-33.7,0.3c-45.1,0.4-90.2,0.7-135.2,1.1c-3,0-6,0-9,0.1c-1.3,0-2.9,0.3-4.1-0.1
					c-2.7-0.8-2.8-2.9-3-5.4c-0.6-6.5-0.2-13.4-0.3-19.9c-0.1-12.3-0.3-24.5-0.4-36.8c-0.3-25.5-0.6-51-0.9-76.6
					C14.8,211,11.8,211,11.8,213L11.8,213z"/>
			</g>
		</g>
		<text transform="matrix(0.5944 0 0 1 34.5 320.8069)" class="st1 st2">SEJONG</text>
	</g>
</g>
<g>
	<defs>
		<rect id="SVGID_17_" x="150" y="208.3" width="15" height="150"/>
	</defs>
	<clipPath id="SVGID_18_">
		<use xlink:href="#SVGID_17_"  style="overflow:visible;"/>
	</clipPath>
	<g class="st12">
		<g>
			<rect x="30" y="208.3" class="st0" width="225" height="150"/>
		</g>
		<g>
			<g>
				<path d="M34.3,213c0.3,24.5,0.6,49.1,0.9,73.6c0.1,12.3,0.3,24.5,0.4,36.8c0.1,5.6,0.1,11.3,0.2,16.9c0,3.4-1.2,9.6,1.3,12.5
					c2.3,2.7,6.8,1.9,9.9,1.9c6,0,12-0.1,17.9-0.1c12.6-0.1,25.3-0.2,37.9-0.3c24.2-0.2,48.3-0.4,72.5-0.6
					c12.2-0.1,24.5-0.2,36.7-0.3c12.2-0.1,24.5,0.4,36.7-0.3c9.2-0.5,2.6-10.1,1.6-15.4c-2.2-11-0.7-23-0.6-34.1
					c0.2-24.5-0.5-48.9-1.9-73.4c-0.3-4.3,0.4-10.2-1.2-14.2c-1.2-3.2-4-3.4-7.1-3.4c-12.3-0.1-24.5,0.1-36.8,0.1
					c-55,0.2-110.1,0.3-165.1,0.5c-1.9,0-1.9,3,0,3c45.1-0.1,90.2-0.3,135.3-0.4c22.2-0.1,44.4-0.7,66.6-0.2
					c4.5,0.1,4.5,2.9,4.8,6.7c0.2,2.6,0.3,5.3,0.5,7.9c0.3,5.6,0.6,11.2,0.9,16.8c0.5,11.2,0.8,22.5,1,33.7
					c0.2,11.2,0.1,22.5,0,33.7c-0.1,9-0.9,18.5,1.6,27.3c0.3,1.1,0.7,2.1,1.1,3.2c1.1,2.8,1.7,1.9-0.2,4c-1.9,2-5.6,1.3-8.3,1.3
					c-5.6,0-11.3,0.1-16.9,0.1c-11.3,0.1-22.5,0.2-33.7,0.3c-45.1,0.4-90.2,0.7-135.2,1.1c-3,0-6,0-9,0.1c-1.3,0-2.9,0.3-4.1-0.1
					c-2.7-0.8-2.8-2.9-3-5.4c-0.6-6.5-0.2-13.4-0.3-19.9c-0.1-12.3-0.3-24.5-0.4-36.8c-0.3-25.5-0.6-51-0.9-76.6
					C37.3,211,34.3,211,34.3,213L34.3,213z"/>
			</g>
		</g>
		<text transform="matrix(0.5944 0 0 1 57 320.8069)" class="st1 st2">SEJONG</text>
	</g>
</g>
<g>
	<defs>
		<rect id="SVGID_19_" x="195" y="221.1" width="15" height="150"/>
	</defs>
	<clipPath id="SVGID_20_">
		<use xlink:href="#SVGID_19_"  style="overflow:visible;"/>
	</clipPath>
	<g class="st13">
		<g>
			<rect x="60" y="221.1" class="st0" width="225" height="150"/>
		</g>
		<g>
			<g>
				<path d="M64.3,225.8c0.3,24.5,0.6,49.1,0.9,73.6c0.2,12.3,0.3,24.5,0.4,36.8c0.1,5.6,0.1,11.3,0.2,16.9c0,3.4-1.2,9.6,1.3,12.5
					c2.3,2.7,6.8,1.9,9.9,1.9c6-0.1,12-0.1,17.9-0.1c12.6-0.1,25.3-0.2,37.9-0.3c24.2-0.2,48.3-0.4,72.5-0.6
					c12.2-0.1,24.5-0.2,36.7-0.3c12.2-0.1,24.5,0.4,36.7-0.3c9.2-0.5,2.6-10.1,1.6-15.4c-2.2-11-0.7-23-0.6-34.1
					c0.2-24.5-0.5-48.9-1.9-73.4c-0.3-4.3,0.4-10.2-1.2-14.2c-1.2-3.2-4-3.4-7.1-3.4c-12.3-0.1-24.5,0.1-36.8,0.1
					c-55,0.2-110.1,0.3-165.1,0.5c-1.9,0-1.9,3,0,3c45.1-0.1,90.2-0.3,135.3-0.4c22.2-0.1,44.4-0.7,66.6-0.2
					c4.5,0.1,4.5,2.9,4.8,6.7c0.2,2.6,0.3,5.3,0.5,7.9c0.3,5.6,0.6,11.2,0.9,16.8c0.5,11.2,0.8,22.5,1,33.7
					c0.2,11.2,0.1,22.5,0,33.7c-0.1,9-0.9,18.5,1.6,27.3c0.3,1.1,0.7,2.1,1.1,3.2c1.1,2.8,1.7,1.9-0.2,4c-1.9,2-5.6,1.3-8.3,1.3
					c-5.6,0-11.3,0.1-16.9,0.1c-11.3,0.1-22.5,0.2-33.7,0.3c-45.1,0.4-90.2,0.7-135.2,1.1c-3,0-6,0.1-9,0.1c-1.3,0-2.9,0.3-4.1-0.1
					c-2.7-0.8-2.8-2.9-3-5.4c-0.6-6.5-0.2-13.3-0.3-19.9c-0.2-12.3-0.3-24.5-0.4-36.8c-0.3-25.5-0.6-51-0.9-76.6
					C67.3,223.9,64.3,223.8,64.3,225.8L64.3,225.8z"/>
			</g>
		</g>
		<text transform="matrix(0.5944 0 0 1 87 333.6366)" class="st1 st2">SEJONG</text>
	</g>
</g>
<g>
	<defs>
		<rect id="SVGID_21_" x="244.4" y="239" width="15" height="150"/>
	</defs>
	<clipPath id="SVGID_22_">
		<use xlink:href="#SVGID_21_"  style="overflow:visible;"/>
	</clipPath>
	<g class="st14">
		<g>
			<rect x="94.4" y="239" class="st0" width="225" height="150"/>
		</g>
		<g>
			<g>
				<path d="M98.7,243.7c0.3,24.5,0.6,49.1,0.9,73.6c0.2,12.3,0.3,24.5,0.5,36.8c0.1,5.6,0.1,11.3,0.2,16.9c0,3.4-1.2,9.6,1.3,12.5
					c2.3,2.7,6.8,1.9,9.9,1.9c6,0,12-0.1,17.9-0.1c12.6-0.1,25.3-0.2,37.9-0.3c24.2-0.2,48.3-0.4,72.5-0.6
					c12.2-0.1,24.5-0.2,36.7-0.3c12.2-0.1,24.5,0.4,36.7-0.3c9.2-0.5,2.6-10.1,1.6-15.4c-2.2-11-0.7-23-0.6-34.1
					c0.2-24.5-0.5-48.9-1.9-73.4c-0.3-4.3,0.4-10.2-1.2-14.2c-1.2-3.2-4-3.4-7.1-3.4c-12.3-0.1-24.5,0.1-36.8,0.1
					c-55,0.2-110.1,0.3-165.1,0.5c-1.9,0-1.9,3,0,3c45.1-0.1,90.2-0.3,135.3-0.4c22.2-0.1,44.4-0.7,66.6-0.2
					c4.5,0.1,4.5,2.9,4.8,6.7c0.2,2.6,0.3,5.3,0.5,7.9c0.3,5.6,0.6,11.2,0.9,16.8c0.5,11.2,0.8,22.5,1,33.7
					c0.2,11.2,0.1,22.5,0,33.7c-0.1,9-0.9,18.5,1.6,27.3c0.3,1.1,0.7,2.1,1.1,3.2c1.1,2.8,1.7,1.9-0.2,4c-1.9,2-5.6,1.3-8.3,1.3
					c-5.6,0-11.3,0.1-16.9,0.1c-11.3,0.1-22.5,0.2-33.7,0.3c-45.1,0.4-90.1,0.7-135.2,1.1c-3,0-6,0-9,0.1c-1.3,0-2.9,0.3-4.1-0.1
					c-2.7-0.8-2.8-2.9-3-5.4c-0.6-6.5-0.2-13.4-0.3-19.9c-0.2-12.3-0.3-24.5-0.5-36.8c-0.3-25.5-0.6-51-0.9-76.6
					C101.7,241.8,98.7,241.8,98.7,243.7L98.7,243.7z"/>
			</g>
		</g>
		<text transform="matrix(0.5944 0 0 1 121.4042 351.5728)" class="st1 st2">SEJONG</text>
	</g>
</g>
<g>
	<defs>
		<rect id="SVGID_23_" x="299.6" y="239" width="15" height="150"/>
	</defs>
	<clipPath id="SVGID_24_">
		<use xlink:href="#SVGID_23_"  style="overflow:visible;"/>
	</clipPath>
	<g class="st15">
		<g>
			<rect x="134.6" y="239" class="st0" width="225" height="150"/>
		</g>
		<g>
			<g>
				<path d="M138.9,243.7c0.3,24.5,0.6,49.1,0.9,73.6c0.1,12.3,0.3,24.5,0.4,36.8c0.1,5.6,0.1,11.3,0.2,16.9c0,3.4-1.2,9.6,1.3,12.5
					c2.3,2.7,6.8,1.9,9.9,1.9c6,0,12-0.1,17.9-0.1c12.6-0.1,25.3-0.2,37.9-0.3c24.2-0.2,48.3-0.4,72.5-0.6
					c12.2-0.1,24.5-0.2,36.7-0.3c12.2-0.1,24.5,0.4,36.7-0.3c9.2-0.5,2.6-10.1,1.6-15.4c-2.2-11-0.7-23-0.6-34.1
					c0.2-24.5-0.5-48.9-1.9-73.4c-0.3-4.3,0.4-10.2-1.2-14.2c-1.2-3.2-4-3.4-7.1-3.4c-12.3-0.1-24.5,0.1-36.8,0.1
					c-55,0.2-110.1,0.3-165.1,0.5c-1.9,0-1.9,3,0,3c45.1-0.1,90.2-0.3,135.3-0.4c22.2-0.1,44.4-0.7,66.6-0.2
					c4.5,0.1,4.5,2.9,4.8,6.7c0.2,2.6,0.3,5.3,0.5,7.9c0.3,5.6,0.6,11.2,0.9,16.8c0.5,11.2,0.8,22.5,1,33.7
					c0.2,11.2,0.1,22.5,0,33.7c-0.1,9-0.9,18.5,1.6,27.3c0.3,1.1,0.7,2.1,1.1,3.2c1.1,2.8,1.7,1.9-0.2,4c-1.9,2-5.6,1.3-8.3,1.3
					c-5.6,0-11.3,0.1-16.9,0.1c-11.3,0.1-22.5,0.2-33.7,0.3c-45.1,0.4-90.1,0.7-135.2,1.1c-3,0-6,0-9,0.1c-1.3,0-2.9,0.3-4.1-0.1
					c-2.7-0.8-2.8-2.9-3-5.4c-0.6-6.5-0.2-13.4-0.3-19.9c-0.1-12.3-0.3-24.5-0.4-36.8c-0.3-25.5-0.6-51-0.9-76.6
					C141.8,241.8,138.8,241.8,138.9,243.7L138.9,243.7z"/>
			</g>
		</g>
		<text transform="matrix(0.5944 0 0 1 161.5532 351.5728)" class="st1 st2">SEJONG</text>
	</g>
</g>
<g>
	<defs>
		<rect id="SVGID_25_" x="351" y="239" width="15" height="150"/>
	</defs>
	<clipPath id="SVGID_26_">
		<use xlink:href="#SVGID_25_"  style="overflow:visible;"/>
	</clipPath>
	<g class="st16">
		<g>
			<rect x="171" y="239" class="st0" width="225" height="150"/>
		</g>
		<g>
			<g>
				<path d="M175.3,243.7c0.3,24.5,0.6,49.1,0.9,73.6c0.2,12.3,0.3,24.5,0.5,36.8c0.1,5.6,0.1,11.3,0.2,16.9c0,3.4-1.2,9.6,1.3,12.5
					c2.3,2.7,6.8,1.9,9.9,1.9c6,0,12-0.1,18-0.1c12.6-0.1,25.3-0.2,37.9-0.3c24.2-0.2,48.3-0.4,72.5-0.6c12.2-0.1,24.5-0.2,36.7-0.3
					c12.2-0.1,24.5,0.4,36.7-0.3c9.2-0.5,2.6-10.1,1.6-15.4c-2.2-11-0.7-23-0.6-34.1c0.2-24.5-0.5-48.9-1.9-73.4
					c-0.3-4.3,0.4-10.2-1.2-14.2c-1.2-3.2-4-3.4-7.1-3.4c-12.3-0.1-24.5,0.1-36.8,0.1c-55,0.2-110.1,0.3-165.1,0.5c-1.9,0-1.9,3,0,3
					c45.1-0.1,90.2-0.3,135.3-0.4c22.2-0.1,44.5-0.7,66.6-0.2c4.5,0.1,4.5,2.9,4.8,6.7c0.2,2.6,0.3,5.3,0.5,7.9
					c0.3,5.6,0.6,11.2,0.9,16.8c0.5,11.2,0.8,22.5,1,33.7c0.2,11.2,0.1,22.5,0,33.7c-0.1,9-0.9,18.5,1.6,27.3
					c0.3,1.1,0.7,2.1,1.1,3.2c1.1,2.8,1.7,1.9-0.2,4c-1.9,2-5.6,1.3-8.3,1.3c-5.6,0-11.3,0.1-16.9,0.1c-11.3,0.1-22.5,0.2-33.7,0.3
					c-45.1,0.4-90.2,0.7-135.2,1.1c-3,0-6,0-9,0.1c-1.3,0-2.9,0.3-4.1-0.1c-2.7-0.8-2.8-2.9-3-5.4c-0.6-6.5-0.2-13.4-0.3-19.9
					c-0.2-12.3-0.3-24.5-0.5-36.8c-0.3-25.5-0.6-51-0.9-76.6C178.2,241.8,175.2,241.8,175.3,243.7L175.3,243.7z"/>
			</g>
		</g>
		<text transform="matrix(0.5944 0 0 1 197.9521 351.5728)" class="st1 st2">SEJONG</text>
	</g>
</g>
<g>
	<defs>
		<rect id="SVGID_27_" x="399.9" y="239" width="15" height="150"/>
	</defs>
	<clipPath id="SVGID_28_">
		<use xlink:href="#SVGID_27_"  style="overflow:visible;"/>
	</clipPath>
	<g class="st17">
		<g>
			<rect x="204.9" y="239" class="st0" width="225" height="150"/>
		</g>
		<g>
			<g>
				<path d="M209.2,243.7c0.3,24.5,0.6,49.1,0.9,73.6c0.1,12.3,0.3,24.5,0.4,36.8c0.1,5.6,0.1,11.3,0.2,16.9c0,3.4-1.2,9.6,1.3,12.5
					c2.3,2.7,6.8,1.9,9.9,1.9c6,0,12-0.1,17.9-0.1c12.6-0.1,25.3-0.2,37.9-0.3c24.2-0.2,48.3-0.4,72.5-0.6
					c12.2-0.1,24.5-0.2,36.7-0.3c12.2-0.1,24.5,0.4,36.7-0.3c9.2-0.5,2.6-10.1,1.6-15.4c-2.2-11-0.7-23-0.6-34.1
					c0.2-24.5-0.5-48.9-1.9-73.4c-0.3-4.3,0.4-10.2-1.2-14.2c-1.2-3.2-4-3.4-7.1-3.4c-12.3-0.1-24.5,0.1-36.8,0.1
					c-55,0.2-110.1,0.3-165.1,0.5c-1.9,0-1.9,3,0,3c45.1-0.1,90.2-0.3,135.3-0.4c22.2-0.1,44.5-0.7,66.6-0.2
					c4.5,0.1,4.5,2.9,4.8,6.7c0.2,2.6,0.3,5.3,0.5,7.9c0.3,5.6,0.6,11.2,0.9,16.8c0.5,11.2,0.8,22.5,1,33.7
					c0.2,11.2,0.1,22.5,0,33.7c-0.1,9-0.9,18.5,1.6,27.3c0.3,1.1,0.7,2.1,1.1,3.2c1.1,2.8,1.7,1.9-0.2,4c-1.9,2-5.6,1.3-8.3,1.3
					c-5.6,0-11.3,0.1-16.9,0.1c-11.3,0.1-22.5,0.2-33.7,0.3c-45.1,0.4-90.2,0.7-135.2,1.1c-3,0-6,0-9,0.1c-1.3,0-2.9,0.3-4.1-0.1
					c-2.7-0.8-2.8-2.9-3-5.4c-0.6-6.5-0.2-13.4-0.3-19.9c-0.1-12.3-0.3-24.5-0.4-36.8c-0.3-25.5-0.6-51-0.9-76.6
					C212.2,241.8,209.2,241.8,209.2,243.7L209.2,243.7z"/>
			</g>
		</g>
		<text transform="matrix(0.5944 0 0 1 231.8936 351.5729)" class="st1 st2">SEJONG</text>
	</g>
</g>
<g>
	<defs>
		<rect id="SVGID_29_" x="462.3" y="258.3" width="15" height="150"/>
	</defs>
	<clipPath id="SVGID_30_">
		<use xlink:href="#SVGID_29_"  style="overflow:visible;"/>
	</clipPath>
	<g class="st18">
		<g>
			<rect x="252.3" y="258.3" class="st0" width="225" height="150"/>
		</g>
		<g>
			<g>
				<path d="M256.6,263c0.3,24.5,0.6,49.1,0.9,73.6c0.1,12.3,0.3,24.5,0.5,36.8c0.1,5.6,0.1,11.3,0.2,16.9c0,3.4-1.2,9.6,1.3,12.5
					c2.3,2.7,6.8,1.9,9.9,1.9c6-0.1,12-0.1,17.9-0.1c12.6-0.1,25.3-0.2,37.9-0.3c24.2-0.2,48.3-0.4,72.5-0.6
					c12.2-0.1,24.5-0.2,36.7-0.3c12.2-0.1,24.5,0.4,36.7-0.3c9.2-0.5,2.6-10.1,1.6-15.4c-2.2-11-0.7-23-0.6-34.1
					c0.2-24.5-0.5-48.9-1.9-73.4c-0.3-4.3,0.4-10.2-1.2-14.2c-1.2-3.2-4-3.4-7.1-3.4c-12.3-0.1-24.5,0.1-36.8,0.1
					c-55,0.2-110.1,0.3-165.1,0.5c-1.9,0-1.9,3,0,3c45.1-0.1,90.2-0.3,135.3-0.4c22.2-0.1,44.5-0.7,66.6-0.2
					c4.5,0.1,4.5,2.9,4.8,6.7c0.2,2.6,0.3,5.3,0.5,7.9c0.3,5.6,0.6,11.2,0.9,16.8c0.5,11.2,0.8,22.5,1,33.7
					c0.2,11.2,0.1,22.5,0,33.7c-0.1,9-0.9,18.5,1.6,27.3c0.3,1.1,0.7,2.1,1.1,3.2c1.1,2.8,1.7,1.9-0.2,4c-1.9,2-5.6,1.3-8.3,1.3
					c-5.6,0-11.3,0.1-16.9,0.1c-11.3,0.1-22.5,0.2-33.7,0.3c-45.1,0.4-90.2,0.7-135.2,1.1c-3,0-6,0.1-9,0.1c-1.3,0-2.9,0.3-4.1-0.1
					c-2.7-0.8-2.8-2.9-3-5.4c-0.6-6.5-0.2-13.4-0.3-19.9c-0.2-12.3-0.3-24.5-0.5-36.8c-0.3-25.5-0.6-51-0.9-76.6
					C259.6,261.1,256.6,261.1,256.6,263L256.6,263z"/>
			</g>
		</g>
		<text transform="matrix(0.5944 0 0 1 279.2872 370.862)" class="st1 st2">SEJONG</text>
	</g>
</g>
</svg>
