<?xml version="1.0" encoding="utf-8"?>
<!-- Generator: Adobe Illustrator 23.0.0, SVG Export Plug-In . SVG Version: 6.00 Build 0)  -->
<svg version="1.1" id="Layer_1" xmlns="http://www.w3.org/2000/svg" xmlns:xlink="http://www.w3.org/1999/xlink" x="0px" y="0px"
	 viewBox="0 0 15 150" style="enable-background:new 0 0 15 150;" xml:space="preserve">
<style type="text/css">
	.st0{clip-path:url(#SVGID_2_);}
	.st1{fill:#FFFFFF;}
	.st2{enable-background:new    ;}
	.st3{clip-path:url(#SVGID_4_);}
	.st4{clip-path:url(#SVGID_6_);}
	.st5{clip-path:url(#SVGID_8_);}
	.st6{clip-path:url(#SVGID_10_);}
	.st7{clip-path:url(#SVGID_12_);}
	.st8{clip-path:url(#SVGID_14_);}
	.st9{clip-path:url(#SVGID_16_);}
	.st10{clip-path:url(#SVGID_18_);}
	.st11{clip-path:url(#SVGID_20_);}
	.st12{clip-path:url(#SVGID_22_);}
	.st13{clip-path:url(#SVGID_24_);}
	.st14{clip-path:url(#SVGID_26_);}
	.st15{clip-path:url(#SVGID_28_);}
	.st16{clip-path:url(#SVGID_30_);}
</style>
<g>
	<defs>
		<rect id="SVGID_1_" x="35" width="15" height="150"/>
	</defs>
	<clipPath id="SVGID_2_">
		<use xlink:href="#SVGID_1_"  style="overflow:visible;"/>
	</clipPath>
	<g class="st0">
		<g>
			<rect x="-159.7" class="st1" width="225" height="150"/>
		</g>
		<g>
			<g>
				<path d="M-156.66,4.8c2.57,35.06,3.32,70.23,2.14,105.37c-0.29,8.62-0.72,17.23-1.21,25.83c-0.27,4.64-0.25,9.3,5.34,10.05
					c7.92,1.06,16.63,0.07,24.61,0.07c8.63,0,17.27,0,25.9,0c35.2,0,70.4,0,105.6,0c8.63,0,17.27,0,25.9,0c4.32,0,8.63,0,12.95,0
					c4.03,0,8.39,0.52,12.37-0.13c3.85-0.64,5.83-3.25,5.46-7.15c-0.34-3.66-1.65-7.3-2.34-10.92c-0.9-4.7-1.55-9.45-2.01-14.21
					c-3.57-36.88,3.68-73.88-0.47-110.75c-0.09-0.78-0.62-1.53-1.5-1.5C-13.7,3.97-83.54,5.01-153.36,4.6c-1.93-0.01-1.93,2.99,0,3
					C-83.54,8.01-13.7,6.97,56.08,4.47c-0.5-0.5-1-1-1.5-1.5c3.39,30.12-0.74,60.27-0.52,90.44c0.05,7.09,0.35,14.18,1.07,21.23
					c0.33,3.19,0.73,6.37,1.24,9.54c0.65,4.07,2.47,8.63,2.6,12.69c0.19,6.23-3.91,6.26-8.43,6.26c-3.98,0-7.97,0-11.95,0
					c-8.63,0-17.27,0-25.9,0c-31.88,0-63.76,0-95.64,0c-15.94,0-31.88,0-47.82,0c-3.32,0-6.64,0-9.96,0
					c-4.86,0-10.93,1.33-12.13-5.14c-0.65-3.53,0.49-8.31,0.67-11.92c0.23-4.64,0.43-9.27,0.6-13.91
					c1.28-35.8,0.56-71.64-2.07-107.36C-153.8,2.89-156.8,2.87-156.66,4.8L-156.66,4.8z"/>
			</g>
		</g>
		<g class="st2">
			<path d="M-10.81,96.11h-8.65l4.71-6.26l2.98-15.41l3.22,0.63L-10.81,96.11z M8.83,96.11H4.89l-4.61-4.24l-12.34-24.56l5.19-2.45
				l11.8,26.38L6.9,66.6l8.02-1.74l-3.45,8.79L8.83,96.11z"/>
		</g>
	</g>
</g>
<g>
	<defs>
		<rect id="SVGID_3_" x="70" width="15" height="150"/>
	</defs>
	<clipPath id="SVGID_4_">
		<use xlink:href="#SVGID_3_"  style="overflow:visible;"/>
	</clipPath>
	<g class="st3">
		<g>
			<rect x="-139.7" class="st1" width="225" height="150"/>
		</g>
		<g>
			<g>
				<path d="M-136.66,4.8c2.57,35.06,3.32,70.23,2.14,105.37c-0.29,8.62-0.72,17.23-1.21,25.83c-0.27,4.64-0.25,9.3,5.34,10.05
					c7.92,1.06,16.63,0.07,24.61,0.07c8.63,0,17.27,0,25.9,0c35.2,0,70.4,0,105.6,0c8.63,0,17.27,0,25.9,0c4.32,0,8.63,0,12.95,0
					c4.03,0,8.39,0.52,12.37-0.13c3.85-0.64,5.83-3.25,5.46-7.15c-0.34-3.66-1.65-7.3-2.34-10.92c-0.9-4.7-1.55-9.45-2.01-14.21
					c-3.57-36.88,3.68-73.88-0.47-110.75c-0.09-0.78-0.62-1.53-1.5-1.5C6.3,3.97-63.54,5.01-133.36,4.6c-1.93-0.01-1.93,2.99,0,3
					C-63.54,8.01,6.3,6.97,76.08,4.47c-0.5-0.5-1-1-1.5-1.5c3.39,30.12-0.74,60.27-0.52,90.44c0.05,7.09,0.35,14.18,1.07,21.23
					c0.33,3.19,0.73,6.37,1.24,9.54c0.65,4.07,2.47,8.63,2.6,12.69c0.19,6.23-3.91,6.26-8.43,6.26c-3.98,0-7.97,0-11.95,0
					c-8.63,0-17.27,0-25.9,0c-31.88,0-63.76,0-95.64,0c-15.94,0-31.88,0-47.82,0c-3.32,0-6.64,0-9.96,0
					c-4.86,0-10.93,1.33-12.13-5.14c-0.65-3.53,0.49-8.31,0.67-11.92c0.23-4.64,0.43-9.27,0.6-13.91
					c1.28-35.8,0.56-71.64-2.07-107.36C-133.8,2.89-136.8,2.87-136.66,4.8L-136.66,4.8z"/>
			</g>
		</g>
		<g class="st2">
			<path d="M9.19,96.11H0.54l4.71-6.26l2.98-15.41l3.22,0.63L9.19,96.11z M28.83,96.11h-3.94l-4.61-4.24L7.94,67.31l5.19-2.45
				l11.8,26.38L26.9,66.6l8.02-1.74l-3.45,8.79L28.83,96.11z"/>
		</g>
	</g>
</g>
<g>
	<defs>
		<rect id="SVGID_13_" width="15" height="150"/>
	</defs>
	<clipPath id="SVGID_6_">
		<use xlink:href="#SVGID_13_"  style="overflow:visible;"/>
	</clipPath>
	<g class="st4">
		<g>
			<rect x="-179.7" class="st1" width="225" height="150"/>
		</g>
		<g>
			<g>
				<path d="M-176.66,4.8c2.57,35.06,3.32,70.23,2.14,105.37c-0.29,8.62-0.72,17.23-1.21,25.83c-0.27,4.64-0.25,9.3,5.34,10.05
					c7.92,1.06,16.63,0.07,24.61,0.07c8.63,0,17.27,0,25.9,0c35.2,0,70.4,0,105.6,0c8.63,0,17.27,0,25.9,0c4.32,0,8.63,0,12.95,0
					c4.03,0,8.39,0.52,12.37-0.13c3.85-0.64,5.83-3.25,5.46-7.15c-0.34-3.66-1.65-7.3-2.34-10.92c-0.9-4.7-1.55-9.45-2.01-14.21
					c-3.57-36.88,3.68-73.88-0.47-110.75c-0.09-0.78-0.62-1.53-1.5-1.5C-33.7,3.97-103.54,5.01-173.36,4.6c-1.93-0.01-1.93,2.99,0,3
					C-103.54,8.01-33.7,6.97,36.08,4.47c-0.5-0.5-1-1-1.5-1.5c3.39,30.12-0.74,60.27-0.52,90.44c0.05,7.09,0.35,14.18,1.07,21.23
					c0.33,3.19,0.73,6.37,1.24,9.54c0.65,4.07,2.47,8.63,2.6,12.69c0.19,6.23-3.91,6.26-8.43,6.26c-3.98,0-7.97,0-11.95,0
					c-8.63,0-17.27,0-25.9,0c-31.88,0-63.76,0-95.64,0c-15.94,0-31.88,0-47.82,0c-3.32,0-6.64,0-9.96,0
					c-4.86,0-10.93,1.33-12.13-5.14c-0.65-3.53,0.49-8.31,0.67-11.92c0.23-4.64,0.43-9.27,0.6-13.91
					c1.28-35.8,0.56-71.64-2.07-107.36C-173.8,2.89-176.8,2.87-176.66,4.8L-176.66,4.8z"/>
			</g>
		</g>
		<g class="st2">
			<path d="M22.02,71.7l-7.41-1.44c-0.61-0.12-1.23,0.15-1.57,0.67L2.2,87.76c-0.42,0.66-0.28,1.53,0.33,2.01l4.51,3.58
				c0.46,0.36,1.08,0.43,1.6,0.18l8.85-4.27c0.62-0.3,1.36-0.14,1.81,0.38l0,0c0.54,0.63,0.47,1.57-0.14,2.12l-1.79,1.59
				c-0.14,0.13-0.31,0.23-0.49,0.29l-9.77,3.57c-0.5,0.18-1.07,0.09-1.48-0.25l-7.84-6.41c-0.59-0.49-0.73-1.34-0.32-1.99
				L9.13,67.34c0.32-0.5,2.5-0.48,3.09-0.39l8.94,1.25c0.21,0.03,0.41,0.1,0.6,0.22l1.26,0.79c0.59,0.37,0.79,1.14,0.46,1.75
				l-0.05,0.08C23.15,71.54,22.58,71.81,22.02,71.7z M24.4,93.24l-1.64,2.7c-0.29,0.48-0.82,0.76-0.08,2.35l-0.17,3.1
				c-2.25-1.67-2.9-5.67-2.68-6.59l1.25-5.21c0.24-1.01-0.58-1.96-1.61-1.86l-7.3,0.66c-0.66,0.06-1.27-0.39-1.41-1.04l0,0
				c-0.14-0.64,0.22-1.28,0.83-1.51l3.37-1.25c0.17-0.06,0.36-0.1,0.54-0.09l8.69,0.1c0.93,0.01,1.64,0.85,1.48,1.77l-1.09,6.36
				C24.57,92.9,24.5,93.08,24.4,93.24z"/>
		</g>
	</g>
</g>
</svg>
