<?xml version="1.0" encoding="utf-8"?>
<!-- Generator: Adobe Illustrator 23.0.0, SVG Export Plug-In . SVG Version: 6.00 Build 0)  -->
<svg version="1.1" id="Layer_1" xmlns="http://www.w3.org/2000/svg" xmlns:xlink="http://www.w3.org/1999/xlink" x="0px" y="0px"
	 viewBox="0 0 15 150" style="enable-background:new 0 0 15 150;" xml:space="preserve">
<style type="text/css">
	.st0{clip-path:url(#SVGID_2_);}
	.st1{fill:#FFFFFF;}
	.st2{enable-background:new    ;}
	.st3{clip-path:url(#SVGID_4_);}
	.st4{clip-path:url(#SVGID_6_);}
	.st5{clip-path:url(#SVGID_8_);}
	.st6{clip-path:url(#SVGID_10_);}
	.st7{clip-path:url(#SVGID_12_);}
	.st8{clip-path:url(#SVGID_14_);}
	.st9{clip-path:url(#SVGID_16_);}
	.st10{clip-path:url(#SVGID_18_);}
	.st11{clip-path:url(#SVGID_20_);}
	.st12{clip-path:url(#SVGID_22_);}
	.st13{clip-path:url(#SVGID_24_);}
	.st14{clip-path:url(#SVGID_26_);}
	.st15{clip-path:url(#SVGID_28_);}
	.st16{clip-path:url(#SVGID_30_);}
</style>
<g>
	<defs>
		<rect id="SVGID_17_" width="15" height="150"/>
	</defs>
	<clipPath id="SVGID_2_">
		<use xlink:href="#SVGID_17_"  style="overflow:visible;"/>
	</clipPath>
	<g class="st0">
		<g>
			<rect x="-104.9" class="st1" width="225" height="150"/>
		</g>
		<g>
			<g>
				<path d="M-101.86,4.8c2.57,35.06,3.32,70.23,2.14,105.37c-0.29,8.62-0.72,17.23-1.21,25.83c-0.27,4.64-0.25,9.3,5.34,10.05
					c7.92,1.06,16.63,0.07,24.61,0.07c8.63,0,17.27,0,25.9,0c35.2,0,70.4,0,105.6,0c8.63,0,17.27,0,25.9,0c4.32,0,8.63,0,12.95,0
					c4.03,0,8.39,0.52,12.37-0.13c3.85-0.64,5.83-3.25,5.46-7.15c-0.34-3.66-1.65-7.3-2.34-10.92c-0.9-4.7-1.55-9.45-2.01-14.21
					c-3.57-36.88,3.68-73.88-0.47-110.75c-0.09-0.78-0.62-1.53-1.5-1.5C41.1,3.97-28.74,5.01-98.56,4.6c-1.93-0.01-1.93,2.99,0,3
					C-28.74,8.01,41.1,6.97,110.88,4.47c-0.5-0.5-1-1-1.5-1.5c3.39,30.12-0.74,60.27-0.52,90.44c0.05,7.09,0.35,14.18,1.07,21.23
					c0.33,3.19,0.73,6.37,1.24,9.54c0.65,4.07,2.47,8.63,2.6,12.69c0.19,6.23-3.91,6.26-8.43,6.26c-3.98,0-7.97,0-11.95,0
					c-8.63,0-17.27,0-25.9,0c-31.88,0-63.76,0-95.64,0c-15.94,0-31.88,0-47.82,0c-3.32,0-6.64,0-9.96,0
					c-4.86,0-10.93,1.33-12.13-5.14c-0.65-3.53,0.49-8.31,0.67-11.92c0.23-4.64,0.43-9.27,0.6-13.91
					c1.28-35.8,0.56-71.64-2.07-107.36C-99,2.89-102,2.87-101.86,4.8L-101.86,4.8z"/>
			</g>
		</g>
		<g class="st2">
			<path d="M8.37,95.9l-7.49-7.67c-0.77-0.79-0.76-2.05,0.03-2.83l18.21-17.88c0.63-0.62,1.59-0.75,2.36-0.33h0
				c1.19,0.65,1.4,2.26,0.43,3.2L6.16,85.53c-0.82,0.78-0.82,2.09-0.01,2.88l3.53,3.43c0.55,0.53,1.35,0.71,2.07,0.45l13.25-4.74
				c1.26-0.45,1.73-1.99,0.94-3.07l-5.9-8.06c-0.79-1.08-0.31-2.63,0.95-3.07l0.23-0.08c0.83-0.29,1.76,0,2.28,0.71l8.56,11.75
				c0.78,1.07,0.32,2.6-0.93,3.06l-20.64,7.59C9.75,96.65,8.92,96.46,8.37,95.9z"/>
		</g>
	</g>
</g>
<g>
	<defs>
		<rect id="SVGID_19_" x="-35" width="15" height="150"/>
	</defs>
	<clipPath id="SVGID_4_">
		<use xlink:href="#SVGID_19_"  style="overflow:visible;"/>
	</clipPath>
	<g class="st3">
		<g>
			<rect x="-124.9" class="st1" width="225" height="150"/>
		</g>
		<g>
			<g>
				<path d="M-121.86,4.8c2.57,35.06,3.32,70.23,2.14,105.37c-0.29,8.62-0.72,17.23-1.21,25.83c-0.27,4.64-0.25,9.3,5.34,10.05
					c7.92,1.06,16.63,0.07,24.61,0.07c8.63,0,17.27,0,25.9,0c35.2,0,70.4,0,105.6,0c8.63,0,17.27,0,25.9,0c4.32,0,8.63,0,12.95,0
					c4.03,0,8.39,0.52,12.37-0.13c3.85-0.64,5.83-3.25,5.46-7.15c-0.34-3.66-1.65-7.3-2.34-10.92c-0.9-4.7-1.55-9.45-2.01-14.21
					c-3.57-36.88,3.68-73.88-0.47-110.75c-0.09-0.78-0.62-1.53-1.5-1.5C21.1,3.97-48.74,5.01-118.56,4.6c-1.93-0.01-1.93,2.99,0,3
					C-48.74,8.01,21.1,6.97,90.88,4.47c-0.5-0.5-1-1-1.5-1.5c3.39,30.12-0.74,60.27-0.52,90.44c0.05,7.09,0.35,14.18,1.07,21.23
					c0.33,3.19,0.73,6.37,1.24,9.54c0.65,4.07,2.47,8.63,2.6,12.69c0.19,6.23-3.91,6.26-8.43,6.26c-3.98,0-7.97,0-11.95,0
					c-8.63,0-17.27,0-25.9,0c-31.88,0-63.76,0-95.64,0c-15.94,0-31.88,0-47.82,0c-3.32,0-6.64,0-9.96,0
					c-4.86,0-10.93,1.33-12.13-5.14c-0.65-3.53,0.49-8.31,0.67-11.92c0.23-4.64,0.43-9.27,0.6-13.91
					c1.28-35.8,0.56-71.64-2.07-107.36C-119,2.89-122,2.87-121.86,4.8L-121.86,4.8z"/>
			</g>
		</g>
		<g class="st2">
			<path d="M-11.63,95.9l-7.49-7.67c-0.77-0.79-0.76-2.05,0.03-2.83l18.21-17.88c0.63-0.62,1.59-0.75,2.36-0.33h0
				c1.19,0.65,1.4,2.26,0.43,3.2l-15.74,15.13c-0.82,0.78-0.82,2.09-0.01,2.88l3.53,3.43c0.55,0.53,1.35,0.71,2.07,0.45l13.25-4.74
				c1.26-0.45,1.73-1.99,0.94-3.07l-5.9-8.06c-0.79-1.08-0.31-2.63,0.95-3.07l0.23-0.08c0.83-0.29,1.76,0,2.28,0.71l8.56,11.75
				c0.78,1.07,0.32,2.6-0.93,3.06l-20.64,7.59C-10.25,96.65-11.08,96.46-11.63,95.9z"/>
		</g>
	</g>
</g>
<g>
	<defs>
		<rect id="SVGID_21_" x="-70" width="15" height="150"/>
	</defs>
	<clipPath id="SVGID_6_">
		<use xlink:href="#SVGID_21_"  style="overflow:visible;"/>
	</clipPath>
	<g class="st4">
		<g>
			<rect x="-144.9" class="st1" width="225" height="150"/>
		</g>
		<g>
			<g>
				<path d="M-141.86,4.8c2.57,35.06,3.32,70.23,2.14,105.37c-0.29,8.62-0.72,17.23-1.21,25.83c-0.27,4.64-0.25,9.3,5.34,10.05
					c7.92,1.06,16.63,0.07,24.61,0.07c8.63,0,17.27,0,25.9,0c35.2,0,70.4,0,105.6,0c8.63,0,17.27,0,25.9,0c4.32,0,8.63,0,12.95,0
					c4.03,0,8.39,0.52,12.37-0.13c3.85-0.64,5.83-3.25,5.46-7.15c-0.34-3.66-1.65-7.3-2.34-10.92c-0.9-4.7-1.55-9.45-2.01-14.21
					c-3.57-36.88,3.68-73.88-0.47-110.75c-0.09-0.78-0.62-1.53-1.5-1.5C1.1,3.97-68.74,5.01-138.56,4.6c-1.93-0.01-1.93,2.99,0,3
					C-68.74,8.01,1.1,6.97,70.88,4.47c-0.5-0.5-1-1-1.5-1.5c3.39,30.12-0.74,60.27-0.52,90.44c0.05,7.09,0.35,14.18,1.07,21.23
					c0.33,3.19,0.73,6.37,1.24,9.54c0.65,4.07,2.47,8.63,2.6,12.69c0.19,6.23-3.91,6.26-8.43,6.26c-3.98,0-7.97,0-11.95,0
					c-8.63,0-17.27,0-25.9,0c-31.88,0-63.76,0-95.64,0c-15.94,0-31.88,0-47.82,0c-3.32,0-6.64,0-9.96,0
					c-4.86,0-10.93,1.33-12.13-5.14c-0.65-3.53,0.49-8.31,0.67-11.92c0.23-4.64,0.43-9.27,0.6-13.91
					c1.28-35.8,0.56-71.64-2.07-107.36C-139,2.89-142,2.87-141.86,4.8L-141.86,4.8z"/>
			</g>
		</g>
		<g class="st2">
			<path d="M3.99,96.11h-8.65l4.71-6.26l2.98-15.41l3.22,0.63L3.99,96.11z M23.62,96.11h-3.94l-4.61-4.24L2.74,67.31l5.19-2.45
				l11.8,26.38L21.7,66.6l8.02-1.74l-3.45,8.79L23.62,96.11z"/>
		</g>
	</g>
</g>
<g>
	<defs>
		<rect id="SVGID_23_" x="-105" width="15" height="150"/>
	</defs>
	<clipPath id="SVGID_8_">
		<use xlink:href="#SVGID_23_"  style="overflow:visible;"/>
	</clipPath>
	<g class="st5">
		<g>
			<rect x="-164.9" class="st1" width="225" height="150"/>
		</g>
		<g>
			<g>
				<path d="M-161.86,4.8c2.57,35.06,3.32,70.23,2.14,105.37c-0.29,8.62-0.72,17.23-1.21,25.83c-0.27,4.64-0.25,9.3,5.34,10.05
					c7.92,1.06,16.63,0.07,24.61,0.07c8.63,0,17.27,0,25.9,0c35.2,0,70.4,0,105.6,0c8.63,0,17.27,0,25.9,0c4.32,0,8.63,0,12.95,0
					c4.03,0,8.39,0.52,12.37-0.13c3.85-0.64,5.83-3.25,5.46-7.15c-0.34-3.66-1.65-7.3-2.34-10.92c-0.9-4.7-1.55-9.45-2.01-14.21
					c-3.57-36.88,3.68-73.88-0.47-110.75c-0.09-0.78-0.62-1.53-1.5-1.5C-18.9,3.97-88.74,5.01-158.56,4.6c-1.93-0.01-1.93,2.99,0,3
					C-88.74,8.01-18.9,6.97,50.88,4.47c-0.5-0.5-1-1-1.5-1.5c3.39,30.12-0.74,60.27-0.52,90.44c0.05,7.09,0.35,14.18,1.07,21.23
					c0.33,3.19,0.73,6.37,1.24,9.54c0.65,4.07,2.47,8.63,2.6,12.69c0.19,6.23-3.91,6.26-8.43,6.26c-3.98,0-7.97,0-11.95,0
					c-8.63,0-17.27,0-25.9,0c-31.88,0-63.76,0-95.64,0c-15.94,0-31.88,0-47.82,0c-3.32,0-6.64,0-9.96,0
					c-4.86,0-10.93,1.33-12.13-5.14c-0.65-3.53,0.49-8.31,0.67-11.92c0.23-4.64,0.43-9.27,0.6-13.91
					c1.28-35.8,0.56-71.64-2.07-107.36C-159,2.89-162,2.87-161.86,4.8L-161.86,4.8z"/>
			</g>
		</g>
		<g class="st2">
			<path d="M-16.01,96.11h-8.65l4.71-6.26l2.98-15.41l3.22,0.63L-16.01,96.11z M3.62,96.11h-3.94l-4.61-4.24l-12.34-24.56l5.19-2.45
				l11.8,26.38L1.7,66.6l8.02-1.74l-3.45,8.79L3.62,96.11z"/>
			<path d="M36.82,71.7l-7.41-1.44c-0.61-0.12-1.23,0.15-1.57,0.67L17,87.76c-0.42,0.66-0.28,1.53,0.33,2.01l4.51,3.58
				c0.46,0.36,1.08,0.43,1.6,0.18l8.85-4.27c0.62-0.3,1.36-0.14,1.81,0.38l0,0c0.54,0.63,0.47,1.57-0.14,2.12l-1.79,1.59
				c-0.14,0.13-0.31,0.23-0.49,0.29l-9.77,3.57c-0.5,0.18-1.07,0.09-1.48-0.25l-7.84-6.41c-0.59-0.49-0.73-1.34-0.32-1.99
				l11.66-21.23c0.32-0.5,2.5-0.48,3.09-0.39l8.94,1.25c0.21,0.03,0.41,0.1,0.6,0.22l1.26,0.79c0.59,0.37,0.79,1.14,0.46,1.75
				l-0.05,0.08C37.95,71.54,37.38,71.81,36.82,71.7z M39.2,93.24l-1.64,2.7c-0.29,0.48-0.82,0.76-0.08,2.35l-0.17,3.1
				c-2.25-1.67-2.9-5.67-2.68-6.59l1.25-5.21c0.24-1.01-0.58-1.96-1.61-1.86l-7.3,0.66c-0.66,0.06-1.27-0.39-1.41-1.04l0,0
				c-0.14-0.64,0.22-1.28,0.83-1.51l3.37-1.25c0.17-0.06,0.36-0.1,0.54-0.09l8.69,0.1c0.93,0.01,1.64,0.85,1.48,1.77l-1.09,6.36
				C39.37,92.9,39.3,93.08,39.2,93.24z"/>
		</g>
	</g>
</g>
</svg>
