<?xml version="1.0" encoding="utf-8"?>
<!-- Generator: Adobe Illustrator 23.0.0, SVG Export Plug-In . SVG Version: 6.00 Build 0)  -->
<svg version="1.1" id="Layer_1" xmlns="http://www.w3.org/2000/svg" xmlns:xlink="http://www.w3.org/1999/xlink" x="0px" y="0px"
	 viewBox="0 0 15 150" style="enable-background:new 0 0 15 150;" xml:space="preserve">
<style type="text/css">
	.st0{clip-path:url(#SVGID_2_);}
	.st1{fill:#FFFFFF;}
	.st2{enable-background:new    ;}
	.st3{clip-path:url(#SVGID_4_);}
	.st4{clip-path:url(#SVGID_6_);}
	.st5{clip-path:url(#SVGID_8_);}
	.st6{clip-path:url(#SVGID_10_);}
	.st7{clip-path:url(#SVGID_12_);}
	.st8{clip-path:url(#SVGID_14_);}
	.st9{clip-path:url(#SVGID_16_);}
	.st10{clip-path:url(#SVGID_18_);}
	.st11{clip-path:url(#SVGID_20_);}
	.st12{clip-path:url(#SVGID_22_);}
	.st13{clip-path:url(#SVGID_24_);}
	.st14{clip-path:url(#SVGID_26_);}
	.st15{clip-path:url(#SVGID_28_);}
	.st16{clip-path:url(#SVGID_30_);}
</style>
<g>
	<defs>
		<rect id="SVGID_5_" x="35" width="15" height="150"/>
	</defs>
	<clipPath id="SVGID_2_">
		<use xlink:href="#SVGID_5_"  style="overflow:visible;"/>
	</clipPath>
	<g class="st0">
		<g>
			<rect x="-114.8" class="st1" width="225" height="150"/>
		</g>
		<g>
			<g>
				<path d="M-111.76,4.8c2.57,35.06,3.32,70.23,2.14,105.37c-0.29,8.62-0.72,17.23-1.21,25.83c-0.27,4.64-0.25,9.3,5.34,10.05
					c7.92,1.06,16.63,0.07,24.61,0.07c8.63,0,17.27,0,25.9,0c35.2,0,70.4,0,105.6,0c8.63,0,17.27,0,25.9,0c4.32,0,8.63,0,12.95,0
					c4.03,0,8.39,0.52,12.37-0.13c3.85-0.64,5.83-3.25,5.46-7.15c-0.34-3.66-1.65-7.3-2.34-10.92c-0.9-4.7-1.55-9.45-2.01-14.21
					c-3.57-36.88,3.68-73.88-0.47-110.75c-0.09-0.78-0.62-1.53-1.5-1.5C31.2,3.97-38.64,5.01-108.46,4.6c-1.93-0.01-1.93,2.99,0,3
					C-38.64,8.01,31.2,6.97,100.98,4.47c-0.5-0.5-1-1-1.5-1.5c3.39,30.12-0.74,60.27-0.52,90.44c0.05,7.09,0.35,14.18,1.07,21.23
					c0.33,3.19,0.73,6.37,1.24,9.54c0.65,4.07,2.47,8.63,2.6,12.69c0.19,6.23-3.91,6.26-8.43,6.26c-3.98,0-7.97,0-11.95,0
					c-8.63,0-17.27,0-25.9,0c-31.88,0-63.76,0-95.64,0c-15.94,0-31.88,0-47.82,0c-3.32,0-6.64,0-9.96,0
					c-4.86,0-10.93,1.33-12.13-5.14c-0.65-3.53,0.49-8.31,0.67-11.92c0.23-4.64,0.43-9.27,0.6-13.91
					c1.28-35.8,0.56-71.64-2.07-107.36C-108.9,2.89-111.9,2.87-111.76,4.8L-111.76,4.8z"/>
			</g>
		</g>
		<g class="st2">
			<path d="M-1.53,95.9l-7.49-7.67c-0.77-0.79-0.76-2.05,0.03-2.83L9.22,67.52c0.63-0.62,1.59-0.75,2.36-0.33h0
				c1.19,0.65,1.4,2.26,0.43,3.2L-3.74,85.53c-0.82,0.78-0.82,2.09-0.01,2.88l3.53,3.43c0.55,0.53,1.35,0.71,2.07,0.45l13.25-4.74
				c1.26-0.45,1.73-1.99,0.94-3.07l-5.9-8.06c-0.79-1.08-0.31-2.63,0.95-3.07l0.23-0.08c0.83-0.29,1.76,0,2.28,0.71l8.56,11.75
				c0.78,1.07,0.32,2.6-0.93,3.06L0.59,96.38C-0.15,96.65-0.98,96.46-1.53,95.9z"/>
		</g>
	</g>
</g>
<g>
	<defs>
		<rect id="SVGID_7_" width="15" height="150"/>
	</defs>
	<clipPath id="SVGID_4_">
		<use xlink:href="#SVGID_7_"  style="overflow:visible;"/>
	</clipPath>
	<g class="st3">
		<g>
			<rect x="-134.8" class="st1" width="225" height="150"/>
		</g>
		<g>
			<g>
				<path d="M-131.76,4.8c2.57,35.06,3.32,70.23,2.14,105.37c-0.29,8.62-0.72,17.23-1.21,25.83c-0.27,4.64-0.25,9.3,5.34,10.05
					c7.92,1.06,16.63,0.07,24.61,0.07c8.63,0,17.27,0,25.9,0c35.2,0,70.4,0,105.6,0c8.63,0,17.27,0,25.9,0c4.32,0,8.63,0,12.95,0
					c4.03,0,8.39,0.52,12.37-0.13c3.85-0.64,5.83-3.25,5.46-7.15c-0.34-3.66-1.65-7.3-2.34-10.92c-0.9-4.7-1.55-9.45-2.01-14.21
					c-3.57-36.88,3.68-73.88-0.47-110.75c-0.09-0.78-0.62-1.53-1.5-1.5C11.2,3.97-58.64,5.01-128.46,4.6c-1.93-0.01-1.93,2.99,0,3
					C-58.64,8.01,11.2,6.97,80.98,4.47c-0.5-0.5-1-1-1.5-1.5c3.39,30.12-0.74,60.27-0.52,90.44c0.05,7.09,0.35,14.18,1.07,21.23
					c0.33,3.19,0.73,6.37,1.24,9.54c0.65,4.07,2.47,8.63,2.6,12.69c0.19,6.23-3.91,6.26-8.43,6.26c-3.98,0-7.97,0-11.95,0
					c-8.63,0-17.27,0-25.9,0c-31.88,0-63.76,0-95.64,0c-15.94,0-31.88,0-47.82,0c-3.32,0-6.64,0-9.96,0
					c-4.86,0-10.93,1.33-12.13-5.14c-0.65-3.53,0.49-8.31,0.67-11.92c0.23-4.64,0.43-9.27,0.6-13.91
					c1.28-35.8,0.56-71.64-2.07-107.36C-128.9,2.89-131.9,2.87-131.76,4.8L-131.76,4.8z"/>
			</g>
		</g>
		<g class="st2">
			<path d="M-21.53,95.9l-7.49-7.67c-0.77-0.79-0.76-2.05,0.03-2.83l18.21-17.88c0.63-0.62,1.59-0.75,2.36-0.33h0
				c1.19,0.65,1.4,2.26,0.43,3.2l-15.74,15.13c-0.82,0.78-0.82,2.09-0.01,2.88l3.53,3.43c0.55,0.53,1.35,0.71,2.07,0.45l13.25-4.74
				c1.26-0.45,1.73-1.99,0.94-3.07l-5.9-8.06c-0.79-1.08-0.31-2.63,0.95-3.07l0.23-0.08c0.83-0.29,1.76,0,2.28,0.71l8.56,11.75
				c0.78,1.07,0.32,2.6-0.93,3.06l-20.64,7.59C-20.15,96.65-20.98,96.46-21.53,95.9z"/>
			<path d="M14.09,96.11H5.44l4.71-6.26l2.98-15.41l3.22,0.63L14.09,96.11z M33.72,96.11h-3.94l-4.61-4.24L12.84,67.31l5.19-2.45
				l11.8,26.38L31.8,66.6l8.02-1.74l-3.45,8.79L33.72,96.11z"/>
		</g>
	</g>
</g>
<g>
	<defs>
		<rect id="SVGID_9_" x="-35" width="15" height="150"/>
	</defs>
	<clipPath id="SVGID_6_">
		<use xlink:href="#SVGID_9_"  style="overflow:visible;"/>
	</clipPath>
	<g class="st4">
		<g>
			<rect x="-154.8" class="st1" width="225" height="150"/>
		</g>
		<g>
			<g>
				<path d="M-151.76,4.8c2.57,35.06,3.32,70.23,2.14,105.37c-0.29,8.62-0.72,17.23-1.21,25.83c-0.27,4.64-0.25,9.3,5.34,10.05
					c7.92,1.06,16.63,0.07,24.61,0.07c8.63,0,17.27,0,25.9,0c35.2,0,70.4,0,105.6,0c8.63,0,17.27,0,25.9,0c4.32,0,8.63,0,12.95,0
					c4.03,0,8.39,0.52,12.37-0.13c3.85-0.64,5.83-3.25,5.46-7.15c-0.34-3.66-1.65-7.3-2.34-10.92c-0.9-4.7-1.55-9.45-2.01-14.21
					c-3.57-36.88,3.68-73.88-0.47-110.75c-0.09-0.78-0.62-1.53-1.5-1.5C-8.8,3.97-78.64,5.01-148.46,4.6c-1.93-0.01-1.93,2.99,0,3
					C-78.64,8.01-8.8,6.97,60.98,4.47c-0.5-0.5-1-1-1.5-1.5c3.39,30.12-0.74,60.27-0.52,90.44c0.05,7.09,0.35,14.18,1.07,21.23
					c0.33,3.19,0.73,6.37,1.24,9.54c0.65,4.07,2.47,8.63,2.6,12.69c0.19,6.23-3.91,6.26-8.43,6.26c-3.98,0-7.97,0-11.95,0
					c-8.63,0-17.27,0-25.9,0c-31.88,0-63.76,0-95.64,0c-15.94,0-31.88,0-47.82,0c-3.32,0-6.64,0-9.96,0
					c-4.86,0-10.93,1.33-12.13-5.14c-0.65-3.53,0.49-8.31,0.67-11.92c0.23-4.64,0.43-9.27,0.6-13.91
					c1.28-35.8,0.56-71.64-2.07-107.36C-148.9,2.89-151.9,2.87-151.76,4.8L-151.76,4.8z"/>
			</g>
		</g>
		<g class="st2">
			<path d="M-5.91,96.11h-8.65l4.71-6.26l2.98-15.41l3.22,0.63L-5.91,96.11z M13.72,96.11H9.79l-4.61-4.24L-7.16,67.31l5.19-2.45
				l11.8,26.38L11.8,66.6l8.02-1.74l-3.45,8.79L13.72,96.11z"/>
		</g>
	</g>
</g>
<g>
	<defs>
		<rect id="SVGID_11_" x="70" width="15" height="150"/>
	</defs>
	<clipPath id="SVGID_8_">
		<use xlink:href="#SVGID_11_"  style="overflow:visible;"/>
	</clipPath>
	<g class="st5">
		<g>
			<rect x="-94.8" class="st1" width="225" height="150"/>
		</g>
		<g>
			<g>
				<path d="M-91.76,4.8c2.57,35.06,3.32,70.23,2.14,105.37c-0.29,8.62-0.72,17.23-1.21,25.83c-0.27,4.64-0.25,9.3,5.34,10.05
					c7.92,1.06,16.63,0.07,24.61,0.07c8.63,0,17.27,0,25.9,0c35.2,0,70.4,0,105.6,0c8.63,0,17.27,0,25.9,0c4.32,0,8.63,0,12.95,0
					c4.03,0,8.39,0.52,12.37-0.13c3.85-0.64,5.83-3.25,5.46-7.15c-0.34-3.66-1.65-7.3-2.34-10.92c-0.9-4.7-1.55-9.45-2.01-14.21
					c-3.57-36.88,3.68-73.88-0.47-110.75c-0.09-0.78-0.62-1.53-1.5-1.5C51.2,3.97-18.64,5.01-88.46,4.6c-1.93-0.01-1.93,2.99,0,3
					C-18.64,8.01,51.2,6.97,120.98,4.47c-0.5-0.5-1-1-1.5-1.5c3.39,30.12-0.74,60.27-0.52,90.44c0.05,7.09,0.35,14.18,1.07,21.23
					c0.33,3.19,0.73,6.37,1.24,9.54c0.65,4.07,2.47,8.63,2.6,12.69c0.19,6.23-3.91,6.26-8.43,6.26c-3.98,0-7.97,0-11.95,0
					c-8.63,0-17.27,0-25.9,0c-31.88,0-63.76,0-95.64,0c-15.94,0-31.88,0-47.82,0c-3.32,0-6.64,0-9.96,0
					c-4.86,0-10.93,1.33-12.13-5.14c-0.65-3.53,0.49-8.31,0.67-11.92c0.23-4.64,0.43-9.27,0.6-13.91
					c1.28-35.8,0.56-71.64-2.07-107.36C-88.9,2.89-91.9,2.87-91.76,4.8L-91.76,4.8z"/>
			</g>
		</g>
		<g class="st2">
			<path d="M-0.48,96.03v6.54l-17.19-6.38l0.29-2.18l3.41-0.95l5.57,1.39l0.86-0.83l3.12-22.66l2.5-0.24l1.44,4.04V96.03z
				 M4.95,69.69l-19.92,0.48l-0.53-2.46l15.03-5.99l6.18,4.22L4.95,69.69z"/>
			<path d="M18.47,95.9l-7.49-7.67c-0.77-0.79-0.76-2.05,0.03-2.83l18.21-17.88c0.63-0.62,1.59-0.75,2.36-0.33h0
				c1.19,0.65,1.4,2.26,0.43,3.2L16.26,85.53c-0.82,0.78-0.82,2.09-0.01,2.88l3.53,3.43c0.55,0.53,1.35,0.71,2.07,0.45l13.25-4.74
				c1.26-0.45,1.73-1.99,0.94-3.07l-5.9-8.06c-0.79-1.08-0.31-2.63,0.95-3.07l0.23-0.08c0.83-0.29,1.76,0,2.28,0.71l8.56,11.75
				c0.78,1.07,0.32,2.6-0.93,3.06l-20.64,7.59C19.85,96.65,19.02,96.46,18.47,95.9z"/>
		</g>
	</g>
</g>
</svg>
