<?xml version="1.0" encoding="utf-8"?>
<!-- Generator: Adobe Illustrator 23.0.0, SVG Export Plug-In . SVG Version: 6.00 Build 0)  -->
<svg version="1.1" id="Layer_1" xmlns="http://www.w3.org/2000/svg" xmlns:xlink="http://www.w3.org/1999/xlink" x="0px" y="0px"
	 viewBox="0 0 15 150" style="enable-background:new 0 0 15 150;" xml:space="preserve">
<style type="text/css">
	.st0{clip-path:url(#SVGID_2_);}
	.st1{fill:#FFFFFF;}
	.st2{enable-background:new    ;}
	.st3{clip-path:url(#SVGID_4_);}
	.st4{clip-path:url(#SVGID_6_);}
	.st5{clip-path:url(#SVGID_8_);}
	.st6{clip-path:url(#SVGID_10_);}
	.st7{clip-path:url(#SVGID_12_);}
	.st8{clip-path:url(#SVGID_14_);}
	.st9{clip-path:url(#SVGID_16_);}
	.st10{clip-path:url(#SVGID_18_);}
	.st11{clip-path:url(#SVGID_20_);}
	.st12{clip-path:url(#SVGID_22_);}
	.st13{clip-path:url(#SVGID_24_);}
	.st14{clip-path:url(#SVGID_26_);}
	.st15{clip-path:url(#SVGID_28_);}
	.st16{clip-path:url(#SVGID_30_);}
</style>
<g>
	<defs>
		<rect id="SVGID_17_" x="35" width="15" height="150"/>
	</defs>
	<clipPath id="SVGID_2_">
		<use xlink:href="#SVGID_17_"  style="overflow:visible;"/>
	</clipPath>
	<g class="st0">
		<g>
			<rect x="-69.9" class="st1" width="225" height="150"/>
		</g>
		<g>
			<g>
				<path d="M-66.86,4.8c2.57,35.06,3.32,70.23,2.14,105.37c-0.29,8.62-0.72,17.23-1.21,25.83c-0.27,4.64-0.25,9.3,5.34,10.05
					c7.92,1.06,16.63,0.07,24.61,0.07c8.63,0,17.27,0,25.9,0c35.2,0,70.4,0,105.6,0c8.63,0,17.27,0,25.9,0c4.32,0,8.63,0,12.95,0
					c4.03,0,8.39,0.52,12.37-0.13c3.85-0.64,5.83-3.25,5.46-7.15c-0.34-3.66-1.65-7.3-2.34-10.92c-0.9-4.7-1.55-9.45-2.01-14.21
					c-3.57-36.88,3.68-73.88-0.47-110.75c-0.09-0.78-0.62-1.53-1.5-1.5C76.1,3.97,6.26,5.01-63.56,4.6c-1.93-0.01-1.93,2.99,0,3
					C6.26,8.01,76.1,6.97,145.88,4.47c-0.5-0.5-1-1-1.5-1.5c3.39,30.12-0.74,60.27-0.52,90.44c0.05,7.09,0.35,14.18,1.07,21.23
					c0.33,3.19,0.73,6.37,1.24,9.54c0.65,4.07,2.47,8.63,2.6,12.69c0.19,6.23-3.91,6.26-8.43,6.26c-3.98,0-7.97,0-11.95,0
					c-8.63,0-17.27,0-25.9,0c-31.88,0-63.76,0-95.64,0c-15.94,0-31.88,0-47.82,0c-3.32,0-6.64,0-9.96,0
					c-4.86,0-10.93,1.33-12.13-5.14c-0.65-3.53,0.49-8.31,0.67-11.92c0.23-4.64,0.43-9.27,0.6-13.91
					c1.28-35.8,0.56-71.64-2.07-107.36C-64,2.89-67,2.87-66.86,4.8L-66.86,4.8z"/>
			</g>
		</g>
		<g class="st2">
			<path d="M-0.57,69.57l-19.44,0.48l-0.48-2.46l14.9-6.21l9.21-1.7L-0.57,69.57z M-0.09,111.43l-4.81-6.81l-16.04-1.91l2.66-27.23
				l2.21-4.52l2.69,0.04l-2.74,22.1l14.55,0.83L-0.09,111.43z M-0.09,87.26l-12.77-3.46l-0.24-2.42l4.47-0.63L1.91,76.8L-0.09,87.26
				z"/>
			<path d="M24.42,96.03v6.54L7.24,96.19l0.29-2.18l3.41-0.95l5.57,1.39l0.86-0.83l3.12-22.66l2.5-0.24l1.44,4.04V96.03z
				 M29.85,69.69L9.92,70.17L9.4,67.71l15.03-5.99l6.18,4.22L29.85,69.69z"/>
		</g>
	</g>
</g>
<g>
	<defs>
		<rect id="SVGID_19_" width="15" height="150"/>
	</defs>
	<clipPath id="SVGID_4_">
		<use xlink:href="#SVGID_19_"  style="overflow:visible;"/>
	</clipPath>
	<g class="st3">
		<g>
			<rect x="-89.9" class="st1" width="225" height="150"/>
		</g>
		<g>
			<g>
				<path d="M-86.86,4.8c2.57,35.06,3.32,70.23,2.14,105.37c-0.29,8.62-0.72,17.23-1.21,25.83c-0.27,4.64-0.25,9.3,5.34,10.05
					c7.92,1.06,16.63,0.07,24.61,0.07c8.63,0,17.27,0,25.9,0c35.2,0,70.4,0,105.6,0c8.63,0,17.27,0,25.9,0c4.32,0,8.63,0,12.95,0
					c4.03,0,8.39,0.52,12.37-0.13c3.85-0.64,5.83-3.25,5.46-7.15c-0.34-3.66-1.65-7.3-2.34-10.92c-0.9-4.7-1.55-9.45-2.01-14.21
					c-3.57-36.88,3.68-73.88-0.47-110.75c-0.09-0.78-0.62-1.53-1.5-1.5C56.1,3.97-13.74,5.01-83.56,4.6c-1.93-0.01-1.93,2.99,0,3
					C-13.74,8.01,56.1,6.97,125.88,4.47c-0.5-0.5-1-1-1.5-1.5c3.39,30.12-0.74,60.27-0.52,90.44c0.05,7.09,0.35,14.18,1.07,21.23
					c0.33,3.19,0.73,6.37,1.24,9.54c0.65,4.07,2.47,8.63,2.6,12.69c0.19,6.23-3.91,6.26-8.43,6.26c-3.98,0-7.97,0-11.95,0
					c-8.63,0-17.27,0-25.9,0c-31.88,0-63.76,0-95.64,0c-15.94,0-31.88,0-47.82,0c-3.32,0-6.64,0-9.96,0
					c-4.86,0-10.93,1.33-12.13-5.14c-0.65-3.53,0.49-8.31,0.67-11.92c0.23-4.64,0.43-9.27,0.6-13.91
					c1.28-35.8,0.56-71.64-2.07-107.36C-84,2.89-87,2.87-86.86,4.8L-86.86,4.8z"/>
			</g>
		</g>
		<g class="st2">
			<path d="M4.42,96.03v6.54l-17.19-6.38l0.29-2.18l3.41-0.95l5.57,1.39l0.86-0.83l3.12-22.66l2.5-0.24l1.44,4.04V96.03z
				 M9.85,69.69l-19.92,0.48l-0.53-2.46l15.03-5.99l6.18,4.22L9.85,69.69z"/>
		</g>
	</g>
</g>
<g>
	<defs>
		<rect id="SVGID_21_" x="-35" width="15" height="150"/>
	</defs>
	<clipPath id="SVGID_6_">
		<use xlink:href="#SVGID_21_"  style="overflow:visible;"/>
	</clipPath>
	<g class="st4">
		<g>
			<rect x="-109.9" class="st1" width="225" height="150"/>
		</g>
		<g>
			<g>
				<path d="M-106.86,4.8c2.57,35.06,3.32,70.23,2.14,105.37c-0.29,8.62-0.72,17.23-1.21,25.83c-0.27,4.64-0.25,9.3,5.34,10.05
					c7.92,1.06,16.63,0.07,24.61,0.07c8.63,0,17.27,0,25.9,0c35.2,0,70.4,0,105.6,0c8.63,0,17.27,0,25.9,0c4.32,0,8.63,0,12.95,0
					c4.03,0,8.39,0.52,12.37-0.13c3.85-0.64,5.83-3.25,5.46-7.15c-0.34-3.66-1.65-7.3-2.34-10.92c-0.9-4.7-1.55-9.45-2.01-14.21
					c-3.57-36.88,3.68-73.88-0.47-110.75c-0.09-0.78-0.62-1.53-1.5-1.5C36.1,3.97-33.74,5.01-103.56,4.6c-1.93-0.01-1.93,2.99,0,3
					C-33.74,8.01,36.1,6.97,105.88,4.47c-0.5-0.5-1-1-1.5-1.5c3.39,30.12-0.74,60.27-0.52,90.44c0.05,7.09,0.35,14.18,1.07,21.23
					c0.33,3.19,0.73,6.37,1.24,9.54c0.65,4.07,2.47,8.63,2.6,12.69c0.19,6.23-3.91,6.26-8.43,6.26c-3.98,0-7.97,0-11.95,0
					c-8.63,0-17.27,0-25.9,0c-31.88,0-63.76,0-95.64,0c-15.94,0-31.88,0-47.82,0c-3.32,0-6.64,0-9.96,0
					c-4.86,0-10.93,1.33-12.13-5.14c-0.65-3.53,0.49-8.31,0.67-11.92c0.23-4.64,0.43-9.27,0.6-13.91
					c1.28-35.8,0.56-71.64-2.07-107.36C-104,2.89-107,2.87-106.86,4.8L-106.86,4.8z"/>
			</g>
		</g>
		<g class="st2">
			<path d="M3.37,95.9l-7.49-7.67c-0.77-0.79-0.76-2.05,0.03-2.83l18.21-17.88c0.63-0.62,1.59-0.75,2.36-0.33h0
				c1.19,0.65,1.4,2.26,0.43,3.2L1.16,85.53c-0.82,0.78-0.82,2.09-0.01,2.88l3.53,3.43c0.55,0.53,1.35,0.71,2.07,0.45l13.25-4.74
				c1.26-0.45,1.73-1.99,0.94-3.07l-5.9-8.06c-0.79-1.08-0.31-2.63,0.95-3.07l0.23-0.08c0.83-0.29,1.76,0,2.28,0.71l8.56,11.75
				c0.78,1.07,0.32,2.6-0.93,3.06L5.49,96.38C4.75,96.65,3.92,96.46,3.37,95.9z"/>
		</g>
	</g>
</g>
<g>
	<defs>
		<rect id="SVGID_23_" x="-70" width="15" height="150"/>
	</defs>
	<clipPath id="SVGID_8_">
		<use xlink:href="#SVGID_23_"  style="overflow:visible;"/>
	</clipPath>
	<g class="st5">
		<g>
			<rect x="-129.9" class="st1" width="225" height="150"/>
		</g>
		<g>
			<g>
				<path d="M-126.86,4.8c2.57,35.06,3.32,70.23,2.14,105.37c-0.29,8.62-0.72,17.23-1.21,25.83c-0.27,4.64-0.25,9.3,5.34,10.05
					c7.92,1.06,16.63,0.07,24.61,0.07c8.63,0,17.27,0,25.9,0c35.2,0,70.4,0,105.6,0c8.63,0,17.27,0,25.9,0c4.32,0,8.63,0,12.95,0
					c4.03,0,8.39,0.52,12.37-0.13c3.85-0.64,5.83-3.25,5.46-7.15c-0.34-3.66-1.65-7.3-2.34-10.92c-0.9-4.7-1.55-9.45-2.01-14.21
					c-3.57-36.88,3.68-73.88-0.47-110.75c-0.09-0.78-0.62-1.53-1.5-1.5C16.1,3.97-53.74,5.01-123.56,4.6c-1.93-0.01-1.93,2.99,0,3
					C-53.74,8.01,16.1,6.97,85.88,4.47c-0.5-0.5-1-1-1.5-1.5c3.39,30.12-0.74,60.27-0.52,90.44c0.05,7.09,0.35,14.18,1.07,21.23
					c0.33,3.19,0.73,6.37,1.24,9.54c0.65,4.07,2.47,8.63,2.6,12.69c0.19,6.23-3.91,6.26-8.43,6.26c-3.98,0-7.97,0-11.95,0
					c-8.63,0-17.27,0-25.9,0c-31.88,0-63.76,0-95.64,0c-15.94,0-31.88,0-47.82,0c-3.32,0-6.64,0-9.96,0
					c-4.86,0-10.93,1.33-12.13-5.14c-0.65-3.53,0.49-8.31,0.67-11.92c0.23-4.64,0.43-9.27,0.6-13.91
					c1.28-35.8,0.56-71.64-2.07-107.36C-124,2.89-127,2.87-126.86,4.8L-126.86,4.8z"/>
			</g>
		</g>
		<g class="st2">
			<path d="M-16.63,95.9l-7.49-7.67c-0.77-0.79-0.76-2.05,0.03-2.83l18.21-17.88c0.63-0.62,1.59-0.75,2.36-0.33h0
				c1.19,0.65,1.4,2.26,0.43,3.2l-15.74,15.13c-0.82,0.78-0.82,2.09-0.01,2.88l3.53,3.43c0.55,0.53,1.35,0.71,2.07,0.45l13.25-4.74
				c1.26-0.45,1.73-1.99,0.94-3.07l-5.9-8.06c-0.79-1.08-0.31-2.63,0.95-3.07l0.23-0.08c0.83-0.29,1.76,0,2.28,0.71l8.56,11.75
				c0.78,1.07,0.32,2.6-0.93,3.06l-20.64,7.59C-15.25,96.65-16.08,96.46-16.63,95.9z"/>
			<path d="M18.99,96.11h-8.65l4.71-6.26l2.98-15.41l3.22,0.63L18.99,96.11z M38.62,96.11h-3.94l-4.61-4.24L17.74,67.31l5.19-2.45
				l11.8,26.38L36.7,66.6l8.02-1.74l-3.45,8.79L38.62,96.11z"/>
		</g>
	</g>
</g>
</svg>
