<?xml version="1.0" encoding="utf-8"?>
<!-- Generator: Adobe Illustrator 23.0.0, SVG Export Plug-In . SVG Version: 6.00 Build 0)  -->
<svg version="1.1" id="Layer_1" xmlns="http://www.w3.org/2000/svg" xmlns:xlink="http://www.w3.org/1999/xlink" x="0px" y="0px"
	 viewBox="0 0 15 150" style="enable-background:new 0 0 15 150;" xml:space="preserve">
<style type="text/css">
	.st0{clip-path:url(#SVGID_2_);}
	.st1{fill:#FFFFFF;}
	.st2{clip-path:url(#SVGID_4_);}
	.st3{clip-path:url(#SVGID_6_);}
	.st4{clip-path:url(#SVGID_8_);}
	.st5{clip-path:url(#SVGID_10_);}
	.st6{clip-path:url(#SVGID_12_);}
	.st7{clip-path:url(#SVGID_14_);}
	.st8{clip-path:url(#SVGID_16_);}
	.st9{clip-path:url(#SVGID_18_);}
	.st10{clip-path:url(#SVGID_20_);}
	.st11{clip-path:url(#SVGID_22_);}
	.st12{clip-path:url(#SVGID_24_);}
	.st13{clip-path:url(#SVGID_26_);}
	.st14{clip-path:url(#SVGID_28_);}
	.st15{clip-path:url(#SVGID_30_);}
</style>
<g>
	<g>
		<defs>
			<rect id="SVGID_19_" x="-70" width="15" height="150"/>
		</defs>
		<clipPath id="SVGID_2_">
			<use xlink:href="#SVGID_19_"  style="overflow:visible;"/>
		</clipPath>
		<g class="st0">
			<g>
				<rect x="-206" class="st1" width="225" height="150"/>
			</g>
			<g>
				<g>
					<path d="M-203.8,3.3c0.6,24.5,1.1,49,1.3,73.5c0.1,11.9,0.2,23.8,0.2,35.8c0,6,0,11.9,0,17.9c0,3.7-1.5,10.5,0.8,13.8
						c1.6,2.3,4.6,1.8,7.1,1.9c6.3,0.1,12.6,0.1,18.8,0.2c12.2,0.1,24.4,0.1,36.7,0.1c24.1,0,48.2-0.3,72.4-0.7
						c24.4-0.5,48.9-1.1,73.3-2c2.5-0.1,6.4,0.5,7.5-2.4c0.5-1.4,0.1-3-0.1-4.4c-0.4-3.2-0.7-6.4-1-9.7c-1.1-12.3-1.6-24.6-1.8-36.9
						c-0.4-23.8,0-47.7,1-71.5c0.2-3.7,1.5-9.1,0-12.6c-1.5-3.8-5.6-3.6-9.1-3.6c-11.9,0-23.8,0.1-35.7,0.2
						C-87.2,3.2-142,3.4-196.8,3.7c-1.9,0-1.9,3,0,3c44.6-0.2,89.2-0.4,133.7-0.6C-41,6-18.8,5.5,3.3,5.8c1,0,3.4-0.3,4.4,0.2
						c3,1.4,1.9,4.1,2,6.2c0.1,2.6-0.3,5.3-0.4,7.8C9,25.9,8.8,31.8,8.7,37.6C8.4,48.7,8.2,59.8,8.2,70.9c0,21.4,0.3,42.9,2.8,64.2
						c0,0.2,0.7,3.4,0.5,3.9c-1.1,2.2-3.7,1.8-5.6,1.9c-2.6,0.1-5.3,0.2-7.9,0.3c-5.6,0.2-11.2,0.4-16.8,0.5
						c-11.2,0.3-22.5,0.6-33.7,0.9c-44.3,1-88.6,1.3-132.8,0.8c-3.2,0-6.8,0.4-9.9-0.1c-2.3-0.4-2.6,1.1-3.9-2.7c-0.5-1.4,0-3.6,0-5
						c0-6.3,0-12.6,0-18.9c0-12.6-0.1-25.2-0.2-37.7c-0.2-25.2-0.7-50.3-1.4-75.5C-200.8,1.3-203.8,1.3-203.8,3.3L-203.8,3.3z"/>
				</g>
			</g>
		</g>
	</g>
</g>
<g>
	<g>
		<defs>
			<rect id="SVGID_21_" x="-35" width="15" height="150"/>
		</defs>
		<clipPath id="SVGID_4_">
			<use xlink:href="#SVGID_21_"  style="overflow:visible;"/>
		</clipPath>
		<g class="st2">
			<g>
				<rect x="-186" class="st1" width="225" height="150"/>
			</g>
			<g>
				<g>
					<path d="M-183.8,3.3c0.7,24.5,1.1,49,1.3,73.5c0.1,11.9,0.2,23.8,0.2,35.8c0,6,0,11.9,0,17.9c0,3.6-1.5,10.5,0.8,13.8
						c1.6,2.3,4.6,1.8,7.1,1.9c6.3,0.1,12.6,0.1,18.8,0.2c12.2,0.1,24.5,0.1,36.7,0.1c24.1,0,48.2-0.3,72.4-0.7
						c24.4-0.5,48.9-1.1,73.3-2c2.5-0.1,6.4,0.5,7.5-2.4c0.5-1.4,0-3-0.1-4.4c-0.4-3.2-0.7-6.4-1-9.7c-1.1-12.3-1.6-24.6-1.8-36.9
						c-0.4-23.8,0-47.7,1-71.5c0.2-3.7,1.5-9.1,0.1-12.6c-1.5-3.8-5.6-3.6-9.1-3.6c-11.9,0-23.8,0.1-35.7,0.2
						c-54.8,0.3-109.6,0.5-164.4,0.8c-1.9,0-1.9,3,0,3C-132.1,6.5-87.5,6.3-43,6c22.1-0.1,44.3-0.6,66.4-0.3c1,0,3.5-0.3,4.4,0.2
						c3,1.4,1.9,4.1,2,6.2c0.1,2.6-0.3,5.3-0.4,7.8c-0.3,5.9-0.5,11.8-0.6,17.6c-0.3,11.1-0.5,22.2-0.5,33.3
						c0,21.4,0.3,42.9,2.8,64.2c0,0.2,0.7,3.4,0.5,3.9c-1.1,2.2-3.7,1.8-5.6,1.9c-2.6,0.1-5.3,0.2-7.9,0.3
						c-5.6,0.2-11.2,0.4-16.8,0.5c-11.2,0.3-22.5,0.6-33.7,0.9c-44.3,1-88.6,1.3-132.8,0.8c-3.2,0-6.8,0.4-9.9-0.1
						c-2.3-0.4-2.6,1.1-3.9-2.7c-0.5-1.4,0-3.6,0-5c0-6.3,0-12.6,0-18.9c0-12.6-0.1-25.2-0.2-37.8c-0.2-25.2-0.7-50.3-1.4-75.5
						C-180.8,1.3-183.8,1.3-183.8,3.3L-183.8,3.3z"/>
				</g>
			</g>
		</g>
	</g>
</g>
<g>
	<g>
		<defs>
			<rect id="SVGID_23_" width="15" height="150"/>
		</defs>
		<clipPath id="SVGID_6_">
			<use xlink:href="#SVGID_23_"  style="overflow:visible;"/>
		</clipPath>
		<g class="st3">
			<g>
				<rect x="-166" class="st1" width="225" height="150"/>
			</g>
			<g>
				<g>
					<path d="M-163.8,3.3c0.6,24.5,1.1,49,1.3,73.5c0.1,11.9,0.2,23.8,0.2,35.8c0,6,0,11.9,0,17.9c0,3.7-1.4,10.5,0.8,13.8
						c1.6,2.3,4.6,1.8,7.1,1.9c6.3,0.1,12.6,0.1,18.8,0.2c12.2,0.1,24.4,0.1,36.7,0.1c24.1,0,48.2-0.3,72.4-0.7
						c24.4-0.5,48.9-1.1,73.3-2c2.5-0.1,6.4,0.5,7.5-2.4c0.5-1.4,0.1-3-0.1-4.4c-0.4-3.2-0.7-6.4-1-9.7c-1.1-12.3-1.6-24.6-1.8-36.9
						c-0.4-23.8,0-47.7,1-71.5c0.2-3.7,1.5-9.1,0-12.6c-1.5-3.8-5.6-3.6-9.1-3.6c-11.9,0-23.8,0.1-35.7,0.2
						C-47.2,3.2-102,3.4-156.8,3.7c-1.9,0-1.9,3,0,3c44.6-0.2,89.2-0.4,133.7-0.6C-1,6,21.2,5.5,43.3,5.8c1,0,3.4-0.3,4.4,0.2
						c3,1.4,1.9,4.1,2,6.2c0.1,2.6-0.3,5.3-0.4,7.8c-0.3,5.9-0.5,11.8-0.6,17.6c-0.3,11.1-0.5,22.2-0.5,33.3
						c0,21.4,0.3,42.9,2.8,64.2c0,0.2,0.7,3.4,0.5,3.9c-1.1,2.2-3.7,1.8-5.6,1.9c-2.6,0.1-5.3,0.2-7.9,0.3
						c-5.6,0.2-11.2,0.4-16.8,0.5c-11.2,0.3-22.5,0.6-33.7,0.9c-44.3,1-88.5,1.3-132.8,0.8c-3.2,0-6.8,0.4-9.9-0.1
						c-2.3-0.4-2.6,1.1-3.9-2.7c-0.5-1.4,0-3.6,0-5c0-6.3,0-12.6,0-18.9c0-12.6-0.1-25.2-0.2-37.7c-0.2-25.2-0.7-50.3-1.4-75.5
						C-160.9,1.3-163.9,1.3-163.8,3.3L-163.8,3.3z"/>
				</g>
			</g>
		</g>
	</g>
</g>
</svg>
