<?xml version="1.0" encoding="utf-8"?>
<!-- Generator: Adobe Illustrator 23.0.0, SVG Export Plug-In . SVG Version: 6.00 Build 0)  -->
<svg version="1.1" id="Layer_1" xmlns="http://www.w3.org/2000/svg" xmlns:xlink="http://www.w3.org/1999/xlink" x="0px" y="0px"
	 viewBox="0 0 15 150" style="enable-background:new 0 0 15 150;" xml:space="preserve">
<style type="text/css">
	.st0{clip-path:url(#SVGID_2_);}
	.st1{fill:#FFFFFF;}
	.st2{clip-path:url(#SVGID_4_);}
	.st3{clip-path:url(#SVGID_6_);}
	.st4{clip-path:url(#SVGID_8_);}
	.st5{clip-path:url(#SVGID_10_);}
	.st6{clip-path:url(#SVGID_12_);}
	.st7{clip-path:url(#SVGID_14_);}
	.st8{clip-path:url(#SVGID_16_);}
	.st9{clip-path:url(#SVGID_18_);}
	.st10{clip-path:url(#SVGID_20_);}
	.st11{clip-path:url(#SVGID_22_);}
	.st12{clip-path:url(#SVGID_24_);}
	.st13{clip-path:url(#SVGID_26_);}
	.st14{clip-path:url(#SVGID_28_);}
	.st15{font-family:'saferick';}
	.st16{font-size:90.1908px;}
	.st17{clip-path:url(#SVGID_30_);}
</style>
<g>
	<g>
		<defs>
			<rect id="SVGID_25_" width="15" height="150"/>
		</defs>
		<clipPath id="SVGID_2_">
			<use xlink:href="#SVGID_25_"  style="overflow:visible;"/>
		</clipPath>
		<g class="st0">
			<g>
				<rect x="-181" class="st1" width="225" height="150"/>
			</g>
			<g>
				<g>
					<path d="M-178.8,3.2c0.6,24.5,1.1,49,1.4,73.5c0.1,11.9,0.2,23.8,0.2,35.8c0,6,0,11.9,0,17.9c0,3.6-1.4,10.5,0.8,13.8
						c1.6,2.3,4.6,1.9,7.1,1.9c6.3,0.1,12.6,0.1,18.8,0.2c12.2,0.1,24.5,0.1,36.7,0.1c24.1,0,48.2-0.3,72.4-0.7
						c24.5-0.5,48.9-1.1,73.3-2c2.5-0.1,6.4,0.6,7.5-2.4c0.5-1.3,0-3-0.1-4.4c-0.4-3.2-0.7-6.4-1-9.7c-1.1-12.3-1.6-24.6-1.8-36.9
						c-0.4-23.8,0-47.7,1-71.5c0.2-3.7,1.5-9.1,0.1-12.6c-1.5-3.8-5.6-3.6-9.1-3.6C16.6,2.6,4.7,2.7-7.2,2.8
						C-62,3.1-116.8,3.3-171.6,3.6c-1.9,0-1.9,3,0,3C-127,6.4-82.4,6.2-37.9,6c22.1-0.1,44.3-0.6,66.4-0.3c1,0,3.5-0.3,4.4,0.2
						c3,1.4,1.9,4.1,2,6.2c0.1,2.6-0.3,5.3-0.4,7.8c-0.3,5.9-0.5,11.8-0.6,17.6c-0.3,11.1-0.5,22.2-0.5,33.3
						c0,21.4,0.3,42.9,2.8,64.2c0,0.2,0.7,3.4,0.5,3.9c-1.1,2.2-3.7,1.8-5.6,1.9c-2.6,0.1-5.3,0.2-7.9,0.3
						c-5.6,0.2-11.2,0.4-16.8,0.5c-11.2,0.3-22.5,0.6-33.7,0.9c-44.3,1-88.6,1.3-132.8,0.8c-3.2,0-6.8,0.4-9.9-0.1
						c-2.3-0.4-2.6,1.1-3.9-2.7c-0.5-1.3,0-3.6,0-5c0-6.3,0-12.6,0-18.9c0-12.6-0.1-25.2-0.2-37.8c-0.2-25.2-0.7-50.3-1.4-75.5
						C-175.9,1.3-178.9,1.2-178.8,3.2L-178.8,3.2z"/>
				</g>
			</g>
		</g>
	</g>
</g>
<g>
	<g>
		<defs>
			<rect id="SVGID_27_" x="35" width="15" height="150"/>
		</defs>
		<clipPath id="SVGID_4_">
			<use xlink:href="#SVGID_27_"  style="overflow:visible;"/>
		</clipPath>
		<g class="st2">
			<g>
				<rect x="-161" class="st1" width="225" height="150"/>
			</g>
			<g>
				<g>
					<path d="M-158.8,3.2c0.7,24.5,1.1,49,1.4,73.5c0.1,11.9,0.2,23.8,0.2,35.8c0,6,0,11.9,0,17.9c0,3.7-1.4,10.5,0.8,13.8
						c1.6,2.3,4.6,1.8,7.1,1.9c6.3,0.1,12.6,0.1,18.8,0.2c12.2,0.1,24.4,0.1,36.7,0.1c24.1,0,48.2-0.3,72.4-0.7
						c24.4-0.5,48.9-1.1,73.3-2c2.5-0.1,6.4,0.5,7.5-2.4c0.5-1.4,0.1-3-0.1-4.4c-0.4-3.2-0.7-6.4-1-9.7c-1.1-12.3-1.6-24.6-1.8-36.9
						c-0.4-23.8,0-47.7,1-71.5c0.2-3.7,1.5-9.1,0-12.6c-1.5-3.8-5.6-3.6-9.1-3.6c-11.9,0-23.8,0.1-35.7,0.2
						C-42.1,3.1-96.9,3.3-151.7,3.6c-1.9,0-1.9,3,0,3C-107.1,6.4-62.5,6.2-18,6C4.1,5.9,26.3,5.4,48.4,5.7c1,0,3.4-0.3,4.4,0.2
						c3,1.4,1.9,4.1,2,6.2c0.1,2.6-0.3,5.3-0.4,7.8c-0.3,5.9-0.5,11.8-0.6,17.6c-0.3,11.1-0.5,22.2-0.5,33.3
						c0,21.4,0.3,42.9,2.8,64.2c0,0.2,0.7,3.4,0.5,3.9c-1.1,2.2-3.7,1.8-5.6,1.9c-2.6,0.1-5.3,0.2-7.9,0.3
						c-5.6,0.2-11.2,0.4-16.8,0.5c-11.2,0.3-22.5,0.6-33.7,0.9c-44.3,1-88.5,1.3-132.8,0.8c-3.2,0-6.8,0.4-9.9-0.1
						c-2.3-0.4-2.6,1.1-3.9-2.7c-0.5-1.4,0-3.6,0-5c0-6.3,0-12.6,0-18.9c0-12.6-0.1-25.2-0.2-37.7c-0.2-25.2-0.7-50.3-1.4-75.5
						C-155.8,1.3-158.8,1.3-158.8,3.2L-158.8,3.2z"/>
				</g>
			</g>
			<text transform="matrix(0.6817 0 0 1 -152.3857 87.1117)" class="st15 st16">SEJONG</text>
		</g>
	</g>
</g>
<g>
	<g>
		<defs>
			<rect id="SVGID_29_" x="70" width="15" height="150"/>
		</defs>
		<clipPath id="SVGID_6_">
			<use xlink:href="#SVGID_29_"  style="overflow:visible;"/>
		</clipPath>
		<g class="st3">
			<g>
				<rect x="-141" class="st1" width="225" height="150"/>
			</g>
			<g>
				<g>
					<path d="M-138.8,3.2c0.6,24.5,1.1,49,1.3,73.5c0.1,11.9,0.2,23.8,0.2,35.8c0,6,0,11.9,0,17.9c0,3.7-1.5,10.5,0.8,13.8
						c1.6,2.3,4.6,1.8,7.1,1.9c6.3,0.1,12.6,0.1,18.8,0.2c12.2,0.1,24.5,0.1,36.7,0.1c24.1,0,48.2-0.3,72.4-0.7
						c24.4-0.5,48.9-1.1,73.3-2c2.5-0.1,6.4,0.5,7.5-2.4c0.5-1.4,0.1-3-0.1-4.4c-0.4-3.2-0.7-6.4-1-9.7c-1.1-12.3-1.6-24.6-1.8-36.9
						c-0.4-23.8,0-47.7,1-71.5c0.2-3.7,1.5-9.1,0-12.6c-1.5-3.8-5.6-3.6-9.1-3.6c-11.9,0-23.8,0.1-35.7,0.2
						C-22.2,3.1-77,3.3-131.8,3.6c-1.9,0-1.9,3,0,3C-87.2,6.4-42.7,6.2,1.9,6C24,5.9,46.2,5.4,68.3,5.7c1,0,3.4-0.3,4.4,0.2
						c3,1.4,1.9,4.1,2,6.2c0.1,2.6-0.3,5.3-0.4,7.8c-0.3,5.9-0.5,11.8-0.6,17.6c-0.3,11.1-0.5,22.2-0.5,33.3
						c0,21.4,0.3,42.9,2.8,64.2c0,0.2,0.7,3.4,0.5,3.9c-1.1,2.2-3.7,1.8-5.6,1.9c-2.6,0.1-5.3,0.2-7.9,0.3
						c-5.6,0.2-11.2,0.4-16.8,0.5c-11.2,0.3-22.5,0.6-33.7,0.9c-44.3,1-88.5,1.3-132.8,0.8c-3.2,0-6.8,0.4-9.9-0.1
						c-2.3-0.4-2.6,1.1-3.9-2.7c-0.5-1.4,0-3.6,0-5c0-6.3,0-12.6,0-18.9c0-12.6-0.1-25.2-0.2-37.7c-0.2-25.2-0.7-50.3-1.4-75.5
						C-135.9,1.3-138.9,1.3-138.8,3.2L-138.8,3.2z"/>
				</g>
			</g>
			<text transform="matrix(0.6817 0 0 1 -132.4215 87.1127)" class="st15 st16">SEJONG</text>
		</g>
	</g>
</g>
</svg>
