<?xml version="1.0" encoding="utf-8"?>
<!-- Generator: Adobe Illustrator 23.0.0, SVG Export Plug-In . SVG Version: 6.00 Build 0)  -->
<svg version="1.1" id="Layer_1" xmlns="http://www.w3.org/2000/svg" xmlns:xlink="http://www.w3.org/1999/xlink" x="0px" y="0px"
	 viewBox="0 0 225 150" style="enable-background:new 0 0 225 150;" xml:space="preserve">
<style type="text/css">
	.st0{fill:#FFFFFF;}
	.st1{font-family:'orangejuice';}
	.st2{font-size:84.3182px;}
	.st3{fill:#FFFFFF;stroke:#FF1400;stroke-miterlimit:10;}
	.st4{clip-path:url(#SVGID_2_);}
	.st5{clip-path:url(#SVGID_4_);}
	.st6{clip-path:url(#SVGID_6_);}
	.st7{clip-path:url(#SVGID_8_);}
	.st8{clip-path:url(#SVGID_10_);}
	.st9{clip-path:url(#SVGID_12_);}
	.st10{clip-path:url(#SVGID_14_);}
	.st11{clip-path:url(#SVGID_16_);}
	.st12{clip-path:url(#SVGID_18_);}
	.st13{clip-path:url(#SVGID_20_);}
	.st14{clip-path:url(#SVGID_22_);}
	.st15{clip-path:url(#SVGID_24_);}
	.st16{clip-path:url(#SVGID_26_);}
	.st17{clip-path:url(#SVGID_28_);}
	.st18{clip-path:url(#SVGID_30_);}
</style>
<g>
	<g>
		<rect class="st0" width="225" height="150"/>
	</g>
	<g>
		<g>
			<path d="M1.7,3.3C4,28,5.3,52.8,5.6,77.7c0.2,12.4,0.1,24.8-0.3,37.2c-0.2,5.9-0.4,11.8-0.7,17.6c-0.2,3.8-1.3,9.1,0.8,12.6
				c1.5,2.5,4,2.8,6.7,2.9c6.6,0.1,13.3-0.4,19.9-0.5c12.6-0.3,25.2-0.7,37.8-1c25.2-0.7,50.5-1.3,75.7-2c12.6-0.3,25.2-0.7,37.9-1
				c6-0.2,11.9-0.3,17.9-0.5c5.6-0.1,12.1,0.6,17.6-0.6c8.4-1.7,3.3-14.5,2.5-19.9c-1.9-12.5-3.1-25.1-3.7-37.8
				c-0.6-12.1-0.5-24.3,0.1-36.5c0.6-12.7,2.7-25.1,3.9-37.8c0.8-9.2-8.1-7.4-14.9-7.5c-12.4-0.3-24.8-0.7-37.2-1
				c-13.7-0.3-27.3-0.2-41,1C115.2,4.2,101.8,5.5,88.3,6C60.1,7.2,31.9,6.4,3.7,5.6c-1.9-0.1-1.9,2.9,0,3c23,0.7,45.9,1.3,68.9,0.9
				c22.6-0.4,44.8-3.1,67.4-4.3c22.3-1.2,44.7,0.2,67,0.8c2.7,0.1,6.2-0.4,8.9,0.2c4.1,0.9,3.1,3.8,2.6,7.3
				c-0.7,5.2-1.4,10.4-1.9,15.6c-1.1,11.1-1.8,22.3-1.9,33.5c-0.3,21.6,1.3,43.2,4.7,64.4c0.4,2.6,1.7,6.1,1.4,8.6
				c-0.5,4.4-4.9,3.8-8.2,3.9c-6,0.2-11.9,0.3-17.9,0.5c-11.6,0.3-23.2,0.6-34.9,0.9c-46.2,1.2-92.3,2.4-138.5,3.7
				c-3,0.1-6.6,0.7-9.6,0.2c-4.1-0.6-4.2-3.2-4.1-6.6c0.2-6.5,0.6-13.1,0.8-19.6c0.4-12.7,0.6-25.5,0.4-38.2
				C8.4,54.8,7.1,29,4.7,3.3C4.5,1.4,1.5,1.4,1.7,3.3L1.7,3.3z"/>
		</g>
	</g>
	<text transform="matrix(0.4812 0 0 1 33.2632 111.9141)" class="st1 st2">SEJONG</text>
</g>
<rect class="st3" width="15" height="150"/>
<rect x="15" y="0" class="st3" width="15" height="150"/>
<rect x="30" y="0" class="st3" width="15" height="150"/>
<rect x="45" y="0" class="st3" width="15" height="150"/>
<rect x="60" y="0" class="st3" width="15" height="150"/>
<rect x="75" y="0" class="st3" width="15" height="150"/>
<rect x="90" y="0" class="st3" width="15" height="150"/>
<rect x="105" y="0" class="st3" width="15" height="150"/>
<rect x="120" y="0" class="st3" width="15" height="150"/>
<rect x="135" y="0" class="st3" width="15" height="150"/>
<rect x="150" y="0" class="st3" width="15" height="150"/>
<rect x="165" y="0" class="st3" width="15" height="150"/>
<rect x="180" y="0" class="st3" width="15" height="150"/>
<rect x="195" y="0" class="st3" width="15" height="150"/>
<rect x="210" y="0" class="st3" width="15" height="150"/>
<g>
	<defs>
		<rect id="SVGID_1_" x="-265.3" y="241.3" width="15" height="150"/>
	</defs>
	<clipPath id="SVGID_2_">
		<use xlink:href="#SVGID_1_"  style="overflow:visible;"/>
	</clipPath>
	<g class="st4">
		<g>
			<rect x="-265.3" y="241.3" class="st0" width="225" height="150"/>
		</g>
		<g>
			<g>
				<path d="M-263.6,244.6c2.3,24.7,3.6,49.5,4,74.3c0.1,12.4,0,24.8-0.3,37.2c-0.2,5.9-0.4,11.8-0.7,17.6
					c-0.2,3.8-1.4,9.1,0.8,12.6c1.5,2.5,4,2.8,6.7,2.9c6.6,0.1,13.3-0.4,19.9-0.5c12.6-0.3,25.2-0.7,37.9-1
					c25.2-0.7,50.5-1.3,75.7-2c12.6-0.3,25.2-0.7,37.9-1c6-0.2,11.9-0.3,17.9-0.5c5.6-0.1,12.1,0.5,17.6-0.6
					c8.4-1.7,3.3-14.5,2.5-19.9c-1.9-12.5-3.1-25.1-3.7-37.8c-0.6-12.1-0.5-24.3,0.1-36.4c0.6-12.7,2.7-25.1,3.9-37.8
					c0.8-9.2-8.1-7.4-14.9-7.5c-12.4-0.3-24.8-0.7-37.2-1c-13.7-0.3-27.3-0.2-41,1c-13.5,1.2-26.9,2.5-40.4,3
					c-28.2,1.2-56.4,0.4-84.6-0.5c-1.9-0.1-1.9,2.9,0,3c22.9,0.7,45.9,1.3,68.9,0.9c22.6-0.4,44.9-3.1,67.4-4.3
					c22.3-1.2,44.7,0.2,67,0.8c2.7,0.1,6.2-0.4,8.9,0.2c4.1,1,3.1,3.8,2.6,7.3c-0.7,5.2-1.4,10.4-1.9,15.6
					c-1.1,11.1-1.8,22.3-1.9,33.5c-0.3,21.6,1.3,43.1,4.7,64.4c0.4,2.6,1.7,6.1,1.4,8.6c-0.5,4.4-4.9,3.8-8.2,3.9
					c-6,0.2-11.9,0.3-17.9,0.5c-11.6,0.3-23.2,0.6-34.9,0.9c-46.2,1.2-92.3,2.5-138.5,3.7c-3,0.1-6.6,0.7-9.6,0.2
					c-4.1-0.6-4.2-3.2-4.1-6.6c0.1-6.5,0.6-13.1,0.9-19.6c0.4-12.7,0.6-25.5,0.4-38.2c-0.3-25.8-1.6-51.6-4-77.3
					C-260.8,242.7-263.8,242.7-263.6,244.6L-263.6,244.6z"/>
			</g>
		</g>
		<text transform="matrix(0.4812 0 0 1 -232.0453 353.2009)" class="st1 st2">SEJONG</text>
	</g>
</g>
<g>
	<defs>
		<rect id="SVGID_3_" x="-214.8" y="241.3" width="15" height="150"/>
	</defs>
	<clipPath id="SVGID_4_">
		<use xlink:href="#SVGID_3_"  style="overflow:visible;"/>
	</clipPath>
	<g class="st5">
		<g>
			<rect x="-229.8" y="241.3" class="st0" width="225" height="150"/>
		</g>
		<g>
			<g>
				<path d="M-228.1,244.6c2.3,24.7,3.6,49.5,4,74.3c0.1,12.4,0,24.8-0.3,37.2c-0.2,5.9-0.4,11.8-0.7,17.6
					c-0.2,3.8-1.4,9.1,0.8,12.6c1.5,2.5,4,2.8,6.7,2.9c6.6,0.1,13.3-0.4,19.9-0.5c12.6-0.3,25.2-0.7,37.9-1
					c25.2-0.7,50.5-1.3,75.7-2c12.6-0.3,25.2-0.7,37.9-1c6-0.2,11.9-0.3,17.9-0.5c5.6-0.1,12.1,0.5,17.6-0.6
					c8.4-1.7,3.3-14.5,2.5-19.9c-1.9-12.5-3.1-25.1-3.7-37.8c-0.6-12.1-0.5-24.3,0.1-36.4c0.6-12.7,2.7-25.1,3.9-37.8
					c0.8-9.2-8.1-7.4-14.9-7.5c-12.4-0.3-24.8-0.7-37.2-1c-13.7-0.3-27.3-0.2-41,1c-13.5,1.2-26.9,2.5-40.4,3
					c-28.2,1.2-56.4,0.4-84.6-0.5c-1.9-0.1-1.9,2.9,0,3c22.9,0.7,45.9,1.3,68.9,0.9c22.6-0.4,44.9-3.1,67.4-4.3
					c22.3-1.2,44.7,0.2,67,0.8c2.7,0.1,6.2-0.4,8.9,0.2c4.1,1,3.1,3.8,2.6,7.3c-0.7,5.2-1.4,10.4-1.9,15.6
					c-1.1,11.1-1.8,22.3-1.9,33.5c-0.3,21.6,1.3,43.1,4.7,64.4c0.4,2.6,1.7,6.1,1.4,8.6c-0.5,4.4-4.9,3.8-8.2,3.9
					c-6,0.2-11.9,0.3-17.9,0.5c-11.6,0.3-23.2,0.6-34.9,0.9c-46.2,1.2-92.3,2.5-138.5,3.7c-3,0.1-6.6,0.7-9.6,0.2
					c-4.1-0.6-4.2-3.2-4.1-6.6c0.1-6.5,0.6-13.1,0.9-19.6c0.4-12.7,0.6-25.5,0.4-38.2c-0.3-25.8-1.6-51.6-4-77.3
					C-225.3,242.7-228.3,242.7-228.1,244.6L-228.1,244.6z"/>
			</g>
		</g>
		<text transform="matrix(0.4812 0 0 1 -196.556 353.2009)" class="st1 st2">SEJONG</text>
	</g>
</g>
<g>
	<defs>
		<rect id="SVGID_5_" x="-160.3" y="232.1" width="15" height="150"/>
	</defs>
	<clipPath id="SVGID_6_">
		<use xlink:href="#SVGID_5_"  style="overflow:visible;"/>
	</clipPath>
	<g class="st6">
		<g>
			<rect x="-190.3" y="232.1" class="st0" width="225" height="150"/>
		</g>
		<g>
			<g>
				<path d="M-188.6,235.4c2.3,24.7,3.6,49.5,3.9,74.3c0.1,12.4,0.1,24.8-0.3,37.2c-0.2,5.9-0.4,11.8-0.7,17.6
					c-0.2,3.8-1.4,9.1,0.8,12.6c1.5,2.5,4,2.8,6.7,2.9c6.6,0.1,13.3-0.4,19.9-0.5c12.6-0.3,25.2-0.7,37.9-1
					c25.2-0.7,50.5-1.3,75.7-2c12.6-0.3,25.2-0.7,37.9-1c6-0.2,11.9-0.3,17.9-0.5c5.6-0.1,12.1,0.6,17.6-0.5
					c8.4-1.7,3.3-14.5,2.5-19.9c-1.9-12.5-3.1-25.1-3.7-37.8c-0.6-12.1-0.5-24.3,0.1-36.5c0.6-12.7,2.7-25.1,3.9-37.8
					c0.8-9.2-8.1-7.4-14.9-7.5c-12.4-0.3-24.8-0.7-37.2-1c-13.7-0.3-27.3-0.2-41,1c-13.5,1.2-26.9,2.5-40.4,3.1
					c-28.2,1.1-56.4,0.4-84.6-0.5c-1.9-0.1-1.9,2.9,0,3c22.9,0.7,45.9,1.3,68.9,0.9c22.6-0.4,44.8-3.1,67.4-4.3
					c22.3-1.2,44.7,0.2,67,0.8c2.7,0.1,6.2-0.4,8.9,0.2c4.1,0.9,3.1,3.8,2.6,7.3c-0.7,5.2-1.4,10.4-1.9,15.6
					c-1.1,11.1-1.8,22.3-1.9,33.5c-0.3,21.6,1.3,43.2,4.7,64.4c0.4,2.6,1.7,6.1,1.4,8.6c-0.5,4.4-4.9,3.8-8.2,3.9
					c-6,0.2-11.9,0.3-17.9,0.5c-11.6,0.3-23.2,0.6-34.9,0.9c-46.2,1.2-92.3,2.4-138.5,3.7c-3,0.1-6.6,0.7-9.6,0.2
					c-4.1-0.6-4.2-3.2-4.1-6.6c0.2-6.5,0.6-13,0.9-19.6c0.4-12.7,0.6-25.5,0.4-38.2c-0.3-25.8-1.6-51.6-4-77.3
					C-185.8,233.5-188.8,233.5-188.6,235.4L-188.6,235.4z"/>
			</g>
		</g>
		<text transform="matrix(0.4812 0 0 1 -157.0453 343.9983)" class="st1 st2">SEJONG</text>
	</g>
</g>
<g>
	<defs>
		<rect id="SVGID_7_" x="-107.1" y="248.9" width="15" height="150"/>
	</defs>
	<clipPath id="SVGID_8_">
		<use xlink:href="#SVGID_7_"  style="overflow:visible;"/>
	</clipPath>
	<g class="st7">
		<g>
			<rect x="-152.1" y="248.9" class="st0" width="225" height="150"/>
		</g>
		<g>
			<g>
				<path d="M-150.4,252.3c2.3,24.7,3.6,49.5,3.9,74.3c0.1,12.4,0.1,24.8-0.3,37.2c-0.2,5.9-0.4,11.8-0.7,17.6
					c-0.2,3.8-1.4,9.1,0.8,12.6c1.5,2.5,4,2.8,6.7,2.9c6.6,0.1,13.3-0.4,19.9-0.5c12.6-0.3,25.2-0.7,37.8-1
					c25.2-0.7,50.5-1.3,75.7-2c12.6-0.3,25.2-0.7,37.9-1c6-0.2,11.9-0.3,17.9-0.5c5.6-0.1,12.1,0.5,17.6-0.6
					c8.4-1.7,3.3-14.5,2.5-19.9c-1.9-12.5-3.1-25.1-3.7-37.8c-0.6-12.1-0.5-24.3,0.1-36.4c0.6-12.7,2.7-25.1,3.9-37.8
					c0.8-9.2-8.1-7.4-14.9-7.5c-12.4-0.3-24.8-0.7-37.2-1c-13.7-0.3-27.3-0.2-41,1c-13.5,1.2-26.9,2.5-40.4,3
					c-28.2,1.1-56.4,0.4-84.6-0.5c-1.9-0.1-1.9,2.9,0,3c23,0.7,45.9,1.3,68.9,0.9c22.6-0.4,44.9-3.1,67.4-4.3
					c22.3-1.2,44.7,0.2,67,0.8c2.7,0.1,6.2-0.4,8.9,0.2c4.1,1,3.1,3.8,2.6,7.3c-0.7,5.2-1.4,10.4-1.9,15.6
					c-1.1,11.1-1.8,22.3-1.9,33.5c-0.3,21.6,1.3,43.1,4.7,64.4c0.4,2.6,1.7,6.1,1.4,8.6c-0.5,4.4-4.9,3.8-8.2,3.9
					c-6,0.2-11.9,0.3-17.9,0.5c-11.6,0.3-23.2,0.6-34.9,0.9c-46.2,1.2-92.3,2.5-138.5,3.7c-3,0.1-6.6,0.7-9.6,0.2
					c-4.1-0.6-4.2-3.2-4.1-6.6c0.2-6.5,0.6-13.1,0.9-19.6c0.4-12.7,0.6-25.5,0.4-38.2c-0.3-25.8-1.6-51.6-4-77.3
					C-147.6,250.4-150.6,250.3-150.4,252.3L-150.4,252.3z"/>
			</g>
		</g>
		<text transform="matrix(0.4812 0 0 1 -118.8113 360.8494)" class="st1 st2">SEJONG</text>
	</g>
</g>
<g>
	<defs>
		<rect id="SVGID_9_" x="-64.2" y="258.1" width="15" height="150"/>
	</defs>
	<clipPath id="SVGID_10_">
		<use xlink:href="#SVGID_9_"  style="overflow:visible;"/>
	</clipPath>
	<g class="st8">
		<g>
			<rect x="-124.2" y="258.1" class="st0" width="225" height="150"/>
		</g>
		<g>
			<g>
				<path d="M-122.5,261.4c2.3,24.7,3.6,49.5,3.9,74.3c0.2,12.4,0.1,24.8-0.3,37.2c-0.2,5.9-0.4,11.8-0.7,17.6
					c-0.2,3.8-1.3,9.1,0.8,12.6c1.5,2.5,4,2.8,6.7,2.9c6.6,0.1,13.3-0.4,19.9-0.5c12.6-0.3,25.2-0.7,37.9-1
					c25.2-0.7,50.5-1.3,75.7-2c12.6-0.3,25.2-0.7,37.9-1c6-0.2,11.9-0.3,17.9-0.5c5.6-0.1,12.1,0.6,17.6-0.5
					c8.4-1.7,3.3-14.5,2.5-19.9c-1.9-12.5-3.1-25.1-3.7-37.8c-0.6-12.1-0.5-24.3,0.1-36.5c0.6-12.7,2.7-25.1,3.9-37.8
					c0.8-9.2-8.1-7.4-14.9-7.5c-12.4-0.3-24.8-0.7-37.2-1c-13.7-0.3-27.3-0.2-41,1c-13.5,1.2-26.9,2.5-40.4,3.1
					c-28.2,1.1-56.4,0.4-84.6-0.5c-1.9-0.1-1.9,2.9,0,3c22.9,0.7,45.9,1.3,68.9,0.9c22.6-0.4,44.8-3.1,67.4-4.3
					c22.3-1.2,44.7,0.2,67,0.8c2.7,0.1,6.2-0.4,8.9,0.2c4.1,0.9,3.1,3.8,2.6,7.3c-0.7,5.2-1.4,10.4-1.9,15.6
					c-1.1,11.1-1.8,22.3-1.9,33.5C90,342.4,91.6,364,95,385.3c0.4,2.6,1.7,6.1,1.4,8.6c-0.5,4.4-4.9,3.8-8.2,3.9
					c-6,0.2-11.9,0.3-17.9,0.5c-11.6,0.3-23.2,0.6-34.9,0.9c-46.2,1.2-92.3,2.4-138.5,3.7c-3,0.1-6.6,0.7-9.6,0.2
					c-4.1-0.6-4.2-3.2-4.1-6.6c0.2-6.5,0.6-13,0.8-19.6c0.4-12.7,0.6-25.5,0.4-38.2c-0.3-25.8-1.6-51.6-4-77.3
					C-119.7,259.5-122.7,259.5-122.5,261.4L-122.5,261.4z"/>
			</g>
		</g>
		<text transform="matrix(0.4812 0 0 1 -90.9177 370.0408)" class="st1 st2">SEJONG</text>
	</g>
</g>
<g>
	<defs>
		<rect id="SVGID_11_" x="-26.1" y="258.1" width="15" height="150"/>
	</defs>
	<clipPath id="SVGID_12_">
		<use xlink:href="#SVGID_11_"  style="overflow:visible;"/>
	</clipPath>
	<g class="st9">
		<g>
			<rect x="-101.1" y="258.1" class="st0" width="225" height="150"/>
		</g>
		<g>
			<g>
				<path d="M-99.5,261.4c2.3,24.7,3.6,49.5,4,74.3c0.1,12.4,0,24.8-0.3,37.2c-0.2,5.9-0.4,11.8-0.7,17.6c-0.2,3.8-1.3,9.1,0.8,12.6
					c1.5,2.5,4,2.8,6.7,2.9c6.6,0.1,13.3-0.4,19.9-0.5c12.6-0.3,25.2-0.7,37.8-1c25.2-0.7,50.5-1.3,75.7-2c12.6-0.3,25.2-0.7,37.9-1
					c6-0.2,11.9-0.3,17.9-0.5c5.6-0.1,12.1,0.6,17.6-0.5c8.4-1.7,3.3-14.5,2.5-19.9c-1.9-12.5-3.1-25.1-3.7-37.8
					c-0.6-12.1-0.5-24.3,0.1-36.5c0.6-12.7,2.7-25.1,3.9-37.8c0.8-9.2-8.1-7.4-14.9-7.5c-12.4-0.3-24.8-0.7-37.2-1
					c-13.7-0.3-27.3-0.2-41,1c-13.5,1.2-26.9,2.5-40.4,3.1c-28.2,1.1-56.4,0.4-84.6-0.5c-1.9-0.1-1.9,2.9,0,3
					c23,0.7,45.9,1.3,68.9,0.9c22.6-0.4,44.8-3.1,67.4-4.3c22.3-1.2,44.7,0.2,67,0.8c2.7,0.1,6.2-0.4,8.9,0.2
					c4.1,0.9,3.1,3.8,2.6,7.3c-0.7,5.2-1.4,10.4-1.9,15.6c-1.1,11.1-1.8,22.3-1.9,33.5c-0.3,21.6,1.3,43.1,4.7,64.4
					c0.4,2.6,1.7,6.1,1.4,8.6c-0.5,4.4-4.9,3.8-8.2,3.9c-6,0.2-11.9,0.3-17.9,0.5c-11.6,0.3-23.2,0.6-34.9,0.9
					c-46.2,1.2-92.3,2.4-138.5,3.7c-3,0.1-6.6,0.7-9.6,0.2c-4.1-0.6-4.2-3.2-4.1-6.6c0.2-6.5,0.6-13,0.9-19.6
					c0.4-12.7,0.6-25.5,0.4-38.2c-0.3-25.8-1.6-51.6-4-77.3C-96.6,259.5-99.6,259.5-99.5,261.4L-99.5,261.4z"/>
			</g>
		</g>
		<text transform="matrix(0.4812 0 0 1 -67.8751 370.0408)" class="st1 st2">SEJONG</text>
	</g>
</g>
<g>
	<defs>
		<rect id="SVGID_13_" x="42.5" y="258.1" width="15" height="150"/>
	</defs>
	<clipPath id="SVGID_14_">
		<use xlink:href="#SVGID_13_"  style="overflow:visible;"/>
	</clipPath>
	<g class="st10">
		<g>
			<rect x="-47.5" y="258.1" class="st0" width="225" height="150"/>
		</g>
		<g>
			<g>
				<path d="M-45.9,261.4c2.3,24.7,3.6,49.5,4,74.3c0.1,12.4,0,24.8-0.3,37.2c-0.2,5.9-0.4,11.8-0.7,17.6c-0.2,3.8-1.3,9.1,0.8,12.6
					c1.5,2.5,4,2.8,6.7,2.9c6.6,0.1,13.3-0.4,19.9-0.5c12.6-0.3,25.2-0.7,37.8-1c25.2-0.7,50.5-1.3,75.7-2c12.6-0.3,25.2-0.7,37.9-1
					c6-0.2,11.9-0.3,17.9-0.5c5.6-0.1,12.1,0.6,17.6-0.5c8.4-1.7,3.3-14.5,2.5-19.9c-1.9-12.5-3.1-25.1-3.7-37.8
					c-0.6-12.1-0.5-24.3,0.1-36.5c0.6-12.7,2.7-25.1,3.9-37.8c0.8-9.2-8.1-7.4-14.9-7.5c-12.4-0.3-24.8-0.7-37.2-1
					c-13.7-0.3-27.3-0.2-41,1c-13.5,1.2-26.9,2.5-40.4,3.1c-28.2,1.1-56.4,0.4-84.6-0.5c-1.9-0.1-1.9,2.9,0,3
					c22.9,0.7,45.9,1.3,68.9,0.9c22.6-0.4,44.8-3.1,67.4-4.3c22.3-1.2,44.7,0.2,67,0.8c2.7,0.1,6.2-0.4,8.9,0.2
					c4.1,0.9,3.1,3.8,2.6,7.3c-0.7,5.2-1.4,10.4-1.9,15.6c-1.1,11.1-1.8,22.3-1.9,33.5c-0.3,21.6,1.3,43.1,4.7,64.4
					c0.4,2.6,1.7,6.1,1.4,8.6c-0.5,4.4-4.9,3.8-8.2,3.9c-6,0.2-11.9,0.3-17.9,0.5c-11.6,0.3-23.2,0.6-34.9,0.9
					c-46.2,1.2-92.3,2.4-138.5,3.7c-3,0.1-6.6,0.7-9.6,0.2c-4.1-0.6-4.2-3.2-4.1-6.6c0.2-6.5,0.6-13,0.9-19.6
					c0.4-12.7,0.6-25.5,0.4-38.2c-0.3-25.8-1.6-51.6-4-77.3C-43,259.5-46,259.5-45.9,261.4L-45.9,261.4z"/>
			</g>
		</g>
		<text transform="matrix(0.4812 0 0 1 -14.2581 370.0408)" class="st1 st2">SEJONG</text>
	</g>
</g>
<g>
	<defs>
		<rect id="SVGID_15_" x="86.5" y="267.3" width="15" height="150"/>
	</defs>
	<clipPath id="SVGID_16_">
		<use xlink:href="#SVGID_15_"  style="overflow:visible;"/>
	</clipPath>
	<g class="st11">
		<g>
			<rect x="-18.5" y="267.3" class="st0" width="225" height="150"/>
		</g>
		<g>
			<g>
				<path d="M-16.8,270.6c2.3,24.7,3.6,49.5,3.9,74.3c0.2,12.4,0.1,24.8-0.3,37.2c-0.2,5.9-0.4,11.8-0.7,17.6
					c-0.2,3.8-1.3,9.1,0.8,12.6c1.5,2.5,4,2.8,6.7,2.9c6.6,0.1,13.3-0.4,19.9-0.5c12.6-0.3,25.2-0.7,37.8-1
					c25.2-0.7,50.5-1.3,75.7-2c12.6-0.3,25.2-0.7,37.8-1c6-0.2,11.9-0.3,17.9-0.5c5.6-0.1,12.1,0.6,17.6-0.5
					c8.4-1.7,3.3-14.5,2.5-19.9c-1.9-12.5-3.1-25.1-3.7-37.8c-0.6-12.1-0.5-24.3,0.1-36.5c0.6-12.7,2.7-25.1,3.9-37.8
					c0.8-9.2-8.1-7.4-14.9-7.5c-12.4-0.3-24.8-0.7-37.2-1c-13.7-0.3-27.3-0.2-41,1c-13.5,1.2-26.9,2.5-40.4,3.1
					c-28.2,1.1-56.4,0.3-84.6-0.5c-1.9-0.1-1.9,2.9,0,3c23,0.7,45.9,1.3,68.9,0.9c22.6-0.4,44.8-3.1,67.4-4.3
					c22.3-1.2,44.7,0.2,67,0.8c2.7,0.1,6.2-0.4,8.9,0.2c4.1,0.9,3.1,3.8,2.6,7.3c-0.7,5.2-1.4,10.4-1.9,15.6
					c-1.1,11.1-1.8,22.3-1.9,33.5c-0.3,21.6,1.3,43.2,4.7,64.4c0.4,2.6,1.7,6.1,1.4,8.6c-0.5,4.4-4.9,3.8-8.2,3.9
					c-6,0.2-11.9,0.3-17.9,0.5c-11.6,0.3-23.2,0.6-34.9,0.9c-46.1,1.2-92.3,2.4-138.5,3.7c-3,0.1-6.6,0.7-9.6,0.2
					c-4.1-0.6-4.2-3.2-4.1-6.6c0.1-6.5,0.6-13,0.8-19.6c0.4-12.7,0.6-25.5,0.4-38.2c-0.3-25.8-1.6-51.6-4-77.3
					C-14,268.7-17,268.7-16.8,270.6L-16.8,270.6z"/>
			</g>
		</g>
		<text transform="matrix(0.4812 0 0 1 14.7845 379.2323)" class="st1 st2">SEJONG</text>
	</g>
</g>
<g>
	<defs>
		<rect id="SVGID_17_" x="157.5" y="267.3" width="15" height="150"/>
	</defs>
	<clipPath id="SVGID_18_">
		<use xlink:href="#SVGID_17_"  style="overflow:visible;"/>
	</clipPath>
	<g class="st12">
		<g>
			<rect x="37.5" y="267.3" class="st0" width="225" height="150"/>
		</g>
		<g>
			<g>
				<path d="M39.2,270.6c2.3,24.7,3.6,49.5,4,74.3c0.2,12.4,0,24.8-0.3,37.2c-0.2,5.9-0.4,11.8-0.7,17.6c-0.2,3.8-1.3,9.1,0.8,12.6
					c1.5,2.5,4,2.8,6.7,2.9c6.6,0.1,13.3-0.4,19.9-0.5c12.6-0.3,25.2-0.7,37.8-1c25.2-0.7,50.5-1.3,75.7-2c12.6-0.3,25.2-0.7,37.9-1
					c6-0.2,11.9-0.3,17.9-0.5c5.6-0.1,12.1,0.6,17.6-0.5c8.4-1.7,3.3-14.5,2.5-19.9c-1.9-12.5-3.1-25.1-3.7-37.8
					c-0.6-12.1-0.5-24.3,0.1-36.5c0.6-12.7,2.7-25.1,3.9-37.8c0.8-9.2-8.1-7.4-14.9-7.5c-12.4-0.3-24.8-0.7-37.2-1
					c-13.7-0.3-27.3-0.2-41,1c-13.5,1.2-26.9,2.5-40.4,3.1c-28.2,1.1-56.4,0.3-84.6-0.5c-1.9-0.1-1.9,2.9,0,3
					c22.9,0.7,45.9,1.3,68.9,0.9c22.6-0.4,44.8-3.1,67.4-4.3c22.3-1.2,44.7,0.2,67,0.8c2.7,0.1,6.2-0.4,8.9,0.2
					c4.1,0.9,3.1,3.8,2.6,7.3c-0.7,5.2-1.4,10.4-1.9,15.6c-1.1,11.1-1.8,22.3-1.9,33.5c-0.3,21.6,1.3,43.2,4.7,64.4
					c0.4,2.6,1.7,6.1,1.4,8.6c-0.5,4.4-4.9,3.8-8.2,3.9c-6,0.2-11.9,0.3-17.9,0.5c-11.6,0.3-23.2,0.6-34.9,0.9
					c-46.2,1.2-92.3,2.4-138.5,3.7c-3,0.1-6.6,0.7-9.6,0.2c-4.1-0.6-4.2-3.2-4.1-6.6c0.1-6.5,0.6-13,0.8-19.6
					c0.4-12.7,0.6-25.5,0.5-38.2c-0.3-25.8-1.6-51.6-4-77.3C42,268.7,39,268.7,39.2,270.6L39.2,270.6z"/>
			</g>
		</g>
		<text transform="matrix(0.4812 0 0 1 70.7632 379.2323)" class="st1 st2">SEJONG</text>
	</g>
</g>
<g>
	<defs>
		<rect id="SVGID_19_" x="216.4" y="267.3" width="15" height="150"/>
	</defs>
	<clipPath id="SVGID_20_">
		<use xlink:href="#SVGID_19_"  style="overflow:visible;"/>
	</clipPath>
	<g class="st13">
		<g>
			<rect x="81.4" y="267.3" class="st0" width="225" height="150"/>
		</g>
		<g>
			<g>
				<path d="M83.1,270.6c2.3,24.7,3.6,49.5,3.9,74.3c0.2,12.4,0.1,24.8-0.3,37.2c-0.2,5.9-0.4,11.8-0.7,17.6
					c-0.2,3.8-1.3,9.1,0.8,12.6c1.5,2.5,4,2.8,6.7,2.9c6.6,0.1,13.3-0.4,19.9-0.5c12.6-0.3,25.2-0.7,37.8-1
					c25.2-0.7,50.5-1.3,75.7-2c12.6-0.3,25.2-0.7,37.9-1c6-0.2,12-0.3,17.9-0.5c5.6-0.1,12.1,0.6,17.6-0.5
					c8.4-1.7,3.3-14.5,2.5-19.9c-1.9-12.5-3.1-25.1-3.7-37.8c-0.6-12.1-0.5-24.3,0.1-36.5c0.6-12.7,2.7-25.1,3.9-37.8
					c0.8-9.2-8.1-7.4-14.9-7.5c-12.4-0.3-24.8-0.7-37.2-1c-13.7-0.3-27.3-0.2-41,1c-13.5,1.2-26.9,2.5-40.4,3.1
					c-28.2,1.1-56.4,0.3-84.6-0.5c-1.9-0.1-1.9,2.9,0,3c22.9,0.7,45.9,1.3,68.9,0.9c22.6-0.4,44.9-3.1,67.4-4.3
					c22.3-1.2,44.7,0.2,67,0.8c2.7,0.1,6.2-0.4,8.9,0.2c4.1,0.9,3.1,3.8,2.6,7.3c-0.7,5.2-1.4,10.4-1.9,15.6
					c-1.1,11.1-1.8,22.3-1.9,33.5c-0.3,21.6,1.3,43.2,4.7,64.4c0.4,2.6,1.7,6.1,1.4,8.6c-0.5,4.4-4.9,3.8-8.2,3.9
					c-6,0.2-12,0.3-17.9,0.5c-11.6,0.3-23.2,0.6-34.9,0.9c-46.1,1.2-92.3,2.4-138.5,3.7c-3,0.1-6.6,0.7-9.6,0.2
					c-4.1-0.6-4.2-3.2-4.1-6.6c0.2-6.5,0.6-13,0.8-19.6c0.4-12.7,0.6-25.5,0.5-38.2c-0.3-25.8-1.6-51.6-4-77.3
					C85.9,268.7,82.9,268.7,83.1,270.6L83.1,270.6z"/>
			</g>
		</g>
		<text transform="matrix(0.4812 0 0 1 114.6541 379.2323)" class="st1 st2">SEJONG</text>
	</g>
</g>
<g>
	<defs>
		<rect id="SVGID_21_" x="277.5" y="267.3" width="15" height="150"/>
	</defs>
	<clipPath id="SVGID_22_">
		<use xlink:href="#SVGID_21_"  style="overflow:visible;"/>
	</clipPath>
	<g class="st14">
		<g>
			<rect x="127.5" y="267.3" class="st0" width="225" height="150"/>
		</g>
		<g>
			<g>
				<path d="M129.2,270.6c2.3,24.7,3.6,49.5,3.9,74.3c0.2,12.4,0.1,24.8-0.3,37.2c-0.2,5.9-0.4,11.8-0.7,17.6
					c-0.2,3.8-1.3,9.1,0.8,12.6c1.5,2.5,4,2.8,6.7,2.9c6.6,0.1,13.3-0.4,19.9-0.5c12.6-0.3,25.2-0.7,37.9-1
					c25.2-0.7,50.5-1.3,75.7-2c12.6-0.3,25.2-0.7,37.9-1c6-0.2,12-0.3,17.9-0.5c5.6-0.1,12.1,0.6,17.6-0.5
					c8.4-1.7,3.3-14.5,2.5-19.9c-1.9-12.5-3.1-25.1-3.7-37.8c-0.6-12.1-0.5-24.3,0.1-36.5c0.6-12.7,2.7-25.1,3.9-37.8
					c0.8-9.2-8.1-7.4-14.9-7.5c-12.4-0.3-24.8-0.7-37.2-1c-13.7-0.3-27.3-0.2-41,1c-13.5,1.2-26.9,2.5-40.4,3.1
					c-28.2,1.1-56.4,0.3-84.6-0.5c-1.9-0.1-1.9,2.9,0,3c22.9,0.7,45.9,1.3,68.9,0.9c22.6-0.4,44.8-3.1,67.4-4.3
					c22.3-1.2,44.7,0.2,67,0.8c2.7,0.1,6.2-0.4,8.9,0.2c4.1,0.9,3.1,3.8,2.6,7.3c-0.7,5.2-1.4,10.4-1.9,15.6
					c-1.2,11.1-1.8,22.3-1.9,33.5c-0.3,21.6,1.3,43.2,4.7,64.4c0.4,2.6,1.7,6.1,1.4,8.6c-0.5,4.4-4.9,3.8-8.2,3.9
					c-6,0.2-11.9,0.3-17.9,0.5c-11.6,0.3-23.2,0.6-34.9,0.9c-46.2,1.2-92.3,2.4-138.5,3.7c-3,0.1-6.6,0.7-9.6,0.2
					c-4.1-0.6-4.2-3.2-4.1-6.6c0.1-6.5,0.6-13,0.8-19.6c0.4-12.7,0.6-25.5,0.5-38.2c-0.3-25.8-1.6-51.6-4-77.3
					C132,268.7,129,268.7,129.2,270.6L129.2,270.6z"/>
			</g>
		</g>
		<text transform="matrix(0.4812 0 0 1 160.7632 379.2323)" class="st1 st2">SEJONG</text>
	</g>
</g>
<g>
	<defs>
		<rect id="SVGID_23_" x="340.6" y="267.3" width="15" height="150"/>
	</defs>
	<clipPath id="SVGID_24_">
		<use xlink:href="#SVGID_23_"  style="overflow:visible;"/>
	</clipPath>
	<g class="st15">
		<g>
			<rect x="175.6" y="267.3" class="st0" width="225" height="150"/>
		</g>
		<g>
			<g>
				<path d="M177.3,270.6c2.3,24.7,3.6,49.5,4,74.3c0.1,12.4,0,24.8-0.3,37.2c-0.2,5.9-0.4,11.8-0.7,17.6c-0.2,3.8-1.4,9.1,0.8,12.6
					c1.5,2.5,4,2.8,6.7,2.9c6.6,0.1,13.3-0.4,19.9-0.5c12.6-0.3,25.2-0.7,37.9-1c25.2-0.7,50.5-1.3,75.7-2c12.6-0.3,25.2-0.7,37.9-1
					c6-0.2,12-0.3,17.9-0.5c5.6-0.1,12.1,0.6,17.6-0.5c8.4-1.7,3.3-14.5,2.5-19.9c-1.9-12.5-3.1-25.1-3.7-37.8
					c-0.6-12.1-0.5-24.3,0.1-36.5c0.6-12.7,2.7-25.1,3.9-37.8c0.8-9.2-8.1-7.4-14.9-7.5c-12.4-0.3-24.8-0.7-37.2-1
					c-13.7-0.3-27.3-0.2-41,1c-13.5,1.2-26.9,2.5-40.4,3.1c-28.2,1.1-56.4,0.3-84.6-0.5c-1.9-0.1-1.9,2.9,0,3
					c22.9,0.7,45.9,1.3,68.9,0.9c22.6-0.4,44.8-3.1,67.4-4.3c22.3-1.2,44.7,0.2,67,0.8c2.7,0.1,6.2-0.4,8.9,0.2
					c4.1,0.9,3.1,3.8,2.6,7.3c-0.7,5.2-1.4,10.4-1.9,15.6c-1.1,11.1-1.8,22.3-1.9,33.5c-0.3,21.6,1.3,43.2,4.7,64.4
					c0.4,2.6,1.7,6.1,1.4,8.6c-0.5,4.4-4.9,3.8-8.2,3.9c-6,0.2-12,0.3-17.9,0.5c-11.6,0.3-23.2,0.6-34.9,0.9
					c-46.2,1.2-92.3,2.4-138.5,3.7c-3,0.1-6.6,0.7-9.6,0.2c-4.1-0.6-4.2-3.2-4.1-6.6c0.1-6.5,0.6-13,0.9-19.6
					c0.4-12.7,0.6-25.5,0.4-38.2c-0.3-25.8-1.6-51.6-4-77.3C180.1,268.7,177.1,268.7,177.3,270.6L177.3,270.6z"/>
			</g>
		</g>
		<text transform="matrix(0.4812 0 0 1 208.8909 379.2322)" class="st1 st2">SEJONG</text>
	</g>
</g>
<g>
	<defs>
		<rect id="SVGID_25_" x="406.9" y="276.5" width="15" height="150"/>
	</defs>
	<clipPath id="SVGID_26_">
		<use xlink:href="#SVGID_25_"  style="overflow:visible;"/>
	</clipPath>
	<g class="st16">
		<g>
			<rect x="226.9" y="276.5" class="st0" width="225" height="150"/>
		</g>
		<g>
			<g>
				<path d="M228.6,279.8c2.3,24.7,3.6,49.5,4,74.3c0.1,12.4,0.1,24.8-0.3,37.2c-0.2,5.9-0.4,11.8-0.7,17.6
					c-0.2,3.8-1.4,9.1,0.8,12.6c1.5,2.5,4,2.8,6.7,2.9c6.6,0.1,13.3-0.4,19.9-0.5c12.6-0.3,25.2-0.7,37.8-1
					c25.2-0.7,50.5-1.3,75.7-2c12.6-0.3,25.2-0.7,37.9-1c6-0.2,11.9-0.3,17.9-0.5c5.6-0.1,12.1,0.5,17.6-0.6
					c8.4-1.7,3.3-14.5,2.5-19.9c-1.9-12.5-3.1-25.1-3.7-37.8c-0.6-12.1-0.5-24.3,0.1-36.4c0.6-12.7,2.7-25.1,3.9-37.8
					c0.8-9.2-8.1-7.4-14.9-7.5c-12.4-0.3-24.8-0.7-37.2-1c-13.7-0.3-27.3-0.2-41,1c-13.5,1.2-26.9,2.5-40.4,3
					c-28.2,1.2-56.4,0.4-84.6-0.5c-1.9-0.1-1.9,2.9,0,3c22.9,0.7,45.9,1.3,68.9,0.9c22.6-0.4,44.9-3.1,67.4-4.3
					c22.3-1.2,44.7,0.2,67,0.8c2.7,0.1,6.2-0.4,8.9,0.2c4.1,1,3.1,3.8,2.6,7.3c-0.7,5.2-1.4,10.4-2,15.6
					c-1.1,11.1-1.8,22.3-1.9,33.5c-0.3,21.6,1.3,43.1,4.7,64.4c0.4,2.6,1.7,6.1,1.4,8.6c-0.5,4.4-5,3.8-8.2,3.9
					c-6,0.2-11.9,0.3-17.9,0.5c-11.6,0.3-23.2,0.6-34.9,0.9c-46.1,1.2-92.3,2.5-138.5,3.7c-3,0.1-6.6,0.7-9.6,0.2
					c-4.1-0.6-4.2-3.2-4.1-6.6c0.2-6.5,0.6-13.1,0.9-19.6c0.4-12.7,0.6-25.5,0.4-38.2c-0.3-25.8-1.6-51.6-4-77.3
					C231.4,277.9,228.4,277.9,228.6,279.8L228.6,279.8z"/>
			</g>
		</g>
		<text transform="matrix(0.4812 0 0 1 260.1461 388.4237)" class="st1 st2">SEJONG</text>
	</g>
</g>
<g>
	<defs>
		<rect id="SVGID_27_" x="463" y="267.3" width="15" height="150"/>
	</defs>
	<clipPath id="SVGID_28_">
		<use xlink:href="#SVGID_27_"  style="overflow:visible;"/>
	</clipPath>
	<g class="st17">
		<g>
			<rect x="268" y="267.3" class="st0" width="225" height="150"/>
		</g>
		<g>
			<g>
				<path d="M269.7,270.6c2.3,24.7,3.6,49.5,4,74.3c0.1,12.4,0,24.8-0.3,37.2c-0.2,5.9-0.4,11.8-0.7,17.6c-0.2,3.8-1.4,9.1,0.8,12.6
					c1.5,2.5,4,2.8,6.7,2.9c6.6,0.1,13.3-0.4,19.9-0.5c12.6-0.3,25.2-0.7,37.9-1c25.2-0.7,50.5-1.3,75.7-2c12.6-0.3,25.2-0.7,37.9-1
					c6-0.2,12-0.3,17.9-0.5c5.6-0.1,12.1,0.6,17.6-0.5c8.4-1.7,3.3-14.5,2.5-19.9c-1.9-12.5-3.1-25.1-3.7-37.8
					c-0.6-12.1-0.5-24.3,0.1-36.5c0.6-12.7,2.7-25.1,3.9-37.8c0.8-9.2-8.1-7.4-14.9-7.5c-12.4-0.3-24.8-0.7-37.2-1
					c-13.7-0.3-27.3-0.2-41,1c-13.5,1.2-26.9,2.5-40.4,3.1c-28.2,1.1-56.4,0.3-84.6-0.5c-1.9-0.1-1.9,2.9,0,3
					c22.9,0.7,45.9,1.3,68.9,0.9c22.6-0.4,44.9-3.1,67.4-4.3c22.3-1.2,44.7,0.2,67,0.8c2.7,0.1,6.2-0.4,8.9,0.2
					c4.1,0.9,3.1,3.8,2.6,7.3c-0.7,5.2-1.4,10.4-1.9,15.6c-1.1,11.1-1.8,22.3-1.9,33.5c-0.3,21.6,1.3,43.2,4.7,64.4
					c0.4,2.6,1.7,6.1,1.4,8.6c-0.5,4.4-4.9,3.8-8.2,3.9c-6,0.2-12,0.3-17.9,0.5c-11.6,0.3-23.2,0.6-34.9,0.9
					c-46.1,1.2-92.3,2.4-138.5,3.7c-3,0.1-6.6,0.7-9.6,0.2c-4.1-0.6-4.2-3.2-4.1-6.6c0.1-6.5,0.6-13,0.9-19.6
					c0.4-12.7,0.6-25.5,0.4-38.2c-0.3-25.8-1.6-51.6-4-77.3C272.5,268.7,269.5,268.7,269.7,270.6L269.7,270.6z"/>
			</g>
		</g>
		<text transform="matrix(0.4812 0 0 1 301.2526 379.2321)" class="st1 st2">SEJONG</text>
	</g>
</g>
<g>
	<defs>
		<rect id="SVGID_29_" x="520.3" y="248.9" width="15" height="150"/>
	</defs>
	<clipPath id="SVGID_30_">
		<use xlink:href="#SVGID_29_"  style="overflow:visible;"/>
	</clipPath>
	<g class="st18">
		<g>
			<rect x="310.3" y="248.9" class="st0" width="225" height="150"/>
		</g>
		<g>
			<g>
				<path d="M312,252.3c2.3,24.7,3.6,49.5,3.9,74.3c0.2,12.4,0.1,24.8-0.3,37.2c-0.2,5.9-0.4,11.8-0.7,17.6
					c-0.2,3.8-1.3,9.1,0.8,12.6c1.5,2.5,4,2.8,6.7,2.9c6.6,0.1,13.3-0.4,19.9-0.5c12.6-0.3,25.2-0.7,37.9-1
					c25.2-0.7,50.5-1.3,75.7-2c12.6-0.3,25.2-0.7,37.9-1c6-0.2,12-0.3,17.9-0.5c5.6-0.1,12.1,0.5,17.6-0.6
					c8.4-1.7,3.3-14.5,2.5-19.9c-1.9-12.5-3.1-25.1-3.7-37.8c-0.6-12.1-0.5-24.3,0.1-36.4c0.6-12.7,2.7-25.1,3.9-37.8
					c0.8-9.2-8.1-7.4-14.9-7.5c-12.4-0.3-24.8-0.7-37.2-1c-13.7-0.3-27.3-0.2-41,1c-13.5,1.2-26.9,2.5-40.4,3
					c-28.2,1.1-56.4,0.4-84.6-0.5c-1.9-0.1-1.9,2.9,0,3c22.9,0.7,45.9,1.3,68.9,0.9c22.6-0.4,44.9-3.1,67.4-4.3
					c22.3-1.2,44.7,0.2,67,0.8c2.7,0.1,6.2-0.4,8.9,0.2c4.1,1,3.1,3.8,2.6,7.3c-0.7,5.2-1.4,10.4-2,15.6
					c-1.1,11.1-1.8,22.3-1.9,33.5c-0.3,21.6,1.3,43.1,4.7,64.4c0.4,2.6,1.7,6.1,1.4,8.6c-0.5,4.4-5,3.8-8.2,3.9
					c-6,0.2-12,0.3-17.9,0.5c-11.6,0.3-23.2,0.6-34.9,0.9c-46.1,1.2-92.3,2.5-138.5,3.7c-3,0.1-6.6,0.7-9.6,0.2
					c-4.1-0.6-4.2-3.2-4.1-6.6c0.1-6.5,0.6-13.1,0.8-19.6c0.4-12.7,0.6-25.5,0.5-38.2c-0.3-25.8-1.6-51.6-4-77.3
					C314.8,250.4,311.8,250.3,312,252.3L312,252.3z"/>
			</g>
		</g>
		<text transform="matrix(0.4812 0 0 1 343.5717 360.8491)" class="st1 st2">SEJONG</text>
	</g>
</g>
</svg>
