<?xml version="1.0" encoding="utf-8"?>
<!-- Generator: Adobe Illustrator 23.0.0, SVG Export Plug-In . SVG Version: 6.00 Build 0)  -->
<svg version="1.1" id="Layer_1" xmlns="http://www.w3.org/2000/svg" xmlns:xlink="http://www.w3.org/1999/xlink" x="0px" y="0px"
	 viewBox="0 0 225 150" style="enable-background:new 0 0 225 150;" xml:space="preserve">
<style type="text/css">
	.st0{fill:#FFFFFF;}
	.st1{font-family:'ArialMT';}
	.st2{font-size:42.2219px;}
	.st3{fill:none;stroke:#000000;stroke-miterlimit:10;}
	.st4{font-family:'BabyMonkey-Regular';}
	.st5{font-size:60.9568px;}
	.st6{fill:#FFFFFF;stroke:#FF1400;stroke-miterlimit:10;}
	.st7{clip-path:url(#SVGID_2_);}
	.st8{clip-path:url(#SVGID_4_);}
	.st9{clip-path:url(#SVGID_6_);}
	.st10{clip-path:url(#SVGID_8_);}
	.st11{clip-path:url(#SVGID_10_);}
	.st12{clip-path:url(#SVGID_12_);}
	.st13{clip-path:url(#SVGID_14_);}
	.st14{clip-path:url(#SVGID_16_);}
	.st15{clip-path:url(#SVGID_18_);}
	.st16{clip-path:url(#SVGID_20_);}
	.st17{clip-path:url(#SVGID_22_);}
	.st18{clip-path:url(#SVGID_24_);}
	.st19{clip-path:url(#SVGID_26_);}
	.st20{clip-path:url(#SVGID_28_);}
	.st21{clip-path:url(#SVGID_30_);}
</style>
<g>
	<g>
		<rect class="st0" width="225" height="150"/>
	</g>
	<g>
		<g>
			<path d="M4.9,2.4C3.7,27.6,2.2,52.8,1.4,77.9c-0.3,11.7,0.9,22.9,2.6,34.5c1,6.3,1.8,13,0.4,19.3c-0.8,3.7-4.1,8.2-2.5,12
				c1,2.5,3.6,3.4,6.1,3.8c5.9,1,12.4,0.5,18.4,0.6c12.6,0.4,25.1,0.7,37.7,1c25.2,0.7,50.4,1.7,75.6,1.7
				c25.1,0.1,50.3-1.2,75.3-4.2c3.4-0.4,6.9-0.6,8.6-4.1c2.1-4.2,1.8-10,1.4-14.5c-1-12-4.6-23.3-3.8-35.5
				c0.9-12.3,3.3-24.5,3.7-36.9c0.4-12.6-0.4-25.2-1.4-37.7c-0.6-7.5,0.8-16.2-8.5-17.1c-12.2-1.1-24.6-0.9-36.9-0.8
				c-55.6,0.5-111.3,7-166.8,0.4c-1.9-0.2-1.9,2.8,0,3c45.1,5.4,90.5,2.1,135.7,0.4c22.5-0.8,45.5-2.1,68,0
				c6.3,0.6,5.1,9.2,5.5,14.1c0.5,5.8,0.9,11.6,1.1,17.4c0.5,11.6,0.5,23.2-0.7,34.8c-1.2,11-3.6,22-2.7,33.2c0.9,11,5,21.9,3.8,33
				c-0.3,2.8-0.6,5.5-3.9,6.9c-1.3,0.6-3.7,0.5-5.1,0.6c-2.6,0.3-5.3,0.6-7.9,0.8c-5.9,0.6-11.9,1.1-17.8,1.5
				c-11.6,0.8-23.1,1.3-34.7,1.5c-46,0.7-92.2-1.8-138.2-3c-1.5,0-3.1,0-4.6-0.1c-2.3-0.2-4.9-1.5-5.2-4.3c-0.2-2.1,2.2-5.7,2.7-7.9
				c1.1-5.3,0.9-10.7,0.3-16.1c-1.5-12.3-3.5-24.1-3.3-36.6C4.9,54.1,6.7,28.2,7.9,2.4C8,0.5,5,0.5,4.9,2.4L4.9,2.4z"/>
		</g>
	</g>
	<text transform="matrix(0.8483 0 0 1 47.4453 104.4443)" class="st0 st1 st2">SEJONG</text>
	<text transform="matrix(0.7977 0 0 1 25.9995 74.4419)" class="st3 st4 st5">SEJONG</text>
</g>
<rect class="st6" width="15" height="150"/>
<rect x="15" y="0" class="st6" width="15" height="150"/>
<rect x="30" y="0" class="st6" width="15" height="150"/>
<rect x="45" y="0" class="st6" width="15" height="150"/>
<rect x="60" y="0" class="st6" width="15" height="150"/>
<rect x="75" y="0" class="st6" width="15" height="150"/>
<rect x="90" y="0" class="st6" width="15" height="150"/>
<rect x="105" y="0" class="st6" width="15" height="150"/>
<rect x="120" y="0" class="st6" width="15" height="150"/>
<rect x="135" y="0" class="st6" width="15" height="150"/>
<rect x="150" y="0" class="st6" width="15" height="150"/>
<rect x="165" y="0" class="st6" width="15" height="150"/>
<rect x="180" y="0" class="st6" width="15" height="150"/>
<rect x="195" y="0" class="st6" width="15" height="150"/>
<rect x="210" y="0" class="st6" width="15" height="150"/>
<g>
	<defs>
		<rect id="SVGID_1_" x="-99.1" y="276.9" width="15" height="150"/>
	</defs>
	<clipPath id="SVGID_2_">
		<use xlink:href="#SVGID_1_"  style="overflow:visible;"/>
	</clipPath>
	<g class="st7">
		<g>
			<rect x="-99.1" y="276.9" class="st0" width="225" height="150"/>
		</g>
		<g>
			<g>
				<path d="M-94.2,279.3c-1.2,25.2-2.8,50.3-3.5,75.5c-0.3,11.7,0.9,22.9,2.6,34.5c1,6.3,1.8,13,0.4,19.3c-0.8,3.7-4.1,8.2-2.5,12
					c1,2.5,3.6,3.4,6.1,3.8c5.9,1,12.4,0.5,18.4,0.6c12.6,0.4,25.2,0.7,37.7,1c25.2,0.7,50.4,1.7,75.6,1.7
					c25.1,0.1,50.3-1.2,75.3-4.2c3.4-0.4,6.9-0.6,8.6-4.1c2.1-4.2,1.8-10,1.4-14.5c-1-12-4.6-23.3-3.8-35.5
					c0.9-12.4,3.3-24.5,3.7-36.9c0.4-12.6-0.4-25.2-1.4-37.7c-0.6-7.5,0.8-16.2-8.5-17.1c-12.2-1.1-24.6-0.9-36.9-0.8
					c-55.6,0.5-111.4,7-166.8,0.4c-1.9-0.2-1.9,2.8,0,3c45.1,5.4,90.5,2.1,135.7,0.4c22.5-0.9,45.5-2.1,68,0
					c6.3,0.6,5.1,9.2,5.5,14.1c0.5,5.8,0.9,11.6,1.1,17.4c0.5,11.6,0.5,23.2-0.7,34.8c-1.2,11-3.6,22-2.7,33.2c0.9,11,5,21.9,3.8,33
					c-0.3,2.8-0.6,5.5-3.9,6.9c-1.3,0.6-3.7,0.5-5.1,0.6c-2.6,0.3-5.3,0.6-7.9,0.8c-5.9,0.6-11.9,1.1-17.8,1.5
					c-11.6,0.8-23.1,1.3-34.7,1.5c-46,0.7-92.2-1.8-138.2-3c-1.5,0-3.1,0-4.6-0.1c-2.3-0.2-4.9-1.5-5.2-4.3
					c-0.2-2.1,2.2-5.7,2.7-7.9c1.1-5.3,0.9-10.7,0.3-16.1c-1.5-12.3-3.5-24.1-3.3-36.6c0.5-25.8,2.3-51.7,3.5-77.5
					C-91.1,277.4-94.1,277.4-94.2,279.3L-94.2,279.3z"/>
			</g>
		</g>
		<text transform="matrix(0.8483 0 0 1 -51.6943 381.338)" class="st0 st1 st2">SEJONG</text>
		<text transform="matrix(0.7977 0 0 1 -73.1401 351.3355)" class="st3 st4 st5">SEJONG</text>
	</g>
</g>
<g>
	<defs>
		<rect id="SVGID_3_" x="-53.3" y="276.9" width="15" height="150"/>
	</defs>
	<clipPath id="SVGID_4_">
		<use xlink:href="#SVGID_3_"  style="overflow:visible;"/>
	</clipPath>
	<g class="st8">
		<g>
			<rect x="-68.3" y="276.9" class="st0" width="225" height="150"/>
		</g>
		<g>
			<g>
				<path d="M-63.4,279.3c-1.2,25.2-2.8,50.3-3.5,75.5c-0.3,11.7,0.9,22.9,2.6,34.5c1,6.3,1.8,13,0.4,19.3c-0.8,3.7-4.1,8.2-2.5,12
					c1,2.5,3.6,3.4,6.1,3.8c5.9,1,12.4,0.5,18.4,0.6c12.6,0.4,25.1,0.7,37.7,1c25.2,0.7,50.4,1.7,75.6,1.7
					c25.1,0.1,50.3-1.2,75.3-4.2c3.4-0.4,6.9-0.6,8.6-4.1c2.1-4.2,1.8-10,1.4-14.5c-1-12-4.6-23.3-3.8-35.5
					c0.9-12.4,3.3-24.5,3.7-36.9c0.4-12.6-0.4-25.2-1.4-37.7c-0.6-7.5,0.8-16.2-8.5-17.1c-12.2-1.1-24.6-0.9-36.9-0.8
					c-55.6,0.5-111.3,7-166.8,0.4c-1.9-0.2-1.9,2.8,0,3c45.1,5.4,90.5,2.1,135.7,0.4c22.5-0.9,45.5-2.1,68,0
					c6.3,0.6,5.1,9.2,5.5,14.1c0.5,5.8,0.9,11.6,1.1,17.4c0.5,11.6,0.5,23.2-0.7,34.8c-1.2,11-3.6,22-2.7,33.2c0.9,11,5,21.9,3.8,33
					c-0.3,2.8-0.6,5.5-3.9,6.9c-1.3,0.6-3.7,0.5-5.1,0.6c-2.6,0.3-5.3,0.6-7.9,0.8c-5.9,0.6-11.9,1.1-17.8,1.5
					c-11.6,0.8-23.1,1.3-34.7,1.5c-46,0.7-92.2-1.8-138.2-3c-1.5,0-3.1,0-4.6-0.1c-2.3-0.2-4.9-1.5-5.2-4.3
					c-0.2-2.1,2.2-5.7,2.7-7.9c1.1-5.3,0.9-10.7,0.3-16.1c-1.5-12.3-3.5-24.1-3.3-36.6c0.5-25.8,2.3-51.7,3.5-77.5
					C-60.3,277.4-63.3,277.4-63.4,279.3L-63.4,279.3z"/>
			</g>
		</g>
		<text transform="matrix(0.8483 0 0 1 -20.882 381.338)" class="st0 st1 st2">SEJONG</text>
		<text transform="matrix(0.7977 0 0 1 -42.3279 351.3355)" class="st3 st4 st5">SEJONG</text>
	</g>
</g>
<g>
	<defs>
		<rect id="SVGID_5_" x="-7.5" y="276.9" width="15" height="150"/>
	</defs>
	<clipPath id="SVGID_6_">
		<use xlink:href="#SVGID_5_"  style="overflow:visible;"/>
	</clipPath>
	<g class="st9">
		<g>
			<rect x="-37.5" y="276.9" class="st0" width="225" height="150"/>
		</g>
		<g>
			<g>
				<path d="M-32.6,279.3c-1.2,25.2-2.8,50.3-3.5,75.5c-0.3,11.7,0.9,22.9,2.6,34.5c1,6.3,1.8,13,0.4,19.3c-0.8,3.7-4.1,8.2-2.5,12
					c1,2.5,3.6,3.4,6.1,3.8c5.9,1,12.4,0.5,18.4,0.6c12.6,0.4,25.1,0.7,37.7,1c25.2,0.7,50.4,1.7,75.6,1.7
					c25.1,0.1,50.3-1.2,75.3-4.2c3.4-0.4,6.9-0.6,8.6-4.1c2.1-4.2,1.8-10,1.4-14.5c-1-12-4.6-23.3-3.8-35.5
					c0.9-12.4,3.3-24.5,3.7-36.9c0.4-12.6-0.4-25.2-1.4-37.7c-0.6-7.5,0.8-16.2-8.5-17.1c-12.2-1.1-24.6-0.9-36.9-0.8
					c-55.6,0.5-111.3,7-166.8,0.4c-1.9-0.2-1.9,2.8,0,3c45.1,5.4,90.5,2.1,135.7,0.4c22.5-0.9,45.5-2.1,68,0
					c6.3,0.6,5.1,9.2,5.5,14.1c0.5,5.8,0.9,11.6,1.1,17.4c0.5,11.6,0.5,23.2-0.7,34.8c-1.2,11-3.6,22-2.7,33.2c0.9,11,5,21.9,3.8,33
					c-0.3,2.8-0.6,5.5-3.9,6.9c-1.3,0.6-3.7,0.5-5.1,0.6c-2.6,0.3-5.3,0.6-7.9,0.8c-5.9,0.6-11.9,1.1-17.8,1.5
					c-11.6,0.8-23.1,1.3-34.7,1.5c-46,0.7-92.2-1.8-138.2-3c-1.5,0-3.1,0-4.6-0.1c-2.3-0.2-4.9-1.5-5.2-4.3
					c-0.2-2.1,2.2-5.7,2.7-7.9c1.1-5.3,0.9-10.7,0.3-16.1c-1.5-12.3-3.5-24.1-3.3-36.6c0.5-25.8,2.3-51.7,3.5-77.5
					C-29.5,277.4-32.5,277.4-32.6,279.3L-32.6,279.3z"/>
			</g>
		</g>
		<text transform="matrix(0.8483 0 0 1 9.9454 381.338)" class="st0 st1 st2">SEJONG</text>
		<text transform="matrix(0.7977 0 0 1 -11.5004 351.3355)" class="st3 st4 st5">SEJONG</text>
	</g>
</g>
<g>
	<defs>
		<rect id="SVGID_7_" x="37.5" y="276.9" width="15" height="150"/>
	</defs>
	<clipPath id="SVGID_8_">
		<use xlink:href="#SVGID_7_"  style="overflow:visible;"/>
	</clipPath>
	<g class="st10">
		<g>
			<rect x="-7.5" y="276.9" class="st0" width="225" height="150"/>
		</g>
		<g>
			<g>
				<path d="M-2.6,279.3c-1.2,25.2-2.8,50.3-3.5,75.5c-0.3,11.7,0.9,22.9,2.6,34.5c1,6.3,1.8,13,0.4,19.3c-0.8,3.7-4.1,8.2-2.5,12
					c1,2.5,3.6,3.4,6.1,3.8c5.9,1,12.4,0.5,18.4,0.6c12.6,0.4,25.1,0.7,37.7,1c25.2,0.7,50.4,1.7,75.6,1.7
					c25.1,0.1,50.3-1.2,75.3-4.2c3.4-0.4,6.9-0.6,8.6-4.1c2.1-4.2,1.8-10,1.4-14.5c-1-12-4.6-23.3-3.8-35.5
					c0.9-12.4,3.3-24.5,3.7-36.9c0.4-12.6-0.4-25.2-1.4-37.7c-0.6-7.5,0.8-16.2-8.5-17.1c-12.2-1.1-24.6-0.9-36.9-0.8
					c-55.6,0.5-111.3,7-166.8,0.4c-1.9-0.2-1.9,2.8,0,3c45.1,5.4,90.5,2.1,135.7,0.4c22.5-0.9,45.5-2.1,68,0
					c6.3,0.6,5.1,9.2,5.5,14.1c0.5,5.8,0.9,11.6,1.1,17.4c0.5,11.6,0.5,23.2-0.7,34.8c-1.2,11-3.6,22-2.7,33.2c0.9,11,5,21.9,3.8,33
					c-0.3,2.8-0.6,5.5-3.9,6.9c-1.3,0.6-3.7,0.5-5.1,0.6c-2.6,0.3-5.3,0.6-7.9,0.8c-5.9,0.6-11.9,1.1-17.8,1.5
					c-11.6,0.8-23.1,1.3-34.7,1.5c-46,0.7-92.2-1.8-138.2-3c-1.5,0-3.1,0-4.6-0.1c-2.3-0.2-4.9-1.5-5.2-4.3
					c-0.2-2.1,2.2-5.7,2.7-7.9c1.1-5.3,0.9-10.7,0.3-16.1c-1.5-12.3-3.5-24.1-3.3-36.6c0.5-25.8,2.3-51.7,3.5-77.5
					C0.5,277.4-2.5,277.4-2.6,279.3L-2.6,279.3z"/>
			</g>
		</g>
		<text transform="matrix(0.8483 0 0 1 39.9454 381.338)" class="st0 st1 st2">SEJONG</text>
		<text transform="matrix(0.7977 0 0 1 18.4996 351.3355)" class="st3 st4 st5">SEJONG</text>
	</g>
</g>
<g>
	<defs>
		<rect id="SVGID_9_" x="90" y="276.9" width="15" height="150"/>
	</defs>
	<clipPath id="SVGID_10_">
		<use xlink:href="#SVGID_9_"  style="overflow:visible;"/>
	</clipPath>
	<g class="st11">
		<g>
			<rect x="30" y="276.9" class="st0" width="225" height="150"/>
		</g>
		<g>
			<g>
				<path d="M34.9,279.3c-1.2,25.2-2.8,50.3-3.5,75.5c-0.3,11.7,0.9,22.9,2.6,34.5c1,6.3,1.8,13,0.4,19.3c-0.8,3.7-4.1,8.2-2.5,12
					c1,2.5,3.6,3.4,6.1,3.8c5.9,1,12.4,0.5,18.4,0.6c12.6,0.4,25.1,0.7,37.7,1c25.2,0.7,50.4,1.7,75.6,1.7
					c25.1,0.1,50.3-1.2,75.3-4.2c3.4-0.4,6.9-0.6,8.6-4.1c2.1-4.2,1.8-10,1.4-14.5c-1-12-4.6-23.3-3.8-35.5
					c0.9-12.4,3.3-24.5,3.7-36.9c0.4-12.6-0.4-25.2-1.4-37.7c-0.6-7.5,0.8-16.2-8.5-17.1c-12.2-1.1-24.6-0.9-36.9-0.8
					c-55.6,0.5-111.3,7-166.8,0.4c-1.9-0.2-1.9,2.8,0,3c45.1,5.4,90.5,2.1,135.7,0.4c22.5-0.9,45.5-2.1,68,0
					c6.3,0.6,5.1,9.2,5.5,14.1c0.5,5.8,0.9,11.6,1.1,17.4c0.5,11.6,0.5,23.2-0.7,34.8c-1.2,11-3.6,22-2.7,33.2c0.9,11,5,21.9,3.8,33
					c-0.3,2.8-0.6,5.5-3.9,6.9c-1.3,0.6-3.7,0.5-5.1,0.6c-2.6,0.3-5.3,0.6-7.9,0.8c-5.9,0.6-11.9,1.1-17.8,1.5
					c-11.6,0.8-23.1,1.3-34.7,1.5c-46,0.7-92.2-1.8-138.2-3c-1.5,0-3.1,0-4.6-0.1c-2.3-0.2-4.9-1.5-5.2-4.3
					c-0.2-2.1,2.2-5.7,2.7-7.9c1.1-5.3,0.9-10.7,0.3-16.1c-1.5-12.3-3.5-24.1-3.3-36.6c0.5-25.8,2.3-51.7,3.5-77.5
					C38,277.4,35,277.4,34.9,279.3L34.9,279.3z"/>
			</g>
		</g>
		<text transform="matrix(0.8483 0 0 1 77.4454 381.338)" class="st0 st1 st2">SEJONG</text>
		<text transform="matrix(0.7977 0 0 1 55.9996 351.3355)" class="st3 st4 st5">SEJONG</text>
	</g>
</g>
<g>
	<defs>
		<rect id="SVGID_11_" x="150" y="276.9" width="15" height="150"/>
	</defs>
	<clipPath id="SVGID_12_">
		<use xlink:href="#SVGID_11_"  style="overflow:visible;"/>
	</clipPath>
	<g class="st12">
		<g>
			<rect x="75" y="276.9" class="st0" width="225" height="150"/>
		</g>
		<g>
			<g>
				<path d="M79.9,279.3c-1.2,25.2-2.8,50.3-3.5,75.5c-0.3,11.7,0.9,22.9,2.6,34.5c1,6.3,1.8,13,0.4,19.3c-0.8,3.7-4.1,8.2-2.5,12
					c1,2.5,3.6,3.4,6.1,3.8c5.9,1,12.4,0.5,18.4,0.6c12.6,0.4,25.1,0.7,37.7,1c25.2,0.7,50.4,1.7,75.6,1.7
					c25.1,0.1,50.3-1.2,75.3-4.2c3.5-0.4,6.9-0.6,8.6-4.1c2-4.2,1.8-10,1.4-14.5c-1-12-4.6-23.3-3.8-35.5
					c0.9-12.4,3.3-24.5,3.7-36.9c0.4-12.6-0.4-25.2-1.4-37.7c-0.6-7.5,0.8-16.2-8.5-17.1c-12.2-1.1-24.6-0.9-36.9-0.8
					c-55.6,0.5-111.4,7-166.8,0.4c-1.9-0.2-1.9,2.8,0,3c45.1,5.4,90.5,2.1,135.7,0.4c22.5-0.9,45.5-2.1,68,0
					c6.3,0.6,5.1,9.2,5.5,14.1c0.5,5.8,0.9,11.6,1.1,17.4c0.5,11.6,0.5,23.2-0.7,34.8c-1.2,11-3.6,22-2.7,33.2c0.9,11,5,21.9,3.8,33
					c-0.3,2.8-0.6,5.5-3.9,6.9c-1.3,0.6-3.7,0.5-5.1,0.6c-2.6,0.3-5.3,0.6-7.9,0.8c-5.9,0.6-11.9,1.1-17.8,1.5
					c-11.6,0.8-23.1,1.3-34.7,1.5c-46,0.7-92.2-1.8-138.2-3c-1.5,0-3.1,0-4.6-0.1c-2.3-0.2-4.9-1.5-5.2-4.3
					c-0.2-2.1,2.2-5.7,2.7-7.9c1.1-5.3,0.9-10.7,0.3-16.1c-1.5-12.3-3.5-24.1-3.3-36.6c0.5-25.8,2.3-51.7,3.5-77.5
					C83,277.4,80,277.4,79.9,279.3L79.9,279.3z"/>
			</g>
		</g>
		<text transform="matrix(0.8483 0 0 1 122.4455 381.338)" class="st0 st1 st2">SEJONG</text>
		<text transform="matrix(0.7977 0 0 1 100.9997 351.3355)" class="st3 st4 st5">SEJONG</text>
	</g>
</g>
<g>
	<defs>
		<rect id="SVGID_13_" x="195" y="276.9" width="15" height="150"/>
	</defs>
	<clipPath id="SVGID_14_">
		<use xlink:href="#SVGID_13_"  style="overflow:visible;"/>
	</clipPath>
	<g class="st13">
		<g>
			<rect x="105" y="276.9" class="st0" width="225" height="150"/>
		</g>
		<g>
			<g>
				<path d="M109.9,279.3c-1.2,25.2-2.8,50.3-3.5,75.5c-0.3,11.7,0.9,22.9,2.6,34.5c1,6.3,1.8,13,0.4,19.3c-0.8,3.7-4.1,8.2-2.5,12
					c1,2.5,3.6,3.4,6.1,3.8c5.9,1,12.4,0.5,18.4,0.6c12.6,0.4,25.1,0.7,37.7,1c25.2,0.7,50.4,1.7,75.6,1.7
					c25.1,0.1,50.3-1.2,75.3-4.2c3.5-0.4,6.9-0.6,8.6-4.1c2-4.2,1.8-10,1.4-14.5c-1-12-4.6-23.3-3.8-35.5
					c0.9-12.4,3.3-24.5,3.7-36.9c0.4-12.6-0.4-25.2-1.4-37.7c-0.6-7.5,0.8-16.2-8.5-17.1c-12.2-1.1-24.6-0.9-36.9-0.8
					c-55.6,0.5-111.4,7-166.8,0.4c-1.9-0.2-1.9,2.8,0,3c45.1,5.4,90.5,2.1,135.7,0.4c22.5-0.9,45.5-2.1,68,0
					c6.3,0.6,5.1,9.2,5.5,14.1c0.5,5.8,0.9,11.6,1.1,17.4c0.5,11.6,0.5,23.2-0.7,34.8c-1.2,11-3.6,22-2.7,33.2c0.9,11,5,21.9,3.8,33
					c-0.3,2.8-0.6,5.5-3.9,6.9c-1.3,0.6-3.7,0.5-5.1,0.6c-2.6,0.3-5.3,0.6-7.9,0.8c-5.9,0.6-11.9,1.1-17.8,1.5
					c-11.6,0.8-23.1,1.3-34.7,1.5c-46,0.7-92.2-1.8-138.2-3c-1.5,0-3.1,0-4.6-0.1c-2.3-0.2-4.9-1.5-5.2-4.3
					c-0.2-2.1,2.2-5.7,2.7-7.9c1.1-5.3,0.9-10.7,0.3-16.1c-1.5-12.3-3.5-24.1-3.3-36.6c0.5-25.8,2.3-51.7,3.5-77.5
					C113,277.4,110,277.4,109.9,279.3L109.9,279.3z"/>
			</g>
		</g>
		<text transform="matrix(0.8483 0 0 1 152.4455 381.338)" class="st0 st1 st2">SEJONG</text>
		<text transform="matrix(0.7977 0 0 1 130.9997 351.3355)" class="st3 st4 st5">SEJONG</text>
	</g>
</g>
<g>
	<defs>
		<rect id="SVGID_15_" x="254.6" y="276.9" width="15" height="150"/>
	</defs>
	<clipPath id="SVGID_16_">
		<use xlink:href="#SVGID_15_"  style="overflow:visible;"/>
	</clipPath>
	<g class="st14">
		<g>
			<rect x="149.6" y="276.9" class="st0" width="225" height="150"/>
		</g>
		<g>
			<g>
				<path d="M154.5,279.3c-1.2,25.2-2.8,50.3-3.5,75.5c-0.3,11.7,0.9,22.9,2.6,34.5c1,6.3,1.8,13,0.4,19.3c-0.8,3.7-4.1,8.2-2.5,12
					c1,2.5,3.6,3.4,6.1,3.8c5.9,1,12.4,0.5,18.4,0.6c12.6,0.4,25.1,0.7,37.7,1c25.2,0.7,50.4,1.7,75.6,1.7
					c25.1,0.1,50.3-1.2,75.3-4.2c3.5-0.4,6.9-0.6,8.6-4.1c2.1-4.2,1.8-10,1.4-14.5c-1-12-4.6-23.3-3.8-35.5
					c0.9-12.4,3.3-24.5,3.7-36.9c0.4-12.6-0.4-25.2-1.4-37.7c-0.6-7.5,0.8-16.2-8.5-17.1c-12.2-1.1-24.6-0.9-36.9-0.8
					c-55.6,0.5-111.4,7-166.8,0.4c-1.9-0.2-1.9,2.8,0,3c45.1,5.4,90.5,2.1,135.7,0.4c22.5-0.9,45.5-2.1,68,0
					c6.3,0.6,5.1,9.2,5.5,14.1c0.5,5.8,0.9,11.6,1.1,17.4c0.5,11.6,0.5,23.2-0.7,34.8c-1.2,11-3.6,22-2.7,33.2c0.9,11,5,21.9,3.8,33
					c-0.3,2.8-0.6,5.5-3.9,6.9c-1.3,0.6-3.7,0.5-5.1,0.6c-2.6,0.3-5.3,0.6-7.9,0.8c-5.9,0.6-11.9,1.1-17.8,1.5
					c-11.6,0.8-23.1,1.3-34.7,1.5c-46,0.7-92.2-1.8-138.2-3c-1.5,0-3.1,0-4.6-0.1c-2.3-0.2-4.9-1.5-5.2-4.3
					c-0.2-2.1,2.2-5.7,2.7-7.9c1.1-5.3,0.9-10.7,0.3-16.1c-1.5-12.3-3.5-24.1-3.3-36.6c0.5-25.8,2.3-51.7,3.5-77.5
					C157.6,277.4,154.6,277.4,154.5,279.3L154.5,279.3z"/>
			</g>
		</g>
		<text transform="matrix(0.8483 0 0 1 197.0625 381.338)" class="st0 st1 st2">SEJONG</text>
		<text transform="matrix(0.7977 0 0 1 175.6167 351.3355)" class="st3 st4 st5">SEJONG</text>
	</g>
</g>
<g>
	<defs>
		<rect id="SVGID_17_" x="294.4" y="276.9" width="15" height="150"/>
	</defs>
	<clipPath id="SVGID_18_">
		<use xlink:href="#SVGID_17_"  style="overflow:visible;"/>
	</clipPath>
	<g class="st15">
		<g>
			<rect x="174.4" y="276.9" class="st0" width="225" height="150"/>
		</g>
		<g>
			<g>
				<path d="M179.4,279.3c-1.2,25.2-2.8,50.3-3.5,75.5c-0.3,11.7,0.9,22.9,2.6,34.5c1,6.3,1.8,13,0.4,19.3c-0.8,3.7-4.1,8.2-2.5,12
					c1,2.5,3.6,3.4,6.1,3.8c5.9,1,12.4,0.5,18.4,0.6c12.6,0.4,25.1,0.7,37.7,1c25.2,0.7,50.4,1.7,75.6,1.7
					c25.1,0.1,50.3-1.2,75.3-4.2c3.4-0.4,6.9-0.6,8.6-4.1c2-4.2,1.8-10,1.4-14.5c-1-12-4.6-23.3-3.8-35.5
					c0.9-12.4,3.3-24.5,3.7-36.9c0.4-12.6-0.4-25.2-1.4-37.7c-0.6-7.5,0.8-16.2-8.5-17.1c-12.2-1.1-24.6-0.9-36.9-0.8
					c-55.6,0.5-111.3,7-166.8,0.4c-1.9-0.2-1.9,2.8,0,3c45.1,5.4,90.5,2.1,135.7,0.4c22.5-0.9,45.5-2.1,68,0
					c6.3,0.6,5.1,9.2,5.5,14.1c0.5,5.8,0.9,11.6,1.1,17.4c0.5,11.6,0.5,23.2-0.7,34.8c-1.2,11-3.6,22-2.7,33.2c0.9,11,5,21.9,3.8,33
					c-0.3,2.8-0.6,5.5-3.9,6.9c-1.3,0.6-3.7,0.5-5.1,0.6c-2.6,0.3-5.3,0.6-7.9,0.8c-5.9,0.6-11.9,1.1-17.8,1.5
					c-11.5,0.8-23.1,1.3-34.7,1.5c-46,0.7-92.2-1.8-138.2-3c-1.5,0-3.1,0-4.6-0.1c-2.3-0.2-4.9-1.5-5.2-4.3
					c-0.2-2.1,2.2-5.7,2.7-7.9c1.1-5.3,0.9-10.7,0.3-16.1c-1.5-12.3-3.5-24.1-3.3-36.6c0.5-25.8,2.3-51.7,3.5-77.5
					C182.4,277.4,179.4,277.4,179.4,279.3L179.4,279.3z"/>
			</g>
		</g>
		<text transform="matrix(0.8483 0 0 1 221.8924 381.338)" class="st0 st1 st2">SEJONG</text>
		<text transform="matrix(0.7977 0 0 1 200.4466 351.3355)" class="st3 st4 st5">SEJONG</text>
	</g>
</g>
<g>
	<defs>
		<rect id="SVGID_19_" x="340.4" y="276.9" width="15" height="150"/>
	</defs>
	<clipPath id="SVGID_20_">
		<use xlink:href="#SVGID_19_"  style="overflow:visible;"/>
	</clipPath>
	<g class="st16">
		<g>
			<rect x="205.4" y="276.9" class="st0" width="225" height="150"/>
		</g>
		<g>
			<g>
				<path d="M210.3,279.3c-1.2,25.2-2.8,50.3-3.5,75.5c-0.3,11.7,0.9,22.9,2.6,34.5c1,6.3,1.8,13,0.4,19.3c-0.8,3.7-4.1,8.2-2.5,12
					c1,2.5,3.6,3.4,6.1,3.8c5.9,1,12.4,0.5,18.4,0.6c12.6,0.4,25.2,0.7,37.7,1c25.2,0.7,50.4,1.7,75.6,1.7
					c25.1,0.1,50.3-1.2,75.3-4.2c3.5-0.4,6.9-0.6,8.6-4.1c2.1-4.2,1.8-10,1.4-14.5c-1-12-4.6-23.3-3.8-35.5
					c0.9-12.4,3.3-24.5,3.7-36.9c0.4-12.6-0.4-25.2-1.4-37.7c-0.6-7.5,0.8-16.2-8.5-17.1c-12.2-1.1-24.6-0.9-36.9-0.8
					c-55.6,0.5-111.4,7-166.8,0.4c-1.9-0.2-1.9,2.8,0,3c45.1,5.4,90.5,2.1,135.7,0.4c22.5-0.9,45.5-2.1,68,0
					c6.3,0.6,5.1,9.2,5.5,14.1c0.5,5.8,0.9,11.6,1.1,17.4c0.5,11.6,0.5,23.2-0.7,34.8c-1.2,11-3.6,22-2.7,33.2c0.9,11,5,21.9,3.8,33
					c-0.3,2.8-0.6,5.5-3.9,6.9c-1.3,0.6-3.7,0.5-5.1,0.6c-2.6,0.3-5.3,0.6-7.9,0.8c-5.9,0.6-11.9,1.1-17.8,1.5
					c-11.6,0.8-23.1,1.3-34.7,1.5c-46,0.7-92.2-1.8-138.2-3c-1.5,0-3.1,0-4.6-0.1c-2.3-0.2-4.9-1.5-5.2-4.3
					c-0.2-2.1,2.2-5.7,2.7-7.9c1.1-5.3,0.9-10.7,0.3-16.1c-1.5-12.3-3.5-24.1-3.3-36.6c0.5-25.8,2.3-51.7,3.5-77.5
					C213.4,277.4,210.4,277.4,210.3,279.3L210.3,279.3z"/>
			</g>
		</g>
		<text transform="matrix(0.8483 0 0 1 252.8498 381.338)" class="st0 st1 st2">SEJONG</text>
		<text transform="matrix(0.7977 0 0 1 231.404 351.3356)" class="st3 st4 st5">SEJONG</text>
	</g>
</g>
<g>
	<defs>
		<rect id="SVGID_21_" x="398.4" y="276.9" width="15" height="150"/>
	</defs>
	<clipPath id="SVGID_22_">
		<use xlink:href="#SVGID_21_"  style="overflow:visible;"/>
	</clipPath>
	<g class="st17">
		<g>
			<rect x="248.4" y="276.9" class="st0" width="225" height="150"/>
		</g>
		<g>
			<g>
				<path d="M253.3,279.3c-1.2,25.2-2.8,50.3-3.5,75.5c-0.3,11.7,0.9,22.9,2.6,34.5c1,6.3,1.8,13,0.4,19.3c-0.8,3.7-4.1,8.2-2.5,12
					c1,2.5,3.6,3.4,6.1,3.8c5.9,1,12.4,0.5,18.4,0.6c12.6,0.4,25.1,0.7,37.7,1c25.2,0.7,50.4,1.7,75.6,1.7
					c25.1,0.1,50.3-1.2,75.3-4.2c3.5-0.4,6.9-0.6,8.6-4.1c2.1-4.2,1.8-10,1.4-14.5c-1-12-4.6-23.3-3.8-35.5
					c0.9-12.4,3.3-24.5,3.7-36.9c0.4-12.6-0.4-25.2-1.4-37.7c-0.6-7.5,0.8-16.2-8.5-17.1c-12.2-1.1-24.6-0.9-36.9-0.8
					c-55.6,0.5-111.4,7-166.8,0.4c-1.9-0.2-1.9,2.8,0,3c45.1,5.4,90.5,2.1,135.7,0.4c22.5-0.9,45.5-2.1,68,0
					c6.3,0.6,5.1,9.2,5.5,14.1c0.5,5.8,0.9,11.6,1.1,17.4c0.5,11.6,0.5,23.2-0.7,34.8c-1.2,11-3.6,22-2.7,33.2c0.9,11,5,21.9,3.8,33
					c-0.3,2.8-0.6,5.5-3.9,6.9c-1.3,0.6-3.7,0.5-5.1,0.6c-2.6,0.3-5.3,0.6-7.9,0.8c-5.9,0.6-11.9,1.1-17.8,1.5
					c-11.6,0.8-23.1,1.3-34.7,1.5c-46,0.7-92.2-1.8-138.2-3c-1.5,0-3.1,0-4.6-0.1c-2.3-0.2-4.9-1.5-5.2-4.3
					c-0.2-2.1,2.2-5.7,2.7-7.9c1.1-5.3,0.9-10.7,0.3-16.1c-1.5-12.3-3.5-24.1-3.3-36.6c0.5-25.8,2.3-51.7,3.5-77.5
					C256.4,277.4,253.4,277.4,253.3,279.3L253.3,279.3z"/>
			</g>
		</g>
		<text transform="matrix(0.8483 0 0 1 295.8192 381.338)" class="st0 st1 st2">SEJONG</text>
		<text transform="matrix(0.7977 0 0 1 274.3734 351.3356)" class="st3 st4 st5">SEJONG</text>
	</g>
</g>
<g>
	<defs>
		<rect id="SVGID_23_" x="448.3" y="276.9" width="15" height="150"/>
	</defs>
	<clipPath id="SVGID_24_">
		<use xlink:href="#SVGID_23_"  style="overflow:visible;"/>
	</clipPath>
	<g class="st18">
		<g>
			<rect x="283.3" y="276.9" class="st0" width="225" height="150"/>
		</g>
		<g>
			<g>
				<path d="M288.2,279.3c-1.2,25.2-2.8,50.3-3.5,75.5c-0.3,11.7,0.9,22.9,2.6,34.5c1,6.3,1.8,13,0.4,19.3c-0.8,3.7-4.1,8.2-2.5,12
					c1,2.5,3.6,3.4,6.1,3.8c5.9,1,12.4,0.5,18.4,0.6c12.6,0.4,25.1,0.7,37.7,1c25.2,0.7,50.4,1.7,75.6,1.7
					c25.1,0.1,50.3-1.2,75.3-4.2c3.4-0.4,6.9-0.6,8.6-4.1c2-4.2,1.8-10,1.4-14.5c-1-12-4.6-23.3-3.8-35.5
					c0.9-12.4,3.3-24.5,3.7-36.9c0.4-12.6-0.4-25.2-1.4-37.7c-0.6-7.5,0.8-16.2-8.5-17.1c-12.2-1.1-24.6-0.9-36.9-0.8
					c-55.6,0.5-111.3,7-166.8,0.4c-1.9-0.2-1.9,2.8,0,3c45.1,5.4,90.5,2.1,135.7,0.4c22.5-0.9,45.5-2.1,68,0
					c6.3,0.6,5.1,9.2,5.5,14.1c0.5,5.8,0.9,11.6,1.1,17.4c0.5,11.6,0.5,23.2-0.7,34.8c-1.2,11-3.6,22-2.7,33.2c0.9,11,5,21.9,3.8,33
					c-0.3,2.8-0.6,5.5-3.9,6.9c-1.3,0.6-3.7,0.5-5.1,0.6c-2.6,0.3-5.3,0.6-7.9,0.8c-5.9,0.6-11.9,1.1-17.8,1.5
					c-11.5,0.8-23.1,1.3-34.7,1.5c-46,0.7-92.2-1.8-138.2-3c-1.5,0-3.1,0-4.6-0.1c-2.3-0.2-4.9-1.5-5.2-4.3
					c-0.2-2.1,2.2-5.7,2.6-7.9c1.1-5.3,0.9-10.7,0.3-16.1c-1.5-12.3-3.5-24.1-3.3-36.6c0.5-25.8,2.3-51.7,3.5-77.5
					C291.3,277.4,288.3,277.4,288.2,279.3L288.2,279.3z"/>
			</g>
		</g>
		<text transform="matrix(0.8483 0 0 1 330.7542 381.338)" class="st0 st1 st2">SEJONG</text>
		<text transform="matrix(0.7977 0 0 1 309.3083 351.3356)" class="st3 st4 st5">SEJONG</text>
	</g>
</g>
<g>
	<defs>
		<rect id="SVGID_25_" x="492.2" y="276.9" width="15" height="150"/>
	</defs>
	<clipPath id="SVGID_26_">
		<use xlink:href="#SVGID_25_"  style="overflow:visible;"/>
	</clipPath>
	<g class="st19">
		<g>
			<rect x="312.2" y="276.9" class="st0" width="225" height="150"/>
		</g>
		<g>
			<g>
				<path d="M317.1,279.3c-1.2,25.2-2.8,50.3-3.5,75.5c-0.3,11.7,0.9,22.9,2.6,34.5c1,6.3,1.8,13,0.4,19.3c-0.8,3.7-4.1,8.2-2.5,12
					c1,2.5,3.6,3.4,6.1,3.8c5.9,1,12.4,0.5,18.4,0.6c12.6,0.4,25.2,0.7,37.7,1c25.2,0.7,50.4,1.7,75.6,1.7
					c25.1,0.1,50.3-1.2,75.3-4.2c3.4-0.4,6.9-0.6,8.6-4.1c2-4.2,1.8-10,1.4-14.5c-1-12-4.6-23.3-3.8-35.5
					c0.9-12.4,3.3-24.5,3.7-36.9c0.4-12.6-0.4-25.2-1.4-37.7c-0.6-7.5,0.8-16.2-8.5-17.1c-12.2-1.1-24.6-0.9-36.9-0.8
					c-55.6,0.5-111.4,7-166.8,0.4c-1.9-0.2-1.9,2.8,0,3c45.1,5.4,90.5,2.1,135.7,0.4c22.5-0.9,45.5-2.1,68,0
					c6.3,0.6,5.1,9.2,5.5,14.1c0.5,5.8,0.9,11.6,1.2,17.4c0.5,11.6,0.5,23.2-0.7,34.8c-1.2,11-3.6,22-2.7,33.2c0.9,11,5,21.9,3.8,33
					c-0.3,2.8-0.6,5.5-3.9,6.9c-1.3,0.6-3.7,0.5-5.1,0.6c-2.6,0.3-5.3,0.6-7.9,0.8c-5.9,0.6-11.9,1.1-17.8,1.5
					c-11.6,0.8-23.1,1.3-34.7,1.5c-46,0.7-92.2-1.8-138.2-3c-1.5,0-3.1,0-4.6-0.1c-2.3-0.2-4.9-1.5-5.2-4.3
					c-0.2-2.1,2.2-5.7,2.6-7.9c1.1-5.3,0.9-10.7,0.3-16.1c-1.5-12.3-3.5-24.1-3.3-36.6c0.5-25.8,2.3-51.7,3.5-77.5
					C320.2,277.4,317.2,277.4,317.1,279.3L317.1,279.3z"/>
			</g>
		</g>
		<text transform="matrix(0.8483 0 0 1 359.6691 381.338)" class="st0 st1 st2">SEJONG</text>
		<text transform="matrix(0.7977 0 0 1 338.2233 351.3355)" class="st3 st4 st5">SEJONG</text>
	</g>
</g>
<g>
	<defs>
		<rect id="SVGID_27_" x="545.7" y="276.9" width="15" height="150"/>
	</defs>
	<clipPath id="SVGID_28_">
		<use xlink:href="#SVGID_27_"  style="overflow:visible;"/>
	</clipPath>
	<g class="st20">
		<g>
			<rect x="350.7" y="276.9" class="st0" width="225" height="150"/>
		</g>
		<g>
			<g>
				<path d="M355.6,279.3c-1.2,25.2-2.8,50.3-3.5,75.5c-0.3,11.7,0.9,22.9,2.6,34.5c1,6.3,1.8,13,0.4,19.3c-0.8,3.7-4.1,8.2-2.5,12
					c1,2.5,3.6,3.4,6.1,3.8c5.9,1,12.4,0.5,18.4,0.6c12.6,0.4,25.1,0.7,37.7,1c25.2,0.7,50.4,1.7,75.6,1.7
					c25.1,0.1,50.3-1.2,75.3-4.2c3.4-0.4,6.9-0.6,8.6-4.1c2-4.2,1.8-10,1.4-14.5c-1-12-4.6-23.3-3.8-35.5
					c0.9-12.4,3.3-24.5,3.7-36.9c0.4-12.6-0.4-25.2-1.4-37.7c-0.6-7.5,0.8-16.2-8.5-17.1c-12.2-1.1-24.7-0.9-36.9-0.8
					c-55.6,0.5-111.4,7-166.8,0.4c-1.9-0.2-1.9,2.8,0,3c45.1,5.4,90.5,2.1,135.7,0.4c22.5-0.9,45.5-2.1,68,0
					c6.3,0.6,5.1,9.2,5.5,14.1c0.5,5.8,0.9,11.6,1.2,17.4c0.5,11.6,0.5,23.2-0.7,34.8c-1.2,11-3.6,22-2.7,33.2c0.9,11,5,21.9,3.8,33
					c-0.3,2.8-0.6,5.5-3.9,6.9c-1.3,0.6-3.7,0.5-5.1,0.6c-2.6,0.3-5.3,0.6-7.9,0.8c-5.9,0.6-11.9,1.1-17.8,1.5
					c-11.5,0.8-23.1,1.3-34.7,1.5c-46,0.7-92.2-1.8-138.2-3c-1.5,0-3.1,0-4.6-0.1c-2.3-0.2-4.9-1.5-5.2-4.3
					c-0.2-2.1,2.2-5.7,2.7-7.9c1.1-5.3,0.9-10.7,0.3-16.1c-1.5-12.3-3.5-24.1-3.3-36.6c0.5-25.8,2.3-51.7,3.5-77.5
					C358.7,277.4,355.7,277.4,355.6,279.3L355.6,279.3z"/>
			</g>
		</g>
		<text transform="matrix(0.8483 0 0 1 398.1286 381.338)" class="st0 st1 st2">SEJONG</text>
		<text transform="matrix(0.7977 0 0 1 376.6828 351.3356)" class="st3 st4 st5">SEJONG</text>
	</g>
</g>
<g>
	<defs>
		<rect id="SVGID_29_" x="620.7" y="236.9" width="15" height="150"/>
	</defs>
	<clipPath id="SVGID_30_">
		<use xlink:href="#SVGID_29_"  style="overflow:visible;"/>
	</clipPath>
	<g class="st21">
		<g>
			<rect x="410.7" y="236.9" class="st0" width="225" height="150"/>
		</g>
		<g>
			<g>
				<path d="M415.6,239.3c-1.2,25.2-2.8,50.3-3.5,75.5c-0.3,11.7,0.9,22.9,2.6,34.5c1,6.3,1.8,13,0.4,19.3c-0.8,3.7-4.1,8.2-2.5,12
					c1,2.5,3.6,3.4,6.1,3.8c5.9,1,12.4,0.5,18.4,0.6c12.6,0.4,25.1,0.7,37.7,1c25.2,0.7,50.4,1.7,75.6,1.7
					c25.2,0.1,50.3-1.2,75.3-4.2c3.4-0.4,6.9-0.6,8.6-4.1c2-4.2,1.8-10,1.4-14.5c-1-12-4.6-23.3-3.8-35.5
					c0.9-12.3,3.3-24.5,3.7-36.9c0.4-12.6-0.4-25.2-1.4-37.7c-0.6-7.5,0.8-16.2-8.5-17.1c-12.2-1.1-24.7-0.9-36.9-0.8
					c-55.6,0.5-111.4,7-166.8,0.4c-1.9-0.2-1.9,2.8,0,3c45.1,5.4,90.5,2.1,135.7,0.4c22.5-0.9,45.5-2.1,68,0
					c6.3,0.6,5.1,9.2,5.5,14.1c0.5,5.8,0.9,11.6,1.2,17.4c0.5,11.6,0.5,23.2-0.7,34.8c-1.2,11-3.6,22-2.7,33.1c0.9,11,5,21.9,3.8,33
					c-0.3,2.8-0.6,5.5-3.9,6.9c-1.3,0.6-3.7,0.5-5.1,0.6c-2.6,0.3-5.3,0.6-7.9,0.8c-5.9,0.6-11.9,1.1-17.8,1.5
					c-11.5,0.8-23.1,1.3-34.7,1.5c-46,0.7-92.2-1.8-138.2-3c-1.5,0-3.1,0-4.6-0.1c-2.3-0.2-4.9-1.5-5.2-4.3
					c-0.2-2.1,2.2-5.7,2.7-7.9c1.1-5.3,0.9-10.7,0.3-16.1c-1.5-12.3-3.5-24.1-3.3-36.6c0.5-25.8,2.3-51.7,3.5-77.5
					C418.7,237.4,415.7,237.4,415.6,239.3L415.6,239.3z"/>
			</g>
		</g>
		<text transform="matrix(0.8483 0 0 1 458.1286 341.3807)" class="st0 st1 st2">SEJONG</text>
		<text transform="matrix(0.7977 0 0 1 436.6828 311.3782)" class="st3 st4 st5">SEJONG</text>
	</g>
</g>
</svg>
