<?xml version="1.0" encoding="utf-8"?>
<!-- Generator: Adobe Illustrator 23.0.0, SVG Export Plug-In . SVG Version: 6.00 Build 0)  -->
<svg version="1.1" id="Layer_1" xmlns="http://www.w3.org/2000/svg" xmlns:xlink="http://www.w3.org/1999/xlink" x="0px" y="0px"
	 viewBox="0 0 225 150" style="enable-background:new 0 0 225 150;" xml:space="preserve">
<style type="text/css">
	.st0{clip-path:url(#SVGID_2_);}
	.st1{fill:#FFFFFF;}
	.st2{enable-background:new    ;}
	.st3{clip-path:url(#SVGID_4_);}
	.st4{clip-path:url(#SVGID_6_);}
	.st5{clip-path:url(#SVGID_8_);}
	.st6{clip-path:url(#SVGID_10_);}
	.st7{clip-path:url(#SVGID_12_);}
	.st8{clip-path:url(#SVGID_14_);}
	.st9{clip-path:url(#SVGID_16_);}
	.st10{clip-path:url(#SVGID_18_);}
	.st11{clip-path:url(#SVGID_20_);}
	.st12{clip-path:url(#SVGID_22_);}
	.st13{clip-path:url(#SVGID_24_);}
	.st14{clip-path:url(#SVGID_26_);}
	.st15{clip-path:url(#SVGID_28_);}
	.st16{clip-path:url(#SVGID_30_);}
</style>
<g>
	<defs>
		<rect id="SVGID_1_" x="310.9" y="188.4" width="15" height="150"/>
	</defs>
	<clipPath id="SVGID_2_">
		<use xlink:href="#SVGID_1_"  style="overflow:visible;"/>
	</clipPath>
	<g class="st0">
		<g>
			<rect x="116.3" y="188.4" class="st1" width="225" height="150"/>
		</g>
		<g>
			<g>
				<path d="M119.3,193.2c2.6,35.1,3.3,70.2,2.1,105.4c-0.3,8.6-0.7,17.2-1.2,25.8c-0.3,4.6-0.3,9.3,5.3,10
					c7.9,1.1,16.6,0.1,24.6,0.1c8.6,0,17.3,0,25.9,0c35.2,0,70.4,0,105.6,0c8.6,0,17.3,0,25.9,0c4.3,0,8.6,0,12.9,0
					c4,0,8.4,0.5,12.4-0.1c3.9-0.6,5.8-3.3,5.5-7.1c-0.3-3.7-1.6-7.3-2.3-10.9c-0.9-4.7-1.6-9.5-2-14.2
					c-3.6-36.9,3.7-73.9-0.5-110.7c-0.1-0.8-0.6-1.5-1.5-1.5c-69.8,2.5-139.6,3.5-209.4,3.1c-1.9,0-1.9,3,0,3
					c69.8,0.4,139.7-0.6,209.4-3.1c-0.5-0.5-1-1-1.5-1.5c3.4,30.1-0.7,60.3-0.5,90.4c0,7.1,0.4,14.2,1.1,21.2
					c0.3,3.2,0.7,6.4,1.2,9.5c0.6,4.1,2.5,8.6,2.6,12.7c0.2,6.2-3.9,6.3-8.4,6.3c-4,0-8,0-11.9,0c-8.6,0-17.3,0-25.9,0
					c-31.9,0-63.8,0-95.6,0c-15.9,0-31.9,0-47.8,0c-3.3,0-6.6,0-10,0c-4.9,0-10.9,1.3-12.1-5.1c-0.7-3.5,0.5-8.3,0.7-11.9
					c0.2-4.6,0.4-9.3,0.6-13.9c1.3-35.8,0.6-71.6-2.1-107.4C122.2,191.3,119.2,191.3,119.3,193.2L119.3,193.2z"/>
			</g>
		</g>
		<g class="st2">
			<path d="M151.8,283.4l-18.2,1.4l-4.1-6.4l19.6,2l2.9-6.7l-14.7-4.3l-2.8-8.8l25.6-14.7l-6.9,11.2l-13.8,5.1l1.2,4.7l19.4,5.9
				L151.8,283.4z"/>
			<path d="M185.6,258l-19.4,0.5l-0.5-2.5l14.9-6.2l9.2-1.7L185.6,258z M186.1,299.9l-4.8-6.8l-16-1.9l2.7-27.2l2.2-4.5l2.7,0
				l-2.7,22.1l14.5,0.8L186.1,299.9z M186.1,275.7l-12.8-3.5l-0.2-2.4l4.5-0.6l10.5-3.9L186.1,275.7z"/>
			<path d="M210.6,284.5v6.5l-17.2-6.4l0.3-2.2l3.4-1l5.6,1.4l0.9-0.8l3.1-22.7l2.5-0.2l1.4,4V284.5z M216,258.1l-19.9,0.5l-0.5-2.5
				l15-6l6.2,4.2L216,258.1z"/>
			<path d="M229.5,284.3l-7.5-7.7c-0.8-0.8-0.8-2.1,0-2.8l18.2-17.9c0.6-0.6,1.6-0.8,2.4-0.3l0,0c1.2,0.6,1.4,2.3,0.4,3.2L227.3,274
				c-0.8,0.8-0.8,2.1,0,2.9l3.5,3.4c0.5,0.5,1.4,0.7,2.1,0.4l13.2-4.7c1.3-0.5,1.7-2,0.9-3.1l-5.9-8.1c-0.8-1.1-0.3-2.6,1-3.1
				l0.2-0.1c0.8-0.3,1.8,0,2.3,0.7l8.6,11.7c0.8,1.1,0.3,2.6-0.9,3.1l-20.6,7.6C230.9,285.1,230.1,284.9,229.5,284.3z"/>
			<path d="M265.1,284.5h-8.7l4.7-6.3l3-15.4l3.2,0.6L265.1,284.5z M284.8,284.5h-3.9l-4.6-4.2l-12.3-24.6l5.2-2.5l11.8,26.4l2-24.6
				l8-1.7l-3.5,8.8L284.8,284.5z"/>
			<path d="M318,260.1l-7.4-1.4c-0.6-0.1-1.2,0.1-1.6,0.7l-10.8,16.8c-0.4,0.7-0.3,1.5,0.3,2l4.5,3.6c0.5,0.4,1.1,0.4,1.6,0.2
				l8.8-4.3c0.6-0.3,1.4-0.1,1.8,0.4l0,0c0.5,0.6,0.5,1.6-0.1,2.1l-1.8,1.6c-0.1,0.1-0.3,0.2-0.5,0.3l-9.8,3.6
				c-0.5,0.2-1.1,0.1-1.5-0.3l-7.8-6.4c-0.6-0.5-0.7-1.3-0.3-2l11.7-21.2c0.3-0.5,2.5-0.5,3.1-0.4l8.9,1.2c0.2,0,0.4,0.1,0.6,0.2
				l1.3,0.8c0.6,0.4,0.8,1.1,0.5,1.7l0,0.1C319.1,260,318.5,260.2,318,260.1z M320.3,281.7l-1.6,2.7c-0.3,0.5-0.8,0.8-0.1,2.3
				l-0.2,3.1c-2.2-1.7-2.9-5.7-2.7-6.6l1.2-5.2c0.2-1-0.6-2-1.6-1.9l-7.3,0.7c-0.7,0.1-1.3-0.4-1.4-1l0,0c-0.1-0.6,0.2-1.3,0.8-1.5
				l3.4-1.2c0.2-0.1,0.4-0.1,0.5-0.1l8.7,0.1c0.9,0,1.6,0.9,1.5,1.8l-1.1,6.4C320.5,281.3,320.4,281.5,320.3,281.7z"/>
		</g>
	</g>
</g>
<g>
	<defs>
		<rect id="SVGID_3_" x="338.1" y="183" width="15" height="150"/>
	</defs>
	<clipPath id="SVGID_4_">
		<use xlink:href="#SVGID_3_"  style="overflow:visible;"/>
	</clipPath>
	<g class="st3">
		<g>
			<rect x="128.4" y="183" class="st1" width="225" height="150"/>
		</g>
		<g>
			<g>
				<path d="M131.4,187.8c2.6,35.1,3.3,70.2,2.1,105.4c-0.3,8.6-0.7,17.2-1.2,25.8c-0.3,4.6-0.3,9.3,5.3,10
					c7.9,1.1,16.6,0.1,24.6,0.1c8.6,0,17.3,0,25.9,0c35.2,0,70.4,0,105.6,0c8.6,0,17.3,0,25.9,0c4.3,0,8.6,0,13,0
					c4,0,8.4,0.5,12.4-0.1c3.9-0.6,5.8-3.3,5.5-7.1c-0.3-3.7-1.6-7.3-2.3-10.9c-0.9-4.7-1.5-9.5-2-14.2
					c-3.6-36.9,3.7-73.9-0.5-110.7c-0.1-0.8-0.6-1.5-1.5-1.5c-69.8,2.5-139.6,3.5-209.4,3.1c-1.9,0-1.9,3,0,3
					c69.8,0.4,139.7-0.6,209.4-3.1c-0.5-0.5-1-1-1.5-1.5c3.4,30.1-0.7,60.3-0.5,90.4c0.1,7.1,0.4,14.2,1.1,21.2
					c0.3,3.2,0.7,6.4,1.2,9.5c0.6,4.1,2.5,8.6,2.6,12.7c0.2,6.2-3.9,6.3-8.4,6.3c-4,0-8,0-12,0c-8.6,0-17.3,0-25.9,0
					c-31.9,0-63.8,0-95.6,0c-15.9,0-31.9,0-47.8,0c-3.3,0-6.6,0-10,0c-4.9,0-10.9,1.3-12.1-5.1c-0.7-3.5,0.5-8.3,0.7-11.9
					c0.2-4.6,0.4-9.3,0.6-13.9c1.3-35.8,0.6-71.6-2.1-107.4C134.3,185.9,131.3,185.9,131.4,187.8L131.4,187.8z"/>
			</g>
		</g>
		<g class="st2">
			<path d="M163.9,277.9l-18.2,1.4l-4.1-6.4l19.6,2l2.9-6.7l-14.7-4.3l-2.8-8.8l25.6-14.7l-6.9,11.2l-13.8,5.1l1.2,4.7l19.4,5.9
				L163.9,277.9z"/>
			<path d="M197.7,252.6l-19.4,0.5l-0.5-2.5l14.9-6.2l9.2-1.7L197.7,252.6z M198.2,294.4l-4.8-6.8l-16-1.9l2.7-27.2l2.2-4.5l2.7,0
				l-2.7,22.1l14.5,0.8L198.2,294.4z M198.2,270.3l-12.8-3.5l-0.2-2.4l4.5-0.6l10.5-3.9L198.2,270.3z"/>
			<path d="M222.7,279v6.5l-17.2-6.4l0.3-2.2l3.4-1l5.6,1.4l0.9-0.8l3.1-22.7l2.5-0.2l1.4,4V279z M228.1,252.7l-19.9,0.5l-0.5-2.5
				l15-6l6.2,4.2L228.1,252.7z"/>
			<path d="M241.6,278.9l-7.5-7.7c-0.8-0.8-0.8-2.1,0-2.8l18.2-17.9c0.6-0.6,1.6-0.8,2.4-0.3h0c1.2,0.6,1.4,2.3,0.4,3.2l-15.7,15.1
				c-0.8,0.8-0.8,2.1,0,2.9l3.5,3.4c0.5,0.5,1.4,0.7,2.1,0.4l13.2-4.7c1.3-0.5,1.7-2,0.9-3.1l-5.9-8.1c-0.8-1.1-0.3-2.6,1-3.1
				l0.2-0.1c0.8-0.3,1.8,0,2.3,0.7l8.6,11.7c0.8,1.1,0.3,2.6-0.9,3.1l-20.6,7.6C243,279.7,242.2,279.5,241.6,278.9z"/>
			<path d="M277.2,279.1h-8.7l4.7-6.3l3-15.4l3.2,0.6L277.2,279.1z M296.9,279.1h-3.9l-4.6-4.2L276,250.3l5.2-2.5l11.8,26.4l2-24.6
				l8-1.7l-3.5,8.8L296.9,279.1z"/>
			<path d="M330.1,254.7l-7.4-1.4c-0.6-0.1-1.2,0.1-1.6,0.7l-10.8,16.8c-0.4,0.7-0.3,1.5,0.3,2l4.5,3.6c0.5,0.4,1.1,0.4,1.6,0.2
				l8.8-4.3c0.6-0.3,1.4-0.1,1.8,0.4l0,0c0.5,0.6,0.5,1.6-0.1,2.1l-1.8,1.6c-0.1,0.1-0.3,0.2-0.5,0.3l-9.8,3.6
				c-0.5,0.2-1.1,0.1-1.5-0.3l-7.8-6.4c-0.6-0.5-0.7-1.3-0.3-2l11.7-21.2c0.3-0.5,2.5-0.5,3.1-0.4l8.9,1.2c0.2,0,0.4,0.1,0.6,0.2
				l1.3,0.8c0.6,0.4,0.8,1.1,0.5,1.7l0,0.1C331.2,254.5,330.6,254.8,330.1,254.7z M332.5,276.2l-1.6,2.7c-0.3,0.5-0.8,0.8-0.1,2.3
				l-0.2,3.1c-2.2-1.7-2.9-5.7-2.7-6.6l1.2-5.2c0.2-1-0.6-2-1.6-1.9l-7.3,0.7c-0.7,0.1-1.3-0.4-1.4-1l0,0c-0.1-0.6,0.2-1.3,0.8-1.5
				l3.4-1.2c0.2-0.1,0.4-0.1,0.5-0.1l8.7,0.1c0.9,0,1.6,0.9,1.5,1.8l-1.1,6.4C332.6,275.9,332.6,276.1,332.5,276.2z"/>
		</g>
	</g>
</g>
<g>
	<defs>
		<rect id="SVGID_5_" x="190.9" y="188.4" width="15" height="150"/>
	</defs>
	<clipPath id="SVGID_6_">
		<use xlink:href="#SVGID_5_"  style="overflow:visible;"/>
	</clipPath>
	<g class="st4">
		<g>
			<rect x="41.1" y="188.4" class="st1" width="225" height="150"/>
		</g>
		<g>
			<g>
				<path d="M44.2,193.2c2.6,35.1,3.3,70.2,2.1,105.4c-0.3,8.6-0.7,17.2-1.2,25.8c-0.3,4.6-0.3,9.3,5.3,10
					c7.9,1.1,16.6,0.1,24.6,0.1c8.6,0,17.3,0,25.9,0c35.2,0,70.4,0,105.6,0c8.6,0,17.3,0,25.9,0c4.3,0,8.6,0,12.9,0
					c4,0,8.4,0.5,12.4-0.1c3.9-0.6,5.8-3.3,5.5-7.1c-0.3-3.7-1.6-7.3-2.3-10.9c-0.9-4.7-1.5-9.5-2-14.2
					c-3.6-36.9,3.7-73.9-0.5-110.7c-0.1-0.8-0.6-1.5-1.5-1.5c-69.8,2.5-139.6,3.5-209.4,3.1c-1.9,0-1.9,3,0,3
					c69.8,0.4,139.7-0.6,209.4-3.1c-0.5-0.5-1-1-1.5-1.5c3.4,30.1-0.7,60.3-0.5,90.4c0.1,7.1,0.4,14.2,1.1,21.2
					c0.3,3.2,0.7,6.4,1.2,9.5c0.6,4.1,2.5,8.6,2.6,12.7c0.2,6.2-3.9,6.3-8.4,6.3c-4,0-8,0-11.9,0c-8.6,0-17.3,0-25.9,0
					c-31.9,0-63.8,0-95.6,0c-15.9,0-31.9,0-47.8,0c-3.3,0-6.6,0-10,0c-4.9,0-10.9,1.3-12.1-5.1c-0.6-3.5,0.5-8.3,0.7-11.9
					c0.2-4.6,0.4-9.3,0.6-13.9c1.3-35.8,0.6-71.6-2.1-107.4C47,191.3,44,191.3,44.2,193.2L44.2,193.2z"/>
			</g>
		</g>
		<g class="st2">
			<path d="M76.7,283.4l-18.2,1.4l-4.1-6.4l19.6,2l2.9-6.7l-14.7-4.3l-2.8-8.8L85,245.7L78.2,257l-13.8,5.1l1.2,4.7l19.4,5.9
				L76.7,283.4z"/>
			<path d="M110.5,258L91,258.5l-0.5-2.5l14.9-6.2l9.2-1.7L110.5,258z M111,299.9l-4.8-6.8l-16-1.9l2.7-27.2l2.2-4.5l2.7,0
				l-2.7,22.1l14.5,0.8L111,299.9z M111,275.7l-12.8-3.5l-0.2-2.4l4.5-0.6l10.5-3.9L111,275.7z"/>
			<path d="M135.5,284.5v6.5l-17.2-6.4l0.3-2.2l3.4-1l5.6,1.4l0.9-0.8l3.1-22.7l2.5-0.2l1.4,4V284.5z M140.9,258.1l-19.9,0.5
				l-0.5-2.5l15-6l6.2,4.2L140.9,258.1z"/>
			<path d="M154.4,284.3l-7.5-7.7c-0.8-0.8-0.8-2.1,0-2.8l18.2-17.9c0.6-0.6,1.6-0.8,2.4-0.3h0c1.2,0.6,1.4,2.3,0.4,3.2L152.2,274
				c-0.8,0.8-0.8,2.1,0,2.9l3.5,3.4c0.5,0.5,1.4,0.7,2.1,0.4L171,276c1.3-0.5,1.7-2,0.9-3.1l-5.9-8.1c-0.8-1.1-0.3-2.6,1-3.1
				l0.2-0.1c0.8-0.3,1.8,0,2.3,0.7l8.6,11.7c0.8,1.1,0.3,2.6-0.9,3.1l-20.6,7.6C155.8,285.1,155,284.9,154.4,284.3z"/>
			<path d="M190,284.5h-8.7l4.7-6.3l3-15.4l3.2,0.6L190,284.5z M209.7,284.5h-3.9l-4.6-4.2l-12.3-24.6l5.2-2.5l11.8,26.4l2-24.6
				l8-1.7l-3.5,8.8L209.7,284.5z"/>
			<path d="M242.9,260.1l-7.4-1.4c-0.6-0.1-1.2,0.1-1.6,0.7L223,276.2c-0.4,0.7-0.3,1.5,0.3,2l4.5,3.6c0.5,0.4,1.1,0.4,1.6,0.2
				l8.8-4.3c0.6-0.3,1.4-0.1,1.8,0.4l0,0c0.5,0.6,0.5,1.6-0.1,2.1l-1.8,1.6c-0.1,0.1-0.3,0.2-0.5,0.3l-9.8,3.6
				c-0.5,0.2-1.1,0.1-1.5-0.3l-7.8-6.4c-0.6-0.5-0.7-1.3-0.3-2l11.7-21.2c0.3-0.5,2.5-0.5,3.1-0.4l8.9,1.2c0.2,0,0.4,0.1,0.6,0.2
				l1.3,0.8c0.6,0.4,0.8,1.1,0.5,1.7l0,0.1C244,260,243.4,260.2,242.9,260.1z M245.2,281.7l-1.6,2.7c-0.3,0.5-0.8,0.8-0.1,2.3
				l-0.2,3.1c-2.2-1.7-2.9-5.7-2.7-6.6l1.2-5.2c0.2-1-0.6-2-1.6-1.9l-7.3,0.7c-0.7,0.1-1.3-0.4-1.4-1l0,0c-0.1-0.6,0.2-1.3,0.8-1.5
				l3.4-1.2c0.2-0.1,0.4-0.1,0.5-0.1l8.7,0.1c0.9,0,1.6,0.9,1.5,1.8l-1.1,6.4C245.4,281.3,245.3,281.5,245.2,281.7z"/>
		</g>
	</g>
</g>
<g>
	<defs>
		<rect id="SVGID_7_" x="153.4" y="188.4" width="15" height="150"/>
	</defs>
	<clipPath id="SVGID_8_">
		<use xlink:href="#SVGID_7_"  style="overflow:visible;"/>
	</clipPath>
	<g class="st5">
		<g>
			<rect x="18.6" y="188.4" class="st1" width="225" height="150"/>
		</g>
		<g>
			<g>
				<path d="M21.7,193.2c2.6,35.1,3.3,70.2,2.1,105.4c-0.3,8.6-0.7,17.2-1.2,25.8c-0.3,4.6-0.3,9.3,5.3,10
					c7.9,1.1,16.6,0.1,24.6,0.1c8.6,0,17.3,0,25.9,0c35.2,0,70.4,0,105.6,0c8.6,0,17.3,0,25.9,0c4.3,0,8.6,0,12.9,0
					c4,0,8.4,0.5,12.4-0.1c3.9-0.6,5.8-3.3,5.5-7.1c-0.3-3.7-1.6-7.3-2.3-10.9c-0.9-4.7-1.6-9.5-2-14.2
					c-3.6-36.9,3.7-73.9-0.5-110.7c-0.1-0.8-0.6-1.5-1.5-1.5c-69.8,2.5-139.6,3.5-209.4,3.1c-1.9,0-1.9,3,0,3
					c69.8,0.4,139.7-0.6,209.4-3.1c-0.5-0.5-1-1-1.5-1.5c3.4,30.1-0.7,60.3-0.5,90.4c0.1,7.1,0.4,14.2,1.1,21.2
					c0.3,3.2,0.7,6.4,1.2,9.5c0.6,4.1,2.5,8.6,2.6,12.7c0.2,6.2-3.9,6.3-8.4,6.3c-4,0-8,0-11.9,0c-8.6,0-17.3,0-25.9,0
					c-31.9,0-63.8,0-95.6,0c-15.9,0-31.9,0-47.8,0c-3.3,0-6.6,0-10,0c-4.9,0-10.9,1.3-12.1-5.1c-0.6-3.5,0.5-8.3,0.7-11.9
					c0.2-4.6,0.4-9.3,0.6-13.9c1.3-35.8,0.6-71.6-2.1-107.4C24.5,191.3,21.5,191.3,21.7,193.2L21.7,193.2z"/>
			</g>
		</g>
		<g class="st2">
			<path d="M54.2,283.4L36,284.7l-4.1-6.4l19.6,2l2.9-6.7l-14.7-4.3l-2.8-8.8l25.6-14.7L55.7,257l-13.8,5.1l1.2,4.7l19.4,5.9
				L54.2,283.4z"/>
			<path d="M88,258l-19.4,0.5l-0.5-2.5l14.9-6.2l9.2-1.7L88,258z M88.5,299.9l-4.8-6.8l-16-1.9l2.7-27.2l2.2-4.5l2.7,0l-2.7,22.1
				l14.5,0.8L88.5,299.9z M88.5,275.7l-12.8-3.5l-0.2-2.4l4.5-0.6l10.5-3.9L88.5,275.7z"/>
			<path d="M113,284.5v6.5l-17.2-6.4l0.3-2.2l3.4-1l5.6,1.4l0.9-0.8l3.1-22.7l2.5-0.2l1.4,4V284.5z M118.4,258.1l-19.9,0.5l-0.5-2.5
				l15-6l6.2,4.2L118.4,258.1z"/>
			<path d="M131.9,284.3l-7.5-7.7c-0.8-0.8-0.8-2.1,0-2.8l18.2-17.9c0.6-0.6,1.6-0.8,2.4-0.3h0c1.2,0.6,1.4,2.3,0.4,3.2L129.7,274
				c-0.8,0.8-0.8,2.1,0,2.9l3.5,3.4c0.5,0.5,1.4,0.7,2.1,0.4l13.2-4.7c1.3-0.5,1.7-2,0.9-3.1l-5.9-8.1c-0.8-1.1-0.3-2.6,1-3.1
				l0.2-0.1c0.8-0.3,1.8,0,2.3,0.7l8.6,11.7c0.8,1.1,0.3,2.6-0.9,3.1l-20.6,7.6C133.3,285.1,132.5,284.9,131.9,284.3z"/>
			<path d="M167.5,284.5h-8.7l4.7-6.3l3-15.4l3.2,0.6L167.5,284.5z M187.2,284.5h-3.9l-4.6-4.2l-12.3-24.6l5.2-2.5l11.8,26.4l2-24.6
				l8-1.7l-3.5,8.8L187.2,284.5z"/>
			<path d="M220.4,260.1l-7.4-1.4c-0.6-0.1-1.2,0.1-1.6,0.7l-10.8,16.8c-0.4,0.7-0.3,1.5,0.3,2l4.5,3.6c0.5,0.4,1.1,0.4,1.6,0.2
				l8.8-4.3c0.6-0.3,1.4-0.1,1.8,0.4l0,0c0.5,0.6,0.5,1.6-0.1,2.1l-1.8,1.6c-0.1,0.1-0.3,0.2-0.5,0.3l-9.8,3.6
				c-0.5,0.2-1.1,0.1-1.5-0.3l-7.8-6.4c-0.6-0.5-0.7-1.3-0.3-2l11.7-21.2c0.3-0.5,2.5-0.5,3.1-0.4l8.9,1.2c0.2,0,0.4,0.1,0.6,0.2
				l1.3,0.8c0.6,0.4,0.8,1.1,0.5,1.7l0,0.1C221.5,260,220.9,260.2,220.4,260.1z M222.7,281.7l-1.6,2.7c-0.3,0.5-0.8,0.8-0.1,2.3
				l-0.2,3.1c-2.2-1.7-2.9-5.7-2.7-6.6l1.2-5.2c0.2-1-0.6-2-1.6-1.9l-7.3,0.7c-0.7,0.1-1.3-0.4-1.4-1l0,0c-0.1-0.6,0.2-1.3,0.8-1.5
				l3.4-1.2c0.2-0.1,0.4-0.1,0.5-0.1l8.7,0.1c0.9,0,1.6,0.9,1.5,1.8l-1.1,6.4C222.9,281.3,222.8,281.5,222.7,281.7z"/>
		</g>
	</g>
</g>
<g>
	<defs>
		<rect id="SVGID_9_" x="104.2" y="180.3" width="15" height="150"/>
	</defs>
	<clipPath id="SVGID_10_">
		<use xlink:href="#SVGID_9_"  style="overflow:visible;"/>
	</clipPath>
	<g class="st6">
		<g>
			<rect x="-15.6" y="180.3" class="st1" width="225" height="150"/>
		</g>
		<g>
			<g>
				<path d="M-12.6,185.1c2.6,35.1,3.3,70.2,2.1,105.4c-0.3,8.6-0.7,17.2-1.2,25.8c-0.3,4.6-0.3,9.3,5.3,10.1
					c7.9,1.1,16.6,0.1,24.6,0.1c8.6,0,17.3,0,25.9,0c35.2,0,70.4,0,105.6,0c8.6,0,17.3,0,25.9,0c4.3,0,8.6,0,12.9,0
					c4,0,8.4,0.5,12.4-0.1c3.9-0.6,5.8-3.3,5.5-7.1c-0.3-3.7-1.6-7.3-2.3-10.9c-0.9-4.7-1.6-9.4-2-14.2
					c-3.6-36.9,3.7-73.9-0.5-110.8c-0.1-0.8-0.6-1.5-1.5-1.5c-69.8,2.5-139.6,3.5-209.4,3.1c-1.9,0-1.9,3,0,3
					c69.8,0.4,139.7-0.6,209.4-3.1c-0.5-0.5-1-1-1.5-1.5c3.4,30.1-0.7,60.3-0.5,90.4c0.1,7.1,0.4,14.2,1.1,21.2
					c0.3,3.2,0.7,6.4,1.2,9.5c0.6,4.1,2.5,8.6,2.6,12.7c0.2,6.2-3.9,6.3-8.4,6.3c-4,0-8,0-11.9,0c-8.6,0-17.3,0-25.9,0
					c-31.9,0-63.8,0-95.6,0c-15.9,0-31.9,0-47.8,0c-3.3,0-6.6,0-10,0c-4.9,0-10.9,1.3-12.1-5.1c-0.6-3.5,0.5-8.3,0.7-11.9
					c0.2-4.6,0.4-9.3,0.6-13.9c1.3-35.8,0.6-71.6-2.1-107.4C-9.7,183.2-12.7,183.2-12.6,185.1L-12.6,185.1z"/>
			</g>
		</g>
		<g class="st2">
			<path d="M20,275.2l-18.2,1.4l-4.1-6.4l19.6,2l2.9-6.7l-14.7-4.3l-2.8-8.8l25.6-14.7l-6.9,11.2l-13.8,5.1l1.2,4.7l19.4,5.9
				L20,275.2z"/>
			<path d="M53.7,249.9l-19.4,0.5l-0.5-2.5l14.9-6.2l9.2-1.7L53.7,249.9z M54.2,291.7l-4.8-6.8l-16-1.9l2.7-27.2l2.2-4.5l2.7,0
				l-2.7,22.1l14.5,0.8L54.2,291.7z M54.2,267.5l-12.8-3.5l-0.2-2.4l4.5-0.6l10.5-3.9L54.2,267.5z"/>
			<path d="M78.7,276.3v6.5l-17.2-6.4l0.3-2.2l3.4-1l5.6,1.4l0.9-0.8l3.1-22.7l2.5-0.2l1.4,4V276.3z M84.1,250l-19.9,0.5l-0.5-2.5
				l15-6l6.2,4.2L84.1,250z"/>
			<path d="M97.6,276.2l-7.5-7.7c-0.8-0.8-0.8-2.1,0-2.8l18.2-17.9c0.6-0.6,1.6-0.8,2.4-0.3l0,0c1.2,0.6,1.4,2.3,0.4,3.2l-15.7,15.1
				c-0.8,0.8-0.8,2.1,0,2.9l3.5,3.4c0.5,0.5,1.4,0.7,2.1,0.4l13.2-4.7c1.3-0.5,1.7-2,0.9-3.1l-5.9-8.1c-0.8-1.1-0.3-2.6,1-3.1
				l0.2-0.1c0.8-0.3,1.8,0,2.3,0.7l8.6,11.7c0.8,1.1,0.3,2.6-0.9,3.1l-20.6,7.6C99,276.9,98.2,276.7,97.6,276.2z"/>
			<path d="M133.3,276.4h-8.7l4.7-6.3l3-15.4l3.2,0.6L133.3,276.4z M152.9,276.4H149l-4.6-4.2L132,247.6l5.2-2.5l11.8,26.4l2-24.6
				l8-1.7l-3.5,8.8L152.9,276.4z"/>
			<path d="M186.1,252l-7.4-1.4c-0.6-0.1-1.2,0.1-1.6,0.7L166.3,268c-0.4,0.7-0.3,1.5,0.3,2l4.5,3.6c0.5,0.4,1.1,0.4,1.6,0.2
				l8.8-4.3c0.6-0.3,1.4-0.1,1.8,0.4l0,0c0.5,0.6,0.5,1.6-0.1,2.1l-1.8,1.6c-0.1,0.1-0.3,0.2-0.5,0.3l-9.8,3.6
				c-0.5,0.2-1.1,0.1-1.5-0.3l-7.8-6.4c-0.6-0.5-0.7-1.3-0.3-2l11.7-21.2c0.3-0.5,2.5-0.5,3.1-0.4l8.9,1.2c0.2,0,0.4,0.1,0.6,0.2
				l1.3,0.8c0.6,0.4,0.8,1.1,0.5,1.7l0,0.1C187.2,251.8,186.7,252.1,186.1,252z M188.5,273.5l-1.6,2.7c-0.3,0.5-0.8,0.8-0.1,2.3
				l-0.2,3.1c-2.2-1.7-2.9-5.7-2.7-6.6l1.2-5.2c0.2-1-0.6-2-1.6-1.9l-7.3,0.7c-0.7,0.1-1.3-0.4-1.4-1l0,0c-0.1-0.6,0.2-1.3,0.8-1.5
				l3.4-1.2c0.2-0.1,0.4-0.1,0.5-0.1l8.7,0.1c0.9,0,1.6,0.9,1.5,1.8l-1.1,6.4C188.6,273.2,188.6,273.4,188.5,273.5z"/>
		</g>
	</g>
</g>
<g>
	<defs>
		<rect id="SVGID_11_" x="243.6" y="188.4" width="15" height="150"/>
	</defs>
	<clipPath id="SVGID_12_">
		<use xlink:href="#SVGID_11_"  style="overflow:visible;"/>
	</clipPath>
	<g class="st7">
		<g>
			<rect x="78.8" y="188.4" class="st1" width="225" height="150"/>
		</g>
		<g>
			<g>
				<path d="M81.8,193.2c2.6,35.1,3.3,70.2,2.1,105.4c-0.3,8.6-0.7,17.2-1.2,25.8c-0.3,4.6-0.3,9.3,5.3,10
					c7.9,1.1,16.6,0.1,24.6,0.1c8.6,0,17.3,0,25.9,0c35.2,0,70.4,0,105.6,0c8.6,0,17.3,0,25.9,0c4.3,0,8.6,0,13,0
					c4,0,8.4,0.5,12.4-0.1c3.9-0.6,5.8-3.3,5.5-7.1c-0.3-3.7-1.6-7.3-2.3-10.9c-0.9-4.7-1.5-9.5-2-14.2
					c-3.6-36.9,3.7-73.9-0.5-110.7c-0.1-0.8-0.6-1.5-1.5-1.5c-69.8,2.5-139.6,3.5-209.4,3.1c-1.9,0-1.9,3,0,3
					c69.8,0.4,139.7-0.6,209.4-3.1c-0.5-0.5-1-1-1.5-1.5c3.4,30.1-0.7,60.3-0.5,90.4c0.1,7.1,0.4,14.2,1.1,21.2
					c0.3,3.2,0.7,6.4,1.2,9.5c0.6,4.1,2.5,8.6,2.6,12.7c0.2,6.2-3.9,6.3-8.4,6.3c-4,0-8,0-12,0c-8.6,0-17.3,0-25.9,0
					c-31.9,0-63.8,0-95.6,0c-15.9,0-31.9,0-47.8,0c-3.3,0-6.6,0-10,0c-4.9,0-10.9,1.3-12.1-5.1c-0.7-3.5,0.5-8.3,0.7-11.9
					c0.2-4.6,0.4-9.3,0.6-13.9c1.3-35.8,0.6-71.6-2.1-107.4C84.7,191.3,81.7,191.3,81.8,193.2L81.8,193.2z"/>
			</g>
		</g>
		<g class="st2">
			<path d="M114.4,283.4l-18.2,1.4l-4.1-6.4l19.6,2l2.9-6.7l-14.7-4.3l-2.8-8.8l25.6-14.7l-6.9,11.2l-13.8,5.1l1.2,4.7l19.4,5.9
				L114.4,283.4z"/>
			<path d="M148.1,258l-19.4,0.5l-0.5-2.5l14.9-6.2l9.2-1.7L148.1,258z M148.6,299.9l-4.8-6.8l-16-1.9l2.7-27.2l2.2-4.5l2.7,0
				l-2.7,22.1l14.5,0.8L148.6,299.9z M148.6,275.7l-12.8-3.5l-0.2-2.4l4.5-0.6l10.5-3.9L148.6,275.7z"/>
			<path d="M173.1,284.5v6.5l-17.2-6.4l0.3-2.2l3.4-1l5.6,1.4l0.9-0.8l3.1-22.7l2.5-0.2l1.4,4V284.5z M178.5,258.1l-19.9,0.5
				l-0.5-2.5l15-6l6.2,4.2L178.5,258.1z"/>
			<path d="M192.1,284.3l-7.5-7.7c-0.8-0.8-0.8-2.1,0-2.8l18.2-17.9c0.6-0.6,1.6-0.8,2.4-0.3l0,0c1.2,0.6,1.4,2.3,0.4,3.2L189.8,274
				c-0.8,0.8-0.8,2.1,0,2.9l3.5,3.4c0.5,0.5,1.4,0.7,2.1,0.4l13.2-4.7c1.3-0.5,1.7-2,0.9-3.1l-5.9-8.1c-0.8-1.1-0.3-2.6,1-3.1
				l0.2-0.1c0.8-0.3,1.8,0,2.3,0.7l8.6,11.7c0.8,1.1,0.3,2.6-0.9,3.1l-20.6,7.6C193.4,285.1,192.6,284.9,192.1,284.3z"/>
			<path d="M227.7,284.5H219l4.7-6.3l3-15.4l3.2,0.6L227.7,284.5z M247.3,284.5h-3.9l-4.6-4.2l-12.3-24.6l5.2-2.5l11.8,26.4l2-24.6
				l8-1.7l-3.5,8.8L247.3,284.5z"/>
			<path d="M280.5,260.1l-7.4-1.4c-0.6-0.1-1.2,0.1-1.6,0.7l-10.8,16.8c-0.4,0.7-0.3,1.5,0.3,2l4.5,3.6c0.5,0.4,1.1,0.4,1.6,0.2
				l8.8-4.3c0.6-0.3,1.4-0.1,1.8,0.4l0,0c0.5,0.6,0.5,1.6-0.1,2.1l-1.8,1.6c-0.1,0.1-0.3,0.2-0.5,0.3l-9.8,3.6
				c-0.5,0.2-1.1,0.1-1.5-0.3l-7.8-6.4c-0.6-0.5-0.7-1.3-0.3-2l11.7-21.2c0.3-0.5,2.5-0.5,3.1-0.4l8.9,1.2c0.2,0,0.4,0.1,0.6,0.2
				l1.3,0.8c0.6,0.4,0.8,1.1,0.5,1.7l0,0.1C281.6,260,281.1,260.2,280.5,260.1z M282.9,281.7l-1.6,2.7c-0.3,0.5-0.8,0.8-0.1,2.3
				l-0.2,3.1c-2.2-1.7-2.9-5.7-2.7-6.6l1.2-5.2c0.2-1-0.6-2-1.6-1.9l-7.3,0.7c-0.7,0.1-1.3-0.4-1.4-1l0,0c-0.1-0.6,0.2-1.3,0.8-1.5
				l3.4-1.2c0.2-0.1,0.4-0.1,0.5-0.1l8.7,0.1c0.9,0,1.6,0.9,1.5,1.8l-1.1,6.4C283.1,281.3,283,281.5,282.9,281.7z"/>
		</g>
	</g>
</g>
<g>
	<defs>
		<rect id="SVGID_13_" x="275.1" y="199.7" width="15" height="150"/>
	</defs>
	<clipPath id="SVGID_14_">
		<use xlink:href="#SVGID_13_"  style="overflow:visible;"/>
	</clipPath>
	<g class="st8">
		<g>
			<rect x="95.4" y="199.7" class="st1" width="225" height="150"/>
		</g>
		<g>
			<g>
				<path d="M98.4,204.5c2.6,35.1,3.3,70.2,2.1,105.4c-0.3,8.6-0.7,17.2-1.2,25.8c-0.3,4.6-0.3,9.3,5.3,10
					c7.9,1.1,16.6,0.1,24.6,0.1c8.6,0,17.3,0,25.9,0c35.2,0,70.4,0,105.6,0c8.6,0,17.3,0,25.9,0c4.3,0,8.6,0,12.9,0
					c4,0,8.4,0.5,12.4-0.1c3.9-0.6,5.8-3.3,5.5-7.1c-0.3-3.7-1.6-7.3-2.3-10.9c-0.9-4.7-1.6-9.5-2-14.2
					c-3.6-36.9,3.7-73.9-0.5-110.8c-0.1-0.8-0.6-1.5-1.5-1.5c-69.8,2.5-139.6,3.5-209.4,3.1c-1.9,0-1.9,3,0,3
					c69.8,0.4,139.7-0.6,209.4-3.1c-0.5-0.5-1-1-1.5-1.5c3.4,30.1-0.7,60.3-0.5,90.4c0,7.1,0.4,14.2,1.1,21.2
					c0.3,3.2,0.7,6.4,1.2,9.5c0.6,4.1,2.5,8.6,2.6,12.7c0.2,6.2-3.9,6.3-8.4,6.3c-4,0-8,0-11.9,0c-8.6,0-17.3,0-25.9,0
					c-31.9,0-63.8,0-95.6,0c-15.9,0-31.9,0-47.8,0c-3.3,0-6.6,0-10,0c-4.9,0-10.9,1.3-12.1-5.1c-0.7-3.5,0.5-8.3,0.7-11.9
					c0.2-4.6,0.4-9.3,0.6-13.9c1.3-35.8,0.6-71.6-2.1-107.4C101.3,202.6,98.3,202.6,98.4,204.5L98.4,204.5z"/>
			</g>
		</g>
		<g class="st2">
			<path d="M130.9,294.6l-18.2,1.4l-4.1-6.4l19.6,2l2.9-6.7l-14.7-4.3l-2.8-8.8l25.6-14.7l-6.9,11.2l-13.8,5.1l1.2,4.7l19.4,5.9
				L130.9,294.6z"/>
			<path d="M164.7,269.3l-19.4,0.5l-0.5-2.5l14.9-6.2l9.2-1.7L164.7,269.3z M165.2,311.1l-4.8-6.8l-16-1.9l2.7-27.2l2.2-4.5l2.7,0
				l-2.7,22.1l14.5,0.8L165.2,311.1z M165.2,287l-12.8-3.5l-0.2-2.4l4.5-0.6l10.5-3.9L165.2,287z"/>
			<path d="M189.7,295.7v6.5l-17.2-6.4l0.3-2.2l3.4-1l5.6,1.4l0.9-0.8l3.1-22.7l2.5-0.2l1.4,4V295.7z M195.1,269.4l-19.9,0.5
				l-0.5-2.5l15-6l6.2,4.2L195.1,269.4z"/>
			<path d="M208.6,295.6l-7.5-7.7c-0.8-0.8-0.8-2.1,0-2.8l18.2-17.9c0.6-0.6,1.6-0.8,2.4-0.3v0c1.2,0.6,1.4,2.3,0.4,3.2l-15.7,15.1
				c-0.8,0.8-0.8,2.1,0,2.9l3.5,3.4c0.5,0.5,1.4,0.7,2.1,0.4l13.2-4.7c1.3-0.5,1.7-2,0.9-3.1l-5.9-8.1c-0.8-1.1-0.3-2.6,1-3.1
				l0.2-0.1c0.8-0.3,1.8,0,2.3,0.7l8.6,11.7c0.8,1.1,0.3,2.6-0.9,3.1l-20.6,7.6C210,296.4,209.2,296.2,208.6,295.6z"/>
			<path d="M244.2,295.8h-8.7l4.7-6.3l3-15.4l3.2,0.6L244.2,295.8z M263.9,295.8h-3.9l-4.6-4.2L243,267l5.2-2.5L260,291l2-24.6
				l8-1.7l-3.5,8.8L263.9,295.8z"/>
			<path d="M297.1,271.4l-7.4-1.4c-0.6-0.1-1.2,0.1-1.6,0.7l-10.8,16.8c-0.4,0.7-0.3,1.5,0.3,2l4.5,3.6c0.5,0.4,1.1,0.4,1.6,0.2
				l8.8-4.3c0.6-0.3,1.4-0.1,1.8,0.4l0,0c0.5,0.6,0.5,1.6-0.1,2.1l-1.8,1.6c-0.1,0.1-0.3,0.2-0.5,0.3l-9.8,3.6
				c-0.5,0.2-1.1,0.1-1.5-0.3l-7.8-6.4c-0.6-0.5-0.7-1.3-0.3-2l11.7-21.2c0.3-0.5,2.5-0.5,3.1-0.4l8.9,1.2c0.2,0,0.4,0.1,0.6,0.2
				l1.3,0.8c0.6,0.4,0.8,1.1,0.5,1.7l0,0.1C298.2,271.3,297.6,271.5,297.1,271.4z M299.5,293l-1.6,2.7c-0.3,0.5-0.8,0.8-0.1,2.3
				l-0.2,3.1c-2.2-1.7-2.9-5.7-2.7-6.6l1.2-5.2c0.2-1-0.6-2-1.6-1.9l-7.3,0.7c-0.7,0.1-1.3-0.4-1.4-1l0,0c-0.1-0.6,0.2-1.3,0.8-1.5
				l3.4-1.2c0.2-0.1,0.4-0.1,0.5-0.1l8.7,0.1c0.9,0,1.6,0.9,1.5,1.8l-1.1,6.4C299.6,292.6,299.6,292.8,299.5,293z"/>
		</g>
	</g>
</g>
<g>
	<defs>
		<rect id="SVGID_15_" x="-75.5" y="188.4" width="15" height="150"/>
	</defs>
	<clipPath id="SVGID_16_">
		<use xlink:href="#SVGID_15_"  style="overflow:visible;"/>
	</clipPath>
	<g class="st9">
		<g>
			<rect x="-120.5" y="188.4" class="st1" width="225" height="150"/>
		</g>
		<g>
			<g>
				<path d="M-117.5,193.2c2.6,35.1,3.3,70.2,2.1,105.4c-0.3,8.6-0.7,17.2-1.2,25.8c-0.3,4.6-0.3,9.3,5.3,10
					c7.9,1.1,16.6,0.1,24.6,0.1c8.6,0,17.3,0,25.9,0c35.2,0,70.4,0,105.6,0c8.6,0,17.3,0,25.9,0c4.3,0,8.6,0,12.9,0
					c4,0,8.4,0.5,12.4-0.1c3.9-0.6,5.8-3.3,5.5-7.1c-0.3-3.7-1.6-7.3-2.3-10.9c-0.9-4.7-1.6-9.5-2-14.2
					c-3.6-36.9,3.7-73.9-0.5-110.7c-0.1-0.8-0.6-1.5-1.5-1.5c-69.8,2.5-139.6,3.5-209.4,3.1c-1.9,0-1.9,3,0,3
					c69.8,0.4,139.7-0.6,209.4-3.1c-0.5-0.5-1-1-1.5-1.5c3.4,30.1-0.7,60.3-0.5,90.4c0.1,7.1,0.4,14.2,1.1,21.2
					c0.3,3.2,0.7,6.4,1.2,9.5c0.6,4.1,2.5,8.6,2.6,12.7c0.2,6.2-3.9,6.3-8.4,6.3c-4,0-8,0-11.9,0c-8.6,0-17.3,0-25.9,0
					c-31.9,0-63.8,0-95.6,0c-15.9,0-31.9,0-47.8,0c-3.3,0-6.6,0-10,0c-4.9,0-10.9,1.3-12.1-5.1c-0.6-3.5,0.5-8.3,0.7-11.9
					c0.2-4.6,0.4-9.3,0.6-13.9c1.3-35.8,0.6-71.6-2.1-107.4C-114.6,191.3-117.6,191.3-117.5,193.2L-117.5,193.2z"/>
			</g>
		</g>
		<g class="st2">
			<path d="M-84.9,283.4l-18.2,1.4l-4.1-6.4l19.6,2l2.9-6.7l-14.7-4.3l-2.8-8.8l25.6-14.7l-6.9,11.2l-13.8,5.1l1.2,4.7l19.4,5.9
				L-84.9,283.4z"/>
			<path d="M-51.2,258l-19.4,0.5l-0.5-2.5l14.9-6.2l9.2-1.7L-51.2,258z M-50.7,299.9l-4.8-6.8l-16-1.9l2.7-27.2l2.2-4.5l2.7,0
				l-2.7,22.1l14.5,0.8L-50.7,299.9z M-50.7,275.7l-12.8-3.5l-0.2-2.4l4.5-0.6l10.5-3.9L-50.7,275.7z"/>
			<path d="M-26.2,284.5v6.5l-17.2-6.4l0.3-2.2l3.4-1l5.6,1.4l0.9-0.8l3.1-22.7l2.5-0.2l1.4,4V284.5z M-20.8,258.1l-19.9,0.5
				l-0.5-2.5l15-6l6.2,4.2L-20.8,258.1z"/>
			<path d="M-7.3,284.3l-7.5-7.7c-0.8-0.8-0.8-2.1,0-2.8L3.5,256c0.6-0.6,1.6-0.8,2.4-0.3h0c1.2,0.6,1.4,2.3,0.4,3.2L-9.5,274
				c-0.8,0.8-0.8,2.1,0,2.9l3.5,3.4c0.5,0.5,1.4,0.7,2.1,0.4L9.4,276c1.3-0.5,1.7-2,0.9-3.1l-5.9-8.1c-0.8-1.1-0.3-2.6,1-3.1
				l0.2-0.1c0.8-0.3,1.8,0,2.3,0.7l8.6,11.7c0.8,1.1,0.3,2.6-0.9,3.1l-20.6,7.6C-5.9,285.1-6.7,284.9-7.3,284.3z"/>
			<path d="M28.4,284.5h-8.7l4.7-6.3l3-15.4l3.2,0.6L28.4,284.5z M48,284.5h-3.9l-4.6-4.2l-12.3-24.6l5.2-2.5l11.8,26.4l2-24.6
				l8-1.7l-3.5,8.8L48,284.5z"/>
			<path d="M81.2,260.1l-7.4-1.4c-0.6-0.1-1.2,0.1-1.6,0.7l-10.8,16.8c-0.4,0.7-0.3,1.5,0.3,2l4.5,3.6c0.5,0.4,1.1,0.4,1.6,0.2
				l8.8-4.3c0.6-0.3,1.4-0.1,1.8,0.4l0,0c0.5,0.6,0.5,1.6-0.1,2.1l-1.8,1.6c-0.1,0.1-0.3,0.2-0.5,0.3l-9.8,3.6
				c-0.5,0.2-1.1,0.1-1.5-0.3L57,279c-0.6-0.5-0.7-1.3-0.3-2l11.7-21.2c0.3-0.5,2.5-0.5,3.1-0.4l8.9,1.2c0.2,0,0.4,0.1,0.6,0.2
				l1.3,0.8c0.6,0.4,0.8,1.1,0.5,1.7l0,0.1C82.3,260,81.8,260.2,81.2,260.1z M83.6,281.7l-1.6,2.7c-0.3,0.5-0.8,0.8-0.1,2.3
				l-0.2,3.1c-2.2-1.7-2.9-5.7-2.7-6.6l1.2-5.2c0.2-1-0.6-2-1.6-1.9l-7.3,0.7c-0.7,0.1-1.3-0.4-1.4-1l0,0c-0.1-0.6,0.2-1.3,0.8-1.5
				l3.4-1.2c0.2-0.1,0.4-0.1,0.5-0.1l8.7,0.1c0.9,0,1.6,0.9,1.5,1.8l-1.1,6.4C83.7,281.3,83.7,281.5,83.6,281.7z"/>
		</g>
	</g>
</g>
<g>
	<defs>
		<rect id="SVGID_17_" x="51.8" y="180.3" width="15" height="150"/>
	</defs>
	<clipPath id="SVGID_18_">
		<use xlink:href="#SVGID_17_"  style="overflow:visible;"/>
	</clipPath>
	<g class="st10">
		<g>
			<rect x="-53.1" y="180.3" class="st1" width="225" height="150"/>
		</g>
		<g>
			<g>
				<path d="M-50.1,185.1c2.6,35.1,3.3,70.2,2.1,105.4c-0.3,8.6-0.7,17.2-1.2,25.8c-0.3,4.6-0.3,9.3,5.3,10.1
					c7.9,1.1,16.6,0.1,24.6,0.1c8.6,0,17.3,0,25.9,0c35.2,0,70.4,0,105.6,0c8.6,0,17.3,0,25.9,0c4.3,0,8.6,0,12.9,0
					c4,0,8.4,0.5,12.4-0.1c3.9-0.6,5.8-3.3,5.5-7.1c-0.3-3.7-1.6-7.3-2.3-10.9c-0.9-4.7-1.6-9.4-2-14.2
					c-3.6-36.9,3.7-73.9-0.5-110.8c-0.1-0.8-0.6-1.5-1.5-1.5c-69.8,2.5-139.6,3.5-209.4,3.1c-1.9,0-1.9,3,0,3
					c69.8,0.4,139.7-0.6,209.4-3.1c-0.5-0.5-1-1-1.5-1.5c3.4,30.1-0.7,60.3-0.5,90.4c0.1,7.1,0.4,14.2,1.1,21.2
					c0.3,3.2,0.7,6.4,1.2,9.5c0.6,4.1,2.5,8.6,2.6,12.7c0.2,6.2-3.9,6.3-8.4,6.3c-4,0-8,0-11.9,0c-8.6,0-17.3,0-25.9,0
					c-31.9,0-63.8,0-95.6,0c-15.9,0-31.9,0-47.8,0c-3.3,0-6.6,0-10,0c-4.9,0-10.9,1.3-12.1-5.1c-0.7-3.5,0.5-8.3,0.7-11.9
					c0.2-4.6,0.4-9.3,0.6-13.9c1.3-35.8,0.6-71.6-2.1-107.4C-47.2,183.2-50.2,183.2-50.1,185.1L-50.1,185.1z"/>
			</g>
		</g>
		<g class="st2">
			<path d="M-17.5,275.2l-18.2,1.4l-4.1-6.4l19.6,2l2.9-6.7l-14.7-4.3l-2.8-8.8l25.6-14.7l-6.9,11.2l-13.8,5.1l1.2,4.7l19.4,5.9
				L-17.5,275.2z"/>
			<path d="M16.2,249.9l-19.4,0.5l-0.5-2.5l14.9-6.2l9.2-1.7L16.2,249.9z M16.7,291.7l-4.8-6.8l-16-1.9l2.7-27.2l2.2-4.5l2.7,0
				l-2.7,22.1l14.5,0.8L16.7,291.7z M16.7,267.5l-12.8-3.5l-0.2-2.4l4.5-0.6l10.5-3.9L16.7,267.5z"/>
			<path d="M41.2,276.3v6.5L24,276.5l0.3-2.2l3.4-1l5.6,1.4l0.9-0.8l3.1-22.7l2.5-0.2l1.4,4V276.3z M46.6,250l-19.9,0.5l-0.5-2.5
				l15-6l6.2,4.2L46.6,250z"/>
			<path d="M60.1,276.2l-7.5-7.7c-0.8-0.8-0.8-2.1,0-2.8l18.2-17.9c0.6-0.6,1.6-0.8,2.4-0.3l0,0c1.2,0.6,1.4,2.3,0.4,3.2l-15.7,15.1
				c-0.8,0.8-0.8,2.1,0,2.9l3.5,3.4c0.5,0.5,1.4,0.7,2.1,0.4l13.2-4.7c1.3-0.5,1.7-2,0.9-3.1l-5.9-8.1c-0.8-1.1-0.3-2.6,1-3.1
				l0.2-0.1c0.8-0.3,1.8,0,2.3,0.7l8.6,11.7c0.8,1.1,0.3,2.6-0.9,3.1l-20.6,7.6C61.5,276.9,60.7,276.7,60.1,276.2z"/>
			<path d="M95.8,276.4h-8.7l4.7-6.3l3-15.4l3.2,0.6L95.8,276.4z M115.4,276.4h-3.9l-4.6-4.2l-12.3-24.6l5.2-2.5l11.8,26.4l2-24.6
				l8-1.7l-3.5,8.8L115.4,276.4z"/>
			<path d="M148.6,252l-7.4-1.4c-0.6-0.1-1.2,0.1-1.6,0.7L128.8,268c-0.4,0.7-0.3,1.5,0.3,2l4.5,3.6c0.5,0.4,1.1,0.4,1.6,0.2
				l8.8-4.3c0.6-0.3,1.4-0.1,1.8,0.4l0,0c0.5,0.6,0.5,1.6-0.1,2.1l-1.8,1.6c-0.1,0.1-0.3,0.2-0.5,0.3l-9.8,3.6
				c-0.5,0.2-1.1,0.1-1.5-0.3l-7.8-6.4c-0.6-0.5-0.7-1.3-0.3-2l11.7-21.2c0.3-0.5,2.5-0.5,3.1-0.4l8.9,1.2c0.2,0,0.4,0.1,0.6,0.2
				l1.3,0.8c0.6,0.4,0.8,1.1,0.5,1.7l0,0.1C149.7,251.8,149.2,252.1,148.6,252z M151,273.5l-1.6,2.7c-0.3,0.5-0.8,0.8-0.1,2.3
				l-0.2,3.1c-2.2-1.7-2.9-5.7-2.7-6.6l1.2-5.2c0.2-1-0.6-2-1.6-1.9l-7.3,0.7c-0.7,0.1-1.3-0.4-1.4-1l0,0c-0.1-0.6,0.2-1.3,0.8-1.5
				l3.4-1.2c0.2-0.1,0.4-0.1,0.5-0.1l8.7,0.1c0.9,0,1.6,0.9,1.5,1.8l-1.1,6.4C151.1,273.2,151.1,273.4,151,273.5z"/>
		</g>
	</g>
</g>
<g>
	<defs>
		<rect id="SVGID_19_" x="3.9" y="183" width="15" height="150"/>
	</defs>
	<clipPath id="SVGID_20_">
		<use xlink:href="#SVGID_19_"  style="overflow:visible;"/>
	</clipPath>
	<g class="st11">
		<g>
			<rect x="-86" y="183" class="st1" width="225" height="150"/>
		</g>
		<g>
			<g>
				<path d="M-82.9,187.8c2.6,35.1,3.3,70.2,2.1,105.4c-0.3,8.6-0.7,17.2-1.2,25.8c-0.3,4.6-0.3,9.3,5.3,10
					c7.9,1.1,16.6,0.1,24.6,0.1c8.6,0,17.3,0,25.9,0c35.2,0,70.4,0,105.6,0c8.6,0,17.3,0,25.9,0c4.3,0,8.6,0,12.9,0
					c4,0,8.4,0.5,12.4-0.1c3.9-0.6,5.8-3.3,5.5-7.1c-0.3-3.7-1.6-7.3-2.3-10.9c-0.9-4.7-1.6-9.5-2-14.2
					c-3.6-36.9,3.7-73.9-0.5-110.7c-0.1-0.8-0.6-1.5-1.5-1.5C60,187-9.8,188-79.6,187.6c-1.9,0-1.9,3,0,3
					C-9.8,191,60,190,129.8,187.5c-0.5-0.5-1-1-1.5-1.5c3.4,30.1-0.7,60.3-0.5,90.4c0.1,7.1,0.3,14.2,1.1,21.2
					c0.3,3.2,0.7,6.4,1.2,9.5c0.6,4.1,2.5,8.6,2.6,12.7c0.2,6.2-3.9,6.3-8.4,6.3c-4,0-8,0-11.9,0c-8.6,0-17.3,0-25.9,0
					c-31.9,0-63.8,0-95.6,0c-15.9,0-31.9,0-47.8,0c-3.3,0-6.6,0-10,0c-4.9,0-10.9,1.3-12.1-5.1c-0.7-3.5,0.5-8.3,0.7-11.9
					c0.2-4.6,0.4-9.3,0.6-13.9c1.3-35.8,0.6-71.6-2.1-107.4C-80.1,185.9-83.1,185.9-82.9,187.8L-82.9,187.8z"/>
			</g>
		</g>
		<g class="st2">
			<path d="M-50.4,277.9l-18.2,1.4l-4.1-6.4l19.6,2l2.9-6.7l-14.7-4.3l-2.8-8.8l25.6-14.7l-6.9,11.2l-13.8,5.1l1.2,4.7l19.4,5.9
				L-50.4,277.9z"/>
			<path d="M-16.6,252.6l-19.4,0.5l-0.5-2.5l14.9-6.2l9.2-1.7L-16.6,252.6z M-16.2,294.4l-4.8-6.8l-16-1.9l2.7-27.2l2.2-4.5l2.7,0
				l-2.7,22.1l14.5,0.8L-16.2,294.4z M-16.2,270.3l-12.8-3.5l-0.2-2.4l4.5-0.6l10.5-3.9L-16.2,270.3z"/>
			<path d="M8.4,279v6.5l-17.2-6.4l0.3-2.2l3.4-1l5.6,1.4l0.9-0.8L4.4,254l2.5-0.2l1.4,4V279z M13.8,252.7l-19.9,0.5l-0.5-2.5l15-6
				l6.2,4.2L13.8,252.7z"/>
			<path d="M27.3,278.9l-7.5-7.7c-0.8-0.8-0.8-2.1,0-2.8L38,250.5c0.6-0.6,1.6-0.8,2.4-0.3h0c1.2,0.6,1.4,2.3,0.4,3.2l-15.7,15.1
				c-0.8,0.8-0.8,2.1,0,2.9l3.5,3.4c0.5,0.5,1.4,0.7,2.1,0.4l13.2-4.7c1.3-0.5,1.7-2,0.9-3.1l-5.9-8.1c-0.8-1.1-0.3-2.6,1-3.1
				l0.2-0.1c0.8-0.3,1.8,0,2.3,0.7l8.6,11.7c0.8,1.1,0.3,2.6-0.9,3.1l-20.6,7.6C28.7,279.7,27.8,279.5,27.3,278.9z"/>
			<path d="M62.9,279.1h-8.7l4.7-6.3l3-15.4l3.2,0.6L62.9,279.1z M82.6,279.1h-3.9l-4.6-4.2l-12.3-24.6l5.2-2.5l11.8,26.4l2-24.6
				l8-1.7l-3.5,8.8L82.6,279.1z"/>
			<path d="M115.7,254.7l-7.4-1.4c-0.6-0.1-1.2,0.1-1.6,0.7l-10.8,16.8c-0.4,0.7-0.3,1.5,0.3,2l4.5,3.6c0.5,0.4,1.1,0.4,1.6,0.2
				l8.8-4.3c0.6-0.3,1.4-0.1,1.8,0.4l0,0c0.5,0.6,0.5,1.6-0.1,2.1l-1.8,1.6c-0.1,0.1-0.3,0.2-0.5,0.3l-9.8,3.6
				c-0.5,0.2-1.1,0.1-1.5-0.3l-7.8-6.4c-0.6-0.5-0.7-1.3-0.3-2l11.7-21.2c0.3-0.5,2.5-0.5,3.1-0.4l8.9,1.2c0.2,0,0.4,0.1,0.6,0.2
				l1.3,0.8c0.6,0.4,0.8,1.1,0.5,1.7l0,0.1C116.9,254.5,116.3,254.8,115.7,254.7z M118.1,276.2l-1.6,2.7c-0.3,0.5-0.8,0.8-0.1,2.3
				l-0.2,3.1c-2.2-1.7-2.9-5.7-2.7-6.6l1.2-5.2c0.2-1-0.6-2-1.6-1.9l-7.3,0.7c-0.7,0.1-1.3-0.4-1.4-1l0,0c-0.1-0.6,0.2-1.3,0.8-1.5
				l3.4-1.2c0.2-0.1,0.4-0.1,0.5-0.1l8.7,0.1c0.9,0,1.6,0.9,1.5,1.8l-1.1,6.4C118.3,275.9,118.2,276.1,118.1,276.2z"/>
		</g>
	</g>
</g>
<g>
	<defs>
		<rect id="SVGID_21_" x="-23" y="188.4" width="15" height="150"/>
	</defs>
	<clipPath id="SVGID_22_">
		<use xlink:href="#SVGID_21_"  style="overflow:visible;"/>
	</clipPath>
	<g class="st12">
		<g>
			<rect x="-97.9" y="188.4" class="st1" width="225" height="150"/>
		</g>
		<g>
			<g>
				<path d="M-94.9,193.2c2.6,35.1,3.3,70.2,2.1,105.4c-0.3,8.6-0.7,17.2-1.2,25.8c-0.3,4.6-0.3,9.3,5.3,10
					c7.9,1.1,16.6,0.1,24.6,0.1c8.6,0,17.3,0,25.9,0c35.2,0,70.4,0,105.6,0c8.6,0,17.3,0,25.9,0c4.3,0,8.6,0,12.9,0
					c4,0,8.4,0.5,12.4-0.1c3.9-0.6,5.8-3.3,5.5-7.1c-0.3-3.7-1.6-7.3-2.3-10.9c-0.9-4.7-1.6-9.5-2-14.2
					c-3.6-36.9,3.7-73.9-0.5-110.7c-0.1-0.8-0.6-1.5-1.5-1.5c-69.8,2.5-139.6,3.5-209.4,3.1c-1.9,0-1.9,3,0,3
					c69.8,0.4,139.7-0.6,209.4-3.1c-0.5-0.5-1-1-1.5-1.5c3.4,30.1-0.7,60.3-0.5,90.4c0.1,7.1,0.4,14.2,1.1,21.2
					c0.3,3.2,0.7,6.4,1.2,9.5c0.6,4.1,2.5,8.6,2.6,12.7c0.2,6.2-3.9,6.3-8.4,6.3c-4,0-8,0-11.9,0c-8.6,0-17.3,0-25.9,0
					c-31.9,0-63.8,0-95.6,0c-15.9,0-31.9,0-47.8,0c-3.3,0-6.6,0-10,0c-4.9,0-10.9,1.3-12.1-5.1c-0.6-3.5,0.5-8.3,0.7-11.9
					c0.2-4.6,0.4-9.3,0.6-13.9c1.3-35.8,0.6-71.6-2.1-107.4C-92,191.3-95,191.3-94.9,193.2L-94.9,193.2z"/>
			</g>
		</g>
		<g class="st2">
			<path d="M-62.3,283.4l-18.2,1.4l-4.1-6.4l19.6,2l2.9-6.7l-14.7-4.3l-2.8-8.8l25.6-14.7l-6.9,11.2l-13.8,5.1l1.2,4.7l19.4,5.9
				L-62.3,283.4z"/>
			<path d="M-28.6,258l-19.4,0.5l-0.5-2.5l14.9-6.2l9.2-1.7L-28.6,258z M-28.1,299.9l-4.8-6.8l-16-1.9l2.7-27.2l2.2-4.5l2.7,0
				l-2.7,22.1l14.5,0.8L-28.1,299.9z M-28.1,275.7l-12.8-3.5l-0.2-2.4l4.5-0.6l10.5-3.9L-28.1,275.7z"/>
			<path d="M-3.6,284.5v6.5l-17.2-6.4l0.3-2.2l3.4-1l5.6,1.4l0.9-0.8l3.1-22.7l2.5-0.2l1.4,4V284.5z M1.8,258.1l-19.9,0.5l-0.5-2.5
				l15-6l6.2,4.2L1.8,258.1z"/>
			<path d="M15.3,284.3l-7.5-7.7c-0.8-0.8-0.8-2.1,0-2.8L26.1,256c0.6-0.6,1.6-0.8,2.4-0.3h0c1.2,0.6,1.4,2.3,0.4,3.2L13.1,274
				c-0.8,0.8-0.8,2.1,0,2.9l3.5,3.4c0.5,0.5,1.4,0.7,2.1,0.4L32,276c1.3-0.5,1.7-2,0.9-3.1l-5.9-8.1c-0.8-1.1-0.3-2.6,1-3.1l0.2-0.1
				c0.8-0.3,1.8,0,2.3,0.7l8.6,11.7c0.8,1.1,0.3,2.6-0.9,3.1l-20.6,7.6C16.7,285.1,15.9,284.9,15.3,284.3z"/>
			<path d="M51,284.5h-8.7l4.7-6.3l3-15.4l3.2,0.6L51,284.5z M70.6,284.5h-3.9l-4.6-4.2l-12.3-24.6l5.2-2.5l11.8,26.4l2-24.6l8-1.7
				l-3.5,8.8L70.6,284.5z"/>
			<path d="M103.8,260.1l-7.4-1.4c-0.6-0.1-1.2,0.1-1.6,0.7L84,276.2c-0.4,0.7-0.3,1.5,0.3,2l4.5,3.6c0.5,0.4,1.1,0.4,1.6,0.2
				l8.8-4.3c0.6-0.3,1.4-0.1,1.8,0.4l0,0c0.5,0.6,0.5,1.6-0.1,2.1l-1.8,1.6c-0.1,0.1-0.3,0.2-0.5,0.3l-9.8,3.6
				c-0.5,0.2-1.1,0.1-1.5-0.3l-7.8-6.4c-0.6-0.5-0.7-1.3-0.3-2l11.7-21.2c0.3-0.5,2.5-0.5,3.1-0.4l8.9,1.2c0.2,0,0.4,0.1,0.6,0.2
				l1.3,0.8c0.6,0.4,0.8,1.1,0.5,1.7l0,0.1C104.9,260,104.4,260.2,103.8,260.1z M106.2,281.7l-1.6,2.7c-0.3,0.5-0.8,0.8-0.1,2.3
				l-0.2,3.1c-2.2-1.7-2.9-5.7-2.7-6.6l1.2-5.2c0.2-1-0.6-2-1.6-1.9l-7.3,0.7c-0.7,0.1-1.3-0.4-1.4-1l0,0c-0.1-0.6,0.2-1.3,0.8-1.5
				l3.4-1.2c0.2-0.1,0.4-0.1,0.5-0.1l8.7,0.1c0.9,0,1.6,0.9,1.5,1.8l-1.1,6.4C106.3,281.3,106.3,281.5,106.2,281.7z"/>
		</g>
	</g>
</g>
<g>
	<defs>
		<rect id="SVGID_23_" x="-45.5" y="188.4" width="15" height="150"/>
	</defs>
	<clipPath id="SVGID_24_">
		<use xlink:href="#SVGID_23_"  style="overflow:visible;"/>
	</clipPath>
	<g class="st13">
		<g>
			<rect x="-105.4" y="188.4" class="st1" width="225" height="150"/>
		</g>
		<g>
			<g>
				<path d="M-102.4,193.2c2.6,35.1,3.3,70.2,2.1,105.4c-0.3,8.6-0.7,17.2-1.2,25.8c-0.3,4.6-0.3,9.3,5.3,10
					c7.9,1.1,16.6,0.1,24.6,0.1c8.6,0,17.3,0,25.9,0c35.2,0,70.4,0,105.6,0c8.6,0,17.3,0,25.9,0c4.3,0,8.6,0,12.9,0
					c4,0,8.4,0.5,12.4-0.1c3.9-0.6,5.8-3.3,5.5-7.1c-0.3-3.7-1.6-7.3-2.3-10.9c-0.9-4.7-1.6-9.5-2-14.2
					c-3.6-36.9,3.7-73.9-0.5-110.7c-0.1-0.8-0.6-1.5-1.5-1.5c-69.8,2.5-139.6,3.5-209.4,3.1c-1.9,0-1.9,3,0,3
					c69.8,0.4,139.7-0.6,209.4-3.1c-0.5-0.5-1-1-1.5-1.5c3.4,30.1-0.7,60.3-0.5,90.4c0.1,7.1,0.4,14.2,1.1,21.2
					c0.3,3.2,0.7,6.4,1.2,9.5c0.6,4.1,2.5,8.6,2.6,12.7c0.2,6.2-3.9,6.3-8.4,6.3c-4,0-8,0-11.9,0c-8.6,0-17.3,0-25.9,0
					c-31.9,0-63.8,0-95.6,0c-15.9,0-31.9,0-47.8,0c-3.3,0-6.6,0-10,0c-4.9,0-10.9,1.3-12.1-5.1c-0.6-3.5,0.5-8.3,0.7-11.9
					c0.2-4.6,0.4-9.3,0.6-13.9c1.3-35.8,0.6-71.6-2.1-107.4C-99.5,191.3-102.5,191.3-102.4,193.2L-102.4,193.2z"/>
			</g>
		</g>
		<g class="st2">
			<path d="M-69.8,283.4l-18.2,1.4l-4.1-6.4l19.6,2l2.9-6.7l-14.7-4.3l-2.8-8.8l25.6-14.7l-6.9,11.2l-13.8,5.1l1.2,4.7l19.4,5.9
				L-69.8,283.4z"/>
			<path d="M-36.1,258l-19.4,0.5L-56,256l14.9-6.2l9.2-1.7L-36.1,258z M-35.6,299.9l-4.8-6.8l-16-1.9l2.7-27.2l2.2-4.5l2.7,0
				l-2.7,22.1l14.5,0.8L-35.6,299.9z M-35.6,275.7l-12.8-3.5l-0.2-2.4l4.5-0.6l10.5-3.9L-35.6,275.7z"/>
			<path d="M-11.1,284.5v6.5l-17.2-6.4l0.3-2.2l3.4-1l5.6,1.4l0.9-0.8l3.1-22.7l2.5-0.2l1.4,4V284.5z M-5.7,258.1l-19.9,0.5
				l-0.5-2.5l15-6l6.2,4.2L-5.7,258.1z"/>
			<path d="M7.8,284.3l-7.5-7.7c-0.8-0.8-0.8-2.1,0-2.8L18.6,256c0.6-0.6,1.6-0.8,2.4-0.3h0c1.2,0.6,1.4,2.3,0.4,3.2L5.6,274
				c-0.8,0.8-0.8,2.1,0,2.9l3.5,3.4c0.5,0.5,1.4,0.7,2.1,0.4l13.2-4.7c1.3-0.5,1.7-2,0.9-3.1l-5.9-8.1c-0.8-1.1-0.3-2.6,1-3.1
				l0.2-0.1c0.8-0.3,1.8,0,2.3,0.7l8.6,11.7c0.8,1.1,0.3,2.6-0.9,3.1L10,284.8C9.2,285.1,8.4,284.9,7.8,284.3z"/>
			<path d="M43.5,284.5h-8.7l4.7-6.3l3-15.4l3.2,0.6L43.5,284.5z M63.1,284.5h-3.9l-4.6-4.2l-12.3-24.6l5.2-2.5l11.8,26.4l2-24.6
				l8-1.7l-3.5,8.8L63.1,284.5z"/>
			<path d="M96.3,260.1l-7.4-1.4c-0.6-0.1-1.2,0.1-1.6,0.7l-10.8,16.8c-0.4,0.7-0.3,1.5,0.3,2l4.5,3.6c0.5,0.4,1.1,0.4,1.6,0.2
				l8.8-4.3c0.6-0.3,1.4-0.1,1.8,0.4l0,0c0.5,0.6,0.5,1.6-0.1,2.1l-1.8,1.6c-0.1,0.1-0.3,0.2-0.5,0.3l-9.8,3.6
				c-0.5,0.2-1.1,0.1-1.5-0.3l-7.8-6.4c-0.6-0.5-0.7-1.3-0.3-2l11.7-21.2c0.3-0.5,2.5-0.5,3.1-0.4l8.9,1.2c0.2,0,0.4,0.1,0.6,0.2
				l1.3,0.8c0.6,0.4,0.8,1.1,0.5,1.7l0,0.1C97.4,260,96.9,260.2,96.3,260.1z M98.7,281.7l-1.6,2.7c-0.3,0.5-0.8,0.8-0.1,2.3
				l-0.2,3.1c-2.2-1.7-2.9-5.7-2.7-6.6l1.2-5.2c0.2-1-0.6-2-1.6-1.9l-7.3,0.7c-0.7,0.1-1.3-0.4-1.4-1l0,0c-0.1-0.6,0.2-1.3,0.8-1.5
				l3.4-1.2c0.2-0.1,0.4-0.1,0.5-0.1l8.7,0.1c0.9,0,1.6,0.9,1.5,1.8l-1.1,6.4C98.8,281.3,98.8,281.5,98.7,281.7z"/>
		</g>
	</g>
</g>
<g>
	<defs>
		<rect id="SVGID_25_" x="-100.8" y="188.4" width="15" height="150"/>
	</defs>
	<clipPath id="SVGID_26_">
		<use xlink:href="#SVGID_25_"  style="overflow:visible;"/>
	</clipPath>
	<g class="st14">
		<g>
			<rect x="-130.8" y="188.4" class="st1" width="225" height="150"/>
		</g>
		<g>
			<g>
				<path d="M-127.8,193.2c2.6,35.1,3.3,70.2,2.1,105.4c-0.3,8.6-0.7,17.2-1.2,25.8c-0.3,4.6-0.3,9.3,5.3,10
					c7.9,1.1,16.6,0.1,24.6,0.1c8.6,0,17.3,0,25.9,0c35.2,0,70.4,0,105.6,0c8.6,0,17.3,0,25.9,0c4.3,0,8.6,0,13,0
					c4,0,8.4,0.5,12.4-0.1c3.9-0.6,5.8-3.3,5.5-7.1c-0.3-3.7-1.6-7.3-2.3-10.9c-0.9-4.7-1.6-9.5-2-14.2
					c-3.6-36.9,3.7-73.9-0.5-110.7c-0.1-0.8-0.6-1.5-1.5-1.5c-69.8,2.5-139.6,3.5-209.4,3.1c-1.9,0-1.9,3,0,3
					c69.8,0.4,139.7-0.6,209.4-3.1c-0.5-0.5-1-1-1.5-1.5c3.4,30.1-0.7,60.3-0.5,90.4c0.1,7.1,0.4,14.2,1.1,21.2
					c0.3,3.2,0.7,6.4,1.2,9.5c0.6,4.1,2.5,8.6,2.6,12.7c0.2,6.2-3.9,6.3-8.4,6.3c-4,0-8,0-11.9,0c-8.6,0-17.3,0-25.9,0
					c-31.9,0-63.8,0-95.6,0c-15.9,0-31.9,0-47.8,0c-3.3,0-6.6,0-10,0c-4.9,0-10.9,1.3-12.1-5.1c-0.6-3.5,0.5-8.3,0.7-11.9
					c0.2-4.6,0.4-9.3,0.6-13.9c1.3-35.8,0.6-71.6-2.1-107.4C-124.9,191.3-127.9,191.3-127.8,193.2L-127.8,193.2z"/>
			</g>
		</g>
		<g class="st2">
			<path d="M-95.3,283.4l-18.2,1.4l-4.1-6.4l19.6,2l2.9-6.7l-14.7-4.3l-2.8-8.8l25.6-14.7l-6.9,11.2l-13.8,5.1l1.2,4.7l19.4,5.9
				L-95.3,283.4z"/>
			<path d="M-61.5,258l-19.4,0.5l-0.5-2.5l14.9-6.2l9.2-1.7L-61.5,258z M-61,299.9l-4.8-6.8l-16-1.9l2.7-27.2l2.2-4.5l2.7,0
				l-2.7,22.1l14.5,0.8L-61,299.9z M-61,275.7l-12.8-3.5l-0.2-2.4l4.5-0.6l10.5-3.9L-61,275.7z"/>
			<path d="M-36.5,284.5v6.5l-17.2-6.4l0.3-2.2l3.4-1l5.6,1.4l0.9-0.8l3.1-22.7l2.5-0.2l1.4,4V284.5z M-31.1,258.1l-19.9,0.5
				l-0.5-2.5l15-6l6.2,4.2L-31.1,258.1z"/>
			<path d="M-17.6,284.3l-7.5-7.7c-0.8-0.8-0.8-2.1,0-2.8L-6.8,256c0.6-0.6,1.6-0.8,2.4-0.3h0c1.2,0.6,1.4,2.3,0.4,3.2L-19.8,274
				c-0.8,0.8-0.8,2.1,0,2.9l3.5,3.4c0.5,0.5,1.4,0.7,2.1,0.4l13.2-4.7c1.3-0.5,1.7-2,0.9-3.1l-5.9-8.1c-0.8-1.1-0.3-2.6,1-3.1
				l0.2-0.1c0.8-0.3,1.8,0,2.3,0.7l8.6,11.7c0.8,1.1,0.3,2.6-0.9,3.1l-20.6,7.6C-16.2,285.1-17,284.9-17.6,284.3z"/>
			<path d="M18.1,284.5H9.4l4.7-6.3l3-15.4l3.2,0.6L18.1,284.5z M37.7,284.5h-3.9l-4.6-4.2l-12.3-24.6l5.2-2.5l11.8,26.4l2-24.6
				l8-1.7l-3.5,8.8L37.7,284.5z"/>
			<path d="M70.9,260.1l-7.4-1.4c-0.6-0.1-1.2,0.1-1.6,0.7l-10.8,16.8c-0.4,0.7-0.3,1.5,0.3,2l4.5,3.6c0.5,0.4,1.1,0.4,1.6,0.2
				l8.8-4.3c0.6-0.3,1.4-0.1,1.8,0.4l0,0c0.5,0.6,0.5,1.6-0.1,2.1l-1.8,1.6c-0.1,0.1-0.3,0.2-0.5,0.3l-9.8,3.6
				c-0.5,0.2-1.1,0.1-1.5-0.3l-7.8-6.4c-0.6-0.5-0.7-1.3-0.3-2L58,255.8c0.3-0.5,2.5-0.5,3.1-0.4l8.9,1.2c0.2,0,0.4,0.1,0.6,0.2
				l1.3,0.8c0.6,0.4,0.8,1.1,0.5,1.7l0,0.1C72,260,71.4,260.2,70.9,260.1z M73.3,281.7l-1.6,2.7c-0.3,0.5-0.8,0.8-0.1,2.3l-0.2,3.1
				c-2.2-1.7-2.9-5.7-2.7-6.6l1.2-5.2c0.2-1-0.6-2-1.6-1.9l-7.3,0.7c-0.7,0.1-1.3-0.4-1.4-1l0,0c-0.1-0.6,0.2-1.3,0.8-1.5l3.4-1.2
				c0.2-0.1,0.4-0.1,0.5-0.1l8.7,0.1c0.9,0,1.6,0.9,1.5,1.8l-1.1,6.4C73.4,281.3,73.4,281.5,73.3,281.7z"/>
		</g>
	</g>
</g>
<g>
	<defs>
		<rect id="SVGID_27_" x="-125" y="180.3" width="15" height="150"/>
	</defs>
	<clipPath id="SVGID_28_">
		<use xlink:href="#SVGID_27_"  style="overflow:visible;"/>
	</clipPath>
	<g class="st15">
		<g>
			<rect x="-140" y="180.3" class="st1" width="225" height="150"/>
		</g>
		<g>
			<g>
				<path d="M-137,185.1c2.6,35.1,3.3,70.2,2.1,105.4c-0.3,8.6-0.7,17.2-1.2,25.8c-0.3,4.6-0.3,9.3,5.3,10.1
					c7.9,1.1,16.6,0.1,24.6,0.1c8.6,0,17.3,0,25.9,0c35.2,0,70.4,0,105.6,0c8.6,0,17.3,0,25.9,0c4.3,0,8.6,0,12.9,0
					c4,0,8.4,0.5,12.4-0.1c3.9-0.6,5.8-3.3,5.5-7.1c-0.3-3.7-1.6-7.3-2.3-10.9c-0.9-4.7-1.6-9.4-2-14.2
					c-3.6-36.9,3.7-73.9-0.5-110.8c-0.1-0.8-0.6-1.5-1.5-1.5c-69.8,2.5-139.6,3.5-209.4,3.1c-1.9,0-1.9,3,0,3
					c69.8,0.4,139.7-0.6,209.4-3.1c-0.5-0.5-1-1-1.5-1.5c3.4,30.1-0.7,60.3-0.5,90.4c0.1,7.1,0.4,14.2,1.1,21.2
					c0.3,3.2,0.7,6.4,1.2,9.5c0.6,4.1,2.5,8.6,2.6,12.7c0.2,6.2-3.9,6.3-8.4,6.3c-4,0-8,0-11.9,0c-8.6,0-17.3,0-25.9,0
					c-31.9,0-63.8,0-95.6,0c-15.9,0-31.9,0-47.8,0c-3.3,0-6.6,0-10,0c-4.9,0-10.9,1.3-12.1-5.1c-0.7-3.5,0.5-8.3,0.7-11.9
					c0.2-4.6,0.4-9.3,0.6-13.9c1.3-35.8,0.6-71.6-2.1-107.4C-134.1,183.2-137.1,183.2-137,185.1L-137,185.1z"/>
			</g>
		</g>
		<g class="st2">
			<path d="M-104.4,275.2l-18.2,1.4l-4.1-6.4l19.6,2l2.9-6.7l-14.7-4.3l-2.8-8.8l25.6-14.7l-6.9,11.2l-13.8,5.1l1.2,4.7l19.4,5.9
				L-104.4,275.2z"/>
			<path d="M-70.7,249.9l-19.4,0.5l-0.5-2.5l14.9-6.2l9.2-1.7L-70.7,249.9z M-70.2,291.7l-4.8-6.8l-16-1.9l2.7-27.2l2.2-4.5l2.7,0
				l-2.7,22.1l14.5,0.8L-70.2,291.7z M-70.2,267.5l-12.8-3.5l-0.2-2.4l4.5-0.6l10.5-3.9L-70.2,267.5z"/>
			<path d="M-45.7,276.3v6.5l-17.2-6.4l0.3-2.2l3.4-1l5.6,1.4l0.9-0.8l3.1-22.7l2.5-0.2l1.4,4V276.3z M-40.2,250l-19.9,0.5l-0.5-2.5
				l15-6l6.2,4.2L-40.2,250z"/>
			<path d="M-26.7,276.2l-7.5-7.7c-0.8-0.8-0.8-2.1,0-2.8l18.2-17.9c0.6-0.6,1.6-0.8,2.4-0.3h0c1.2,0.6,1.4,2.3,0.4,3.2l-15.7,15.1
				c-0.8,0.8-0.8,2.1,0,2.9l3.5,3.4c0.5,0.5,1.4,0.7,2.1,0.4l13.2-4.7c1.3-0.5,1.7-2,0.9-3.1l-5.9-8.1c-0.8-1.1-0.3-2.6,1-3.1
				l0.2-0.1c0.8-0.3,1.8,0,2.3,0.7L-3,266c0.8,1.1,0.3,2.6-0.9,3.1l-20.6,7.6C-25.3,276.9-26.2,276.7-26.7,276.2z"/>
			<path d="M8.9,276.4H0.2l4.7-6.3l3-15.4l3.2,0.6L8.9,276.4z M28.5,276.4h-3.9l-4.6-4.2L7.6,247.6l5.2-2.5l11.8,26.4l2-24.6l8-1.7
				l-3.5,8.8L28.5,276.4z"/>
			<path d="M61.7,252l-7.4-1.4c-0.6-0.1-1.2,0.1-1.6,0.7L41.9,268c-0.4,0.7-0.3,1.5,0.3,2l4.5,3.6c0.5,0.4,1.1,0.4,1.6,0.2l8.8-4.3
				c0.6-0.3,1.4-0.1,1.8,0.4l0,0c0.5,0.6,0.5,1.6-0.1,2.1l-1.8,1.6c-0.1,0.1-0.3,0.2-0.5,0.3l-9.8,3.6c-0.5,0.2-1.1,0.1-1.5-0.3
				l-7.8-6.4c-0.6-0.5-0.7-1.3-0.3-2l11.7-21.2c0.3-0.5,2.5-0.5,3.1-0.4l8.9,1.2c0.2,0,0.4,0.1,0.6,0.2l1.3,0.8
				c0.6,0.4,0.8,1.1,0.5,1.7l0,0.1C62.9,251.8,62.3,252.1,61.7,252z M64.1,273.5l-1.6,2.7c-0.3,0.5-0.8,0.8-0.1,2.3l-0.2,3.1
				c-2.2-1.7-2.9-5.7-2.7-6.6l1.2-5.2c0.2-1-0.6-2-1.6-1.9l-7.3,0.7c-0.7,0.1-1.3-0.4-1.4-1l0,0c-0.1-0.6,0.2-1.3,0.8-1.5l3.4-1.2
				c0.2-0.1,0.4-0.1,0.5-0.1l8.7,0.1c0.9,0,1.6,0.9,1.5,1.8l-1.1,6.4C64.3,273.2,64.2,273.4,64.1,273.5z"/>
		</g>
	</g>
</g>
<g>
	<defs>
		<rect id="SVGID_29_" x="-146.7" y="183" width="15" height="150"/>
	</defs>
	<clipPath id="SVGID_30_">
		<use xlink:href="#SVGID_29_"  style="overflow:visible;"/>
	</clipPath>
	<g class="st16">
		<g>
			<rect x="-146.7" y="183" class="st1" width="225" height="150"/>
		</g>
		<g>
			<g>
				<path d="M-143.7,187.8c2.6,35.1,3.3,70.2,2.1,105.4c-0.3,8.6-0.7,17.2-1.2,25.8c-0.3,4.6-0.3,9.3,5.3,10
					c7.9,1.1,16.6,0.1,24.6,0.1c8.6,0,17.3,0,25.9,0c35.2,0,70.4,0,105.6,0c8.6,0,17.3,0,25.9,0c4.3,0,8.6,0,12.9,0
					c4,0,8.4,0.5,12.4-0.1c3.9-0.6,5.8-3.3,5.5-7.1c-0.3-3.7-1.6-7.3-2.3-10.9c-0.9-4.7-1.6-9.5-2-14.2
					c-3.6-36.9,3.7-73.9-0.5-110.7c-0.1-0.8-0.6-1.5-1.5-1.5c-69.8,2.5-139.6,3.5-209.4,3.1c-1.9,0-1.9,3,0,3
					c69.8,0.4,139.7-0.6,209.4-3.1c-0.5-0.5-1-1-1.5-1.5c3.4,30.1-0.7,60.3-0.5,90.4c0.1,7.1,0.4,14.2,1.1,21.2
					c0.3,3.2,0.7,6.4,1.2,9.5c0.6,4.1,2.5,8.6,2.6,12.7c0.2,6.2-3.9,6.3-8.4,6.3c-4,0-8,0-11.9,0c-8.6,0-17.3,0-25.9,0
					c-31.9,0-63.8,0-95.6,0c-15.9,0-31.9,0-47.8,0c-3.3,0-6.6,0-10,0c-4.9,0-10.9,1.3-12.1-5.1c-0.7-3.5,0.5-8.3,0.7-11.9
					c0.2-4.6,0.4-9.3,0.6-13.9c1.3-35.8,0.6-71.6-2.1-107.4C-140.8,185.9-143.8,185.9-143.7,187.8L-143.7,187.8z"/>
			</g>
		</g>
		<g class="st2">
			<path d="M-111.1,277.9l-18.2,1.4l-4.1-6.4l19.6,2l2.9-6.7l-14.7-4.3l-2.8-8.8l25.6-14.7l-6.9,11.2l-13.8,5.1l1.2,4.7l19.4,5.9
				L-111.1,277.9z"/>
			<path d="M-77.4,252.6l-19.4,0.5l-0.5-2.5l14.9-6.2l9.2-1.7L-77.4,252.6z M-76.9,294.4l-4.8-6.8l-16-1.9l2.7-27.2l2.2-4.5l2.7,0
				l-2.7,22.1l14.5,0.8L-76.9,294.4z M-76.9,270.3l-12.8-3.5l-0.2-2.4l4.5-0.6l10.5-3.9L-76.9,270.3z"/>
			<path d="M-52.4,279v6.5l-17.2-6.4l0.3-2.2l3.4-1l5.6,1.4l0.9-0.8l3.1-22.7l2.5-0.2l1.4,4V279z M-47,252.7l-19.9,0.5l-0.5-2.5
				l15-6l6.2,4.2L-47,252.7z"/>
			<path d="M-33.4,278.9l-7.5-7.7c-0.8-0.8-0.8-2.1,0-2.8l18.2-17.9c0.6-0.6,1.6-0.8,2.4-0.3h0c1.2,0.6,1.4,2.3,0.4,3.2l-15.7,15.1
				c-0.8,0.8-0.8,2.1,0,2.9l3.5,3.4c0.5,0.5,1.4,0.7,2.1,0.4l13.2-4.7c1.3-0.5,1.7-2,0.9-3.1l-5.9-8.1c-0.8-1.1-0.3-2.6,1-3.1
				l0.2-0.1c0.8-0.3,1.8,0,2.3,0.7l8.6,11.7c0.8,1.1,0.3,2.6-0.9,3.1l-20.6,7.6C-32.1,279.7-32.9,279.5-33.4,278.9z"/>
			<path d="M2.2,279.1h-8.7l4.7-6.3l3-15.4l3.2,0.6L2.2,279.1z M21.8,279.1h-3.9l-4.6-4.2L0.9,250.3l5.2-2.5l11.8,26.4l2-24.6l8-1.7
				l-3.5,8.8L21.8,279.1z"/>
			<path d="M55,254.7l-7.4-1.4c-0.6-0.1-1.2,0.1-1.6,0.7l-10.8,16.8c-0.4,0.7-0.3,1.5,0.3,2l4.5,3.6c0.5,0.4,1.1,0.4,1.6,0.2
				l8.8-4.3c0.6-0.3,1.4-0.1,1.8,0.4l0,0c0.5,0.6,0.5,1.6-0.1,2.1l-1.8,1.6c-0.1,0.1-0.3,0.2-0.5,0.3l-9.8,3.6
				c-0.5,0.2-1.1,0.1-1.5-0.3l-7.8-6.4c-0.6-0.5-0.7-1.3-0.3-2l11.7-21.2c0.3-0.5,2.5-0.5,3.1-0.4l8.9,1.2c0.2,0,0.4,0.1,0.6,0.2
				l1.3,0.8c0.6,0.4,0.8,1.1,0.5,1.7l0,0.1C56.1,254.5,55.6,254.8,55,254.7z M57.4,276.2l-1.6,2.7c-0.3,0.5-0.8,0.8-0.1,2.3
				l-0.2,3.1c-2.2-1.7-2.9-5.7-2.7-6.6l1.2-5.2c0.2-1-0.6-2-1.6-1.9l-7.3,0.7c-0.7,0.1-1.3-0.4-1.4-1h0c-0.1-0.6,0.2-1.3,0.8-1.5
				l3.4-1.2c0.2-0.1,0.4-0.1,0.5-0.1l8.7,0.1c0.9,0,1.6,0.9,1.5,1.8l-1.1,6.4C57.6,275.9,57.5,276.1,57.4,276.2z"/>
		</g>
	</g>
</g>
</svg>
