<?xml version="1.0" encoding="utf-8"?>
<!-- Generator: Adobe Illustrator 23.0.0, SVG Export Plug-In . SVG Version: 6.00 Build 0)  -->
<svg version="1.1" id="Layer_1" xmlns="http://www.w3.org/2000/svg" xmlns:xlink="http://www.w3.org/1999/xlink" x="0px" y="0px"
	 viewBox="0 0 225 150" style="enable-background:new 0 0 225 150;" xml:space="preserve">
<style type="text/css">
	.st0{fill:#FFFFFF;}
	.st1{font-family:'Humbleboysdemo';}
	.st2{font-size:54.6491px;}
	.st3{fill:#FFFFFF;stroke:#FF1400;stroke-miterlimit:10;}
	.st4{clip-path:url(#SVGID_2_);}
	.st5{clip-path:url(#SVGID_4_);}
	.st6{clip-path:url(#SVGID_6_);}
	.st7{clip-path:url(#SVGID_8_);}
	.st8{clip-path:url(#SVGID_10_);}
	.st9{clip-path:url(#SVGID_12_);}
	.st10{clip-path:url(#SVGID_14_);}
	.st11{clip-path:url(#SVGID_16_);}
	.st12{clip-path:url(#SVGID_18_);}
	.st13{clip-path:url(#SVGID_20_);}
	.st14{clip-path:url(#SVGID_22_);}
	.st15{clip-path:url(#SVGID_24_);}
	.st16{clip-path:url(#SVGID_26_);}
	.st17{clip-path:url(#SVGID_28_);}
	.st18{clip-path:url(#SVGID_30_);}
</style>
<g>
	<g>
		<rect class="st0" width="225" height="150"/>
	</g>
	<g>
		<g>
			<path d="M3.4,6.5C3.7,31.6,4,56.8,4.2,81.9c0.1,12.6,0.3,25.2,0.4,37.7c0.1,6,0.1,11.9,0.2,17.9c0,3.3-1.1,8.4,2.1,10.6
				c3.1,2.1,9,0.8,12.5,0.7c6.6-0.2,13.2-0.3,19.8-0.4c12.6-0.3,25.1-0.5,37.7-0.7c24.8-0.4,49.6-0.6,74.4-0.7
				c12.6,0,25.1-0.1,37.7,0c5.9,0,11.9,0,17.9,0.1c4.2,0,10.5,1.3,14.4-0.4c2.8-1.2,3.1-3.8,2.8-6.5c-0.6-5.8-2.1-11.5-2.6-17.3
				c-1.1-11.6-1-23.3-0.6-35c0.9-23.3,3.2-46.8,0.6-70.2c-0.5-4.2-0.5-9.6-2.3-13.5c-1.6-3.4-4.4-3.2-7.8-3
				C199.2,2,187,2.9,174.8,3.4C119.1,5.7,63.2,4.2,7.6,4c-1.9,0-1.9,3,0,3c45.6,0.2,91.2,1,136.8,0.3c11.5-0.2,22.9-0.5,34.4-1
				c5.2-0.2,10.5-0.5,15.7-0.8c5.5-0.3,11.6-1.6,17-1.2c4.7,0.3,5.3,1.7,6,5.7c0.5,2.9,0.9,5.8,1.2,8.7c0.6,5.5,0.9,11,1,16.5
				c0.3,10.8-0.2,21.6-0.7,32.3c-1.1,21-2.4,42.1,0.5,63c0.3,2.4,0.8,4.8,1.2,7.3c0.2,0.9,0.9,3.1,0.6,3.8c-0.8,1.9-3.9,2.4-5.4,2.6
				c-5.8,0.7-12-0.1-17.9-0.1c-11.6,0-23.1-0.1-34.7,0c-46,0.1-91.9,0.6-137.9,1.7c-3,0.1-6,0.1-8.9,0.2c-4,0.1-7.8,1.4-8.6-3.4
				c-1-5.9-0.1-12.8-0.2-18.9c-0.1-12.9-0.3-25.8-0.4-38.7C7,58.8,6.7,32.6,6.4,6.5C6.4,4.5,3.4,4.5,3.4,6.5L3.4,6.5z"/>
		</g>
	</g>
	<text transform="matrix(0.8849 0 0 1 25.8511 81.4805)" class="st1 st2">SEJONG</text>
</g>
<rect class="st3" width="15" height="150"/>
<rect x="15" y="0" class="st3" width="15" height="150"/>
<rect x="30" y="0" class="st3" width="15" height="150"/>
<rect x="45" y="0" class="st3" width="15" height="150"/>
<rect x="60" y="0" class="st3" width="15" height="150"/>
<rect x="75" y="0" class="st3" width="15" height="150"/>
<rect x="90" y="0" class="st3" width="15" height="150"/>
<rect x="105" y="0" class="st3" width="15" height="150"/>
<rect x="120" y="0" class="st3" width="15" height="150"/>
<rect x="135" y="0" class="st3" width="15" height="150"/>
<rect x="150" y="0" class="st3" width="15" height="150"/>
<rect x="165" y="0" class="st3" width="15" height="150"/>
<rect x="180" y="0" class="st3" width="15" height="150"/>
<rect x="195" y="0" class="st3" width="15" height="150"/>
<rect x="210" y="0" class="st3" width="15" height="150"/>
<g>
	<defs>
		<rect id="SVGID_1_" x="-325.8" y="196.8" width="15" height="150"/>
	</defs>
	<clipPath id="SVGID_2_">
		<use xlink:href="#SVGID_1_"  style="overflow:visible;"/>
	</clipPath>
	<g class="st4">
		<g>
			<rect x="-325.8" y="196.8" class="st0" width="225" height="150"/>
		</g>
		<g>
			<g>
				<path d="M-322.4,203.2c0.3,25.2,0.5,50.3,0.8,75.5c0.1,12.6,0.3,25.2,0.4,37.7c0.1,6,0.1,11.9,0.2,17.9c0,3.3-1.1,8.4,2.1,10.6
					c3.1,2.1,9,0.8,12.5,0.7c6.6-0.2,13.2-0.3,19.8-0.4c12.6-0.3,25.1-0.5,37.7-0.7c24.8-0.4,49.6-0.6,74.4-0.7
					c12.6,0,25.1-0.1,37.7,0c5.9,0,11.9,0,17.9,0.1c4.2,0,10.5,1.3,14.4-0.4c2.8-1.2,3.1-3.8,2.8-6.5c-0.6-5.8-2.1-11.5-2.6-17.3
					c-1.1-11.6-1-23.3-0.6-35c0.9-23.4,3.2-46.8,0.6-70.2c-0.5-4.2-0.5-9.6-2.3-13.5c-1.6-3.4-4.4-3.2-7.8-3
					c-12.2,0.8-24.4,1.8-36.7,2.3c-55.6,2.3-111.5,0.8-167.2,0.5c-1.9,0-1.9,3,0,3c45.6,0.2,91.2,1,136.8,0.3
					c11.5-0.2,22.9-0.5,34.4-1c5.2-0.2,10.5-0.5,15.7-0.8c5.5-0.3,11.6-1.6,17-1.2c4.7,0.3,5.3,1.7,6,5.7c0.5,2.9,0.9,5.8,1.2,8.7
					c0.6,5.5,0.9,11,1,16.5c0.3,10.8-0.2,21.6-0.7,32.3c-1.1,21-2.4,42.1,0.5,63c0.3,2.4,0.8,4.8,1.2,7.3c0.2,0.9,0.9,3.1,0.6,3.8
					c-0.8,1.9-3.9,2.4-5.4,2.6c-5.8,0.7-12-0.1-17.9-0.1c-11.6,0-23.1-0.1-34.7,0c-46,0.1-91.9,0.6-137.9,1.7
					c-3,0.1-5.9,0.1-8.9,0.2c-4,0.1-7.8,1.4-8.6-3.4c-1-5.9-0.1-12.8-0.2-18.9c-0.1-12.9-0.3-25.8-0.4-38.7
					c-0.3-26.1-0.5-52.3-0.8-78.4C-319.4,201.3-322.4,201.3-322.4,203.2L-322.4,203.2z"/>
			</g>
		</g>
		<text transform="matrix(0.8849 0 0 1 -299.968 278.2464)" class="st1 st2">SEJONG</text>
	</g>
</g>
<g>
	<defs>
		<rect id="SVGID_3_" x="-264.5" y="196.8" width="15" height="150"/>
	</defs>
	<clipPath id="SVGID_4_">
		<use xlink:href="#SVGID_3_"  style="overflow:visible;"/>
	</clipPath>
	<g class="st5">
		<g>
			<rect x="-279.5" y="196.8" class="st0" width="225" height="150"/>
		</g>
		<g>
			<g>
				<path d="M-276.1,203.2c0.3,25.2,0.5,50.3,0.8,75.5c0.1,12.6,0.3,25.2,0.4,37.7c0.1,6,0.1,11.9,0.2,17.9c0,3.3-1.1,8.4,2.1,10.6
					c3.2,2.1,9,0.8,12.5,0.7c6.6-0.2,13.2-0.3,19.8-0.4c12.6-0.3,25.1-0.5,37.7-0.7c24.8-0.4,49.6-0.6,74.4-0.7
					c12.6,0,25.1-0.1,37.7,0c5.9,0,11.9,0,17.9,0.1c4.2,0,10.5,1.3,14.4-0.4c2.8-1.2,3.1-3.8,2.8-6.5c-0.6-5.8-2.1-11.5-2.6-17.3
					c-1.1-11.6-1-23.3-0.6-35c0.9-23.4,3.2-46.8,0.6-70.2c-0.5-4.2-0.5-9.6-2.3-13.5c-1.6-3.4-4.4-3.2-7.8-3
					c-12.2,0.8-24.4,1.8-36.7,2.3c-55.6,2.3-111.5,0.8-167.2,0.5c-1.9,0-1.9,3,0,3c45.6,0.2,91.2,1,136.8,0.3
					c11.5-0.2,22.9-0.5,34.4-1c5.2-0.2,10.5-0.5,15.7-0.8c5.5-0.3,11.6-1.6,17-1.2c4.7,0.3,5.3,1.7,6,5.7c0.5,2.9,0.9,5.8,1.2,8.7
					c0.6,5.5,0.9,11,1,16.5c0.3,10.8-0.2,21.6-0.7,32.3c-1.1,21-2.4,42.1,0.5,63c0.3,2.4,0.8,4.8,1.2,7.3c0.2,0.9,0.9,3.1,0.6,3.8
					c-0.8,1.9-3.9,2.4-5.4,2.6c-5.8,0.7-12-0.1-17.9-0.1c-11.6,0-23.1-0.1-34.7,0c-46,0.1-91.9,0.6-137.9,1.7
					c-3,0.1-5.9,0.1-8.9,0.2c-4,0.1-7.8,1.4-8.6-3.4c-1-5.9-0.1-12.8-0.2-18.9c-0.1-12.9-0.3-25.8-0.4-38.7
					c-0.3-26.1-0.5-52.3-0.8-78.4C-273.1,201.3-276.1,201.3-276.1,203.2L-276.1,203.2z"/>
			</g>
		</g>
		<text transform="matrix(0.8849 0 0 1 -253.6914 278.2465)" class="st1 st2">SEJONG</text>
	</g>
</g>
<g>
	<defs>
		<rect id="SVGID_5_" x="-211.1" y="196.8" width="15" height="150"/>
	</defs>
	<clipPath id="SVGID_6_">
		<use xlink:href="#SVGID_5_"  style="overflow:visible;"/>
	</clipPath>
	<g class="st6">
		<g>
			<rect x="-241.1" y="196.8" class="st0" width="225" height="150"/>
		</g>
		<g>
			<g>
				<path d="M-237.7,203.2c0.3,25.2,0.5,50.3,0.8,75.5c0.1,12.6,0.3,25.2,0.4,37.7c0.1,6,0.1,11.9,0.2,17.9c0,3.3-1.1,8.4,2.1,10.6
					c3.2,2.1,9,0.8,12.5,0.7c6.6-0.2,13.2-0.3,19.8-0.4c12.6-0.3,25.1-0.5,37.7-0.7c24.8-0.4,49.6-0.6,74.4-0.7
					c12.6,0,25.1-0.1,37.7,0c5.9,0,11.9,0,17.9,0.1c4.2,0,10.5,1.3,14.4-0.4c2.8-1.2,3.1-3.8,2.8-6.5c-0.6-5.8-2.1-11.5-2.6-17.3
					c-1.1-11.6-1-23.3-0.6-35c0.9-23.4,3.2-46.8,0.6-70.2c-0.5-4.2-0.5-9.6-2.3-13.5c-1.6-3.4-4.4-3.2-7.8-3
					c-12.2,0.8-24.4,1.8-36.7,2.3c-55.7,2.3-111.5,0.8-167.2,0.5c-1.9,0-1.9,3,0,3c45.6,0.2,91.2,1,136.8,0.3
					c11.5-0.2,22.9-0.5,34.4-1c5.2-0.2,10.5-0.5,15.7-0.8c5.5-0.3,11.6-1.6,17-1.2c4.7,0.3,5.3,1.7,6,5.7c0.5,2.9,0.9,5.8,1.2,8.7
					c0.6,5.5,0.9,11,1,16.5c0.3,10.8-0.2,21.6-0.7,32.3c-1.1,21-2.4,42.1,0.5,63c0.3,2.4,0.8,4.8,1.2,7.3c0.2,0.9,0.9,3.1,0.6,3.8
					c-0.8,1.9-3.9,2.4-5.4,2.6c-5.8,0.7-12-0.1-17.9-0.1c-11.6,0-23.1-0.1-34.7,0c-46,0.1-91.9,0.6-137.9,1.7
					c-3,0.1-5.9,0.1-8.9,0.2c-4,0.1-7.8,1.4-8.6-3.4c-1-5.9-0.1-12.8-0.2-18.9c-0.1-12.9-0.3-25.8-0.4-38.7
					c-0.3-26.1-0.5-52.3-0.8-78.4C-234.7,201.3-237.7,201.3-237.7,203.2L-237.7,203.2z"/>
			</g>
		</g>
		<text transform="matrix(0.8849 0 0 1 -215.234 278.2465)" class="st1 st2">SEJONG</text>
	</g>
</g>
<g>
	<defs>
		<rect id="SVGID_7_" x="-154.2" y="196.8" width="15" height="150"/>
	</defs>
	<clipPath id="SVGID_8_">
		<use xlink:href="#SVGID_7_"  style="overflow:visible;"/>
	</clipPath>
	<g class="st7">
		<g>
			<rect x="-199.2" y="196.8" class="st0" width="225" height="150"/>
		</g>
		<g>
			<g>
				<path d="M-195.8,203.2c0.3,25.2,0.5,50.3,0.8,75.5c0.1,12.6,0.3,25.2,0.4,37.7c0.1,6,0.1,11.9,0.2,17.9c0,3.3-1.1,8.4,2.1,10.6
					c3.2,2.1,9,0.8,12.5,0.7c6.6-0.2,13.2-0.3,19.8-0.4c12.6-0.3,25.1-0.5,37.7-0.7c24.8-0.4,49.6-0.6,74.4-0.7
					c12.6,0,25.1-0.1,37.7,0c5.9,0,11.9,0,17.9,0.1c4.2,0,10.5,1.3,14.4-0.4c2.8-1.2,3.1-3.8,2.8-6.5c-0.6-5.8-2.1-11.5-2.6-17.3
					c-1.1-11.6-1-23.3-0.6-35c0.9-23.4,3.2-46.8,0.6-70.2c-0.5-4.2-0.5-9.6-2.3-13.5c-1.6-3.4-4.4-3.2-7.8-3
					c-12.2,0.8-24.4,1.8-36.7,2.3c-55.7,2.3-111.5,0.8-167.2,0.5c-1.9,0-1.9,3,0,3c45.6,0.2,91.2,1,136.8,0.3
					c11.5-0.2,22.9-0.5,34.4-1c5.2-0.2,10.5-0.5,15.7-0.8c5.5-0.3,11.6-1.6,17-1.2c4.7,0.3,5.3,1.7,6,5.7c0.5,2.9,0.9,5.8,1.2,8.7
					c0.6,5.5,0.9,11,1,16.5c0.3,10.8-0.2,21.6-0.7,32.3c-1.1,21-2.4,42.1,0.5,63c0.3,2.4,0.8,4.8,1.2,7.3c0.2,0.9,0.9,3.1,0.6,3.8
					c-0.8,1.9-3.9,2.4-5.4,2.6c-5.8,0.7-12-0.1-17.9-0.1c-11.6,0-23.1-0.1-34.7,0c-46,0.1-91.9,0.6-137.9,1.7c-3,0.1-6,0.1-8.9,0.2
					c-4,0.1-7.8,1.4-8.6-3.4c-1-5.9-0.1-12.8-0.2-18.9c-0.1-12.9-0.3-25.8-0.4-38.7c-0.3-26.1-0.5-52.3-0.8-78.4
					C-192.8,201.3-195.8,201.3-195.8,203.2L-195.8,203.2z"/>
			</g>
		</g>
		<text transform="matrix(0.8849 0 0 1 -173.3936 278.2465)" class="st1 st2">SEJONG</text>
	</g>
</g>
<g>
	<defs>
		<rect id="SVGID_9_" x="-100.8" y="196.8" width="15" height="150"/>
	</defs>
	<clipPath id="SVGID_10_">
		<use xlink:href="#SVGID_9_"  style="overflow:visible;"/>
	</clipPath>
	<g class="st8">
		<g>
			<rect x="-160.8" y="196.8" class="st0" width="225" height="150"/>
		</g>
		<g>
			<g>
				<path d="M-157.4,203.2c0.3,25.2,0.5,50.3,0.8,75.5c0.1,12.6,0.3,25.2,0.4,37.7c0.1,6,0.1,11.9,0.2,17.9c0,3.3-1.1,8.4,2.1,10.6
					c3.1,2.1,9,0.8,12.5,0.7c6.6-0.2,13.2-0.3,19.8-0.4c12.6-0.3,25.1-0.5,37.7-0.7c24.8-0.4,49.6-0.6,74.4-0.7
					c12.6,0,25.1-0.1,37.7,0c5.9,0,11.9,0,17.9,0.1c4.2,0,10.5,1.3,14.4-0.4c2.8-1.2,3.1-3.8,2.8-6.5c-0.6-5.8-2.1-11.5-2.6-17.3
					c-1.1-11.6-1-23.3-0.6-35c0.9-23.4,3.2-46.8,0.6-70.2c-0.5-4.2-0.5-9.6-2.3-13.5c-1.6-3.4-4.4-3.2-7.8-3
					c-12.2,0.8-24.4,1.8-36.7,2.3c-55.7,2.3-111.5,0.8-167.2,0.5c-1.9,0-1.9,3,0,3c45.6,0.2,91.2,1,136.8,0.3
					c11.5-0.2,22.9-0.5,34.4-1c5.2-0.2,10.5-0.5,15.7-0.8c5.5-0.3,11.6-1.6,17-1.2c4.7,0.3,5.3,1.7,6,5.7c0.5,2.9,0.9,5.8,1.2,8.7
					c0.6,5.5,0.9,11,1,16.5c0.3,10.8-0.2,21.6-0.7,32.3c-1.1,21-2.4,42.1,0.5,63c0.3,2.4,0.8,4.8,1.2,7.3c0.2,0.9,0.9,3.1,0.6,3.8
					c-0.8,1.9-3.9,2.4-5.4,2.6c-5.8,0.7-12-0.1-17.9-0.1c-11.6,0-23.1-0.1-34.7,0c-46,0.1-91.9,0.6-137.9,1.7
					c-3,0.1-5.9,0.1-8.9,0.2c-4,0.1-7.8,1.4-8.6-3.4c-1-5.9-0.1-12.8-0.2-18.9c-0.1-12.9-0.3-25.8-0.4-38.7
					c-0.3-26.1-0.5-52.3-0.8-78.4C-154.4,201.3-157.4,201.3-157.4,203.2L-157.4,203.2z"/>
			</g>
		</g>
		<text transform="matrix(0.8849 0 0 1 -134.9361 278.2465)" class="st1 st2">SEJONG</text>
	</g>
</g>
<g>
	<defs>
		<rect id="SVGID_11_" x="-56.2" y="210.4" width="15" height="150"/>
	</defs>
	<clipPath id="SVGID_12_">
		<use xlink:href="#SVGID_11_"  style="overflow:visible;"/>
	</clipPath>
	<g class="st9">
		<g>
			<rect x="-131.2" y="210.4" class="st0" width="225" height="150"/>
		</g>
		<g>
			<g>
				<path d="M-127.8,216.9c0.3,25.2,0.5,50.3,0.8,75.5c0.1,12.6,0.3,25.2,0.4,37.7c0.1,6,0.1,11.9,0.2,17.9c0,3.3-1.1,8.4,2.1,10.6
					c3.2,2.1,9,0.8,12.5,0.7c6.6-0.2,13.2-0.3,19.8-0.4c12.6-0.3,25.1-0.5,37.7-0.7c24.8-0.4,49.6-0.6,74.4-0.7
					c12.6,0,25.1-0.1,37.7,0c5.9,0,11.9,0,17.9,0.1c4.2,0,10.5,1.3,14.4-0.4c2.8-1.2,3.1-3.8,2.8-6.5c-0.6-5.8-2.1-11.5-2.6-17.3
					c-1.1-11.6-1-23.3-0.6-35c0.9-23.4,3.2-46.8,0.6-70.2c-0.5-4.2-0.5-9.6-2.3-13.5c-1.6-3.4-4.4-3.2-7.8-3
					c-12.2,0.8-24.4,1.8-36.7,2.3c-55.7,2.3-111.5,0.8-167.2,0.5c-1.9,0-1.9,3,0,3c45.6,0.2,91.2,1,136.8,0.3
					c11.5-0.2,22.9-0.5,34.4-1c5.2-0.2,10.5-0.5,15.7-0.8c5.5-0.3,11.6-1.6,17-1.2c4.7,0.3,5.3,1.7,6,5.7c0.5,2.9,0.9,5.8,1.2,8.7
					c0.6,5.5,0.9,11,1,16.5c0.3,10.8-0.2,21.6-0.7,32.3c-1.1,21-2.4,42.1,0.5,63c0.3,2.4,0.8,4.8,1.2,7.3c0.2,0.9,0.9,3.1,0.6,3.8
					c-0.8,1.9-3.9,2.4-5.4,2.6c-5.8,0.7-12-0.1-17.9-0.1c-11.6,0-23.1-0.1-34.7,0c-46,0.1-91.9,0.6-137.9,1.7c-3,0.1-6,0.1-8.9,0.2
					c-4,0.1-7.8,1.4-8.6-3.4c-1-5.9-0.1-12.8-0.2-18.9c-0.1-12.9-0.3-25.8-0.4-38.7c-0.3-26.1-0.5-52.3-0.8-78.4
					C-124.8,215-127.8,215-127.8,216.9L-127.8,216.9z"/>
			</g>
		</g>
		<text transform="matrix(0.8849 0 0 1 -105.351 291.9061)" class="st1 st2">SEJONG</text>
	</g>
</g>
<g>
	<defs>
		<rect id="SVGID_13_" x="-7.5" y="210.4" width="15" height="150"/>
	</defs>
	<clipPath id="SVGID_14_">
		<use xlink:href="#SVGID_13_"  style="overflow:visible;"/>
	</clipPath>
	<g class="st10">
		<g>
			<rect x="-97.5" y="210.4" class="st0" width="225" height="150"/>
		</g>
		<g>
			<g>
				<path d="M-94.1,216.9c0.3,25.2,0.5,50.3,0.8,75.5c0.1,12.6,0.3,25.2,0.4,37.7c0.1,6,0.1,11.9,0.2,17.9c0,3.3-1.1,8.4,2.1,10.6
					c3.1,2.1,9,0.8,12.5,0.7c6.6-0.2,13.2-0.3,19.8-0.4c12.6-0.3,25.1-0.5,37.7-0.7c24.8-0.4,49.6-0.6,74.4-0.7
					c12.6,0,25.1-0.1,37.7,0c5.9,0,11.9,0,17.9,0.1c4.2,0,10.5,1.3,14.4-0.4c2.8-1.2,3.1-3.8,2.8-6.5c-0.6-5.8-2.1-11.5-2.6-17.3
					c-1.1-11.6-1-23.3-0.6-35c0.9-23.4,3.2-46.8,0.6-70.2c-0.5-4.2-0.5-9.6-2.3-13.5c-1.6-3.4-4.4-3.2-7.8-3
					c-12.2,0.8-24.4,1.8-36.7,2.3c-55.7,2.3-111.5,0.8-167.2,0.5c-1.9,0-1.9,3,0,3c45.6,0.2,91.2,1,136.8,0.3
					c11.5-0.2,22.9-0.5,34.4-1c5.2-0.2,10.5-0.5,15.7-0.8c5.5-0.3,11.6-1.6,17-1.2c4.7,0.3,5.3,1.7,6,5.7c0.5,2.9,0.9,5.8,1.2,8.7
					c0.6,5.5,0.9,11,1,16.5c0.3,10.8-0.2,21.6-0.7,32.3c-1.1,21-2.4,42.1,0.5,63c0.3,2.4,0.8,4.8,1.2,7.3c0.2,0.9,0.9,3.1,0.6,3.8
					c-0.8,1.9-3.9,2.4-5.4,2.6c-5.8,0.7-12-0.1-17.9-0.1c-11.6,0-23.1-0.1-34.7,0c-46,0.1-91.9,0.6-137.9,1.7
					c-3,0.1-5.9,0.1-8.9,0.2c-4,0.1-7.8,1.4-8.6-3.4c-1-5.9-0.1-12.8-0.2-18.9c-0.1-12.9-0.3-25.8-0.4-38.7
					c-0.3-26.1-0.5-52.3-0.8-78.4C-91.1,215-94.1,215-94.1,216.9L-94.1,216.9z"/>
			</g>
		</g>
		<text transform="matrix(0.8849 0 0 1 -71.6489 291.9061)" class="st1 st2">SEJONG</text>
	</g>
</g>
<g>
	<defs>
		<rect id="SVGID_15_" x="45" y="210.4" width="15" height="150"/>
	</defs>
	<clipPath id="SVGID_16_">
		<use xlink:href="#SVGID_15_"  style="overflow:visible;"/>
	</clipPath>
	<g class="st11">
		<g>
			<rect x="-60" y="210.4" class="st0" width="225" height="150"/>
		</g>
		<g>
			<g>
				<path d="M-56.6,216.9c0.3,25.2,0.5,50.3,0.8,75.5c0.1,12.6,0.3,25.2,0.4,37.7c0.1,6,0.1,11.9,0.2,17.9c0,3.3-1.1,8.4,2.1,10.6
					c3.1,2.1,9,0.8,12.5,0.7c6.6-0.2,13.2-0.3,19.8-0.4c12.6-0.3,25.1-0.5,37.7-0.7c24.8-0.4,49.6-0.6,74.4-0.7
					c12.6,0,25.1-0.1,37.7,0c5.9,0,11.9,0,17.9,0.1c4.2,0,10.5,1.3,14.4-0.4c2.8-1.2,3.1-3.8,2.8-6.5c-0.6-5.8-2.1-11.5-2.6-17.3
					c-1.1-11.6-1-23.3-0.6-35c0.9-23.4,3.2-46.8,0.6-70.2c-0.5-4.2-0.5-9.6-2.3-13.5c-1.6-3.4-4.4-3.2-7.8-3
					c-12.2,0.8-24.4,1.8-36.7,2.3c-55.7,2.3-111.5,0.8-167.2,0.5c-1.9,0-1.9,3,0,3c45.6,0.2,91.2,1,136.8,0.3
					c11.5-0.2,22.9-0.5,34.4-1c5.2-0.2,10.5-0.5,15.7-0.8c5.5-0.3,11.6-1.6,17-1.2c4.7,0.3,5.3,1.7,6,5.7c0.5,2.9,0.9,5.8,1.2,8.7
					c0.6,5.5,0.9,11,1,16.5c0.3,10.8-0.2,21.6-0.7,32.3c-1.1,21-2.4,42.1,0.5,63c0.3,2.4,0.8,4.8,1.2,7.3c0.2,0.9,0.9,3.1,0.6,3.8
					c-0.8,1.9-3.9,2.4-5.4,2.6c-5.8,0.7-12-0.1-17.9-0.1c-11.6,0-23.1-0.1-34.7,0c-46,0.1-91.9,0.6-137.9,1.7c-3,0.1-6,0.1-8.9,0.2
					c-4,0.1-7.8,1.4-8.6-3.4c-1-5.9-0.1-12.8-0.2-18.9c-0.1-12.9-0.3-25.8-0.4-38.7c-0.3-26.1-0.5-52.3-0.8-78.4
					C-53.6,215-56.6,215-56.6,216.9L-56.6,216.9z"/>
			</g>
		</g>
		<text transform="matrix(0.8849 0 0 1 -34.1489 291.9061)" class="st1 st2">SEJONG</text>
	</g>
</g>
<g>
	<defs>
		<rect id="SVGID_17_" x="97.5" y="210.4" width="15" height="150"/>
	</defs>
	<clipPath id="SVGID_18_">
		<use xlink:href="#SVGID_17_"  style="overflow:visible;"/>
	</clipPath>
	<g class="st12">
		<g>
			<rect x="-22.5" y="210.4" class="st0" width="225" height="150"/>
		</g>
		<g>
			<g>
				<path d="M-19.1,216.9c0.3,25.2,0.5,50.3,0.8,75.5c0.1,12.6,0.3,25.2,0.4,37.7c0.1,6,0.1,11.9,0.2,17.9c0,3.3-1.1,8.4,2.1,10.6
					c3.1,2.1,9,0.8,12.5,0.7c6.6-0.2,13.2-0.3,19.8-0.4c12.6-0.3,25.1-0.5,37.7-0.7c24.8-0.4,49.6-0.6,74.4-0.7
					c12.6,0,25.1-0.1,37.7,0c5.9,0,11.9,0,17.9,0.1c4.2,0,10.5,1.3,14.4-0.4c2.8-1.2,3.1-3.8,2.8-6.5c-0.6-5.8-2.1-11.5-2.6-17.3
					c-1.1-11.6-1-23.3-0.6-35c0.9-23.4,3.2-46.8,0.6-70.2c-0.5-4.2-0.5-9.6-2.3-13.5c-1.6-3.4-4.4-3.2-7.8-3
					c-12.2,0.8-24.4,1.8-36.7,2.3c-55.7,2.3-111.5,0.8-167.2,0.5c-1.9,0-1.9,3,0,3c45.6,0.2,91.2,1,136.8,0.3
					c11.5-0.2,22.9-0.5,34.4-1c5.2-0.2,10.5-0.5,15.7-0.8c5.5-0.3,11.6-1.6,17-1.2c4.7,0.3,5.3,1.7,6,5.7c0.5,2.9,0.9,5.8,1.2,8.7
					c0.6,5.5,0.9,11,1,16.5c0.3,10.8-0.2,21.6-0.7,32.3c-1.1,21-2.4,42.1,0.5,63c0.3,2.4,0.8,4.8,1.2,7.3c0.2,0.9,0.9,3.1,0.6,3.8
					c-0.8,1.9-3.9,2.4-5.4,2.6c-5.8,0.7-12-0.1-17.9-0.1c-11.6,0-23.1-0.1-34.7,0c-46,0.1-91.9,0.6-137.9,1.7c-3,0.1-6,0.1-8.9,0.2
					c-4,0.1-7.8,1.4-8.6-3.4c-1-5.9-0.1-12.8-0.2-18.9c-0.1-12.9-0.3-25.8-0.4-38.7c-0.3-26.1-0.5-52.3-0.8-78.4
					C-16.1,215-19.1,215-19.1,216.9L-19.1,216.9z"/>
			</g>
		</g>
		<text transform="matrix(0.8849 0 0 1 3.3511 291.9061)" class="st1 st2">SEJONG</text>
	</g>
</g>
<g>
	<defs>
		<rect id="SVGID_19_" x="165" y="210.4" width="15" height="150"/>
	</defs>
	<clipPath id="SVGID_20_">
		<use xlink:href="#SVGID_19_"  style="overflow:visible;"/>
	</clipPath>
	<g class="st13">
		<g>
			<rect x="30" y="210.4" class="st0" width="225" height="150"/>
		</g>
		<g>
			<g>
				<path d="M33.4,216.9c0.3,25.2,0.5,50.3,0.8,75.5c0.1,12.6,0.3,25.2,0.4,37.7c0.1,6,0.1,11.9,0.2,17.9c0,3.3-1.1,8.4,2.1,10.6
					c3.1,2.1,9,0.8,12.5,0.7c6.6-0.2,13.2-0.3,19.8-0.4c12.6-0.3,25.1-0.5,37.7-0.7c24.8-0.4,49.6-0.6,74.4-0.7
					c12.6,0,25.1-0.1,37.7,0c5.9,0,11.9,0,17.9,0.1c4.2,0,10.5,1.3,14.4-0.4c2.8-1.2,3.1-3.8,2.8-6.5c-0.6-5.8-2.1-11.5-2.6-17.3
					c-1.1-11.6-1-23.3-0.6-35c0.9-23.4,3.2-46.8,0.6-70.2c-0.5-4.2-0.5-9.6-2.3-13.5c-1.6-3.4-4.4-3.2-7.8-3
					c-12.2,0.8-24.4,1.8-36.7,2.3c-55.6,2.3-111.5,0.8-167.2,0.5c-1.9,0-1.9,3,0,3c45.6,0.2,91.2,1,136.8,0.3
					c11.5-0.2,22.9-0.5,34.4-1c5.2-0.2,10.5-0.5,15.7-0.8c5.5-0.3,11.6-1.6,17-1.2c4.7,0.3,5.3,1.7,6,5.7c0.5,2.9,0.9,5.8,1.2,8.7
					c0.6,5.5,0.9,11,1,16.5c0.3,10.8-0.2,21.6-0.7,32.3c-1.1,21-2.4,42.1,0.5,63c0.3,2.4,0.8,4.8,1.2,7.3c0.2,0.9,0.9,3.1,0.6,3.8
					c-0.8,1.9-3.9,2.4-5.4,2.6c-5.8,0.7-12-0.1-17.9-0.1c-11.6,0-23.1-0.1-34.7,0c-46,0.1-91.9,0.6-137.9,1.7c-3,0.1-6,0.1-8.9,0.2
					c-4,0.1-7.8,1.4-8.6-3.4c-1-5.9-0.1-12.8-0.2-18.9c-0.1-12.9-0.3-25.8-0.4-38.7c-0.3-26.1-0.5-52.3-0.8-78.4
					C36.4,215,33.4,215,33.4,216.9L33.4,216.9z"/>
			</g>
		</g>
		<text transform="matrix(0.8849 0 0 1 55.8511 291.9061)" class="st1 st2">SEJONG</text>
	</g>
</g>
<g>
	<defs>
		<rect id="SVGID_21_" x="217.5" y="196.8" width="15" height="150"/>
	</defs>
	<clipPath id="SVGID_22_">
		<use xlink:href="#SVGID_21_"  style="overflow:visible;"/>
	</clipPath>
	<g class="st14">
		<g>
			<rect x="67.5" y="196.8" class="st0" width="225" height="150"/>
		</g>
		<g>
			<g>
				<path d="M70.9,203.2c0.3,25.2,0.5,50.3,0.8,75.5c0.1,12.6,0.3,25.2,0.4,37.7c0.1,6,0.1,11.9,0.2,17.9c0,3.3-1.1,8.4,2.1,10.6
					c3.1,2.1,9,0.8,12.5,0.7c6.6-0.2,13.2-0.3,19.8-0.4c12.6-0.3,25.1-0.5,37.7-0.7c24.8-0.4,49.6-0.6,74.4-0.7
					c12.6,0,25.1-0.1,37.7,0c6,0,11.9,0,17.9,0.1c4.2,0,10.5,1.3,14.4-0.4c2.8-1.2,3.1-3.8,2.8-6.5c-0.6-5.8-2-11.5-2.6-17.3
					c-1.1-11.6-1-23.3-0.6-35c0.9-23.4,3.2-46.8,0.6-70.2c-0.5-4.2-0.5-9.6-2.3-13.5c-1.6-3.4-4.4-3.2-7.8-3
					c-12.2,0.8-24.4,1.8-36.7,2.3c-55.6,2.3-111.5,0.8-167.2,0.5c-1.9,0-1.9,3,0,3c45.6,0.2,91.2,1,136.8,0.3
					c11.5-0.2,22.9-0.5,34.4-1c5.2-0.2,10.5-0.5,15.7-0.8c5.5-0.3,11.6-1.6,17-1.2c4.7,0.3,5.3,1.7,6,5.7c0.5,2.9,0.9,5.8,1.2,8.7
					c0.6,5.5,0.9,11,1,16.5c0.3,10.8-0.2,21.6-0.7,32.3c-1.1,21-2.4,42.1,0.5,63c0.3,2.4,0.8,4.8,1.2,7.3c0.2,0.9,0.9,3.1,0.6,3.8
					c-0.8,1.9-3.9,2.4-5.5,2.6c-5.8,0.7-12-0.1-17.8-0.1c-11.6,0-23.1-0.1-34.7,0c-46,0.1-91.9,0.6-137.9,1.7
					c-3,0.1-5.9,0.1-8.9,0.2c-4,0.1-7.8,1.4-8.6-3.4c-1-5.9-0.1-12.8-0.2-18.9c-0.1-12.9-0.3-25.8-0.4-38.7
					c-0.3-26.1-0.5-52.3-0.8-78.4C73.9,201.3,70.9,201.3,70.9,203.2L70.9,203.2z"/>
			</g>
		</g>
		<text transform="matrix(0.8849 0 0 1 93.3511 278.2465)" class="st1 st2">SEJONG</text>
	</g>
</g>
<g>
	<defs>
		<rect id="SVGID_23_" x="273" y="196.8" width="15" height="150"/>
	</defs>
	<clipPath id="SVGID_24_">
		<use xlink:href="#SVGID_23_"  style="overflow:visible;"/>
	</clipPath>
	<g class="st15">
		<g>
			<rect x="108" y="196.8" class="st0" width="225" height="150"/>
		</g>
		<g>
			<g>
				<path d="M111.4,203.2c0.3,25.2,0.5,50.3,0.8,75.5c0.1,12.6,0.3,25.2,0.4,37.7c0.1,6,0.1,11.9,0.2,17.9c0,3.3-1.1,8.4,2.1,10.6
					c3.1,2.1,9,0.8,12.5,0.7c6.6-0.2,13.2-0.3,19.8-0.4c12.6-0.3,25.1-0.5,37.7-0.7c24.8-0.4,49.6-0.6,74.4-0.7
					c12.6,0,25.1-0.1,37.7,0c5.9,0,11.9,0,17.9,0.1c4.2,0,10.5,1.3,14.4-0.4c2.8-1.2,3.1-3.8,2.8-6.5c-0.6-5.8-2-11.5-2.6-17.3
					c-1.1-11.6-1-23.3-0.6-35c0.9-23.4,3.2-46.8,0.6-70.2c-0.5-4.2-0.5-9.6-2.3-13.5c-1.6-3.4-4.4-3.2-7.8-3
					c-12.2,0.8-24.4,1.8-36.7,2.3c-55.6,2.3-111.5,0.8-167.2,0.5c-1.9,0-1.9,3,0,3c45.6,0.2,91.2,1,136.8,0.3
					c11.5-0.2,22.9-0.5,34.4-1c5.2-0.2,10.5-0.5,15.7-0.8c5.5-0.3,11.6-1.6,17-1.2c4.7,0.3,5.3,1.7,6,5.7c0.5,2.9,0.9,5.8,1.2,8.7
					c0.6,5.5,0.9,11,1,16.5c0.3,10.8-0.2,21.6-0.7,32.3c-1,21-2.4,42.1,0.5,63c0.3,2.4,0.8,4.8,1.2,7.3c0.2,0.9,0.9,3.1,0.6,3.8
					c-0.8,1.9-3.9,2.4-5.4,2.6c-5.8,0.7-12-0.1-17.9-0.1c-11.6,0-23.1-0.1-34.7,0c-46,0.1-91.9,0.6-137.9,1.7
					c-3,0.1-5.9,0.1-8.9,0.2c-4,0.1-7.8,1.4-8.6-3.4c-1-5.9-0.1-12.8-0.2-18.9c-0.1-12.9-0.3-25.8-0.4-38.7
					c-0.3-26.1-0.5-52.3-0.8-78.4C114.4,201.3,111.4,201.3,111.4,203.2L111.4,203.2z"/>
			</g>
		</g>
		<text transform="matrix(0.8849 0 0 1 133.8511 278.2465)" class="st1 st2">SEJONG</text>
	</g>
</g>
<g>
	<defs>
		<rect id="SVGID_25_" x="328.1" y="210.4" width="15" height="150"/>
	</defs>
	<clipPath id="SVGID_26_">
		<use xlink:href="#SVGID_25_"  style="overflow:visible;"/>
	</clipPath>
	<g class="st16">
		<g>
			<rect x="148.1" y="210.4" class="st0" width="225" height="150"/>
		</g>
		<g>
			<g>
				<path d="M151.6,216.9c0.3,25.2,0.5,50.3,0.8,75.5c0.1,12.6,0.3,25.2,0.4,37.7c0.1,6,0.1,11.9,0.2,17.9c0,3.3-1.1,8.4,2.1,10.6
					c3.2,2.1,9,0.8,12.5,0.7c6.6-0.2,13.2-0.3,19.8-0.4c12.6-0.3,25.1-0.5,37.7-0.7c24.8-0.4,49.6-0.6,74.4-0.7
					c12.6,0,25.1-0.1,37.7,0c5.9,0,11.9,0,17.9,0.1c4.2,0,10.5,1.3,14.4-0.4c2.8-1.2,3.1-3.8,2.8-6.5c-0.6-5.8-2-11.5-2.6-17.3
					c-1.1-11.6-1-23.3-0.6-35c0.9-23.4,3.2-46.8,0.6-70.2c-0.5-4.2-0.5-9.6-2.3-13.5c-1.6-3.4-4.4-3.2-7.8-3
					c-12.2,0.8-24.4,1.8-36.7,2.3c-55.6,2.3-111.5,0.8-167.2,0.5c-1.9,0-1.9,3,0,3c45.6,0.2,91.2,1,136.8,0.3
					c11.5-0.2,22.9-0.5,34.4-1c5.2-0.2,10.5-0.5,15.7-0.8c5.5-0.3,11.6-1.6,17-1.2c4.7,0.3,5.3,1.7,6,5.7c0.5,2.9,0.9,5.8,1.2,8.7
					c0.6,5.5,0.9,11,1,16.5c0.3,10.8-0.2,21.6-0.7,32.3c-1,21-2.4,42.1,0.5,63c0.3,2.4,0.8,4.8,1.2,7.3c0.2,0.9,0.9,3.1,0.6,3.8
					c-0.8,1.9-3.9,2.4-5.4,2.6c-5.8,0.7-12-0.1-17.9-0.1c-11.6,0-23.1-0.1-34.7,0c-46,0.1-91.9,0.6-137.9,1.7c-3,0.1-6,0.1-8.9,0.2
					c-4,0.1-7.8,1.4-8.6-3.4c-1-5.9-0.1-12.8-0.2-18.9c-0.1-12.9-0.3-25.8-0.4-38.7c-0.3-26.1-0.5-52.3-0.8-78.4
					C154.6,215,151.6,215,151.6,216.9L151.6,216.9z"/>
			</g>
		</g>
		<text transform="matrix(0.8849 0 0 1 174.0001 291.9061)" class="st1 st2">SEJONG</text>
	</g>
</g>
<g>
	<defs>
		<rect id="SVGID_27_" x="376.8" y="210.4" width="15" height="150"/>
	</defs>
	<clipPath id="SVGID_28_">
		<use xlink:href="#SVGID_27_"  style="overflow:visible;"/>
	</clipPath>
	<g class="st17">
		<g>
			<rect x="181.8" y="210.4" class="st0" width="225" height="150"/>
		</g>
		<g>
			<g>
				<path d="M185.2,216.9c0.3,25.2,0.5,50.3,0.8,75.5c0.1,12.6,0.3,25.2,0.4,37.7c0.1,6,0.1,11.9,0.2,17.9c0,3.3-1.1,8.4,2.1,10.6
					c3.1,2.1,9,0.8,12.5,0.7c6.6-0.2,13.2-0.3,19.8-0.4c12.6-0.3,25.1-0.5,37.7-0.7c24.8-0.4,49.6-0.6,74.4-0.7
					c12.6,0,25.1-0.1,37.7,0c5.9,0,11.9,0,17.9,0.1c4.2,0,10.5,1.3,14.4-0.4c2.8-1.2,3.1-3.8,2.8-6.5c-0.6-5.8-2-11.5-2.6-17.3
					c-1.1-11.6-1-23.3-0.6-35c0.9-23.4,3.2-46.8,0.6-70.2c-0.5-4.2-0.5-9.6-2.3-13.5c-1.6-3.4-4.4-3.2-7.8-3
					c-12.2,0.8-24.4,1.8-36.7,2.3c-55.6,2.3-111.5,0.8-167.2,0.5c-1.9,0-1.9,3,0,3c45.6,0.2,91.2,1,136.8,0.3
					c11.5-0.2,22.9-0.5,34.4-1c5.2-0.2,10.5-0.5,15.7-0.8c5.5-0.3,11.6-1.6,17-1.2c4.7,0.3,5.3,1.7,6,5.7c0.5,2.9,0.9,5.8,1.2,8.7
					c0.6,5.5,0.9,11,1,16.5c0.3,10.8-0.2,21.6-0.7,32.3c-1,21-2.4,42.1,0.5,63c0.3,2.4,0.8,4.8,1.2,7.3c0.2,0.9,0.9,3.1,0.6,3.8
					c-0.8,1.9-3.9,2.4-5.4,2.6c-5.8,0.7-12-0.1-17.9-0.1c-11.6,0-23.1-0.1-34.7,0c-46,0.1-91.9,0.6-137.9,1.7
					c-3,0.1-5.9,0.1-8.9,0.2c-4,0.1-7.8,1.4-8.6-3.4c-1-5.9-0.1-12.8-0.2-18.9c-0.1-12.9-0.3-25.8-0.4-38.7
					c-0.3-26.1-0.5-52.3-0.8-78.4C188.2,215,185.2,215,185.2,216.9L185.2,216.9z"/>
			</g>
		</g>
		<text transform="matrix(0.8849 0 0 1 207.6384 291.9061)" class="st1 st2">SEJONG</text>
	</g>
</g>
<g>
	<defs>
		<rect id="SVGID_29_" x="432.6" y="210.4" width="15" height="150"/>
	</defs>
	<clipPath id="SVGID_30_">
		<use xlink:href="#SVGID_29_"  style="overflow:visible;"/>
	</clipPath>
	<g class="st18">
		<g>
			<rect x="222.6" y="210.4" class="st0" width="225" height="150"/>
		</g>
		<g>
			<g>
				<path d="M226.1,216.9c0.3,25.2,0.5,50.3,0.8,75.5c0.1,12.6,0.3,25.2,0.4,37.7c0.1,6,0.1,11.9,0.2,17.9c0,3.3-1.1,8.4,2.1,10.6
					c3.1,2.1,9,0.8,12.5,0.7c6.6-0.2,13.2-0.3,19.8-0.4c12.6-0.3,25.1-0.5,37.7-0.7c24.8-0.4,49.6-0.6,74.4-0.7
					c12.6,0,25.1-0.1,37.7,0c6,0,11.9,0,17.9,0.1c4.2,0,10.5,1.3,14.4-0.4c2.8-1.2,3.1-3.8,2.8-6.5c-0.6-5.8-2.1-11.5-2.6-17.3
					c-1.1-11.6-1-23.3-0.6-35c0.9-23.4,3.2-46.8,0.6-70.2c-0.5-4.2-0.5-9.6-2.3-13.5c-1.6-3.4-4.4-3.2-7.8-3
					c-12.2,0.8-24.4,1.8-36.6,2.3c-55.7,2.3-111.5,0.8-167.2,0.5c-1.9,0-1.9,3,0,3c45.6,0.2,91.2,1,136.8,0.3
					c11.5-0.2,22.9-0.5,34.4-1c5.2-0.2,10.5-0.5,15.7-0.8c5.5-0.3,11.6-1.6,17-1.2c4.7,0.3,5.3,1.7,6,5.7c0.5,2.9,0.9,5.8,1.2,8.7
					c0.6,5.5,0.9,11,1,16.5c0.3,10.8-0.2,21.6-0.7,32.3c-1.1,21-2.5,42.1,0.5,63c0.3,2.4,0.8,4.8,1.2,7.3c0.2,0.9,0.9,3.1,0.6,3.8
					c-0.8,1.9-3.9,2.4-5.5,2.6c-5.8,0.7-12-0.1-17.9-0.1c-11.6,0-23.1-0.1-34.7,0c-46,0.1-91.9,0.6-137.9,1.7
					c-3,0.1-5.9,0.1-8.9,0.2c-4,0.1-7.8,1.4-8.6-3.4c-1-5.9-0.1-12.8-0.2-18.9c-0.1-12.9-0.3-25.8-0.4-38.7
					c-0.3-26.1-0.5-52.3-0.8-78.4C229,215,226,215,226.1,216.9L226.1,216.9z"/>
			</g>
		</g>
		<text transform="matrix(0.8849 0 0 1 248.4718 291.9061)" class="st1 st2">SEJONG</text>
	</g>
</g>
</svg>
