<?xml version="1.0" encoding="utf-8"?>
<!-- Generator: Adobe Illustrator 23.0.0, SVG Export Plug-In . SVG Version: 6.00 Build 0)  -->
<svg version="1.1" id="Layer_1" xmlns="http://www.w3.org/2000/svg" xmlns:xlink="http://www.w3.org/1999/xlink" x="0px" y="0px"
	 viewBox="0 0 225 150" style="enable-background:new 0 0 225 150;" xml:space="preserve">
<style type="text/css">
	.st0{fill:#FFFFFF;}
	.st1{font-family:'Sketch3D';}
	.st2{font-size:57.0771px;}
	.st3{fill:#FFFFFF;stroke:#FF1400;stroke-miterlimit:10;}
	.st4{clip-path:url(#SVGID_2_);}
	.st5{clip-path:url(#SVGID_4_);}
	.st6{clip-path:url(#SVGID_6_);}
	.st7{clip-path:url(#SVGID_8_);}
	.st8{clip-path:url(#SVGID_10_);}
	.st9{clip-path:url(#SVGID_12_);}
	.st10{clip-path:url(#SVGID_14_);}
	.st11{clip-path:url(#SVGID_16_);}
	.st12{clip-path:url(#SVGID_18_);}
	.st13{clip-path:url(#SVGID_20_);}
	.st14{clip-path:url(#SVGID_22_);}
	.st15{clip-path:url(#SVGID_24_);}
	.st16{clip-path:url(#SVGID_26_);}
	.st17{clip-path:url(#SVGID_28_);}
	.st18{clip-path:url(#SVGID_30_);}
</style>
<g>
	<g>
		<rect class="st0" width="225" height="150"/>
	</g>
	<g>
		<g>
			<path d="M2.2,5.5c0.4,46.5,2.4,93,5.9,139.3c0.1,0.9,0.6,1.4,1.5,1.5c19.1,2,38.5,4.1,57.7,2.6c9.4-0.7,18.7-2.8,28.1-2.6
				c9.7,0.2,19.3,1.9,29,2.3c18.9,0.7,37.9-0.6,56.8-1.4c9.9-0.4,19.8-0.8,29.7-1.2c5.4-0.2,11.8,0.6,11.3-6.5
				c-0.7-9.2-2.4-18.3-3-27.6c-0.6-9.7-0.8-19.4-0.9-29.1c0-18.8,0.6-37.6,0.7-56.4c0-4.5,0-9.1-0.1-13.6c-0.1-2.9,0.4-6.8-1.7-9.2
				c-1.5-1.6-3.5-1.7-5.6-1.8c-4.9-0.2-9.9,0-14.9,0c-19.5,0-39,0.1-58.4,0.1C94.9,2.1,51.3,2.2,7.8,2.3c-1.9,0-1.9,3,0,3
				c36-0.1,72-0.2,108-0.2c18.2,0,36.3-0.1,54.5-0.1c8.9,0,17.8,0,26.7-0.1c4.2,0,8.6-0.4,12.9,0c2,0.2,4.7-0.7,5.9,2
				c0.3,0.8,0.2,2.2,0.2,3c0.1,2.3,0.1,4.5,0.1,6.8c0.4,35.6-2.4,71.3,1.1,106.8c0.4,3.7,0.8,7.3,1.3,11c0.4,2.6,1.4,4.9-0.4,7
				c-2,2.2-5.3,1.5-8.1,1.6c-8.9,0.4-17.8,0.7-26.7,1.1c-18,0.7-36,1.9-53.9,1.6c-9.8-0.2-19.3-1.4-29.1-2.1
				c-10.2-0.8-19.9,1.1-30,2.1c-20.2,2-40.5-0.2-60.7-2.3c0.5,0.5,1,1,1.5,1.5C7.6,98.5,5.6,52,5.2,5.5C5.2,3.6,2.2,3.6,2.2,5.5
				L2.2,5.5z"/>
		</g>
	</g>
	<text transform="matrix(0.8526 0 0 1 15.9995 95.0732)" class="st1 st2">SEJONG</text>
</g>
<rect y="-250" class="st3" width="15" height="150"/>
<rect x="15" y="-250" class="st3" width="15" height="150"/>
<rect x="30" y="-250" class="st3" width="15" height="150"/>
<rect x="45" y="-250" class="st3" width="15" height="150"/>
<rect x="60" y="-250" class="st3" width="15" height="150"/>
<rect x="75" y="-250" class="st3" width="15" height="150"/>
<rect x="90" y="-250" class="st3" width="15" height="150"/>
<rect x="105" y="-250" class="st3" width="15" height="150"/>
<rect x="120" y="-250" class="st3" width="15" height="150"/>
<rect x="135" y="-250" class="st3" width="15" height="150"/>
<rect x="150" y="-250" class="st3" width="15" height="150"/>
<rect x="165" y="-250" class="st3" width="15" height="150"/>
<rect x="180" y="-250" class="st3" width="15" height="150"/>
<rect x="195" y="-250" class="st3" width="15" height="150"/>
<rect x="210" y="-250" class="st3" width="15" height="150"/>
<g>
	<defs>
		<rect id="SVGID_1_" x="-175.8" y="290.5" width="15" height="150"/>
	</defs>
	<clipPath id="SVGID_2_">
		<use xlink:href="#SVGID_1_"  style="overflow:visible;"/>
	</clipPath>
	<g class="st4">
		<g>
			<rect x="-235.8" y="290.5" class="st0" width="225" height="150"/>
		</g>
		<g>
			<g>
				<path d="M-233.6,296c0.4,46.5,2.4,93,5.9,139.3c0.1,0.9,0.6,1.4,1.5,1.5c19.1,2,38.4,4.1,57.7,2.6c9.4-0.7,18.7-2.8,28.1-2.6
					c9.7,0.2,19.3,1.9,29,2.3c18.9,0.7,37.9-0.6,56.8-1.4c9.9-0.4,19.8-0.8,29.7-1.2c5.4-0.2,11.8,0.6,11.3-6.5
					c-0.7-9.2-2.4-18.3-3-27.6c-0.6-9.7-0.8-19.4-0.9-29.1c0-18.8,0.6-37.6,0.7-56.4c0-4.5,0-9.1-0.1-13.6c-0.1-2.9,0.4-6.9-1.7-9.2
					c-1.5-1.6-3.5-1.7-5.6-1.8c-4.9-0.2-9.9,0-14.9,0c-19.5,0-39,0.1-58.4,0.1c-43.6,0.1-87.2,0.2-130.8,0.3c-1.9,0-1.9,3,0,3
					c36-0.1,72-0.1,108-0.2c18.2,0,36.3-0.1,54.5-0.1c8.9,0,17.8,0,26.7,0c4.2,0,8.6-0.4,12.9,0c2,0.2,4.7-0.7,5.9,2
					c0.3,0.8,0.2,2.2,0.2,3c0.1,2.3,0.1,4.5,0.1,6.8c0.4,35.6-2.4,71.3,1.1,106.8c0.4,3.7,0.8,7.3,1.3,11c0.4,2.6,1.4,4.9-0.4,7
					c-2,2.2-5.3,1.5-8.1,1.6c-8.9,0.4-17.8,0.7-26.7,1.1c-18,0.7-36,1.9-54,1.6c-9.8-0.2-19.3-1.4-29.1-2.1
					c-10.2-0.8-19.9,1.1-30,2.1c-20.2,2-40.5-0.2-60.7-2.3c0.5,0.5,1,1,1.5,1.5c-3.6-46.4-5.5-92.8-5.9-139.3
					C-230.6,294.1-233.6,294-233.6,296L-233.6,296z"/>
			</g>
		</g>
		<text transform="matrix(0.8526 0 0 1 -219.8141 385.5626)" class="st1 st2">SEJONG</text>
	</g>
</g>
<g>
	<defs>
		<rect id="SVGID_3_" x="-115.8" y="302.4" width="15" height="150"/>
	</defs>
	<clipPath id="SVGID_4_">
		<use xlink:href="#SVGID_3_"  style="overflow:visible;"/>
	</clipPath>
	<g class="st5">
		<g>
			<rect x="-190.8" y="302.4" class="st0" width="225" height="150"/>
		</g>
		<g>
			<g>
				<path d="M-188.6,307.9c0.4,46.5,2.4,93,5.9,139.3c0.1,0.9,0.6,1.4,1.5,1.5c19.1,2,38.4,4.1,57.7,2.6c9.4-0.7,18.7-2.8,28.1-2.6
					c9.7,0.2,19.3,1.9,29,2.3c18.9,0.7,37.9-0.6,56.8-1.4c9.9-0.4,19.8-0.8,29.7-1.2c5.4-0.2,11.8,0.6,11.3-6.5
					c-0.7-9.2-2.4-18.3-3-27.6c-0.6-9.7-0.8-19.4-0.9-29.1c0-18.8,0.6-37.6,0.7-56.4c0-4.5,0-9.1-0.1-13.6c-0.1-2.9,0.4-6.9-1.7-9.2
					c-1.5-1.6-3.5-1.7-5.6-1.8c-4.9-0.2-9.9,0-14.9,0c-19.5,0-39,0.1-58.4,0.1c-43.6,0.1-87.2,0.2-130.8,0.3c-1.9,0-1.9,3,0,3
					c36-0.1,72-0.1,108-0.2c18.2,0,36.3-0.1,54.5-0.1c8.9,0,17.8,0,26.7-0.1c4.2,0,8.6-0.4,12.9,0c2,0.2,4.7-0.7,5.9,2
					c0.3,0.8,0.2,2.2,0.2,3c0.1,2.3,0.1,4.5,0.1,6.8c0.4,35.6-2.4,71.3,1.1,106.8c0.4,3.7,0.8,7.3,1.3,11c0.4,2.6,1.4,4.9-0.4,7
					c-2,2.2-5.3,1.5-8.1,1.6c-8.9,0.4-17.8,0.7-26.7,1.1c-18,0.7-36,1.9-53.9,1.6c-9.8-0.2-19.3-1.4-29.1-2.1
					c-10.2-0.8-19.9,1.1-30,2.1c-20.2,2-40.5-0.2-60.7-2.3c0.5,0.5,1,1,1.5,1.5c-3.6-46.4-5.5-92.8-5.9-139.3
					C-185.6,305.9-188.6,305.9-188.6,307.9L-188.6,307.9z"/>
			</g>
		</g>
		<text transform="matrix(0.8526 0 0 1 -174.8143 397.4349)" class="st1 st2">SEJONG</text>
	</g>
</g>
<g>
	<defs>
		<rect id="SVGID_5_" x="-58.6" y="302.4" width="15" height="150"/>
	</defs>
	<clipPath id="SVGID_6_">
		<use xlink:href="#SVGID_5_"  style="overflow:visible;"/>
	</clipPath>
	<g class="st6">
		<g>
			<rect x="-148.6" y="302.4" class="st0" width="225" height="150"/>
		</g>
		<g>
			<g>
				<path d="M-146.4,307.9c0.4,46.5,2.4,93,5.9,139.3c0.1,0.9,0.6,1.4,1.5,1.5c19.2,2,38.5,4.1,57.7,2.6c9.4-0.7,18.7-2.8,28.1-2.6
					c9.7,0.2,19.3,1.9,29,2.3c18.9,0.7,37.9-0.6,56.8-1.4c9.9-0.4,19.8-0.8,29.7-1.2c5.4-0.2,11.8,0.6,11.3-6.5
					c-0.7-9.2-2.4-18.3-3-27.6c-0.6-9.7-0.8-19.4-0.9-29.1c0-18.8,0.6-37.6,0.7-56.4c0-4.5,0-9.1-0.1-13.6c-0.1-2.9,0.4-6.9-1.7-9.2
					c-1.5-1.6-3.5-1.7-5.6-1.8c-4.9-0.2-9.9,0-14.9,0c-19.5,0-39,0.1-58.4,0.1c-43.6,0.1-87.2,0.2-130.8,0.3c-1.9,0-1.9,3,0,3
					c36-0.1,72-0.1,108-0.2c18.2,0,36.3-0.1,54.5-0.1c8.9,0,17.8,0,26.7-0.1c4.2,0,8.6-0.4,12.9,0c2,0.2,4.7-0.7,6,2
					c0.3,0.8,0.2,2.2,0.2,3c0.1,2.3,0.1,4.5,0.1,6.8c0.4,35.6-2.4,71.3,1.1,106.8c0.4,3.7,0.8,7.3,1.3,11c0.4,2.6,1.4,4.9-0.4,7
					c-2,2.2-5.3,1.5-8.1,1.6c-8.9,0.4-17.8,0.7-26.7,1.1c-18,0.7-36,1.9-53.9,1.6c-9.8-0.2-19.3-1.4-29.1-2.1
					c-10.2-0.8-19.9,1.1-30,2.1c-20.2,2-40.5-0.2-60.7-2.3c0.5,0.5,1,1,1.5,1.5c-3.6-46.4-5.5-92.8-5.9-139.3
					C-143.4,305.9-146.4,305.9-146.4,307.9L-146.4,307.9z"/>
			</g>
		</g>
		<text transform="matrix(0.8526 0 0 1 -132.5744 397.4349)" class="st1 st2">SEJONG</text>
	</g>
</g>
<g>
	<defs>
		<rect id="SVGID_7_" x="-12.9" y="312" width="15" height="150"/>
	</defs>
	<clipPath id="SVGID_8_">
		<use xlink:href="#SVGID_7_"  style="overflow:visible;"/>
	</clipPath>
	<g class="st7">
		<g>
			<rect x="-117.9" y="312" class="st0" width="225" height="150"/>
		</g>
		<g>
			<g>
				<path d="M-115.8,317.5c0.4,46.5,2.4,93,5.9,139.3c0.1,0.9,0.6,1.4,1.5,1.5c19.2,2,38.5,4.1,57.7,2.6c9.4-0.7,18.7-2.8,28.1-2.6
					c9.7,0.2,19.3,1.9,29,2.3c18.9,0.7,37.9-0.6,56.8-1.4c9.9-0.4,19.8-0.8,29.7-1.2c5.4-0.2,11.8,0.6,11.3-6.5
					c-0.7-9.2-2.4-18.3-3-27.6c-0.6-9.7-0.8-19.4-0.9-29.1c0-18.8,0.6-37.6,0.7-56.4c0-4.5,0-9.1-0.1-13.6c-0.1-2.9,0.4-6.8-1.7-9.2
					c-1.5-1.6-3.5-1.7-5.6-1.8c-4.9-0.2-9.9,0-14.9,0c-19.5,0-39,0.1-58.4,0.1c-43.6,0.1-87.2,0.2-130.8,0.3c-1.9,0-1.9,3,0,3
					c36-0.1,72-0.1,108-0.2c18.2,0,36.3-0.1,54.5-0.1c8.9,0,17.8,0,26.7-0.1c4.2,0,8.6-0.4,12.9,0c2,0.2,4.7-0.7,5.9,2
					c0.3,0.8,0.2,2.2,0.2,3c0.1,2.3,0.1,4.5,0.1,6.8c0.4,35.6-2.4,71.3,1.1,106.8c0.4,3.7,0.8,7.3,1.3,11c0.4,2.6,1.4,4.9-0.4,7
					c-2,2.2-5.3,1.5-8.1,1.6c-8.9,0.4-17.8,0.7-26.7,1.1c-18,0.7-36,1.9-53.9,1.6c-9.8-0.2-19.3-1.4-29.1-2.1
					c-10.2-0.8-19.9,1.1-30,2.1c-20.2,2-40.5-0.2-60.7-2.3c0.5,0.5,1,1,1.5,1.5c-3.6-46.4-5.5-92.8-5.9-139.3
					C-112.8,315.6-115.8,315.6-115.8,317.5L-115.8,317.5z"/>
			</g>
		</g>
		<text transform="matrix(0.8526 0 0 1 -101.9418 407.0732)" class="st1 st2">SEJONG</text>
	</g>
</g>
<g>
	<defs>
		<rect id="SVGID_9_" x="46.4" y="312.3" width="15" height="150"/>
	</defs>
	<clipPath id="SVGID_10_">
		<use xlink:href="#SVGID_9_"  style="overflow:visible;"/>
	</clipPath>
	<g class="st8">
		<g>
			<rect x="-73.6" y="312.3" class="st0" width="225" height="150"/>
		</g>
		<g>
			<g>
				<path d="M-71.5,317.8c0.4,46.5,2.4,93,5.9,139.3c0.1,0.9,0.6,1.4,1.5,1.5c19.1,2,38.5,4.1,57.7,2.6c9.4-0.7,18.7-2.8,28.1-2.6
					c9.7,0.2,19.3,1.9,29,2.3c18.9,0.7,37.9-0.6,56.8-1.4c9.9-0.4,19.8-0.8,29.7-1.2c5.4-0.2,11.8,0.6,11.3-6.5
					c-0.7-9.2-2.4-18.3-3-27.6c-0.6-9.7-0.8-19.4-0.9-29.1c0-18.8,0.6-37.6,0.7-56.4c0-4.5,0-9.1-0.1-13.6c-0.1-2.9,0.4-6.9-1.7-9.2
					c-1.5-1.6-3.5-1.7-5.6-1.8c-4.9-0.2-9.9,0-14.9,0c-19.5,0-39,0.1-58.4,0.1c-43.6,0.1-87.2,0.2-130.8,0.3c-1.9,0-1.9,3,0,3
					c36-0.1,72-0.1,108-0.2c18.2,0,36.3-0.1,54.5-0.1c8.9,0,17.8,0,26.7,0c4.2,0,8.7-0.4,12.9,0c2,0.2,4.7-0.7,5.9,2
					c0.3,0.8,0.2,2.2,0.2,3c0.1,2.3,0.1,4.5,0.1,6.8c0.4,35.6-2.4,71.3,1.1,106.8c0.4,3.7,0.8,7.3,1.3,11c0.4,2.6,1.4,4.9-0.4,7
					c-2,2.2-5.3,1.5-8.1,1.6c-8.9,0.4-17.8,0.7-26.7,1.1c-18,0.7-36,1.9-53.9,1.6c-9.8-0.2-19.3-1.4-29.1-2.1
					c-10.2-0.8-19.9,1.1-30,2.1c-20.2,2-40.5-0.2-60.7-2.3c0.5,0.5,1,1,1.5,1.5c-3.6-46.4-5.5-92.8-5.9-139.3
					C-68.5,315.8-71.5,315.8-71.5,317.8L-71.5,317.8z"/>
			</g>
		</g>
		<text transform="matrix(0.8526 0 0 1 -57.6449 407.3499)" class="st1 st2">SEJONG</text>
	</g>
</g>
<g>
	<defs>
		<rect id="SVGID_11_" x="95.2" y="325.5" width="15" height="150"/>
	</defs>
	<clipPath id="SVGID_12_">
		<use xlink:href="#SVGID_11_"  style="overflow:visible;"/>
	</clipPath>
	<g class="st9">
		<g>
			<rect x="-39.8" y="325.5" class="st0" width="225" height="150"/>
		</g>
		<g>
			<g>
				<path d="M-37.6,331c0.4,46.5,2.4,93,5.9,139.3c0.1,0.9,0.6,1.4,1.5,1.5c19.1,2,38.5,4.1,57.7,2.6c9.4-0.7,18.7-2.8,28.1-2.6
					c9.7,0.2,19.3,1.9,29,2.3c18.9,0.7,37.9-0.6,56.8-1.4c9.9-0.4,19.8-0.8,29.7-1.2c5.4-0.2,11.8,0.6,11.3-6.5
					c-0.7-9.2-2.4-18.3-3-27.6c-0.6-9.7-0.8-19.4-0.9-29.1c0-18.8,0.6-37.6,0.7-56.4c0-4.5,0-9.1-0.1-13.6c-0.1-2.9,0.4-6.9-1.7-9.2
					c-1.5-1.6-3.5-1.7-5.6-1.8c-4.9-0.2-9.9,0-14.9,0c-19.5,0-39,0.1-58.4,0.1c-43.6,0.1-87.2,0.2-130.8,0.3c-1.9,0-1.9,3,0,3
					c36-0.1,72-0.1,108-0.2c18.2,0,36.3-0.1,54.5-0.1c8.9,0,17.8,0,26.7,0c4.2,0,8.6-0.4,12.9,0c2,0.2,4.7-0.7,5.9,2
					c0.3,0.8,0.2,2.2,0.2,3c0.1,2.3,0.1,4.5,0.1,6.8c0.4,35.6-2.4,71.3,1.1,106.8c0.4,3.7,0.8,7.3,1.3,11c0.4,2.6,1.4,4.9-0.4,7
					c-2,2.2-5.3,1.5-8.1,1.6c-8.9,0.4-17.8,0.7-26.7,1.1c-18,0.7-36,1.9-53.9,1.6c-9.8-0.2-19.3-1.4-29-2.1
					c-10.2-0.8-19.9,1.1-30,2.1c-20.2,2-40.5-0.2-60.7-2.3c0.5,0.5,1,1,1.5,1.5c-3.6-46.4-5.5-92.8-5.9-139.3
					C-34.6,329.1-37.6,329-37.6,331L-37.6,331z"/>
			</g>
		</g>
		<text transform="matrix(0.8526 0 0 1 -23.7616 420.5626)" class="st1 st2">SEJONG</text>
	</g>
</g>
<g>
	<defs>
		<rect id="SVGID_13_" x="172.8" y="337.4" width="15" height="150"/>
	</defs>
	<clipPath id="SVGID_14_">
		<use xlink:href="#SVGID_13_"  style="overflow:visible;"/>
	</clipPath>
	<g class="st10">
		<g>
			<rect x="22.8" y="337.4" class="st0" width="225" height="150"/>
		</g>
		<g>
			<g>
				<path d="M25,342.9c0.4,46.5,2.4,93,5.9,139.3c0.1,0.9,0.6,1.4,1.5,1.5c19.1,2,38.5,4.1,57.7,2.6c9.4-0.7,18.7-2.8,28.1-2.6
					c9.7,0.2,19.3,1.9,29,2.3c18.9,0.7,37.9-0.6,56.8-1.4c9.9-0.4,19.8-0.8,29.7-1.2c5.4-0.2,11.8,0.6,11.3-6.5
					c-0.7-9.2-2.4-18.3-3-27.6c-0.6-9.7-0.8-19.4-0.9-29.1c0-18.8,0.6-37.6,0.7-56.4c0-4.5,0-9.1-0.1-13.6c-0.1-2.9,0.4-6.9-1.7-9.2
					c-1.5-1.6-3.5-1.7-5.6-1.8c-4.9-0.2-9.9,0-14.9,0c-19.5,0-39,0.1-58.4,0.1c-43.6,0.1-87.2,0.2-130.8,0.3c-1.9,0-1.9,3,0,3
					c36-0.1,72-0.1,108-0.2c18.2,0,36.3-0.1,54.5-0.1c8.9,0,17.8,0,26.7-0.1c4.2,0,8.6-0.4,12.9,0c2,0.2,4.7-0.7,5.9,2
					c0.3,0.8,0.2,2.2,0.2,3c0.1,2.3,0.1,4.5,0.1,6.8c0.4,35.6-2.4,71.3,1.1,106.8c0.4,3.7,0.8,7.3,1.3,11c0.4,2.6,1.4,4.9-0.4,7
					c-2,2.2-5.3,1.5-8.1,1.6c-8.9,0.4-17.8,0.7-26.7,1.1c-18,0.7-36,1.9-53.9,1.6c-9.8-0.2-19.3-1.4-29.1-2.1
					c-10.2-0.8-19.9,1.1-30,2.1c-20.2,2-40.5-0.2-60.7-2.3c0.5,0.5,1,1,1.5,1.5c-3.6-46.4-5.5-92.8-5.9-139.3
					C28,340.9,25,340.9,25,342.9L25,342.9z"/>
			</g>
		</g>
		<text transform="matrix(0.8526 0 0 1 38.7916 432.435)" class="st1 st2">SEJONG</text>
	</g>
</g>
<g>
	<defs>
		<rect id="SVGID_15_" x="251.2" y="337.4" width="15" height="150"/>
	</defs>
	<clipPath id="SVGID_16_">
		<use xlink:href="#SVGID_15_"  style="overflow:visible;"/>
	</clipPath>
	<g class="st11">
		<g>
			<rect x="86.2" y="337.4" class="st0" width="225" height="150"/>
		</g>
		<g>
			<g>
				<path d="M88.4,342.9c0.4,46.5,2.4,93,5.9,139.3c0.1,0.9,0.6,1.4,1.5,1.5c19.2,2,38.5,4.1,57.7,2.6c9.4-0.7,18.7-2.8,28.1-2.6
					c9.7,0.2,19.3,1.9,29,2.3c18.9,0.7,37.9-0.6,56.8-1.4c9.9-0.4,19.8-0.8,29.7-1.2c5.4-0.2,11.8,0.6,11.3-6.5
					c-0.7-9.2-2.4-18.3-3-27.6c-0.6-9.7-0.8-19.4-0.9-29.1c0-18.8,0.6-37.6,0.7-56.4c0-4.5,0-9.1-0.1-13.6c-0.1-2.9,0.4-6.9-1.7-9.2
					c-1.5-1.6-3.5-1.7-5.6-1.8c-4.9-0.2-9.9,0-14.9,0c-19.5,0-39,0.1-58.4,0.1c-43.6,0.1-87.2,0.2-130.8,0.3c-1.9,0-1.9,3,0,3
					c36-0.1,72-0.1,108-0.2c18.2,0,36.3-0.1,54.5-0.1c8.9,0,17.8,0,26.7-0.1c4.2,0,8.6-0.4,12.9,0c2,0.2,4.7-0.7,5.9,2
					c0.3,0.8,0.2,2.2,0.2,3c0.1,2.3,0.1,4.5,0.1,6.8c0.4,35.6-2.4,71.3,1.1,106.8c0.4,3.7,0.8,7.3,1.3,11c0.4,2.6,1.4,4.9-0.4,7
					c-2,2.2-5.3,1.5-8.1,1.6c-8.9,0.4-17.8,0.7-26.7,1.1c-18,0.7-36,1.9-54,1.6c-9.8-0.2-19.3-1.4-29.1-2.1
					c-10.2-0.8-19.9,1.1-30,2.1c-20.2,2-40.5-0.2-60.7-2.3c0.5,0.5,1,1,1.5,1.5c-3.6-46.4-5.5-92.8-5.9-139.3
					C91.4,340.9,88.4,340.9,88.4,342.9L88.4,342.9z"/>
			</g>
		</g>
		<text transform="matrix(0.8526 0 0 1 102.2286 432.435)" class="st1 st2">SEJONG</text>
	</g>
</g>
<g>
	<defs>
		<rect id="SVGID_17_" x="311.9" y="337.4" width="15" height="150"/>
	</defs>
	<clipPath id="SVGID_18_">
		<use xlink:href="#SVGID_17_"  style="overflow:visible;"/>
	</clipPath>
	<g class="st12">
		<g>
			<rect x="131.9" y="337.4" class="st0" width="225" height="150"/>
		</g>
		<g>
			<g>
				<path d="M134.1,342.9c0.4,46.5,2.4,93,5.9,139.3c0.1,0.9,0.6,1.4,1.5,1.5c19.1,2,38.4,4.1,57.7,2.6c9.4-0.7,18.7-2.8,28.1-2.6
					c9.7,0.2,19.3,1.9,29,2.3c18.9,0.7,37.9-0.6,56.8-1.4c9.9-0.4,19.8-0.8,29.7-1.2c5.4-0.2,11.8,0.6,11.3-6.5
					c-0.7-9.2-2.4-18.3-3-27.6c-0.6-9.7-0.8-19.4-0.9-29.1c0-18.8,0.6-37.6,0.7-56.4c0-4.5,0-9.1-0.1-13.6c-0.1-2.9,0.4-6.9-1.7-9.2
					c-1.5-1.6-3.5-1.7-5.6-1.8c-4.9-0.2-9.9,0-14.9,0c-19.5,0-39,0.1-58.4,0.1c-43.6,0.1-87.2,0.2-130.8,0.3c-1.9,0-1.9,3,0,3
					c36-0.1,72-0.1,108-0.2c18.2,0,36.3-0.1,54.5-0.1c8.9,0,17.8,0,26.7-0.1c4.2,0,8.6-0.4,12.9,0c2,0.2,4.7-0.7,5.9,2
					c0.3,0.8,0.2,2.2,0.2,3c0.1,2.3,0.1,4.5,0.1,6.8c0.4,35.6-2.4,71.3,1.1,106.8c0.4,3.7,0.8,7.3,1.3,11c0.4,2.6,1.4,4.9-0.4,7
					c-2,2.2-5.3,1.5-8.1,1.6c-8.9,0.4-17.8,0.7-26.7,1.1c-18,0.7-36,1.9-54,1.6c-9.8-0.2-19.3-1.4-29-2.1c-10.2-0.8-19.9,1.1-30,2.1
					c-20.2,2-40.5-0.2-60.6-2.3c0.5,0.5,1,1,1.5,1.5c-3.6-46.4-5.5-92.8-5.9-139.3C137.1,340.9,134.1,340.9,134.1,342.9L134.1,342.9
					z"/>
			</g>
		</g>
		<text transform="matrix(0.8526 0 0 1 147.8815 432.435)" class="st1 st2">SEJONG</text>
	</g>
</g>
<g>
	<defs>
		<rect id="SVGID_19_" x="345.8" y="337.4" width="15" height="150"/>
	</defs>
	<clipPath id="SVGID_20_">
		<use xlink:href="#SVGID_19_"  style="overflow:visible;"/>
	</clipPath>
	<g class="st13">
		<g>
			<rect x="150.8" y="337.4" class="st0" width="225" height="150"/>
		</g>
		<g>
			<g>
				<path d="M153,342.9c0.4,46.5,2.4,93,5.9,139.3c0.1,0.9,0.6,1.4,1.5,1.5c19.1,2,38.4,4.1,57.7,2.6c9.4-0.7,18.7-2.8,28.1-2.6
					c9.7,0.2,19.3,1.9,29,2.3c18.9,0.7,37.9-0.6,56.8-1.4c9.9-0.4,19.8-0.8,29.7-1.2c5.4-0.2,11.8,0.6,11.3-6.5
					c-0.7-9.2-2.4-18.3-3-27.6c-0.6-9.7-0.8-19.4-0.9-29.1c0-18.8,0.6-37.6,0.7-56.4c0-4.5,0-9.1-0.1-13.6c-0.1-2.9,0.4-6.9-1.7-9.2
					c-1.5-1.6-3.5-1.7-5.6-1.8c-4.9-0.2-9.9,0-14.9,0c-19.5,0-39,0.1-58.4,0.1c-43.6,0.1-87.2,0.2-130.8,0.3c-1.9,0-1.9,3,0,3
					c36-0.1,72-0.1,108-0.2c18.2,0,36.3-0.1,54.5-0.1c8.9,0,17.8,0,26.7-0.1c4.2,0,8.6-0.4,12.9,0c2,0.2,4.7-0.7,5.9,2
					c0.3,0.8,0.2,2.2,0.2,3c0.1,2.3,0.1,4.5,0.1,6.8c0.4,35.6-2.4,71.3,1.1,106.8c0.4,3.7,0.8,7.3,1.3,11c0.4,2.6,1.4,4.9-0.4,7
					c-2,2.2-5.3,1.5-8.1,1.6c-8.9,0.4-17.8,0.7-26.7,1.1c-18,0.7-36,1.9-54,1.6c-9.8-0.2-19.3-1.4-29-2.1c-10.2-0.8-19.9,1.1-30,2.1
					c-20.2,2-40.5-0.2-60.6-2.3c0.5,0.5,1,1,1.5,1.5c-3.6-46.4-5.5-92.8-5.9-139.3C156,340.9,153,340.9,153,342.9L153,342.9z"/>
			</g>
		</g>
		<text transform="matrix(0.8526 0 0 1 166.8378 432.4349)" class="st1 st2">SEJONG</text>
	</g>
</g>
<g>
	<defs>
		<rect id="SVGID_21_" x="402.8" y="340.3" width="15" height="150"/>
	</defs>
	<clipPath id="SVGID_22_">
		<use xlink:href="#SVGID_21_"  style="overflow:visible;"/>
	</clipPath>
	<g class="st14">
		<g>
			<rect x="192.8" y="340.3" class="st0" width="225" height="150"/>
		</g>
		<g>
			<g>
				<path d="M195,345.8c0.4,46.5,2.4,93,5.9,139.3c0.1,0.9,0.6,1.4,1.5,1.5c19.1,2,38.4,4.1,57.7,2.6c9.4-0.7,18.7-2.8,28.1-2.6
					c9.7,0.2,19.3,1.9,29,2.3c18.9,0.7,37.9-0.6,56.8-1.4c9.9-0.4,19.8-0.8,29.7-1.2c5.4-0.2,11.8,0.6,11.3-6.5
					c-0.7-9.2-2.4-18.3-3-27.6c-0.6-9.7-0.8-19.4-0.9-29.1c0-18.8,0.6-37.6,0.7-56.4c0-4.5,0-9.1-0.1-13.6c-0.1-2.9,0.4-6.9-1.7-9.2
					c-1.5-1.6-3.5-1.7-5.6-1.8c-4.9-0.2-9.9,0-14.9,0c-19.5,0-39,0.1-58.4,0.1c-43.6,0.1-87.2,0.2-130.8,0.3c-1.9,0-1.9,3,0,3
					c36-0.1,72-0.1,108-0.2c18.2,0,36.3-0.1,54.5-0.1c8.9,0,17.8,0,26.7-0.1c4.2,0,8.6-0.4,12.9,0c2,0.2,4.7-0.7,5.9,2
					c0.3,0.8,0.2,2.2,0.2,3c0.1,2.3,0.1,4.5,0.1,6.8c0.4,35.6-2.4,71.3,1.1,106.8c0.4,3.7,0.8,7.3,1.3,11c0.4,2.6,1.4,4.9-0.4,7
					c-2,2.2-5.3,1.5-8.1,1.6c-8.9,0.4-17.8,0.7-26.7,1.1c-18,0.7-36,1.9-54,1.6c-9.8-0.2-19.3-1.4-29-2.1c-10.2-0.8-20,1.1-30,2.1
					c-20.2,2-40.5-0.2-60.7-2.3c0.5,0.5,1,1,1.5,1.5c-3.6-46.4-5.5-92.8-5.9-139.3C198,343.9,195,343.8,195,345.8L195,345.8z"/>
			</g>
		</g>
		<text transform="matrix(0.8526 0 0 1 208.7915 435.3549)" class="st1 st2">SEJONG</text>
	</g>
</g>
<g>
	<defs>
		<rect id="SVGID_23_" x="-231.8" y="277.3" width="15" height="150"/>
	</defs>
	<clipPath id="SVGID_24_">
		<use xlink:href="#SVGID_23_"  style="overflow:visible;"/>
	</clipPath>
	<g class="st15">
		<g>
			<rect x="-276.8" y="277.3" class="st0" width="225" height="150"/>
		</g>
		<g>
			<g>
				<path d="M-274.7,282.8c0.4,46.5,2.4,93,5.9,139.3c0.1,0.9,0.6,1.4,1.5,1.5c19.2,2,38.5,4.1,57.7,2.6c9.4-0.7,18.7-2.8,28.1-2.6
					c9.7,0.2,19.3,1.9,29,2.3c18.9,0.7,37.9-0.6,56.8-1.4c9.9-0.4,19.8-0.8,29.7-1.2c5.4-0.2,11.8,0.6,11.3-6.5
					c-0.7-9.2-2.4-18.3-3-27.6c-0.6-9.7-0.8-19.4-0.9-29.1c0-18.8,0.6-37.6,0.7-56.4c0-4.5,0-9.1-0.1-13.6c-0.1-2.9,0.4-6.9-1.7-9.2
					c-1.5-1.6-3.5-1.7-5.6-1.8c-4.9-0.2-9.9,0-14.9,0c-19.5,0-39,0.1-58.4,0.1c-43.6,0.1-87.2,0.2-130.8,0.3c-1.9,0-1.9,3,0,3
					c36-0.1,72-0.1,108-0.2c18.2,0,36.3-0.1,54.5-0.1c8.9,0,17.8,0,26.7,0c4.2,0,8.6-0.4,12.9,0c2,0.2,4.7-0.7,6,2
					c0.3,0.8,0.2,2.2,0.2,3c0.1,2.3,0.1,4.5,0.1,6.8c0.4,35.6-2.4,71.3,1.1,106.8c0.4,3.7,0.8,7.3,1.3,11c0.4,2.6,1.4,4.9-0.4,7
					c-2,2.2-5.3,1.5-8.1,1.6c-8.9,0.4-17.8,0.7-26.7,1.1c-18,0.7-36,1.9-53.9,1.6c-9.8-0.2-19.3-1.4-29.1-2.1
					c-10.2-0.8-19.9,1.1-30,2.1c-20.2,2-40.5-0.2-60.6-2.3c0.5,0.5,1,1,1.5,1.5c-3.6-46.4-5.5-92.8-5.9-139.3
					C-271.7,280.8-274.7,280.8-274.7,282.8L-274.7,282.8z"/>
			</g>
		</g>
		<text transform="matrix(0.8526 0 0 1 -260.849 372.3499)" class="st1 st2">SEJONG</text>
	</g>
</g>
<g>
	<defs>
		<rect id="SVGID_25_" x="-291.8" y="269.9" width="15" height="150"/>
	</defs>
	<clipPath id="SVGID_26_">
		<use xlink:href="#SVGID_25_"  style="overflow:visible;"/>
	</clipPath>
	<g class="st16">
		<g>
			<rect x="-321.8" y="269.9" class="st0" width="225" height="150"/>
		</g>
		<g>
			<g>
				<path d="M-319.7,275.4c0.4,46.5,2.4,93,5.9,139.3c0.1,0.9,0.6,1.4,1.5,1.5c19.1,2,38.5,4.1,57.7,2.6c9.4-0.7,18.7-2.8,28.1-2.6
					c9.7,0.2,19.3,1.9,29,2.3c18.9,0.7,37.9-0.6,56.8-1.4c9.9-0.4,19.8-0.8,29.7-1.2c5.4-0.2,11.8,0.6,11.3-6.5
					c-0.7-9.2-2.4-18.3-3-27.6c-0.6-9.7-0.8-19.4-0.9-29.1c0-18.8,0.6-37.6,0.7-56.4c0-4.5,0-9.1-0.1-13.6c-0.1-2.9,0.4-6.9-1.7-9.2
					c-1.5-1.6-3.5-1.7-5.6-1.8c-4.9-0.2-9.9,0-14.9,0c-19.5,0-39,0.1-58.4,0.1c-43.6,0.1-87.2,0.2-130.8,0.3c-1.9,0-1.9,3,0,3
					c36-0.1,72-0.2,108-0.2c18.2,0,36.3-0.1,54.5-0.1c8.9,0,17.8,0,26.7,0c4.2,0,8.6-0.4,12.9,0c2,0.2,4.7-0.7,5.9,2
					c0.3,0.8,0.2,2.2,0.2,3c0.1,2.3,0.1,4.5,0.1,6.8c0.4,35.6-2.4,71.3,1.1,106.8c0.4,3.7,0.8,7.3,1.3,11c0.4,2.6,1.4,4.9-0.4,7
					c-2,2.2-5.3,1.5-8.1,1.6c-8.9,0.4-17.8,0.7-26.7,1.1c-18,0.7-36,1.9-53.9,1.6c-9.8-0.2-19.3-1.4-29.1-2.1
					c-10.2-0.8-19.9,1.1-30,2.1c-20.2,2-40.5-0.2-60.6-2.3c0.5,0.5,1,1,1.5,1.5c-3.6-46.4-5.5-92.8-5.9-139.3
					C-316.7,273.4-319.7,273.4-319.7,275.4L-319.7,275.4z"/>
			</g>
		</g>
		<text transform="matrix(0.8526 0 0 1 -305.849 364.9507)" class="st1 st2">SEJONG</text>
	</g>
</g>
<g>
	<defs>
		<rect id="SVGID_27_" x="-335.2" y="269.9" width="15" height="150"/>
	</defs>
	<clipPath id="SVGID_28_">
		<use xlink:href="#SVGID_27_"  style="overflow:visible;"/>
	</clipPath>
	<g class="st17">
		<g>
			<rect x="-350.2" y="269.9" class="st0" width="225" height="150"/>
		</g>
		<g>
			<g>
				<path d="M-348,275.4c0.4,46.5,2.4,93,5.9,139.3c0.1,0.9,0.6,1.4,1.5,1.5c19.2,2,38.5,4.1,57.7,2.6c9.4-0.7,18.7-2.8,28.1-2.6
					c9.7,0.2,19.3,1.9,29,2.3c18.9,0.7,37.9-0.6,56.8-1.4c9.9-0.4,19.8-0.8,29.7-1.2c5.4-0.2,11.8,0.6,11.3-6.5
					c-0.7-9.2-2.4-18.3-3-27.6c-0.6-9.7-0.8-19.4-0.9-29.1c0-18.8,0.6-37.6,0.7-56.4c0-4.5,0-9.1-0.1-13.6c-0.1-2.9,0.4-6.9-1.7-9.2
					c-1.5-1.6-3.5-1.7-5.6-1.8c-4.9-0.2-9.9,0-14.9,0c-19.5,0-39,0.1-58.4,0.1c-43.6,0.1-87.2,0.2-130.8,0.3c-1.9,0-1.9,3,0,3
					c36-0.1,72-0.2,108-0.2c18.2,0,36.3-0.1,54.5-0.1c8.9,0,17.8,0,26.7,0c4.2,0,8.6-0.4,12.9,0c2,0.2,4.7-0.7,5.9,2
					c0.3,0.8,0.2,2.2,0.2,3c0.1,2.3,0.1,4.5,0.1,6.8c0.4,35.6-2.4,71.3,1.1,106.8c0.4,3.7,0.8,7.3,1.3,11c0.4,2.6,1.4,4.9-0.4,7
					c-2,2.2-5.3,1.5-8.1,1.6c-8.9,0.4-17.8,0.7-26.7,1.1c-18,0.7-36,1.9-53.9,1.6c-9.8-0.2-19.3-1.4-29.1-2.1
					c-10.2-0.8-20,1.1-30,2.1c-20.2,2-40.5-0.2-60.6-2.3c0.5,0.5,1,1,1.5,1.5c-3.6-46.4-5.5-92.8-5.9-139.3
					C-345,273.4-348,273.4-348,275.4L-348,275.4z"/>
			</g>
		</g>
		<text transform="matrix(0.8526 0 0 1 -334.2174 364.9507)" class="st1 st2">SEJONG</text>
	</g>
</g>
<g>
	<defs>
		<rect id="SVGID_29_" x="-372.8" y="265.3" width="15" height="150"/>
	</defs>
	<clipPath id="SVGID_30_">
		<use xlink:href="#SVGID_29_"  style="overflow:visible;"/>
	</clipPath>
	<g class="st18">
		<g>
			<rect x="-372.8" y="265.3" class="st0" width="225" height="150"/>
		</g>
		<g>
			<g>
				<path d="M-370.6,270.8c0.4,46.5,2.4,93,5.9,139.3c0.1,0.9,0.6,1.4,1.5,1.5c19.1,2,38.5,4.1,57.7,2.6c9.4-0.7,18.7-2.8,28.1-2.6
					c9.7,0.2,19.3,1.9,29,2.3c18.9,0.7,37.9-0.6,56.8-1.4c9.9-0.4,19.8-0.8,29.7-1.2c5.4-0.2,11.8,0.6,11.3-6.5
					c-0.7-9.2-2.4-18.3-3-27.6c-0.6-9.7-0.8-19.4-0.9-29.1c0-18.8,0.6-37.6,0.7-56.4c0-4.5,0-9.1-0.1-13.6c-0.1-2.9,0.4-6.9-1.7-9.2
					c-1.5-1.6-3.5-1.7-5.6-1.8c-4.9-0.2-9.9,0-14.9,0c-19.5,0-39,0.1-58.4,0.1c-43.6,0.1-87.2,0.2-130.8,0.3c-1.9,0-1.9,3,0,3
					c36-0.1,72-0.1,108-0.2c18.2,0,36.3-0.1,54.5-0.1c8.9,0,17.8,0,26.7-0.1c4.2,0,8.6-0.4,12.9,0c2,0.2,4.7-0.7,5.9,2
					c0.3,0.8,0.2,2.2,0.2,3c0.1,2.3,0.1,4.5,0.1,6.8c0.4,35.6-2.4,71.3,1.1,106.8c0.4,3.7,0.8,7.3,1.3,11c0.4,2.6,1.4,4.9-0.4,7
					c-2,2.2-5.3,1.5-8.1,1.6c-8.9,0.4-17.8,0.7-26.7,1.1c-18,0.7-36,1.9-53.9,1.6c-9.8-0.2-19.3-1.4-29.1-2.1
					c-10.2-0.8-19.9,1.1-30,2.1c-20.2,2-40.5-0.2-60.7-2.3c0.5,0.5,1,1,1.5,1.5c-3.6-46.4-5.5-92.8-5.9-139.3
					C-367.6,268.9-370.6,268.8-370.6,270.8L-370.6,270.8z"/>
			</g>
		</g>
		<text transform="matrix(0.8526 0 0 1 -356.7924 360.355)" class="st1 st2">SEJONG</text>
	</g>
</g>
</svg>
