<?xml version="1.0" encoding="utf-8"?>
<!-- Generator: Adobe Illustrator 23.0.0, SVG Export Plug-In . SVG Version: 6.00 Build 0)  -->
<svg version="1.1" id="Layer_1" xmlns="http://www.w3.org/2000/svg" xmlns:xlink="http://www.w3.org/1999/xlink" x="0px" y="0px"
	 viewBox="0 0 225 150" style="enable-background:new 0 0 225 150;" xml:space="preserve">
<style type="text/css">
	.st0{fill:#FFFFFF;}
	.st1{font-family:'Grinched';}
	.st2{font-size:54.5985px;}
	.st3{fill:#FFFFFF;stroke:#FF1400;stroke-miterlimit:10;}
	.st4{clip-path:url(#SVGID_2_);}
	.st5{clip-path:url(#SVGID_4_);}
	.st6{clip-path:url(#SVGID_6_);}
	.st7{clip-path:url(#SVGID_8_);}
	.st8{clip-path:url(#SVGID_10_);}
	.st9{clip-path:url(#SVGID_12_);}
	.st10{clip-path:url(#SVGID_14_);}
	.st11{clip-path:url(#SVGID_16_);}
	.st12{clip-path:url(#SVGID_18_);}
	.st13{clip-path:url(#SVGID_20_);}
	.st14{clip-path:url(#SVGID_22_);}
	.st15{clip-path:url(#SVGID_24_);}
	.st16{clip-path:url(#SVGID_26_);}
	.st17{clip-path:url(#SVGID_28_);}
	.st18{clip-path:url(#SVGID_30_);}
</style>
<g>
	<g>
		<rect class="st0" width="225" height="150"/>
	</g>
	<g>
		<g>
			<path d="M1.5,3.9c2.6,47.4,3.1,94.8,1.5,142.3c0,0.8,0.7,1.5,1.5,1.5c71.4-0.2,142.7-0.4,214.1-0.6c0.8,0,1.5-0.7,1.5-1.5
				c0.3-25.1,0.6-50.1,0.9-75.2c0.1-12.2,0.3-24.4,0.4-36.6c0.1-5.9,0.1-11.9,0.2-17.8c0-3.6,1.6-10.7-1.2-13.6
				c-2-2.1-4.6-1.3-7-0.6c-6.3,1.9-12.4,3.2-19,3.3c-11.6,0.2-23.2-1.9-34.7-3C136.3-0.1,112.7,2.1,89.3,4
				C62.3,6.3,35.1,8.2,8.4,2.9C6.6,2.5,5.8,5.4,7.6,5.8c44.3,8.8,88.9-2,133.4-1.5c11.2,0.1,22.3,1.3,33.4,2.6
				c10.4,1.2,20.9,2.2,31.2,0.3c2.7-0.5,5.3-1.2,7.8-2.1c4.8-1.6,5.4,2.4,5.3,6.1c-0.1,5.9-0.1,11.9-0.2,17.8
				c-0.1,11.9-0.3,23.7-0.4,35.6c-0.3,27-0.6,54-1,81.1c0.5-0.5,1-1,1.5-1.5c-71.4,0.2-142.7,0.4-214.1,0.6c0.5,0.5,1,1,1.5,1.5
				c1.5-47.4,1-94.9-1.6-142.3C4.4,2,1.4,2,1.5,3.9L1.5,3.9z"/>
		</g>
	</g>
	<text transform="matrix(0.8142 0 0 1 16.4448 102.2168)" class="st1 st2">SEJONG</text>
</g>
<rect class="st3" width="15" height="150"/>
<rect x="15" y="0" class="st3" width="15" height="150"/>
<rect x="30" y="0" class="st3" width="15" height="150"/>
<rect x="45" y="0" class="st3" width="15" height="150"/>
<rect x="60" y="0" class="st3" width="15" height="150"/>
<rect x="75" y="0" class="st3" width="15" height="150"/>
<rect x="90" y="0" class="st3" width="15" height="150"/>
<rect x="105" y="0" class="st3" width="15" height="150"/>
<rect x="120" y="0" class="st3" width="15" height="150"/>
<rect x="135" y="0" class="st3" width="15" height="150"/>
<rect x="150" y="0" class="st3" width="15" height="150"/>
<rect x="165" y="0" class="st3" width="15" height="150"/>
<rect x="180" y="0" class="st3" width="15" height="150"/>
<rect x="195" y="0" class="st3" width="15" height="150"/>
<rect x="210" y="0" class="st3" width="15" height="150"/>
<g>
	<defs>
		<rect id="SVGID_1_" x="-108.3" y="221.3" width="15" height="150"/>
	</defs>
	<clipPath id="SVGID_2_">
		<use xlink:href="#SVGID_1_"  style="overflow:visible;"/>
	</clipPath>
	<g class="st4">
		<g>
			<rect x="-108.3" y="221.3" class="st0" width="225" height="150"/>
		</g>
		<g>
			<g>
				<path d="M-106.8,225.2c2.6,47.4,3.1,94.8,1.5,142.3c0,0.8,0.7,1.5,1.5,1.5c71.4-0.2,142.7-0.4,214.1-0.6c0.8,0,1.5-0.7,1.5-1.5
					c0.3-25,0.6-50.1,0.9-75.1c0.1-12.2,0.3-24.4,0.4-36.6c0.1-5.9,0.1-11.9,0.2-17.8c0-3.6,1.6-10.7-1.2-13.6c-2-2.1-4.6-1.3-7-0.6
					c-6.3,1.9-12.4,3.2-19,3.3c-11.6,0.2-23.2-1.9-34.7-3c-23.5-2.3-47.1-0.1-70.5,1.9c-26.9,2.2-54.1,4.1-80.8-1.1
					c-1.9-0.4-2.7,2.5-0.8,2.9c44.3,8.8,88.9-2,133.4-1.6c11.2,0.1,22.3,1.3,33.4,2.6c10.4,1.2,20.9,2.2,31.2,0.3
					c2.7-0.5,5.3-1.2,7.8-2.1c4.8-1.6,5.4,2.4,5.3,6.1c-0.1,5.9-0.1,11.9-0.2,17.8c-0.1,11.9-0.3,23.7-0.4,35.6
					c-0.3,27-0.6,54-1,81.1c0.5-0.5,1-1,1.5-1.5c-71.4,0.2-142.7,0.4-214.1,0.6c0.5,0.5,1,1,1.5,1.5c1.5-47.4,1-94.9-1.6-142.3
					C-103.9,223.3-106.9,223.3-106.8,225.2L-106.8,225.2z"/>
			</g>
		</g>
		<text transform="matrix(0.8142 0 0 1 -91.8424 323.4934)" class="st1 st2">SEJONG</text>
	</g>
</g>
<g>
	<defs>
		<rect id="SVGID_3_" x="-59.3" y="206.9" width="15" height="150"/>
	</defs>
	<clipPath id="SVGID_4_">
		<use xlink:href="#SVGID_3_"  style="overflow:visible;"/>
	</clipPath>
	<g class="st5">
		<g>
			<rect x="-74.3" y="206.9" class="st0" width="225" height="150"/>
		</g>
		<g>
			<g>
				<path d="M-72.8,210.8c2.6,47.4,3.1,94.8,1.5,142.3c0,0.8,0.7,1.5,1.5,1.5c71.4-0.2,142.7-0.4,214.1-0.6c0.8,0,1.5-0.7,1.5-1.5
					c0.3-25.1,0.6-50.1,0.9-75.1c0.1-12.2,0.3-24.4,0.4-36.6c0.1-5.9,0.1-11.9,0.2-17.8c0-3.6,1.6-10.7-1.2-13.6
					c-2-2.1-4.6-1.3-7-0.6c-6.3,1.9-12.4,3.2-19,3.3c-11.6,0.2-23.2-1.9-34.7-3c-23.5-2.3-47.1-0.1-70.5,1.8
					c-26.9,2.2-54.1,4.1-80.8-1.1c-1.9-0.4-2.7,2.5-0.8,2.9c44.3,8.8,88.9-2,133.4-1.6c11.2,0.1,22.3,1.3,33.4,2.6
					c10.4,1.2,20.9,2.2,31.2,0.3c2.7-0.5,5.3-1.2,7.8-2.1c4.8-1.6,5.4,2.4,5.3,6.1c-0.1,5.9-0.1,11.9-0.2,17.8
					c-0.1,11.9-0.3,23.7-0.4,35.6c-0.3,27-0.6,54-1,81.1c0.5-0.5,1-1,1.5-1.5c-71.4,0.2-142.7,0.4-214.1,0.6c0.5,0.5,1,1,1.5,1.5
					c1.5-47.4,1-94.9-1.6-142.3C-69.9,208.9-72.9,208.9-72.8,210.8L-72.8,210.8z"/>
			</g>
		</g>
		<text transform="matrix(0.8142 0 0 1 -57.8938 309.0892)" class="st1 st2">SEJONG</text>
	</g>
</g>
<g>
	<defs>
		<rect id="SVGID_5_" x="-15" y="221.3" width="15" height="150"/>
	</defs>
	<clipPath id="SVGID_6_">
		<use xlink:href="#SVGID_5_"  style="overflow:visible;"/>
	</clipPath>
	<g class="st6">
		<g>
			<rect x="-45" y="221.3" class="st0" width="225" height="150"/>
		</g>
		<g>
			<g>
				<path d="M-43.5,225.2c2.6,47.4,3.1,94.8,1.5,142.3c0,0.8,0.7,1.5,1.5,1.5c71.4-0.2,142.7-0.4,214.1-0.6c0.8,0,1.5-0.7,1.5-1.5
					c0.3-25,0.6-50.1,0.9-75.1c0.1-12.2,0.3-24.4,0.4-36.6c0.1-5.9,0.1-11.9,0.2-17.8c0-3.6,1.6-10.7-1.2-13.6c-2-2.1-4.6-1.3-7-0.6
					c-6.3,1.9-12.4,3.2-19,3.3c-11.6,0.2-23.2-1.9-34.7-3c-23.5-2.3-47.1-0.1-70.5,1.9c-26.9,2.2-54.1,4.1-80.8-1.1
					c-1.9-0.4-2.7,2.5-0.8,2.9c44.3,8.8,88.9-2,133.4-1.6c11.2,0.1,22.3,1.3,33.4,2.6c10.4,1.2,20.9,2.2,31.2,0.3
					c2.7-0.5,5.3-1.2,7.8-2.1c4.8-1.6,5.4,2.4,5.3,6.1c-0.1,5.9-0.1,11.9-0.2,17.8c-0.1,11.9-0.3,23.7-0.4,35.6
					c-0.3,27-0.6,54-1,81.1c0.5-0.5,1-1,1.5-1.5c-71.4,0.2-142.7,0.4-214.1,0.6c0.5,0.5,1,1,1.5,1.5c1.5-47.4,1-94.9-1.6-142.3
					C-40.6,223.3-43.6,223.3-43.5,225.2L-43.5,225.2z"/>
			</g>
		</g>
		<text transform="matrix(0.8142 0 0 1 -28.5552 323.4934)" class="st1 st2">SEJONG</text>
	</g>
</g>
<g>
	<defs>
		<rect id="SVGID_7_" x="22.5" y="238" width="15" height="150"/>
	</defs>
	<clipPath id="SVGID_8_">
		<use xlink:href="#SVGID_7_"  style="overflow:visible;"/>
	</clipPath>
	<g class="st7">
		<g>
			<rect x="-22.5" y="238" class="st0" width="225" height="150"/>
		</g>
		<g>
			<g>
				<path d="M-21,241.9c2.6,47.4,3.1,94.8,1.5,142.3c0,0.8,0.7,1.5,1.5,1.5c71.4-0.2,142.7-0.4,214.1-0.6c0.8,0,1.5-0.7,1.5-1.5
					c0.3-25.1,0.6-50.1,0.9-75.2c0.1-12.2,0.3-24.4,0.4-36.6c0.1-5.9,0.1-11.9,0.2-17.8c0-3.6,1.6-10.7-1.2-13.6
					c-2-2.1-4.6-1.3-7-0.6c-6.3,1.9-12.4,3.2-19,3.3c-11.6,0.2-23.2-1.9-34.7-3c-23.5-2.3-47.1-0.1-70.5,1.9
					c-26.9,2.2-54.1,4.1-80.8-1.1c-1.9-0.4-2.7,2.5-0.8,2.9c44.3,8.8,88.9-2,133.4-1.5c11.2,0.1,22.3,1.3,33.4,2.6
					c10.4,1.2,20.9,2.2,31.2,0.3c2.7-0.5,5.3-1.2,7.8-2.1c4.8-1.6,5.4,2.4,5.3,6c-0.1,5.9-0.1,11.9-0.2,17.8
					c-0.1,11.9-0.3,23.7-0.4,35.6c-0.3,27-0.6,54.1-1,81.1c0.5-0.5,1-1,1.5-1.5c-71.4,0.2-142.7,0.4-214.1,0.6c0.5,0.5,1,1,1.5,1.5
					c1.5-47.4,1-94.9-1.6-142.3C-18.1,240-21.1,240-21,241.9L-21,241.9z"/>
			</g>
		</g>
		<text transform="matrix(0.8142 0 0 1 -6.0552 340.1743)" class="st1 st2">SEJONG</text>
	</g>
</g>
<g>
	<defs>
		<rect id="SVGID_9_" x="60" y="249.7" width="15" height="150"/>
	</defs>
	<clipPath id="SVGID_10_">
		<use xlink:href="#SVGID_9_"  style="overflow:visible;"/>
	</clipPath>
	<g class="st8">
		<g>
			<rect y="249.7" class="st0" width="225" height="150"/>
		</g>
		<g>
			<g>
				<path d="M1.5,253.6c2.6,47.4,3.1,94.8,1.5,142.3c0,0.8,0.7,1.5,1.5,1.5c71.4-0.2,142.7-0.4,214.1-0.6c0.8,0,1.5-0.7,1.5-1.5
					c0.3-25,0.6-50.1,0.9-75.1c0.1-12.2,0.3-24.4,0.4-36.6c0.1-5.9,0.1-11.9,0.2-17.8c0-3.6,1.6-10.7-1.2-13.6c-2-2.1-4.6-1.3-7-0.6
					c-6.3,1.9-12.4,3.2-19,3.3c-11.6,0.2-23.2-1.9-34.7-3c-23.5-2.3-47.1-0.1-70.5,1.8c-26.9,2.2-54.1,4.1-80.8-1.1
					c-1.9-0.4-2.7,2.5-0.8,2.9c44.3,8.8,88.9-2,133.4-1.6c11.2,0.1,22.3,1.3,33.4,2.6c10.4,1.2,20.9,2.2,31.2,0.3
					c2.7-0.5,5.3-1.2,7.8-2.1c4.8-1.6,5.4,2.4,5.3,6.1c-0.1,5.9-0.1,11.9-0.2,17.8c-0.1,11.9-0.3,23.7-0.4,35.6
					c-0.3,27-0.6,54-1,81.1c0.5-0.5,1-1,1.5-1.5c-71.4,0.2-142.7,0.4-214.1,0.6c0.5,0.5,1,1,1.5,1.5c1.5-47.4,1-94.9-1.6-142.3
					C4.4,251.7,1.4,251.7,1.5,253.6L1.5,253.6z"/>
			</g>
		</g>
		<text transform="matrix(0.8142 0 0 1 16.4448 351.9189)" class="st1 st2">SEJONG</text>
	</g>
</g>
<g>
	<defs>
		<rect id="SVGID_11_" x="97.5" y="249.7" width="15" height="150"/>
	</defs>
	<clipPath id="SVGID_12_">
		<use xlink:href="#SVGID_11_"  style="overflow:visible;"/>
	</clipPath>
	<g class="st9">
		<g>
			<rect x="22.5" y="249.7" class="st0" width="225" height="150"/>
		</g>
		<g>
			<g>
				<path d="M24,253.6c2.6,47.4,3.1,94.8,1.5,142.3c0,0.8,0.7,1.5,1.5,1.5c71.4-0.2,142.7-0.4,214.1-0.6c0.8,0,1.5-0.7,1.5-1.5
					c0.3-25,0.6-50.1,0.9-75.1c0.1-12.2,0.3-24.4,0.4-36.6c0.1-5.9,0.1-11.9,0.2-17.8c0-3.6,1.6-10.7-1.2-13.6c-2-2.1-4.6-1.3-7-0.6
					c-6.3,1.9-12.4,3.2-19,3.3c-11.6,0.2-23.2-1.9-34.7-3c-23.5-2.3-47.1-0.1-70.5,1.8c-26.9,2.2-54.1,4.1-80.8-1.1
					c-1.9-0.4-2.7,2.5-0.8,2.9c44.3,8.8,88.9-2,133.4-1.6c11.2,0.1,22.3,1.3,33.4,2.6c10.4,1.2,20.9,2.2,31.2,0.3
					c2.7-0.5,5.3-1.2,7.8-2.1c4.8-1.6,5.4,2.4,5.3,6.1c-0.1,5.9-0.1,11.9-0.2,17.8c-0.1,11.9-0.3,23.7-0.4,35.6
					c-0.3,27-0.6,54-1,81.1c0.5-0.5,1-1,1.5-1.5c-71.4,0.2-142.7,0.4-214.1,0.6c0.5,0.5,1,1,1.5,1.5c1.5-47.4,1-94.9-1.6-142.3
					C26.9,251.7,23.9,251.7,24,253.6L24,253.6z"/>
			</g>
		</g>
		<text transform="matrix(0.8142 0 0 1 38.9448 351.9189)" class="st1 st2">SEJONG</text>
	</g>
</g>
<g>
	<defs>
		<rect id="SVGID_13_" x="135" y="258.8" width="15" height="150"/>
	</defs>
	<clipPath id="SVGID_14_">
		<use xlink:href="#SVGID_13_"  style="overflow:visible;"/>
	</clipPath>
	<g class="st10">
		<g>
			<rect x="45" y="258.8" class="st0" width="225" height="150"/>
		</g>
		<g>
			<g>
				<path d="M46.5,262.7c2.6,47.4,3.1,94.8,1.5,142.3c0,0.8,0.7,1.5,1.5,1.5c71.4-0.2,142.7-0.4,214.1-0.6c0.8,0,1.5-0.7,1.5-1.5
					c0.3-25.1,0.6-50.1,0.9-75.1c0.1-12.2,0.3-24.4,0.4-36.6c0.1-5.9,0.1-11.9,0.2-17.8c0-3.6,1.6-10.7-1.2-13.6
					c-2-2.1-4.6-1.3-7-0.6c-6.3,1.9-12.4,3.2-19,3.3c-11.6,0.2-23.2-1.9-34.7-3c-23.5-2.3-47.1-0.1-70.5,1.9
					c-26.9,2.2-54.1,4.1-80.8-1.1c-1.9-0.4-2.7,2.5-0.8,2.9c44.3,8.8,88.9-2,133.4-1.5c11.2,0.1,22.3,1.3,33.4,2.6
					c10.4,1.2,20.9,2.2,31.2,0.3c2.7-0.5,5.3-1.2,7.8-2.1c4.8-1.6,5.4,2.4,5.3,6c-0.1,5.9-0.1,11.9-0.2,17.8
					c-0.1,11.9-0.3,23.7-0.4,35.6c-0.3,27-0.6,54-1,81.1c0.5-0.5,1-1,1.5-1.5c-71.4,0.2-142.7,0.4-214.1,0.6c0.5,0.5,1,1,1.5,1.5
					c1.5-47.4,1-94.9-1.6-142.3C49.4,260.8,46.4,260.8,46.5,262.7L46.5,262.7z"/>
			</g>
		</g>
		<text transform="matrix(0.8142 0 0 1 61.4448 360.9828)" class="st1 st2">SEJONG</text>
	</g>
</g>
<g>
	<defs>
		<rect id="SVGID_15_" x="172.5" y="258.8" width="15" height="150"/>
	</defs>
	<clipPath id="SVGID_16_">
		<use xlink:href="#SVGID_15_"  style="overflow:visible;"/>
	</clipPath>
	<g class="st11">
		<g>
			<rect x="67.5" y="258.8" class="st0" width="225" height="150"/>
		</g>
		<g>
			<g>
				<path d="M69,262.7c2.6,47.4,3.1,94.8,1.5,142.3c0,0.8,0.7,1.5,1.5,1.5c71.4-0.2,142.7-0.4,214.1-0.6c0.8,0,1.5-0.7,1.5-1.5
					c0.3-25.1,0.6-50.1,0.9-75.1c0.1-12.2,0.3-24.4,0.4-36.6c0.1-5.9,0.1-11.9,0.2-17.8c0-3.6,1.6-10.7-1.2-13.6
					c-2-2.1-4.6-1.3-7-0.6c-6.3,1.9-12.4,3.2-19,3.3c-11.6,0.2-23.2-1.9-34.7-3c-23.5-2.3-47.1-0.1-70.5,1.9
					c-26.9,2.2-54.1,4.1-80.8-1.1c-1.9-0.4-2.7,2.5-0.8,2.9c44.3,8.8,88.9-2,133.4-1.5c11.2,0.1,22.3,1.3,33.4,2.6
					c10.4,1.2,20.9,2.2,31.2,0.3c2.7-0.5,5.3-1.2,7.8-2.1c4.8-1.6,5.4,2.4,5.3,6c-0.1,5.9-0.1,11.9-0.2,17.8
					c-0.1,11.9-0.3,23.7-0.4,35.6c-0.3,27-0.6,54-1,81.1c0.5-0.5,1-1,1.5-1.5c-71.4,0.2-142.7,0.4-214.1,0.6c0.5,0.5,1,1,1.5,1.5
					c1.5-47.4,1-94.9-1.6-142.3C71.9,260.8,68.9,260.8,69,262.7L69,262.7z"/>
			</g>
		</g>
		<text transform="matrix(0.8142 0 0 1 83.9448 360.9828)" class="st1 st2">SEJONG</text>
	</g>
</g>
<g>
	<defs>
		<rect id="SVGID_17_" x="210" y="258.8" width="15" height="150"/>
	</defs>
	<clipPath id="SVGID_18_">
		<use xlink:href="#SVGID_17_"  style="overflow:visible;"/>
	</clipPath>
	<g class="st12">
		<g>
			<rect x="90" y="258.8" class="st0" width="225" height="150"/>
		</g>
		<g>
			<g>
				<path d="M91.5,262.7c2.6,47.4,3.1,94.8,1.5,142.3c0,0.8,0.7,1.5,1.5,1.5c71.4-0.2,142.7-0.4,214.1-0.6c0.8,0,1.5-0.7,1.5-1.5
					c0.3-25.1,0.6-50.1,0.9-75.1c0.1-12.2,0.3-24.4,0.4-36.6c0.1-5.9,0.1-11.9,0.2-17.8c0-3.6,1.6-10.7-1.2-13.6
					c-2-2.1-4.6-1.3-7-0.6c-6.3,1.9-12.4,3.2-19,3.3c-11.6,0.2-23.2-1.9-34.7-3c-23.5-2.3-47.1-0.1-70.5,1.9
					c-26.9,2.2-54.1,4.1-80.8-1.1c-1.9-0.4-2.7,2.5-0.8,2.9c44.3,8.8,88.9-2,133.4-1.5c11.2,0.1,22.3,1.3,33.4,2.6
					c10.4,1.2,20.9,2.2,31.2,0.3c2.7-0.5,5.3-1.2,7.8-2.1c4.8-1.6,5.4,2.4,5.3,6c-0.1,5.9-0.1,11.9-0.2,17.8
					c-0.1,11.9-0.3,23.7-0.4,35.6c-0.3,27-0.6,54-1,81.1c0.5-0.5,1-1,1.5-1.5c-71.4,0.2-142.7,0.4-214.1,0.6c0.5,0.5,1,1,1.5,1.5
					c1.5-47.4,1-94.9-1.6-142.3C94.4,260.8,91.4,260.8,91.5,262.7L91.5,262.7z"/>
			</g>
		</g>
		<text transform="matrix(0.8142 0 0 1 106.4448 360.9828)" class="st1 st2">SEJONG</text>
	</g>
</g>
<g>
	<defs>
		<rect id="SVGID_19_" x="252.6" y="258.8" width="15" height="150"/>
	</defs>
	<clipPath id="SVGID_20_">
		<use xlink:href="#SVGID_19_"  style="overflow:visible;"/>
	</clipPath>
	<g class="st13">
		<g>
			<rect x="117.6" y="258.8" class="st0" width="225" height="150"/>
		</g>
		<g>
			<g>
				<path d="M119.1,262.7c2.6,47.4,3.1,94.8,1.5,142.3c0,0.8,0.7,1.5,1.5,1.5c71.4-0.2,142.7-0.4,214.1-0.6c0.8,0,1.5-0.7,1.5-1.5
					c0.3-25.1,0.6-50.1,0.9-75.1c0.1-12.2,0.3-24.4,0.4-36.6c0.1-5.9,0.1-11.9,0.2-17.8c0-3.6,1.6-10.7-1.2-13.6
					c-2-2.1-4.6-1.3-7-0.6c-6.3,1.9-12.4,3.2-19,3.3c-11.6,0.2-23.2-1.9-34.7-3c-23.5-2.3-47.1-0.1-70.5,1.9
					c-26.9,2.2-54.1,4.1-80.8-1.1c-1.9-0.4-2.7,2.5-0.8,2.9c44.3,8.8,88.9-2,133.4-1.5c11.2,0.1,22.3,1.3,33.4,2.6
					c10.4,1.2,20.9,2.2,31.2,0.3c2.7-0.5,5.3-1.2,7.8-2.1c4.8-1.6,5.4,2.4,5.3,6c-0.1,5.9-0.1,11.9-0.2,17.8
					c-0.1,11.9-0.3,23.7-0.4,35.6c-0.3,27-0.6,54-1,81.1c0.5-0.5,1-1,1.5-1.5c-71.4,0.2-142.7,0.4-214.1,0.6c0.5,0.5,1,1,1.5,1.5
					c1.5-47.4,1-94.9-1.6-142.3C122,260.8,119,260.8,119.1,262.7L119.1,262.7z"/>
			</g>
		</g>
		<text transform="matrix(0.8142 0 0 1 134.0193 360.9828)" class="st1 st2">SEJONG</text>
	</g>
</g>
<g>
	<defs>
		<rect id="SVGID_21_" x="294.1" y="258.8" width="15" height="150"/>
	</defs>
	<clipPath id="SVGID_22_">
		<use xlink:href="#SVGID_21_"  style="overflow:visible;"/>
	</clipPath>
	<g class="st14">
		<g>
			<rect x="144.1" y="258.8" class="st0" width="225" height="150"/>
		</g>
		<g>
			<g>
				<path d="M145.6,262.7c2.6,47.4,3.1,94.8,1.5,142.3c0,0.8,0.7,1.5,1.5,1.5c71.4-0.2,142.7-0.4,214.1-0.6c0.8,0,1.5-0.7,1.5-1.5
					c0.3-25.1,0.6-50.1,0.9-75.1c0.1-12.2,0.3-24.4,0.4-36.6c0.1-5.9,0.1-11.9,0.2-17.8c0-3.6,1.6-10.7-1.2-13.6
					c-2-2.1-4.6-1.3-7-0.6c-6.3,1.9-12.4,3.2-19,3.3c-11.6,0.2-23.2-1.9-34.7-3c-23.5-2.3-47.1-0.1-70.5,1.9
					c-26.9,2.2-54.1,4.1-80.8-1.1c-1.9-0.4-2.7,2.5-0.8,2.9c44.3,8.8,88.9-2,133.4-1.5c11.2,0.1,22.3,1.3,33.4,2.6
					c10.4,1.2,20.9,2.2,31.2,0.3c2.7-0.5,5.3-1.2,7.8-2.1c4.8-1.6,5.4,2.4,5.3,6c-0.1,5.9-0.1,11.9-0.2,17.8
					c-0.1,11.9-0.3,23.7-0.4,35.6c-0.3,27-0.6,54-1,81.1c0.5-0.5,1-1,1.5-1.5c-71.4,0.2-142.7,0.4-214.1,0.6c0.5,0.5,1,1,1.5,1.5
					c1.5-47.4,1-94.9-1.6-142.3C148.5,260.8,145.5,260.8,145.6,262.7L145.6,262.7z"/>
			</g>
		</g>
		<text transform="matrix(0.8142 0 0 1 160.5406 360.9828)" class="st1 st2">SEJONG</text>
	</g>
</g>
<g>
	<defs>
		<rect id="SVGID_23_" x="334.9" y="258.8" width="15" height="150"/>
	</defs>
	<clipPath id="SVGID_24_">
		<use xlink:href="#SVGID_23_"  style="overflow:visible;"/>
	</clipPath>
	<g class="st15">
		<g>
			<rect x="169.9" y="258.8" class="st0" width="225" height="150"/>
		</g>
		<g>
			<g>
				<path d="M171.5,262.7c2.6,47.4,3.1,94.8,1.5,142.3c0,0.8,0.7,1.5,1.5,1.5c71.4-0.2,142.7-0.4,214.1-0.6c0.8,0,1.5-0.7,1.5-1.5
					c0.3-25.1,0.6-50.1,0.9-75.1c0.1-12.2,0.3-24.4,0.4-36.6c0.1-5.9,0.1-11.9,0.2-17.8c0-3.6,1.6-10.7-1.2-13.6
					c-2-2.1-4.6-1.3-7-0.6c-6.3,1.9-12.4,3.2-19,3.3c-11.6,0.2-23.2-1.9-34.7-3c-23.5-2.3-47.1-0.1-70.5,1.9
					c-26.9,2.2-54.1,4.1-80.8-1.1c-1.9-0.4-2.7,2.5-0.8,2.9c44.3,8.8,88.9-2,133.4-1.5c11.2,0.1,22.3,1.3,33.4,2.6
					c10.4,1.2,20.9,2.2,31.2,0.3c2.7-0.5,5.3-1.2,7.8-2.1c4.8-1.6,5.4,2.4,5.3,6c-0.1,5.9-0.1,11.9-0.2,17.8
					c-0.1,11.9-0.3,23.7-0.4,35.6c-0.3,27-0.6,54-1,81.1c0.5-0.5,1-1,1.5-1.5c-71.4,0.2-142.7,0.4-214.1,0.6c0.5,0.5,1,1,1.5,1.5
					c1.6-47.4,1-94.9-1.6-142.3C174.4,260.8,171.4,260.8,171.5,262.7L171.5,262.7z"/>
			</g>
		</g>
		<text transform="matrix(0.8142 0 0 1 186.3917 360.9827)" class="st1 st2">SEJONG</text>
	</g>
</g>
<g>
	<defs>
		<rect id="SVGID_25_" x="375.1" y="258.8" width="15" height="150"/>
	</defs>
	<clipPath id="SVGID_26_">
		<use xlink:href="#SVGID_25_"  style="overflow:visible;"/>
	</clipPath>
	<g class="st16">
		<g>
			<rect x="195.1" y="258.8" class="st0" width="225" height="150"/>
		</g>
		<g>
			<g>
				<path d="M196.7,262.7c2.6,47.4,3.1,94.8,1.5,142.3c0,0.8,0.7,1.5,1.5,1.5c71.4-0.2,142.7-0.4,214.1-0.6c0.8,0,1.5-0.7,1.5-1.5
					c0.3-25.1,0.6-50.1,0.9-75.1c0.1-12.2,0.3-24.4,0.4-36.6c0.1-5.9,0.1-11.9,0.2-17.8c0-3.6,1.6-10.7-1.2-13.6
					c-2-2.1-4.6-1.3-7-0.6c-6.3,1.9-12.4,3.2-19,3.3c-11.6,0.2-23.2-1.9-34.7-3c-23.5-2.3-47.1-0.1-70.5,1.9
					c-26.9,2.2-54.1,4.1-80.8-1.1c-1.9-0.4-2.7,2.5-0.8,2.9c44.3,8.8,88.9-2,133.4-1.5c11.2,0.1,22.3,1.3,33.4,2.6
					c10.4,1.2,20.9,2.2,31.2,0.3c2.7-0.5,5.3-1.2,7.8-2.1c4.8-1.6,5.4,2.4,5.3,6c-0.1,5.9-0.1,11.9-0.2,17.8
					c-0.1,11.9-0.3,23.7-0.4,35.6c-0.3,27-0.6,54-1,81.1c0.5-0.5,1-1,1.5-1.5c-71.4,0.2-142.7,0.4-214.1,0.6c0.5,0.5,1,1,1.5,1.5
					c1.6-47.4,1-94.9-1.6-142.3C199.5,260.8,196.5,260.8,196.7,262.7L196.7,262.7z"/>
			</g>
		</g>
		<text transform="matrix(0.8142 0 0 1 211.5725 360.9827)" class="st1 st2">SEJONG</text>
	</g>
</g>
<g>
	<defs>
		<rect id="SVGID_27_" x="405.1" y="258.8" width="15" height="150"/>
	</defs>
	<clipPath id="SVGID_28_">
		<use xlink:href="#SVGID_27_"  style="overflow:visible;"/>
	</clipPath>
	<g class="st17">
		<g>
			<rect x="210.1" y="258.8" class="st0" width="225" height="150"/>
		</g>
		<g>
			<g>
				<path d="M211.6,262.7c2.6,47.4,3.1,94.8,1.5,142.3c0,0.8,0.7,1.5,1.5,1.5c71.4-0.2,142.7-0.4,214.1-0.6c0.8,0,1.5-0.7,1.5-1.5
					c0.3-25.1,0.6-50.1,0.9-75.1c0.1-12.2,0.3-24.4,0.4-36.6c0.1-5.9,0.1-11.9,0.2-17.8c0-3.6,1.6-10.7-1.2-13.6
					c-2-2.1-4.6-1.3-7-0.6c-6.3,1.9-12.4,3.2-19,3.3c-11.6,0.2-23.2-1.9-34.7-3c-23.5-2.3-47.1-0.1-70.5,1.9
					c-26.9,2.2-54.1,4.1-80.8-1.1c-1.9-0.4-2.7,2.5-0.8,2.9c44.3,8.8,88.9-2,133.4-1.5c11.2,0.1,22.3,1.3,33.4,2.6
					c10.4,1.2,20.9,2.2,31.2,0.3c2.7-0.5,5.3-1.2,7.8-2.1c4.8-1.6,5.4,2.4,5.3,6c-0.1,5.9-0.1,11.9-0.2,17.8
					c-0.1,11.9-0.3,23.7-0.4,35.6c-0.3,27-0.6,54-1,81.1c0.5-0.5,1-1,1.5-1.5c-71.4,0.2-142.7,0.4-214.1,0.6c0.5,0.5,1,1,1.5,1.5
					c1.6-47.4,1-94.9-1.6-142.3C214.5,260.8,211.5,260.8,211.6,262.7L211.6,262.7z"/>
			</g>
		</g>
		<text transform="matrix(0.8142 0 0 1 226.5087 360.9826)" class="st1 st2">SEJONG</text>
	</g>
</g>
<g>
	<defs>
		<rect id="SVGID_29_" x="442.6" y="258.8" width="15" height="150"/>
	</defs>
	<clipPath id="SVGID_30_">
		<use xlink:href="#SVGID_29_"  style="overflow:visible;"/>
	</clipPath>
	<g class="st18">
		<g>
			<rect x="232.6" y="258.8" class="st0" width="225" height="150"/>
		</g>
		<g>
			<g>
				<path d="M234.2,262.7c2.6,47.4,3.1,94.8,1.5,142.3c0,0.8,0.7,1.5,1.5,1.5c71.4-0.2,142.7-0.4,214.1-0.6c0.8,0,1.5-0.7,1.5-1.5
					c0.3-25.1,0.6-50.1,0.9-75.1c0.1-12.2,0.3-24.4,0.4-36.6c0.1-5.9,0.1-11.9,0.2-17.8c0-3.6,1.6-10.7-1.2-13.6
					c-2-2.1-4.6-1.3-7-0.6c-6.3,1.9-12.4,3.2-19,3.3c-11.6,0.2-23.2-1.9-34.7-3c-23.5-2.3-47.1-0.1-70.5,1.9
					c-26.9,2.2-54.1,4.1-80.8-1.1c-1.9-0.4-2.7,2.5-0.8,2.9c44.3,8.8,88.9-2,133.4-1.5c11.2,0.1,22.3,1.3,33.4,2.6
					c10.4,1.2,20.9,2.2,31.2,0.3c2.7-0.5,5.3-1.2,7.8-2.1c4.8-1.6,5.4,2.4,5.3,6c-0.1,5.9-0.1,11.9-0.2,17.8
					c-0.1,11.9-0.3,23.7-0.4,35.6c-0.3,27-0.6,54-1,81.1c0.5-0.5,1-1,1.5-1.5c-71.4,0.2-142.7,0.4-214.1,0.6c0.5,0.5,1,1,1.5,1.5
					c1.6-47.4,1-94.9-1.6-142.3C237,260.8,234,260.8,234.2,262.7L234.2,262.7z"/>
			</g>
		</g>
		<text transform="matrix(0.8142 0 0 1 249.0725 360.9825)" class="st1 st2">SEJONG</text>
	</g>
</g>
</svg>
