<?xml version="1.0" encoding="utf-8"?>
<!-- Generator: Adobe Illustrator 23.0.0, SVG Export Plug-In . SVG Version: 6.00 Build 0)  -->
<svg version="1.1" id="Layer_1" xmlns="http://www.w3.org/2000/svg" xmlns:xlink="http://www.w3.org/1999/xlink" x="0px" y="0px"
	 viewBox="0 0 225 150" style="enable-background:new 0 0 225 150;" xml:space="preserve">
<style type="text/css">
	.st0{fill:#FFFFFF;}
	.st1{font-family:'saferick';}
	.st2{font-size:90.1908px;}
	.st3{fill:#FFFFFF;stroke:#FF1400;stroke-miterlimit:10;}
	.st4{clip-path:url(#SVGID_2_);}
	.st5{clip-path:url(#SVGID_4_);}
	.st6{clip-path:url(#SVGID_6_);}
	.st7{clip-path:url(#SVGID_8_);}
	.st8{clip-path:url(#SVGID_10_);}
	.st9{clip-path:url(#SVGID_12_);}
	.st10{clip-path:url(#SVGID_14_);}
	.st11{clip-path:url(#SVGID_16_);}
	.st12{clip-path:url(#SVGID_18_);}
	.st13{clip-path:url(#SVGID_20_);}
	.st14{clip-path:url(#SVGID_22_);}
	.st15{clip-path:url(#SVGID_24_);}
	.st16{clip-path:url(#SVGID_26_);}
	.st17{clip-path:url(#SVGID_28_);}
	.st18{clip-path:url(#SVGID_30_);}
</style>
<g>
	<g>
		<rect class="st0" width="225" height="150"/>
	</g>
	<g>
		<g>
			<path d="M2.2,3.2c0.6,24.5,1.1,49,1.4,73.5c0.1,11.9,0.2,23.8,0.2,35.8c0,6,0,11.9,0,17.9c0,3.6-1.5,10.5,0.8,13.8
				c1.6,2.3,4.6,1.9,7.1,1.9c6.3,0.1,12.6,0.1,18.8,0.2c12.2,0.1,24.5,0.1,36.7,0.1c24.1,0,48.2-0.3,72.4-0.7
				c24.4-0.5,48.9-1.1,73.3-2c2.5-0.1,6.4,0.6,7.5-2.4c0.5-1.4,0.1-3-0.1-4.4c-0.4-3.2-0.7-6.4-1-9.7c-1.1-12.3-1.6-24.6-1.8-36.9
				c-0.4-23.8,0-47.7,1-71.5c0.2-3.7,1.5-9.1,0.1-12.6c-1.5-3.8-5.6-3.6-9.1-3.6c-11.9,0-23.8,0.1-35.7,0.2
				C118.8,2.9,64,3.2,9.2,3.5c-1.9,0-1.9,3,0,3C53.8,6.2,98.3,6,142.9,5.8c22.1-0.1,44.3-0.6,66.4-0.3c1,0,3.4-0.3,4.4,0.2
				c3,1.4,1.9,4.1,2,6.2c0.1,2.6-0.3,5.3-0.4,7.8c-0.3,5.9-0.5,11.8-0.6,17.6c-0.3,11.1-0.5,22.2-0.5,33.3c0,21.4,0.3,42.9,2.8,64.2
				c0,0.2,0.7,3.4,0.5,3.9c-1.1,2.2-3.7,1.8-5.6,1.9c-2.6,0.1-5.3,0.2-7.9,0.3c-5.6,0.2-11.2,0.4-16.8,0.5
				c-11.2,0.3-22.5,0.6-33.7,0.9c-44.3,1-88.6,1.3-132.8,0.8c-3.2,0-6.8,0.4-9.9-0.1c-2.3-0.4-2.6,1.1-3.9-2.7c-0.5-1.4,0-3.6,0-5
				c0-6.3,0-12.6,0-18.9c0-12.6-0.1-25.2-0.2-37.7C6.3,53.5,5.8,28.4,5.2,3.2C5.1,1.3,2.1,1.3,2.2,3.2L2.2,3.2z"/>
		</g>
	</g>
	<text transform="matrix(0.6817 0 0 1 8.5713 87.125)" class="st1 st2">SEJONG</text>
</g>
<rect x="1" class="st3" width="15" height="150"/>
<rect x="16" y="0" class="st3" width="15" height="150"/>
<rect x="31" y="0" class="st3" width="15" height="150"/>
<rect x="46" y="0" class="st3" width="15" height="150"/>
<rect x="61" y="0" class="st3" width="15" height="150"/>
<rect x="76" y="0" class="st3" width="15" height="150"/>
<rect x="91" y="0" class="st3" width="15" height="150"/>
<rect x="106" y="0" class="st3" width="15" height="150"/>
<rect x="121" y="0" class="st3" width="15" height="150"/>
<rect x="136" y="0" class="st3" width="15" height="150"/>
<rect x="151" y="0" class="st3" width="15" height="150"/>
<rect x="166" y="0" class="st3" width="15" height="150"/>
<rect x="181" y="0" class="st3" width="15" height="150"/>
<rect x="196" y="0" class="st3" width="15" height="150"/>
<rect x="211" y="0" class="st3" width="15" height="150"/>
<g>
	<defs>
		<rect id="SVGID_1_" x="-189.9" y="355.4" width="15" height="150"/>
	</defs>
	<clipPath id="SVGID_2_">
		<use xlink:href="#SVGID_1_"  style="overflow:visible;"/>
	</clipPath>
	<g class="st4">
		<g>
			<rect x="-190.9" y="355.4" class="st0" width="225" height="150"/>
		</g>
		<g>
			<g>
				<path d="M-188.7,358.6c0.7,24.5,1.1,49,1.4,73.5c0.1,11.9,0.2,23.8,0.2,35.8c0,6,0,11.9,0,17.9c0,3.6-1.4,10.5,0.8,13.8
					c1.6,2.3,4.6,1.9,7.1,1.9c6.3,0.1,12.6,0.1,18.8,0.2c12.2,0.1,24.5,0.1,36.7,0.1c24.1,0,48.2-0.3,72.4-0.7
					c24.4-0.5,48.9-1.1,73.3-2c2.5-0.1,6.4,0.6,7.5-2.4c0.5-1.4,0.1-3-0.1-4.4c-0.4-3.2-0.7-6.4-1-9.7c-1.1-12.3-1.6-24.6-1.8-36.9
					c-0.4-23.8,0-47.7,1-71.5c0.2-3.7,1.5-9.1,0.1-12.6c-1.5-3.8-5.6-3.6-9.1-3.6c-11.9,0-23.8,0.1-35.7,0.2
					c-54.8,0.3-109.6,0.5-164.4,0.8c-1.9,0-1.9,3,0,3c44.6-0.2,89.2-0.4,133.7-0.6c22.1-0.1,44.3-0.6,66.4-0.3c1,0,3.4-0.3,4.4,0.2
					c3,1.4,1.9,4.1,2,6.2c0.1,2.6-0.3,5.3-0.4,7.8c-0.3,5.9-0.5,11.8-0.6,17.6c-0.3,11.1-0.5,22.2-0.5,33.3
					c0,21.4,0.3,42.9,2.8,64.2c0,0.2,0.7,3.4,0.5,3.9c-1.1,2.2-3.7,1.8-5.6,1.9c-2.6,0.1-5.3,0.2-7.9,0.3
					c-5.6,0.2-11.2,0.4-16.8,0.5c-11.2,0.3-22.5,0.6-33.7,0.9c-44.3,1-88.6,1.3-132.8,0.8c-3.2,0-6.8,0.4-9.9-0.1
					c-2.3-0.4-2.6,1.1-3.9-2.7c-0.5-1.4,0-3.6,0-5c0-6.3,0-12.6,0-18.9c0-12.6-0.1-25.2-0.2-37.8c-0.2-25.2-0.7-50.3-1.4-75.5
					C-185.8,356.7-188.8,356.7-188.7,358.6L-188.7,358.6z"/>
			</g>
		</g>
		<text transform="matrix(0.6817 0 0 1 -182.3357 442.4861)" class="st1 st2">SEJONG</text>
	</g>
</g>
<g>
	<defs>
		<rect id="SVGID_3_" x="-145.2" y="362.6" width="15" height="150"/>
	</defs>
	<clipPath id="SVGID_4_">
		<use xlink:href="#SVGID_3_"  style="overflow:visible;"/>
	</clipPath>
	<g class="st5">
		<g>
			<rect x="-161.2" y="362.6" class="st0" width="225" height="150"/>
		</g>
		<g>
			<g>
				<path d="M-159,365.8c0.6,24.5,1.1,49,1.3,73.5c0.1,11.9,0.2,23.8,0.2,35.8c0,6,0,11.9,0,17.9c0,3.6-1.5,10.5,0.8,13.8
					c1.6,2.3,4.6,1.9,7.1,1.9c6.3,0.1,12.6,0.1,18.8,0.2c12.2,0.1,24.5,0.1,36.7,0.1c24.1,0,48.2-0.3,72.4-0.7
					c24.4-0.5,48.9-1.1,73.3-2c2.5-0.1,6.4,0.5,7.5-2.4c0.5-1.4,0.1-3-0.1-4.4c-0.4-3.2-0.7-6.4-1-9.7c-1.1-12.3-1.6-24.6-1.8-36.9
					c-0.4-23.8,0-47.7,1-71.5c0.2-3.7,1.5-9.1,0.1-12.6c-1.5-3.8-5.6-3.6-9.1-3.6c-11.9,0-23.8,0.1-35.7,0.2
					c-54.8,0.3-109.6,0.5-164.4,0.8c-1.9,0-1.9,3,0,3c44.6-0.2,89.2-0.4,133.7-0.6c22.1-0.1,44.3-0.6,66.4-0.3c1,0,3.4-0.3,4.4,0.2
					c3,1.4,1.9,4.1,2,6.2c0.1,2.6-0.3,5.3-0.4,7.8c-0.3,5.9-0.5,11.8-0.6,17.6c-0.3,11.1-0.5,22.2-0.5,33.3
					c0,21.4,0.3,42.9,2.8,64.2c0,0.2,0.7,3.4,0.5,3.9c-1.1,2.2-3.7,1.8-5.6,1.9c-2.6,0.1-5.3,0.2-7.9,0.3
					c-5.6,0.2-11.2,0.4-16.8,0.5c-11.2,0.3-22.5,0.6-33.7,0.9c-44.3,1-88.6,1.3-132.8,0.8c-3.2,0-6.8,0.4-9.9-0.1
					c-2.3-0.4-2.6,1.1-3.9-2.7c-0.5-1.4,0-3.6,0-5c0-6.3,0-12.6,0-18.9c0-12.6-0.1-25.2-0.2-37.8c-0.2-25.2-0.7-50.3-1.4-75.5
					C-156.1,363.9-159.1,363.8-159,365.8L-159,365.8z"/>
			</g>
		</g>
		<text transform="matrix(0.6817 0 0 1 -152.6524 449.6782)" class="st1 st2">SEJONG</text>
	</g>
</g>
<g>
	<defs>
		<rect id="SVGID_5_" x="-90.7" y="362.6" width="15" height="150"/>
	</defs>
	<clipPath id="SVGID_6_">
		<use xlink:href="#SVGID_5_"  style="overflow:visible;"/>
	</clipPath>
	<g class="st6">
		<g>
			<rect x="-121.7" y="362.6" class="st0" width="225" height="150"/>
		</g>
		<g>
			<g>
				<path d="M-119.5,365.8c0.7,24.5,1.1,49,1.4,73.5c0.1,11.9,0.2,23.8,0.2,35.8c0,6,0,11.9,0,17.9c0,3.6-1.4,10.5,0.8,13.8
					c1.6,2.3,4.6,1.9,7.1,1.9c6.3,0.1,12.6,0.1,18.8,0.2c12.2,0.1,24.4,0.1,36.7,0.1c24.1,0,48.2-0.3,72.4-0.7
					c24.4-0.5,48.9-1.1,73.3-2c2.5-0.1,6.4,0.5,7.5-2.4c0.5-1.4,0.1-3-0.1-4.4c-0.4-3.2-0.7-6.4-1-9.7c-1.1-12.3-1.6-24.6-1.8-36.9
					c-0.4-23.8,0-47.7,1-71.5c0.2-3.7,1.5-9.1,0.1-12.6c-1.5-3.8-5.6-3.6-9.1-3.6c-11.9,0-23.8,0.1-35.7,0.2
					c-54.8,0.3-109.6,0.5-164.4,0.8c-1.9,0-1.9,3,0,3c44.6-0.2,89.2-0.4,133.7-0.6c22.1-0.1,44.2-0.6,66.4-0.3c1,0,3.4-0.3,4.4,0.2
					c3,1.4,1.9,4.1,2,6.2c0.1,2.6-0.3,5.3-0.4,7.8c-0.3,5.9-0.5,11.8-0.6,17.6c-0.3,11.1-0.5,22.2-0.5,33.3
					c0,21.4,0.3,42.9,2.8,64.2c0,0.2,0.7,3.4,0.5,3.9c-1.1,2.2-3.7,1.8-5.6,1.9c-2.6,0.1-5.3,0.2-7.9,0.3
					c-5.6,0.2-11.2,0.4-16.8,0.5c-11.2,0.3-22.5,0.6-33.7,0.9c-44.3,1-88.6,1.3-132.8,0.8c-3.2,0-6.8,0.4-9.9-0.1
					c-2.3-0.4-2.6,1.1-3.9-2.7c-0.5-1.4,0-3.6,0-5c0-6.3,0-12.6,0-18.9c0-12.6-0.1-25.2-0.2-37.8c-0.2-25.2-0.7-50.3-1.4-75.5
					C-116.6,363.9-119.6,363.8-119.5,365.8L-119.5,365.8z"/>
			</g>
		</g>
		<text transform="matrix(0.6817 0 0 1 -113.1441 449.6782)" class="st1 st2">SEJONG</text>
	</g>
</g>
<g>
	<defs>
		<rect id="SVGID_7_" x="-59.4" y="362.6" width="15" height="150"/>
	</defs>
	<clipPath id="SVGID_8_">
		<use xlink:href="#SVGID_7_"  style="overflow:visible;"/>
	</clipPath>
	<g class="st7">
		<g>
			<rect x="-105.4" y="362.6" class="st0" width="225" height="150"/>
		</g>
		<g>
			<g>
				<path d="M-103.2,365.8c0.7,24.5,1.1,49,1.3,73.5c0.1,11.9,0.2,23.8,0.2,35.8c0,6,0,11.9,0,17.9c0,3.6-1.4,10.5,0.8,13.8
					c1.6,2.3,4.6,1.9,7.1,1.9c6.3,0.1,12.6,0.1,18.8,0.2c12.2,0.1,24.5,0.1,36.7,0.1c24.1,0,48.2-0.3,72.4-0.7
					c24.4-0.5,48.9-1.1,73.3-2c2.5-0.1,6.4,0.5,7.5-2.4c0.5-1.4,0.1-3-0.1-4.4c-0.4-3.2-0.7-6.4-1-9.7c-1.1-12.3-1.6-24.6-1.8-36.9
					c-0.4-23.8,0-47.7,1-71.5c0.2-3.7,1.5-9.1,0.1-12.6c-1.5-3.8-5.6-3.6-9.1-3.6c-11.9,0-23.8,0.1-35.7,0.2
					c-54.8,0.3-109.6,0.5-164.4,0.8c-1.9,0-1.9,3,0,3c44.6-0.2,89.2-0.4,133.7-0.6c22.1-0.1,44.3-0.6,66.4-0.3c1,0,3.4-0.3,4.4,0.2
					c3,1.4,1.9,4.1,2,6.2c0.1,2.6-0.3,5.3-0.4,7.8c-0.3,5.9-0.5,11.8-0.6,17.6c-0.3,11.1-0.5,22.2-0.5,33.3
					c0,21.4,0.3,42.9,2.8,64.2c0,0.2,0.7,3.4,0.5,3.9c-1.1,2.2-3.7,1.8-5.6,1.9c-2.6,0.1-5.3,0.2-7.9,0.3
					c-5.6,0.2-11.2,0.4-16.8,0.5c-11.2,0.3-22.5,0.6-33.7,0.9c-44.3,1-88.6,1.3-132.8,0.8c-3.2,0-6.8,0.4-9.9-0.1
					c-2.3-0.4-2.6,1.1-3.9-2.7c-0.5-1.4,0-3.6,0-5c0-6.3,0-12.6,0-18.9c0-12.6-0.1-25.2-0.2-37.8c-0.2-25.2-0.7-50.3-1.4-75.5
					C-100.3,363.9-103.3,363.8-103.2,365.8L-103.2,365.8z"/>
			</g>
		</g>
		<text transform="matrix(0.6817 0 0 1 -96.8567 449.6782)" class="st1 st2">SEJONG</text>
	</g>
</g>
<g>
	<defs>
		<rect id="SVGID_9_" x="-22.2" y="362.6" width="15" height="150"/>
	</defs>
	<clipPath id="SVGID_10_">
		<use xlink:href="#SVGID_9_"  style="overflow:visible;"/>
	</clipPath>
	<g class="st8">
		<g>
			<rect x="-83.2" y="362.6" class="st0" width="225" height="150"/>
		</g>
		<g>
			<g>
				<path d="M-81,365.8c0.6,24.5,1.1,49,1.3,73.5c0.1,11.9,0.2,23.8,0.2,35.8c0,6,0,11.9,0,17.9c0,3.6-1.4,10.5,0.8,13.8
					c1.6,2.3,4.6,1.9,7.1,1.9c6.3,0.1,12.6,0.1,18.8,0.2c12.2,0.1,24.5,0.1,36.7,0.1c24.1,0,48.2-0.3,72.4-0.7
					c24.5-0.5,48.9-1.1,73.3-2c2.5-0.1,6.4,0.5,7.5-2.4c0.5-1.4,0.1-3-0.1-4.4c-0.4-3.2-0.7-6.4-1-9.7c-1.1-12.3-1.6-24.6-1.8-36.9
					c-0.4-23.8,0-47.7,1-71.5c0.2-3.7,1.5-9.1,0.1-12.6c-1.5-3.8-5.6-3.6-9.1-3.6c-11.9,0-23.8,0.1-35.7,0.2
					C35.6,365.5-19.2,365.7-74,366c-1.9,0-1.9,3,0,3c44.6-0.2,89.2-0.4,133.7-0.6c22.1-0.1,44.3-0.6,66.4-0.3c1,0,3.4-0.3,4.4,0.2
					c3,1.4,1.9,4.1,2,6.2c0.1,2.6-0.3,5.3-0.4,7.8c-0.3,5.9-0.5,11.8-0.6,17.6c-0.3,11.1-0.5,22.2-0.5,33.3
					c0,21.4,0.3,42.9,2.8,64.2c0,0.2,0.7,3.4,0.5,3.9c-1.1,2.2-3.7,1.8-5.6,1.9c-2.6,0.1-5.3,0.2-7.9,0.3
					c-5.6,0.2-11.2,0.4-16.8,0.5c-11.2,0.3-22.5,0.6-33.7,0.9c-44.3,1-88.6,1.3-132.8,0.8c-3.2,0-6.8,0.4-9.9-0.1
					c-2.3-0.4-2.6,1.1-3.9-2.7c-0.5-1.4,0-3.6,0-5c0-6.3,0-12.6,0-18.9c0-12.6-0.1-25.2-0.2-37.8c-0.2-25.2-0.7-50.3-1.4-75.5
					C-78.1,363.9-81.1,363.8-81,365.8L-81,365.8z"/>
			</g>
		</g>
		<text transform="matrix(0.6817 0 0 1 -74.6177 449.6782)" class="st1 st2">SEJONG</text>
	</g>
</g>
<g>
	<defs>
		<rect id="SVGID_11_" x="20.8" y="362.6" width="15" height="150"/>
	</defs>
	<clipPath id="SVGID_12_">
		<use xlink:href="#SVGID_11_"  style="overflow:visible;"/>
	</clipPath>
	<g class="st9">
		<g>
			<rect x="-55.2" y="362.6" class="st0" width="225" height="150"/>
		</g>
		<g>
			<g>
				<path d="M-53,365.8c0.6,24.5,1.1,49,1.3,73.5c0.1,11.9,0.2,23.8,0.2,35.8c0,6,0,11.9,0,17.9c0,3.6-1.5,10.5,0.8,13.8
					c1.6,2.3,4.6,1.9,7.1,1.9c6.3,0.1,12.6,0.1,18.8,0.2c12.2,0.1,24.5,0.1,36.7,0.1c24.1,0,48.2-0.3,72.4-0.7
					c24.4-0.5,48.9-1.1,73.3-2c2.5-0.1,6.4,0.5,7.5-2.4c0.5-1.4,0.1-3-0.1-4.4c-0.4-3.2-0.7-6.4-1-9.7c-1.1-12.3-1.6-24.6-1.8-36.9
					c-0.4-23.8,0-47.7,1-71.5c0.2-3.7,1.5-9.1,0.1-12.6c-1.5-3.8-5.6-3.6-9.1-3.6c-11.9,0-23.8,0.1-35.7,0.2
					C63.6,365.5,8.8,365.7-46,366c-1.9,0-1.9,3,0,3c44.6-0.2,89.2-0.4,133.7-0.6c22.1-0.1,44.3-0.6,66.4-0.3c1,0,3.4-0.3,4.4,0.2
					c3,1.4,1.9,4.1,2,6.2c0.1,2.6-0.3,5.3-0.4,7.8c-0.3,5.9-0.5,11.8-0.6,17.6c-0.3,11.1-0.5,22.2-0.5,33.3
					c0,21.4,0.3,42.9,2.8,64.2c0,0.2,0.7,3.4,0.5,3.9c-1.1,2.2-3.7,1.8-5.6,1.9c-2.6,0.1-5.3,0.2-7.9,0.3
					c-5.6,0.2-11.2,0.4-16.8,0.5c-11.2,0.3-22.5,0.6-33.7,0.9c-44.3,1-88.6,1.3-132.8,0.8c-3.2,0-6.8,0.4-9.9-0.1
					c-2.3-0.4-2.6,1.1-3.9-2.7c-0.5-1.4,0-3.6,0-5c0-6.3,0-12.6,0-18.9c0-12.6-0.1-25.2-0.2-37.8c-0.2-25.2-0.7-50.3-1.4-75.5
					C-50,363.9-53,363.8-53,365.8L-53,365.8z"/>
			</g>
		</g>
		<text transform="matrix(0.6817 0 0 1 -46.5932 449.6782)" class="st1 st2">SEJONG</text>
	</g>
</g>
<g>
	<defs>
		<rect id="SVGID_13_" x="57.7" y="379.1" width="15" height="150"/>
	</defs>
	<clipPath id="SVGID_14_">
		<use xlink:href="#SVGID_13_"  style="overflow:visible;"/>
	</clipPath>
	<g class="st10">
		<g>
			<rect x="-33.3" y="379.1" class="st0" width="225" height="150"/>
		</g>
		<g>
			<g>
				<path d="M-31.1,382.3c0.6,24.5,1.1,49,1.3,73.5c0.1,11.9,0.2,23.8,0.2,35.8c0,6,0,11.9,0,17.9c0,3.7-1.5,10.5,0.8,13.8
					c1.6,2.3,4.6,1.8,7.1,1.9c6.3,0.1,12.6,0.1,18.8,0.2c12.2,0.1,24.5,0.1,36.7,0.1c24.1,0,48.2-0.3,72.4-0.7
					c24.5-0.5,48.9-1.1,73.3-2c2.5-0.1,6.4,0.5,7.5-2.4c0.5-1.4,0.1-3-0.1-4.4c-0.4-3.2-0.7-6.4-1-9.7c-1.1-12.3-1.6-24.6-1.8-36.9
					c-0.4-23.8,0-47.7,1-71.5c0.2-3.7,1.5-9.1,0.1-12.6c-1.5-3.8-5.6-3.6-9.1-3.6c-11.9,0-23.8,0.1-35.7,0.2
					c-54.8,0.3-109.6,0.5-164.4,0.8c-1.9,0-1.9,3,0,3c44.6-0.2,89.2-0.4,133.7-0.6c22.1-0.1,44.3-0.6,66.4-0.3c1,0,3.4-0.3,4.4,0.2
					c3,1.4,1.9,4.1,2,6.2c0.1,2.6-0.3,5.3-0.4,7.8c-0.3,5.9-0.5,11.8-0.6,17.6c-0.3,11.1-0.5,22.2-0.5,33.3
					c0,21.4,0.3,42.9,2.8,64.2c0,0.2,0.7,3.4,0.5,3.9c-1.1,2.2-3.7,1.8-5.6,1.9c-2.6,0.1-5.3,0.2-7.9,0.3
					c-5.6,0.2-11.2,0.4-16.8,0.5c-11.2,0.3-22.5,0.6-33.7,0.9c-44.3,1-88.6,1.3-132.8,0.8c-3.2,0-6.8,0.4-9.9-0.1
					c-2.3-0.4-2.6,1.1-3.9-2.7c-0.5-1.4,0-3.6,0-5c0-6.3,0-12.6,0-18.9c0-12.6-0.1-25.2-0.2-37.8c-0.2-25.2-0.7-50.3-1.4-75.5
					C-28.2,380.4-31.2,380.4-31.1,382.3L-31.1,382.3z"/>
			</g>
		</g>
		<text transform="matrix(0.6817 0 0 1 -24.7399 466.2314)" class="st1 st2">SEJONG</text>
	</g>
</g>
<g>
	<defs>
		<rect id="SVGID_15_" x="100.1" y="400.9" width="15" height="150"/>
	</defs>
	<clipPath id="SVGID_16_">
		<use xlink:href="#SVGID_15_"  style="overflow:visible;"/>
	</clipPath>
	<g class="st11">
		<g>
			<rect x="-5.9" y="400.9" class="st0" width="225" height="150"/>
		</g>
		<g>
			<g>
				<path d="M-3.7,404.1c0.6,24.5,1.1,49,1.4,73.5c0.1,11.9,0.2,23.8,0.2,35.8c0,6,0,11.9,0,17.9c0,3.6-1.5,10.5,0.8,13.8
					c1.6,2.3,4.6,1.9,7.1,1.9c6.3,0.1,12.6,0.1,18.8,0.2c12.2,0.1,24.5,0.1,36.7,0.1c24.1,0,48.2-0.3,72.4-0.7
					c24.4-0.5,48.9-1.1,73.3-2c2.5-0.1,6.4,0.5,7.5-2.4c0.5-1.3,0.1-3-0.1-4.4c-0.4-3.2-0.7-6.4-1-9.7c-1.1-12.3-1.6-24.6-1.8-36.9
					c-0.4-23.8,0-47.7,1-71.5c0.2-3.7,1.5-9.1,0.1-12.6c-1.5-3.8-5.6-3.6-9.1-3.6c-11.9,0-23.8,0.1-35.7,0.2
					c-54.8,0.3-109.6,0.5-164.4,0.8c-1.9,0-1.9,3,0,3c44.6-0.2,89.2-0.4,133.7-0.7c22.1-0.1,44.3-0.6,66.4-0.3c1,0,3.4-0.3,4.4,0.2
					c3,1.4,1.9,4.1,2,6.2c0.1,2.6-0.3,5.3-0.4,7.8c-0.3,5.9-0.5,11.8-0.6,17.6c-0.3,11.1-0.5,22.2-0.5,33.3
					c0,21.4,0.3,42.9,2.8,64.2c0,0.2,0.7,3.4,0.5,3.9c-1.1,2.2-3.7,1.8-5.6,1.9c-2.6,0.1-5.3,0.2-7.9,0.3
					c-5.6,0.2-11.2,0.4-16.8,0.5c-11.2,0.3-22.5,0.6-33.7,0.9c-44.3,1-88.6,1.3-132.8,0.8c-3.2,0-6.8,0.4-9.9-0.1
					c-2.3-0.4-2.6,1.1-3.9-2.7c-0.5-1.3,0-3.6,0-5c0-6.3,0-12.6,0-18.9c0-12.6-0.1-25.2-0.2-37.8c-0.2-25.2-0.7-50.3-1.4-75.5
					C-0.7,402.2-3.7,402.2-3.7,404.1L-3.7,404.1z"/>
			</g>
		</g>
		<text transform="matrix(0.6817 0 0 1 2.7175 488.0399)" class="st1 st2">SEJONG</text>
	</g>
</g>
<g>
	<defs>
		<rect id="SVGID_17_" x="145.7" y="407.9" width="15" height="150"/>
	</defs>
	<clipPath id="SVGID_18_">
		<use xlink:href="#SVGID_17_"  style="overflow:visible;"/>
	</clipPath>
	<g class="st12">
		<g>
			<rect x="24.7" y="407.9" class="st0" width="225" height="150"/>
		</g>
		<g>
			<g>
				<path d="M26.8,411.2c0.6,24.5,1.1,49,1.4,73.5c0.1,11.9,0.2,23.8,0.2,35.8c0,6,0,11.9,0,17.9c0,3.7-1.4,10.5,0.8,13.8
					c1.6,2.3,4.6,1.8,7.1,1.9c6.3,0.1,12.6,0.1,18.8,0.2c12.2,0.1,24.5,0.1,36.7,0.1c24.1,0,48.2-0.3,72.4-0.7
					c24.4-0.5,48.9-1.1,73.3-2c2.5-0.1,6.4,0.5,7.5-2.4c0.5-1.4,0.1-3-0.1-4.4c-0.4-3.2-0.7-6.4-1-9.7c-1.1-12.3-1.6-24.6-1.8-36.9
					c-0.4-23.8,0-47.7,1-71.5c0.2-3.7,1.5-9.1,0.1-12.6c-1.5-3.8-5.6-3.6-9.1-3.6c-11.9,0-23.8,0.1-35.7,0.2
					c-54.8,0.3-109.6,0.5-164.4,0.8c-1.9,0-1.9,3,0,3c44.6-0.2,89.2-0.4,133.7-0.6c22.1-0.1,44.3-0.6,66.4-0.3c1,0,3.4-0.3,4.4,0.2
					c3,1.4,1.9,4.1,2,6.2c0.1,2.6-0.3,5.3-0.4,7.8c-0.3,5.9-0.5,11.8-0.6,17.6c-0.3,11.1-0.5,22.2-0.5,33.3
					c0,21.4,0.3,42.9,2.8,64.2c0,0.2,0.7,3.4,0.5,3.9c-1.1,2.2-3.7,1.8-5.6,1.9c-2.6,0.1-5.3,0.2-7.9,0.3
					c-5.6,0.2-11.2,0.4-16.8,0.5c-11.2,0.3-22.5,0.6-33.7,0.9c-44.3,1-88.5,1.3-132.8,0.8c-3.2,0-6.8,0.4-9.9-0.1
					c-2.3-0.4-2.6,1.1-3.9-2.7c-0.5-1.4,0-3.6,0-5c0-6.3,0-12.6,0-18.9c0-12.6-0.1-25.2-0.2-37.8c-0.2-25.2-0.7-50.3-1.4-75.5
					C29.8,409.2,26.8,409.2,26.8,411.2L26.8,411.2z"/>
			</g>
		</g>
		<text transform="matrix(0.6817 0 0 1 33.2388 495.0612)" class="st1 st2">SEJONG</text>
	</g>
</g>
<g>
	<defs>
		<rect id="SVGID_19_" x="189.2" y="419.5" width="15" height="150"/>
	</defs>
	<clipPath id="SVGID_20_">
		<use xlink:href="#SVGID_19_"  style="overflow:visible;"/>
	</clipPath>
	<g class="st13">
		<g>
			<rect x="53.2" y="419.5" class="st0" width="225" height="150"/>
		</g>
		<g>
			<g>
				<path d="M55.4,422.8c0.6,24.5,1.1,49,1.3,73.5c0.1,11.9,0.2,23.8,0.2,35.8c0,6,0,11.9,0,17.9c0,3.7-1.5,10.5,0.8,13.8
					c1.6,2.3,4.6,1.8,7.1,1.9c6.3,0.1,12.6,0.1,18.8,0.2c12.2,0.1,24.4,0.1,36.7,0.1c24.1,0,48.2-0.3,72.4-0.7
					c24.4-0.5,48.9-1.1,73.3-2c2.5-0.1,6.4,0.5,7.5-2.4c0.5-1.4,0.1-3-0.1-4.4c-0.4-3.2-0.7-6.4-1-9.7c-1.1-12.3-1.6-24.6-1.8-36.9
					c-0.4-23.8,0-47.7,1-71.5c0.2-3.7,1.5-9.1,0-12.6c-1.5-3.8-5.6-3.6-9.1-3.6c-11.9,0-23.8,0.1-35.7,0.2
					c-54.8,0.3-109.6,0.5-164.4,0.8c-1.9,0-1.9,3,0,3c44.6-0.2,89.2-0.4,133.7-0.6c22.1-0.1,44.3-0.6,66.4-0.3c1,0,3.4-0.3,4.4,0.2
					c3,1.4,1.9,4.1,2,6.2c0.1,2.6-0.3,5.3-0.4,7.8c-0.3,5.9-0.5,11.8-0.6,17.6c-0.3,11.1-0.5,22.2-0.5,33.3
					c0,21.4,0.3,42.9,2.8,64.2c0,0.2,0.7,3.4,0.5,3.9c-1.1,2.2-3.7,1.8-5.6,1.9c-2.6,0.1-5.3,0.2-7.9,0.3
					c-5.6,0.2-11.2,0.4-16.8,0.5c-11.2,0.3-22.5,0.6-33.7,0.9c-44.3,1-88.6,1.3-132.8,0.8c-3.2,0-6.8,0.4-9.9-0.1
					c-2.3-0.4-2.6,1.1-3.9-2.7c-0.5-1.4,0-3.6,0-5c0-6.3,0-12.6,0-18.9c0-12.6-0.1-25.2-0.2-37.7c-0.2-25.2-0.7-50.3-1.4-75.5
					C58.4,420.8,55.4,420.8,55.4,422.8L55.4,422.8z"/>
			</g>
		</g>
		<text transform="matrix(0.6817 0 0 1 61.8076 506.657)" class="st1 st2">SEJONG</text>
	</g>
</g>
<g>
	<defs>
		<rect id="SVGID_21_" x="231.5" y="375.1" width="15" height="150"/>
	</defs>
	<clipPath id="SVGID_22_">
		<use xlink:href="#SVGID_21_"  style="overflow:visible;"/>
	</clipPath>
	<g class="st14">
		<g>
			<rect x="80.5" y="375.1" class="st0" width="225" height="150"/>
		</g>
		<g>
			<g>
				<path d="M82.7,378.4c0.7,24.5,1.1,49,1.3,73.5c0.1,11.9,0.2,23.8,0.2,35.8c0,6,0,11.9,0,17.9c0,3.6-1.5,10.5,0.8,13.8
					c1.6,2.3,4.6,1.8,7.1,1.9c6.3,0.1,12.6,0.1,18.8,0.2c12.2,0.1,24.5,0.1,36.7,0.1c24.1,0,48.2-0.3,72.4-0.7
					c24.4-0.5,48.9-1.1,73.3-2c2.5-0.1,6.4,0.5,7.5-2.4c0.5-1.4,0-3-0.1-4.4c-0.4-3.2-0.7-6.4-1-9.7c-1.1-12.3-1.6-24.6-1.8-36.9
					c-0.4-23.8,0-47.7,1-71.5c0.2-3.7,1.5-9.1,0.1-12.6c-1.5-3.8-5.6-3.6-9.1-3.6c-11.9,0-23.8,0.1-35.7,0.2
					c-54.8,0.3-109.6,0.5-164.4,0.8c-1.9,0-1.9,3,0,3c44.6-0.2,89.2-0.4,133.7-0.7c22.1-0.1,44.3-0.6,66.4-0.3c1,0,3.5-0.3,4.4,0.2
					c3,1.4,1.9,4.1,2,6.2c0.1,2.6-0.3,5.3-0.4,7.8c-0.3,5.9-0.5,11.8-0.6,17.6c-0.3,11.1-0.5,22.2-0.5,33.3
					c0,21.4,0.3,42.9,2.8,64.2c0,0.2,0.7,3.4,0.5,3.9c-1.1,2.2-3.7,1.8-5.6,1.9c-2.6,0.1-5.3,0.2-7.9,0.3
					c-5.6,0.2-11.2,0.4-16.8,0.5c-11.2,0.3-22.5,0.6-33.7,0.9c-44.3,1-88.6,1.3-132.8,0.8c-3.2,0-6.8,0.4-9.9-0.1
					c-2.3-0.4-2.6,1.1-3.9-2.7c-0.5-1.4,0-3.6,0-5c0-6.3,0-12.6,0-18.9c0-12.6-0.1-25.2-0.2-37.8c-0.2-25.2-0.7-50.3-1.4-75.5
					C85.7,376.4,82.7,376.4,82.7,378.4L82.7,378.4z"/>
			</g>
		</g>
		<text transform="matrix(0.6817 0 0 1 89.1055 462.274)" class="st1 st2">SEJONG</text>
	</g>
</g>
<g>
	<defs>
		<rect id="SVGID_23_" x="279.5" y="390.6" width="15" height="150"/>
	</defs>
	<clipPath id="SVGID_24_">
		<use xlink:href="#SVGID_23_"  style="overflow:visible;"/>
	</clipPath>
	<g class="st15">
		<g>
			<rect x="113.5" y="390.6" class="st0" width="225" height="150"/>
		</g>
		<g>
			<g>
				<path d="M115.7,393.9c0.6,24.5,1.1,49,1.3,73.5c0.1,11.9,0.2,23.8,0.2,35.8c0,6,0,11.9,0,17.9c0,3.7-1.4,10.5,0.8,13.8
					c1.6,2.3,4.6,1.8,7.1,1.9c6.3,0.1,12.6,0.1,18.8,0.2c12.2,0.1,24.4,0.1,36.7,0.1c24.1,0,48.2-0.3,72.4-0.7
					c24.4-0.5,48.9-1.1,73.3-2c2.5-0.1,6.4,0.5,7.5-2.4c0.5-1.4,0.1-3-0.1-4.4c-0.4-3.2-0.7-6.4-1-9.7c-1.1-12.3-1.6-24.6-1.8-36.9
					c-0.4-23.8,0-47.7,1-71.5c0.2-3.7,1.5-9.1,0-12.6c-1.5-3.8-5.6-3.6-9.1-3.6c-11.9,0-23.8,0.1-35.7,0.2
					c-54.8,0.3-109.6,0.5-164.4,0.8c-1.9,0-1.9,3,0,3c44.6-0.2,89.2-0.4,133.7-0.6c22.1-0.1,44.3-0.6,66.4-0.3c1,0,3.4-0.3,4.4,0.2
					c3,1.4,1.9,4.1,2,6.2c0.1,2.6-0.3,5.3-0.4,7.8c-0.3,5.9-0.5,11.8-0.6,17.6c-0.3,11.1-0.5,22.2-0.5,33.3
					c0,21.4,0.3,42.9,2.8,64.2c0,0.2,0.7,3.4,0.5,3.9c-1.1,2.2-3.7,1.8-5.6,1.9c-2.6,0.1-5.3,0.2-7.9,0.3
					c-5.6,0.2-11.2,0.4-16.8,0.5c-11.2,0.3-22.5,0.6-33.7,0.9c-44.3,1-88.5,1.3-132.8,0.8c-3.2,0-6.8,0.4-9.9-0.1
					c-2.3-0.4-2.6,1.1-3.9-2.7c-0.5-1.4,0-3.6,0-5c0-6.3,0-12.6,0-18.9c0-12.6-0.1-25.2-0.2-37.7c-0.2-25.2-0.7-50.3-1.4-75.5
					C118.6,391.9,115.6,391.9,115.7,393.9L115.7,393.9z"/>
			</g>
		</g>
		<text transform="matrix(0.6817 0 0 1 122.0843 477.7635)" class="st1 st2">SEJONG</text>
	</g>
</g>
<g>
	<defs>
		<rect id="SVGID_25_" x="325.8" y="398.3" width="15" height="150"/>
	</defs>
	<clipPath id="SVGID_26_">
		<use xlink:href="#SVGID_25_"  style="overflow:visible;"/>
	</clipPath>
	<g class="st16">
		<g>
			<rect x="144.8" y="398.3" class="st0" width="225" height="150"/>
		</g>
		<g>
			<g>
				<path d="M147,401.5c0.6,24.5,1.1,49,1.4,73.5c0.1,11.9,0.2,23.8,0.2,35.8c0,6,0,11.9,0,17.9c0,3.6-1.4,10.5,0.8,13.8
					c1.6,2.3,4.6,1.9,7.1,1.9c6.3,0.1,12.6,0.1,18.8,0.2c12.2,0.1,24.5,0.1,36.7,0.1c24.1,0,48.2-0.3,72.4-0.7
					c24.5-0.5,48.9-1.1,73.3-2c2.5-0.1,6.4,0.6,7.5-2.4c0.5-1.3,0-3-0.1-4.4c-0.4-3.2-0.7-6.4-1-9.7c-1.1-12.3-1.6-24.6-1.8-36.9
					c-0.4-23.8,0-47.7,1-71.5c0.2-3.7,1.5-9.1,0.1-12.6c-1.5-3.8-5.6-3.6-9.1-3.6c-11.9,0-23.8,0.1-35.7,0.2
					c-54.8,0.3-109.6,0.5-164.4,0.8c-1.9,0-1.9,3,0,3c44.6-0.2,89.2-0.4,133.7-0.6c22.1-0.1,44.3-0.6,66.4-0.3c1,0,3.5-0.3,4.4,0.2
					c3,1.4,1.9,4.1,2,6.2c0.1,2.6-0.3,5.3-0.4,7.8c-0.3,5.9-0.5,11.8-0.6,17.6c-0.3,11.1-0.5,22.2-0.5,33.3
					c0,21.4,0.3,42.9,2.8,64.2c0,0.2,0.7,3.4,0.5,3.9c-1.1,2.2-3.7,1.8-5.6,1.9c-2.6,0.1-5.3,0.2-7.9,0.3
					c-5.6,0.2-11.2,0.4-16.8,0.5c-11.2,0.3-22.5,0.6-33.7,0.9c-44.3,1-88.6,1.3-132.8,0.8c-3.2,0-6.8,0.4-9.9-0.1
					c-2.3-0.4-2.6,1.1-3.9-2.7c-0.5-1.3,0-3.6,0-5c0-6.3,0-12.6,0-18.9c0-12.6-0.1-25.2-0.2-37.8c-0.2-25.2-0.7-50.3-1.4-75.5
					C149.9,399.6,146.9,399.5,147,401.5L147,401.5z"/>
			</g>
		</g>
		<text transform="matrix(0.6817 0 0 1 153.3716 485.3846)" class="st1 st2">SEJONG</text>
	</g>
</g>
<g>
	<defs>
		<rect id="SVGID_27_" x="368" y="408.4" width="15" height="150"/>
	</defs>
	<clipPath id="SVGID_28_">
		<use xlink:href="#SVGID_27_"  style="overflow:visible;"/>
	</clipPath>
	<g class="st17">
		<g>
			<rect x="172" y="408.4" class="st0" width="225" height="150"/>
		</g>
		<g>
			<g>
				<path d="M174.2,411.6c0.7,24.5,1.1,49,1.4,73.5c0.1,11.9,0.2,23.8,0.2,35.8c0,6,0,11.9,0,17.9c0,3.7-1.4,10.5,0.8,13.8
					c1.6,2.3,4.6,1.8,7.1,1.9c6.3,0.1,12.6,0.1,18.8,0.2c12.2,0.1,24.4,0.1,36.7,0.1c24.1,0,48.2-0.3,72.4-0.7
					c24.4-0.5,48.9-1.1,73.3-2c2.5-0.1,6.4,0.5,7.5-2.4c0.5-1.4,0.1-3-0.1-4.4c-0.4-3.2-0.7-6.4-1-9.7c-1.1-12.3-1.6-24.6-1.8-36.9
					c-0.4-23.8,0-47.7,1-71.5c0.2-3.7,1.5-9.1,0-12.6c-1.5-3.8-5.6-3.6-9.1-3.6c-11.9,0-23.8,0.1-35.7,0.2
					c-54.8,0.3-109.6,0.5-164.4,0.8c-1.9,0-1.9,3,0,3c44.6-0.2,89.2-0.4,133.7-0.6c22.1-0.1,44.3-0.6,66.4-0.3c1,0,3.4-0.3,4.4,0.2
					c3,1.4,1.9,4.1,2,6.2c0.1,2.6-0.3,5.3-0.4,7.8c-0.3,5.9-0.5,11.8-0.6,17.6c-0.3,11.1-0.5,22.2-0.5,33.3
					c0,21.4,0.3,42.9,2.8,64.2c0,0.2,0.7,3.4,0.5,3.9c-1.1,2.2-3.7,1.8-5.6,1.9c-2.6,0.1-5.3,0.2-7.9,0.3
					c-5.6,0.2-11.2,0.4-16.8,0.5c-11.2,0.3-22.5,0.6-33.7,0.9c-44.3,1-88.5,1.3-132.8,0.8c-3.2,0-6.8,0.4-9.9-0.1
					c-2.3-0.4-2.6,1.1-3.9-2.7c-0.5-1.4,0-3.6,0-5c0-6.3,0-12.6,0-18.9c0-12.6-0.1-25.2-0.2-37.7c-0.2-25.2-0.7-50.3-1.4-75.5
					C177.2,409.7,174.2,409.7,174.2,411.6L174.2,411.6z"/>
			</g>
		</g>
		<text transform="matrix(0.6817 0 0 1 180.6144 495.5122)" class="st1 st2">SEJONG</text>
	</g>
</g>
<g>
	<defs>
		<rect id="SVGID_29_" x="416.9" y="408.4" width="15" height="150"/>
	</defs>
	<clipPath id="SVGID_30_">
		<use xlink:href="#SVGID_29_"  style="overflow:visible;"/>
	</clipPath>
	<g class="st18">
		<g>
			<rect x="205.9" y="408.4" class="st0" width="225" height="150"/>
		</g>
		<g>
			<g>
				<path d="M208.1,411.6c0.6,24.5,1.1,49,1.3,73.5c0.1,11.9,0.2,23.8,0.2,35.8c0,6,0,11.9,0,17.9c0,3.7-1.5,10.5,0.8,13.8
					c1.6,2.3,4.6,1.8,7.1,1.9c6.3,0.1,12.6,0.1,18.8,0.2c12.2,0.1,24.5,0.1,36.7,0.1c24.1,0,48.2-0.3,72.4-0.7
					c24.4-0.5,48.9-1.1,73.3-2c2.5-0.1,6.4,0.5,7.5-2.4c0.5-1.4,0.1-3-0.1-4.4c-0.4-3.2-0.7-6.4-1-9.7c-1.1-12.3-1.6-24.6-1.8-36.9
					c-0.4-23.8,0-47.7,1-71.5c0.2-3.7,1.5-9.1,0-12.6c-1.5-3.8-5.6-3.6-9.1-3.6c-11.9,0-23.8,0.1-35.7,0.2
					c-54.8,0.3-109.6,0.5-164.4,0.8c-1.9,0-1.9,3,0,3c44.6-0.2,89.1-0.4,133.7-0.6c22.1-0.1,44.3-0.6,66.4-0.3c1,0,3.4-0.3,4.4,0.2
					c3,1.4,1.9,4.1,2,6.2c0.1,2.6-0.3,5.3-0.4,7.8c-0.3,5.9-0.5,11.8-0.6,17.6c-0.3,11.1-0.5,22.2-0.5,33.3
					c0,21.4,0.3,42.9,2.8,64.2c0,0.2,0.7,3.4,0.5,3.9c-1.1,2.2-3.7,1.8-5.6,1.9c-2.6,0.1-5.3,0.2-7.9,0.3
					c-5.6,0.2-11.2,0.4-16.8,0.5c-11.2,0.3-22.5,0.6-33.7,0.9c-44.3,1-88.5,1.3-132.8,0.8c-3.2,0-6.8,0.4-9.9-0.1
					c-2.3-0.4-2.6,1.1-3.9-2.7c-0.5-1.4,0-3.6,0-5c0-6.3,0-12.6,0-18.9c0-12.6-0.1-25.2-0.2-37.7c-0.2-25.2-0.7-50.3-1.4-75.5
					C211,409.7,208,409.7,208.1,411.6L208.1,411.6z"/>
			</g>
		</g>
		<text transform="matrix(0.6817 0 0 1 214.4785 495.5124)" class="st1 st2">SEJONG</text>
	</g>
</g>
</svg>
