<?xml version="1.0" encoding="utf-8"?>
<!-- Generator: Adobe Illustrator 23.0.0, SVG Export Plug-In . SVG Version: 6.00 Build 0)  -->
<svg version="1.1" id="Layer_1" xmlns="http://www.w3.org/2000/svg" xmlns:xlink="http://www.w3.org/1999/xlink" x="0px" y="0px"
	 viewBox="0 0 15 150" style="enable-background:new 0 0 15 150;" xml:space="preserve">
<style type="text/css">
	.st0{clip-path:url(#SVGID_2_);}
	.st1{fill:#FFFFFF;}
	.st2{clip-path:url(#SVGID_4_);}
	.st3{clip-path:url(#SVGID_6_);}
	.st4{clip-path:url(#SVGID_8_);}
	.st5{clip-path:url(#SVGID_10_);}
	.st6{clip-path:url(#SVGID_12_);}
	.st7{clip-path:url(#SVGID_14_);}
	.st8{clip-path:url(#SVGID_16_);}
	.st9{clip-path:url(#SVGID_18_);}
	.st10{font-family:'Humbleboysdemo';}
	.st11{font-size:54.6491px;}
	.st12{clip-path:url(#SVGID_20_);}
	.st13{clip-path:url(#SVGID_22_);}
	.st14{clip-path:url(#SVGID_24_);}
	.st15{clip-path:url(#SVGID_26_);}
	.st16{clip-path:url(#SVGID_28_);}
	.st17{clip-path:url(#SVGID_30_);}
</style>
<g>
	<defs>
		<rect id="SVGID_17_" x="-70" width="15" height="150"/>
	</defs>
	<clipPath id="SVGID_2_">
		<use xlink:href="#SVGID_17_"  style="overflow:visible;"/>
	</clipPath>
	<g class="st0">
		<g>
			<rect x="-190" y="0" class="st1" width="225" height="150"/>
		</g>
		<g>
			<g>
				<path d="M-186.57,6.46c0.26,25.16,0.52,50.32,0.78,75.49c0.13,12.58,0.26,25.16,0.39,37.74c0.06,5.96,0.12,11.92,0.18,17.88
					c0.03,3.26-1.09,8.45,2.13,10.63c3.15,2.14,8.98,0.79,12.49,0.7c6.61-0.16,13.22-0.3,19.83-0.44
					c12.56-0.26,25.12-0.48,37.68-0.67c24.79-0.37,49.59-0.6,74.39-0.68c12.56-0.04,25.13-0.05,37.69-0.03
					c5.95,0.01,11.9,0.03,17.85,0.06c4.17,0.02,10.47,1.3,14.39-0.43c2.75-1.21,3.11-3.82,2.84-6.54c-0.58-5.8-2.05-11.52-2.6-17.35
					c-1.09-11.62-1-23.32-0.57-34.97c0.87-23.35,3.23-46.83,0.57-70.15c-0.48-4.24-0.51-9.63-2.31-13.52
					c-1.58-3.4-4.39-3.22-7.76-2.99C9.18,2.02-3.01,2.94-15.25,3.44c-55.65,2.27-111.51,0.8-167.2,0.52c-1.93-0.01-1.93,2.99,0,3
					c45.58,0.23,91.19,0.97,136.77,0.31C-34.22,7.1-22.76,6.8-11.31,6.29c5.23-0.23,10.47-0.51,15.7-0.84
					c5.47-0.34,11.57-1.64,17.03-1.24c4.71,0.34,5.29,1.71,5.97,5.71c0.49,2.89,0.89,5.79,1.2,8.71c0.59,5.48,0.91,10.99,1.04,16.5
					c0.26,10.79-0.2,21.58-0.74,32.35c-1.05,20.99-2.45,42.13,0.5,63.03c0.34,2.43,0.77,4.84,1.2,7.25
					c0.16,0.88,0.91,3.15,0.64,3.83c-0.77,1.93-3.87,2.41-5.45,2.59c-5.77,0.66-12.04-0.07-17.85-0.09
					c-11.57-0.04-23.14-0.05-34.72-0.03c-45.96,0.08-91.91,0.64-137.86,1.68c-2.97,0.07-5.95,0.14-8.92,0.21
					c-4.03,0.1-7.76,1.43-8.6-3.44c-1.03-5.93-0.13-12.84-0.19-18.87c-0.13-12.91-0.27-25.82-0.4-38.74
					c-0.27-26.13-0.54-52.28-0.81-78.44C-183.59,4.53-186.59,4.53-186.57,6.46L-186.57,6.46z"/>
			</g>
		</g>
		<text transform="matrix(0.8849 0 0 1 -164.1489 81.4805)" class="st10 st11">SEJONG</text>
	</g>
</g>
<g>
	<defs>
		<rect id="SVGID_19_" x="-35" width="15" height="150"/>
	</defs>
	<clipPath id="SVGID_4_">
		<use xlink:href="#SVGID_19_"  style="overflow:visible;"/>
	</clipPath>
	<g class="st2">
		<g>
			<rect x="-170" y="0" class="st1" width="225" height="150"/>
		</g>
		<g>
			<g>
				<path d="M-166.57,6.46c0.26,25.16,0.52,50.32,0.78,75.49c0.13,12.58,0.26,25.16,0.39,37.74c0.06,5.96,0.12,11.92,0.18,17.88
					c0.03,3.26-1.09,8.45,2.13,10.63c3.15,2.14,8.98,0.79,12.49,0.7c6.61-0.16,13.22-0.3,19.83-0.44
					c12.56-0.26,25.12-0.48,37.68-0.67c24.79-0.37,49.59-0.6,74.39-0.68c12.56-0.04,25.13-0.05,37.69-0.03
					c5.95,0.01,11.9,0.03,17.85,0.06c4.17,0.02,10.47,1.3,14.39-0.43c2.75-1.21,3.11-3.82,2.84-6.54c-0.58-5.8-2.05-11.52-2.6-17.35
					c-1.09-11.62-1-23.32-0.57-34.97c0.87-23.35,3.23-46.83,0.57-70.15c-0.48-4.24-0.51-9.63-2.31-13.52
					c-1.58-3.4-4.39-3.22-7.76-2.99C29.18,2.02,16.99,2.94,4.75,3.44c-55.65,2.27-111.51,0.8-167.2,0.52c-1.93-0.01-1.93,2.99,0,3
					c45.58,0.23,91.19,0.97,136.77,0.31C-14.22,7.1-2.76,6.8,8.69,6.29c5.23-0.23,10.47-0.51,15.7-0.84
					c5.47-0.34,11.57-1.64,17.03-1.24c4.71,0.34,5.29,1.71,5.97,5.71c0.49,2.89,0.89,5.79,1.2,8.71c0.59,5.48,0.91,10.99,1.04,16.5
					c0.26,10.79-0.2,21.58-0.74,32.35c-1.05,20.99-2.45,42.13,0.5,63.03c0.34,2.43,0.77,4.84,1.2,7.25
					c0.16,0.88,0.91,3.15,0.64,3.83c-0.77,1.93-3.87,2.41-5.45,2.59c-5.77,0.66-12.04-0.07-17.85-0.09
					c-11.57-0.04-23.14-0.05-34.72-0.03c-45.96,0.08-91.91,0.64-137.86,1.68c-2.97,0.07-5.95,0.14-8.92,0.21
					c-4.03,0.1-7.76,1.43-8.6-3.44c-1.03-5.93-0.13-12.84-0.19-18.87c-0.13-12.91-0.27-25.82-0.4-38.74
					c-0.27-26.13-0.54-52.28-0.81-78.44C-163.59,4.53-166.59,4.53-166.57,6.46L-166.57,6.46z"/>
			</g>
		</g>
		<text transform="matrix(0.8849 0 0 1 -144.1489 81.4805)" class="st10 st11">SEJONG</text>
	</g>
</g>
<g>
	<defs>
		<rect id="SVGID_21_" width="15" height="150"/>
	</defs>
	<clipPath id="SVGID_6_">
		<use xlink:href="#SVGID_21_"  style="overflow:visible;"/>
	</clipPath>
	<g class="st3">
		<g>
			<rect x="-150" y="0" class="st1" width="225" height="150"/>
		</g>
		<g>
			<g>
				<path d="M-146.57,6.46c0.26,25.16,0.52,50.32,0.78,75.49c0.13,12.58,0.26,25.16,0.39,37.74c0.06,5.96,0.12,11.92,0.18,17.88
					c0.03,3.26-1.09,8.45,2.13,10.63c3.15,2.14,8.98,0.79,12.49,0.7c6.61-0.16,13.22-0.3,19.83-0.44
					c12.56-0.26,25.12-0.48,37.68-0.67c24.79-0.37,49.59-0.6,74.39-0.68c12.56-0.04,25.13-0.05,37.69-0.03
					c5.95,0.01,11.9,0.03,17.85,0.06c4.17,0.02,10.47,1.3,14.39-0.43c2.75-1.21,3.11-3.82,2.84-6.54c-0.58-5.8-2.05-11.52-2.6-17.35
					c-1.09-11.62-1-23.32-0.57-34.97c0.87-23.35,3.23-46.83,0.57-70.15c-0.48-4.24-0.51-9.63-2.31-13.52
					c-1.58-3.4-4.39-3.22-7.76-2.99C49.18,2.02,36.99,2.94,24.75,3.44c-55.65,2.27-111.51,0.8-167.2,0.52c-1.93-0.01-1.93,2.99,0,3
					C-96.87,7.19-51.26,7.93-5.68,7.27C5.78,7.1,17.24,6.8,28.69,6.29c5.23-0.23,10.47-0.51,15.7-0.84
					c5.47-0.34,11.57-1.64,17.03-1.24c4.71,0.34,5.29,1.71,5.97,5.71c0.49,2.89,0.89,5.79,1.2,8.71c0.59,5.48,0.91,10.99,1.04,16.5
					c0.26,10.79-0.2,21.58-0.74,32.35c-1.05,20.99-2.45,42.13,0.5,63.03c0.34,2.43,0.77,4.84,1.2,7.25
					c0.16,0.88,0.91,3.15,0.64,3.83c-0.77,1.93-3.87,2.41-5.45,2.59c-5.77,0.66-12.04-0.07-17.85-0.09
					c-11.57-0.04-23.14-0.05-34.72-0.03c-45.96,0.08-91.91,0.64-137.86,1.68c-2.97,0.07-5.95,0.14-8.92,0.21
					c-4.03,0.1-7.76,1.43-8.6-3.44c-1.03-5.93-0.13-12.84-0.19-18.87c-0.13-12.91-0.27-25.82-0.4-38.74
					c-0.27-26.13-0.54-52.28-0.81-78.44C-143.59,4.53-146.59,4.53-146.57,6.46L-146.57,6.46z"/>
			</g>
		</g>
		<text transform="matrix(0.8849 0 0 1 -124.1489 81.4805)" class="st10 st11">SEJONG</text>
	</g>
</g>
<g>
	<defs>
		<rect id="SVGID_23_" x="35" width="15" height="150"/>
	</defs>
	<clipPath id="SVGID_8_">
		<use xlink:href="#SVGID_23_"  style="overflow:visible;"/>
	</clipPath>
	<g class="st4">
		<g>
			<rect x="-130" y="0" class="st1" width="225" height="150"/>
		</g>
		<g>
			<g>
				<path d="M-126.57,6.46c0.26,25.16,0.52,50.32,0.78,75.49c0.13,12.58,0.26,25.16,0.39,37.74c0.06,5.96,0.12,11.92,0.18,17.88
					c0.03,3.26-1.09,8.45,2.13,10.63c3.15,2.14,8.98,0.79,12.49,0.7c6.61-0.16,13.22-0.3,19.83-0.44
					c12.56-0.26,25.12-0.48,37.68-0.67c24.79-0.37,49.59-0.6,74.39-0.68c12.56-0.04,25.13-0.05,37.69-0.03
					c5.95,0.01,11.9,0.03,17.85,0.06c4.17,0.02,10.47,1.3,14.39-0.43c2.75-1.21,3.11-3.82,2.84-6.54c-0.58-5.8-2.05-11.52-2.6-17.35
					c-1.09-11.62-1-23.32-0.57-34.97c0.87-23.35,3.23-46.83,0.57-70.15c-0.48-4.24-0.51-9.63-2.31-13.52
					c-1.58-3.4-4.39-3.22-7.76-2.99C69.18,2.02,56.99,2.94,44.75,3.44c-55.65,2.27-111.51,0.8-167.2,0.52c-1.93-0.01-1.93,2.99,0,3
					c45.58,0.23,91.19,0.97,136.77,0.31C25.78,7.1,37.24,6.8,48.69,6.29c5.23-0.23,10.47-0.51,15.7-0.84
					c5.47-0.34,11.57-1.64,17.03-1.24c4.71,0.34,5.29,1.71,5.97,5.71c0.49,2.89,0.89,5.79,1.2,8.71c0.59,5.48,0.91,10.99,1.04,16.5
					c0.26,10.79-0.2,21.58-0.74,32.35c-1.05,20.99-2.45,42.13,0.5,63.03c0.34,2.43,0.77,4.84,1.2,7.25
					c0.16,0.88,0.91,3.15,0.64,3.83c-0.77,1.93-3.87,2.41-5.45,2.59c-5.77,0.66-12.04-0.07-17.85-0.09
					c-11.57-0.04-23.14-0.05-34.72-0.03c-45.96,0.08-91.91,0.64-137.86,1.68c-2.97,0.07-5.95,0.14-8.92,0.21
					c-4.03,0.1-7.76,1.43-8.6-3.44c-1.03-5.93-0.13-12.84-0.19-18.87c-0.13-12.91-0.27-25.82-0.4-38.74
					c-0.27-26.13-0.54-52.28-0.81-78.44C-123.59,4.53-126.59,4.53-126.57,6.46L-126.57,6.46z"/>
			</g>
		</g>
		<text transform="matrix(0.8849 0 0 1 -104.1489 81.4805)" class="st10 st11">SEJONG</text>
	</g>
</g>
</svg>
