<?xml version="1.0" encoding="utf-8"?>
<!-- Generator: Adobe Illustrator 23.0.0, SVG Export Plug-In . SVG Version: 6.00 Build 0)  -->
<svg version="1.1" id="Layer_1" xmlns="http://www.w3.org/2000/svg" xmlns:xlink="http://www.w3.org/1999/xlink" x="0px" y="0px"
	 viewBox="0 0 15 150" style="enable-background:new 0 0 15 150;" xml:space="preserve">
<style type="text/css">
	.st0{clip-path:url(#SVGID_2_);}
	.st1{fill:#FFFFFF;}
	.st2{clip-path:url(#SVGID_4_);}
	.st3{clip-path:url(#SVGID_6_);}
	.st4{clip-path:url(#SVGID_8_);}
	.st5{clip-path:url(#SVGID_10_);}
	.st6{clip-path:url(#SVGID_12_);}
	.st7{clip-path:url(#SVGID_14_);}
	.st8{clip-path:url(#SVGID_16_);}
	.st9{clip-path:url(#SVGID_18_);}
	.st10{clip-path:url(#SVGID_20_);}
	.st11{clip-path:url(#SVGID_22_);}
	.st12{clip-path:url(#SVGID_24_);}
	.st13{clip-path:url(#SVGID_26_);}
	.st14{clip-path:url(#SVGID_28_);}
	.st15{clip-path:url(#SVGID_30_);}
</style>
<g>
	<defs>
		<rect id="SVGID_19_" x="-70" width="15" height="150"/>
	</defs>
	<clipPath id="SVGID_2_">
		<use xlink:href="#SVGID_19_"  style="overflow:visible;"/>
	</clipPath>
	<g class="st0">
		<g>
			<rect x="-205" y="0" class="st1" width="225" height="150"/>
		</g>
		<g>
			<g>
				<path d="M-201.64,4.08c0.17,25.27,0.34,50.55,0.52,75.82c0.09,12.64,0.17,25.27,0.26,37.91c0.04,5.99,0.07,11.97,0.12,17.96
					c0.03,3.63-0.12,7.42,2.86,9.98c2.37,2.04,5.67,2.49,8.68,2.59c6.07,0.2,12.25-0.41,18.32-0.6c12.54-0.39,25.08-0.64,37.63-0.74
					c24.76-0.2,49.52,0.16,74.27,1.09c22.67,0.85,47.12,4.41,69.45-1.11c3.09-0.76,6.11-1.87,7.22-5.11
					c1.39-4.03-1.02-9.63-1.79-13.57c-2.41-12.22-3.8-24.62-4.43-37.05c-1.22-24.01,0.37-48.08,2.97-71.96
					c0.38-3.5,2.09-8.68,0.44-12.04c-1.65-3.34-6.23-2.98-9.33-3.24c-12.31-0.99-24.65-1.41-37-1.45
					C-86.73,2.37-142,9.41-197.24,4.18c-1.92-0.18-1.91,2.82,0,3c44.81,4.24,89.73,0.44,134.58-1.08
					c22.73-0.77,45.53-0.93,68.22,0.91c3.52,0.29,6.1,0.97,6.75,4.74c0.37,2.17-0.61,5.32-0.86,7.53
					c-0.62,5.66-1.18,11.33-1.65,17.01C8.9,47.01,8.28,57.77,8.12,68.53c-0.33,21.53,1.14,43.17,5.66,64.26
					c0.65,3.01,2.65,7.55-0.43,10.02c-1.74,1.39-5.22,1.61-7.34,1.99c-6,1.06-12.08,1.55-18.16,1.74
					c-10.67,0.33-21.33-0.34-31.98-0.84c-45.51-2.12-91.11-2.34-136.64-0.64c-5.95,0.22-15.21,2.25-16.91-5.65
					c-0.62-2.9-0.08-6.68-0.1-9.64c-0.02-2.99-0.04-5.99-0.06-8.98c-0.09-12.97-0.18-25.94-0.27-38.91
					c-0.18-25.92-0.35-51.86-0.53-77.8C-198.66,2.15-201.66,2.14-201.64,4.08L-201.64,4.08z"/>
			</g>
		</g>
	</g>
</g>
<g>
	<defs>
		<rect id="SVGID_21_" x="-35" width="15" height="150"/>
	</defs>
	<clipPath id="SVGID_4_">
		<use xlink:href="#SVGID_21_"  style="overflow:visible;"/>
	</clipPath>
	<g class="st2">
		<g>
			<rect x="-185" y="0" class="st1" width="225" height="150"/>
		</g>
		<g>
			<g>
				<path d="M-181.64,4.08c0.17,25.27,0.34,50.55,0.52,75.82c0.09,12.64,0.17,25.27,0.26,37.91c0.04,5.99,0.07,11.97,0.12,17.96
					c0.03,3.63-0.12,7.42,2.86,9.98c2.37,2.04,5.67,2.49,8.68,2.59c6.07,0.2,12.25-0.41,18.32-0.6c12.54-0.39,25.08-0.64,37.63-0.74
					c24.76-0.2,49.52,0.16,74.27,1.09c22.67,0.85,47.12,4.41,69.45-1.11c3.09-0.76,6.11-1.87,7.22-5.11
					c1.39-4.03-1.02-9.63-1.79-13.57c-2.41-12.22-3.8-24.62-4.43-37.05c-1.22-24.01,0.37-48.08,2.97-71.96
					c0.38-3.5,2.09-8.68,0.44-12.04c-1.65-3.34-6.23-2.98-9.33-3.24C13.24,3.02,0.9,2.6-11.45,2.56
					C-66.73,2.37-122,9.41-177.24,4.18c-1.92-0.18-1.91,2.82,0,3c44.81,4.24,89.73,0.44,134.58-1.08
					c22.73-0.77,45.53-0.93,68.22,0.91c3.52,0.29,6.1,0.97,6.75,4.74c0.37,2.17-0.61,5.32-0.86,7.53
					c-0.62,5.66-1.18,11.33-1.65,17.01c-0.9,10.72-1.52,21.48-1.68,32.24c-0.33,21.53,1.14,43.17,5.66,64.26
					c0.65,3.01,2.65,7.55-0.43,10.02c-1.74,1.39-5.22,1.61-7.34,1.99c-6,1.06-12.08,1.55-18.16,1.74
					c-10.67,0.33-21.33-0.34-31.98-0.84c-45.51-2.12-91.11-2.34-136.64-0.64c-5.95,0.22-15.21,2.25-16.91-5.65
					c-0.62-2.9-0.08-6.68-0.1-9.64c-0.02-2.99-0.04-5.99-0.06-8.98c-0.09-12.97-0.18-25.94-0.27-38.91
					c-0.18-25.92-0.35-51.86-0.53-77.8C-178.66,2.15-181.66,2.14-181.64,4.08L-181.64,4.08z"/>
			</g>
		</g>
	</g>
</g>
<g>
	<defs>
		<rect id="SVGID_23_" width="15" height="150"/>
	</defs>
	<clipPath id="SVGID_6_">
		<use xlink:href="#SVGID_23_"  style="overflow:visible;"/>
	</clipPath>
	<g class="st3">
		<g>
			<rect x="-165" y="0" class="st1" width="225" height="150"/>
		</g>
		<g>
			<g>
				<path d="M-161.64,4.08c0.17,25.27,0.34,50.55,0.52,75.82c0.09,12.64,0.17,25.27,0.26,37.91c0.04,5.99,0.07,11.97,0.12,17.96
					c0.03,3.63-0.12,7.42,2.86,9.98c2.37,2.04,5.67,2.49,8.68,2.59c6.07,0.2,12.25-0.41,18.32-0.6c12.54-0.39,25.08-0.64,37.63-0.74
					c24.76-0.2,49.52,0.16,74.27,1.09c22.67,0.85,47.12,4.41,69.45-1.11c3.09-0.76,6.11-1.87,7.22-5.11
					c1.39-4.03-1.02-9.63-1.79-13.57c-2.41-12.22-3.8-24.62-4.43-37.05c-1.22-24.01,0.37-48.08,2.97-71.96
					c0.38-3.5,2.09-8.68,0.44-12.04c-1.65-3.34-6.23-2.98-9.33-3.24C33.24,3.02,20.9,2.6,8.55,2.56
					C-46.73,2.37-102,9.41-157.24,4.18c-1.92-0.18-1.91,2.82,0,3c44.81,4.24,89.73,0.44,134.58-1.08
					C0.07,5.33,22.87,5.17,45.56,7.01c3.52,0.29,6.1,0.97,6.75,4.74c0.37,2.17-0.61,5.32-0.86,7.53
					c-0.62,5.66-1.18,11.33-1.65,17.01c-0.9,10.72-1.52,21.48-1.68,32.24c-0.33,21.53,1.14,43.17,5.66,64.26
					c0.65,3.01,2.65,7.55-0.43,10.02c-1.74,1.39-5.22,1.61-7.34,1.99c-6,1.06-12.08,1.55-18.16,1.74
					c-10.67,0.33-21.33-0.34-31.98-0.84c-45.51-2.12-91.11-2.34-136.64-0.64c-5.95,0.22-15.21,2.25-16.91-5.65
					c-0.62-2.9-0.08-6.68-0.1-9.64c-0.02-2.99-0.04-5.99-0.06-8.98c-0.09-12.97-0.18-25.94-0.27-38.91
					c-0.18-25.92-0.35-51.86-0.53-77.8C-158.66,2.15-161.66,2.14-161.64,4.08L-161.64,4.08z"/>
			</g>
		</g>
	</g>
</g>
</svg>
