<?xml version="1.0" encoding="utf-8"?>
<!-- Generator: Adobe Illustrator 23.0.0, SVG Export Plug-In . SVG Version: 6.00 Build 0)  -->
<svg version="1.1" id="Layer_1" xmlns="http://www.w3.org/2000/svg" xmlns:xlink="http://www.w3.org/1999/xlink" x="0px" y="0px"
	 viewBox="0 0 15 150" style="enable-background:new 0 0 15 150;" xml:space="preserve">
<style type="text/css">
	.st0{clip-path:url(#SVGID_2_);}
	.st1{fill:#FFFFFF;}
	.st2{font-family:'ArialMT';}
	.st3{font-size:42.2219px;}
	.st4{fill:none;stroke:#000000;stroke-miterlimit:10;}
	.st5{font-family:'BabyMonkey-Regular';}
	.st6{font-size:60.9568px;}
	.st7{clip-path:url(#SVGID_4_);}
	.st8{clip-path:url(#SVGID_6_);}
	.st9{clip-path:url(#SVGID_8_);}
	.st10{clip-path:url(#SVGID_10_);}
	.st11{clip-path:url(#SVGID_12_);}
	.st12{clip-path:url(#SVGID_14_);}
	.st13{clip-path:url(#SVGID_16_);}
	.st14{clip-path:url(#SVGID_18_);}
	.st15{clip-path:url(#SVGID_20_);}
	.st16{clip-path:url(#SVGID_22_);}
	.st17{clip-path:url(#SVGID_24_);}
	.st18{clip-path:url(#SVGID_26_);}
	.st19{clip-path:url(#SVGID_28_);}
	.st20{clip-path:url(#SVGID_30_);}
</style>
<g>
	<defs>
		<rect id="SVGID_1_" x="-35" width="15" height="150"/>
	</defs>
	<clipPath id="SVGID_2_">
		<use xlink:href="#SVGID_1_"  style="overflow:visible;"/>
	</clipPath>
	<g class="st0">
		<g>
			<rect x="-35" class="st1" width="225" height="150"/>
		</g>
		<g>
			<g>
				<path d="M-30.09,2.41c-1.18,25.16-2.76,50.34-3.47,75.52c-0.33,11.73,0.87,22.92,2.63,34.48c0.96,6.33,1.77,12.97,0.41,19.31
					c-0.78,3.66-4.08,8.16-2.5,11.96c1.03,2.49,3.62,3.41,6.08,3.81c5.93,0.97,12.4,0.49,18.41,0.65
					c12.58,0.35,25.15,0.69,37.73,1.04c25.19,0.69,50.39,1.67,75.6,1.73c25.15,0.06,50.31-1.24,75.3-4.18
					c3.45-0.41,6.89-0.63,8.59-4.06c2.05-4.16,1.76-10.03,1.38-14.47c-1.02-12.01-4.61-23.33-3.76-35.52
					c0.85-12.35,3.32-24.46,3.69-36.87c0.38-12.59-0.4-25.17-1.39-37.71c-0.6-7.53,0.82-16.23-8.51-17.07
					c-12.19-1.1-24.65-0.88-36.88-0.77C87.59,0.77,31.87,7.29-23.61,0.67c-1.91-0.23-1.9,2.77,0,3c45.1,5.38,90.49,2.1,135.71,0.39
					c22.46-0.85,45.54-2.12,67.97-0.03c6.25,0.58,5.13,9.24,5.51,14.07c0.46,5.8,0.87,11.6,1.15,17.41
					c0.54,11.59,0.52,23.22-0.74,34.76c-1.21,11.01-3.61,22.02-2.74,33.15c0.86,10.99,5.03,21.86,3.81,32.97
					c-0.31,2.8-0.63,5.53-3.88,6.95c-1.29,0.56-3.7,0.47-5.07,0.63c-2.63,0.31-5.26,0.58-7.89,0.84c-5.92,0.59-11.86,1.1-17.79,1.53
					c-11.55,0.82-23.12,1.33-34.69,1.51c-46.02,0.72-92.19-1.75-138.19-3.02c-1.52-0.04-3.08-0.01-4.6-0.14
					c-2.28-0.2-4.92-1.54-5.23-4.28c-0.24-2.14,2.18-5.7,2.65-7.88c1.13-5.29,0.91-10.73,0.27-16.06
					c-1.46-12.3-3.51-24.1-3.25-36.56c0.54-25.84,2.31-51.69,3.52-77.5C-27,0.48-30,0.48-30.09,2.41L-30.09,2.41z"/>
			</g>
		</g>
		<text transform="matrix(0.8483 0 0 1 12.4453 104.4444)" class="st1 st2 st3">SEJONG</text>
		<text transform="matrix(0.7977 0 0 1 -9.0005 74.4419)" class="st4 st5 st6">SEJONG</text>
	</g>
</g>
<g>
	<defs>
		<rect id="SVGID_3_" width="15" height="150"/>
	</defs>
	<clipPath id="SVGID_4_">
		<use xlink:href="#SVGID_3_"  style="overflow:visible;"/>
	</clipPath>
	<g class="st7">
		<g>
			<rect x="-15" class="st1" width="225" height="150"/>
		</g>
		<g>
			<g>
				<path d="M-10.09,2.41c-1.18,25.16-2.76,50.34-3.47,75.52c-0.33,11.73,0.87,22.92,2.63,34.48c0.96,6.33,1.77,12.97,0.41,19.31
					c-0.78,3.66-4.08,8.16-2.5,11.96c1.03,2.49,3.62,3.41,6.08,3.81c5.93,0.97,12.4,0.49,18.41,0.65
					c12.58,0.35,25.15,0.69,37.73,1.04c25.19,0.69,50.39,1.67,75.6,1.73c25.15,0.06,50.31-1.24,75.3-4.18
					c3.45-0.41,6.89-0.63,8.59-4.06c2.05-4.16,1.76-10.03,1.38-14.47c-1.02-12.01-4.61-23.33-3.76-35.52
					c0.85-12.35,3.32-24.46,3.69-36.87c0.38-12.59-0.4-25.17-1.39-37.71c-0.6-7.53,0.82-16.23-8.51-17.07
					c-12.19-1.1-24.65-0.88-36.88-0.77C107.59,0.77,51.87,7.29-3.61,0.67c-1.91-0.23-1.9,2.77,0,3c45.1,5.38,90.49,2.1,135.71,0.39
					c22.46-0.85,45.54-2.12,67.97-0.03c6.25,0.58,5.13,9.24,5.51,14.07c0.46,5.8,0.87,11.6,1.15,17.41
					c0.54,11.59,0.52,23.22-0.74,34.76c-1.21,11.01-3.61,22.02-2.74,33.15c0.86,10.99,5.03,21.86,3.81,32.97
					c-0.31,2.8-0.63,5.53-3.88,6.95c-1.29,0.56-3.7,0.47-5.07,0.63c-2.63,0.31-5.26,0.58-7.89,0.84c-5.92,0.59-11.86,1.1-17.79,1.53
					c-11.55,0.82-23.12,1.33-34.69,1.51c-46.02,0.72-92.19-1.75-138.19-3.02c-1.52-0.04-3.08-0.01-4.6-0.14
					c-2.28-0.2-4.92-1.54-5.23-4.28c-0.24-2.14,2.18-5.7,2.65-7.88c1.13-5.29,0.91-10.73,0.27-16.06
					c-1.46-12.3-3.51-24.1-3.25-36.56c0.54-25.84,2.31-51.69,3.52-77.5C-7,0.48-10,0.48-10.09,2.41L-10.09,2.41z"/>
			</g>
		</g>
		<text transform="matrix(0.7977 0 0 1 10.9995 74.4419)" class="st4 st5 st6">SEJONG</text>
	</g>
</g>
<g>
	<defs>
		<rect id="SVGID_5_" x="35" width="15" height="150"/>
	</defs>
	<clipPath id="SVGID_6_">
		<use xlink:href="#SVGID_5_"  style="overflow:visible;"/>
	</clipPath>
	<g class="st8">
		<g>
			<rect x="5" class="st1" width="225" height="150"/>
		</g>
		<g>
			<g>
				<path d="M9.91,2.41C8.73,27.57,7.15,52.75,6.44,77.93c-0.33,11.73,0.87,22.92,2.63,34.48c0.96,6.33,1.77,12.97,0.41,19.31
					c-0.78,3.66-4.08,8.16-2.5,11.96c1.03,2.49,3.62,3.41,6.08,3.81c5.93,0.97,12.4,0.49,18.41,0.65
					c12.58,0.35,25.15,0.69,37.73,1.04c25.19,0.69,50.39,1.67,75.6,1.73c25.15,0.06,50.31-1.24,75.3-4.18
					c3.45-0.41,6.89-0.63,8.59-4.06c2.05-4.16,1.76-10.03,1.38-14.47c-1.02-12.01-4.61-23.33-3.76-35.52
					c0.85-12.35,3.32-24.46,3.69-36.87c0.38-12.59-0.4-25.17-1.39-37.71c-0.6-7.53,0.82-16.23-8.51-17.07
					c-12.19-1.1-24.65-0.88-36.88-0.77C127.59,0.77,71.87,7.29,16.39,0.67c-1.91-0.23-1.9,2.77,0,3c45.1,5.38,90.49,2.1,135.71,0.39
					c22.46-0.85,45.54-2.12,67.97-0.03c6.25,0.58,5.13,9.24,5.51,14.07c0.46,5.8,0.87,11.6,1.15,17.41
					c0.54,11.59,0.52,23.22-0.74,34.76c-1.21,11.01-3.61,22.02-2.74,33.15c0.86,10.99,5.03,21.86,3.81,32.97
					c-0.31,2.8-0.63,5.53-3.88,6.95c-1.29,0.56-3.7,0.47-5.07,0.63c-2.63,0.31-5.26,0.58-7.89,0.84c-5.92,0.59-11.86,1.1-17.79,1.53
					c-11.55,0.82-23.12,1.33-34.69,1.51c-46.02,0.72-92.19-1.75-138.19-3.02c-1.52-0.04-3.08-0.01-4.6-0.14
					c-2.28-0.2-4.92-1.54-5.23-4.28c-0.24-2.14,2.18-5.7,2.65-7.88c1.13-5.29,0.91-10.73,0.27-16.06
					c-1.46-12.3-3.51-24.1-3.25-36.56c0.54-25.84,2.31-51.69,3.52-77.5C13,0.48,10,0.48,9.91,2.41L9.91,2.41z"/>
			</g>
		</g>
	</g>
</g>
</svg>
