<?xml version="1.0" encoding="utf-8"?>
<!-- Generator: Adobe Illustrator 23.0.0, SVG Export Plug-In . SVG Version: 6.00 Build 0)  -->
<svg version="1.1" id="Layer_1" xmlns="http://www.w3.org/2000/svg" xmlns:xlink="http://www.w3.org/1999/xlink" x="0px" y="0px"
	 viewBox="0 0 15 150" style="enable-background:new 0 0 15 150;" xml:space="preserve">
<style type="text/css">
	.st0{clip-path:url(#SVGID_2_);}
	.st1{fill:#FFFFFF;}
	.st2{clip-path:url(#SVGID_4_);}
	.st3{clip-path:url(#SVGID_6_);}
	.st4{clip-path:url(#SVGID_8_);}
	.st5{clip-path:url(#SVGID_10_);}
	.st6{clip-path:url(#SVGID_12_);}
	.st7{clip-path:url(#SVGID_14_);}
	.st8{clip-path:url(#SVGID_16_);}
	.st9{clip-path:url(#SVGID_18_);}
	.st10{clip-path:url(#SVGID_20_);}
	.st11{clip-path:url(#SVGID_22_);}
	.st12{clip-path:url(#SVGID_24_);}
	.st13{clip-path:url(#SVGID_26_);}
	.st14{clip-path:url(#SVGID_28_);}
	.st15{clip-path:url(#SVGID_30_);}
</style>
<g>
	<g>
		<defs>
			<rect id="SVGID_25_" x="-35" width="15" height="150"/>
		</defs>
		<clipPath id="SVGID_2_">
			<use xlink:href="#SVGID_25_"  style="overflow:visible;"/>
		</clipPath>
		<g class="st0">
			<g>
				<rect x="-215" class="st1" width="225" height="150"/>
			</g>
			<g>
				<g>
					<path d="M-213.3,3.3c2.3,24.7,3.6,49.5,4,74.3c0.1,12.4,0.1,24.8-0.3,37.2c-0.2,5.9-0.4,11.8-0.7,17.6
						c-0.2,3.8-1.4,9.1,0.8,12.6c1.5,2.5,4,2.8,6.7,2.9c6.6,0.1,13.3-0.4,19.9-0.5c12.6-0.3,25.2-0.7,37.8-1
						c25.2-0.7,50.5-1.3,75.7-2c12.6-0.3,25.2-0.7,37.9-1c6-0.2,11.9-0.3,17.9-0.5c5.6-0.1,12.1,0.5,17.6-0.6
						c8.4-1.7,3.3-14.5,2.5-19.9c-1.9-12.5-3.1-25.1-3.7-37.8C2.2,72.5,2.3,60.3,2.9,48.2c0.6-12.7,2.7-25.1,3.9-37.8
						C7.6,1.2-1.3,3-8.1,2.9c-12.4-0.3-24.8-0.7-37.2-1c-13.7-0.3-27.3-0.2-41,1c-13.5,1.2-26.9,2.5-40.4,3
						c-28.2,1.2-56.4,0.4-84.6-0.5c-1.9-0.1-1.9,2.9,0,3c22.9,0.7,45.9,1.3,68.9,0.9C-119.8,8.9-97.5,6.2-75,5
						c22.3-1.2,44.7,0.2,67,0.8C-5.3,5.9-1.8,5.4,0.9,6C5,7,4,9.8,3.5,13.3c-0.7,5.2-1.4,10.4-2,15.6C0.4,40-0.3,51.2-0.4,62.4
						c-0.3,21.6,1.3,43.1,4.7,64.4c0.4,2.6,1.7,6.1,1.4,8.6c-0.5,4.4-5,3.8-8.2,3.9c-6,0.2-11.9,0.3-17.9,0.5
						c-11.6,0.3-23.2,0.6-34.9,0.9c-46.1,1.2-92.3,2.5-138.5,3.7c-3,0.1-6.6,0.7-9.6,0.2c-4.1-0.6-4.2-3.2-4.1-6.6
						c0.2-6.5,0.6-13.1,0.9-19.6c0.4-12.7,0.6-25.5,0.4-38.2c-0.3-25.8-1.6-51.6-4-77.3C-210.5,1.4-213.5,1.4-213.3,3.3L-213.3,3.3z
						"/>
				</g>
			</g>
		</g>
	</g>
</g>
<g>
	<g>
		<defs>
			<rect id="SVGID_27_" width="15" height="150"/>
		</defs>
		<clipPath id="SVGID_4_">
			<use xlink:href="#SVGID_27_"  style="overflow:visible;"/>
		</clipPath>
		<g class="st2">
			<g>
				<rect x="-195" class="st1" width="225" height="150"/>
			</g>
			<g>
				<g>
					<path d="M-193.3,3.3c2.3,24.7,3.6,49.5,4,74.3c0.1,12.4,0,24.8-0.3,37.2c-0.2,5.9-0.4,11.8-0.7,17.6c-0.2,3.8-1.4,9.1,0.8,12.6
						c1.5,2.5,4,2.8,6.7,2.9c6.6,0.1,13.3-0.4,19.9-0.5c12.6-0.3,25.2-0.7,37.9-1c25.2-0.7,50.5-1.3,75.7-2
						c12.6-0.3,25.2-0.7,37.9-1c6-0.2,12-0.3,17.9-0.5c5.6-0.1,12.1,0.6,17.6-0.5c8.4-1.7,3.3-14.5,2.5-19.9
						c-1.9-12.5-3.1-25.1-3.7-37.8c-0.6-12.1-0.5-24.3,0.1-36.5c0.6-12.7,2.7-25.1,3.9-37.8C27.7,1.2,18.8,3,12,2.9
						c-12.4-0.3-24.8-0.7-37.2-1c-13.7-0.3-27.3-0.2-41,1C-79.7,4.1-93.1,5.4-106.6,6c-28.2,1.1-56.4,0.3-84.6-0.5
						c-1.9-0.1-1.9,2.9,0,3c22.9,0.7,45.9,1.3,68.9,0.9C-99.7,9-77.4,6.3-54.9,5.1c22.3-1.2,44.7,0.2,67,0.8C14.8,6,18.3,5.5,21,6.1
						c4.1,0.9,3.1,3.8,2.6,7.3c-0.7,5.2-1.4,10.4-1.9,15.6c-1.1,11.1-1.8,22.3-1.9,33.5c-0.3,21.6,1.3,43.2,4.7,64.4
						c0.4,2.6,1.7,6.1,1.4,8.6c-0.5,4.4-4.9,3.8-8.2,3.9c-6,0.2-12,0.3-17.9,0.5c-11.6,0.3-23.2,0.6-34.9,0.9
						c-46.1,1.2-92.3,2.4-138.5,3.7c-3,0.1-6.6,0.7-9.6,0.2c-4.1-0.6-4.2-3.2-4.1-6.6c0.1-6.5,0.6-13,0.9-19.6
						c0.4-12.7,0.6-25.5,0.4-38.2c-0.3-25.8-1.6-51.6-4-77.3C-190.5,1.4-193.5,1.4-193.3,3.3L-193.3,3.3z"/>
				</g>
			</g>
		</g>
	</g>
</g>
<g>
	<g>
		<defs>
			<rect id="SVGID_29_" x="35" width="15" height="150"/>
		</defs>
		<clipPath id="SVGID_6_">
			<use xlink:href="#SVGID_29_"  style="overflow:visible;"/>
		</clipPath>
		<g class="st3">
			<g>
				<rect x="-175" class="st1" width="225" height="150"/>
			</g>
			<g>
				<g>
					<path d="M-173.3,3.4c2.3,24.7,3.6,49.5,3.9,74.3c0.2,12.4,0.1,24.8-0.3,37.2c-0.2,5.9-0.4,11.8-0.7,17.6
						c-0.2,3.8-1.3,9.1,0.8,12.6c1.5,2.5,4,2.8,6.7,2.9c6.6,0.1,13.3-0.4,19.9-0.5c12.6-0.3,25.2-0.7,37.9-1
						c25.2-0.7,50.5-1.3,75.7-2c12.6-0.3,25.2-0.7,37.9-1c6-0.2,12-0.3,17.9-0.5c5.6-0.1,12.1,0.5,17.6-0.6
						c8.4-1.7,3.3-14.5,2.5-19.9c-1.9-12.5-3.1-25.1-3.7-37.8c-0.6-12.1-0.5-24.3,0.1-36.4c0.6-12.7,2.7-25.1,3.9-37.8
						c0.8-9.2-8.1-7.4-14.9-7.5C19.5,2.7,7.1,2.3-5.3,2c-13.7-0.3-27.3-0.2-41,1c-13.5,1.2-26.9,2.5-40.4,3
						c-28.2,1.1-56.4,0.4-84.6-0.5c-1.9-0.1-1.9,2.9,0,3c22.9,0.7,45.9,1.3,68.9,0.9C-79.8,9-57.5,6.3-35,5.1
						c22.3-1.2,44.7,0.2,67,0.8c2.7,0.1,6.2-0.4,8.9,0.2c4.1,1,3.1,3.8,2.6,7.3c-0.7,5.2-1.4,10.4-2,15.6
						c-1.1,11.1-1.8,22.3-1.9,33.5c-0.3,21.6,1.3,43.1,4.7,64.4c0.4,2.6,1.7,6.1,1.4,8.6c-0.5,4.4-5,3.8-8.2,3.9
						c-6,0.2-12,0.3-17.9,0.5c-11.6,0.3-23.2,0.6-34.9,0.9c-46.1,1.2-92.3,2.5-138.5,3.7c-3,0.1-6.6,0.7-9.6,0.2
						c-4.1-0.6-4.2-3.2-4.1-6.6c0.1-6.5,0.6-13.1,0.8-19.6c0.4-12.7,0.6-25.5,0.5-38.2c-0.3-25.8-1.6-51.6-4-77.3
						C-170.5,1.5-173.5,1.4-173.3,3.4L-173.3,3.4z"/>
				</g>
			</g>
		</g>
	</g>
</g>
</svg>
