<?xml version="1.0" encoding="utf-8"?>
<!-- Generator: Adobe Illustrator 23.0.0, SVG Export Plug-In . SVG Version: 6.00 Build 0)  -->
<svg version="1.1" id="Layer_1" xmlns="http://www.w3.org/2000/svg" xmlns:xlink="http://www.w3.org/1999/xlink" x="0px" y="0px"
	 viewBox="0 0 15 150" style="enable-background:new 0 0 15 150;" xml:space="preserve">
<style type="text/css">
	.st0{clip-path:url(#SVGID_2_);}
	.st1{fill:#FFFFFF;}
	.st2{clip-path:url(#SVGID_4_);}
	.st3{clip-path:url(#SVGID_6_);}
	.st4{clip-path:url(#SVGID_8_);}
	.st5{clip-path:url(#SVGID_10_);}
	.st6{clip-path:url(#SVGID_12_);}
	.st7{clip-path:url(#SVGID_14_);}
	.st8{clip-path:url(#SVGID_16_);}
	.st9{clip-path:url(#SVGID_18_);}
	.st10{clip-path:url(#SVGID_20_);}
	.st11{clip-path:url(#SVGID_22_);}
	.st12{clip-path:url(#SVGID_24_);}
	.st13{clip-path:url(#SVGID_26_);}
	.st14{clip-path:url(#SVGID_28_);}
	.st15{clip-path:url(#SVGID_30_);}
</style>
<g>
	<g>
		<defs>
			<rect id="SVGID_1_" width="15" height="150"/>
		</defs>
		<clipPath id="SVGID_2_">
			<use xlink:href="#SVGID_1_"  style="overflow:visible;"/>
		</clipPath>
		<g class="st0">
			<g>
				<rect class="st1" width="225" height="150"/>
			</g>
			<g>
				<g>
					<path d="M1.7,3.3C4,28,5.3,52.8,5.7,77.6c0.1,12.4,0,24.8-0.3,37.2c-0.2,5.9-0.4,11.8-0.7,17.6c-0.2,3.8-1.4,9.1,0.8,12.6
						c1.5,2.5,4,2.8,6.7,2.9c6.6,0.1,13.3-0.4,19.9-0.5c12.6-0.3,25.2-0.7,37.9-1c25.2-0.7,50.5-1.3,75.7-2
						c12.6-0.3,25.2-0.7,37.9-1c6-0.2,11.9-0.3,17.9-0.5c5.6-0.1,12.1,0.5,17.6-0.6c8.4-1.7,3.3-14.5,2.5-19.9
						c-1.9-12.5-3.1-25.1-3.7-37.8c-0.6-12.1-0.5-24.3,0.1-36.4c0.6-12.7,2.7-25.1,3.9-37.8c0.8-9.2-8.1-7.4-14.9-7.5
						c-12.4-0.3-24.8-0.7-37.2-1c-13.7-0.3-27.3-0.2-41,1c-13.5,1.2-26.9,2.5-40.4,3C60.2,7.1,32,6.3,3.8,5.4c-1.9-0.1-1.9,2.9,0,3
						c22.9,0.7,45.9,1.3,68.9,0.9c22.6-0.4,44.9-3.1,67.4-4.3c22.3-1.2,44.7,0.2,67,0.8c2.7,0.1,6.2-0.4,8.9,0.2
						c4.1,1,3.1,3.8,2.6,7.3c-0.7,5.2-1.4,10.4-1.9,15.6c-1.1,11.1-1.8,22.3-1.9,33.5c-0.3,21.6,1.3,43.1,4.7,64.4
						c0.4,2.6,1.7,6.1,1.4,8.6c-0.5,4.4-4.9,3.8-8.2,3.9c-6,0.2-11.9,0.3-17.9,0.5c-11.6,0.3-23.2,0.6-34.9,0.9
						c-46.2,1.2-92.3,2.5-138.5,3.7c-3,0.1-6.6,0.7-9.6,0.2c-4.1-0.6-4.2-3.2-4.1-6.6c0.1-6.5,0.6-13.1,0.9-19.6
						C9,105.7,9.2,92.9,9,80.2C8.7,54.4,7.4,28.6,5,2.9C4.5,1.4,1.5,1.4,1.7,3.3L1.7,3.3z"/>
				</g>
			</g>
		</g>
	</g>
</g>
</svg>
