<?xml version="1.0" encoding="utf-8"?>
<!-- Generator: Adobe Illustrator 23.0.0, SVG Export Plug-In . SVG Version: 6.00 Build 0)  -->
<svg version="1.1" id="Layer_1" xmlns="http://www.w3.org/2000/svg" xmlns:xlink="http://www.w3.org/1999/xlink" x="0px" y="0px"
	 viewBox="0 0 15 150" style="enable-background:new 0 0 15 150;" xml:space="preserve">
<style type="text/css">
	.st0{clip-path:url(#SVGID_2_);}
	.st1{fill:#FFFFFF;}
	.st2{clip-path:url(#SVGID_4_);}
	.st3{clip-path:url(#SVGID_6_);}
	.st4{clip-path:url(#SVGID_8_);}
	.st5{clip-path:url(#SVGID_10_);}
	.st6{clip-path:url(#SVGID_12_);}
	.st7{clip-path:url(#SVGID_14_);}
	.st8{clip-path:url(#SVGID_16_);}
	.st9{clip-path:url(#SVGID_18_);}
	.st10{clip-path:url(#SVGID_20_);}
	.st11{font-family:'Mickey';}
	.st12{font-size:69.5178px;}
	.st13{clip-path:url(#SVGID_22_);}
	.st14{clip-path:url(#SVGID_24_);}
	.st15{clip-path:url(#SVGID_26_);}
	.st16{clip-path:url(#SVGID_28_);}
	.st17{clip-path:url(#SVGID_30_);}
</style>
<g>
	<defs>
		<rect id="SVGID_19_" x="-70" width="15" height="150"/>
	</defs>
	<clipPath id="SVGID_2_">
		<use xlink:href="#SVGID_19_"  style="overflow:visible;"/>
	</clipPath>
	<g class="st0">
		<g>
			<rect x="-205" y="0" class="st1" width="225" height="150"/>
		</g>
		<g>
			<g>
				<path d="M-200.69,4.68c0.3,24.53,0.6,49.07,0.91,73.6c0.15,12.27,0.3,24.53,0.45,36.8c0.07,5.64,0.14,11.27,0.21,16.91
					c0.04,3.41-1.16,9.6,1.34,12.51c2.29,2.66,6.84,1.91,9.86,1.88c5.98-0.05,11.97-0.1,17.95-0.14c12.63-0.1,25.27-0.2,37.9-0.3
					c24.16-0.19,48.31-0.38,72.47-0.58c12.24-0.1,24.48-0.19,36.72-0.29c12.19-0.1,24.54,0.37,36.72-0.29
					c9.23-0.5,2.63-10.12,1.58-15.43c-2.18-11.01-0.7-22.97-0.63-34.12c0.16-24.47-0.49-48.94-1.94-73.37
					c-0.26-4.32,0.38-10.19-1.18-14.24c-1.23-3.2-4.02-3.36-7.09-3.38c-12.26-0.07-24.53,0.07-36.8,0.11
					c-55.04,0.16-110.07,0.32-165.11,0.48c-1.93,0.01-1.93,3.01,0,3c45.09-0.13,90.18-0.27,135.26-0.4
					c22.19-0.07,44.45-0.66,66.64-0.2c4.52,0.09,4.52,2.94,4.77,6.69c0.18,2.64,0.34,5.28,0.5,7.92c0.33,5.61,0.63,11.23,0.88,16.84
					c0.5,11.23,0.83,22.47,0.98,33.71c0.16,11.24,0.14,22.49-0.04,33.73c-0.15,9.03-0.93,18.48,1.64,27.27
					c0.31,1.08,0.68,2.13,1.09,3.17c1.1,2.84,1.67,1.94-0.19,3.96c-1.88,2.04-5.64,1.28-8.3,1.3c-5.62,0.04-11.25,0.09-16.87,0.13
					c-11.25,0.09-22.49,0.18-33.74,0.27c-45.08,0.36-90.15,0.72-135.23,1.07c-2.99,0.02-5.98,0.05-8.98,0.07
					c-1.29,0.01-2.88,0.34-4.12-0.06c-2.68-0.84-2.77-2.93-3.01-5.37c-0.64-6.51-0.16-13.35-0.25-19.89
					c-0.15-12.27-0.3-24.53-0.45-36.8c-0.32-25.5-0.63-51.03-0.94-76.56C-197.72,2.75-200.72,2.74-200.69,4.68L-200.69,4.68z"/>
			</g>
		</g>
		<text transform="matrix(0.5944 0 0 1 -178 112.5302)" class="st11 st12">SEJONG</text>
	</g>
</g>
<g>
	<defs>
		<rect id="SVGID_21_" x="-35" width="15" height="150"/>
	</defs>
	<clipPath id="SVGID_4_">
		<use xlink:href="#SVGID_21_"  style="overflow:visible;"/>
	</clipPath>
	<g class="st2">
		<g>
			<rect x="-185" y="0" class="st1" width="225" height="150"/>
		</g>
		<g>
			<g>
				<path d="M-180.69,4.68c0.3,24.53,0.6,49.07,0.91,73.6c0.15,12.27,0.3,24.53,0.45,36.8c0.07,5.64,0.14,11.27,0.21,16.91
					c0.04,3.41-1.16,9.6,1.34,12.51c2.29,2.66,6.84,1.91,9.86,1.88c5.98-0.05,11.97-0.1,17.95-0.14c12.63-0.1,25.27-0.2,37.9-0.3
					c24.16-0.19,48.31-0.38,72.47-0.58c12.24-0.1,24.48-0.19,36.72-0.29c12.19-0.1,24.54,0.37,36.72-0.29
					c9.23-0.5,2.63-10.12,1.58-15.43c-2.18-11.01-0.7-22.97-0.63-34.12c0.16-24.47-0.49-48.94-1.94-73.37
					c-0.26-4.32,0.38-10.19-1.18-14.24c-1.23-3.2-4.02-3.36-7.09-3.38C12.32,4.17,0.05,4.31-12.22,4.35
					c-55.04,0.16-110.07,0.32-165.11,0.48c-1.93,0.01-1.93,3.01,0,3c45.09-0.13,90.18-0.27,135.26-0.4
					c22.19-0.07,44.45-0.66,66.64-0.2c4.52,0.09,4.52,2.94,4.77,6.69c0.18,2.64,0.34,5.28,0.5,7.92c0.33,5.61,0.63,11.23,0.88,16.84
					c0.5,11.23,0.83,22.47,0.98,33.71c0.16,11.24,0.14,22.49-0.04,33.73c-0.15,9.03-0.93,18.48,1.64,27.27
					c0.31,1.08,0.68,2.13,1.09,3.17c1.1,2.84,1.67,1.94-0.19,3.96c-1.88,2.04-5.64,1.28-8.3,1.3c-5.62,0.04-11.25,0.09-16.87,0.13
					c-11.25,0.09-22.49,0.18-33.74,0.27c-45.08,0.36-90.15,0.72-135.23,1.07c-2.99,0.02-5.98,0.05-8.98,0.07
					c-1.29,0.01-2.88,0.34-4.12-0.06c-2.68-0.84-2.77-2.93-3.01-5.37c-0.64-6.51-0.16-13.35-0.25-19.89
					c-0.15-12.27-0.3-24.53-0.45-36.8c-0.32-25.5-0.63-51.03-0.94-76.56C-177.72,2.75-180.72,2.74-180.69,4.68L-180.69,4.68z"/>
			</g>
		</g>
		<text transform="matrix(0.5944 0 0 1 -158 112.5302)" class="st11 st12">SEJONG</text>
	</g>
</g>
<g>
	<defs>
		<rect id="SVGID_23_" width="15" height="150"/>
	</defs>
	<clipPath id="SVGID_6_">
		<use xlink:href="#SVGID_23_"  style="overflow:visible;"/>
	</clipPath>
	<g class="st3">
		<g>
			<rect x="-165" y="0" class="st1" width="225" height="150"/>
		</g>
		<g>
			<g>
				<path d="M-160.69,4.68c0.3,24.53,0.6,49.07,0.91,73.6c0.15,12.27,0.3,24.53,0.45,36.8c0.07,5.64,0.14,11.27,0.21,16.91
					c0.04,3.41-1.16,9.6,1.34,12.51c2.29,2.66,6.84,1.91,9.86,1.88c5.98-0.05,11.97-0.1,17.95-0.14c12.63-0.1,25.27-0.2,37.9-0.3
					c24.16-0.19,48.31-0.38,72.47-0.58c12.24-0.1,24.48-0.19,36.72-0.29c12.19-0.1,24.54,0.37,36.72-0.29
					c9.23-0.5,2.63-10.12,1.58-15.43c-2.18-11.01-0.7-22.97-0.63-34.12c0.16-24.47-0.49-48.94-1.94-73.37
					c-0.26-4.32,0.38-10.19-1.18-14.24c-1.23-3.2-4.02-3.36-7.09-3.38C32.32,4.17,20.05,4.31,7.78,4.35
					c-55.04,0.16-110.07,0.32-165.11,0.48c-1.93,0.01-1.93,3.01,0,3c45.09-0.13,90.18-0.27,135.26-0.4
					c22.19-0.07,44.45-0.66,66.64-0.2c4.52,0.09,4.52,2.94,4.77,6.69c0.18,2.64,0.34,5.28,0.5,7.92c0.33,5.61,0.63,11.23,0.88,16.84
					c0.5,11.23,0.83,22.47,0.98,33.71c0.16,11.24,0.14,22.49-0.04,33.73c-0.15,9.03-0.93,18.48,1.64,27.27
					c0.31,1.08,0.68,2.13,1.09,3.17c1.1,2.84,1.67,1.94-0.19,3.96c-1.88,2.04-5.64,1.28-8.3,1.3c-5.62,0.04-11.25,0.09-16.87,0.13
					c-11.25,0.09-22.49,0.18-33.74,0.27c-45.08,0.36-90.15,0.72-135.23,1.07c-2.99,0.02-5.98,0.05-8.98,0.07
					c-1.29,0.01-2.88,0.34-4.12-0.06c-2.68-0.84-2.77-2.93-3.01-5.37c-0.64-6.51-0.16-13.35-0.25-19.89
					c-0.15-12.27-0.3-24.53-0.45-36.8c-0.32-25.5-0.63-51.03-0.94-76.56C-157.72,2.75-160.72,2.74-160.69,4.68L-160.69,4.68z"/>
			</g>
		</g>
		<text transform="matrix(0.5944 0 0 1 -138 112.5302)" class="st11 st12">SEJONG</text>
	</g>
</g>
</svg>
