<?xml version="1.0" encoding="utf-8"?>
<!-- Generator: Adobe Illustrator 23.0.0, SVG Export Plug-In . SVG Version: 6.00 Build 0)  -->
<svg version="1.1" id="Layer_1" xmlns="http://www.w3.org/2000/svg" xmlns:xlink="http://www.w3.org/1999/xlink" x="0px" y="0px"
	 viewBox="0 0 15 150" style="enable-background:new 0 0 15 150;" xml:space="preserve">
<style type="text/css">
	.st0{clip-path:url(#SVGID_2_);}
	.st1{fill:#FFFFFF;}
	.st2{clip-path:url(#SVGID_4_);}
	.st3{clip-path:url(#SVGID_6_);}
	.st4{clip-path:url(#SVGID_8_);}
	.st5{clip-path:url(#SVGID_10_);}
	.st6{clip-path:url(#SVGID_12_);}
	.st7{clip-path:url(#SVGID_14_);}
	.st8{clip-path:url(#SVGID_16_);}
	.st9{clip-path:url(#SVGID_18_);}
	.st10{font-family:'Fresh-Lychee';}
	.st11{font-size:86.3006px;}
	.st12{clip-path:url(#SVGID_20_);}
	.st13{clip-path:url(#SVGID_22_);}
	.st14{clip-path:url(#SVGID_24_);}
	.st15{clip-path:url(#SVGID_26_);}
	.st16{clip-path:url(#SVGID_28_);}
	.st17{clip-path:url(#SVGID_30_);}
</style>
<g>
	<defs>
		<rect id="SVGID_17_" x="-70" width="15" height="150"/>
	</defs>
	<clipPath id="SVGID_2_">
		<use xlink:href="#SVGID_17_"  style="overflow:visible;"/>
	</clipPath>
	<g class="st0">
		<g>
			<rect x="-190" y="0" class="st1" width="225" height="150"/>
		</g>
		<g>
			<g>
				<path d="M-186.33,2.35c0.36,25.29,0.73,50.59,1.09,75.88c0.18,12.65,0.36,25.29,0.55,37.94c0.09,5.99,0.17,11.98,0.26,17.97
					c0.05,3.65-0.55,8.18,2.13,11.11c2.17,2.37,5.53,2.67,8.57,2.74c6.19,0.13,12.42-0.1,18.61-0.16
					c12.61-0.11,25.23-0.23,37.84-0.34c25.23-0.23,50.45-0.45,75.68-0.68c12.28-0.11,24.56-0.22,36.85-0.33
					c5.97-0.05,11.95-0.11,17.92-0.16c5.04-0.05,11.42,0.99,16.31-0.42c8.04-2.32,4.92-14.37,3.69-20.24
					c-2.52-12.07-2.71-23.91-2.67-36.19c0.09-24.79,0.18-49.57,0.27-74.36c0.01-3.62,1.13-9.2-1.44-12.28
					c-1.92-2.31-5.2-2.54-7.99-2.51C9.19,0.47-3.01,1.48-15.16,1.93c-56.43,2.11-112.93,2.3-169.37,0.64c-1.93-0.06-1.93,2.94,0,3
					c45.49,1.34,91.01,1.48,136.51,0.37c22.91-0.56,45.81-2.09,68.71-2.61C24,3.26,26.86,5.08,27.8,8.16
					c0.69,2.25-0.02,5.55-0.03,7.93c-0.02,5.95-0.04,11.9-0.06,17.85c-0.04,11.24-0.08,22.47-0.12,33.71
					c-0.04,11.04-0.21,22.09-0.09,33.13c0.11,10.04,1.77,19.31,3.48,29.14c0.5,2.83,1.22,6.69,0.38,9.53
					c-1.28,4.28-4.55,3.75-8.23,3.78c-5.97,0.05-11.95,0.11-17.92,0.16c-11.29,0.1-22.57,0.2-33.86,0.3
					c-45.48,0.41-90.95,0.82-136.43,1.23c-3.09,0.03-6.26,0.27-9.34,0.06c-1.11-0.07-2.81,0.01-3.7-0.53
					c-2.17-1.32-3.23-4.97-3.27-7.31c-0.12-6.32-0.18-12.65-0.27-18.97c-0.18-12.65-0.36-25.29-0.55-37.94
					c-0.38-25.97-0.75-51.92-1.12-77.88C-183.36,0.42-186.36,0.41-186.33,2.35L-186.33,2.35z"/>
			</g>
		</g>
		<text transform="matrix(0.5727 0 0 1 -118 98.3535)" class="st10 st11">SEJONG</text>
	</g>
</g>
<g>
	<defs>
		<rect id="SVGID_19_" x="-35" width="15" height="150"/>
	</defs>
	<clipPath id="SVGID_4_">
		<use xlink:href="#SVGID_19_"  style="overflow:visible;"/>
	</clipPath>
	<g class="st2">
		<g>
			<rect x="-170" y="0" class="st1" width="225" height="150"/>
		</g>
		<g>
			<g>
				<path d="M-166.33,2.35c0.36,25.29,0.73,50.59,1.09,75.88c0.18,12.65,0.36,25.29,0.55,37.94c0.09,5.99,0.17,11.98,0.26,17.97
					c0.05,3.65-0.55,8.18,2.13,11.11c2.17,2.37,5.53,2.67,8.57,2.74c6.19,0.13,12.42-0.1,18.61-0.16
					c12.61-0.11,25.23-0.23,37.84-0.34c25.23-0.23,50.45-0.45,75.68-0.68c12.28-0.11,24.56-0.22,36.85-0.33
					c5.97-0.05,11.95-0.11,17.92-0.16c5.04-0.05,11.42,0.99,16.31-0.42c8.04-2.32,4.92-14.37,3.69-20.24
					c-2.52-12.07-2.71-23.91-2.67-36.19c0.09-24.79,0.18-49.57,0.27-74.36c0.01-3.62,1.13-9.2-1.44-12.28
					c-1.92-2.31-5.2-2.54-7.99-2.51C29.19,0.47,16.99,1.48,4.84,1.93c-56.43,2.11-112.93,2.3-169.37,0.64c-1.93-0.06-1.93,2.94,0,3
					c45.49,1.34,91.01,1.48,136.51,0.37c22.91-0.56,45.81-2.09,68.71-2.61C44,3.26,46.86,5.08,47.8,8.16
					c0.69,2.25-0.02,5.55-0.03,7.93c-0.02,5.95-0.04,11.9-0.06,17.85c-0.04,11.24-0.08,22.47-0.12,33.71
					c-0.04,11.04-0.21,22.09-0.09,33.13c0.11,10.04,1.77,19.31,3.48,29.14c0.5,2.83,1.22,6.69,0.38,9.53
					c-1.28,4.28-4.55,3.75-8.23,3.78c-5.97,0.05-11.95,0.11-17.92,0.16c-11.29,0.1-22.57,0.2-33.86,0.3
					c-45.48,0.41-90.95,0.82-136.43,1.23c-3.09,0.03-6.26,0.27-9.34,0.06c-1.11-0.07-2.81,0.01-3.7-0.53
					c-2.17-1.32-3.23-4.97-3.27-7.31c-0.12-6.32-0.18-12.65-0.27-18.97c-0.18-12.65-0.36-25.29-0.55-37.94
					c-0.38-25.97-0.75-51.92-1.12-77.88C-163.36,0.42-166.36,0.41-166.33,2.35L-166.33,2.35z"/>
			</g>
		</g>
		<text transform="matrix(0.5727 0 0 1 -98 98.3535)" class="st10 st11">SEJONG</text>
	</g>
</g>
<g>
	<defs>
		<rect id="SVGID_21_" width="15" height="150"/>
	</defs>
	<clipPath id="SVGID_6_">
		<use xlink:href="#SVGID_21_"  style="overflow:visible;"/>
	</clipPath>
	<g class="st3">
		<g>
			<rect x="-150" y="0" class="st1" width="225" height="150"/>
		</g>
		<g>
			<g>
				<path d="M-146.33,2.35c0.36,25.29,0.73,50.59,1.09,75.88c0.18,12.65,0.36,25.29,0.55,37.94c0.09,5.99,0.17,11.98,0.26,17.97
					c0.05,3.65-0.55,8.18,2.13,11.11c2.17,2.37,5.53,2.67,8.57,2.74c6.19,0.13,12.42-0.1,18.61-0.16
					c12.61-0.11,25.23-0.23,37.84-0.34c25.23-0.23,50.45-0.45,75.68-0.68c12.28-0.11,24.56-0.22,36.85-0.33
					c5.97-0.05,11.95-0.11,17.92-0.16c5.04-0.05,11.42,0.99,16.31-0.42c8.04-2.32,4.92-14.37,3.69-20.24
					c-2.52-12.07-2.71-23.91-2.67-36.19c0.09-24.79,0.18-49.57,0.27-74.36c0.01-3.62,1.13-9.2-1.44-12.28
					c-1.92-2.31-5.2-2.54-7.99-2.51c-12.15,0.15-24.35,1.16-36.5,1.61c-56.43,2.11-112.93,2.3-169.37,0.64c-1.93-0.06-1.93,2.94,0,3
					C-99.04,6.91-53.52,7.05-8.02,5.94c22.91-0.56,45.81-2.09,68.71-2.61C64,3.26,66.86,5.08,67.8,8.16
					c0.69,2.25-0.02,5.55-0.03,7.93c-0.02,5.95-0.04,11.9-0.06,17.85c-0.04,11.24-0.08,22.47-0.12,33.71
					c-0.04,11.04-0.21,22.09-0.09,33.13c0.11,10.04,1.77,19.31,3.48,29.14c0.5,2.83,1.22,6.69,0.38,9.53
					c-1.28,4.28-4.55,3.75-8.23,3.78c-5.97,0.05-11.95,0.11-17.92,0.16c-11.29,0.1-22.57,0.2-33.86,0.3
					c-45.48,0.41-90.95,0.82-136.43,1.23c-3.09,0.03-6.26,0.27-9.34,0.06c-1.11-0.07-2.81,0.01-3.7-0.53
					c-2.17-1.32-3.23-4.97-3.27-7.31c-0.12-6.32-0.18-12.65-0.27-18.97c-0.18-12.65-0.36-25.29-0.55-37.94
					c-0.38-25.97-0.75-51.92-1.12-77.88C-143.36,0.42-146.36,0.41-146.33,2.35L-146.33,2.35z"/>
			</g>
		</g>
		<text transform="matrix(0.5727 0 0 1 -78 98.3535)" class="st10 st11">SEJONG</text>
	</g>
</g>
<g>
	<defs>
		<rect id="SVGID_23_" x="35" width="15" height="150"/>
	</defs>
	<clipPath id="SVGID_8_">
		<use xlink:href="#SVGID_23_"  style="overflow:visible;"/>
	</clipPath>
	<g class="st4">
		<g>
			<rect x="-130" y="0" class="st1" width="225" height="150"/>
		</g>
		<g>
			<g>
				<path d="M-126.33,2.35c0.36,25.29,0.73,50.59,1.09,75.88c0.18,12.65,0.36,25.29,0.55,37.94c0.09,5.99,0.17,11.98,0.26,17.97
					c0.05,3.65-0.55,8.18,2.13,11.11c2.17,2.37,5.53,2.67,8.57,2.74c6.19,0.13,12.42-0.1,18.61-0.16
					c12.61-0.11,25.23-0.23,37.84-0.34c25.23-0.23,50.45-0.45,75.68-0.68c12.28-0.11,24.56-0.22,36.85-0.33
					c5.97-0.05,11.95-0.11,17.92-0.16c5.04-0.05,11.42,0.99,16.31-0.42c8.04-2.32,4.92-14.37,3.69-20.24
					c-2.52-12.07-2.71-23.91-2.67-36.19c0.09-24.79,0.18-49.57,0.27-74.36c0.01-3.62,1.13-9.2-1.44-12.28
					c-1.92-2.31-5.2-2.54-7.99-2.51c-12.15,0.15-24.35,1.16-36.5,1.61c-56.43,2.11-112.93,2.3-169.37,0.64c-1.93-0.06-1.93,2.94,0,3
					c45.49,1.34,91.01,1.48,136.51,0.37c22.91-0.56,45.81-2.09,68.71-2.61C84,3.26,86.86,5.08,87.8,8.16
					c0.69,2.25-0.02,5.55-0.03,7.93c-0.02,5.95-0.04,11.9-0.06,17.85c-0.04,11.24-0.08,22.47-0.12,33.71
					c-0.04,11.04-0.21,22.09-0.09,33.13c0.11,10.04,1.77,19.31,3.48,29.14c0.5,2.83,1.22,6.69,0.38,9.53
					c-1.28,4.28-4.55,3.75-8.23,3.78c-5.97,0.05-11.95,0.11-17.92,0.16c-11.29,0.1-22.57,0.2-33.86,0.3
					c-45.48,0.41-90.95,0.82-136.43,1.23c-3.09,0.03-6.26,0.27-9.34,0.06c-1.11-0.07-2.81,0.01-3.7-0.53
					c-2.17-1.32-3.23-4.97-3.27-7.31c-0.12-6.32-0.18-12.65-0.27-18.97c-0.18-12.65-0.36-25.29-0.55-37.94
					c-0.38-25.97-0.75-51.92-1.12-77.88C-123.36,0.42-126.36,0.41-126.33,2.35L-126.33,2.35z"/>
			</g>
		</g>
		<text transform="matrix(0.5727 0 0 1 -58 98.3535)" class="st10 st11">SEJONG</text>
	</g>
</g>
</svg>
