<?xml version="1.0" encoding="utf-8"?>
<!-- Generator: Adobe Illustrator 23.0.0, SVG Export Plug-In . SVG Version: 6.00 Build 0)  -->
<svg version="1.1" id="Layer_1" xmlns="http://www.w3.org/2000/svg" xmlns:xlink="http://www.w3.org/1999/xlink" x="0px" y="0px"
	 viewBox="0 0 15 150" style="enable-background:new 0 0 15 150;" xml:space="preserve">
<style type="text/css">
	.st0{clip-path:url(#SVGID_2_);}
	.st1{fill:#FFFFFF;}
	.st2{clip-path:url(#SVGID_4_);}
	.st3{clip-path:url(#SVGID_6_);}
	.st4{clip-path:url(#SVGID_8_);}
	.st5{clip-path:url(#SVGID_10_);}
	.st6{clip-path:url(#SVGID_12_);}
	.st7{clip-path:url(#SVGID_14_);}
	.st8{clip-path:url(#SVGID_16_);}
	.st9{clip-path:url(#SVGID_18_);}
	.st10{clip-path:url(#SVGID_20_);}
	.st11{clip-path:url(#SVGID_22_);}
	.st12{clip-path:url(#SVGID_24_);}
	.st13{clip-path:url(#SVGID_26_);}
	.st14{clip-path:url(#SVGID_28_);}
	.st15{clip-path:url(#SVGID_30_);}
</style>
<g>
	<defs>
		<rect id="SVGID_29_" width="15" height="150"/>
	</defs>
	<clipPath id="SVGID_2_">
		<use xlink:href="#SVGID_29_"  style="overflow:visible;"/>
	</clipPath>
	<g class="st0">
		<g>
			<rect x="-210" y="0" class="st1" width="225" height="150"/>
		</g>
		<g>
			<g>
				<path d="M-206.33,2.35c0.36,25.29,0.73,50.59,1.09,75.88c0.18,12.65,0.36,25.29,0.55,37.94c0.09,5.99,0.17,11.98,0.26,17.97
					c0.05,3.65-0.55,8.18,2.13,11.11c2.17,2.37,5.53,2.67,8.57,2.74c6.19,0.13,12.42-0.1,18.61-0.16
					c12.61-0.11,25.23-0.23,37.84-0.34c25.23-0.23,50.45-0.45,75.68-0.68c12.28-0.11,24.56-0.22,36.85-0.33
					c5.97-0.05,11.95-0.11,17.92-0.16c5.04-0.05,11.42,0.99,16.31-0.42c8.04-2.32,4.92-14.37,3.69-20.24
					c-2.52-12.07-2.71-23.91-2.67-36.19c0.09-24.79,0.18-49.57,0.27-74.36c0.01-3.62,1.13-9.2-1.44-12.28
					c-1.92-2.31-5.2-2.54-7.99-2.51c-12.15,0.15-24.35,1.16-36.5,1.61c-56.43,2.11-112.93,2.3-169.37,0.64c-1.93-0.06-1.93,2.94,0,3
					c45.49,1.34,91.01,1.48,136.51,0.37c22.91-0.56,45.81-2.09,68.71-2.61C4,3.26,6.86,5.08,7.8,8.16c0.69,2.25-0.02,5.55-0.03,7.93
					c-0.02,5.95-0.04,11.9-0.06,17.85C7.67,45.18,7.63,56.41,7.59,67.65C7.55,78.69,7.38,89.74,7.5,100.78
					c0.11,10.04,1.77,19.31,3.48,29.14c0.5,2.83,1.22,6.69,0.38,9.53c-1.28,4.28-4.55,3.75-8.23,3.78
					c-5.97,0.05-11.95,0.11-17.92,0.16c-11.29,0.1-22.57,0.2-33.86,0.3c-45.48,0.41-90.95,0.82-136.43,1.23
					c-3.09,0.03-6.26,0.27-9.34,0.06c-1.11-0.07-2.81,0.01-3.7-0.53c-2.17-1.32-3.23-4.97-3.27-7.31
					c-0.12-6.32-0.18-12.65-0.27-18.97c-0.18-12.65-0.36-25.29-0.55-37.94c-0.38-25.97-0.75-51.92-1.12-77.88
					C-203.36,0.42-206.36,0.41-206.33,2.35L-206.33,2.35z"/>
			</g>
		</g>
	</g>
</g>
</svg>
