<?xml version="1.0" encoding="utf-8"?>
<!-- Generator: Adobe Illustrator 23.0.0, SVG Export Plug-In . SVG Version: 6.00 Build 0)  -->
<svg version="1.1" id="Layer_1" xmlns="http://www.w3.org/2000/svg" xmlns:xlink="http://www.w3.org/1999/xlink" x="0px" y="0px"
	 viewBox="0 0 15 150" style="enable-background:new 0 0 15 150;" xml:space="preserve">
<style type="text/css">
	.st0{clip-path:url(#SVGID_2_);}
	.st1{fill:#FFFFFF;}
	.st2{font-family:'MilkoDenilo-Regular';}
	.st3{font-size:67.2556px;}
	.st4{clip-path:url(#SVGID_4_);}
	.st5{clip-path:url(#SVGID_6_);}
	.st6{clip-path:url(#SVGID_8_);}
	.st7{clip-path:url(#SVGID_10_);}
	.st8{clip-path:url(#SVGID_12_);}
	.st9{clip-path:url(#SVGID_14_);}
	.st10{clip-path:url(#SVGID_16_);}
	.st11{clip-path:url(#SVGID_18_);}
	.st12{clip-path:url(#SVGID_20_);}
	.st13{clip-path:url(#SVGID_22_);}
	.st14{clip-path:url(#SVGID_24_);}
	.st15{clip-path:url(#SVGID_26_);}
	.st16{clip-path:url(#SVGID_28_);}
	.st17{clip-path:url(#SVGID_30_);}
</style>
<g>
	<defs>
		<rect id="SVGID_1_" x="-35" width="15" height="150"/>
	</defs>
	<clipPath id="SVGID_2_">
		<use xlink:href="#SVGID_1_"  style="overflow:visible;"/>
	</clipPath>
	<g class="st0">
		<g>
			<rect x="-34.5" y="-1" class="st1" width="225" height="150"/>
		</g>
		<g>
			<g>
				<path d="M-31.97,3.22c0.77,25.03,1.35,50.06,1.73,75.09c0.19,12.52,0.33,25.03,0.42,37.55c0.04,5.93,0.07,11.86,0.09,17.79
					c0.01,3.22-0.95,8.47,1.42,11.24c2.16,2.52,6.5,1.6,9.34,1.57c6.17-0.07,12.35-0.14,18.52-0.21
					c12.62-0.14,25.25-0.28,37.87-0.42c25.32-0.28,50.63-0.56,75.95-0.84c12.32-0.14,24.65-0.27,36.97-0.41
					c6-0.07,11.99-0.13,17.99-0.2c3.95-0.04,10.79,1.28,14.36-0.79c2.8-1.63,2.51-5.2,2.29-7.94c-0.48-6.03-0.82-12.05-0.9-18.11
					c-0.17-12.13,0.43-24.26,1.06-36.38c1.2-23.26,2.54-46.72-1.13-69.83c-0.46-2.9-0.44-8.93-3.62-10.6
					c-0.77-0.41-1.66-0.39-2.49-0.39c-3.54,0.01-7.58,1.33-11.08,1.73c-11.66,1.34-23.46,1.35-35.18,1.7
					c-27.63,0.82-55.26,1.96-82.9,2.37C20.94,6.55-6.64,3.91-34.25,1.02c-1.92-0.2-1.9,2.8,0,3c22.51,2.35,45.06,4.71,67.71,5.12
					c22.07,0.39,44.19-0.77,66.25-1.42c22.55-0.67,45.61-0.04,68.03-2.75c1.98-0.24,3.95-0.52,5.91-0.85
					c0.87-0.15,2.95-0.84,3.65-0.68c1.93,0.43,2.53,2.55,3,4c1.84,5.7,1.94,12.48,2.41,18.43c0.85,10.75,0.82,21.56,0.48,32.33
					c-0.72,22.32-2.86,44.63-1.91,66.98c0.17,3.87,2.94,14.21-1.96,16.08c-2.01,0.77-5.84,0.06-7.99,0.09
					c-3.33,0.04-6.66,0.07-9.99,0.11c-11.33,0.13-22.65,0.25-33.98,0.38c-45.85,0.51-91.7,1.02-137.56,1.53
					c-3.25,0.04-6.5,0.07-9.75,0.11c-0.59,0.01-3.16,0.34-3.9,0.04c-3.42-1.36-2.86-3.29-2.88-5.91
					c-0.04-6.26-0.04-12.52-0.09-18.78c-0.08-12.85-0.22-25.69-0.41-38.54c-0.36-25.7-0.95-51.38-1.74-77.07
					C-29.03,1.3-32.03,1.29-31.97,3.22L-31.97,3.22z"/>
			</g>
		</g>
		<text transform="matrix(0.8963 0 0 1 -12.0542 110.7139)" class="st2 st3">SEJONG</text>
	</g>
</g>
<g>
	<defs>
		<rect id="SVGID_3_" width="15" height="150"/>
	</defs>
	<clipPath id="SVGID_4_">
		<use xlink:href="#SVGID_3_"  style="overflow:visible;"/>
	</clipPath>
	<g class="st4">
		<g>
			<rect x="-14.5" y="-1" class="st1" width="225" height="150"/>
		</g>
		<g>
			<g>
				<path d="M-11.97,3.22c0.77,25.03,1.35,50.06,1.73,75.09c0.19,12.52,0.33,25.03,0.42,37.55c0.04,5.93,0.07,11.86,0.09,17.79
					c0.01,3.22-0.95,8.47,1.42,11.24c2.16,2.52,6.5,1.6,9.34,1.57c6.17-0.07,12.35-0.14,18.52-0.21
					c12.62-0.14,25.25-0.28,37.87-0.42c25.32-0.28,50.63-0.56,75.95-0.84c12.32-0.14,24.65-0.27,36.97-0.41
					c6-0.07,11.99-0.13,17.99-0.2c3.95-0.04,10.79,1.28,14.36-0.79c2.8-1.63,2.51-5.2,2.29-7.94c-0.48-6.03-0.82-12.05-0.9-18.11
					c-0.17-12.13,0.43-24.26,1.06-36.38c1.2-23.26,2.54-46.72-1.13-69.83c-0.46-2.9-0.44-8.93-3.62-10.6
					c-0.77-0.41-1.66-0.39-2.49-0.39c-3.54,0.01-7.58,1.33-11.08,1.73c-11.66,1.34-23.46,1.35-35.18,1.7
					c-27.63,0.82-55.26,1.96-82.9,2.37c-27.8,0.41-55.38-2.23-82.99-5.12c-1.92-0.2-1.9,2.8,0,3C8.26,6.37,30.81,8.73,53.46,9.14
					c22.07,0.39,44.19-0.77,66.25-1.42c22.55-0.67,45.61-0.04,68.03-2.75c1.98-0.24,3.95-0.52,5.91-0.85
					c0.87-0.15,2.95-0.84,3.65-0.68c1.93,0.43,2.53,2.55,3,4c1.84,5.7,1.94,12.48,2.41,18.43c0.85,10.75,0.82,21.56,0.48,32.33
					c-0.72,22.32-2.86,44.63-1.91,66.98c0.17,3.87,2.94,14.21-1.96,16.08c-2.01,0.77-5.84,0.06-7.99,0.09
					c-3.33,0.04-6.66,0.07-9.99,0.11c-11.33,0.13-22.65,0.25-33.98,0.38c-45.85,0.51-91.7,1.02-137.56,1.53
					c-3.25,0.04-6.5,0.07-9.75,0.11c-0.59,0.01-3.16,0.34-3.9,0.04c-3.42-1.36-2.86-3.29-2.88-5.91
					c-0.04-6.26-0.04-12.52-0.09-18.78c-0.08-12.85-0.22-25.69-0.41-38.54c-0.36-25.7-0.95-51.38-1.74-77.07
					C-9.03,1.3-12.03,1.29-11.97,3.22L-11.97,3.22z"/>
			</g>
		</g>
		<text transform="matrix(0.8963 0 0 1 7.9458 110.7139)" class="st2 st3">SEJONG</text>
	</g>
</g>
<g>
	<defs>
		<rect id="SVGID_5_" x="35" width="15" height="150"/>
	</defs>
	<clipPath id="SVGID_6_">
		<use xlink:href="#SVGID_5_"  style="overflow:visible;"/>
	</clipPath>
	<g class="st5">
		<g>
			<rect x="5.5" y="-1" class="st1" width="225" height="150"/>
		</g>
		<g>
			<g>
				<path d="M8.03,3.22C8.8,28.25,9.38,53.28,9.76,78.31c0.19,12.52,0.33,25.03,0.42,37.55c0.04,5.93,0.07,11.86,0.09,17.79
					c0.01,3.22-0.95,8.47,1.42,11.24c2.16,2.52,6.5,1.6,9.34,1.57c6.17-0.07,12.35-0.14,18.52-0.21
					c12.62-0.14,25.25-0.28,37.87-0.42c25.32-0.28,50.63-0.56,75.95-0.84c12.32-0.14,24.65-0.27,36.97-0.41
					c6-0.07,11.99-0.13,17.99-0.2c3.95-0.04,10.79,1.28,14.36-0.79c2.8-1.63,2.51-5.2,2.29-7.94c-0.48-6.03-0.82-12.05-0.9-18.11
					c-0.17-12.13,0.43-24.26,1.06-36.38c1.2-23.26,2.54-46.72-1.13-69.83c-0.46-2.9-0.44-8.93-3.62-10.6
					c-0.77-0.41-1.66-0.39-2.49-0.39c-3.54,0.01-7.58,1.33-11.08,1.73c-11.66,1.34-23.46,1.35-35.18,1.7
					c-27.63,0.82-55.26,1.96-82.9,2.37C60.94,6.55,33.36,3.91,5.75,1.02c-1.92-0.2-1.9,2.8,0,3c22.51,2.35,45.06,4.71,67.71,5.12
					c22.07,0.39,44.19-0.77,66.25-1.42c22.55-0.67,45.61-0.04,68.03-2.75c1.98-0.24,3.95-0.52,5.91-0.85
					c0.87-0.15,2.95-0.84,3.65-0.68c1.93,0.43,2.53,2.55,3,4c1.84,5.7,1.94,12.48,2.41,18.43c0.85,10.75,0.82,21.56,0.48,32.33
					c-0.72,22.32-2.86,44.63-1.91,66.98c0.17,3.87,2.94,14.21-1.96,16.08c-2.01,0.77-5.84,0.06-7.99,0.09
					c-3.33,0.04-6.66,0.07-9.99,0.11c-11.33,0.13-22.65,0.25-33.98,0.38c-45.85,0.51-91.7,1.02-137.56,1.53
					c-3.25,0.04-6.5,0.07-9.75,0.11c-0.59,0.01-3.16,0.34-3.9,0.04c-3.42-1.36-2.86-3.29-2.88-5.91
					c-0.04-6.26-0.04-12.52-0.09-18.78c-0.08-12.85-0.22-25.69-0.41-38.54c-0.36-25.7-0.95-51.38-1.74-77.07
					C10.97,1.3,7.97,1.29,8.03,3.22L8.03,3.22z"/>
			</g>
		</g>
	</g>
</g>
</svg>
